<svg width="26" height="31" viewBox="0 0 26 31" fill="none" xmlns="http://www.w3.org/2000/svg">
<g clip-path="url(#clip0)">
<path d="M14.2429 25.9271C19.4584 25.3429 23.6383 21.1736 24.2332 15.958C25.0139 9.13845 19.7134 3.33333 13.0691 3.25897V0.199728C13.0691 0.0297702 12.8566 -0.0605199 12.7132 0.0457037L6.41417 4.67174C6.30795 4.75141 6.30795 4.90544 6.41417 4.9851L12.7132 9.61114C12.8566 9.71737 13.0691 9.62177 13.0691 9.45712V6.40319C17.7376 6.47754 21.4767 10.4503 21.158 15.1985C20.8871 19.2828 17.557 22.597 13.4727 22.8572C9.14412 23.1334 5.46347 20.0423 4.80488 15.9527C4.68272 15.1932 4.01882 14.6408 3.25401 14.6408C2.30331 14.6408 1.55975 15.4853 1.70846 16.4254C2.63261 22.2518 8.01283 26.6229 14.2429 25.9271Z" fill="#57CBA1"/>
</g>
<path d="M18.5 19V30" stroke="white" stroke-width="2" stroke-linecap="round" stroke-linejoin="round"/>
<path d="M13 24.5H24" stroke="white" stroke-width="2" stroke-linecap="round" stroke-linejoin="round"/>
<defs>
<clipPath id="clip0">
<rect width="26" height="26" fill="white"/>
</clipPath>
</defs>
</svg>
