<svg width="25" height="25" viewBox="0 0 25 25" fill="none" xmlns="http://www.w3.org/2000/svg">
<path d="M15.9091 25H22.7273C23.9807 25 25 23.9807 25 22.7273V15.9091C25 14.6556 23.9807 13.6363 22.7273 13.6363H15.9091C14.6556 13.6363 13.6363 14.6556 13.6363 15.9091V22.7273C13.6364 23.9807 14.6556 25 15.9091 25Z" fill="#57CBA1"/>
<path d="M2.27235 25H9.09053C10.344 25 11.3633 23.9807 11.3633 22.7273V15.9091C11.3633 14.6556 10.344 13.6363 9.09053 13.6363H2.27235C1.01892 13.6363 -0.00039959 14.6556 -0.00039959 15.9091V22.7273C-0.000346184 23.9807 1.01892 25 2.27235 25Z" fill="#57CBA1"/>
<path d="M15.9091 11.3638H22.7273C23.9807 11.3638 25 10.3445 25 9.09102V2.27284C25 1.01941 23.9807 8.86917e-05 22.7273 8.86917e-05H15.9091C14.6556 8.86917e-05 13.6363 1.01936 13.6363 2.27284V9.09102C13.6364 10.3445 14.6556 11.3638 15.9091 11.3638Z" fill="#57CBA1"/>
<path d="M2.84078 6.81807H4.54533V8.52262C4.54533 8.83668 4.79946 9.09082 5.11353 9.09082H6.24987C6.56394 9.09082 6.81807 8.83668 6.81807 8.52262V6.81807H8.52262C8.83668 6.81807 9.09082 6.56394 9.09082 6.24987V5.11353C9.09082 4.79946 8.83668 4.54533 8.52262 4.54533H6.81807V2.84078C6.81807 2.52672 6.56394 2.27258 6.24987 2.27258H5.11353C4.79946 2.27258 4.54533 2.52672 4.54533 2.84078V4.54533H2.84078C2.52672 4.54533 2.27258 4.79946 2.27258 5.11353V6.24987C2.27258 6.56394 2.52672 6.81807 2.84078 6.81807Z" fill="#57CBA1"/>
</svg>
