<svg width="11" height="12" viewBox="0 0 11 12" fill="none" xmlns="http://www.w3.org/2000/svg">
<path d="M0 9.50015V11.9998H2.29133L9.04642 4.63059L6.7551 2.12801L0 9.50015ZM10.821 2.6947C10.8777 2.63309 10.9226 2.55987 10.9533 2.47925C10.984 2.39864 10.9998 2.31221 10.9998 2.22492C10.9998 2.13762 10.984 2.05119 10.9533 1.97058C10.9226 1.88996 10.8777 1.81674 10.821 1.75513L9.38958 0.19507C9.3331 0.133239 9.26599 0.0841801 9.19209 0.0507057C9.11819 0.0172312 9.03896 0 8.95895 0C8.87893 0 8.7997 0.0172312 8.7258 0.0507057C8.65191 0.0841801 8.58479 0.133239 8.52831 0.19507L7.41169 1.41467L9.70302 3.9143L10.821 2.6947Z" fill="url(#paint0_linear)"/>
<defs>
<linearGradient id="paint0_linear" x1="0" y1="5.99989" x2="10.9998" y2="5.99989" gradientUnits="userSpaceOnUse">
<stop stop-color="#84FAB0"/>
<stop offset="1" stop-color="#8FD3F4"/>
</linearGradient>
</defs>
</svg>
