<svg xmlns="http://www.w3.org/2000/svg" width="29.064" height="30" viewBox="0 0 29.064 30">
  <path id="Path_604" data-name="Path 604" d="M43.206,57.98a4.914,4.914,0,0,1-4.682-3.762H31.708a3.046,3.046,0,0,1-2.815-2.01,3.237,3.237,0,0,1,.845-3.6l1.152-1.029A4.771,4.771,0,0,0,32.444,44v-1.69a11.361,11.361,0,0,1,7.279-10.863,3.462,3.462,0,1,1,6.924,0,11.354,11.354,0,0,1,7.306,10.863v1.717a4.771,4.771,0,0,0,1.52,3.564l1.152,1.029h0a3.237,3.237,0,0,1,.893,3.592,3.046,3.046,0,0,1-2.842,2H47.86a4.914,4.914,0,0,1-4.655,3.769ZM41.079,52.9a2.14,2.14,0,1,0,4.259,0v-.034A1.363,1.363,0,0,1,46.7,51.5h7.96a.32.32,0,0,0,.293-.252.538.538,0,0,0-.116-.593l-1.145-1.029a7.5,7.5,0,0,1-2.46-5.616v-1.7a8.573,8.573,0,0,0-6.263-8.512,1.363,1.363,0,0,1-1.036-1.322v-.852a.756.756,0,1,0-1.479,0v.838A1.363,1.363,0,0,1,41.42,33.78a8.617,8.617,0,0,0-6.27,8.526v1.717a7.5,7.5,0,0,1-2.46,5.616l-1.145,1.029a.538.538,0,0,0-.116.593.32.32,0,0,0,.293.252H39.7a1.363,1.363,0,0,1,1.363,1.363v.014Z" transform="translate(-28.666 -27.98)" fill="#fff"/>
</svg>
