<svg xmlns="http://www.w3.org/2000/svg" width="31.027" height="31" viewBox="0 0 31.027 31">
  <path id="Path_606" data-name="Path 606" d="M4.195,23.25a.729.729,0,0,1,.177.828c-.186.447-.345.9-.573,1.329a10.08,10.08,0,0,1-2.22,2.571C1.195,28.344.787,28.71.43,29.1s-.267.564.228.69A6.756,6.756,0,0,0,2.335,30a11.382,11.382,0,0,0,2.16-.24,29.588,29.588,0,0,0,6.9-2.442,1.383,1.383,0,0,1,.6-.147,1.359,1.359,0,0,1,.216.018,17.613,17.613,0,0,0,2.8.228A15.66,15.66,0,0,0,18.679,27a14.644,14.644,0,0,0,9.447-6.69,12.174,12.174,0,0,0,1.686-8.61A13.07,13.07,0,0,0,24.295,3a15.447,15.447,0,0,0-9.12-3c-.78.051-1.566.057-2.34.165A15.211,15.211,0,0,0,4.03,4.38,12.817,12.817,0,0,0,.037,12.741a12.462,12.462,0,0,0,2.421,8.49A25.689,25.689,0,0,0,4.195,23.25ZM1.831,12.882A10.99,10.99,0,0,1,5.29,5.664a13.177,13.177,0,0,1,7.8-3.717c.45-.063.933-.084,1.443-.111l.693-.036a13.725,13.725,0,0,1,8.007,2.646,11.26,11.26,0,0,1,4.8,7.542,10.413,10.413,0,0,1-1.443,7.377,12.766,12.766,0,0,1-8.334,5.88,13.932,13.932,0,0,1-3.228.375,15.9,15.9,0,0,1-2.514-.207,3.114,3.114,0,0,0-1.875.279,28.135,28.135,0,0,1-6.474,2.3h-.03a8.64,8.64,0,0,0,1.26-1.734,10.665,10.665,0,0,0,.5-1.131c.048-.12.093-.237.144-.354a2.511,2.511,0,0,0-.492-2.721c-.156-.174-.3-.345-.471-.519a15.474,15.474,0,0,1-1.152-1.353,10.608,10.608,0,0,1-2.1-7.3Z" transform="translate(0.513 0.5)" fill="#fff" stroke="#fff" stroke-width="1"/>
</svg>
