<svg width="16" height="13" viewBox="0 0 16 13" fill="none" xmlns="http://www.w3.org/2000/svg">
<path d="M14.53 0.000640707C14.1586 0.013017 13.8066 0.16982 13.5489 0.437698C10.7847 3.20789 8.26334 5.93282 5.59302 8.65224L2.31968 6.03892C2.17327 5.9218 2.00523 5.83466 1.82514 5.78248C1.64505 5.7303 1.45644 5.7141 1.27009 5.7348C1.08375 5.75551 0.903298 5.81271 0.739057 5.90315C0.574815 5.99359 0.429996 6.11549 0.312868 6.2619C0.195739 6.40831 0.108596 6.57636 0.0564124 6.75645C0.00422883 6.93654 -0.0119729 7.12514 0.00873263 7.31149C0.0505494 7.68784 0.240158 8.03217 0.535847 8.26872L4.81705 11.6937C5.09146 11.9126 5.43691 12.0227 5.78738 12.003C6.13785 11.9832 6.46876 11.835 6.71684 11.5867C9.79059 8.5063 12.5496 5.47501 15.5647 2.45343C15.7717 2.25329 15.9134 1.99519 15.9711 1.71304C16.0288 1.43088 15.9997 1.13787 15.8878 0.872525C15.7759 0.607177 15.5863 0.381895 15.344 0.226285C15.1016 0.0706758 14.8179 -0.00798616 14.53 0.000640707Z" fill="#00E7F0"/>
</svg>
