<svg xmlns="http://www.w3.org/2000/svg" width="22.145" height="22.156" viewBox="0 0 22.145 22.156">
  <g id="noun_File_1912838" transform="translate(-151 -151)">
    <g id="Group_5170" data-name="Group 5170" transform="translate(151 151)">
      <path id="Path_12310" data-name="Path 12310" d="M153.109,168.558H151v-16.5A1.058,1.058,0,0,1,152.055,151H168.4v2.109H153.109Z" transform="translate(-151 -151)" fill="#fff"/>
      <path id="Path_12311" data-name="Path 12311" d="M203.147,184.5l-8,.021c-2.32.011-4.176.021-5.515.032-.759,0-1.381.011-1.824.021-.939.011-1.16.011-1.476.38-.264.306-.264.422-.274,1.392,0,.443-.011,1.086-.011,1.845-.011,1.519-.011,3.543-.021,5.557-.011,4.039-.021,8.067-.021,8.067a1.307,1.307,0,0,0,1.308,1.308h15.839a1.314,1.314,0,0,0,1.308-1.308V185.808A1.3,1.3,0,0,0,203.147,184.5Zm-8.373,11h-2.868a1.055,1.055,0,1,1,0-2.109h2.858a1.055,1.055,0,0,1,.011,2.109Zm3.775-3.817h-6.644a1.055,1.055,0,1,1,0-2.109h6.644a1.055,1.055,0,0,1,0,2.109Z" transform="translate(-182.309 -180.967)" fill="#fff"/>
    </g>
  </g>
</svg>
