<svg width="16" height="16" viewBox="0 0 16 16" fill="none" xmlns="http://www.w3.org/2000/svg">
<path fill-rule="evenodd" clip-rule="evenodd" d="M3.04435 6.0887H8.58369C9.31617 6.0887 9.9113 6.68383 9.9113 7.39342V12.9557C9.9113 13.6652 9.31617 14.2604 8.58369 14.2604H3.04435C2.33476 14.2604 1.73963 13.6652 1.73963 12.9557V7.39342C1.73963 6.68383 2.33476 6.0887 3.04435 6.0887ZM7.39342 1.73963H12.9557C13.6652 1.73963 14.2604 2.33476 14.2604 3.04435V8.58369C14.2604 9.31617 13.6652 9.9113 12.9557 9.9113H11.6509V7.39342C11.6509 6.56939 11.3076 5.81402 10.7582 5.26466V5.24177H10.7353C10.186 4.69242 9.43062 4.34907 8.58369 4.34907H6.0887V3.04435C6.0887 2.33476 6.68383 1.73963 7.39342 1.73963ZM11.6509 11.6509H12.9557C13.7797 11.6509 14.5351 11.3076 15.0844 10.7582L15.1073 10.7353C15.6567 10.186 16 9.43062 16 8.58369V3.04435C16 2.22031 15.6567 1.46495 15.1073 0.892704H15.0844C14.5351 0.343348 13.7797 0 12.9557 0H7.39342C6.56939 0 5.81402 0.343348 5.26466 0.892704H5.24177C4.69242 1.44206 4.34907 2.22031 4.34907 3.04435V4.34907H3.04435C2.22031 4.34907 1.46495 4.69242 0.892704 5.24177C0.343348 5.81402 0 6.56939 0 7.39342V12.9557C0 13.7797 0.343348 14.5351 0.892704 15.0844V15.1073C1.44206 15.6567 2.22031 16 3.04435 16H8.58369C9.43062 16 10.186 15.6567 10.7353 15.1073L10.7582 15.0844C11.3076 14.5351 11.6509 13.7797 11.6509 12.9557V11.6509Z" fill="#E2E2E2" fill-opacity="0.25"/>
</svg>
