<svg width="20" height="21" viewBox="0 0 20 21" fill="none" xmlns="http://www.w3.org/2000/svg">
<path d="M0 7.5V18.2167C0.00118978 18.9103 0.277256 19.5752 0.767718 20.0656C1.25818 20.5561 1.92305 20.8321 2.61667 20.8333H17.3833C18.077 20.8322 18.7418 20.5561 19.2323 20.0656C19.7228 19.5752 19.9988 18.9103 20 18.2167V7.5H0ZM16.6667 15C16.6647 15.6624 16.4007 16.2972 15.9323 16.7656C15.4639 17.234 14.8291 17.4981 14.1667 17.5H12.5C11.8376 17.498 11.2028 17.234 10.7344 16.7656C10.266 16.2972 10.0019 15.6624 10 15V13.3333C10.0019 12.6709 10.266 12.0361 10.7344 11.5677C11.2028 11.0993 11.8376 10.8353 12.5 10.8333H14.1667C14.8291 10.8353 15.4639 11.0993 15.9323 11.5677C16.4007 12.0361 16.6647 12.6709 16.6667 13.3333V15Z" fill="#64676A" fill-opacity="0.57"/>
<path d="M14.167 12.5H12.5003C12.0401 12.5 11.667 12.8731 11.667 13.3333V15C11.667 15.4602 12.0401 15.8333 12.5003 15.8333H14.167C14.6272 15.8333 15.0003 15.4602 15.0003 15V13.3333C15.0003 12.8731 14.6272 12.5 14.167 12.5Z" fill="#64676A" fill-opacity="0.57"/>
<path d="M20 4.36667V5.83333H0V4.36667C0.000818313 3.66087 0.277581 2.98337 0.771174 2.47888C1.26477 1.97439 1.93606 1.6829 2.64167 1.66667C2.81548 1.17994 3.13523 0.758703 3.55729 0.460424C3.97936 0.162145 4.48318 0.00135686 5 0H5.83333C6.35015 0.0013665 6.85397 0.162158 7.27603 0.460436C7.69809 0.758714 8.01785 1.17995 8.19167 1.66667H11.8083C11.9821 1.17994 12.3019 0.758703 12.724 0.460424C13.146 0.162145 13.6498 0.00135686 14.1667 0H15C15.5168 0.00137373 16.0206 0.162168 16.4427 0.460445C16.8648 0.758722 17.1845 1.17995 17.3583 1.66667C18.0639 1.68289 18.7352 1.97438 19.2288 2.47887C19.7224 2.98337 19.9992 3.66087 20 4.36667Z" fill="#64676A" fill-opacity="0.57"/>
</svg>
