<svg width="36" height="29" viewBox="0 0 36 29" fill="none" xmlns="http://www.w3.org/2000/svg">
<path d="M8.703 27.312C13.0953 27.312 16.656 21.3659 16.656 14.031C16.656 6.69611 13.0953 0.75 8.703 0.75C4.31068 0.75 0.75 6.69611 0.75 14.031C0.75 21.3659 4.31068 27.312 8.703 27.312Z" fill="#F5F8FA"/>
<path d="M8.703 28.062C3.823 28.062 0 21.899 0 14.031C0 6.163 3.823 0 8.703 0C13.583 0 17.406 6.163 17.406 14.031C17.406 21.899 13.583 28.062 8.703 28.062ZM8.703 1.5C4.731 1.5 1.5 7.121 1.5 14.031C1.5 20.941 4.731 26.562 8.703 26.562C12.675 26.562 15.906 20.941 15.906 14.031C15.906 7.121 12.675 1.5 8.703 1.5Z" fill="#E1E8ED"/>
<path d="M6.46879 18.991C9.20812 18.991 11.4288 16.7704 11.4288 14.031C11.4288 11.2917 9.20812 9.07104 6.46879 9.07104C3.72946 9.07104 1.50879 11.2917 1.50879 14.031C1.50879 16.7704 3.72946 18.991 6.46879 18.991Z" fill="#8899A6"/>
<path d="M6.46881 17.5959C8.4377 17.5959 10.0338 15.9998 10.0338 14.0309C10.0338 12.062 8.4377 10.4659 6.46881 10.4659C4.49991 10.4659 2.90381 12.062 2.90381 14.0309C2.90381 15.9998 4.49991 17.5959 6.46881 17.5959Z" fill="#292F33"/>
<path d="M7.78586 12.9C8.57342 12.9 9.21186 12.2615 9.21186 11.474C9.21186 10.6864 8.57342 10.048 7.78586 10.048C6.9983 10.048 6.35986 10.6864 6.35986 11.474C6.35986 12.2615 6.9983 12.9 7.78586 12.9Z" fill="#F5F8FA"/>
<path d="M27.1088 27.312C31.5011 27.312 35.0618 21.3659 35.0618 14.031C35.0618 6.69611 31.5011 0.75 27.1088 0.75C22.7164 0.75 19.1558 6.69611 19.1558 14.031C19.1558 21.3659 22.7164 27.312 27.1088 27.312Z" fill="#F5F8FA"/>
<path d="M27.1088 28.062C22.2288 28.062 18.4058 21.899 18.4058 14.031C18.4058 6.163 22.2288 0 27.1088 0C31.9888 0 35.8128 6.163 35.8128 14.031C35.8128 21.899 31.9888 28.062 27.1088 28.062ZM27.1088 1.5C23.1368 1.5 19.9058 7.122 19.9058 14.031C19.9058 20.941 23.1368 26.562 27.1088 26.562C31.0808 26.562 34.3128 20.941 34.3128 14.031C34.3128 7.121 31.0808 1.5 27.1088 1.5Z" fill="#E1E8ED"/>
<path d="M24.875 18.991C27.6144 18.991 29.835 16.7704 29.835 14.031C29.835 11.2917 27.6144 9.07104 24.875 9.07104C22.1357 9.07104 19.915 11.2917 19.915 14.031C19.915 16.7704 22.1357 18.991 24.875 18.991Z" fill="#8899A6"/>
<path d="M24.8751 17.5959C26.844 17.5959 28.4401 15.9998 28.4401 14.0309C28.4401 12.062 26.844 10.4659 24.8751 10.4659C22.9062 10.4659 21.3101 12.062 21.3101 14.0309C21.3101 15.9998 22.9062 17.5959 24.8751 17.5959Z" fill="#292F33"/>
<path d="M26.1921 12.9C26.9797 12.9 27.6181 12.2615 27.6181 11.474C27.6181 10.6864 26.9797 10.048 26.1921 10.048C25.4046 10.048 24.7661 10.6864 24.7661 11.474C24.7661 12.2615 25.4046 12.9 26.1921 12.9Z" fill="#F5F8FA"/>
</svg>
