<svg width="12" height="17" viewBox="0 0 12 17" fill="none" xmlns="http://www.w3.org/2000/svg">
<path d="M8.24052 9.81539L2.34847 6.53905C2.17635 6.43695 1.98472 6.36913 1.78491 6.3396C1.58511 6.31007 1.38118 6.31942 1.18519 6.36711C0.989204 6.4148 0.805135 6.49985 0.64387 6.61723C0.482605 6.73462 0.34742 6.88196 0.246307 7.05054C0.145193 7.21911 0.0802057 7.40551 0.0551882 7.59869C0.0301708 7.79187 0.045631 7.98793 0.100654 8.17526C0.155677 8.36259 0.249146 8.53739 0.375533 8.68933C0.50192 8.84127 0.65866 8.96726 0.836482 9.05984L6.72751 12.3362C7.07399 12.5197 7.48131 12.5651 7.86217 12.4628C8.24303 12.3605 8.56713 12.1186 8.76501 11.7889C8.96289 11.4592 9.0188 11.068 8.92076 10.6991C8.82271 10.3302 8.57852 10.013 8.24052 9.81539ZM3.38159 6.27313L7.96644 8.82435L9.5253 4.64723L6.35767 2.881L3.38159 6.27313ZM0.00305684 17L4.38414 11.8721L2.41979 10.7799L0 17H0.00305684ZM11.4143 2.32955L7.48554 0.146301C7.35656 0.0745913 7.21418 0.028051 7.06652 0.00933672C6.91886 -0.00937756 6.76882 0.00010106 6.62497 0.0372309C6.48112 0.0743607 6.34626 0.138415 6.22811 0.225736C6.10996 0.313057 6.01083 0.421935 5.93637 0.546154C5.86191 0.670373 5.81359 0.8075 5.79416 0.949705C5.77472 1.09191 5.78457 1.23641 5.82312 1.37495C5.86167 1.51349 5.92818 1.64337 6.01885 1.75715C6.10952 1.87094 6.22257 1.96641 6.35156 2.03812L10.2833 4.22235C10.4124 4.29682 10.5556 4.3458 10.7046 4.36643C10.8536 4.38707 11.0053 4.37894 11.1509 4.34252C11.2966 4.3061 11.4333 4.24212 11.553 4.15432C11.6728 4.06651 11.7731 3.95663 11.8483 3.83108C11.9235 3.70553 11.972 3.56683 11.991 3.42305C12.0099 3.27927 11.999 3.13329 11.9588 2.99363C11.9186 2.85396 11.8499 2.7234 11.7567 2.60956C11.6636 2.49571 11.5479 2.40086 11.4163 2.33053L11.4143 2.32955Z" fill="url(#paint0_linear)"/>
<defs>
<linearGradient id="paint0_linear" x1="0" y1="8.5" x2="12" y2="8.5" gradientUnits="userSpaceOnUse">
<stop stop-color="#F6D365"/>
<stop offset="1" stop-color="#FDA085"/>
</linearGradient>
</defs>
</svg>
