<svg width="27" height="31" viewBox="0 0 27 31" fill="none" xmlns="http://www.w3.org/2000/svg">
<path d="M19.094 9.85301L17.138 7.89701L7.35302 17.68C6.57461 18.4586 6.13736 19.5144 6.13745 20.6154C6.13754 21.7163 6.57498 22.7721 7.35352 23.5505C8.13206 24.3289 9.18794 24.7662 10.2889 24.7661C11.3898 24.766 12.4456 24.3286 13.224 23.55L24.965 11.809C26.2571 10.5105 26.9814 8.7525 26.979 6.92067C26.9767 5.08884 26.2479 3.33272 24.9525 2.03749C23.6572 0.742258 21.901 0.0136621 20.0692 0.0115099C18.2373 0.00935767 16.4794 0.733825 15.181 2.02601L2.85302 14.354L2.82702 14.379C1.04888 16.195 0.0590437 18.6393 0.0725236 21.1808C0.0860035 23.7224 1.10171 26.156 2.89901 27.953C4.69632 29.75 7.13007 30.7654 9.67163 30.7785C12.2132 30.7916 14.6573 29.8014 16.473 28.023L16.498 27.997L24.913 19.583L22.955 17.627L14.54 26.04L14.515 26.065C13.8761 26.7041 13.1176 27.2111 12.2828 27.557C11.448 27.903 10.5532 28.0811 9.64958 28.0812C7.82457 28.0815 6.0742 27.3568 4.78352 26.0665C3.49284 24.7762 2.76759 23.0261 2.76731 21.2011C2.76703 19.3761 3.49174 17.6257 4.78202 16.335L4.80902 16.31L17.138 3.98301C17.5235 3.59751 17.981 3.29171 18.4846 3.08306C18.9883 2.8744 19.528 2.76699 20.0732 2.76694C20.6183 2.76689 21.1581 2.87422 21.6617 3.08279C22.1654 3.29135 22.623 3.59708 23.0085 3.98251C23.394 4.36794 23.6998 4.82552 23.9085 5.32914C24.1171 5.83275 24.2245 6.37253 24.2246 6.91766C24.2246 7.46278 24.1173 8.00258 23.9087 8.50623C23.7002 9.00988 23.3945 9.46751 23.009 9.85301L11.265 21.593C11.0056 21.8525 10.6538 21.9984 10.2869 21.9985C9.91996 21.9986 9.56804 21.8529 9.30852 21.5935C9.04901 21.3341 8.90316 20.9823 8.90307 20.6154C8.90297 20.2484 9.04864 19.8965 9.30802 19.637L19.093 9.85301H19.094Z" fill="url(#paint0_linear)"/>
<defs>
<linearGradient id="paint0_linear" x1="0.0723877" y1="15.3951" x2="26.979" y2="15.3951" gradientUnits="userSpaceOnUse">
<stop stop-color="#A1C4FD"/>
<stop offset="1" stop-color="#C2E9FB"/>
</linearGradient>
</defs>
</svg>
