<svg width="32" height="24" viewBox="0 0 32 24" fill="none" xmlns="http://www.w3.org/2000/svg">
<path d="M28.131 3.88H16.491L12.611 0H2.91C2.13822 0 1.39805 0.306588 0.852319 0.852319C0.306588 1.39805 0 2.13822 0 2.91L0 20.371C0 21.1428 0.306588 21.8829 0.852319 22.4287C1.39805 22.9744 2.13822 23.281 2.91 23.281H28.131C28.9028 23.281 29.643 22.9744 30.1887 22.4287C30.7344 21.8829 31.041 21.1428 31.041 20.371V6.79C31.041 6.01822 30.7344 5.27805 30.1887 4.73232C29.643 4.18659 28.9028 3.88 28.131 3.88Z" fill="url(#paint0_linear)"/>
<defs>
<linearGradient id="paint0_linear" x1="0" y1="11.6405" x2="31.041" y2="11.6405" gradientUnits="userSpaceOnUse">
<stop stop-color="#84FAB0"/>
<stop offset="1" stop-color="#8FD3F4"/>
</linearGradient>
</defs>
</svg>
