<svg xmlns="http://www.w3.org/2000/svg" width="11.759" height="17.326" viewBox="0 0 11.759 17.326">
  <path id="Icon_metro-pin" data-name="Icon metro-pin" d="M18.441,16.1l-5.783-3.339a1.484,1.484,0,1,0-1.484,2.569l5.782,3.339A1.484,1.484,0,0,0,18.441,16.1Zm-4.769-3.61,4.5,2.6,1.53-4.257L16.593,9.033ZM10.356,23.422l4.3-5.226-1.928-1.113-2.375,6.339Zm11.2-14.951L17.7,6.246a1.113,1.113,0,1,0-1.113,1.928L20.446,10.4a1.113,1.113,0,1,0,1.112-1.928Z" transform="translate(-10.356 -6.096)" fill="#70f84e"/>
</svg>
