<svg width="64" height="70" viewBox="0 0 64 70" fill="none" xmlns="http://www.w3.org/2000/svg">
<path d="M34.4905 10.2578H15.3855C15.0484 10.2578 14.7146 10.3242 14.4032 10.4532C14.0918 10.5821 13.8089 10.7711 13.5706 11.0094C13.3324 11.2477 13.1435 11.5305 13.0148 11.8418C12.886 12.153 12.8199 12.4865 12.8203 12.8233V50.4901C12.8203 51.1698 13.0906 51.8216 13.5716 52.3022C14.0527 52.7828 14.7052 53.0528 15.3855 53.0528H42.7998C43.4801 53.0528 44.1326 52.7828 44.6136 52.3022C45.0947 51.8216 45.365 51.1698 45.365 50.4901V21.1134L34.4905 10.2578Z" fill="url(#paint0_linear)"/>
<path style="mix-blend-mode:screen" d="M34.4922 18.5526C34.4922 18.8894 34.5586 19.2229 34.6877 19.534C34.8168 19.8451 35.006 20.1277 35.2445 20.3657C35.483 20.6037 35.7661 20.7924 36.0777 20.9211C36.3892 21.0497 36.7231 21.1157 37.0602 21.1153H45.3582L34.4922 10.2598V18.5526Z" fill="url(#paint1_linear)"/>
<rect x="2.56641" width="52.9815" height="63.1924"/>
<g style="mix-blend-mode:multiply">
<g style="mix-blend-mode:multiply">
<path d="M49.0384 24.793H19.9431C18.9929 24.793 18.2227 25.5625 18.2227 26.5117V36.8019C18.2227 37.7511 18.9929 38.5207 19.9431 38.5207H49.0384C49.9886 38.5207 50.7589 37.7511 50.7589 36.8019V26.5117C50.7589 25.5625 49.9886 24.793 49.0384 24.793Z" fill="white"/>
</g>
</g>
<path opacity="0.4" d="M49.0345 24.791H19.9392C18.989 24.791 18.2188 25.5605 18.2188 26.5098V36.7999C18.2188 37.7492 18.989 38.5187 19.9392 38.5187H49.0345C49.9847 38.5187 50.7549 37.7492 50.7549 36.7999V26.5098C50.7549 25.5605 49.9847 24.791 49.0345 24.791Z" fill="white"/>
<path d="M31.2978 29.5605V32.4383C31.3094 32.6266 31.2819 32.8153 31.2169 32.9925C31.152 33.1697 31.051 33.3316 30.9204 33.4679C30.6436 33.7172 30.279 33.8467 29.9068 33.828C29.513 33.8476 29.1275 33.7111 28.834 33.4482C28.6941 33.3073 28.5857 33.1385 28.5158 32.9528C28.446 32.7671 28.4162 32.5688 28.4285 32.3708H29.4534C29.4437 32.5134 29.4824 32.6551 29.5632 32.7731C29.6023 32.8134 29.6492 32.8454 29.7009 32.8673C29.7527 32.8892 29.8083 32.9005 29.8645 32.9005C29.9207 32.9005 29.9764 32.8892 30.0281 32.8673C30.0799 32.8454 30.1267 32.8134 30.1658 32.7731C30.2395 32.6723 30.2754 32.5488 30.2672 32.4242V29.5605H31.2978Z" fill="white"/>
<path d="M35.4809 31.5904C35.3596 31.8012 35.1796 31.9722 34.9628 32.0827C34.6933 32.2146 34.3955 32.2784 34.0955 32.2683H33.4564V33.7846H32.4258V29.565H34.0955C34.3867 29.5582 34.6756 29.6178 34.9403 29.7394C35.1602 29.8421 35.3431 30.0101 35.464 30.2204C35.5831 30.4364 35.6433 30.6799 35.6386 30.9265C35.6436 31.1576 35.5894 31.3862 35.4809 31.5904ZM34.456 31.3091C34.5505 31.2001 34.6025 31.0608 34.6025 30.9166C34.6025 30.7725 34.5505 30.6332 34.456 30.5242C34.3326 30.4239 34.1754 30.3745 34.0167 30.3864H33.4535V31.461H34.0167C34.1788 31.4712 34.3384 31.4177 34.4616 31.3119L34.456 31.3091Z" fill="white"/>
<path d="M39.2983 30.8981C39.2239 30.7594 39.109 30.6466 38.9689 30.5746C38.8121 30.4982 38.6392 30.4606 38.4649 30.4649C38.3157 30.4586 38.1669 30.4847 38.0288 30.5416C37.8907 30.5984 37.7667 30.6845 37.6652 30.794C37.4546 31.0353 37.3465 31.3492 37.3639 31.6688C37.3439 32.0024 37.4574 32.3303 37.6793 32.5803C37.7933 32.6927 37.9296 32.7801 38.0795 32.8368C38.2293 32.8935 38.3894 32.9182 38.5493 32.9094C38.7789 32.9168 39.0044 32.8486 39.1913 32.7153C39.3768 32.5743 39.5112 32.3768 39.5743 32.1527H38.2678V31.396H40.5204V32.3524C40.4407 32.6153 40.3085 32.8593 40.1318 33.0698C39.9409 33.2955 39.7037 33.4778 39.4363 33.6042C39.1391 33.7449 38.8134 33.8152 38.4846 33.8096C38.091 33.8157 37.7027 33.7187 37.3583 33.5283C37.0359 33.3529 36.7703 33.0895 36.5924 32.7688C36.4111 32.4249 36.3164 32.042 36.3164 31.6534C36.3164 31.2647 36.4111 30.8819 36.5924 30.538C36.7696 30.2173 37.0329 29.9523 37.3526 29.7729C37.697 29.5824 38.0854 29.4854 38.479 29.4915C38.9339 29.4757 39.3822 29.6037 39.7601 29.8572C40.1071 30.1008 40.3526 30.4632 40.45 30.8756L39.2983 30.8981Z" fill="white"/>
<defs>
<linearGradient id="paint0_linear" x1="29.087" y1="10.2578" x2="29.087" y2="53.0528" gradientUnits="userSpaceOnUse">
<stop stop-color="#F633BD"/>
<stop offset="1" stop-color="#E71388"/>
</linearGradient>
<linearGradient id="paint1_linear" x1="1575.19" y1="342.766" x2="1575.19" y2="761.683" gradientUnits="userSpaceOnUse">
<stop stop-color="#F633BD"/>
<stop offset="1" stop-color="#E71388"/>
</linearGradient>
</defs>
</svg>
