<svg width="23" height="28" viewBox="0 0 23 28" fill="none" xmlns="http://www.w3.org/2000/svg">
<path d="M19.4495 10.5039H18.5697V7.14761C18.5697 3.13874 15.6475 0 11.4686 0C7.28962 0 4.43033 3.20089 4.43033 7.14761V10.4728C4.43033 10.5039 4.43033 10.5039 4.43033 10.4728H3.55055C1.60246 10.4728 0.0314208 12.0266 0 13.9845V24.4883C0 26.4151 1.57104 27.9689 3.55055 28H19.4495C21.3975 28 22.9686 26.4462 23 24.4883V13.9845C23 12.0577 21.3975 10.5039 19.4495 10.5039ZM6.18989 10.5039V7.14761C6.18989 4.16426 8.26366 1.74029 11.4686 1.74029C14.6421 1.74029 16.8101 4.10211 16.8101 7.14761V10.4728C16.8101 10.5039 16.8101 10.5039 16.8101 10.4728H6.18989C6.18989 10.5039 6.18989 10.5039 6.18989 10.5039ZM21.209 24.4883C21.209 25.4517 20.4235 26.2286 19.4495 26.2286H3.55055C2.5765 26.2286 1.79098 25.4517 1.79098 24.4883V13.9845C1.79098 13.0211 2.5765 12.2442 3.55055 12.2442H19.4495C20.4235 12.2442 21.209 13.0211 21.209 13.9845V24.4883ZM13.2596 17.4961C13.2596 18.1487 12.9139 18.7081 12.3798 19.0189H12.3484H12.3798V21.8779C12.3798 22.3751 11.9713 22.7481 11.5 22.7481C10.9973 22.7481 10.6202 22.3441 10.6202 21.8779V19.0189H10.6516H10.6202C10.0861 18.7081 9.74044 18.1487 9.74044 17.4961C9.74044 16.5327 10.526 15.7558 11.5 15.7558C12.474 15.7248 13.2596 16.5017 13.2596 17.4961Z" fill="white"/>
</svg>
