<svg xmlns="http://www.w3.org/2000/svg" width="29.25" height="29.25" viewBox="0 0 29.25 29.25"><defs><style>.a{fill:#fff;}</style></defs><path class="a" d="M13.5,19.5H26.838l-3.066,3.143,2.1,2.1L32.625,18l-6.75-6.75-2.18,2.1L26.838,16.5H13.5Z" transform="translate(-3.375 -3.375)"/><g transform="translate(-3.375 -3.375)"><path class="a" d="M17.979,29.623A11.629,11.629,0,0,1,9.773,9.78a11.594,11.594,0,0,1,16.4-.014l2.13-2.13A15.541,15.541,0,0,0,26.353,6a14.637,14.637,0,1,0,1.941,22.352L26.17,26.234A11.509,11.509,0,0,1,17.979,29.623Z"/><path class="a" d="M31.458,17.958h.084v.084h-.084Z"/></g></svg>