<svg width="34" height="31" viewBox="0 0 34 31" fill="none" xmlns="http://www.w3.org/2000/svg">
<g clip-path="url(#clip0)">
<path d="M9.84698 24.582C10.238 26.059 11.0957 27.3701 12.2925 28.32C13.4892 29.2698 14.9608 29.8076 16.488 29.853C17.3947 29.9213 18.3054 29.7938 19.1585 29.479C20.0115 29.1643 20.7869 28.6698 21.432 28.029L11.507 24.582H9.84698Z" stroke="#FAD0C4" stroke-width="2"/>
<path d="M11.348 7.71106L2.318 7.73606C1.97045 7.73526 1.63671 7.87208 1.38974 8.11661C1.14276 8.36115 1.00264 8.69352 1 9.04106V21.9591C1.00395 22.3057 1.14465 22.6368 1.39148 22.8803C1.63832 23.1237 1.9713 23.2599 2.318 23.2591H11.348V7.71106Z" stroke="#FAD0C4" stroke-width="2"/>
<path d="M31.319 1.00004C31.1491 0.997244 30.9805 1.03136 30.825 1.10004L12.666 7.40004V23.589L30.766 29.874C30.9387 29.9574 31.1282 30.0001 31.32 29.999C31.6676 29.9998 32.0013 29.863 32.2483 29.6185C32.4953 29.3739 32.6354 29.0416 32.638 28.694V2.30004C32.6341 1.95319 32.4932 1.62195 32.2462 1.37846C31.9991 1.13498 31.6659 0.998959 31.319 1.00004V1.00004Z" stroke="#FAD0C4" stroke-width="2"/>
</g>
<defs>
<clipPath id="clip0">
<rect width="33.636" height="31" fill="white"/>
</clipPath>
</defs>
</svg>
