<svg width="34" height="30" viewBox="0 0 34 30" fill="none" xmlns="http://www.w3.org/2000/svg">
<path d="M19.667 2.091C19.233 4.361 19.26 7.391 16.185 7.391H9.57C6.498 7.391 6.525 4.362 6.091 2.091H3.169C2.88349 2.09284 2.61021 2.20714 2.40842 2.40912C2.20662 2.61111 2.09257 2.88449 2.091 3.17V26.83C2.09258 27.1157 2.20676 27.3892 2.40877 27.5912C2.61078 27.7932 2.88432 27.9074 3.17 27.909H22.588C22.8737 27.9074 23.1472 27.7932 23.3492 27.5912C23.5512 27.3892 23.6654 27.1157 23.667 26.83V21.64L25.758 19.549V26.83C25.7564 27.6702 25.4219 28.4756 24.8278 29.0698C24.2336 29.6639 23.4282 29.9984 22.588 30H3.169C2.32892 29.9981 1.5238 29.6635 0.929869 29.0694C0.335938 28.4753 0.00158501 27.6701 0 26.83L0 3.17C0.00158501 2.32992 0.335938 1.52469 0.929869 0.930575C1.5238 0.336457 2.32892 0.00185006 3.169 0L22.588 0C23.4282 0.00158588 24.2336 0.336076 24.8278 0.930223C25.4219 1.52437 25.7564 2.32975 25.758 3.17V6.241L23.667 8.332V3.17C23.6654 2.88432 23.5512 2.61078 23.3492 2.40877C23.1472 2.20676 22.8737 2.09258 22.588 2.091H19.667ZM14.3 24.356C15.3207 21.7747 16.3413 19.193 17.362 16.611L28.573 5.4C28.964 5.01034 29.4935 4.79155 30.0455 4.79155C30.5975 4.79155 31.127 5.01034 31.518 5.4L33.256 7.139C33.6454 7.53012 33.864 8.05958 33.864 8.6115C33.864 9.16342 33.6454 9.69288 33.256 10.084L22.041 21.294C21.894 21.441 15.668 23.814 14.296 24.356H14.3ZM27.989 7.923L19.256 16.656L27.989 7.923ZM16.728 21.923L20.855 20.291C20.6909 19.6932 20.3742 19.1484 19.9359 18.7101C19.4976 18.2718 18.9528 17.9551 18.355 17.791L16.728 21.923ZM28.961 6.952L31.7 9.692L32.284 9.108C32.4154 8.97476 32.4891 8.79515 32.4891 8.608C32.4891 8.42085 32.4154 8.24123 32.284 8.108L30.547 6.368C30.4136 6.23682 30.2341 6.1633 30.047 6.1633C29.8599 6.1633 29.6804 6.23682 29.547 6.368L28.963 6.952H28.961ZM17.542 2.091H8.216C8.41 3.1 8.4 5.3 9.57 5.3H16.185C17.354 5.3 17.348 3.106 17.542 2.091Z" fill="url(#paint0_linear)"/>
<defs>
<linearGradient id="paint0_linear" x1="0" y1="15" x2="33.864" y2="15" gradientUnits="userSpaceOnUse">
<stop stop-color="#FFECD2"/>
<stop offset="1" stop-color="#FCB69F"/>
</linearGradient>
</defs>
</svg>
