<svg width="14" height="11" viewBox="0 0 14 11" fill="none" xmlns="http://www.w3.org/2000/svg">
<path fill-rule="evenodd" clip-rule="evenodd" d="M11.9934 9.74991e-07C11.8622 0.00204404 11.7371 0.0551211 11.6451 0.147866C11.553 0.240612 11.5014 0.365544 11.5014 0.495688V1.48718H10.502C10.3694 1.4872 10.2424 1.53946 10.1487 1.63241L7.00383 4.75205L3.859 1.63241C3.7653 1.53946 3.63821 1.4872 3.50569 1.48718H0.507284C0.441081 1.48628 0.375359 1.49846 0.313934 1.52297C0.252508 1.54748 0.196604 1.58383 0.149469 1.62995C0.102333 1.67608 0.0649052 1.73106 0.0393593 1.79166C0.0138133 1.85225 0.000658136 1.91724 0.000658136 1.98292C0.000658136 2.0486 0.0138133 2.11365 0.0393593 2.17424C0.0649052 2.23483 0.102333 2.28976 0.149469 2.33589C0.196604 2.38201 0.252508 2.41836 0.313934 2.44287C0.375359 2.46738 0.441081 2.47956 0.507284 2.47866H3.29875L6.29716 5.45307L3.29875 8.42748H0.507284C0.441027 8.42649 0.375235 8.43863 0.313734 8.4631C0.252232 8.48757 0.196251 8.52389 0.149045 8.57002C0.101839 8.61616 0.064352 8.67115 0.0387645 8.73178C0.013177 8.79242 0 8.85749 0 8.92322C0 8.98895 0.013177 9.05402 0.0387645 9.11466C0.064352 9.17529 0.101839 9.23029 0.149045 9.27642C0.196251 9.32255 0.252232 9.35893 0.313734 9.3834C0.375235 9.40787 0.441027 9.41995 0.507284 9.41897H3.50569C3.63821 9.41894 3.7653 9.36668 3.859 9.27373L7.00383 6.15409L10.1487 9.27373C10.2424 9.36668 10.3694 9.41894 10.502 9.41897H11.5014V10.4105C11.5015 10.5085 11.5308 10.6043 11.5857 10.6858C11.6406 10.7673 11.7187 10.8308 11.81 10.8683C11.9013 10.9058 12.0017 10.9156 12.0986 10.8965C12.1956 10.8774 12.2846 10.8302 12.3545 10.761L13.8537 9.27373C13.9474 9.18076 14 9.05468 14 8.92322C14 8.79177 13.9474 8.66568 13.8537 8.57271L12.3545 7.08554C12.3072 7.03858 12.2508 7.0015 12.1888 6.97655C12.1268 6.95161 12.0603 6.93929 11.9934 6.9403C11.8622 6.94235 11.7371 6.99548 11.6451 7.08822C11.553 7.18097 11.5014 7.3059 11.5014 7.43605V8.42753H10.7089L7.7105 5.45313L10.7089 2.47866H11.5014V3.47015C11.5015 3.56817 11.5308 3.66398 11.5857 3.74547C11.6406 3.82696 11.7187 3.89048 11.81 3.92799C11.9013 3.9655 12.0017 3.97534 12.0986 3.95623C12.1956 3.93713 12.2846 3.88995 12.3545 3.82066L13.8537 2.33343C13.9474 2.24046 14 2.11437 14 1.98292C14 1.85147 13.9474 1.72544 13.8537 1.63247L12.3545 0.145236C12.3072 0.0982785 12.2508 0.0612535 12.1888 0.0363098C12.1268 0.011366 12.0603 -0.000958588 11.9934 5.81542e-05V9.74991e-07Z" fill="white"/>
</svg>
