<svg width="34" height="30" viewBox="0 0 34 30" fill="none" xmlns="http://www.w3.org/2000/svg">
<path d="M19.667 1.391H19.0882L18.9795 1.95955C18.9197 2.27233 18.8622 2.63943 18.8063 2.99618C18.7644 3.26411 18.7234 3.5262 18.6829 3.75504C18.5789 4.34428 18.4559 4.8754 18.2698 5.32407C18.0857 5.76795 17.854 6.09616 17.5519 6.31718C17.2562 6.5336 16.8334 6.691 16.185 6.691H9.57C8.92247 6.691 8.50031 6.53371 8.205 6.31746C7.90335 6.09658 7.67188 5.7685 7.48791 5.32461C7.30197 4.87597 7.17906 4.34484 7.07503 3.75552C7.03463 3.52666 6.99363 3.26464 6.95171 2.99677C6.89586 2.63991 6.83839 2.27267 6.77856 1.9596L6.66989 1.391H6.091H3.169V1.39099L3.16449 1.39101C2.69479 1.39404 2.2452 1.58208 1.91321 1.91438C1.58123 2.24667 1.3936 2.69643 1.39101 3.16614L1.391 3.16614V3.17L1.39099 26.83L1.39101 26.8339C1.3936 27.3039 1.58146 27.7539 1.9138 28.0862C2.24614 28.4185 2.69614 28.6064 3.16614 28.609H3.17L22.588 28.609L22.5919 28.609C23.0619 28.6064 23.5119 28.4185 23.8442 28.0862C24.1765 27.7539 24.3644 27.3039 24.367 26.8339V26.83V21.9299L25.058 21.2389L25.058 26.8287C25.058 26.829 25.058 26.8293 25.058 26.8296C25.0565 27.4843 24.7958 28.1118 24.3328 28.5748C23.8698 29.0378 23.2423 29.2985 22.5876 29.3C22.5873 29.3 22.587 29.3 22.5867 29.3H3.17054C3.17027 29.3 3.17 29.3 3.16973 29.3C2.51511 29.2983 1.88776 29.0375 1.42492 28.5745C0.962041 28.1115 0.7014 27.484 0.7 26.8293V3.1707C0.7014 2.516 0.962042 1.8885 1.42492 1.42547C1.88778 0.962467 2.51517 0.70163 3.16983 0.7H22.5873C23.2421 0.7014 23.8698 0.962149 24.3328 1.4252C24.7958 1.88818 25.0565 2.51568 25.058 3.1704C25.058 3.17071 25.058 3.17101 25.058 3.17132L25.058 5.95105L24.367 6.64205L24.367 3.17L24.367 3.16614C24.3644 2.69615 24.1765 2.24614 23.8442 1.9138C23.5119 1.58146 23.0619 1.3936 22.5919 1.391H22.588H19.667ZM20.7006 21.1088C20.0902 21.3542 19.2775 21.673 18.4223 22.0058L21.0936 20.9494C20.9758 20.9977 20.8443 21.051 20.7006 21.1088ZM31.6837 10.6658L21.6828 20.6623L21.53 20.1057C21.3338 19.3909 20.9551 18.7393 20.4309 18.2151C19.9067 17.6909 19.2551 17.3122 18.5403 17.116L17.9963 16.9667L18.7815 16.1815L19.256 16.656L19.751 17.151L28.484 8.41797L27.989 7.923L27.5145 7.44847L27.9911 6.97186L28.4659 7.44688L31.2049 10.1869L31.6837 10.6658ZM18.2296 2.22241L18.3885 1.391H17.542H8.216H7.36859L7.52859 2.22317C7.56161 2.39492 7.58774 2.60491 7.61964 2.86127C7.6293 2.93888 7.63949 3.02074 7.65056 3.10708C7.69557 3.45822 7.75315 3.86232 7.84766 4.24267C7.93975 4.6133 8.08198 5.02718 8.33226 5.36067C8.60324 5.72172 9.01464 6 9.57 6H16.185C16.7394 6 17.1507 5.72277 17.4221 5.36246C17.6728 5.02959 17.8156 4.61633 17.9082 4.24593C18.0033 3.86584 18.0614 3.46187 18.1068 3.11024C18.1183 3.02118 18.1288 2.93683 18.1388 2.85693C18.1706 2.6032 18.1967 2.39439 18.2296 2.22241Z" fill="#5B5D60" stroke="#5B5D60" stroke-width="1.4"/>
</svg>
