<svg width="32" height="32" viewBox="0 0 32 32" fill="none" xmlns="http://www.w3.org/2000/svg">
<path d="M16 26.5L26.5 16L31 20.5L20.5 31L16 26.5Z" stroke="url(#paint0_linear)" stroke-width="2" stroke-linecap="round" stroke-linejoin="round"/>
<path d="M25 17.5L22.75 6.25L1 1L6.25 22.75L17.5 25L25 17.5Z" stroke="url(#paint1_linear)" stroke-width="2" stroke-linecap="round" stroke-linejoin="round"/>
<path d="M1 1L12.379 12.379" stroke="url(#paint2_linear)" stroke-width="2" stroke-linecap="round" stroke-linejoin="round"/>
<path d="M14.5 17.5C16.1569 17.5 17.5 16.1569 17.5 14.5C17.5 12.8431 16.1569 11.5 14.5 11.5C12.8431 11.5 11.5 12.8431 11.5 14.5C11.5 16.1569 12.8431 17.5 14.5 17.5Z" stroke="url(#paint3_linear)" stroke-width="2" stroke-linecap="round" stroke-linejoin="round"/>
<defs>
<linearGradient id="paint0_linear" x1="23.5" y1="16" x2="23.5" y2="31" gradientUnits="userSpaceOnUse">
<stop stop-color="#57CBA1"/>
<stop offset="1" stop-color="#8EC5FC"/>
</linearGradient>
<linearGradient id="paint1_linear" x1="13" y1="1" x2="13" y2="25" gradientUnits="userSpaceOnUse">
<stop stop-color="#57CBA1"/>
<stop offset="1" stop-color="#8EC5FC"/>
</linearGradient>
<linearGradient id="paint2_linear" x1="6.6895" y1="1" x2="6.6895" y2="12.379" gradientUnits="userSpaceOnUse">
<stop stop-color="#57CBA1"/>
<stop offset="1" stop-color="#8EC5FC"/>
</linearGradient>
<linearGradient id="paint3_linear" x1="14.5" y1="11.5" x2="14.5" y2="17.5" gradientUnits="userSpaceOnUse">
<stop stop-color="#57CBA1"/>
<stop offset="1" stop-color="#8EC5FC"/>
</linearGradient>
</defs>
</svg>
