<svg width="20" height="10" viewBox="0 0 20 10" fill="none" xmlns="http://www.w3.org/2000/svg">
<path d="M4.5 0C3.60999 0 2.73996 0.26392 1.99994 0.758387C1.25991 1.25285 0.683138 1.95566 0.342544 2.77792C0.00194976 3.60019 -0.0871652 4.50499 0.0864683 5.37791C0.260102 6.25082 0.688685 7.05264 1.31802 7.68198C1.94736 8.31132 2.74918 8.7399 3.6221 8.91353C4.49501 9.08717 5.39981 8.99805 6.22208 8.65746C7.04434 8.31686 7.74715 7.74009 8.24162 7.00007C8.73608 6.26004 9 5.39002 9 4.5C9 3.30653 8.5259 2.16193 7.68198 1.31802C6.83807 0.474106 5.69348 0 4.5 0ZM6.03 6.03C5.96035 6.09969 5.87765 6.15498 5.78663 6.1927C5.6956 6.23042 5.59803 6.24984 5.4995 6.24984C5.40097 6.24984 5.3034 6.23042 5.21238 6.1927C5.12135 6.15498 5.03865 6.09969 4.969 6.03L3.969 5.03C3.89929 4.96045 3.84398 4.87785 3.80623 4.7869C3.76848 4.69596 3.74903 4.59847 3.749 4.5V2.25C3.749 2.05109 3.82802 1.86032 3.96867 1.71967C4.10932 1.57902 4.30009 1.5 4.499 1.5C4.69791 1.5 4.88868 1.57902 5.02933 1.71967C5.16998 1.86032 5.249 2.05109 5.249 2.25V4.189L6.029 4.969C6.0987 5.03865 6.15398 5.12135 6.19171 5.21238C6.22943 5.3034 6.24884 5.40097 6.24884 5.4995C6.24884 5.59803 6.22943 5.6956 6.19171 5.78662C6.15398 5.87765 6.0987 5.96035 6.029 6.03H6.03Z" fill="url(#paint0_linear)"/>
<path d="M11.5 1H19.5C19.6326 1 19.7598 0.947321 19.8536 0.853553C19.9473 0.759785 20 0.632608 20 0.5C20 0.367392 19.9473 0.240215 19.8536 0.146447C19.7598 0.0526785 19.6326 0 19.5 0H11.5C11.3674 0 11.2402 0.0526785 11.1464 0.146447C11.0527 0.240215 11 0.367392 11 0.5C11 0.632608 11.0527 0.759785 11.1464 0.853553C11.2402 0.947321 11.3674 1 11.5 1Z" fill="url(#paint1_linear)"/>
<path d="M16.5 9H11.5C11.3674 9 11.2402 9.05268 11.1464 9.14645C11.0527 9.24021 11 9.36739 11 9.5C11 9.63261 11.0527 9.75979 11.1464 9.85355C11.2402 9.94732 11.3674 10 11.5 10H16.5C16.6326 10 16.7598 9.94732 16.8536 9.85355C16.9473 9.75979 17 9.63261 17 9.5C17 9.36739 16.9473 9.24021 16.8536 9.14645C16.7598 9.05268 16.6326 9 16.5 9Z" fill="white"/>
<path d="M19.5 6H11.5C11.3674 6 11.2402 6.05268 11.1464 6.14645C11.0527 6.24021 11 6.36739 11 6.5C11 6.63261 11.0527 6.75979 11.1464 6.85355C11.2402 6.94732 11.3674 7 11.5 7H19.5C19.6326 7 19.7598 6.94732 19.8536 6.85355C19.9473 6.75979 20 6.63261 20 6.5C20 6.36739 19.9473 6.24021 19.8536 6.14645C19.7598 6.05268 19.6326 6 19.5 6Z" fill="url(#paint2_linear)"/>
<path d="M19.5 3H11.5C11.3674 3 11.2402 3.05268 11.1464 3.14645C11.0527 3.24021 11 3.36739 11 3.5C11 3.63261 11.0527 3.75979 11.1464 3.85355C11.2402 3.94732 11.3674 4 11.5 4H19.5C19.6326 4 19.7598 3.94732 19.8536 3.85355C19.9473 3.75979 20 3.63261 20 3.5C20 3.36739 19.9473 3.24021 19.8536 3.14645C19.7598 3.05268 19.6326 3 19.5 3Z" fill="url(#paint3_linear)"/>
<defs>
<linearGradient id="paint0_linear" x1="0" y1="4.5" x2="9" y2="4.5" gradientUnits="userSpaceOnUse">
<stop stop-color="#FFECD2"/>
<stop offset="1" stop-color="#FCB69F"/>
</linearGradient>
<linearGradient id="paint1_linear" x1="11" y1="0.5" x2="20" y2="0.5" gradientUnits="userSpaceOnUse">
<stop stop-color="#FFECD2"/>
<stop offset="1" stop-color="#FCB69F"/>
</linearGradient>
<linearGradient id="paint2_linear" x1="11" y1="6.5" x2="20" y2="6.5" gradientUnits="userSpaceOnUse">
<stop stop-color="#FFECD2"/>
<stop offset="1" stop-color="#FCB69F"/>
</linearGradient>
<linearGradient id="paint3_linear" x1="11" y1="3.5" x2="20" y2="3.5" gradientUnits="userSpaceOnUse">
<stop stop-color="#FFECD2"/>
<stop offset="1" stop-color="#FCB69F"/>
</linearGradient>
</defs>
</svg>
