<svg width="32" height="32" viewBox="0 0 32 32" fill="none" xmlns="http://www.w3.org/2000/svg">
<path d="M19.5465 6.73391C20.9466 7.00708 22.2334 7.69184 23.2421 8.70055C24.2508 9.70926 24.9356 10.996 25.2087 12.3962L19.5465 6.73391ZM19.5465 1C22.4554 1.32316 25.168 2.62581 27.2389 4.69408C29.3098 6.76235 30.6158 9.4733 30.9427 12.3818L19.5465 1ZM29.5092 23.821V28.1214C29.5108 28.5206 29.429 28.9158 29.2691 29.2816C29.1092 29.6474 28.8746 29.9757 28.5804 30.2456C28.2862 30.5155 27.9389 30.721 27.5607 30.8489C27.1825 30.9768 26.7818 31.0243 26.3842 30.9884C21.9731 30.5091 17.736 29.0018 14.0133 26.5876C10.5498 24.3867 7.61328 21.4502 5.41241 17.9867C2.9898 14.2471 1.48216 9.98933 1.01164 5.55846C0.975813 5.16206 1.02292 4.76254 1.14997 4.38534C1.27701 4.00814 1.4812 3.66152 1.74954 3.36756C2.01788 3.0736 2.34449 2.83874 2.70857 2.67792C3.07266 2.5171 3.46624 2.43385 3.86426 2.43348H8.16469C8.86037 2.42663 9.5348 2.67298 10.0623 3.12661C10.5898 3.58024 10.9343 4.2102 11.0316 4.89906C11.2132 6.27529 11.5498 7.62658 12.0351 8.92713C12.2279 9.44021 12.2697 9.99782 12.1554 10.5339C12.041 11.07 11.7754 11.562 11.39 11.9518L9.5695 13.7723C11.6101 17.3611 14.5816 20.3325 18.1704 22.3732L19.9909 20.5526C20.3806 20.1672 20.8727 19.9016 21.4088 19.7873C21.9448 19.673 22.5024 19.7147 23.0155 19.9076C24.3161 20.3929 25.6674 20.7295 27.0436 20.911C27.7399 21.0092 28.3759 21.36 28.8305 21.8965C29.2851 22.4331 29.5266 23.118 29.5092 23.821Z" stroke="#5B5D60" stroke-width="2" stroke-linecap="round" stroke-linejoin="round"/>
</svg>
