<svg width="21" height="21" viewBox="0 0 21 21" fill="none" xmlns="http://www.w3.org/2000/svg">
<path d="M15.235 19.001C17.168 19.001 18.735 17.434 18.735 15.501C18.735 13.568 17.168 12.001 15.235 12.001C13.302 12.001 11.735 13.568 11.735 15.501C11.735 17.434 13.302 19.001 15.235 19.001Z" fill="url(#paint0_linear)"/>
<path d="M15 9.00098C15.5523 9.00098 16 8.77712 16 8.50098C16 8.22483 15.5523 8.00098 15 8.00098C14.4477 8.00098 14 8.22483 14 8.50098C14 8.77712 14.4477 9.00098 15 9.00098Z" fill="url(#paint1_linear)"/>
<path d="M16.875 1.564H15.859V0.782C15.859 0.574866 15.7767 0.376216 15.6302 0.22975C15.4838 0.0832837 15.2851 0.001 15.078 0.001C14.8709 0.001 14.6722 0.0832837 14.5257 0.22975C14.3793 0.376216 14.297 0.574866 14.297 0.782V1.563H10.742V0.782C10.742 0.574866 10.6597 0.376216 10.5133 0.22975C10.3668 0.0832837 10.1681 0.00100003 9.961 0.00100003C9.75387 0.00100003 9.55522 0.0832837 9.40875 0.22975C9.26228 0.376216 9.18 0.574866 9.18 0.782V1.563H5.664V0.782C5.664 0.574601 5.58161 0.375696 5.43496 0.229043C5.2883 0.0823891 5.0894 0 4.882 0C4.6746 0 4.4757 0.0823891 4.32904 0.229043C4.18239 0.375696 4.1 0.574601 4.1 0.782V1.563H3.125C2.29635 1.56406 1.50196 1.89378 0.916108 2.47981C0.330257 3.06585 0.000793811 3.86035 0 4.689L0 16.876C0.00105842 17.7045 0.330638 18.4987 0.91646 19.0845C1.50228 19.6704 2.29652 19.9999 3.125 20.001H9.1C9.30713 20.001 9.50578 19.9187 9.65225 19.7722C9.79872 19.6258 9.881 19.4271 9.881 19.22C9.881 19.0129 9.79872 18.8142 9.65225 18.6677C9.50578 18.5213 9.30713 18.439 9.1 18.439H3.125C2.71089 18.4385 2.3139 18.2737 2.02108 17.9809C1.72827 17.6881 1.56353 17.2911 1.563 16.877V4.689C1.56326 4.27472 1.72788 3.87747 2.02073 3.58444C2.31358 3.2914 2.71072 3.12653 3.125 3.126H4.1V3.907C4.1 4.11427 4.18234 4.31304 4.3289 4.4596C4.47546 4.60616 4.67423 4.6885 4.8815 4.6885C5.08877 4.6885 5.28754 4.60616 5.4341 4.4596C5.58066 4.31304 5.663 4.11427 5.663 3.907V3.126H9.18V3.907C9.18 4.11427 9.26234 4.31304 9.4089 4.4596C9.55546 4.60616 9.75423 4.6885 9.9615 4.6885C10.1688 4.6885 10.3675 4.60616 10.5141 4.4596C10.6607 4.31304 10.743 4.11427 10.743 3.907V3.126H14.3V3.907C14.3 4.11427 14.3823 4.31304 14.5289 4.4596C14.6755 4.60616 14.8742 4.6885 15.0815 4.6885C15.2888 4.6885 15.4875 4.60616 15.6341 4.4596C15.7807 4.31304 15.863 4.11427 15.863 3.907V3.126H16.879C17.2935 3.12626 17.6909 3.29102 17.9839 3.58408C18.277 3.87715 18.4417 4.27455 18.442 4.689V9.142C18.442 9.34927 18.5243 9.54804 18.6709 9.6946C18.8175 9.84116 19.0162 9.9235 19.2235 9.9235C19.4308 9.9235 19.6295 9.84116 19.7761 9.6946C19.9227 9.54804 20.005 9.34927 20.005 9.142V4.689C20.0039 3.85966 19.6737 3.06466 19.0868 2.47869C18.4999 1.89273 17.7043 1.56373 16.875 1.564Z" fill="url(#paint2_linear)"/>
<path d="M15.274 10.548C14.3391 10.548 13.4252 10.8252 12.6478 11.3446C11.8705 11.864 11.2646 12.6023 10.9068 13.466C10.5491 14.3298 10.4554 15.2802 10.6378 16.1972C10.8202 17.1141 11.2704 17.9564 11.9315 18.6175C12.5926 19.2785 13.4349 19.7287 14.3518 19.9111C15.2688 20.0935 16.2192 19.9999 17.083 19.6422C17.9467 19.2844 18.6849 18.6785 19.2044 17.9012C19.7238 17.1238 20.001 16.2099 20.001 15.275C19.9997 14.0217 19.5012 12.8201 18.615 11.9339C17.7288 11.0477 16.5273 10.5493 15.274 10.548ZM15.274 18.439C14.6482 18.439 14.0365 18.2534 13.5162 17.9057C12.9959 17.5581 12.5903 17.0639 12.3508 16.4858C12.1114 15.9076 12.0487 15.2715 12.1708 14.6577C12.2929 14.044 12.5942 13.4802 13.0367 13.0377C13.4792 12.5952 14.043 12.2939 14.6567 12.1718C15.2705 12.0497 15.9067 12.1123 16.4848 12.3518C17.063 12.5913 17.5571 12.9968 17.9048 13.5172C18.2524 14.0375 18.438 14.6492 18.438 15.275C18.4369 16.1138 18.1032 16.9179 17.5101 17.5111C16.917 18.1042 16.1128 18.4379 15.274 18.439Z" fill="url(#paint3_linear)"/>
<path d="M16.406 14.492H16.054V13.672C16.054 13.4649 15.9717 13.2662 15.8253 13.1198C15.6788 12.9733 15.4801 12.891 15.273 12.891C15.0659 12.891 14.8672 12.9733 14.7208 13.1198C14.5743 13.2662 14.492 13.4649 14.492 13.672V15.272C14.492 15.3746 14.5122 15.4761 14.5515 15.5709C14.5907 15.6656 14.6482 15.7517 14.7208 15.8242C14.7933 15.8968 14.8794 15.9543 14.9741 15.9936C15.0689 16.0328 15.1704 16.053 15.273 16.053H16.406C16.6131 16.053 16.8118 15.9707 16.9583 15.8242C17.1047 15.6778 17.187 15.4791 17.187 15.272C17.187 15.0649 17.1047 14.8662 16.9583 14.7198C16.8118 14.5733 16.6131 14.491 16.406 14.491V14.492Z" fill="url(#paint4_linear)"/>
<path d="M11.5 9.00098C11.7761 9.00098 12 8.77712 12 8.50098C12 8.22483 11.7761 8.00098 11.5 8.00098C11.2239 8.00098 11 8.22483 11 8.50098C11 8.77712 11.2239 9.00098 11.5 9.00098Z" fill="white"/>
<path d="M8.5 12.001C8.77614 12.001 9 11.7771 9 11.501C9 11.2248 8.77614 11.001 8.5 11.001C8.22386 11.001 8 11.2248 8 11.501C8 11.7771 8.22386 12.001 8.5 12.001Z" fill="url(#paint5_linear)"/>
<path d="M5 9.00098C5.55228 9.00098 6 8.77712 6 8.50098C6 8.22483 5.55228 8.00098 5 8.00098C4.44772 8.00098 4 8.22483 4 8.50098C4 8.77712 4.44772 9.00098 5 9.00098Z" fill="url(#paint6_linear)"/>
<path d="M5 12.001C5.55228 12.001 6 11.7771 6 11.501C6 11.2248 5.55228 11.001 5 11.001C4.44772 11.001 4 11.2248 4 11.501C4 11.7771 4.44772 12.001 5 12.001Z" fill="url(#paint7_linear)"/>
<path d="M5 16.001C5.55228 16.001 6 15.5533 6 15.001C6 14.4487 5.55228 14.001 5 14.001C4.44772 14.001 4 14.4487 4 15.001C4 15.5533 4.44772 16.001 5 16.001Z" fill="url(#paint8_linear)"/>
<path d="M8.5 16.001C8.77614 16.001 9 15.5533 9 15.001C9 14.4487 8.77614 14.001 8.5 14.001C8.22386 14.001 8 14.4487 8 15.001C8 15.5533 8.22386 16.001 8.5 16.001Z" fill="url(#paint9_linear)"/>
<path d="M8.5 9.00098C8.77614 9.00098 9 8.77712 9 8.50098C9 8.22483 8.77614 8.00098 8.5 8.00098C8.22386 8.00098 8 8.22483 8 8.50098C8 8.77712 8.22386 9.00098 8.5 9.00098Z" fill="url(#paint10_linear)"/>
<defs>
<linearGradient id="paint0_linear" x1="11.735" y1="15.501" x2="18.735" y2="15.501" gradientUnits="userSpaceOnUse">
<stop stop-color="#FF9A9E"/>
<stop offset="0.99" stop-color="#FAD0C4"/>
<stop offset="1" stop-color="#FAD0C4"/>
</linearGradient>
<linearGradient id="paint1_linear" x1="14" y1="8.50098" x2="16" y2="8.50098" gradientUnits="userSpaceOnUse">
<stop stop-color="#FAD0C4"/>
<stop offset="0.01" stop-color="#FAD0C4"/>
<stop offset="1" stop-color="#FFD1FF"/>
</linearGradient>
<linearGradient id="paint2_linear" x1="0" y1="10.0005" x2="20.005" y2="10.0005" gradientUnits="userSpaceOnUse">
<stop stop-color="#FAD0C4"/>
<stop offset="0.01" stop-color="#FAD0C4"/>
<stop offset="1" stop-color="#FFD1FF"/>
</linearGradient>
<linearGradient id="paint3_linear" x1="10.547" y1="15.275" x2="20.001" y2="15.275" gradientUnits="userSpaceOnUse">
<stop stop-color="#FAD0C4"/>
<stop offset="0.01" stop-color="#FAD0C4"/>
<stop offset="1" stop-color="#FFD1FF"/>
</linearGradient>
<linearGradient id="paint4_linear" x1="14.492" y1="14.472" x2="17.187" y2="14.472" gradientUnits="userSpaceOnUse">
<stop stop-color="#FAD0C4"/>
<stop offset="0.01" stop-color="#FAD0C4"/>
<stop offset="1" stop-color="#FFD1FF"/>
</linearGradient>
<linearGradient id="paint5_linear" x1="8" y1="11.501" x2="9" y2="11.501" gradientUnits="userSpaceOnUse">
<stop stop-color="#FAD0C4"/>
<stop offset="0.01" stop-color="#FAD0C4"/>
<stop offset="1" stop-color="#FFD1FF"/>
</linearGradient>
<linearGradient id="paint6_linear" x1="4" y1="8.50098" x2="6" y2="8.50098" gradientUnits="userSpaceOnUse">
<stop stop-color="#FAD0C4"/>
<stop offset="0.01" stop-color="#FAD0C4"/>
<stop offset="1" stop-color="#FFD1FF"/>
</linearGradient>
<linearGradient id="paint7_linear" x1="4" y1="11.501" x2="6" y2="11.501" gradientUnits="userSpaceOnUse">
<stop stop-color="#FAD0C4"/>
<stop offset="0.01" stop-color="#FAD0C4"/>
<stop offset="1" stop-color="#FFD1FF"/>
</linearGradient>
<linearGradient id="paint8_linear" x1="4" y1="15.001" x2="6" y2="15.001" gradientUnits="userSpaceOnUse">
<stop stop-color="#FAD0C4"/>
<stop offset="0.01" stop-color="#FAD0C4"/>
<stop offset="1" stop-color="#FFD1FF"/>
</linearGradient>
<linearGradient id="paint9_linear" x1="8" y1="15.001" x2="9" y2="15.001" gradientUnits="userSpaceOnUse">
<stop stop-color="#FAD0C4"/>
<stop offset="0.01" stop-color="#FAD0C4"/>
<stop offset="1" stop-color="#FFD1FF"/>
</linearGradient>
<linearGradient id="paint10_linear" x1="8" y1="8.50098" x2="9" y2="8.50098" gradientUnits="userSpaceOnUse">
<stop stop-color="#FAD0C4"/>
<stop offset="0.01" stop-color="#FAD0C4"/>
<stop offset="1" stop-color="#FFD1FF"/>
</linearGradient>
</defs>
</svg>
