<svg width="31" height="31" viewBox="0 0 31 31" fill="none" xmlns="http://www.w3.org/2000/svg">
<path d="M4.20226 23.75C4.31429 23.8524 4.39156 23.9872 4.42329 24.1357C4.45502 24.2841 4.43963 24.4387 4.37926 24.578C4.19326 25.025 4.03426 25.478 3.80626 25.907C3.21703 26.8834 2.46637 27.7528 1.58626 28.478C1.20226 28.844 0.794263 29.21 0.437263 29.6C0.080263 29.99 0.170263 30.164 0.665263 30.29C1.21327 30.4299 1.77668 30.5005 2.34226 30.5C3.06827 30.4891 3.79157 30.4087 4.50226 30.26C6.89447 29.7347 9.2122 28.9144 11.4023 27.818C11.5886 27.7244 11.7937 27.6741 12.0023 27.671C12.0746 27.6712 12.1469 27.6773 12.2183 27.689C13.144 27.8394 14.0803 27.9157 15.0183 27.917C16.2531 27.9231 17.4843 27.7831 18.6863 27.5C20.6329 27.0854 22.4746 26.2783 24.0989 25.1281C25.7231 23.9778 27.0959 22.5086 28.1333 20.81C29.7458 18.2493 30.3469 15.1798 29.8193 12.2C29.537 10.4517 28.9025 8.77906 27.9541 7.28351C27.0057 5.78797 25.7633 4.50075 24.3023 3.5C21.6581 1.55668 18.4637 0.50591 15.1823 0.5C14.4023 0.551 13.6163 0.557 12.8423 0.665C9.52389 1.06448 6.42947 2.54579 4.03726 4.88C1.71021 7.07156 0.286072 10.0536 0.044263 13.241C-0.211787 16.2716 0.649289 19.2912 2.46526 21.731C3.00896 22.4336 3.58874 23.1075 4.20226 23.75ZM1.83826 13.382C2.04298 10.6267 3.27796 8.04967 5.29726 6.164C7.4056 4.08356 10.1534 2.77413 13.0973 2.447C13.5473 2.384 14.0303 2.363 14.5403 2.336L15.2333 2.3C18.1138 2.31989 20.9151 3.2456 23.2403 4.946C24.5129 5.80881 25.5953 6.92311 26.4208 8.22022C27.2464 9.51733 27.7975 10.9698 28.0403 12.488C28.4945 15.0409 27.98 17.6714 26.5973 19.865C25.6869 21.3653 24.4769 22.6618 23.043 23.6735C21.6091 24.6852 19.982 25.3904 18.2633 25.745C17.2056 25.9955 16.1222 26.1213 15.0353 26.12C14.1931 26.1177 13.3525 26.0485 12.5213 25.913C11.8825 25.8089 11.2271 25.9064 10.6463 26.192C8.59033 27.2203 6.41612 27.9927 4.17226 28.492H4.14226C4.63261 27.9685 5.05587 27.3861 5.40226 26.758C5.59066 26.391 5.75761 26.0134 5.90226 25.627C5.95026 25.507 5.99526 25.39 6.04626 25.273C6.23957 24.8211 6.296 24.3224 6.20854 23.8387C6.12108 23.355 5.89359 22.9076 5.55426 22.552C5.39826 22.378 5.25426 22.207 5.08326 22.033C4.67366 21.6044 4.28903 21.1527 3.93126 20.68C2.35418 18.5893 1.60618 15.9891 1.83126 13.38L1.83826 13.382Z" fill="url(#paint0_linear)"/>
<defs>
<linearGradient id="paint0_linear" x1="0" y1="15.5" x2="30.0058" y2="15.5" gradientUnits="userSpaceOnUse">
<stop stop-color="#FBC2EB"/>
<stop offset="1" stop-color="#A6C1EE"/>
</linearGradient>
</defs>
</svg>
