<svg width="54" height="54" viewBox="0 0 54 54" fill="none" xmlns="http://www.w3.org/2000/svg">
<rect width="54" height="54" rx="27" fill="#2D3135"/>
<g clip-path="url(#clip0)">
<path d="M25.59 20.012L26.358 19.244C26.4349 19.1666 26.5262 19.1053 26.6269 19.0634C26.7276 19.0216 26.8355 19 26.9445 19C27.0535 19 27.1615 19.0216 27.2621 19.0634C27.3628 19.1053 27.4541 19.1666 27.531 19.244L34.256 25.966C34.3333 26.0428 34.3947 26.1342 34.4365 26.2348C34.4784 26.3355 34.5 26.4434 34.5 26.5525C34.5 26.6615 34.4784 26.7694 34.4365 26.8701C34.3947 26.9707 34.3333 27.0621 34.256 27.139L27.531 33.864C27.4541 33.9413 27.3628 34.0026 27.2621 34.0445C27.1615 34.0863 27.0535 34.1079 26.9445 34.1079C26.8355 34.1079 26.7276 34.0863 26.6269 34.0445C26.5262 34.0026 26.4349 33.9413 26.358 33.864L25.59 33.096C25.5117 33.0179 25.4498 32.925 25.4078 32.8228C25.3658 32.7205 25.3447 32.6109 25.3456 32.5004C25.3466 32.3898 25.3695 32.2806 25.4132 32.179C25.4569 32.0775 25.5204 31.9857 25.6 31.909L29.769 27.938H19.83C19.7209 27.9382 19.6129 27.9169 19.5121 27.8753C19.4112 27.8337 19.3196 27.7726 19.2425 27.6954C19.1654 27.6183 19.1043 27.5267 19.0626 27.4259C19.021 27.3251 18.9997 27.217 19 27.108V26C18.9997 25.8909 19.021 25.7828 19.0626 25.682C19.1043 25.5812 19.1654 25.4896 19.2425 25.4125C19.3196 25.3353 19.4112 25.2742 19.5121 25.2326C19.6129 25.191 19.7209 25.1697 19.83 25.17H29.772L25.6 21.199C25.5197 21.1227 25.4555 21.031 25.4114 20.9294C25.3672 20.8278 25.344 20.7183 25.343 20.6076C25.3421 20.4968 25.3635 20.387 25.4059 20.2846C25.4484 20.1823 25.511 20.0896 25.59 20.012Z" fill="white"/>
</g>
<defs>
<clipPath id="clip0">
<rect width="15.5" height="15.107" fill="white" transform="translate(19 19)"/>
</clipPath>
</defs>
</svg>
