<svg width="49" height="49" viewBox="0 0 49 49" fill="none" xmlns="http://www.w3.org/2000/svg">
<path d="M24.5 49C38.031 49 49 38.031 49 24.5C49 10.969 38.031 0 24.5 0C10.969 0 0 10.969 0 24.5C0 38.031 10.969 49 24.5 49Z" fill="#F4900C"/>
<path d="M24.5003 44.2361C35.4002 44.2361 44.2364 35.4 44.2364 24.5C44.2364 13.6001 35.4002 4.76392 24.5003 4.76392C13.6003 4.76392 4.76416 13.6001 4.76416 24.5C4.76416 35.4 13.6003 44.2361 24.5003 44.2361Z" fill="#FFD983"/>
<path d="M24.5004 42.1944C34.2727 42.1944 42.1948 34.2724 42.1948 24.5C42.1948 14.7276 34.2727 6.80554 24.5004 6.80554C14.728 6.80554 6.80591 14.7276 6.80591 24.5C6.80591 34.2724 14.728 42.1944 24.5004 42.1944Z" fill="#F5F8FA"/>
<path d="M24.5003 10.8889L26.5841 19.4694L34.1247 14.8756L29.5309 22.4162L38.1114 24.5L29.5309 26.5839L34.1247 34.1244L26.5841 29.5307L24.5003 38.1111L22.4164 29.5307L14.8759 34.1244L19.4696 26.5839L10.8892 24.5L19.4696 22.4162L14.8759 14.8756L22.4164 19.4694L24.5003 10.8889Z" fill="#CCD6DD"/>
<path d="M23.6057 28.2403L35.5522 35.5644L28.2308 23.6166L23.6057 28.2403Z" fill="#292F33"/>
<path d="M25.3941 20.7799L13.4463 13.4558L20.7691 25.405L25.3941 20.7799Z" fill="#DD2E44"/>
<path d="M24.5001 28.6692C26.7966 28.6692 28.6583 26.8075 28.6583 24.511C28.6583 22.2145 26.7966 20.3528 24.5001 20.3528C22.2036 20.3528 20.3419 22.2145 20.3419 24.511C20.3419 26.8075 22.2036 28.6692 24.5001 28.6692Z" fill="#8899A6"/>
<path d="M24.5001 26.754C25.7389 26.754 26.7432 25.7498 26.7432 24.5109C26.7432 23.2721 25.7389 22.2678 24.5001 22.2678C23.2612 22.2678 22.257 23.2721 22.257 24.5109C22.257 25.7498 23.2612 26.754 24.5001 26.754Z" fill="#F5F8FA"/>
</svg>
