<svg width="32" height="31" viewBox="0 0 32 31" fill="none" xmlns="http://www.w3.org/2000/svg">
<path d="M5.20226 23.75C5.31429 23.8524 5.39156 23.9872 5.42329 24.1357C5.45502 24.2841 5.43963 24.4387 5.37926 24.578C5.19326 25.025 5.03426 25.478 4.80626 25.907C4.21703 26.8834 3.46637 27.7528 2.58626 28.478C2.20226 28.844 1.79426 29.21 1.43726 29.6C1.08026 29.99 1.17026 30.164 1.66526 30.29C2.21327 30.4299 2.77668 30.5005 3.34226 30.5C4.06827 30.4891 4.79157 30.4087 5.50226 30.26C7.89447 29.7347 10.2122 28.9144 12.4023 27.818C12.5886 27.7244 12.7937 27.6741 13.0023 27.671C13.0746 27.6712 13.1469 27.6773 13.2183 27.689C14.144 27.8394 15.0803 27.9157 16.0183 27.917C17.2531 27.9231 18.4843 27.7831 19.6863 27.5C21.6329 27.0854 23.4746 26.2783 25.0989 25.1281C26.7231 23.9778 28.0959 22.5086 29.1333 20.81C30.7458 18.2493 31.3469 15.1798 30.8193 12.2C30.537 10.4517 29.9025 8.77906 28.9541 7.28351C28.0057 5.78797 26.7633 4.50075 25.3023 3.5C22.6581 1.55668 19.4637 0.50591 16.1823 0.5C15.4023 0.551 14.6163 0.557 13.8423 0.665C10.5239 1.06448 7.42947 2.54579 5.03726 4.88C2.71021 7.07156 1.28607 10.0536 1.04426 13.241C0.788213 16.2716 1.64929 19.2912 3.46526 21.731C4.00896 22.4336 4.58874 23.1075 5.20226 23.75ZM2.83826 13.382C3.04298 10.6267 4.27796 8.04967 6.29726 6.164C8.4056 4.08356 11.1534 2.77413 14.0973 2.447C14.5473 2.384 15.0303 2.363 15.5403 2.336L16.2333 2.3C19.1138 2.31989 21.9151 3.2456 24.2403 4.946C25.5129 5.80881 26.5953 6.92311 27.4208 8.22022C28.2464 9.51733 28.7975 10.9698 29.0403 12.488C29.4945 15.0409 28.98 17.6714 27.5973 19.865C26.6869 21.3653 25.4769 22.6618 24.043 23.6735C22.6091 24.6852 20.982 25.3904 19.2633 25.745C18.2056 25.9955 17.1222 26.1213 16.0353 26.12C15.1931 26.1177 14.3525 26.0485 13.5213 25.913C12.8825 25.8089 12.2271 25.9064 11.6463 26.192C9.59033 27.2203 7.41612 27.9927 5.17226 28.492H5.14226C5.63261 27.9685 6.05587 27.3861 6.40226 26.758C6.59066 26.391 6.75761 26.0134 6.90226 25.627C6.95026 25.507 6.99526 25.39 7.04626 25.273C7.23957 24.8211 7.296 24.3224 7.20854 23.8387C7.12108 23.355 6.89359 22.9076 6.55426 22.552C6.39826 22.378 6.25426 22.207 6.08326 22.033C5.67366 21.6044 5.28903 21.1527 4.93126 20.68C3.35418 18.5893 2.60618 15.9891 2.83126 13.38L2.83826 13.382Z" fill="#5B5D60" stroke="#5B5D60"/>
</svg>
