<svg width="30" height="30" viewBox="0 0 30 30" fill="none" xmlns="http://www.w3.org/2000/svg">
<path d="M14.6795 29.9999C13.5929 29.9788 12.544 29.5981 11.6968 28.9174C10.8497 28.2367 10.252 27.2944 9.99747 26.2379H3.18147C2.56378 26.2278 1.96375 26.0302 1.46099 25.6712C0.958227 25.3122 0.576505 24.8089 0.366471 24.2279C0.122864 23.6133 0.0732575 22.9389 0.22432 22.2953C0.375383 21.6518 0.719874 21.0699 1.21147 20.6279L2.36347 19.5989C2.86008 19.1455 3.25525 18.5923 3.52307 17.9755C3.79088 17.3587 3.92529 16.6923 3.91747 16.0199V14.3299C3.86401 11.9899 4.53456 9.69058 5.83745 7.74617C7.14034 5.80177 9.01197 4.30723 11.1965 3.46688C11.1965 2.5487 11.5612 1.66813 12.2105 1.01888C12.8597 0.369628 13.7403 0.00488281 14.6585 0.00488281C15.5767 0.00488281 16.4572 0.369628 17.1065 1.01888C17.7557 1.66813 18.1205 2.5487 18.1205 3.46688C20.3106 4.30197 22.1886 5.79443 23.4967 7.7394C24.8048 9.68437 25.4789 11.9865 25.4265 14.3299V16.0469C25.4165 16.7142 25.5466 17.3762 25.8084 17.9901C26.0702 18.604 26.4579 19.1562 26.9465 19.6109L28.0985 20.6399C28.5967 21.0755 28.9494 21.6534 29.109 22.2957C29.2687 22.9379 29.2277 23.6137 28.9915 24.2319C28.7782 24.8153 28.3916 25.3195 27.8837 25.6769C27.3757 26.0344 26.7706 26.2281 26.1495 26.2319H19.3335C19.0814 27.2853 18.4884 28.226 17.6466 28.9076C16.8047 29.5892 15.7613 29.9735 14.6785 30.0009L14.6795 29.9999ZM12.5525 24.9199C12.5229 25.2173 12.556 25.5176 12.6495 25.8015C12.7431 26.0853 12.8951 26.3465 13.0957 26.568C13.2963 26.7896 13.5411 26.9666 13.8143 27.0878C14.0875 27.209 14.3831 27.2716 14.682 27.2716C14.9809 27.2716 15.2764 27.209 15.5496 27.0878C15.8229 26.9666 16.0677 26.7896 16.2683 26.568C16.4689 26.3465 16.6209 26.0853 16.7144 25.8015C16.808 25.5176 16.841 25.2173 16.8115 24.9199V24.8859C16.8111 24.7067 16.846 24.5292 16.9143 24.3636C16.9825 24.1979 17.0828 24.0474 17.2093 23.9205C17.3358 23.7936 17.486 23.6929 17.6515 23.6242C17.8169 23.5555 17.9943 23.52 18.1735 23.5199H26.1335C26.2031 23.5156 26.2694 23.4886 26.3223 23.4431C26.3752 23.3976 26.4118 23.3361 26.4265 23.2679C26.4687 23.1688 26.4803 23.0593 26.4596 22.9536C26.4389 22.8478 26.387 22.7507 26.3105 22.6749L25.1655 21.6459C24.383 20.9359 23.7593 20.0686 23.3354 19.1007C22.9114 18.1329 22.6968 17.0864 22.7055 16.0299V14.3299C22.7624 12.4153 22.1766 10.5369 21.0415 8.9941C19.9063 7.45133 18.2873 6.33314 16.4425 5.81788C16.147 5.74485 15.8844 5.57501 15.6967 5.33542C15.5089 5.09583 15.4067 4.80028 15.4065 4.49588V3.64388C15.4299 3.53373 15.4284 3.41974 15.4021 3.31024C15.3758 3.20074 15.3253 3.0985 15.2545 3.01099C15.1836 2.92348 15.0941 2.85291 14.9924 2.80443C14.8908 2.75595 14.7796 2.7308 14.667 2.7308C14.5544 2.7308 14.4432 2.75595 14.3415 2.80443C14.2399 2.85291 14.1504 2.92348 14.0795 3.01099C14.0086 3.0985 13.9582 3.20074 13.9319 3.31024C13.9056 3.41974 13.9041 3.53373 13.9275 3.64388V4.48188C13.9264 4.78533 13.8242 5.07974 13.6369 5.31848C13.4496 5.55722 13.1879 5.72664 12.8935 5.79988C11.049 6.32125 9.43093 7.44272 8.29534 8.9869C7.15976 10.5311 6.57145 12.4098 6.62347 14.3259V16.0429C6.63216 17.0994 6.41749 18.1459 5.99356 19.1137C5.56962 20.0816 4.94597 20.9489 4.16347 21.6589L3.01847 22.6879C2.94199 22.7638 2.89004 22.8608 2.86936 22.9666C2.84868 23.0723 2.86021 23.1818 2.90247 23.2809C2.91716 23.3491 2.95374 23.4106 3.00663 23.4561C3.05953 23.5016 3.12584 23.5286 3.19547 23.5329H11.1735C11.535 23.5329 11.8816 23.6765 12.1373 23.9321C12.3929 24.1877 12.5365 24.5344 12.5365 24.8959V24.9099L12.5525 24.9199Z" fill="#5B5D60"/>
</svg>
