<svg xmlns="http://www.w3.org/2000/svg" width="33.864" height="30" viewBox="0 0 33.864 30"><defs><style>.a{fill:#fff;}</style></defs><path class="a" d="M19.667,2.091c-.434,2.27-.407,5.3-3.482,5.3H9.57c-3.072,0-3.045-3.029-3.479-5.3H3.169A1.085,1.085,0,0,0,2.091,3.17V26.83a1.085,1.085,0,0,0,1.079,1.079H22.588a1.085,1.085,0,0,0,1.079-1.079V21.64l2.091-2.091V26.83A3.176,3.176,0,0,1,22.588,30H3.169A3.176,3.176,0,0,1,0,26.83V3.17A3.176,3.176,0,0,1,3.169,0H22.588a3.176,3.176,0,0,1,3.17,3.17V6.241L23.667,8.332V3.17a1.085,1.085,0,0,0-1.079-1.079H19.667ZM14.3,24.356q1.531-3.872,3.062-7.745L28.573,5.4a2.086,2.086,0,0,1,2.945,0l1.738,1.739a2.087,2.087,0,0,1,0,2.945L22.041,21.294c-.147.147-6.373,2.52-7.745,3.062ZM30.73,10.664ZM27.989,7.923l-8.733,8.733Zm-11.261,14,4.127-1.632a3.573,3.573,0,0,0-2.5-2.5ZM28.961,6.952,31.7,9.692l.584-.584a.712.712,0,0,0,0-1L30.547,6.368a.713.713,0,0,0-1,0l-.584.584ZM17.542,2.091H8.216C8.41,3.1,8.4,5.3,9.57,5.3h6.615C17.354,5.3,17.348,3.106,17.542,2.091Z" transform="translate(0 0)"/></svg>