<svg xmlns="http://www.w3.org/2000/svg" width="33.636" height="31" viewBox="0 0 33.636 31"><defs><style>.a{fill:none;stroke:#fff;stroke-width:2px;}</style></defs><g transform="translate(1 1)"><path class="a" d="M15.423,39.78a7.088,7.088,0,0,0,6.641,5.271,6.34,6.34,0,0,0,4.944-1.824L17.083,39.78Z" transform="translate(-6.576 -16.198)"/><path class="a" d="M12.348,14.182l-9.03.025A1.315,1.315,0,0,0,2,15.512V28.43a1.315,1.315,0,0,0,1.318,1.3h9.03Z" transform="translate(-2 -7.471)"/><path class="a" d="M38.353,4a1.175,1.175,0,0,0-.494.1L19.7,10.4V26.589l18.1,6.285a1.258,1.258,0,0,0,.554.125,1.315,1.315,0,0,0,1.318-1.305V5.3A1.315,1.315,0,0,0,38.353,4Z" transform="translate(-8.034 -4)"/></g></svg>