<svg width="19" height="19" viewBox="0 0 19 19" fill="none" xmlns="http://www.w3.org/2000/svg">
<path d="M17.0352 0.682249C16.8193 0.465978 16.563 0.294398 16.2807 0.177328C15.9985 0.0602592 15.6959 0 15.3904 0C15.0849 0 14.7823 0.0602592 14.5001 0.177328C14.2178 0.294398 13.9615 0.465978 13.7456 0.682249L1.7771 12.6282C1.73899 12.6611 1.70728 12.7007 1.68356 12.7451C1.68366 12.7482 1.68313 12.7513 1.682 12.7542C1.68086 12.7571 1.67914 12.7597 1.67695 12.7619C1.67475 12.7641 1.67213 12.7658 1.66925 12.7669C1.66636 12.7681 1.66327 12.7686 1.66017 12.7685C1.63679 12.8153 1.6134 12.8387 1.6134 12.8854V12.9088L0.0271045 18.0879C-0.00633562 18.2092 -0.0088749 18.3369 0.0197181 18.4594C0.0483111 18.582 0.107126 18.6954 0.190801 18.7894C0.253863 18.856 0.329906 18.909 0.414236 18.945C0.498566 18.9811 0.589393 18.9995 0.68111 18.9991C0.751815 19.0028 0.822655 18.9949 0.890798 18.9757L6.04723 17.3894H6.07062C6.11739 17.366 6.16416 17.366 6.18754 17.3426C6.19065 17.3428 6.19374 17.3422 6.19662 17.3411C6.19951 17.3399 6.20213 17.3382 6.20432 17.336C6.20652 17.3338 6.20823 17.3312 6.20937 17.3283C6.21051 17.3254 6.21104 17.3224 6.21093 17.3193C6.2591 17.3017 6.30019 17.2689 6.32786 17.2257L18.2722 5.279C18.4885 5.06316 18.6601 4.80679 18.7772 4.52456C18.8942 4.24233 18.9545 3.93979 18.9545 3.63424C18.9545 3.32869 18.8942 3.02615 18.7772 2.74392C18.6601 2.46169 18.4885 2.20532 18.2722 1.98948L17.0352 0.682249Z" fill="#BDBFC1"/>
</svg>
