<svg xmlns="http://www.w3.org/2000/svg" width="20" height="10" viewBox="0 0 20 10"><defs><style>.a{fill:#fff;}</style></defs><g transform="translate(-2 -7)"><path class="a" d="M6.5,7A4.5,4.5,0,1,0,11,11.5,4.5,4.5,0,0,0,6.5,7Zm1.53,6.03a.75.75,0,0,1-1.061,0l-1-1a.749.749,0,0,1-.22-.53V9.25a.75.75,0,0,1,1.5,0v1.939l.78.78a.75.75,0,0,1,0,1.061Z"/><path class="a" d="M13.5,8h8a.5.5,0,0,0,0-1h-8a.5.5,0,0,0,0,1Z"/><path class="a" d="M18.5,16h-5a.5.5,0,0,0,0,1h5a.5.5,0,0,0,0-1Z"/><path class="a" d="M21.5,13h-8a.5.5,0,0,0,0,1h8a.5.5,0,0,0,0-1Z"/><path class="a" d="M21.5,10h-8a.5.5,0,0,0,0,1h8a.5.5,0,0,0,0-1Z"/></g></svg>