<svg width="20" height="20" viewBox="0 0 20 20" fill="none" xmlns="http://www.w3.org/2000/svg">
<path fill-rule="evenodd" clip-rule="evenodd" d="M10 1.5C5.313 1.5 1.5 5.313 1.5 10C1.5 14.687 5.313 18.5 10 18.5C14.687 18.5 18.5 14.687 18.5 10C18.5 5.313 14.687 1.5 10 1.5ZM10 20C4.486 20 0 15.514 0 10C0 4.486 4.486 0 10 0C15.514 0 20 4.486 20 10C20 15.514 15.514 20 10 20Z" fill="white" fill-opacity="0.56"/>
<path fill-rule="evenodd" clip-rule="evenodd" d="M13.4313 13.6925C13.3003 13.6925 13.1683 13.6585 13.0473 13.5875L9.27725 11.3385C9.05125 11.2025 8.91125 10.9575 8.91125 10.6935V5.84546C8.91125 5.43146 9.24725 5.09546 9.66125 5.09546C10.0763 5.09546 10.4113 5.43146 10.4113 5.84546V10.2675L13.8163 12.2975C14.1713 12.5105 14.2883 12.9705 14.0763 13.3265C13.9353 13.5615 13.6863 13.6925 13.4313 13.6925Z" fill="white" fill-opacity="0.56"/>
</svg>
