<svg xmlns="http://www.w3.org/2000/svg" width="34" height="34" viewBox="0 0 34 34"><defs><style>.a{fill:#383e42;}.b,.c{stroke:none;}.c{fill:#70f84e;}</style></defs><g class="a"><path class="b" d="M 17 30 C 13.52756977081299 30 10.26298999786377 28.64776039123535 7.807610034942627 26.19239044189453 C 5.352240085601807 23.73700904846191 4 20.4724292755127 4 17 C 4 13.52756977081299 5.352240085601807 10.26298999786377 7.807610034942627 7.807610034942627 C 10.26298999786377 5.352240085601807 13.52756977081299 4 17 4 C 20.4724292755127 4 23.73700904846191 5.352240085601807 26.19239044189453 7.807610034942627 C 28.64776039123535 10.26298999786377 30 13.52756977081299 30 17 C 30 20.4724292755127 28.64776039123535 23.73700904846191 26.19239044189453 26.19239044189453 C 23.73700904846191 28.64776039123535 20.4724292755127 30 17 30 Z"/><path class="c" d="M 17 8 C 12.03738784790039 8 8 12.03738784790039 8 17 C 8 21.96261215209961 12.03738784790039 26 17 26 C 21.96261215209961 26 26 21.96261215209961 26 17 C 26 12.03738784790039 21.96261215209961 8 17 8 M 17 0 C 26.38883781433105 0 34 7.611162185668945 34 17 C 34 26.38883781433105 26.38883781433105 34 17 34 C 7.611162185668945 34 0 26.38883781433105 0 17 C 0 7.611162185668945 7.611162185668945 0 17 0 Z"/></g></svg>