<svg width="26" height="25" viewBox="0 0 26 25" fill="none" xmlns="http://www.w3.org/2000/svg">
<path d="M24.779 2.94C24.779 2.29287 24.5219 1.67225 24.0643 1.21466C23.6068 0.757071 22.9861 0.5 22.339 0.5H2.94C2.29287 0.5 1.67225 0.757071 1.21466 1.21466C0.757071 1.67225 0.5 2.29287 0.5 2.94V16.635C0.5 17.2821 0.757071 17.9028 1.21466 18.3603C1.67225 18.8179 2.29287 19.075 2.94 19.075H10.321L5.746 23.254C5.68285 23.3072 5.63106 23.3726 5.59369 23.4463C5.55632 23.5199 5.53415 23.6003 5.52848 23.6827C5.52282 23.7651 5.53378 23.8478 5.56072 23.9259C5.58766 24.004 5.63002 24.0758 5.68529 24.1372C5.74056 24.1986 5.8076 24.2482 5.88244 24.2831C5.95727 24.3181 6.03837 24.3376 6.1209 24.3406C6.20344 24.3435 6.28573 24.3299 6.36288 24.3004C6.44003 24.2709 6.51047 24.2262 6.57 24.169L12.152 19.075H13.128L18.679 24.138C18.8012 24.2411 18.9588 24.2925 19.1183 24.2816C19.2778 24.2706 19.4268 24.198 19.5338 24.0792C19.6408 23.9604 19.6974 23.8047 19.6916 23.6449C19.6859 23.4851 19.6182 23.3338 19.503 23.223L14.928 19.075H22.34C22.9871 19.075 23.6077 18.8179 24.0653 18.3603C24.5229 17.9028 24.78 17.2821 24.78 16.635L24.779 2.94ZM23.559 16.635C23.559 16.9586 23.4305 17.2689 23.2017 17.4977C22.9729 17.7265 22.6626 17.855 22.339 17.855H2.94C2.61644 17.855 2.30612 17.7265 2.07733 17.4977C1.84854 17.2689 1.72 16.9586 1.72 16.635V2.94C1.72 2.61644 1.84854 2.30612 2.07733 2.07733C2.30612 1.84854 2.61644 1.72 2.94 1.72H22.34C22.6636 1.72 22.9739 1.84854 23.2027 2.07733C23.4315 2.30612 23.56 2.61644 23.56 2.94L23.559 16.635Z" fill="white" stroke="white"/>
</svg>
