<svg width="21" height="20" viewBox="0 0 21 20" fill="none" xmlns="http://www.w3.org/2000/svg">
<path d="M8.11603 4.47186C8.11603 3.58741 8.3783 2.72282 8.86967 1.98743C9.36104 1.25204 10.0595 0.678866 10.8766 0.340402C11.6937 0.00193765 12.5928 -0.0866201 13.4603 0.0859274C14.3278 0.258475 15.1246 0.684378 15.75 1.30978C16.3754 1.93518 16.8013 2.73199 16.9738 3.59944C17.1464 4.4669 17.0578 5.36604 16.7193 6.18316C16.3809 7.00029 15.8077 7.6987 15.0723 8.19007C14.3369 8.68144 13.4723 8.94371 12.5879 8.94371C11.4023 8.94238 10.2656 8.47081 9.42728 7.63246C8.58893 6.79412 8.11736 5.65746 8.11603 4.47186ZM7.22435 15.8868C7.30132 15.9341 7.37326 15.9891 7.43906 16.051L7.36749 17.0193C7.29377 17.0711 7.21474 17.1148 7.13173 17.1498C7.00545 17.1305 6.87629 17.15 6.76129 17.2056C6.64628 17.2612 6.55086 17.3504 6.4876 17.4614L6.12133 18.1013C6.05846 18.2123 6.03083 18.3398 6.04211 18.4669C6.05339 18.5939 6.10304 18.7146 6.18448 18.8128C6.19475 18.9022 6.19616 18.9925 6.18869 19.0822L5.38879 19.6337C5.30259 19.6091 5.21931 19.5752 5.1404 19.5327C5.07575 19.422 4.97946 19.3332 4.86392 19.2777C4.74838 19.2222 4.61888 19.2025 4.49206 19.2212L3.76794 19.3348C3.64101 19.3537 3.52292 19.4111 3.42958 19.4991C3.33624 19.5872 3.27214 19.7018 3.24591 19.8274C3.18278 19.8913 3.11371 19.9491 3.03962 20L2.10921 19.7137C2.07492 19.631 2.04952 19.545 2.03343 19.4569C2.08148 19.3381 2.0919 19.2073 2.0633 19.0823C2.03469 18.9574 1.96842 18.8442 1.87345 18.7581L1.33457 18.2613C1.23998 18.1747 1.12143 18.1187 0.994458 18.1007C0.86749 18.0826 0.738037 18.1034 0.623079 18.1602C0.534254 18.1521 0.446665 18.1337 0.36206 18.1055L0 17.2046C0.0450908 17.1256 0.0972266 17.051 0.15577 16.9814C0.27873 16.9454 0.387567 16.8722 0.467432 16.772C0.547297 16.6718 0.594301 16.5494 0.602029 16.4215L0.656759 15.689C0.665632 15.5613 0.635211 15.434 0.569584 15.3241C0.503957 15.2142 0.406269 15.127 0.289648 15.0743C0.243763 14.9971 0.202979 14.9169 0.167558 14.8343L0.651707 13.9881C0.740697 13.9732 0.830993 13.9676 0.921147 13.9713C1.02621 14.0443 1.15108 14.0834 1.279 14.0834C1.40692 14.0834 1.53178 14.0443 1.63685 13.9713L2.24309 13.5545C2.34858 13.4821 2.42935 13.3792 2.47452 13.2595C2.51968 13.1398 2.52707 13.0091 2.49568 12.8851C2.52598 12.8004 2.56403 12.7187 2.60935 12.6409L3.56923 12.4936C3.63687 12.5525 3.6976 12.6189 3.75026 12.6915C3.75835 12.8193 3.80548 12.9415 3.8853 13.0416C3.96511 13.1418 4.07375 13.215 4.19652 13.2514L4.89959 13.4661C5.02207 13.503 5.15285 13.5018 5.27464 13.4627C5.39643 13.4236 5.50347 13.3484 5.58161 13.2472C5.66667 13.2188 5.75399 13.1976 5.84263 13.184L6.55833 13.8408C6.55213 13.9303 6.53805 14.019 6.51623 14.106C6.42186 14.1925 6.35602 14.3057 6.32745 14.4305C6.29888 14.5553 6.30892 14.6859 6.35625 14.8049L6.62569 15.4869C6.67349 15.6062 6.75625 15.7082 6.86309 15.7796C6.96993 15.8509 7.09587 15.8883 7.22435 15.8868ZM4.4247 16.0637C4.36882 15.8624 4.23565 15.6914 4.05422 15.5879C3.93675 15.5191 3.80307 15.4827 3.6669 15.4827C3.49335 15.4824 3.32457 15.5395 3.18686 15.6451C3.04915 15.7507 2.95024 15.8989 2.90555 16.0666C2.86086 16.2343 2.8729 16.4121 2.9398 16.5722C3.00669 16.7324 3.12468 16.8659 3.27538 16.952C3.36387 17.0045 3.46222 17.0384 3.56432 17.0514C3.66643 17.0644 3.77012 17.0564 3.86898 17.0277C3.96895 17.0021 4.06267 16.9564 4.14444 16.8934C4.22622 16.8305 4.29435 16.7516 4.34471 16.6615C4.39714 16.5719 4.43121 16.4728 4.44494 16.37C4.45868 16.2671 4.4518 16.1626 4.4247 16.0624V16.0637ZM18.5947 12.2612C17.1768 10.8559 15.1463 10.1735 12.6001 10.2168C10.0581 10.1747 8.0613 10.8391 6.64421 12.2031L7.62177 13.1023C7.74156 13.212 7.81427 13.3638 7.8247 13.5259C7.85244 13.9103 7.79494 14.2962 7.65629 14.6558L7.67566 14.7059C8.0238 14.8715 8.33069 15.1126 8.57407 15.4115C8.67762 15.5366 8.72903 15.6967 8.71763 15.8586L8.60986 17.3864H20.3654C20.4261 17.3865 20.486 17.3735 20.5411 17.3482C20.5962 17.323 20.6453 17.2862 20.6849 17.2402C20.7244 17.1943 20.7536 17.1404 20.7704 17.0821C20.7872 17.0239 20.7912 16.9627 20.7822 16.9027C20.5599 15.1638 19.7943 13.5395 18.5947 12.2612Z" fill="url(#paint0_linear)"/>
<defs>
<linearGradient id="paint0_linear" x1="0" y1="10" x2="20.7869" y2="10" gradientUnits="userSpaceOnUse">
<stop stop-color="#FBC2EB"/>
<stop offset="1" stop-color="#A6C1EE"/>
</linearGradient>
</defs>
</svg>
