<svg width="21" height="20" viewBox="0 0 21 20" fill="none" xmlns="http://www.w3.org/2000/svg">
<path d="M4.77057 7.71646C4.77057 6.08962 6.08962 4.77057 7.71646 4.77057C8.99154 4.77057 10.0907 5.60597 10.4865 6.74915L14.0699 3.16573L12.3551 1.45096C12.1573 1.2531 11.8275 1.2531 11.6296 1.45096L10.7942 2.28636C10.3546 2.04453 9.89289 1.84667 9.38726 1.71477V0.527621C9.38726 0.219842 9.14543 0 8.85963 0H6.57328C6.2655 0 6.04566 0.219842 6.04566 0.527621V1.71477C5.54002 1.84667 5.07835 2.04453 4.63867 2.28636L3.80327 1.45096C3.60541 1.2531 3.27565 1.2531 3.07779 1.45096L1.47294 3.0558C1.27508 3.25366 1.27508 3.58343 1.47294 3.78128L2.30834 4.61668C2.06652 5.05637 1.86866 5.51804 1.73675 6.02367H0.527621C0.219842 6.02367 0 6.2655 0 6.55129V8.81567C0 9.12344 0.219842 9.34329 0.527621 9.34329H1.71477C1.84667 9.84892 2.04453 10.3106 2.28636 10.7503L1.45096 11.5857C1.23112 11.7835 1.2531 12.1133 1.45096 12.3112L3.16573 14.0259L6.74915 10.4425C5.58399 10.0907 4.77057 8.99154 4.77057 7.71646Z" fill="#C5C4C4" fill-opacity="0.79"/>
<path d="M14.49 5.73781L6.65533 13.5725L10.0286 16.9458L17.8633 9.11109L14.49 5.73781Z" fill="#C5C4C4" fill-opacity="0.79"/>
<path d="M20.6651 5.32021L18.3128 2.94591C18.027 2.66012 17.5874 2.66012 17.3016 2.94591L15.7627 4.48481L19.1482 7.87038L20.6871 6.33148C20.9509 6.04569 20.9509 5.58402 20.6651 5.32021Z" fill="#C5C4C4" fill-opacity="0.79"/>
<path d="M4.52875 15.7187C4.44081 15.8067 4.37486 15.9386 4.33089 16.0705L3.6274 19.1263C3.51747 19.6319 3.97914 20.0936 4.48478 19.9837L7.54058 19.2802C7.67249 19.2582 7.78241 19.1922 7.89233 19.0823L8.7717 18.2029L5.40812 14.8394L4.52875 15.7187Z" fill="#C5C4C4" fill-opacity="0.79"/>
</svg>
