<svg width="21" height="18" viewBox="0 0 21 18" fill="none" xmlns="http://www.w3.org/2000/svg">
<path d="M15 16.125V18H0V16.125C0 14.3929 2.35193 12.9391 5.54376 12.5083C5.68884 12.2394 5.77185 11.9384 5.77185 11.6208C5.77185 11.3347 5.68701 11.0676 5.56506 10.8157C4.48126 10.0762 3.75 8.7489 3.75 7.21875C3.75 4.88879 5.42889 3 7.5 3C9.57111 3 11.25 4.88879 11.25 7.21875C11.25 8.7489 10.5187 10.0762 9.43494 10.8157C9.31299 11.0676 9.22815 11.3347 9.22815 11.6208C9.22815 11.9384 9.31116 12.2394 9.45624 12.5083C12.6481 12.9391 15 14.3929 15 16.125Z" fill="url(#paint0_linear)"/>
<path d="M21 9C21 9.55225 20.5523 10 20 10H14C13.4477 10 13 9.55225 13 9V5C13 4.44769 13.4477 4 14 4V3C14 1.34314 15.3431 0 17 0C18.6569 0 20 1.34314 20 3V4C20.5523 4 21 4.44769 21 5V9ZM17 6C16.4477 6 16 6.44769 16 7C16 7.55225 16.4477 8 17 8C17.5523 8 18 7.55225 18 7C18 6.44769 17.5523 6 17 6ZM17 1C15.8972 1 15 1.89722 15 3V4H19V3C19 1.89722 18.1028 1 17 1Z" fill="url(#paint1_linear)"/>
<defs>
<linearGradient id="paint0_linear" x1="0" y1="10.5" x2="15" y2="10.5" gradientUnits="userSpaceOnUse">
<stop stop-color="#FBC2EB"/>
<stop offset="1" stop-color="#A6C1EE"/>
</linearGradient>
<linearGradient id="paint1_linear" x1="13" y1="5" x2="21" y2="5" gradientUnits="userSpaceOnUse">
<stop stop-color="#FBC2EB"/>
<stop offset="1" stop-color="#A6C1EE"/>
</linearGradient>
</defs>
</svg>
