<svg width="21" height="20" viewBox="0 0 21 20" fill="none" xmlns="http://www.w3.org/2000/svg">
<path d="M10.9091 4.63251C10.9091 7.18468 9.08612 9.26502 6.85565 9.26502C4.60374 9.26502 2.78076 7.18468 2.78076 4.63251C2.78076 2.08034 4.60374 0 6.85565 0C9.08612 0 10.9091 2.08034 10.9091 4.63251Z" fill="#C5C4C4" fill-opacity="0.75"/>
<path d="M18.5227 4.24628C18.5227 6.04781 17.2359 7.48475 15.6703 7.48475C14.1047 7.48475 12.8179 6.02636 12.8179 4.24628C12.8179 2.46619 14.1047 1.00781 15.6703 1.00781C17.2359 1.00781 18.5227 2.44475 18.5227 4.24628Z" fill="#C5C4C4" fill-opacity="0.75"/>
<path d="M13.1621 18.9381C12.869 19.0619 12.5758 19.1651 12.2827 19.2477C11.9477 19.3509 11.6126 19.4541 11.2776 19.5367C11.0892 19.578 10.9007 19.6193 10.7122 19.6606C10.6494 19.6812 10.5866 19.6812 10.5028 19.7018C10.2516 19.7431 10.0212 19.7844 9.76997 19.8257C9.64434 19.8463 9.5187 19.867 9.414 19.867C9.16273 19.9083 8.9324 19.9289 8.70207 19.9495C8.51361 19.9702 8.30422 19.9702 8.11576 19.9908C8.03201 19.9908 7.96919 19.9908 7.88543 19.9908C7.63416 19.9908 7.38289 20.0115 7.15255 19.9908C7.13161 19.9908 7.11067 19.9908 7.08974 19.9908H6.88034C5.05862 19.9908 3.04844 19.7018 0.996386 18.9174C0.22163 18.6284 -0.176218 17.6583 0.0750546 16.7706L0.640417 14.8509C0.703235 14.6445 0.828871 14.3142 0.975447 13.9633C0.996386 13.9014 1.01733 13.8395 1.0592 13.7775C1.08014 13.7156 1.10108 13.6537 1.14296 13.5917C1.18484 13.5092 1.22672 13.4266 1.2686 13.3234C1.28954 13.2821 1.31048 13.2408 1.33142 13.1995C1.35235 13.1376 1.39423 13.055 1.43611 12.9931C1.51987 12.828 1.60363 12.6422 1.70832 12.4771C1.7502 12.4151 1.77114 12.3326 1.81302 12.2706C1.83396 12.2294 1.87584 12.1674 1.89678 12.1261C1.93866 12.0436 2.00147 11.961 2.06429 11.8578C2.37838 11.3624 2.73435 10.9083 3.11126 10.578C3.15314 10.5367 3.21596 10.4954 3.25784 10.4541C3.29971 10.4128 3.36253 10.3716 3.40441 10.3509C3.50911 10.289 3.6138 10.2271 3.7185 10.1651C3.80226 10.1239 3.88602 10.1032 3.96977 10.0619C4.07447 10.0206 4.17917 10.0206 4.28386 10C4.3048 10 4.34668 10 4.36762 10H4.38856C4.47232 10 4.55607 10 4.63983 10.0206C4.72359 10.0413 4.80735 10.0619 4.8911 10.0826C4.95392 10.1032 4.9958 10.1239 5.05862 10.1445C5.51928 10.3509 6.1684 10.5986 6.9641 10.6399L5.60304 12.3739L7.0688 17.1835L8.53455 12.3739L7.21537 10.6399C8.01107 10.5986 8.70207 10.3509 9.16273 10.1445C9.35119 10.0619 9.53964 10.0206 9.72809 10.0206C9.81185 10.0206 9.91655 10.0206 10.0003 10.0413C10.0631 10.0619 10.1259 10.0619 10.1678 10.0826C10.2306 10.1032 10.2935 10.1239 10.3353 10.1445C10.4191 10.1858 10.5028 10.2271 10.5866 10.2683C10.6494 10.3096 10.6913 10.3303 10.7541 10.3716C10.9216 10.4954 11.1101 10.6399 11.2567 10.7844C11.2985 10.8257 11.3195 10.8463 11.3614 10.8876C11.6545 11.1766 11.8848 11.4862 12.0733 11.7339C12.7224 12.6835 13.1412 13.7569 13.5181 14.8303L13.56 14.9954L14.0835 16.7706C14.3557 17.6789 13.9369 18.6491 13.1621 18.9381Z" fill="#C5C4C4" fill-opacity="0.75"/>
<path d="M20.7738 12.5743L20.3618 11.1409C20.0799 10.3471 19.7763 9.53114 19.2993 8.82548C18.8873 8.20803 18.0199 7.19364 17.1742 7.61263C16.849 7.76699 16.3936 7.9434 15.8515 7.98751L16.3502 8.67111L15.5913 11.2291L14.8324 8.67111L15.3528 7.96545C14.8541 7.92135 14.4421 7.76699 14.1602 7.61263C13.1627 7.12748 12.252 8.29623 11.6665 9.46498C12.1436 9.90602 12.5339 10.4132 12.7941 10.7881C13.553 11.9127 14.0301 13.2138 14.4204 14.3164C14.4637 14.4267 14.5071 14.6031 14.6155 14.9559C14.9625 14.9779 15.3094 15 15.6347 15C15.6564 15 15.678 15 15.6997 15C15.7214 15 15.7431 15 15.7648 15C17.1092 15 18.6054 14.8015 20.1233 14.2061C20.6654 13.9636 20.9689 13.2359 20.7738 12.5743Z" fill="#C5C4C4" fill-opacity="0.75"/>
</svg>
