<svg xmlns="http://www.w3.org/2000/svg" xmlns:xlink="http://www.w3.org/1999/xlink" width="122" height="122" viewBox="0 0 122 122">
  <defs>
    <filter id="Rectangle_2232" x="0" y="0" width="122" height="122" filterUnits="userSpaceOnUse">
      <feOffset dy="3" input="SourceAlpha"/>
      <feGaussianBlur stdDeviation="3" result="blur"/>
      <feFlood flood-opacity="0.161"/>
      <feComposite operator="in" in2="blur"/>
      <feComposite in="SourceGraphic"/>
    </filter>
  </defs>
  <g id="Group_40043" data-name="Group 40043" transform="translate(-2891 -1222)">
    <g id="Component_56" data-name="Component 56" transform="translate(3022 999)">
      <g transform="matrix(1, 0, 0, 1, -131, 223)" filter="url(#Rectangle_2232)">
        <rect id="Rectangle_2232-2" data-name="Rectangle 2232" width="104" height="104" rx="52" transform="translate(9 6)" fill="#4a5055" opacity="0.27"/>
      </g>
    </g>
    <g id="Group_40042" data-name="Group 40042" transform="translate(-8637 -8571.397)">
      <path id="Path_58948" data-name="Path 58948" d="M43.954,34.559a7.665,7.665,0,0,0,7.654-7.654V11.654a7.654,7.654,0,0,0-15.308,0V26.905A7.7,7.7,0,0,0,43.954,34.559Z" transform="translate(11545.308 9821)" fill="#01ff6e"/>
      <path id="Path_58949" data-name="Path 58949" d="M40.384,53.829A14.915,14.915,0,0,0,53.121,39.136V32.823a2.123,2.123,0,1,0-4.246,0v6.369a10.615,10.615,0,1,1-21.229,0V32.823a2.123,2.123,0,1,0-4.246,0v6.369A14.866,14.866,0,0,0,36.138,53.885v5.866A15.267,15.267,0,0,0,25.914,65.84a.855.855,0,0,0,.726,1.341H49.825a.855.855,0,0,0,.726-1.341,15.267,15.267,0,0,0-10.224-6.089V53.829Z" transform="translate(11551 9809.217)" fill="#01ff6e"/>
    </g>
  </g>
</svg>
