<svg xmlns="http://www.w3.org/2000/svg" width="18.693" height="18.693" viewBox="0 0 18.693 18.693">
  <path id="Icon_awesome-expand" data-name="Icon awesome-expand" d="M0,8.425V3.251a1,1,0,0,1,1-1H6.175a.5.5,0,0,1,.5.5V4.42a.5.5,0,0,1-.5.5H2.67v3.5a.5.5,0,0,1-.5.5H.5A.5.5,0,0,1,0,8.425ZM12.017,2.751V4.42a.5.5,0,0,0,.5.5h3.5v3.5a.5.5,0,0,0,.5.5h1.669a.5.5,0,0,0,.5-.5V3.251a1,1,0,0,0-1-1H12.518A.5.5,0,0,0,12.017,2.751Zm6.175,11.516H16.523a.5.5,0,0,0-.5.5v3.5h-3.5a.5.5,0,0,0-.5.5v1.669a.5.5,0,0,0,.5.5h5.174a1,1,0,0,0,1-1V14.768A.5.5,0,0,0,18.192,14.267ZM6.676,20.442V18.773a.5.5,0,0,0-.5-.5H2.67v-3.5a.5.5,0,0,0-.5-.5H.5a.5.5,0,0,0-.5.5v5.174a1,1,0,0,0,1,1H6.175A.5.5,0,0,0,6.676,20.442Z" transform="translate(0 -2.25)" fill="#fff"/>
</svg>
