<svg xmlns="http://www.w3.org/2000/svg" width="18" height="18" viewBox="0 0 18 18">
  <g id="Group_40055" data-name="Group 40055" transform="translate(-8 -352)">
    <circle id="Ellipse_867" data-name="Ellipse 867" cx="9" cy="9" r="9" transform="translate(8 352)" fill="red"/>
    <path id="Icon_awesome-microphone-slash" data-name="Icon awesome-microphone-slash" d="M9.748,7.045,7.321,5.17a2.643,2.643,0,0,0,.307-1.233V3.2a.246.246,0,0,0-.246-.246H7.136A.246.246,0,0,0,6.89,3.2v.738a1.913,1.913,0,0,1-.165.772l-.408-.316A1.448,1.448,0,0,0,6.4,3.937V1.476a1.476,1.476,0,1,0-2.953,0v.7L.7.052A.246.246,0,0,0,.354.1l-.3.389A.246.246,0,0,0,.1.829L9.144,7.823a.246.246,0,0,0,.345-.043l.3-.389A.246.246,0,0,0,9.748,7.045Zm-3.6.091H5.291V6.617a2.678,2.678,0,0,0,.518-.128l-.771-.6a1.983,1.983,0,0,1-.313,0A1.992,1.992,0,0,1,3.015,4.33l-.8-.619v.105A2.792,2.792,0,0,0,4.552,6.611v.525H3.691a.246.246,0,0,0-.246.246v.246a.246.246,0,0,0,.246.246H6.152A.246.246,0,0,0,6.4,7.628V7.382A.246.246,0,0,0,6.152,7.136Z" transform="translate(12.3 357)" fill="#fff"/>
  </g>
</svg>
