<svg xmlns="http://www.w3.org/2000/svg" width="15.279" height="22.512" viewBox="0 0 15.279 22.512">
  <path id="Icon_metro-pin" data-name="Icon metro-pin" d="M20.861,19.089l-7.514-4.338a1.928,1.928,0,1,0-1.928,3.338l7.513,4.338a1.928,1.928,0,0,0,1.929-3.338Zm-6.2-4.691,5.844,3.374L22.5,12.241,18.461,9.912l-3.8,4.487Zm-4.308,14.21,5.59-6.791-2.5-1.446-3.086,8.237ZM24.911,9.182,19.9,6.29a1.446,1.446,0,0,0-1.446,2.5l5.009,2.892a1.446,1.446,0,1,0,1.445-2.5Z" transform="translate(-10.356 -6.096)" fill="#fff"/>
</svg>
