<svg xmlns="http://www.w3.org/2000/svg" width="18" height="18" viewBox="0 0 18 18">
  <g id="Group_40054" data-name="Group 40054" transform="translate(-8 -352)">
    <circle id="Ellipse_867" data-name="Ellipse 867" cx="9" cy="9" r="9" transform="translate(8 352)" fill="#1f0"/>
    <path id="Icon_awesome-microphone" data-name="Icon awesome-microphone" d="M3.141,6.283A1.714,1.714,0,0,0,4.855,4.569V1.714a1.714,1.714,0,0,0-3.427,0V4.569A1.714,1.714,0,0,0,3.141,6.283ZM6,3.427H5.712a.286.286,0,0,0-.286.286v.857A2.287,2.287,0,0,1,2.913,6.843,2.354,2.354,0,0,1,.857,4.468V3.713a.286.286,0,0,0-.286-.286H.286A.286.286,0,0,0,0,3.713v.717A3.24,3.24,0,0,0,2.713,7.673v.61h-1a.286.286,0,0,0-.286.286v.286a.286.286,0,0,0,.286.286H4.569a.286.286,0,0,0,.286-.286V8.568a.286.286,0,0,0-.286-.286h-1v-.6a3.145,3.145,0,0,0,2.713-3.11V3.713A.286.286,0,0,0,6,3.427Z" transform="translate(14 356)" fill="#fff"/>
  </g>
</svg>
