<svg width="20" height="11" viewBox="0 0 20 11" fill="none" xmlns="http://www.w3.org/2000/svg">
<path d="M18.4806 1.36196L13.9629 3.83857V1.4651C13.9613 1.07712 13.7984 0.705482 13.5098 0.431083C13.2212 0.156685 12.8302 0.00174656 12.4219 0H1.54163C1.13328 0.00158791 0.742131 0.156456 0.45338 0.430872C0.164629 0.705287 0.00167086 1.07702 0 1.4651V9.5349C0.00167086 9.92298 0.164629 10.2947 0.45338 10.5691C0.742131 10.8435 1.13328 10.9984 1.54163 11H12.3997C12.8081 10.9984 13.1992 10.8435 13.488 10.5691C13.7767 10.2947 13.9397 9.92298 13.9414 9.5349V7.14092L18.4799 9.61754C18.7135 9.74523 18.9906 9.77999 19.251 9.71422C19.5114 9.64846 19.7339 9.48752 19.8699 9.26649C19.9558 9.12166 20.0007 8.95808 20 8.7918V2.2082C20.0002 2.08059 19.9738 1.9542 19.9224 1.83629C19.871 1.71839 19.7956 1.6113 19.7006 1.52117C19.6055 1.43105 19.4926 1.35966 19.3684 1.31112C19.2442 1.26257 19.1112 1.23783 18.9769 1.23831C18.803 1.23817 18.632 1.28077 18.4806 1.36196Z" fill="#4A4E53" fill-opacity="0.5"/>
</svg>
