<svg width="16" height="23" viewBox="0 0 16 23" fill="none" xmlns="http://www.w3.org/2000/svg">
<path d="M10.508 12.9572L2.994 8.61924C2.77453 8.48505 2.53042 8.39613 2.27605 8.35772C2.02169 8.31932 1.76221 8.33221 1.5129 8.39563C1.26359 8.45905 1.0295 8.57172 0.824406 8.72701C0.619313 8.88229 0.44737 9.07705 0.318706 9.29982C0.190041 9.52258 0.107257 9.76883 0.0752296 10.0241C0.043202 10.2793 0.0625787 10.5384 0.132218 10.786C0.201858 11.0337 0.320352 11.2649 0.480721 11.466C0.641089 11.6672 0.84009 11.8342 1.066 11.9572L8.579 16.2952C9.02095 16.5395 9.54107 16.6006 10.0276 16.4654C10.5141 16.3303 10.9282 16.0096 11.1808 15.5725C11.4335 15.1353 11.5045 14.6164 11.3787 14.1274C11.2529 13.6384 10.9403 13.2182 10.508 12.9572ZM4.308 8.26624L10.152 11.6402L12.147 6.10924L8.108 3.78024L4.308 8.26724V8.26624ZM0 22.4762L5.59 15.6852L3.09 14.2392L0.00400066 22.4762H0ZM14.558 3.05024L9.547 0.158244C9.21709 -0.0102559 8.8351 -0.0457126 8.47981 0.059188C8.12453 0.164089 7.82305 0.401345 7.63758 0.722017C7.4521 1.04269 7.39677 1.42231 7.483 1.78259C7.56923 2.14286 7.79044 2.4563 8.101 2.65824L13.11 5.55024C13.2745 5.65792 13.4593 5.7309 13.653 5.76474C13.8467 5.79858 14.0453 5.79255 14.2366 5.74703C14.4279 5.70151 14.6078 5.61745 14.7655 5.5C14.9232 5.38254 15.0553 5.23416 15.1537 5.06392C15.2521 4.89368 15.3148 4.70515 15.3378 4.50988C15.3609 4.3146 15.3439 4.11667 15.2878 3.92819C15.2318 3.73971 15.1379 3.56465 15.0119 3.41369C14.8859 3.26274 14.7304 3.13907 14.555 3.05024H14.558Z" fill="#84FAB0"/>
</svg>
