<svg width="107" height="107" viewBox="0 0 107 107" fill="none" xmlns="http://www.w3.org/2000/svg">
<rect width="107" height="107" rx="53.5" fill="#2D3135"/>
<path d="M72.5813 44.2192L62.4166 50.073V44.463C62.4128 43.5459 62.0464 42.6675 61.397 42.0189C60.7476 41.3703 59.8679 41.0041 58.9493 41H34.4687C33.5499 41.0038 32.6698 41.3698 32.0201 42.0184C31.3704 42.667 31.0038 43.5457 31 44.463V63.537C31.0038 64.4543 31.3704 65.333 32.0201 65.9816C32.6698 66.6302 33.5499 66.9962 34.4687 67H58.8994C59.8182 66.9962 60.6982 66.6302 61.3479 65.9816C61.9976 65.333 62.3643 64.4543 62.368 63.537V57.8785L72.5799 63.7324C73.1053 64.0342 73.729 64.1163 74.3148 63.9609C74.9007 63.8055 75.4012 63.425 75.7072 62.9026C75.9007 62.5603 76.0015 62.1736 76 61.7806V46.2194C76.0004 45.9178 75.941 45.619 75.8254 45.3403C75.7098 45.0616 75.5402 44.8085 75.3262 44.5955C75.1123 44.3825 74.8584 44.2137 74.5789 44.099C74.2995 43.9843 74.0001 43.9258 73.698 43.9269C73.3068 43.9266 72.9221 44.0273 72.5813 44.2192Z" fill="#4A4E53" fill-opacity="0.5"/>
</svg>
