<svg width="107" height="107" viewBox="0 0 107 107" fill="none" xmlns="http://www.w3.org/2000/svg">
<rect width="107" height="107" rx="53.5" fill="#2D3135"/>
<path d="M54.4345 59.5674C56.1322 59.565 57.7596 58.8895 58.9601 57.6891C60.1605 56.4886 60.8359 54.8612 60.8384 53.1635V40.4039C60.8384 38.7054 60.1637 37.0766 58.9627 35.8756C57.7618 34.6747 56.1329 34 54.4345 34C52.7361 34 51.1072 34.6747 49.9063 35.8756C48.7053 37.0766 48.0306 38.7054 48.0306 40.4039V53.1648C48.0415 54.8597 48.7198 56.4821 49.9184 57.6805C51.117 58.8789 52.7396 59.5568 54.4345 59.5674Z" fill="#4A4E53" fill-opacity="0.5"/>
<path d="M56.2097 65.831C59.1627 65.3952 61.8617 63.9153 63.817 61.6598C65.7723 59.4042 66.8543 56.5226 66.8667 53.5376V48.2571C66.8731 48.0198 66.832 47.7837 66.7456 47.5626C66.6592 47.3415 66.5294 47.14 66.3639 46.9699C66.1983 46.7998 66.0004 46.6646 65.7817 46.5723C65.5631 46.48 65.3281 46.4324 65.0908 46.4324C64.8534 46.4324 64.6185 46.48 64.3998 46.5723C64.1811 46.6646 63.9832 46.7998 63.8176 46.9699C63.6521 47.14 63.5223 47.3415 63.4359 47.5626C63.3496 47.7837 63.3084 48.0198 63.3148 48.2571V53.5817C63.3148 54.748 63.0851 55.9029 62.6388 56.9804C62.1924 58.0579 61.5383 59.0369 60.7136 59.8616C59.8889 60.6863 58.9098 61.3405 57.8323 61.7868C56.7548 62.2331 55.6 62.4628 54.4337 62.4628C53.2674 62.4628 52.1125 62.2331 51.035 61.7868C49.9575 61.3405 48.9785 60.6863 48.1538 59.8616C47.3291 59.0369 46.6749 58.0579 46.2286 56.9804C45.7823 55.9029 45.5526 54.748 45.5526 53.5817V48.2571C45.559 48.0198 45.5178 47.7837 45.4314 47.5626C45.3451 47.3415 45.2153 47.14 45.0497 46.9699C44.8842 46.7998 44.6862 46.6646 44.4676 46.5723C44.2489 46.48 44.014 46.4324 43.7766 46.4324C43.5393 46.4324 43.3043 46.48 43.0857 46.5723C42.867 46.6646 42.669 46.7998 42.5035 46.9699C42.3379 47.14 42.2082 47.3415 42.1218 47.5626C42.0354 47.7837 41.9942 48.0198 42.0006 48.2571V53.5817C42.0045 56.5691 43.0835 59.4553 45.0403 61.7126C46.9972 63.9699 49.7011 65.4475 52.6577 65.8751V70.7829C50.9636 71.0163 49.3336 71.5875 47.8643 72.4627C46.3951 73.3378 45.1165 74.4991 44.1045 75.8777C44.0294 75.9864 43.9859 76.1138 43.9787 76.2458C43.9716 76.3777 44.0011 76.5091 44.0641 76.6252C44.127 76.7414 44.2209 76.8379 44.3353 76.904C44.4497 76.9701 44.5802 77.0033 44.7123 76.9998H64.1096C64.2417 77.0033 64.3722 76.9701 64.4866 76.904C64.601 76.8379 64.6949 76.7414 64.7579 76.6252C64.8208 76.5091 64.8503 76.3777 64.8432 76.2458C64.836 76.1138 64.7925 75.9864 64.7174 75.8777C63.7054 74.4991 62.4269 73.3378 60.9576 72.4627C59.4884 71.5875 57.8583 71.0163 56.1642 70.7829V65.831H56.2097Z" fill="#4A4E53" fill-opacity="0.5"/>
</svg>
