<svg width="80" height="80" viewBox="0 0 80 80" fill="none" xmlns="http://www.w3.org/2000/svg">
<rect width="80" height="80" rx="40" fill="#2D3135"/>
<path d="M36.4946 49.0982C36.7523 48.8411 37.1012 48.6963 37.4653 48.6956H58.0487C58.4142 48.6956 58.7646 48.5504 59.023 48.292C59.2814 48.0336 59.4266 47.6832 59.4266 47.3177V25.3778C59.4266 25.1969 59.391 25.0177 59.3217 24.8506C59.2525 24.6834 59.151 24.5315 59.023 24.4036C58.8951 24.2756 58.7432 24.1741 58.576 24.1049C58.4089 24.0356 58.2297 24 58.0487 24H22.3778C22.1969 24 22.0177 24.0356 21.8506 24.1049C21.6834 24.1741 21.5315 24.2756 21.4036 24.4036C21.2756 24.5315 21.1741 24.6834 21.1049 24.8506C21.0356 25.0177 21 25.1969 21 25.3778V47.3239C21 47.6893 21.1452 48.0398 21.4036 48.2982C21.662 48.5565 22.0124 48.7017 22.3778 48.7017H29.2319C29.5973 48.7017 29.9478 48.8469 30.2061 49.1053C30.4645 49.3637 30.6097 49.7141 30.6097 50.0796V55L36.4946 49.0982Z" fill="url(#paint0_linear)"/>
<defs>
<linearGradient id="paint0_linear" x1="21" y1="39.5" x2="59.4266" y2="39.5" gradientUnits="userSpaceOnUse">
<stop stop-color="#A18CD1"/>
<stop offset="1" stop-color="#FBC2EB"/>
</linearGradient>
</defs>
</svg>
