<svg width="23" height="26" viewBox="0 0 23 26" fill="none" xmlns="http://www.w3.org/2000/svg">
<g clip-path="url(#clip0)">
<path d="M16.467 0H2.352C1.72878 0.00184659 1.13161 0.250239 0.690925 0.690925C0.250239 1.13161 0.00184659 1.72878 0 2.352V18.82H2.352V2.352H16.467V0ZM20 4.7H7.057C6.43205 4.70053 5.83284 4.94903 5.39093 5.39093C4.94903 5.83284 4.70053 6.43205 4.7 7.057V23.525C4.70185 24.1482 4.95024 24.7454 5.39092 25.1861C5.83161 25.6268 6.42878 25.8752 7.052 25.877H20C20.6232 25.8752 21.2204 25.6268 21.6611 25.1861C22.1018 24.7454 22.3502 24.1482 22.352 23.525V7.057C22.3515 6.43291 22.1037 5.83446 21.6628 5.3927C21.222 4.95093 20.6241 4.70185 20 4.7ZM20 23.52H7.057V7.057H20V23.52Z" fill="url(#paint0_linear)"/>
</g>
<defs>
<linearGradient id="paint0_linear" x1="0" y1="12.9385" x2="22.352" y2="12.9385" gradientUnits="userSpaceOnUse">
<stop stop-color="#84FAB0"/>
<stop offset="1" stop-color="#8FD3F4"/>
</linearGradient>
<clipPath id="clip0">
<rect width="22.348" height="25.877" fill="white"/>
</clipPath>
</defs>
</svg>
