<svg width="20" height="20" viewBox="0 0 20 20" fill="none" xmlns="http://www.w3.org/2000/svg">
<path d="M0.910156 7.08391V1.90991C0.910156 1.6447 1.01551 1.39034 1.20305 1.20281C1.39059 1.01527 1.64494 0.909913 1.91016 0.909913H7.08516C7.21776 0.909913 7.34494 0.962592 7.43871 1.05636C7.53248 1.15013 7.58516 1.2773 7.58516 1.40991V3.07891C7.58516 3.21152 7.53248 3.3387 7.43871 3.43247C7.34494 3.52623 7.21776 3.57891 7.08516 3.57891H3.58016V7.07891C3.58016 7.21152 3.52748 7.3387 3.43371 7.43247C3.33994 7.52624 3.21276 7.57891 3.08016 7.57891H1.41016C1.27841 7.57892 1.15198 7.52693 1.05836 7.43424C0.964733 7.34155 0.911474 7.21565 0.910156 7.08391V7.08391ZM12.9272 1.40991V3.07891C12.9272 3.21152 12.9798 3.3387 13.0736 3.43247C13.1674 3.52623 13.2945 3.57891 13.4272 3.57891H16.9272V7.07891C16.9272 7.21152 16.9798 7.3387 17.0736 7.43247C17.1674 7.52624 17.2945 7.57891 17.4272 7.57891H19.0962C19.2288 7.57891 19.3559 7.52624 19.4497 7.43247C19.5435 7.3387 19.5962 7.21152 19.5962 7.07891V1.90991C19.5962 1.6447 19.4908 1.39034 19.3033 1.20281C19.1157 1.01527 18.8614 0.909913 18.5962 0.909913H13.4282C13.3624 0.909782 13.2973 0.922618 13.2365 0.947686C13.1757 0.972754 13.1205 1.00956 13.074 1.05601C13.0274 1.10245 12.9905 1.15761 12.9653 1.21834C12.9401 1.27907 12.9272 1.34417 12.9272 1.40991ZM19.1022 12.9259H17.4332C17.3005 12.9259 17.1734 12.9786 17.0796 13.0724C16.9858 13.1661 16.9332 13.2933 16.9332 13.4259V16.9259H13.4332C13.3005 16.9259 13.1734 16.9786 13.0796 17.0724C12.9858 17.1661 12.9332 17.2933 12.9332 17.4259V19.0949C12.9332 19.2275 12.9858 19.3547 13.0796 19.4485C13.1734 19.5422 13.3005 19.5949 13.4332 19.5949H18.6072C18.8724 19.5949 19.1267 19.4896 19.3143 19.302C19.5018 19.1145 19.6072 18.8601 19.6072 18.5949V13.4269C19.6073 13.3607 19.5943 13.2952 19.5689 13.2341C19.5435 13.173 19.5063 13.1175 19.4593 13.0709C19.4123 13.0243 19.3566 12.9875 19.2953 12.9626C19.234 12.9377 19.1683 12.9253 19.1022 12.9259ZM7.58616 19.1009V17.4319C7.58616 17.2993 7.53348 17.1721 7.43971 17.0784C7.34594 16.9846 7.21876 16.9319 7.08616 16.9319H3.58016V13.4319C3.58016 13.2993 3.52748 13.1721 3.43371 13.0784C3.33994 12.9846 3.21276 12.9319 3.08016 12.9319H1.41016C1.27755 12.9319 1.15037 12.9846 1.0566 13.0784C0.962835 13.1721 0.910156 13.2993 0.910156 13.4319L0.910156 18.6059C0.910156 18.8711 1.01551 19.1255 1.20305 19.313C1.39059 19.5006 1.64494 19.6059 1.91016 19.6059H7.08516C7.15132 19.606 7.21686 19.5931 7.27797 19.5677C7.33907 19.5423 7.39454 19.505 7.44114 19.4581C7.48774 19.4111 7.52455 19.3553 7.54945 19.294C7.57434 19.2327 7.58682 19.1671 7.58616 19.1009Z" fill="#84FAB0"/>
</svg>
