<svg width="80" height="80" viewBox="0 0 80 80" fill="none" xmlns="http://www.w3.org/2000/svg">
<rect width="80" height="80" rx="40" fill="#2D3135"/>
<path d="M45.528 26.3506C45.2974 26.1635 45.0184 26.0457 44.7235 26.0108C44.4286 25.976 44.1298 26.0255 43.8619 26.1537C43.5941 26.2819 43.3681 26.4835 43.2102 26.735C43.0523 26.9865 42.969 27.2777 42.97 27.5746V32.2825H41.4007C35.9901 32.2825 30.8011 34.4319 26.9752 38.2577C23.1494 42.0836 21 47.2726 21 52.6833C21 53.0041 21.0983 53.3172 21.2817 53.5804C21.465 53.8436 21.7247 54.0443 22.0256 54.1555C22.3266 54.2666 22.6543 54.2829 22.9648 54.202C23.2752 54.1212 23.5534 53.9471 23.7619 53.7033L25.0017 52.2595C27.2412 49.633 29.9859 47.4835 33.0727 45.9388C36.1594 44.3941 39.5252 43.4856 42.97 43.2675V47.9754C42.969 48.2724 43.0523 48.5635 43.2102 48.815C43.3681 49.0665 43.5941 49.2681 43.8619 49.3963C44.1298 49.5245 44.4286 49.574 44.7235 49.5392C45.0184 49.5043 45.2974 49.3865 45.528 49.1994L58.0823 38.9991C58.2628 38.8519 58.4082 38.6664 58.5081 38.456C58.608 38.2457 58.6598 38.0157 58.6598 37.7829C58.6598 37.55 58.608 37.32 58.5081 37.1097C58.4082 36.8993 58.2628 36.7138 58.0823 36.5667L45.528 26.3506Z" fill="url(#paint0_linear)"/>
<defs>
<linearGradient id="paint0_linear" x1="21" y1="40.1263" x2="58.6598" y2="40.1263" gradientUnits="userSpaceOnUse">
<stop stop-color="#84FAB0"/>
<stop offset="1" stop-color="#8FD3F4"/>
</linearGradient>
</defs>
</svg>
