<svg width="12" height="21" viewBox="0 0 12 21" fill="none" xmlns="http://www.w3.org/2000/svg">
<path d="M6.00052 12.3378C6.81975 12.3366 7.60509 12.0107 8.18437 11.4314C8.76366 10.8521 9.08961 10.0668 9.09077 9.24755V3.09024C9.09077 2.27066 8.76519 1.48464 8.18566 0.905112C7.60612 0.325578 6.82011 0 6.00052 0C5.18094 0 4.39492 0.325578 3.81539 0.905112C3.23586 1.48464 2.91028 2.27066 2.91028 3.09024V9.24817C2.91554 10.0661 3.24282 10.849 3.82124 11.4273C4.39965 12.0056 5.18262 12.3327 6.00052 12.3378Z" fill="url(#paint0_linear)"/>
<path d="M6.85701 15.3604C8.28203 15.1501 9.58447 14.436 10.528 13.3475C11.4715 12.2591 11.9937 10.8685 11.9997 9.4281V6.87995C12.0028 6.76546 11.9829 6.6515 11.9412 6.54482C11.8996 6.43813 11.8369 6.34088 11.757 6.25881C11.6771 6.17673 11.5816 6.11149 11.4761 6.06695C11.3706 6.0224 11.2572 5.99945 11.1427 5.99945C11.0281 5.99945 10.9148 6.0224 10.8092 6.06695C10.7037 6.11149 10.6082 6.17673 10.5283 6.25881C10.4484 6.34088 10.3858 6.43813 10.3441 6.54482C10.3025 6.6515 10.2826 6.76546 10.2857 6.87995V9.44941C10.2857 10.0122 10.1748 10.5695 9.95944 11.0895C9.74407 11.6094 9.42839 12.0819 9.03043 12.4798C8.63247 12.8778 8.16002 13.1935 7.64005 13.4089C7.12009 13.6242 6.5628 13.7351 6 13.7351C5.4372 13.7351 4.87991 13.6242 4.35995 13.4089C3.83998 13.1935 3.36754 12.8778 2.96957 12.4798C2.57161 12.0819 2.25593 11.6094 2.04056 11.0895C1.82518 10.5695 1.71433 10.0122 1.71433 9.44941V6.87995C1.71743 6.76546 1.69755 6.6515 1.65587 6.54482C1.6142 6.43813 1.55157 6.34088 1.47168 6.25881C1.39179 6.17673 1.29627 6.11149 1.19075 6.06695C1.08523 6.0224 0.971858 5.99945 0.857322 5.99945C0.742786 5.99945 0.629412 6.0224 0.523893 6.06695C0.418374 6.11149 0.322851 6.17673 0.242964 6.25881C0.163077 6.34088 0.100446 6.43813 0.0587698 6.54482C0.0170935 6.6515 -0.00278304 6.76546 0.000313373 6.87995V9.44941C0.00217391 10.891 0.52285 12.2838 1.46714 13.3731C2.41143 14.4623 3.71624 15.1754 5.14299 15.3817V17.75C4.32547 17.8626 3.53888 18.1383 2.82988 18.5606C2.12088 18.9829 1.50391 19.5433 1.01556 20.2085C0.979317 20.261 0.958306 20.3225 0.95486 20.3862C0.951413 20.4498 0.965665 20.5132 0.996037 20.5693C1.02641 20.6254 1.07171 20.6719 1.12693 20.7038C1.18214 20.7357 1.24511 20.7517 1.30886 20.75H10.6692C10.733 20.7517 10.7959 20.7357 10.8511 20.7038C10.9064 20.6719 10.9517 20.6254 10.982 20.5693C11.0124 20.5132 11.0267 20.4498 11.0232 20.3862C11.0198 20.3225 10.9987 20.261 10.9625 20.2085C10.4742 19.5433 9.85718 18.9829 9.14818 18.5606C8.43919 18.1383 7.6526 17.8626 6.83507 17.75V15.3604H6.85701Z" fill="url(#paint1_linear)"/>
<defs>
<linearGradient id="paint0_linear" x1="2.91028" y1="6.16889" x2="9.09077" y2="6.16889" gradientUnits="userSpaceOnUse">
<stop stop-color="#D4FC79"/>
<stop offset="1" stop-color="#96E6A1"/>
</linearGradient>
<linearGradient id="paint1_linear" x1="0" y1="13.3748" x2="12" y2="13.3748" gradientUnits="userSpaceOnUse">
<stop stop-color="#D4FC79"/>
<stop offset="1" stop-color="#96E6A1"/>
</linearGradient>
</defs>
</svg>
