<svg width="79" height="80" viewBox="0 0 79 80" fill="none" xmlns="http://www.w3.org/2000/svg">
<rect width="79" height="80" rx="39.5" fill="#2D3135"/>
<path d="M17.2673 52.9986C17.1007 52.9994 16.9356 52.967 16.7815 52.9034C16.6274 52.8398 16.4874 52.7462 16.3696 52.628C16.2518 52.5099 16.1585 52.3695 16.095 52.215C16.0316 52.0605 15.9993 51.895 16 51.7279V50.2219C15.9998 49.5691 16.1476 48.9247 16.4323 48.3375C16.7171 47.7504 17.1312 47.2358 17.6435 46.8328C19.7644 45.1954 22.0446 43.7765 24.4493 42.5975C24.4851 42.5792 24.516 42.5526 24.5394 42.5199C24.5629 42.4872 24.5782 42.4494 24.5841 42.4096V40.5265C24.1423 39.7207 23.8409 38.8452 23.693 37.9377C23.4112 37.9377 23.0364 37.5145 22.6144 36.0545C22.0508 34.0781 22.6616 33.7956 23.1308 33.8429C22.7844 32.8755 22.7374 31.8257 22.9959 30.831C23.2521 29.8093 23.7888 28.8802 24.545 28.1489C24.9582 27.694 25.4318 27.2982 25.9526 26.9728C26.3812 26.6914 26.8375 26.455 27.3143 26.2671C27.7191 26.1126 28.1485 26.0329 28.5816 26.0319C29.6733 25.9097 30.7753 26.1404 31.727 26.6903C32.3617 27.0108 32.8973 27.4987 33.2761 28.1016C33.2761 28.1016 36.0454 28.2895 34.8252 34.1255C35.2014 34.2606 35.4818 34.7838 35.0126 36.2884C34.4963 38.1715 33.9799 38.2648 33.6981 38.0769C33.5872 38.7833 33.3656 39.4677 33.0415 40.1047V42.2676C33.0415 42.3623 33.0887 42.4556 33.1764 42.4556C33.5525 42.6435 34.8657 43.3032 36.5092 44.2914C36.4201 44.3391 36.3406 44.4028 36.2746 44.4793C35.4258 45.1543 34.7401 46.0129 34.2688 46.9909C33.7974 47.9689 33.5526 49.0411 33.5525 50.1273V51.7279C33.5689 52.157 33.6317 52.5831 33.7399 52.9986H17.2673ZM60.3565 46.8328C58.2356 45.1954 55.9554 43.7765 53.5507 42.5975C53.4563 42.5502 53.4159 42.5029 53.4159 42.4096V40.2466C53.7123 39.5985 53.9327 38.918 54.0724 38.2189C54.3542 38.4068 54.8706 38.3135 55.387 36.4304C55.809 34.8771 55.5744 34.3593 55.1996 34.2674C56.4197 28.4315 53.6505 28.2436 53.6505 28.2436C53.2716 27.6407 52.736 27.1528 52.1013 26.8322C51.1496 26.2823 50.0476 26.0517 48.9559 26.1739C48.5236 26.1835 48.0957 26.2629 47.6886 26.4091C47.2074 26.587 46.75 26.8241 46.3269 27.1148C45.8061 27.4402 45.3325 27.8359 44.9194 28.2909C44.1787 29.0345 43.6443 29.9589 43.3689 30.9729C43.1104 31.9676 43.1574 33.0174 43.5037 33.9849C42.9874 33.9375 42.4252 34.2201 42.9874 36.1965C43.4094 37.6551 43.7855 38.0323 44.0659 38.0796C44.1996 38.9907 44.5018 39.8687 44.9571 40.6684V42.5515C44.9571 42.6462 44.9099 42.7394 44.8223 42.7394C42.4283 43.9378 40.15 45.3557 38.0165 46.9748C37.5042 47.3778 37.09 47.8923 36.8053 48.4795C36.5206 49.0666 36.3727 49.711 36.373 50.3639V51.7292C36.3723 51.8963 36.4046 52.0619 36.468 52.2164C36.5314 52.3709 36.6248 52.5112 36.7426 52.6294C36.8604 52.7475 37.0004 52.8411 37.1545 52.9047C37.3086 52.9683 37.4737 53.0007 37.6403 53H60.7327C60.8993 53.0007 61.0644 52.9683 61.2185 52.9047C61.3726 52.8411 61.5126 52.7475 61.6304 52.6294C61.7482 52.5112 61.8415 52.3709 61.905 52.2164C61.9684 52.0619 62.0007 51.8963 62 51.7292V50.2219C62.0002 49.5691 61.8524 48.9247 61.5677 48.3375C61.2829 47.7504 60.8688 47.2358 60.3565 46.8328Z" fill="url(#paint0_linear)"/>
<defs>
<linearGradient id="paint0_linear" x1="16" y1="39.5" x2="62" y2="39.5" gradientUnits="userSpaceOnUse">
<stop stop-color="#A1C4FD"/>
<stop offset="1" stop-color="#C2E9FB"/>
</linearGradient>
</defs>
</svg>
