<svg width="107" height="107" viewBox="0 0 107 107" fill="none" xmlns="http://www.w3.org/2000/svg">
<rect width="107" height="107" rx="53.5" fill="#2D3135"/>
<path d="M40.4005 64.0202C41.7187 63.5639 42.8033 62.6052 43.4181 61.353C44.0329 60.1008 44.1281 58.6565 43.683 57.3344L43.2446 55.9644C50.1301 54.3171 57.3254 54.4871 64.1255 56.4575L63.687 57.6635C63.1887 58.9652 63.2267 60.4113 63.7926 61.685C64.3586 62.9587 65.4065 63.9561 66.7065 64.4586L72.4061 66.6508C73.7073 67.1498 75.1532 67.1127 76.4271 66.5477C77.701 65.9827 78.699 64.9358 79.2025 63.6364L79.5838 62.5956C80.066 61.34 80.2953 60.0015 80.2586 58.657C80.2219 57.3125 79.9198 55.9885 79.3697 54.7612C78.8196 53.5338 78.0324 52.4273 77.0532 51.5051C76.0741 50.583 74.9224 49.8635 73.6643 49.3879L73.5003 49.2786C71.5772 48.4193 69.5998 47.687 67.5808 47.0865H67.5262C58.5824 44.4405 49.0826 44.3086 40.0688 46.7052H40.0141C38.0965 47.1983 32.9992 49.0613 32.6154 49.2265C32.574 49.2323 32.5356 49.2515 32.5061 49.2812C30.3299 50.4047 28.6321 52.2757 27.7244 54.5504C26.8167 56.8251 26.7602 59.351 27.5652 61.6641L27.9464 62.7049C28.4015 64.0243 29.3595 65.1104 30.6119 65.7264C31.8642 66.3425 33.3093 66.4386 34.6322 65.9938L40.4005 64.0202Z" fill="url(#paint0_linear)"/>
<defs>
<linearGradient id="paint0_linear" x1="27" y1="56" x2="80.2624" y2="56" gradientUnits="userSpaceOnUse">
<stop stop-color="#FF8177"/>
<stop stop-color="#FF867A"/>
<stop offset="0.21" stop-color="#FF8C7F"/>
<stop offset="0.52" stop-color="#F99185"/>
<stop offset="0.78" stop-color="#CF556C"/>
<stop offset="1" stop-color="#B12A5B"/>
</linearGradient>
</defs>
</svg>
