<svg xmlns="http://www.w3.org/2000/svg" xmlns:xlink="http://www.w3.org/1999/xlink" width="58.581" height="68.119" viewBox="0 0 58.581 68.119"><defs><style>.a{fill:none;}.b{clip-path:url(#a);}.c{fill:#fff;}.d{fill:#1a1a1a;}.e{fill:#392914;}.f{fill:#fff1c8;}.g{fill:#725227;}.h{fill:#ffde0a;}</style><clipPath id="a"><rect class="a" width="58.581" height="68.119" rx="10"/></clipPath></defs><g class="b"><g transform="translate(-0.223 5.775)"><g transform="translate(17.096 26.118)"><path class="c" d="M142.817,111.237l.006-14.027,0-7.034L120.08,94.61l-.007,16.618,13.314,7.41Z" transform="translate(-119.867 -89.98)"/><path class="d" d="M133.217,118.657a.213.213,0,0,1-.1-.027l-13.314-7.41a.2.2,0,0,1-.1-.171l.008-16.618a.2.2,0,0,1,.164-.193l22.747-4.433a.214.214,0,0,1,.171.04.2.2,0,0,1,.076.152l-.01,21.061a.2.2,0,0,1-.076.153l-9.43,7.4A.212.212,0,0,1,133.217,118.657Zm-13.109-7.721,13.089,7.284,9.245-7.254.01-20.727-22.336,4.354Zm22.539.123h0Z" transform="translate(-119.697 -89.802)"/></g><g transform="translate(18.733 21.818)"><path class="e" d="M123.064,90.115,144.182,82l0,11.334a8.618,8.618,0,0,1-7.9,5.909C130.027,99.468,123.064,90.115,123.064,90.115Z" transform="translate(-122.859 -81.802)"/><path class="d" d="M135.877,99.266c-6.218,0-12.866-8.833-13.15-9.214a.191.191,0,0,1-.03-.17.2.2,0,0,1,.121-.128l21.118-8.116a.212.212,0,0,1,.191.02.2.2,0,0,1,.09.163l0,11.334a.192.192,0,0,1-.008.053,8.884,8.884,0,0,1-8.095,6.053C136.033,99.264,135.955,99.266,135.877,99.266Zm-12.66-9.24c1.061,1.358,7.333,9.051,12.878,8.842a8.452,8.452,0,0,0,7.707-5.741l0-11.013Z" transform="translate(-122.689 -81.624)"/></g><g transform="translate(14.281 18.38)"><path class="c" d="M118.031,75.476s-3.036-.248-3.1,1.3,3.1,1.667,3.1,1.667Z" transform="translate(-114.724 -75.264)"/><path class="d" d="M117.86,78.457h-.008c-.137-.005-3.368-.152-3.3-1.872a1.193,1.193,0,0,1,.443-.89,4.837,4.837,0,0,1,2.879-.593.2.2,0,0,1,.188.2l0,2.962A.192.192,0,0,1,118,78.4.21.21,0,0,1,117.86,78.457Zm-.451-2.977a3.7,3.7,0,0,0-2.138.51.809.809,0,0,0-.3.61c-.047,1.115,2.011,1.388,2.689,1.447l0-2.563C117.588,75.482,117.5,75.481,117.409,75.481Z" transform="translate(-114.555 -75.086)"/></g><g transform="translate(39.53 18.389)"><path class="c" d="M161.058,75.494s3.036-.246,3.1,1.3-3.1,1.665-3.1,1.665Z" transform="translate(-160.852 -75.282)"/><path class="d" d="M160.887,78.474a.213.213,0,0,1-.142-.055.193.193,0,0,1-.063-.142V75.315a.2.2,0,0,1,.188-.2,4.831,4.831,0,0,1,2.879.6,1.2,1.2,0,0,1,.443.891c.071,1.72-3.16,1.864-3.3,1.87Zm.206-2.972v2.563c.678-.059,2.736-.33,2.69-1.445a.811.811,0,0,0-.3-.61A4.084,4.084,0,0,0,161.094,75.5Z" transform="translate(-160.682 -75.103)"/></g><g transform="translate(17.105 8.963)"><path class="c" d="M122.408,60.381,120.093,66.3l0,8.762,12.2,6.669,8.095-2.588,2.444-6.416,0-10.366L137.7,57.549Z" transform="translate(-119.884 -57.352)"/><path class="d" d="M132.121,81.754a.216.216,0,0,1-.1-.026l-12.2-6.669a.2.2,0,0,1-.1-.171l0-8.761a.189.189,0,0,1,.013-.069l2.315-5.923a.2.2,0,0,1,.153-.124l15.289-2.832a.214.214,0,0,1,.182.053l5.137,4.815a.192.192,0,0,1,.062.141l0,10.366a.194.194,0,0,1-.013.068l-2.444,6.416a.2.2,0,0,1-.128.12l-8.1,2.588A.207.207,0,0,1,132.121,81.754Zm-12-6.981,12.018,6.569,7.914-2.53,2.4-6.294,0-10.248-5-4.685-15.07,2.791-2.262,5.785Z" transform="translate(-119.714 -57.175)"/></g><g transform="translate(34.535 22.497)"><path class="f" d="M155.23,83.29c-1.821,0-3.3.809-3.3,1.809s1.475,1.81,3.3,1.811a5.658,5.658,0,0,0,1.319-.151l.695-1.822V83.67A5.226,5.226,0,0,0,155.23,83.29Z" transform="translate(-151.727 -83.093)"/><path class="d" d="M155.062,86.929h0a5.15,5.15,0,0,1-2.433-.557,1.743,1.743,0,0,1-1.068-1.451c0-1.125,1.538-2.006,3.5-2.006h0a5.42,5.42,0,0,1,2.1.4.2.2,0,0,1,.122.18v1.267a.194.194,0,0,1-.013.068l-.695,1.822a.2.2,0,0,1-.143.124A5.876,5.876,0,0,1,155.062,86.929Zm0-3.62c-1.676,0-3.09.738-3.09,1.612a1.378,1.378,0,0,0,.862,1.109,4.726,4.726,0,0,0,2.229.505h0a5.5,5.5,0,0,0,1.162-.121l.644-1.69v-1.1a5.082,5.082,0,0,0-1.807-.313h0Z" transform="translate(-151.557 -82.915)"/></g><g transform="translate(17.105 22.489)"><path class="f" d="M121.718,83.275a5.506,5.506,0,0,0-1.627.237v3.146a5.5,5.5,0,0,0,1.627.238c1.821,0,3.3-.809,3.3-1.809S123.54,83.276,121.718,83.275Z" transform="translate(-119.885 -83.078)"/><path class="d" d="M121.55,86.914h0a5.759,5.759,0,0,1-1.691-.247.2.2,0,0,1-.142-.188V83.334a.2.2,0,0,1,.142-.188,5.74,5.74,0,0,1,1.688-.246h0c1.964,0,3.5.883,3.5,2.009S123.513,86.914,121.55,86.914Zm-1.424-.58a5.425,5.425,0,0,0,1.422.186h0c1.675,0,3.09-.738,3.09-1.612s-1.416-1.614-3.092-1.614h0a5.39,5.39,0,0,0-1.42.185Z" transform="translate(-119.715 -82.9)"/></g><g transform="translate(17.108 7.595)"><path class="e" d="M121,57.541a59.158,59.158,0,0,0-.9,9.378s1.031-6.293,5.142-7.032,12.2-.242,12.2-.242,5.138,2.717,5.392,8.147l0-6.664s.259-4.689-3.081-5.924S121,57.541,121,57.541Z" transform="translate(-119.89 -54.749)"/><path class="d" d="M142.664,67.814a.2.2,0,0,1-.205-.188c-.235-5.007-4.78-7.7-5.248-7.962-.672-.039-8.229-.455-12.106.241-3.92.7-4.967,6.808-4.977,6.869a.209.209,0,0,1-.219.166.2.2,0,0,1-.189-.2,59.811,59.811,0,0,1,.906-9.413.2.2,0,0,1,.154-.157c.632-.146,15.518-3.572,18.88-2.33,3.439,1.272,3.223,5.922,3.212,6.12l0,6.653a.2.2,0,0,1-.2.2Zm-11.1-8.7c3.024,0,5.67.159,5.716.162a.214.214,0,0,1,.086.024,11.639,11.639,0,0,1,5.089,6.043l0-4.387c0-.056.211-4.572-2.949-5.741-3.082-1.142-17,1.972-18.5,2.315a62.873,62.873,0,0,0-.832,7.395c.634-1.964,2.039-4.9,4.854-5.4A41.061,41.061,0,0,1,131.568,59.111Z" transform="translate(-119.72 -54.573)"/></g><g transform="translate(17.075 22.498)"><path class="g" d="M120.066,84.352s2.4,4.608,11.367,4.529,11.372-5.589,11.372-5.589.592,16.866-10.542,16.943-12.034-4.193-12.161-7.4S120.066,84.352,120.066,84.352Z" transform="translate(-119.829 -83.095)"/><path class="d" d="M131.806,100.255c-11.78,0-11.981-5.121-12.078-7.592-.126-3.177-.038-8.44-.037-8.492a.2.2,0,0,1,.159-.189.209.209,0,0,1,.229.1c.024.045,2.421,4.421,10.961,4.421h.221c8.719-.076,11.161-5.415,11.185-5.469a.206.206,0,0,1,.227-.117.2.2,0,0,1,.168.187c.014.4.29,9.863-4.427,14.583a8.7,8.7,0,0,1-6.318,2.564ZM120.092,84.83c-.019,1.513-.054,5.316.045,7.818.15,3.788,1.712,7.288,11.954,7.212a8.3,8.3,0,0,0,6.025-2.442c3.845-3.847,4.278-11.193,4.314-13.55-1,1.5-4.076,4.971-11.166,5.033C124.063,88.952,121.064,86.087,120.092,84.83Z" transform="translate(-119.66 -82.916)"/></g><path class="d" d="M134.966,80.5h-1.285a1.27,1.27,0,0,1-.943-.366,2.052,2.052,0,0,1-.46-1.4l0-6.818a1.065,1.065,0,0,0-.6-.791,4.117,4.117,0,0,0-2.191-.494h0a3.723,3.723,0,0,0-2.751.833.214.214,0,0,1-.289.025.191.191,0,0,1-.028-.276,4.012,4.012,0,0,1,3.067-.976h0a4.521,4.521,0,0,1,2.413.557,1.442,1.442,0,0,1,.789,1.122l0,6.829a1.7,1.7,0,0,0,.349,1.124.858.858,0,0,0,.644.242h1.285a.2.2,0,1,1,0,.394Z" transform="translate(-105.623 -54.403)"/><path class="d" d="M143.943,73.99h0a.2.2,0,0,1-.205-.2,1.446,1.446,0,0,1,.79-1.122,4.525,4.525,0,0,1,2.41-.555h0a4.011,4.011,0,0,1,3.07.979.192.192,0,0,1-.029.277.21.21,0,0,1-.288-.027,3.73,3.73,0,0,0-2.753-.834h0a4.108,4.108,0,0,0-2.187.492c-.444.274-.6.588-.6.79A.2.2,0,0,1,143.943,73.99Z" transform="translate(-113.483 -55.297)"/><g transform="translate(21.694 19.875)"><path class="e" d="M130.013,79.044a.771.771,0,1,1-.77-.741A.756.756,0,0,1,130.013,79.044Z" transform="translate(-128.267 -78.106)"/><path class="d" d="M129.073,79.8h0a.991.991,0,0,1-.69-.275.912.912,0,0,1,0-1.326.989.989,0,0,1,.69-.274h0a.993.993,0,0,1,.69.275.915.915,0,0,1,.285.663h0a.912.912,0,0,1-.286.663A.99.99,0,0,1,129.073,79.8Zm0-1.481a.575.575,0,0,0-.4.159.531.531,0,0,0-.166.384.556.556,0,0,0,.565.544h0a.572.572,0,0,0,.4-.159.527.527,0,0,0,.166-.384h0a.53.53,0,0,0-.165-.384.574.574,0,0,0-.4-.159Z" transform="translate(-128.097 -77.928)"/></g><g transform="translate(32.486 19.879)"><path class="e" d="M149.729,79.053a.771.771,0,1,1-.77-.741A.756.756,0,0,1,149.729,79.053Z" transform="translate(-147.983 -78.114)"/><path class="d" d="M148.789,79.812h0a.991.991,0,0,1-.69-.275.915.915,0,0,1-.285-.663.977.977,0,0,1,1.952,0h0a.912.912,0,0,1-.286.663A.988.988,0,0,1,148.789,79.812Zm0-1.481a.556.556,0,0,0-.566.543.529.529,0,0,0,.165.384.573.573,0,0,0,.4.159h0a.575.575,0,0,0,.4-.159.529.529,0,0,0,.166-.384h0A.556.556,0,0,0,148.79,78.33Z" transform="translate(-147.813 -77.936)"/></g><path class="d" d="M148,96.53a.2.2,0,0,1-.2-.17.2.2,0,0,1,.176-.222,6.9,6.9,0,0,0,3.556-1.578.211.211,0,0,1,.29-.018.192.192,0,0,1,.019.278,7.186,7.186,0,0,1-3.809,1.709Z" transform="translate(-115.32 -65.908)"/><g transform="translate(16.801)"><path class="g" d="M132.051,45.639s3.17-1.315,1.543-3.948c-1.8-2.908-10.448.078-12.591,3.121s-4.011,9.612,10.2,9.706,12.677-7.208,10.015-8.71C137.276,43.585,132.051,45.639,132.051,45.639Z" transform="translate(-119.327 -40.308)"/><path class="d" d="M131.305,54.538h-.276c-6.194-.041-10.015-1.3-11.357-3.753-1.387-2.532.408-5.432.992-6.261,1.6-2.271,6.666-4.495,10.041-4.39a3.309,3.309,0,0,1,2.9,1.279,2.606,2.606,0,0,1,.376,2.262,2.872,2.872,0,0,1-.8,1.179c1.84-.469,5.194-.965,7.977.606a3.987,3.987,0,0,1,1.707,4.451C142.357,51.646,140.191,54.538,131.305,54.538Zm-.81-14.014c-3.205,0-8.015,2.123-9.492,4.22-.551.783-2.25,3.519-.968,5.856,1.267,2.311,4.966,3.5,11,3.542h.276c8.611,0,10.684-2.71,11.152-4.337a3.634,3.634,0,0,0-1.518-4.007c-3.808-2.149-8.932-.176-8.982-.156a.208.208,0,0,1-.267-.106.194.194,0,0,1,.107-.258,3.479,3.479,0,0,0,1.787-1.729,2.245,2.245,0,0,0-.339-1.937,3.029,3.029,0,0,0-2.556-1.086Q130.6,40.524,130.5,40.524Z" transform="translate(-119.158 -40.129)"/></g><g transform="translate(0 43.467)"><path class="h" d="M105.908,123.172s2.069,6.007,11.432,6.01,11.336-6,11.336-6,18.756-.732,18.751,12.1l-.005,12.834-58.582-.024.006-12.834S89.392,123.166,105.908,123.172Z" transform="translate(-88.635 -122.975)"/><path class="d" d="M147.251,148.136h0l-58.581-.024a.2.2,0,0,1-.205-.2l.006-12.834c.005-.131.747-12.284,17.254-12.284a.215.215,0,0,1,.208.135c.021.059,2.144,5.872,11.238,5.876h.009c4.751,0,7.523-1.593,9.013-2.93a7.729,7.729,0,0,0,2.119-2.933.2.2,0,0,1,.188-.137c.1-.005,10.352-.345,15.707,4.6a10.048,10.048,0,0,1,3.257,7.7l-.006,12.834A.2.2,0,0,1,147.251,148.136Zm-58.376-.419,58.171.024.006-12.637a9.673,9.673,0,0,0-3.132-7.417c-4.9-4.52-14.045-4.515-15.27-4.49-.371.9-2.859,6-11.471,6h-.009c-4.9,0-7.8-1.665-9.367-3.06a8.5,8.5,0,0,1-2.208-2.951c-6.6.026-11.581,2.079-14.4,5.94a12.185,12.185,0,0,0-2.312,5.957Z" transform="translate(-88.465 -122.797)"/></g></g></g></svg>