<svg xmlns="http://www.w3.org/2000/svg" width="19.818" height="16.414" viewBox="0 0 19.818 16.414">
  <g id="Group_39936" data-name="Group 39936" transform="translate(-1649.793 -678.793)">
    <path id="Path_58955" data-name="Path 58955" d="M20.172,24.662,16.2,26.957v-2.2A1.363,1.363,0,0,0,14.837,23.4H5.258A1.363,1.363,0,0,0,3.9,24.758h0v7.476a1.363,1.363,0,0,0,1.358,1.358h9.561a1.363,1.363,0,0,0,1.358-1.358h0V30.016l4,2.295a.9.9,0,0,0,1.224-.325.888.888,0,0,0,.115-.44v-6.1a.9.9,0,0,0-.9-.9A.888.888,0,0,0,20.172,24.662Z" transform="translate(1648.1 658.621)" fill="#999"/>
    <line id="Line_718" data-name="Line 718" x1="15" y2="15" transform="translate(1650.5 679.5)" fill="none" stroke="#707070" stroke-linecap="round" stroke-width="1"/>
  </g>
</svg>
