<svg xmlns="http://www.w3.org/2000/svg" xmlns:xlink="http://www.w3.org/1999/xlink" width="153.456" height="184.667" viewBox="0 0 153.456 184.667"><defs><style>.a{fill:none;}.b{fill:#725227;}.c{fill:#1a1a1a;}.d{clip-path:url(#a);}.e{fill:#fff;}.f{fill:#392914;}.g{fill:#fff1c8;}.h{fill:#ffde0a;}</style><clipPath id="a"><rect class="a" width="152.367" height="177.174" rx="10"/></clipPath></defs><g transform="translate(0 143.206)"><path class="b" d="M226.97,174.266l-123.892-.052c-7.861,0-14.234-6.125-14.23-13.674l.067-13.049c0-7.549,6.38-13.666,14.242-13.663l123.891.052c7.863,0,14.234,6.125,14.231,13.674l-.067,13.049C241.209,168.152,234.831,174.269,226.97,174.266Z" transform="translate(-88.335 -133.317)"/><path class="c" d="M227.1,174.916h-.006l-123.858-.051c-8.143,0-14.764-6.368-14.759-14.188l.067-13.052A13.806,13.806,0,0,1,92.868,137.6a14.988,14.988,0,0,1,10.438-4.148h.006l123.856.051c8.143,0,14.764,6.367,14.761,14.186l-.067,13.051a13.808,13.808,0,0,1-4.33,10.024A14.985,14.985,0,0,1,227.1,174.916Zm-123.79-40.436c-7.552,0-13.7,5.9-13.7,13.149L89.54,160.68c0,7.252,6.139,13.156,13.692,13.16l123.858.051h.006a13.9,13.9,0,0,0,9.683-3.85,12.811,12.811,0,0,0,4.016-9.3l.067-13.052a12.821,12.821,0,0,0-4.008-9.3,13.9,13.9,0,0,0-9.685-3.857l-123.856-.051Z" transform="translate(-88.473 -133.454)"/></g><path class="a" d="M9.606,0H142.762a9.422,9.422,0,0,1,9.606,9.227v158.72a9.422,9.422,0,0,1-9.606,9.227H9.606A9.422,9.422,0,0,1,0,167.947V9.227A9.422,9.422,0,0,1,9.606,0Z" transform="translate(0.547 0.538)"/><g transform="translate(0.547 0.538)"><g class="d"><g transform="translate(-0.581 15.02)"><g transform="translate(44.465 67.932)"><path class="e" d="M179.23,144.955l.016-36.483.008-18.3-59.162,11.531-.019,43.223L154.7,164.2Z" transform="translate(-119.538 -89.664)"/><path class="c" d="M154.861,164.853a.553.553,0,0,1-.268-.07l-34.63-19.272a.512.512,0,0,1-.266-.444l.02-43.222a.519.519,0,0,1,.427-.5l59.163-11.53a.557.557,0,0,1,.444.105.506.506,0,0,1,.2.4l-.026,54.779a.506.506,0,0,1-.2.4L155.2,164.737A.551.551,0,0,1,154.861,164.853Zm-34.1-20.082,34.045,18.947,24.045-18.869.026-53.909-58.1,11.324Zm58.624.32h0Z" transform="translate(-119.697 -89.802)"/></g><g transform="translate(48.725 56.748)"><path class="f" d="M123.064,103.109,177.992,82l-.013,29.478s-4.315,14.784-20.56,15.37S123.064,103.109,123.064,103.109Z" transform="translate(-122.53 -81.486)"/><path class="c" d="M156.99,127.509c-16.172,0-33.464-22.974-34.2-23.964a.5.5,0,0,1-.078-.442.52.52,0,0,1,.315-.332l54.928-21.11a.551.551,0,0,1,.5.052.508.508,0,0,1,.235.424l-.013,29.478a.5.5,0,0,1-.02.138c-.044.152-4.61,15.15-21.054,15.744C157.4,127.5,157.192,127.509,156.99,127.509Zm-32.927-24.034c2.761,3.532,19.073,23.54,33.5,23,15.137-.547,19.711-13.888,20.046-14.933l.013-28.644Z" transform="translate(-122.689 -81.624)"/></g><g transform="translate(37.144 47.806)"><path class="e" d="M123,75.5s-7.9-.644-8.065,3.368,8.061,4.337,8.061,4.337Z" transform="translate(-114.396 -74.948)"/><path class="c" d="M123.151,83.855h-.021c-.357-.014-8.76-.4-8.572-4.869a3.1,3.1,0,0,1,1.153-2.315c2.294-1.942,7.278-1.559,7.489-1.543a.52.52,0,0,1,.49.51l0,7.7a.5.5,0,0,1-.164.369A.547.547,0,0,1,123.151,83.855Zm-1.173-7.742c-1.526,0-4.207.178-5.561,1.327a2.1,2.1,0,0,0-.793,1.586c-.121,2.9,5.229,3.609,6.993,3.764l0-6.666C122.445,76.117,122.226,76.113,121.978,76.113Z" transform="translate(-114.555 -75.086)"/></g><g transform="translate(102.815 47.83)"><path class="e" d="M161.06,75.517s7.9-.639,8.061,3.374-8.064,4.33-8.064,4.33Z" transform="translate(-160.523 -74.965)"/><path class="c" d="M161.216,83.872a.553.553,0,0,1-.37-.142.5.5,0,0,1-.164-.371l0-7.7a.52.52,0,0,1,.49-.51c.212-.018,5.2-.4,7.487,1.548a3.112,3.112,0,0,1,1.152,2.317c.185,4.473-8.219,4.849-8.576,4.863Zm.537-7.731,0,6.667c1.764-.153,7.117-.857,7-3.758a2.109,2.109,0,0,0-.792-1.588C166.383,76.126,163.011,76.1,161.753,76.141Z" transform="translate(-160.682 -75.103)"/></g><g transform="translate(44.489 23.311)"><path class="e" d="M126.121,64.915l-6.021,15.4-.01,22.789,31.736,17.345,21.054-6.731,6.356-16.688.012-26.961-13.36-12.523Z" transform="translate(-119.555 -57.038)"/><path class="c" d="M151.984,121.1a.563.563,0,0,1-.265-.067l-31.734-17.346a.51.51,0,0,1-.27-.446l.01-22.788a.491.491,0,0,1,.034-.181l6.022-15.4a.525.525,0,0,1,.4-.323l39.765-7.366a.556.556,0,0,1,.474.137l13.36,12.523a.5.5,0,0,1,.161.368l-.011,26.96a.5.5,0,0,1-.033.176l-6.357,16.687a.527.527,0,0,1-.332.312l-21.055,6.731A.539.539,0,0,1,151.984,121.1Zm-31.2-18.157,31.259,17.085,20.584-6.581,6.236-16.37.011-26.654-13-12.185-39.2,7.261L120.792,80.55Z" transform="translate(-119.714 -57.175)"/></g><g transform="translate(89.824 58.513)"><path class="g" d="M160.51,83.29c-4.737,0-8.578,2.1-8.578,4.7s3.837,4.709,8.573,4.711a14.718,14.718,0,0,0,3.431-.394l1.807-4.74V84.277A13.592,13.592,0,0,0,160.51,83.29Z" transform="translate(-151.398 -82.777)"/><path class="c" d="M160.673,93.356h-.008a13.4,13.4,0,0,1-6.328-1.45c-1.794-.985-2.78-2.325-2.779-3.775,0-2.927,4-5.217,9.1-5.217h.007a14.1,14.1,0,0,1,5.451,1.031.513.513,0,0,1,.318.469V87.71a.5.5,0,0,1-.033.176l-1.807,4.74a.523.523,0,0,1-.372.321A15.284,15.284,0,0,1,160.673,93.356Zm-.01-9.416c-4.358,0-8.037,1.919-8.038,4.192,0,1.065.794,2.09,2.241,2.884a12.292,12.292,0,0,0,5.8,1.314h.008a14.3,14.3,0,0,0,3.021-.316l1.674-4.4V84.756a13.217,13.217,0,0,0-4.7-.815h-.006Z" transform="translate(-151.557 -82.915)"/></g><g transform="translate(44.491 58.492)"><path class="g" d="M124.326,83.275a14.322,14.322,0,0,0-4.233.615l0,8.182a14.3,14.3,0,0,0,4.231.618c4.737,0,8.578-2.1,8.579-4.7S129.062,83.278,124.326,83.275Z" transform="translate(-119.556 -82.762)"/><path class="c" d="M124.487,93.341h-.006a14.981,14.981,0,0,1-4.4-.643.517.517,0,0,1-.369-.488l0-8.182a.515.515,0,0,1,.37-.488,14.931,14.931,0,0,1,4.391-.64h.006c5.108,0,9.109,2.3,9.109,5.224S129.593,93.341,124.487,93.341Zm-3.7-1.51a14.111,14.111,0,0,0,3.7.484h.006c4.357,0,8.037-1.919,8.038-4.192s-3.682-4.2-8.041-4.2h-.006a14.02,14.02,0,0,0-3.693.481Z" transform="translate(-119.715 -82.9)"/></g><g transform="translate(44.498 19.753)"><path class="f" d="M122.444,61.7A153.865,153.865,0,0,0,120.1,86.09s2.681-16.367,13.373-18.289,31.744-.629,31.744-.629,13.363,7.066,14.025,21.189l.007-17.333s.673-12.2-8.013-15.409S122.444,61.7,122.444,61.7Z" transform="translate(-119.561 -54.436)"/><path class="c" d="M179.4,89.011a.524.524,0,0,1-.534-.49C178.251,75.5,166.43,68.5,165.213,67.814c-1.748-.1-21.4-1.183-31.488.628-10.2,1.833-12.919,17.706-12.944,17.866a.543.543,0,0,1-.57.431.521.521,0,0,1-.491-.512,155.569,155.569,0,0,1,2.358-24.482.521.521,0,0,1,.4-.408c1.644-.38,40.362-9.29,49.1-6.06,8.945,3.31,8.383,15.4,8.354,15.917l-.007,17.3a.523.523,0,0,1-.522.513ZM150.537,66.377c7.866,0,14.748.413,14.868.421a.557.557,0,0,1,.224.062c.115.062,9.91,5.36,13.236,15.718l0-11.41c.007-.145.548-11.891-7.671-14.931-8.015-2.97-44.213,5.13-48.13,6.02A163.537,163.537,0,0,0,120.9,81.49c1.649-5.108,5.3-12.74,12.624-14.056A106.8,106.8,0,0,1,150.537,66.377Z" transform="translate(-119.72 -54.573)"/></g><g transform="translate(44.412 58.515)"><path class="b" d="M120.116,86.049s6.232,11.986,29.566,11.78S179.26,83.292,179.26,83.292s1.54,43.867-27.419,44.068-31.3-10.905-31.63-19.251S120.116,86.049,120.116,86.049Z" transform="translate(-119.501 -82.778)"/><path class="c" d="M151.252,128.013c-30.639,0-31.162-13.319-31.415-19.746-.329-8.264-.1-21.951-.1-22.088a.516.516,0,0,1,.414-.491.544.544,0,0,1,.6.269c.061.116,6.3,11.5,28.51,11.5.191,0,.38,0,.574,0,22.678-.2,29.029-14.083,29.09-14.224a.535.535,0,0,1,.589-.3.522.522,0,0,1,.437.487c.036,1.042.755,25.653-11.515,37.93A22.626,22.626,0,0,1,152,128.01C151.753,128.013,151.5,128.013,151.252,128.013ZM120.785,87.894c-.05,3.935-.14,13.826.118,20.333.39,9.853,4.453,18.955,31.092,18.758a21.578,21.578,0,0,0,15.671-6.351c10-10.005,11.126-29.113,11.222-35.244-2.6,3.9-10.6,12.929-29.042,13.09C131.112,98.614,123.312,91.162,120.785,87.894Z" transform="translate(-119.66 -82.916)"/></g><path class="c" d="M148.725,96.939h-3.341a3.3,3.3,0,0,1-2.452-.952,5.337,5.337,0,0,1-1.2-3.654l.006-17.733a2.769,2.769,0,0,0-1.563-2.057,10.707,10.707,0,0,0-5.7-1.285h-.009c-5.2,0-7.136,2.144-7.154,2.166a.555.555,0,0,1-.752.066.5.5,0,0,1-.073-.718c.088-.1,2.23-2.54,7.978-2.54h.009a11.76,11.76,0,0,1,6.276,1.45,3.75,3.75,0,0,1,2.053,2.918L142.8,92.359a4.428,4.428,0,0,0,.908,2.924,2.233,2.233,0,0,0,1.674.629h3.341a.513.513,0,1,1,0,1.026Z" transform="translate(-72.404 -29.065)"/><path class="c" d="M144.272,76.99h0a.524.524,0,0,1-.534-.513,3.761,3.761,0,0,1,2.056-2.918,11.77,11.77,0,0,1,6.267-1.443h.01c5.756,0,7.9,2.44,7.986,2.545a.5.5,0,0,1-.075.721.547.547,0,0,1-.749-.07c-.026-.029-1.966-2.169-7.161-2.17h-.01a10.684,10.684,0,0,0-5.689,1.28c-1.155.714-1.566,1.529-1.566,2.056A.524.524,0,0,1,144.272,76.99Z" transform="translate(-65.046 -28.372)"/><g transform="translate(56.424 51.693)"><path class="f" d="M132.481,80.23a2.006,2.006,0,1,1-2-1.927A1.966,1.966,0,0,1,132.481,80.23Z" transform="translate(-127.938 -77.79)"/><path class="c" d="M130.636,82.806h0a2.577,2.577,0,0,1-1.794-.715,2.371,2.371,0,0,1,0-3.449,2.572,2.572,0,0,1,1.794-.714h0a2.583,2.583,0,0,1,1.8.715,2.38,2.38,0,0,1,.742,1.725h0a2.373,2.373,0,0,1-.743,1.725A2.576,2.576,0,0,1,130.636,82.806Zm0-3.852a1.5,1.5,0,0,0-1.039.413,1.381,1.381,0,0,0-.431,1,1.445,1.445,0,0,0,1.469,1.414h0a1.489,1.489,0,0,0,1.039-.414,1.37,1.37,0,0,0,.431-1h0a1.38,1.38,0,0,0-.43-1,1.494,1.494,0,0,0-1.039-.414Z" transform="translate(-128.097 -77.928)"/></g><g transform="translate(84.494 51.704)"><path class="f" d="M152.2,80.239a2.006,2.006,0,1,1-2-1.927A1.966,1.966,0,0,1,152.2,80.239Z" transform="translate(-147.654 -77.798)"/><path class="c" d="M150.351,82.814h0a2.577,2.577,0,0,1-1.8-.715,2.38,2.38,0,0,1-.742-1.725,2.54,2.54,0,0,1,5.077,0h0a2.371,2.371,0,0,1-.745,1.723A2.569,2.569,0,0,1,150.351,82.814Zm0-3.852a1.446,1.446,0,0,0-1.472,1.413,1.375,1.375,0,0,0,.43,1,1.491,1.491,0,0,0,1.039.414h0a1.5,1.5,0,0,0,1.039-.413,1.375,1.375,0,0,0,.431-1h0A1.446,1.446,0,0,0,150.353,78.962Z" transform="translate(-147.813 -77.936)"/></g><path class="c" d="M148.331,99.794a.528.528,0,0,1-.528-.443.518.518,0,0,1,.457-.578c.063-.008,6.3-.87,9.25-4.105a.548.548,0,0,1,.753-.048.5.5,0,0,1,.05.723c-3.215,3.526-9.636,4.41-9.907,4.446A.443.443,0,0,1,148.331,99.794Z" transform="translate(-63.326 -20.147)"/><g transform="translate(43.697)"><path class="b" d="M152.094,53.858s8.245-3.42,4.013-10.269c-4.673-7.564-27.176.2-32.748,8.118s-10.433,25,26.521,25.244S182.853,58.2,175.929,54.3C165.684,48.515,152.094,53.858,152.094,53.858Z" transform="translate(-119 -39.991)"/><path class="c" d="M150.753,77.6l-.718,0c-16.109-.107-26.048-3.39-29.54-9.76-3.608-6.585,1.062-14.129,2.58-16.284,4.157-5.907,17.339-11.69,26.116-11.419,3.647.1,6.253,1.254,7.534,3.327a6.777,6.777,0,0,1,.977,5.883,7.471,7.471,0,0,1-2.093,3.067c4.786-1.22,13.509-2.51,20.748,1.575A10.37,10.37,0,0,1,180.8,65.57C179.5,70.084,173.864,77.6,150.753,77.6Zm-2.106-36.449c-8.337,0-20.847,5.522-24.688,10.976-1.434,2.036-5.851,9.152-2.519,15.231,3.294,6.011,12.917,9.111,28.6,9.213l.719,0c22.4,0,27.789-7.049,29-11.281a9.452,9.452,0,0,0-3.949-10.421c-9.9-5.591-23.23-.458-23.363-.4a.541.541,0,0,1-.693-.276.5.5,0,0,1,.279-.67c.036-.015,3.657-1.555,4.648-4.5a5.839,5.839,0,0,0-.881-5.038c-1.37-2.218-4.371-2.761-6.647-2.825Q148.906,41.156,148.647,41.156Z" transform="translate(-119.158 -40.129)"/></g><g transform="translate(0 113.055)"><path class="h" d="M133.232,123.172s5.38,15.623,29.735,15.633S192.452,123.2,192.452,123.2s48.784-1.905,48.77,31.475l-.014,33.381L88.84,187.99l.016-33.38S90.275,123.156,133.232,123.172Z" transform="translate(-88.306 -122.659)"/><path class="c" d="M241.366,188.7h0L89,188.641a.524.524,0,0,1-.534-.513l.016-33.38c.014-.342,1.942-31.951,44.876-31.951a.558.558,0,0,1,.541.351c.054.153,5.575,15.272,29.229,15.283h.023c12.356,0,19.567-4.144,23.441-7.621a20.1,20.1,0,0,0,5.511-7.63.532.532,0,0,1,.488-.357c.266-.014,26.925-.9,40.853,11.954,5.625,5.19,8.477,11.931,8.472,20.032l-.016,33.381A.524.524,0,0,1,241.366,188.7ZM89.533,187.615l151.3.063.016-32.868c0-7.812-2.736-14.3-8.145-19.292-12.741-11.756-36.531-11.742-39.717-11.678-.965,2.34-7.437,15.615-29.836,15.618h-.023c-12.755-.005-20.289-4.33-24.364-7.958a22.1,22.1,0,0,1-5.742-7.675c-17.174.068-30.121,5.407-37.46,15.451a31.693,31.693,0,0,0-6.014,15.495Z" transform="translate(-88.465 -122.797)"/></g></g></g></g><path class="e" d="M227.146,207l-8.594,0v-1.026l8.54,0ZM210.014,207l-8.54,0v-1.026l8.54,0Zm-17.078-.007-8.54,0v-1.026l8.54,0Zm-17.078-.007-8.54,0v-1.026l8.54,0Zm-17.079-.007-8.538,0v-1.026l8.538,0Zm-17.078-.007-8.538,0v-1.026l8.538,0Zm-17.078-.007-8.54,0v-1.026l8.54,0Zm-17.078-.007-4.31,0a15.317,15.317,0,0,1-4.322-.62l.313-.981a14.167,14.167,0,0,0,4.009.574l4.31,0Zm127.93-2.455-.606-.844a13.244,13.244,0,0,0,5.014-6.106l1,.369A14.278,14.278,0,0,1,235.475,204.5ZM91.7,201.615a13.775,13.775,0,0,1-3.187-7.8l1.065-.074a12.781,12.781,0,0,0,2.956,7.237Zm150.165-11.973H240.8l0-8.2h1.067ZM89.544,185.57H88.477l0-8.205h1.067Zm152.328-12.338h-1.067l0-8.2h1.067ZM89.552,169.161H88.484l0-8.205h1.067ZM241.88,156.823h-1.067l0-8.2h1.068ZM89.559,152.751H88.491l0-8.205h1.067Zm152.328-12.338h-1.067l0-8.2h1.068ZM89.566,136.342H88.5l0-8.205H89.57ZM241.9,124h-1.068l0-8.205H241.9ZM89.574,119.932H88.507l0-8.205h1.067ZM241.9,107.594h-1.067l0-8.205h1.067ZM89.58,103.521H88.513l0-8.2h1.068ZM241.908,91.184h-1.067l0-8.205h1.067ZM89.589,87.112H88.521l0-8.2h1.067ZM241.917,74.775h-1.067l0-8.205h1.068ZM89.6,70.7H88.528l0-8.2H89.6ZM241.924,58.365h-1.067l0-8.205h1.067ZM89.6,54.293H88.535l0-8.2h1.067ZM240.824,42a12.8,12.8,0,0,0-2.97-7.233l.833-.643a13.8,13.8,0,0,1,3.2,7.8ZM90.529,38.182l-.995-.371a14.272,14.272,0,0,1,5.418-6.571l.6.845A13.247,13.247,0,0,0,90.529,38.182ZM231.154,30.4a14.215,14.215,0,0,0-3.984-.568h-4.338V28.8h4.338a15.348,15.348,0,0,1,4.294.611Zm-16.86-.573-8.54,0V28.8l8.54,0Zm-17.078-.007-8.54,0V28.787l8.54,0Zm-17.079-.007-8.538,0V28.78l8.538,0ZM163.058,29.8l-8.538,0V28.774l8.538,0ZM145.98,29.8l-8.538,0V28.767l8.538,0ZM128.9,29.79l-8.54,0V28.76l8.54,0Zm-17.078-.008-8.511,0-.027-1.026,8.538,0Z" transform="translate(-88.472 -28.753)"/></svg>