<svg xmlns="http://www.w3.org/2000/svg" xmlns:xlink="http://www.w3.org/1999/xlink" width="122" height="122" viewBox="0 0 122 122">
  <defs>
    <filter id="Rectangle_2232" x="0" y="0" width="122" height="122" filterUnits="userSpaceOnUse">
      <feOffset dy="3" input="SourceAlpha"/>
      <feGaussianBlur stdDeviation="3" result="blur"/>
      <feFlood flood-opacity="0.161"/>
      <feComposite operator="in" in2="blur"/>
      <feComposite in="SourceGraphic"/>
    </filter>
  </defs>
  <g id="Group_40050" data-name="Group 40050" transform="translate(-2773 -1222)">
    <g id="Group_40044" data-name="Group 40044">
      <g id="Component_57" data-name="Component 57" transform="translate(2904 999)">
        <g transform="matrix(1, 0, 0, 1, -131, 223)" filter="url(#Rectangle_2232)">
          <rect id="Rectangle_2232-2" data-name="Rectangle 2232" width="104" height="104" rx="52" transform="translate(9 6)" fill="#4a5055" opacity="0.27"/>
        </g>
      </g>
    </g>
    <path id="Path_59237" data-name="Path 59237" d="M53.4,27.239,41.3,34.218V27.53a4.145,4.145,0,0,0-4.13-4.13H8.03A4.145,4.145,0,0,0,3.9,27.53h0V50.271A4.145,4.145,0,0,0,8.03,54.4H37.111a4.145,4.145,0,0,0,4.13-4.13h0V43.524L53.4,50.5a2.733,2.733,0,0,0,3.722-.989,2.7,2.7,0,0,0,.349-1.338V29.623a2.73,2.73,0,0,0-2.734-2.734A2.7,2.7,0,0,0,53.4,27.239Z" transform="translate(2803.1 1240.6)" fill="#6a15ff"/>
  </g>
</svg>
