<svg xmlns="http://www.w3.org/2000/svg" xmlns:xlink="http://www.w3.org/1999/xlink" width="122" height="122" viewBox="0 0 122 122">
  <defs>
    <filter id="Rectangle_2232" x="0" y="0" width="122" height="122" filterUnits="userSpaceOnUse">
      <feOffset dy="3" input="SourceAlpha"/>
      <feGaussianBlur stdDeviation="3" result="blur"/>
      <feFlood flood-opacity="0.161"/>
      <feComposite operator="in" in2="blur"/>
      <feComposite in="SourceGraphic"/>
    </filter>
  </defs>
  <g id="Group_40045" data-name="Group 40045" transform="translate(-3009 -1222)">
    <g id="Component_55" data-name="Component 55" transform="translate(3140 999)">
      <g transform="matrix(1, 0, 0, 1, -131, 223)" filter="url(#Rectangle_2232)">
        <rect id="Rectangle_2232-2" data-name="Rectangle 2232" width="104" height="104" rx="52" transform="translate(9 6)" fill="#4a5055" opacity="0.27"/>
      </g>
    </g>
    <g id="Group_40041" data-name="Group 40041" transform="translate(3034 1234.127)">
      <path id="Path_58950" data-name="Path 58950" d="M18.818,56.989A6.894,6.894,0,0,0,23.1,48.273l-.572-1.786a53.269,53.269,0,0,1,27.22.643L49.182,48.7a6.865,6.865,0,0,0,3.929,8.859l7.43,2.858A6.865,6.865,0,0,0,69.4,56.489l.5-1.357a13.306,13.306,0,0,0-7.716-17.218l-.214-.143a62.789,62.789,0,0,0-7.716-2.858h-.071a66.2,66.2,0,0,0-35.793-.5h-.071c-2.5.643-9.145,3.072-9.645,3.286a.249.249,0,0,0-.143.071h0A13.261,13.261,0,0,0,2.1,53.917l.5,1.357a6.894,6.894,0,0,0,8.716,4.287Z" transform="translate(0)" fill="#ff1414"/>
    </g>
  </g>
</svg>
