<svg xmlns="http://www.w3.org/2000/svg" xmlns:xlink="http://www.w3.org/1999/xlink" width="122" height="122" viewBox="0 0 122 122">
  <defs>
    <filter id="Rectangle_2232" x="0" y="0" width="122" height="122" filterUnits="userSpaceOnUse">
      <feOffset dy="3" input="SourceAlpha"/>
      <feGaussianBlur stdDeviation="3" result="blur"/>
      <feFlood flood-opacity="0.161"/>
      <feComposite operator="in" in2="blur"/>
      <feComposite in="SourceGraphic"/>
    </filter>
  </defs>
  <g id="Group_40048" data-name="Group 40048" transform="translate(-3469 -1222)">
    <g id="Group_40046" data-name="Group 40046">
      <g id="Component_53" data-name="Component 53" transform="translate(3600 999)">
        <g transform="matrix(1, 0, 0, 1, -131, 223)" filter="url(#Rectangle_2232)">
          <rect id="Rectangle_2232-2" data-name="Rectangle 2232" width="104" height="104" rx="52" transform="translate(9 6)" fill="#4a5055" opacity="0.27"/>
        </g>
      </g>
    </g>
    <g id="Chat_Bubble" data-name="Chat Bubble" transform="translate(3509 1259)">
      <path id="Path_58951" data-name="Path 58951" d="M17.709,30.447a1.391,1.391,0,0,1,.983-.408H39.559a1.391,1.391,0,0,0,1.391-1.391V6.391A1.391,1.391,0,0,0,39.559,5H3.391A1.391,1.391,0,0,0,2,6.391V28.648a1.391,1.391,0,0,0,1.391,1.391h6.955a1.391,1.391,0,0,1,1.391,1.391v4.988Z" fill="#1f3abe"/>
    </g>
  </g>
</svg>
