<svg xmlns="http://www.w3.org/2000/svg" xmlns:xlink="http://www.w3.org/1999/xlink" width="122" height="122" viewBox="0 0 122 122">
  <defs>
    <filter id="Rectangle_2232" x="0" y="0" width="122" height="122" filterUnits="userSpaceOnUse">
      <feOffset dy="3" input="SourceAlpha"/>
      <feGaussianBlur stdDeviation="3" result="blur"/>
      <feFlood flood-opacity="0.161"/>
      <feComposite operator="in" in2="blur"/>
      <feComposite in="SourceGraphic"/>
    </filter>
  </defs>
  <g id="Group_40047" data-name="Group 40047" transform="translate(-3585 -1222)">
    <g id="Component_54" data-name="Component 54" transform="translate(3716 999)">
      <g transform="matrix(1, 0, 0, 1, -131, 223)" filter="url(#Rectangle_2232)">
        <rect id="Rectangle_2232-2" data-name="Rectangle 2232" width="104" height="104" rx="52" transform="translate(9 6)" fill="#4a5055" opacity="0.27"/>
      </g>
    </g>
    <path id="Path_59236" data-name="Path 59236" d="M2.459,52.336A1.453,1.453,0,0,1,1,50.877V49.148a4.943,4.943,0,0,1,1.891-3.891,45.87,45.87,0,0,1,7.836-4.864.29.29,0,0,0,.162-.216V38.015a9.278,9.278,0,0,1-1.027-2.972c-.324,0-.757-.486-1.243-2.162-.648-2.27.054-2.594.594-2.54a5.861,5.861,0,0,1-.162-3.459,6.47,6.47,0,0,1,1.783-3.08,7.7,7.7,0,0,1,1.621-1.351,8.611,8.611,0,0,1,1.567-.811h0a4.126,4.126,0,0,1,1.459-.27,5.934,5.934,0,0,1,3.621.757,4.5,4.5,0,0,1,1.783,1.621s3.188.216,1.783,6.917c.432.162.757.757.216,2.486-.594,2.162-1.189,2.27-1.513,2.054a7.791,7.791,0,0,1-.757,2.324v2.486c0,.108.054.216.162.216.432.216,1.945.973,3.837,2.108a.949.949,0,0,0-.27.216,8.278,8.278,0,0,0-3.134,6.485v1.837a6.8,6.8,0,0,0,.216,1.459Zm49.61-7.079a45.87,45.87,0,0,0-7.836-4.864c-.108-.054-.162-.108-.162-.216V37.691a10.565,10.565,0,0,0,.757-2.324c.324.216.919.108,1.513-2.054.486-1.783.216-2.378-.216-2.486,1.405-6.7-1.783-6.917-1.783-6.917a4.5,4.5,0,0,0-1.783-1.621,5.934,5.934,0,0,0-3.621-.757,4.633,4.633,0,0,0-1.459.27h0a7.149,7.149,0,0,0-1.567.811,7.7,7.7,0,0,0-1.621,1.351,6.939,6.939,0,0,0-1.783,3.08,5.861,5.861,0,0,0,.162,3.459c-.594-.054-1.243.27-.594,2.54.486,1.675.919,2.108,1.243,2.162a8.486,8.486,0,0,0,1.027,2.972v2.162c0,.108-.054.216-.162.216a49.965,49.965,0,0,0-7.836,4.864,4.943,4.943,0,0,0-1.891,3.891v1.567a1.453,1.453,0,0,0,1.459,1.459H52.5a1.453,1.453,0,0,0,1.459-1.459V49.148A4.943,4.943,0,0,0,52.069,45.257Z" transform="translate(3619 1242.664)" fill="#0df"/>
  </g>
</svg>
