<svg width="90" height="61" viewBox="0 0 90 61" fill="none" xmlns="http://www.w3.org/2000/svg">
<path d="M28.6429 34.9805L22.0244 38.2671L22.7328 44.9237L22.9943 44.9874L22.7328 38.2482L28.7129 35.3891L28.6429 34.9805Z" fill="url(#paint0_radial)"/>
<path d="M38.8859 35.6328H38.1013L34.8398 38.0899L35.259 44.2096L35.8207 44.2544V38.2752L38.8859 35.6328Z" fill="url(#paint1_radial)"/>
<path d="M25.3502 12.2031H29.709V11.2651H25.3502V12.2031Z" fill="#451533"/>
<path d="M29.2492 11.2578L29.0132 10.6836H26.1407L25.9312 11.2578H29.2492Z" fill="#451533"/>
<path d="M28.2221 10.8243L27.7883 7.22461H27.1323L26.6587 10.8243H28.2221Z" fill="#451533"/>
<path d="M27.3989 7.57538H27.5586V0H27.4375L27.3989 7.57538Z" fill="#451533"/>
<path d="M29.0771 11.188L28.943 10.8242H27.9668L28.0242 11.188H29.0771Z" fill="white"/>
<path d="M27.698 7.31836L28.1 10.5605H27.7936L27.5576 7.31836H27.698Z" fill="white"/>
<path d="M27.9344 11.188L27.8707 10.8242H27.5898L27.6154 11.188H27.9344Z" fill="white"/>
<path opacity="0.53" d="M27.2517 7.32046L27.092 10.5605H26.7412L27.1817 7.31836L27.2517 7.32046Z" fill="#3B1544"/>
<path opacity="0.53" d="M26.9945 10.7656H26.2178L26.0137 11.1848H26.9945V10.7656Z" fill="#3B1544"/>
<path d="M27.5516 2.26562H27.4259L27.4175 3.51638H27.5516V2.26562Z" fill="url(#paint2_linear)"/>
<path d="M26.2559 10.823H26.377V6.9043H26.2877L26.2559 10.823Z" fill="#451533"/>
<path d="M28.6431 10.8243H28.7642V5.29102H28.6749L28.6431 10.8243Z" fill="#451533"/>
<path d="M28.7645 7.48633H28.6689L28.6626 8.69894H28.7649L28.7645 7.48633Z" fill="url(#paint3_linear)"/>
<path d="M29.4854 11.4102H27.7622V12.106H29.4854V11.4102Z" fill="white"/>
<path d="M53.2906 9.84766H52.812L52.48 11.9283L52.6204 11.8646L53.2906 9.84766Z" fill="#451533"/>
<path d="M45.5109 8.39258H45.1407L45.1089 10.4795L45.2493 10.4158L45.5109 8.39258Z" fill="#451533"/>
<path opacity="0.28" d="M44.5918 60.9997C69.2191 60.9997 89.1835 60.5368 89.1835 59.9657C89.1835 59.3946 69.2191 58.9316 44.5918 58.9316C19.9644 58.9316 0 59.3946 0 59.9657C0 60.5368 19.9644 60.9997 44.5918 60.9997Z" fill="#610431"/>
<path d="M48.5869 57.6829L48.6892 45.6532C51.692 45.1859 54.7489 45.1859 57.7517 45.6532C60.7193 45.9214 63.0553 48.9976 63.0553 52.7566C63.0595 53.799 62.8712 54.8332 62.4999 55.8072C61.683 57.9449 60.0298 59.5024 58.0326 59.8151C56.1179 60.3575 51.5675 60.2682 48.5425 59.8151L48.5869 57.6829Z" fill="url(#paint4_radial)"/>
<path opacity="0.25" d="M48.5674 59.8317C51.5924 60.2656 56.1428 60.3553 58.0575 59.8317C60.0233 59.5191 61.676 57.9619 62.5248 55.8238C60.9622 55.7871 59.4205 55.4558 57.9808 54.8472C56.825 54.3529 55.7744 53.6425 54.8853 52.7539L51.9047 55.0836L48.5795 57.6823L48.5674 59.8317Z" fill="#88003B"/>
<path d="M49.1676 59.8696C52.3328 59.8696 54.8987 56.6808 54.8987 52.7473C54.8987 48.8138 52.3328 45.625 49.1676 45.625C46.0024 45.625 43.4365 48.8138 43.4365 52.7473C43.4365 56.6808 46.0024 59.8696 49.1676 59.8696Z" fill="#FFF5CE"/>
<path d="M43.96 52.7554C43.96 56.3296 46.2896 59.2268 49.168 59.2268C49.8427 59.212 50.5064 59.0522 51.1139 58.7582C51.7214 58.4642 52.2586 58.0429 52.6889 57.5229C53.7517 56.2549 54.3439 54.6588 54.3655 53.0044C54.3655 52.9206 54.3655 52.8376 54.3655 52.7554V52.4038C54.2443 49.6466 52.7379 47.3429 50.6958 46.5897C50.2058 46.4063 49.6873 46.3113 49.1642 46.3088C46.2896 46.2774 43.96 49.1763 43.96 52.7554Z" fill="url(#paint5_linear)"/>
<path opacity="0.54" d="M43.96 52.755C43.96 56.3291 46.2896 59.2263 49.168 59.2263C49.8427 59.2115 50.5064 59.0517 51.1139 58.7577C51.7214 58.4637 52.2586 58.0424 52.6889 57.5224C50.7742 57.1842 48.9873 54.6303 49.3193 51.0767C49.6831 47.2473 50.6979 46.5582 50.6979 46.5582C50.2079 46.3748 49.6894 46.2798 49.1663 46.2773C46.2896 46.2769 43.96 49.1745 43.96 52.755Z" fill="url(#paint6_linear)"/>
<path d="M49.3022 52.4023V53.0022H54.3698V52.4023H49.3022Z" fill="#0F1132"/>
<path d="M51.5099 55.677C52.888 55.677 54.0051 54.2855 54.0051 52.569C54.0051 50.8525 52.888 49.4609 51.5099 49.4609C50.1318 49.4609 49.0146 50.8525 49.0146 52.569C49.0146 54.2855 50.1318 55.677 51.5099 55.677Z" fill="#0F1132"/>
<path d="M51.2159 55.677C52.594 55.677 53.7112 54.2855 53.7112 52.569C53.7112 50.8525 52.594 49.4609 51.2159 49.4609C49.8379 49.4609 48.7207 50.8525 48.7207 52.569C48.7207 54.2855 49.8379 55.677 51.2159 55.677Z" fill="#2EFFA6"/>
<path d="M48.9062 52.5715C48.9062 54.0842 49.8892 55.3094 51.1081 55.3094H51.2166C52.3844 55.2327 53.3099 54.0331 53.3099 52.5715C53.3099 51.1099 52.3844 49.9103 51.2166 49.8399H51.1081C49.8892 49.8336 48.9062 51.0596 48.9062 52.5715Z" fill="#0F1132"/>
<path d="M49.1421 52.5715C49.1421 54.0331 50.0676 55.2327 51.2353 55.3094C52.4031 55.2327 53.3286 54.0331 53.3286 52.5715C53.3286 51.1099 52.4031 49.9103 51.2353 49.8398C50.0483 49.9103 49.1421 51.1099 49.1421 52.5715Z" fill="url(#paint7_linear)"/>
<path d="M62.9341 54.2159H60.0176L58.7669 51.5229L54.7715 51.2932V51.1523L58.8561 51.395L60.1199 54.0357L62.9534 54.1057L62.9341 54.2159Z" fill="#2EFFA6"/>
<path d="M59.0788 59.5327H56.3962L55.8685 58.0137H53.022L52.9009 58.1478L55.7599 58.1097L56.3216 59.6475H58.7527L59.0788 59.5327Z" fill="#2EFFA6"/>
<path d="M50.0036 45.7027L56.6263 45.6834L59.3361 47.2536L61.1934 47.4963L61.0211 47.311L59.381 47.1388L56.6279 45.5938L49.167 45.6319L50.0036 45.7027Z" fill="#2EFFA6"/>
<path opacity="0.35" d="M52.9011 58.1475L55.7602 58.1094L56.3219 59.6477H58.753L58.3954 59.7499L56.1425 59.7181L55.6445 58.2376L52.7725 58.2825L52.9011 58.1475Z" fill="#0C107F"/>
<path opacity="0.35" d="M62.8946 54.4396L59.9332 54.3373L58.6251 51.6631L54.8086 51.5164L54.7705 51.293L58.7659 51.5227L60.0166 54.2157H62.9331L62.8946 54.4396Z" fill="#0C107F"/>
<path opacity="0.35" d="M50.4574 45.8114L56.5523 45.754L59.2709 47.3942L61.2493 47.5618L61.1919 47.4981L59.3346 47.2554L56.629 45.6836L50.0063 45.7029L50.4574 45.8114Z" fill="#0C107F"/>
<path d="M64.2799 57.6829L64.3822 45.6532C67.3871 45.1859 70.4461 45.1859 73.451 45.6532C76.4123 45.9214 78.7483 48.9976 78.7483 52.7566C78.7514 53.7983 78.5655 54.8319 78.1996 55.8072C77.3827 57.9449 75.7295 59.5025 73.7323 59.8152C71.8176 60.3575 67.2672 60.2683 64.2422 59.8152L64.2799 57.6829Z" fill="url(#paint8_radial)"/>
<path opacity="0.25" d="M64.2612 59.834C67.2863 60.2678 71.8366 60.3575 73.7513 59.834C75.7213 59.5213 77.3762 57.9641 78.2187 55.826C76.654 55.7894 75.1102 55.4581 73.6683 54.8494C72.5276 54.3572 71.4903 53.6535 70.6114 52.7754L67.6245 55.1051L64.2994 57.7038L64.2612 59.834Z" fill="#88003B"/>
<path d="M64.861 59.8696C68.0262 59.8696 70.5921 56.6808 70.5921 52.7473C70.5921 48.8138 68.0262 45.625 64.861 45.625C61.6958 45.625 59.1299 48.8138 59.1299 52.7473C59.1299 56.6808 61.6958 59.8696 64.861 59.8696Z" fill="#FFF5CE"/>
<path d="M59.6533 52.7554C59.6533 56.3295 61.983 59.2267 64.8613 59.2267C65.5364 59.2136 66.2006 59.0545 66.8084 58.7604C67.4162 58.4663 67.9531 58.0441 68.3822 57.5228C69.4448 56.2541 70.0397 54.6591 70.0672 53.0044V52.4041C69.9524 49.6469 68.4463 47.3433 66.3975 46.5582C65.9076 46.3749 65.389 46.2798 64.8659 46.2773C61.983 46.2773 59.6533 49.175 59.6533 52.7554Z" fill="url(#paint9_linear)"/>
<path opacity="0.54" d="M59.6533 52.755C59.6533 56.3291 61.983 59.2263 64.8613 59.2263C65.5364 59.2132 66.2006 59.0541 66.8084 58.76C67.4162 58.4659 67.9531 58.0437 68.3822 57.5224C66.4675 57.1842 64.6807 54.6303 65.0126 51.0767C65.3765 47.2473 66.3912 46.5582 66.3912 46.5582C65.9013 46.3749 65.3827 46.2798 64.8596 46.2773C61.983 46.2769 59.6533 49.1745 59.6533 52.755Z" fill="url(#paint10_linear)"/>
<path d="M64.9951 52.4023V53.0022H70.1008V52.4023H64.9951Z" fill="#0F1132"/>
<path d="M67.2101 55.677C68.5881 55.677 69.7053 54.2855 69.7053 52.569C69.7053 50.8525 68.5881 49.4609 67.2101 49.4609C65.832 49.4609 64.7148 50.8525 64.7148 52.569C64.7148 54.2855 65.832 55.677 67.2101 55.677Z" fill="#0F1132"/>
<path d="M64.4141 52.569C64.4141 54.2875 65.5311 55.677 66.9093 55.677C68.2875 55.677 69.4112 54.2858 69.4112 52.569C69.4112 50.8521 68.2879 49.4609 66.9093 49.4609C65.5307 49.4609 64.4141 50.8521 64.4141 52.569Z" fill="#2EFFA6"/>
<path d="M64.6001 52.5715C64.6001 54.0842 65.583 55.3094 66.8019 55.3094H66.9168C68.0782 55.2327 69.0037 54.0331 69.0037 52.5715C69.0037 51.1099 68.0782 49.9103 66.9168 49.8399H66.8019C65.583 49.8336 64.6001 51.0596 64.6001 52.5715Z" fill="#0F1132"/>
<path d="M64.8228 52.5715C64.8228 54.0331 65.7482 55.2327 66.9097 55.3094C68.0712 55.2327 68.9967 54.0331 68.9967 52.5715C68.9967 51.1099 68.0712 49.9103 66.9097 49.8398C65.7353 49.9103 64.8228 51.1099 64.8228 52.5715Z" fill="url(#paint11_linear)"/>
<path d="M78.6276 54.2159H75.7111L74.4604 51.5229L70.4717 51.2932V51.1523L74.5496 51.395L75.8197 54.0357L78.6469 54.1057L78.6276 54.2159Z" fill="#2EFFA6"/>
<path d="M74.78 59.5327H72.0995L71.5634 58.0137H68.7232L68.6021 58.1478L71.4611 58.1097L72.0165 59.6475H74.4476L74.78 59.5327Z" fill="#2EFFA6"/>
<path d="M65.7036 45.7023L72.3262 45.683L75.026 47.2532L76.8895 47.4959L76.711 47.3106L75.0708 47.1383L72.3266 45.5938L64.8594 45.6319L65.7036 45.7023Z" fill="#2EFFA6"/>
<path opacity="0.35" d="M68.6015 58.1475L71.4605 58.1094L72.0159 59.6477H74.447L74.0895 59.7499L71.8428 59.7181L71.3398 58.2376L68.4678 58.2825L68.6015 58.1475Z" fill="#0C107F"/>
<path opacity="0.35" d="M78.5897 54.4389L75.6346 54.3366L74.3197 51.6624L70.505 51.5144L70.4731 51.291L74.4618 51.5207L75.7126 54.2138H78.6291L78.5897 54.4389Z" fill="#0C107F"/>
<path opacity="0.35" d="M66.1571 45.8098L72.2457 45.7523L74.9702 47.3925L76.9402 47.5601L76.8891 47.4964L75.0255 47.2537L72.3258 45.6836L65.7031 45.7029L66.1571 45.8098Z" fill="#0C107F"/>
<path d="M32.8232 7.09766L31.3428 9.84815H31.5788L33.0403 7.2825L32.8232 7.09766Z" fill="#451533"/>
<path opacity="0.42" d="M66.3739 20.8442L63.2323 28.49L44.6411 28.029L47.3489 18.834L66.3739 20.8442Z" fill="#1A2023"/>
<path d="M44.643 28.0293L40.9858 30.1863L59.2899 30.5564L63.2341 28.4887L44.643 28.0293Z" fill="url(#paint12_linear)"/>
<path opacity="0.55" d="M66.3738 20.8436L55.275 11.3854L37.769 8.27734L47.3484 18.8333L66.3738 20.8436Z" fill="#1A2023"/>
<path opacity="0.55" d="M37.7691 8.27734L25.3692 10.7407L18.6934 22.42L26.0135 34.0994H41.3545L40.9844 30.187L44.6432 28.03L47.3493 18.8333L37.7691 8.27734Z" fill="#1A2023"/>
<path d="M59.2899 30.5576V33.7679L41.3547 34.0999L40.9858 30.1875L59.2899 30.5576Z" fill="url(#paint13_radial)"/>
<path opacity="0.95" d="M41.3308 33.1795L25.7328 33.6137L22.8481 28.5973L44.6442 28.0293L40.9871 30.1863L41.3308 33.1795Z" fill="#33373B"/>
<path d="M50.7572 9.84852V7.66557L39.4673 5.45117V8.04993L50.7572 9.84852Z" fill="#592E49"/>
<path d="M44.3491 34.9353L50.2014 39.1474L51.2547 52.8625H51.5804L51.8356 38.203L45.996 34.9336L44.3491 34.9353Z" fill="#0F0022"/>
<path d="M55.2563 34.7559L64.2615 40.054L66.2654 52.8629L66.7634 52.7544L65.5126 39.32L56.9028 34.7559H55.2563Z" fill="#0F0022"/>
<path d="M41.0559 34.9941L37.7945 38.6576L36.3693 50.2476L35.9359 50.2283L35.8228 38.2744L39.5754 35.0386L41.0559 34.9941Z" fill="#0F0022"/>
<path d="M32.3764 34.879L24.5583 38.8358L23.8307 50.3936L23.2053 50.2595L22.7329 38.2486L30.8892 34.3555L32.3764 34.879Z" fill="#0F0022"/>
<path d="M38.8159 5.45117H39.4669V8.04993L38.8159 7.92418V5.45117Z" fill="#451533"/>
<path d="M50.2589 9.43954V7.83753L40.0156 5.83984V7.77382L50.2589 9.43954Z" fill="#2EFFA6"/>
<path d="M51.8862 9.84678L52.3649 7.63867L55.7793 8.48956L54.9687 10.3657L51.8862 9.84678Z" fill="#592E49"/>
<path d="M52.3654 7.63867H51.8867L51.561 9.71936L51.8867 9.8451L52.3654 7.63867Z" fill="#451533"/>
<path d="M54.7981 10.1488L55.532 8.62982L52.6461 7.92773L52.1851 9.69573L54.7981 10.1488Z" fill="#2EFFA6"/>
<path d="M34.2588 9.00444V2.03516H34.1888L34.0933 9.03504L34.2588 9.00444Z" fill="#451533"/>
<path d="M33.2766 7.4604C34.6745 8.48146 36.2526 8.69858 36.7975 7.94536C37.3424 7.19214 36.6654 5.75612 35.2671 4.75434C33.8688 3.75256 32.2865 3.51615 31.7379 4.26937C31.1892 5.0226 31.9106 6.43934 33.2766 7.4604Z" fill="#595C7E"/>
<path d="M57.7963 33.7945L56.455 35.5688L27.11 35.671L26.7524 33.6172L57.7963 33.7945Z" fill="#0F0022"/>
<path d="M33.4616 7.20533C34.8595 8.22639 36.4422 8.44351 36.9909 7.69029C37.5395 6.93707 36.8504 5.49476 35.4526 4.49927C34.0547 3.50377 32.4766 3.2418 31.9107 3.99628C31.3448 4.75076 32.0641 6.18427 33.4616 7.20533Z" fill="url(#paint14_linear)"/>
<path d="M33.4545 7.07063C34.7694 8.03469 36.2561 8.2384 36.7733 7.5317C37.2906 6.82501 36.6392 5.4703 35.3247 4.51379C34.0103 3.55728 32.5487 3.35231 32.0134 4.06068C31.4782 4.76905 32.1463 6.11328 33.4545 7.07063Z" fill="url(#paint15_linear)"/>
<path d="M44.6425 28.03L47.3486 18.8333L37.7692 8.27734H37.6016L47.004 18.7759L47.0296 19.1205L44.6425 28.03Z" fill="white"/>
<path d="M10.5811 57.4403L10.6896 44.4909C12.4576 44.0441 17.6141 43.9041 20.4559 44.4909C23.6469 44.7843 26.1615 48.0957 26.1615 52.1493C26.1664 53.2719 25.9653 54.3859 25.5679 55.4359C24.6877 57.7413 22.9067 59.4179 20.7896 59.7503C18.7282 60.3371 13.8316 60.2415 10.5781 59.7503L10.5811 57.4403Z" fill="url(#paint16_radial)"/>
<path opacity="0.25" d="M10.5625 59.7682C13.8239 60.2339 18.7188 60.3299 20.7739 59.7682C22.8928 59.4363 24.6721 57.7563 25.5523 55.4539C23.8692 55.4165 22.2083 55.0609 20.6574 54.406C19.4284 53.8733 18.3111 53.1133 17.3641 52.166L14.1731 54.6809L10.5835 57.439L10.5625 59.7682Z" fill="url(#paint17_linear)"/>
<path d="M11.2074 59.8067C14.6122 59.8067 17.3723 56.375 17.3723 52.1416C17.3723 47.9083 14.6122 44.4766 11.2074 44.4766C7.80261 44.4766 5.04248 47.9083 5.04248 52.1416C5.04248 56.375 7.80261 59.8067 11.2074 59.8067Z" fill="#451533"/>
<path d="M5.60352 52.1431C5.60352 55.9725 8.11174 59.1187 11.2072 59.1187C11.9343 59.1043 12.6497 58.9325 13.3041 58.6152C13.9585 58.2979 14.5364 57.8426 14.998 57.2807C16.1463 55.9183 16.7868 54.2001 16.8105 52.4185V51.773C16.6847 48.797 15.0617 46.324 12.8536 45.4739C12.327 45.277 11.7695 45.1753 11.2072 45.1738C8.11174 45.1738 5.60352 48.2949 5.60352 52.1431Z" fill="url(#paint18_linear)"/>
<path opacity="0.54" d="M5.60352 52.1435C5.60352 55.9729 8.11174 59.1191 11.2072 59.1191C11.9343 59.1047 12.6497 58.9329 13.3041 58.6156C13.9585 58.2983 14.5364 57.8431 14.998 57.2811C12.9366 56.9173 11.0161 54.1668 11.3732 50.3437C11.7689 46.2402 12.8536 45.4739 12.8536 45.4739C12.327 45.277 11.7695 45.1753 11.2072 45.1738C8.11174 45.1742 5.60352 48.2953 5.60352 52.1435Z" fill="url(#paint19_linear)"/>
<path d="M11.3535 51.7719V52.4103H16.8101V51.7656L11.3535 51.7719Z" fill="#0F1132"/>
<path d="M13.7337 55.2935C15.2175 55.2935 16.4204 53.7963 16.4204 51.9495C16.4204 50.1026 15.2175 48.6055 13.7337 48.6055C12.2498 48.6055 11.0469 50.1026 11.0469 51.9495C11.0469 53.7963 12.2498 55.2935 13.7337 55.2935Z" fill="#0F1132"/>
<path d="M13.4153 55.2935C14.8992 55.2935 16.1021 53.7963 16.1021 51.9495C16.1021 50.1026 14.8992 48.6055 13.4153 48.6055C11.9314 48.6055 10.7285 50.1026 10.7285 51.9495C10.7285 53.7963 11.9314 55.2935 13.4153 55.2935Z" fill="#2EFFA6"/>
<path d="M10.9263 51.944C10.9263 53.5716 11.9859 54.8923 13.3004 54.8923H13.4026C14.679 54.8085 15.6493 53.52 15.6493 51.944C15.6493 50.368 14.6794 49.0849 13.4026 49.002H13.2815C11.9859 49.0015 10.9263 50.3227 10.9263 51.944Z" fill="#0F1132"/>
<path d="M11.1626 51.944C11.1626 53.5204 12.1581 54.8098 13.4156 54.8923C14.6919 54.8085 15.6622 53.52 15.6622 51.944C15.6622 50.368 14.6793 49.0849 13.403 49.002C12.1581 49.0845 11.1626 50.3738 11.1626 51.944Z" fill="url(#paint20_linear)"/>
<path d="M26.0263 53.7176H22.8948L21.5481 50.8199L17.2446 50.571V50.418L21.6357 50.6795L23.0013 53.526L26.0519 53.6027L26.0263 53.7176Z" fill="#2EFFA6"/>
<path d="M21.885 59.4433H19L18.4257 57.8086H15.3626L15.2368 57.9553L18.313 57.9042L18.9128 59.5699H21.5296L21.885 59.4433Z" fill="#2EFFA6"/>
<path d="M12.1137 44.5526L19.2427 44.5271L22.1529 46.2246L24.1569 46.4862L23.9716 46.2821L22.2036 46.0968L19.2427 44.4395L11.2075 44.4776L12.1137 44.5526Z" fill="#2EFFA6"/>
<path d="M17.1103 47.7131C16.3014 46.6351 15.2807 45.7338 14.1108 45.0645L21.5525 45.173C22.7175 45.8213 23.6907 46.7658 24.3734 47.9109L17.1103 47.7131Z" fill="white"/>
<path d="M17.3789 48.2676H24.3738L24.6483 48.9382H17.6216L17.3789 48.2676Z" fill="white"/>
<path opacity="0.35" d="M15.2342 57.9574L18.3104 57.9062L18.9102 59.5703H21.5278L21.1447 59.6726L18.7258 59.6407L18.1897 58.045L15.0942 58.0961L15.2342 57.9574Z" fill="#0C107F"/>
<path opacity="0.35" d="M25.9882 53.9541L22.8026 53.8519L21.3922 50.9673L17.2828 50.8063L17.2446 50.5703L21.546 50.8193L22.8948 53.7177H26.0284L25.9882 53.9541Z" fill="#0C107F"/>
<path opacity="0.35" d="M12.5982 44.6673L19.1588 44.6036L22.0883 46.3716L24.2134 46.5502L24.1559 46.4865L22.152 46.2249L19.2418 44.5273L12.1128 44.5529L12.5982 44.6673Z" fill="#0C107F"/>
<path d="M27.4814 57.4403L27.59 44.4909C29.358 44.0441 34.5144 43.9041 37.3563 44.4909C40.5473 44.7843 43.0618 48.0957 43.0618 52.1493C43.0668 53.2719 42.8657 54.3859 42.4683 55.4359C41.5881 57.7413 39.8071 59.4179 37.69 59.7503C35.6286 60.3371 30.727 60.2415 27.4785 59.7503L27.4814 57.4403Z" fill="url(#paint21_radial)"/>
<path opacity="0.25" d="M27.4429 59.7712C30.6976 60.2373 35.5992 60.3329 37.6543 59.7712C39.7731 59.4392 41.5525 57.7593 42.4327 55.4568C40.7475 55.4189 39.0845 55.0634 37.5311 54.4089C36.3129 53.8632 35.2074 53.0946 34.2717 52.1426L31.0807 54.6575L27.481 57.4403L27.4429 59.7712Z" fill="#88003B"/>
<path d="M28.1063 59.8067C31.5111 59.8067 34.2713 56.375 34.2713 52.1416C34.2713 47.9083 31.5111 44.4766 28.1063 44.4766C24.7015 44.4766 21.9414 47.9083 21.9414 52.1416C21.9414 56.375 24.7015 59.8067 28.1063 59.8067Z" fill="#FFF5CE"/>
<path d="M22.4971 52.1423C22.4971 55.9717 25.012 59.1179 28.107 59.1179C28.8364 59.1053 29.5542 58.9345 30.211 58.6171C30.8678 58.2998 31.4478 57.8435 31.9109 57.2799C33.0591 55.9175 33.6996 54.1993 33.7233 52.4177C33.7233 52.3284 33.7233 52.2324 33.7233 52.1432V51.773C33.5975 48.797 31.9683 46.324 29.7665 45.474C29.2275 45.2731 28.6566 45.1715 28.0815 45.1739C25.0116 45.173 22.4971 48.2941 22.4971 52.1423Z" fill="url(#paint22_linear)"/>
<path opacity="0.54" d="M22.4971 52.1436C22.4971 55.973 25.012 59.1191 28.107 59.1191C28.8364 59.1066 29.5542 58.9357 30.211 58.6184C30.8678 58.301 31.4478 57.8448 31.9109 57.2812C29.8495 56.9173 27.9289 54.1668 28.286 50.3437C28.6754 46.2402 29.7665 45.474 29.7665 45.474C29.2275 45.2731 28.6566 45.1715 28.0815 45.1739C25.0116 45.1743 22.4971 48.2953 22.4971 52.1436Z" fill="url(#paint23_linear)"/>
<path d="M28.2534 51.7719V52.4103H33.71V51.7656L28.2534 51.7719Z" fill="#0F1132"/>
<path d="M27.9409 51.9503C27.9409 53.7946 29.1472 55.2948 30.634 55.2948C32.1207 55.2948 33.3208 53.795 33.3208 51.9503C33.3208 50.1056 32.1207 48.5996 30.634 48.5996C29.1472 48.5996 27.9409 50.0993 27.9409 51.9503Z" fill="#0F1132"/>
<path d="M27.6279 51.9503C27.6279 53.7946 28.828 55.2948 30.3147 55.2948C31.8015 55.2948 33.0015 53.795 33.0015 51.9503C33.0015 50.1056 31.8019 48.5996 30.3147 48.5996C28.8276 48.5996 27.6279 50.0993 27.6279 51.9503Z" fill="#2EFFA6"/>
<path d="M27.8262 51.944C27.8262 53.5716 28.8858 54.8923 30.194 54.8923H30.3151C31.5914 54.8085 32.5681 53.52 32.5681 51.944C32.5681 50.368 31.5726 49.0849 30.3151 49.002H30.194C28.8858 49.0015 27.8262 50.3227 27.8262 51.944Z" fill="#0F1132"/>
<path d="M28.0811 51.944C28.0811 53.5204 29.0765 54.8098 30.334 54.8923C31.6103 54.8085 32.587 53.52 32.587 51.944C32.587 50.368 31.5915 49.0849 30.334 49.002C29.0577 49.0845 28.0811 50.3738 28.0811 51.944Z" fill="url(#paint24_linear)"/>
<path d="M42.9262 53.7176H39.7926L38.4396 50.8199L34.1445 50.571V50.418L38.5356 50.6795L39.9012 53.526L42.9468 53.6035L42.9262 53.7176Z" fill="#2EFFA6"/>
<path d="M38.7835 59.4433H35.8914L35.3171 57.8086H32.2611L32.127 57.9553L35.2094 57.9042L35.8092 59.5699H38.426L38.7835 59.4433Z" fill="#2EFFA6"/>
<path d="M29.0118 44.5526L36.1408 44.5271L39.051 46.2246L41.055 46.4862L40.8697 46.2821L39.1017 46.0968L36.1416 44.4395L28.1064 44.4776L29.0118 44.5526Z" fill="#2EFFA6"/>
<path d="M34.0102 47.7131C33.1997 46.6366 32.1793 45.7355 31.0107 45.0645L38.4457 45.173C39.6131 45.8202 40.5887 46.7646 41.2733 47.9105L34.0102 47.7131Z" fill="white"/>
<path d="M34.2715 48.2676H41.2714L41.5459 48.9382H34.5205L34.2715 48.2676Z" fill="white"/>
<path opacity="0.35" d="M32.1279 57.9574L35.2086 57.9062L35.8101 59.5703H38.4269L38.0438 59.6726L35.6186 59.6407L35.0829 58.0467L31.9941 58.0978L32.1279 57.9574Z" fill="#0C107F"/>
<path opacity="0.35" d="M42.8881 53.9529L39.7025 53.8506L38.2942 50.966L34.1827 50.805L34.1445 50.5703L38.4396 50.8193L39.7926 53.7169H42.9262L42.8881 53.9529Z" fill="#0C107F"/>
<path opacity="0.35" d="M29.4981 44.6673L36.0587 44.6036L38.9882 46.3716L41.1133 46.5502L41.0558 46.4865L39.0519 46.2249L36.1417 44.5273L29.0127 44.5529L29.4981 44.6673Z" fill="#0C107F"/>
<path d="M59.0409 33.5684V30.8242H55.3774L55.4349 33.6133L59.0409 33.5684Z" fill="white"/>
<path d="M55.1218 30.8242H53.418L53.5856 33.5684L55.1239 33.5366L55.1218 30.8242Z" fill="white"/>
<path d="M51.2551 52.862H50.8071L49.7173 39.452L44.1006 35.5664L45.2813 35.6045L50.2018 39.1464L51.2551 52.862Z" fill="url(#paint25_radial)"/>
<path opacity="0.35" d="M44.7966 30.5566V33.3071L59.2905 33.7682L42.1802 33.6152L41.4521 30.5566H44.7966Z" fill="#9A313B"/>
<path d="M48.4848 18.2865L45.9829 15.702L48.5486 10.9727L51.4332 11.3918L60.6361 16.7402L63.9437 19.8755L48.4848 18.2865Z" fill="url(#paint26_linear)"/>
<path d="M48.3125 11.413L51.3568 11.7312L60.2919 17.1047L62.9213 19.7727L63.9424 19.8749L60.6356 16.7418L51.4335 11.3938L48.5489 10.9746L48.3125 11.413Z" fill="#0F0022"/>
<path opacity="0.35" d="M34.8398 38.0882L35.8228 38.2735L38.8864 35.6328H38.1013L34.8398 38.0882Z" fill="#9A313B"/>
<path opacity="0.35" d="M22.0244 38.2671L22.7328 38.2478L28.7129 35.3887L28.6429 34.9805L22.0244 38.2671Z" fill="#9A313B"/>
<path d="M66.2657 52.8636L65.8466 52.921L63.5601 40.4441L55.812 35.568H56.4567L56.5078 35.498L64.2622 40.0547L66.2657 52.8636Z" fill="url(#paint27_radial)"/>
<path d="M21.3098 13.4084L35.9886 11.5L41.9943 17.7479L37.2654 26.2236L19.9442 26.6256L16.8169 22.4261L21.3098 13.4084Z" fill="#54585B"/>
<path d="M19.9438 26.6257L21.7181 27.2L37.7692 26.8424L41.9943 19.0625V17.748L37.265 26.2234L19.9438 26.6257Z" fill="#0F0022"/>
<path d="M18.502 24.6855L32.8299 24.3347L36.4996 18.1567L32.1915 14.557L20.3718 15.2901L20.4418 15.156L32.2171 14.3848L36.7293 18.1572L33.0148 24.4864L18.6105 24.8309L18.502 24.6855Z" fill="#2EFFA6"/>
<path opacity="0.53" d="M18.5014 24.6851L32.8294 24.3343L36.4991 18.1572L32.191 14.5566L20.3708 15.2906L20.3197 15.4054L32.1583 14.7415L36.2451 18.1572L32.7413 24.1511L18.4062 24.5593L18.5014 24.6851Z" fill="#9A313B"/>
<path d="M19.0506 17.9529L30.9726 17.1934L33.0403 18.8335L31.3406 21.4939L16.8169 22.4265L19.0506 17.9529Z" fill="url(#paint28_radial)"/>
<path opacity="0.35" d="M18.9482 18.157L30.9721 17.3975L32.9505 18.9739L33.0398 18.8335L30.9721 17.1934L19.0505 17.9529L18.9482 18.157Z" fill="#9A313B"/>
<path d="M21.1948 13.6444L35.9373 11.7616L41.694 17.7479L37.2648 26.2236L41.9941 17.7483L35.9868 11.5L21.308 13.4084L21.1948 13.6444Z" fill="white"/>
<path opacity="0.55" d="M48.1782 28.1194L49.761 22.4395L57.7961 20.8438L63.9426 23.6647L62.1746 28.464L62.0489 28.4514L63.7339 23.8051L57.7961 21.0282L49.9077 22.5916L48.2868 28.1194H48.1782Z" fill="#2EFFA6"/>
<path opacity="0.53" d="M48.2871 28.1197L49.908 22.5927L57.7965 21.0293L63.7317 23.8054L62.0467 28.4517H61.9264L63.5858 23.9202L57.7902 21.189L50.0295 22.6632L48.402 28.126L48.2871 28.1197Z" fill="#9A313B"/>
<path d="M26.0139 34.0994L21.7188 27.2005L19.9445 26.6263L16.8172 22.4263L21.3101 13.4086L24.0418 13.0578L25.3692 10.7411L37.7699 8.27734L25.1907 10.6833L23.8758 12.8403L21.1953 13.1785L16.4727 22.6669L19.683 26.7579L21.5402 27.4285L26.0139 34.0994Z" fill="#FFFFD8"/>
<path d="M40.3857 8.74219L55.2741 11.3829L66.3725 20.8411L63.2339 28.4886L66.7631 20.8428L55.5114 11.1037L40.3857 8.74219Z" fill="#FFFFD8"/>
<defs>
<radialGradient id="paint0_radial" cx="0" cy="0" r="1" gradientUnits="userSpaceOnUse" gradientTransform="translate(25.3686 39.9839) scale(3.34423 5.00345)">
<stop stop-color="#EFEFA9"/>
<stop offset="1" stop-color="#57CBA1"/>
</radialGradient>
<radialGradient id="paint1_radial" cx="0" cy="0" r="1" gradientUnits="userSpaceOnUse" gradientTransform="translate(36.8629 39.9436) scale(2.02305 4.3108)">
<stop stop-color="#EFEFA9"/>
<stop offset="1" stop-color="#57CBA1"/>
</radialGradient>
<linearGradient id="paint2_linear" x1="454.577" y1="3.51638" x2="454.577" y2="2.26562" gradientUnits="userSpaceOnUse">
<stop stop-color="#EFEFA9"/>
<stop offset="1" stop-color="#7FE1A6"/>
</linearGradient>
<linearGradient id="paint3_linear" x1="453.68" y1="8.69894" x2="453.68" y2="7.48633" gradientUnits="userSpaceOnUse">
<stop stop-color="#EFEFA9"/>
<stop offset="1" stop-color="#7FE1A6"/>
</linearGradient>
<radialGradient id="paint4_radial" cx="0" cy="0" r="1" gradientUnits="userSpaceOnUse" gradientTransform="translate(55.7989 52.746) scale(7.25644 7.44323)">
<stop stop-color="#EFEFA9"/>
<stop offset="1" stop-color="#57CBA1"/>
</radialGradient>
<linearGradient id="paint5_linear" x1="49.1627" y1="46.3086" x2="49.1627" y2="59.2268" gradientUnits="userSpaceOnUse">
<stop stop-color="#1A2023"/>
<stop offset="1" stop-color="#4D5258"/>
</linearGradient>
<linearGradient id="paint6_linear" x1="48.3244" y1="46.2773" x2="48.3244" y2="59.2263" gradientUnits="userSpaceOnUse">
<stop stop-color="#1A2023"/>
<stop offset="1" stop-color="#4D5258"/>
</linearGradient>
<linearGradient id="paint7_linear" x1="51.2353" y1="49.8398" x2="51.2353" y2="55.3094" gradientUnits="userSpaceOnUse">
<stop stop-color="#1A2023"/>
<stop offset="1" stop-color="#4D5258"/>
</linearGradient>
<radialGradient id="paint8_radial" cx="0" cy="0" r="1" gradientUnits="userSpaceOnUse" gradientTransform="translate(71.4953 52.746) scale(7.25307 7.44324)">
<stop stop-color="#EFEFA9"/>
<stop offset="1" stop-color="#57CBA1"/>
</radialGradient>
<linearGradient id="paint9_linear" x1="64.8603" y1="46.2773" x2="64.8603" y2="59.2267" gradientUnits="userSpaceOnUse">
<stop stop-color="#1A2023"/>
<stop offset="1" stop-color="#4D5258"/>
</linearGradient>
<linearGradient id="paint10_linear" x1="64.0178" y1="46.2773" x2="64.0178" y2="59.2263" gradientUnits="userSpaceOnUse">
<stop stop-color="#1A2023"/>
<stop offset="1" stop-color="#4D5258"/>
</linearGradient>
<linearGradient id="paint11_linear" x1="66.9097" y1="49.8398" x2="66.9097" y2="55.3094" gradientUnits="userSpaceOnUse">
<stop stop-color="#1A2023"/>
<stop offset="1" stop-color="#4D5258"/>
</linearGradient>
<linearGradient id="paint12_linear" x1="52.11" y1="28.0293" x2="52.11" y2="30.5564" gradientUnits="userSpaceOnUse">
<stop stop-color="#1A2023"/>
<stop offset="1" stop-color="#4D5258"/>
</linearGradient>
<radialGradient id="paint13_radial" cx="0" cy="0" r="1" gradientUnits="userSpaceOnUse" gradientTransform="translate(50.1379 32.1437) scale(9.15203 1.95619)">
<stop stop-color="#EFEFA9"/>
<stop offset="1" stop-color="#57CBA1"/>
</radialGradient>
<linearGradient id="paint14_linear" x1="496.657" y1="-216.652" x2="500.026" y2="-218.393" gradientUnits="userSpaceOnUse">
<stop offset="0.03" stop-color="#FCF9DB"/>
<stop offset="0.45" stop-color="#659AAF"/>
</linearGradient>
<linearGradient id="paint15_linear" x1="444.688" y1="5.79551" x2="449.795" y2="5.79551" gradientUnits="userSpaceOnUse">
<stop offset="0.55" stop-color="#659AAF"/>
<stop offset="0.97" stop-color="#FCF9DB"/>
</linearGradient>
<radialGradient id="paint16_radial" cx="0" cy="0" r="1" gradientUnits="userSpaceOnUse" gradientTransform="translate(18.3698 52.1284) scale(7.79171 8.02688)">
<stop stop-color="#EFEFA9"/>
<stop offset="1" stop-color="#57CBA1"/>
</radialGradient>
<linearGradient id="paint17_linear" x1="18.0574" y1="52.166" x2="18.0574" y2="60.1543" gradientUnits="userSpaceOnUse">
<stop stop-color="#1A2023"/>
<stop offset="1" stop-color="#4D5258"/>
</linearGradient>
<linearGradient id="paint18_linear" x1="11.207" y1="45.1738" x2="11.207" y2="59.1187" gradientUnits="userSpaceOnUse">
<stop stop-color="#1A2023"/>
<stop offset="1" stop-color="#4D5258"/>
</linearGradient>
<linearGradient id="paint19_linear" x1="10.3008" y1="45.1738" x2="10.3008" y2="59.1191" gradientUnits="userSpaceOnUse">
<stop stop-color="#1A2023"/>
<stop offset="1" stop-color="#4D5258"/>
</linearGradient>
<linearGradient id="paint20_linear" x1="13.4124" y1="49.002" x2="13.4124" y2="54.8923" gradientUnits="userSpaceOnUse">
<stop stop-color="#1A2023"/>
<stop offset="1" stop-color="#4D5258"/>
</linearGradient>
<radialGradient id="paint21_radial" cx="0" cy="0" r="1" gradientUnits="userSpaceOnUse" gradientTransform="translate(35.2702 52.1284) scale(7.79171 8.02688)">
<stop stop-color="#EFEFA9"/>
<stop offset="1" stop-color="#57CBA1"/>
</radialGradient>
<linearGradient id="paint22_linear" x1="28.1102" y1="45.1738" x2="28.1102" y2="59.1179" gradientUnits="userSpaceOnUse">
<stop stop-color="#1A2023"/>
<stop offset="1" stop-color="#4D5258"/>
</linearGradient>
<linearGradient id="paint23_linear" x1="27.204" y1="45.1738" x2="27.204" y2="59.1191" gradientUnits="userSpaceOnUse">
<stop stop-color="#1A2023"/>
<stop offset="1" stop-color="#4D5258"/>
</linearGradient>
<linearGradient id="paint24_linear" x1="30.334" y1="49.002" x2="30.334" y2="54.8923" gradientUnits="userSpaceOnUse">
<stop stop-color="#1A2023"/>
<stop offset="1" stop-color="#4D5258"/>
</linearGradient>
<radialGradient id="paint25_radial" cx="0" cy="0" r="1" gradientUnits="userSpaceOnUse" gradientTransform="translate(93.4911 44.2142) scale(6.62305 6.62421)">
<stop offset="0.03" stop-color="#09635E"/>
<stop offset="1" stop-color="#222343"/>
</radialGradient>
<linearGradient id="paint26_linear" x1="54.9633" y1="10.9727" x2="54.9633" y2="19.8755" gradientUnits="userSpaceOnUse">
<stop stop-color="#A8FF78"/>
<stop offset="1" stop-color="#78FFD6"/>
</linearGradient>
<radialGradient id="paint27_radial" cx="0" cy="0" r="1" gradientUnits="userSpaceOnUse" gradientTransform="translate(88.8345 44.2095) scale(7.17966 7.17828)">
<stop offset="0.03" stop-color="#09635E"/>
<stop offset="1" stop-color="#222343"/>
</radialGradient>
<radialGradient id="paint28_radial" cx="0" cy="0" r="1" gradientUnits="userSpaceOnUse" gradientTransform="translate(24.9286 19.8099) scale(8.11169 2.61657)">
<stop stop-color="#EFEFA9"/>
<stop offset="1" stop-color="#57CBA1"/>
</radialGradient>
</defs>
</svg>
