<svg width="60" height="102" viewBox="0 0 60 102" fill="none" xmlns="http://www.w3.org/2000/svg">
<path d="M54.111 100.311H5.71777V102.001H54.111V100.311Z" fill="url(#paint0_linear)"/>
<path d="M47.4617 93.3887H11.4531V96.2181H47.4617V93.3887Z" fill="url(#paint1_radial)"/>
<path d="M17.4972 39.5673L0 54.8938L9.21123 93.3759L50.2194 93.5482L59.3593 54.8943L41.4765 39.4902L17.4972 39.5673Z" fill="url(#paint2_linear)"/>
<path d="M55.6824 100.309H4.44824L5.45679 96.2168H54.0338L55.6824 100.309Z" fill="url(#paint3_radial)"/>
<path opacity="0.65" d="M13.4048 43.1492L18.2805 86.8567H40.9261L45.2017 42.6985L42.9598 41.0332L15.9371 41.1222L13.4048 43.1492Z" fill="#314F74"/>
<path d="M38.7371 85.6771H20.0893L14.8696 29.6859L23.5058 27.5684H35.5579L44.0338 29.6859L38.7371 85.6771Z" fill="url(#paint4_radial)"/>
<path d="M23.5233 28.6309L24.5433 85.678H20.0891L15.9014 30.7187L23.5233 28.6309Z" fill="white"/>
<path d="M25.3862 30.1777H33.4291L32.3597 84.4844H26.4598L25.3862 30.1777Z" fill="url(#paint5_linear)"/>
<path opacity="0.35" d="M32.3597 84.4844L33.4291 30.1777H25.3862L26.4598 84.4844L26.8808 84.4548L25.9733 30.7606L32.8947 30.8126L32.0709 84.4844H32.3597Z" fill="#314F74"/>
<path opacity="0.35" d="M36.0382 28.457L34.3729 85.3023L20.0903 85.6759H37.9481L43.0315 30.177L36.0382 28.457Z" fill="#314F74"/>
<path d="M5.94922 99.877L6.61378 96.8066H16.246L15.9967 99.877H5.94922Z" fill="white"/>
<path d="M16.4595 99.877H20.2257V96.8066H16.7561L16.4595 99.877Z" fill="white"/>
<path opacity="0.35" d="M45.8665 96.6562L46.3645 99.2245L4.44824 100.31H54.3955L52.7942 96.6562H45.8665Z" fill="#314F74"/>
<path d="M5.54004 50.0431L13.9982 90.6188H45.3565L54.2591 50.4995L54.1108 50.3751L45.2082 90.3425H14.235L5.71802 49.8828L5.54004 50.0431Z" fill="url(#paint6_radial)"/>
<path opacity="0.65" d="M5.71777 49.882L14.2353 90.3385H45.2079L54.1105 50.3711L53.9149 50.1989L45.0679 90.2053H14.4783L6.01441 49.627L5.71777 49.882Z" fill="#314F74"/>
<path d="M1.00244 55.1301L7.89473 83.1551L10.9016 81.9275L4.8519 52.1289L1.00244 55.1301Z" fill="white"/>
<path d="M8.11426 83.8737L9.3112 88.7848L12.099 88.0562L10.9021 82.6055L8.11426 83.8737Z" fill="white"/>
<path d="M34.372 25.4512H24.5259V27.5687H34.372V25.4512Z" fill="url(#paint7_linear)"/>
<path d="M25.564 25.4511L26.1036 24.1465H32.5864L33.0729 25.4511H25.564Z" fill="url(#paint8_linear)"/>
<path d="M27.8887 24.4719L28.867 16.3223H30.3502L31.4238 24.4719H27.8887Z" fill="url(#paint9_linear)"/>
<path d="M29.7569 17.1292H29.3926V0H29.6595L29.7569 17.1292Z" fill="url(#paint10_linear)"/>
<path d="M25.9556 25.2793L26.2579 24.4727H28.4743L28.326 25.2793H25.9556Z" fill="white"/>
<path d="M29.0688 16.543L28.1675 23.8807H28.8492L29.3951 16.543H29.0688Z" fill="white"/>
<path d="M28.5469 25.2793L28.6895 24.4727H29.3181L29.2661 25.2793H28.5469Z" fill="white"/>
<path opacity="0.53" d="M30.0776 16.543L30.4336 23.8807H31.2402L30.2515 16.543H30.0776Z" fill="#3B1544"/>
<path opacity="0.53" d="M30.6587 24.3359H32.4203L32.8829 25.2789H30.6587V24.3359Z" fill="#3B1544"/>
<path d="M29.6682 1.0918H29.3955V3.09068H29.6682V1.0918Z" fill="url(#paint11_linear)"/>
<path d="M29.3955 5.125H29.6921L29.7041 7.95446H29.3955V5.125Z" fill="url(#paint12_linear)"/>
<path d="M29.7218 10.4629H29.3955V13.4641H29.7218V10.4629Z" fill="url(#paint13_linear)"/>
<path d="M32.3371 24.4708H32.0645V15.6035H32.2664L32.3371 24.4708Z" fill="url(#paint14_linear)"/>
<path d="M32.2721 16.4297H32.0645V17.9363H32.2721V16.4297Z" fill="url(#paint15_linear)"/>
<path d="M32.0645 19.4727H32.2898L32.3018 21.6063H32.0645V19.4727Z" fill="url(#paint16_linear)"/>
<path d="M26.9338 24.4719H26.6611V11.9629H26.8631L26.9338 24.4719Z" fill="url(#paint17_linear)"/>
<path d="M26.6611 16.9219H26.8865L26.8984 19.6561H26.6611V16.9219Z" fill="url(#paint18_linear)"/>
<path d="M28.9329 25.7891H25.0361V27.3607H28.9329V25.7891Z" fill="white"/>
<path d="M47.0649 46.2461L51.2704 49.8822L49.5384 58.3164L45.855 56.6178L47.0649 46.2461Z" fill="url(#paint19_radial)"/>
<path d="M10.7773 66.4302L14.3161 63.8203L17.258 85.7363L14.7434 86.1396L10.7773 66.4302Z" fill="url(#paint20_radial)"/>
<path d="M49.3121 92.0423H45.8774L48.772 80.0312H52.2774L49.3121 92.0423Z" fill="url(#paint21_radial)"/>
<path opacity="0.65" d="M48.7729 80.0304L45.8784 92.0414L48.4763 79.6094L52.7525 79.7816L49.3126 92.0414L52.2789 80.0304H48.7729Z" fill="#314F74"/>
<path opacity="0.65" d="M45.855 56.6204L47.0649 46.2476L51.2704 49.8837L49.4848 58.5672L51.8345 49.6303L46.7683 45.7012L45.855 56.6204Z" fill="#314F74"/>
<path opacity="0.65" d="M14.7457 86.1392L10.7776 66.4298L14.3164 63.8199L17.2582 85.7359L14.5204 62.877L10.2676 66.1155L14.7457 86.1392Z" fill="#314F74"/>
<defs>
<linearGradient id="paint0_linear" x1="29.9144" y1="100.311" x2="29.9144" y2="102.001" gradientUnits="userSpaceOnUse">
<stop stop-color="#1A2023"/>
<stop offset="1" stop-color="#4D5258"/>
</linearGradient>
<radialGradient id="paint1_radial" cx="0" cy="0" r="1" gradientUnits="userSpaceOnUse" gradientTransform="translate(13.1154 94.8006) scale(12.8409 12.7722)">
<stop stop-color="#EFEFA9"/>
<stop offset="1" stop-color="#57CBA1"/>
</radialGradient>
<linearGradient id="paint2_linear" x1="29.6797" y1="39.4902" x2="29.6797" y2="93.5482" gradientUnits="userSpaceOnUse">
<stop stop-color="#1A2023"/>
<stop offset="1" stop-color="#4D5258"/>
</linearGradient>
<radialGradient id="paint3_radial" cx="0" cy="0" r="1" gradientUnits="userSpaceOnUse" gradientTransform="translate(30.0653 98.263) scale(25.6171 2.04624)">
<stop stop-color="#EFEFA9"/>
<stop offset="1" stop-color="#57CBA1"/>
</radialGradient>
<radialGradient id="paint4_radial" cx="0" cy="0" r="1" gradientUnits="userSpaceOnUse" gradientTransform="translate(29.4517 56.6227) scale(14.5821 29.0544)">
<stop stop-color="#EFEFA9"/>
<stop offset="1" stop-color="#57CBA1"/>
</radialGradient>
<linearGradient id="paint5_linear" x1="29.4077" y1="30.1777" x2="29.4077" y2="84.4844" gradientUnits="userSpaceOnUse">
<stop stop-color="#1A2023"/>
<stop offset="1" stop-color="#4D5258"/>
</linearGradient>
<radialGradient id="paint6_radial" cx="0" cy="0" r="1" gradientUnits="userSpaceOnUse" gradientTransform="translate(25.1501 70.2508) scale(22.4418 22.4455)">
<stop stop-color="#EFEFA9"/>
<stop offset="1" stop-color="#57CBA1"/>
</radialGradient>
<linearGradient id="paint7_linear" x1="29.4489" y1="25.4512" x2="29.4489" y2="27.5687" gradientUnits="userSpaceOnUse">
<stop stop-color="#1A2023"/>
<stop offset="1" stop-color="#4D5258"/>
</linearGradient>
<linearGradient id="paint8_linear" x1="29.3185" y1="24.1465" x2="29.3185" y2="25.4511" gradientUnits="userSpaceOnUse">
<stop stop-color="#1A2023"/>
<stop offset="1" stop-color="#4D5258"/>
</linearGradient>
<linearGradient id="paint9_linear" x1="29.6562" y1="16.3223" x2="29.6562" y2="24.4719" gradientUnits="userSpaceOnUse">
<stop stop-color="#1A2023"/>
<stop offset="1" stop-color="#4D5258"/>
</linearGradient>
<linearGradient id="paint10_linear" x1="29.5747" y1="0" x2="29.5747" y2="17.1292" gradientUnits="userSpaceOnUse">
<stop stop-color="#1A2023"/>
<stop offset="1" stop-color="#4D5258"/>
</linearGradient>
<linearGradient id="paint11_linear" x1="29.5319" y1="3.09068" x2="29.5319" y2="1.0918" gradientUnits="userSpaceOnUse">
<stop stop-color="#EFEFA9"/>
<stop offset="1" stop-color="#7FE1A6"/>
</linearGradient>
<linearGradient id="paint12_linear" x1="29.5498" y1="7.95446" x2="29.5498" y2="5.125" gradientUnits="userSpaceOnUse">
<stop stop-color="#EFEFA9"/>
<stop offset="1" stop-color="#7FE1A6"/>
</linearGradient>
<linearGradient id="paint13_linear" x1="29.5616" y1="13.4641" x2="29.5616" y2="10.4629" gradientUnits="userSpaceOnUse">
<stop stop-color="#EFEFA9"/>
<stop offset="1" stop-color="#7FE1A6"/>
</linearGradient>
<linearGradient id="paint14_linear" x1="32.2008" y1="15.6035" x2="32.2008" y2="24.4708" gradientUnits="userSpaceOnUse">
<stop stop-color="#1A2023"/>
<stop offset="1" stop-color="#4D5258"/>
</linearGradient>
<linearGradient id="paint15_linear" x1="32.1712" y1="17.9363" x2="32.1712" y2="16.4297" gradientUnits="userSpaceOnUse">
<stop stop-color="#EFEFA9"/>
<stop offset="1" stop-color="#7FE1A6"/>
</linearGradient>
<linearGradient id="paint16_linear" x1="32.1831" y1="21.6063" x2="32.1831" y2="19.4727" gradientUnits="userSpaceOnUse">
<stop stop-color="#EFEFA9"/>
<stop offset="1" stop-color="#7FE1A6"/>
</linearGradient>
<linearGradient id="paint17_linear" x1="26.7975" y1="11.9629" x2="26.7975" y2="24.4719" gradientUnits="userSpaceOnUse">
<stop stop-color="#1A2023"/>
<stop offset="1" stop-color="#4D5258"/>
</linearGradient>
<linearGradient id="paint18_linear" x1="26.7798" y1="19.6561" x2="26.7798" y2="16.9219" gradientUnits="userSpaceOnUse">
<stop stop-color="#EFEFA9"/>
<stop offset="1" stop-color="#7FE1A6"/>
</linearGradient>
<radialGradient id="paint19_radial" cx="0" cy="0" r="1" gradientUnits="userSpaceOnUse" gradientTransform="translate(101.005 52.2813) scale(4.68349 4.68329)">
<stop stop-color="#EFEFA9"/>
<stop offset="1" stop-color="#57CBA1"/>
</radialGradient>
<radialGradient id="paint20_radial" cx="0" cy="0" r="1" gradientUnits="userSpaceOnUse" gradientTransform="translate(44.3989 74.9799) scale(8.21113 8.21349)">
<stop stop-color="#EFEFA9"/>
<stop offset="1" stop-color="#57CBA1"/>
</radialGradient>
<radialGradient id="paint21_radial" cx="0" cy="0" r="1" gradientUnits="userSpaceOnUse" gradientTransform="translate(86.9578 86.0368) scale(4.80511 4.80441)">
<stop stop-color="#EFEFA9"/>
<stop offset="1" stop-color="#57CBA1"/>
</radialGradient>
</defs>
</svg>
