<svg xmlns="http://www.w3.org/2000/svg" xmlns:xlink="http://www.w3.org/1999/xlink" width="133.839" height="146.274" viewBox="0 0 133.839 146.274"><defs><style>.a{fill:#ffffd8;}.b,.e{fill:url(#a);}.c,.t{fill:#1a2023;}.d{fill:#9a313b;}.d,.e,.u{opacity:0.35;}.f{fill:#27061b;}.g{fill:#54585b;}.h,.r{fill:url(#d);}.i{fill:url(#e);}.j{fill:#fff;}.k{fill:url(#f);}.l{fill:url(#g);}.m{fill:url(#h);}.n{fill:url(#i);}.o{fill:#ffffea;}.p,.u{fill:url(#j);}.q{fill:#451533;}.r,.t{opacity:0.65;}.s{fill:#4d5258;}.v{fill:#610431;opacity:0.28;}</style><linearGradient id="a" x1="0.5" x2="0.5" y2="1" gradientUnits="objectBoundingBox"><stop offset="0.03" stop-color="#fcf9db"/><stop offset="0.45" stop-color="#659aaf"/><stop offset="0.65" stop-color="#669cb0"/><stop offset="0.75" stop-color="#6ba4b1"/><stop offset="0.83" stop-color="#74b1b5"/><stop offset="0.89" stop-color="#80c4b9"/><stop offset="0.95" stop-color="#8fdcbf"/><stop offset="1" stop-color="#a0f6c6"/></linearGradient><linearGradient id="d" x1="0.5" x2="0.5" y2="1" gradientUnits="objectBoundingBox"><stop offset="0" stop-color="#1a2023"/><stop offset="1" stop-color="#4d5258"/></linearGradient><linearGradient id="e" x1="-1.369" y1="3.687" x2="-0.347" y2="3.687" gradientUnits="objectBoundingBox"><stop offset="0" stop-color="#7ccc7e"/><stop offset="0.1" stop-color="#68aa69"/><stop offset="0.27" stop-color="#487749"/><stop offset="0.43" stop-color="#2e4c2f"/><stop offset="0.59" stop-color="#1a2b1b"/><stop offset="0.74" stop-color="#0c130c"/><stop offset="0.88" stop-color="#030503"/><stop offset="1"/></linearGradient><radialGradient id="f" cx="21.236" cy="28.736" r="0.525" gradientUnits="objectBoundingBox"><stop offset="0" stop-color="#fff"/><stop offset="1"/></radialGradient><radialGradient id="g" cx="12.86" cy="17.767" r="0.524" gradientTransform="translate(0)" xlink:href="#f"/><radialGradient id="h" cx="0.496" cy="0.508" r="0.523" gradientTransform="matrix(0.976, 0.22, -0.22, 0.975, 7.451, -4.171)" xlink:href="#f"/><radialGradient id="i" cx="22.589" cy="30.784" r="0.526" gradientTransform="translate(0)" xlink:href="#f"/><radialGradient id="j" cx="0.5" cy="0.5" r="0.5" gradientUnits="objectBoundingBox"><stop offset="0" stop-color="#efefa9"/><stop offset="1" stop-color="#57cba1"/></radialGradient></defs><g transform="translate(0.009)"><g transform="translate(-0.009)"><path class="a" d="M37.52,43.79c.278,1.806.516,3.592.695,5.418h0l-.1.953a.556.556,0,0,1-.437.536h0l-.6.139.6-.6c-.119,1.727-.2,3.433-.357,5.14L36.13,54.229h.417a1.052,1.052,0,0,1,1.23.814,1.191,1.191,0,0,1,0,.377v.139l-.238,1.508a1.151,1.151,0,0,1-1.31.913h-.4L35.4,57.8l1.588-.5c-.5.992-.972,1.985-1.488,3l-.576-1.985h0a1.429,1.429,0,0,1,.675,1.866,1.369,1.369,0,0,1-1.687.734h-.119A63.92,63.92,0,0,0,26.6,58.932a24.807,24.807,0,0,0-3.513-.476,6.728,6.728,0,0,0-2.878.3,1.012,1.012,0,0,0-.278.159h0a.853.853,0,0,0,0,.139,1.727,1.727,0,0,0-.119.853,6.887,6.887,0,0,0,1.012,2.719,24.014,24.014,0,0,0,4.207,5.4,39.474,39.474,0,0,0,5.7,4.426,25.026,25.026,0,0,0,3.136,1.667c1.092.476,2.262.953,3.433,1.389,4.684,1.687,9.526,3.156,14.408,4.565h.119a.516.516,0,0,1,.337.635.476.476,0,0,1-.278.337l-1.191.536a11.033,11.033,0,0,1-1.211.5l-2.461.794,2.2-1.31a12.56,12.56,0,0,0,1.072-.714l1.032-.734.179.992a94.309,94.309,0,0,1-15.142-2.719c-1.25-.357-2.5-.714-3.751-1.171A26.036,26.036,0,0,1,28.926,75.5a33.559,33.559,0,0,1-6.509-4.664,25.8,25.8,0,0,1-5.239-6.291,10.6,10.6,0,0,1-1.449-4.465,5.338,5.338,0,0,1,.556-2.838,4.742,4.742,0,0,1,.417-.675,5.954,5.954,0,0,1,.6-.635,4.624,4.624,0,0,1,1.35-.814,9.923,9.923,0,0,1,4.644-.417,28.359,28.359,0,0,1,3.969.774,55.031,55.031,0,0,1,7.422,2.62l-1.151,2.56h0a1.35,1.35,0,0,1-.5-1.846h0c.6-.933,1.211-1.866,1.826-2.8V55.9a1.111,1.111,0,0,1,1.508-.357l.437.238-1.687.794.437-1.429,1.211,1.33h-.516a1.052,1.052,0,0,1-1.111-.933,1.508,1.508,0,0,1,0-.3c.337-1.667.734-3.334,1.111-5v-.119a.615.615,0,0,1,.556-.476h.615l-.556.556.2-.893h0C37.222,47.422,37.361,45.6,37.52,43.79Z" transform="translate(15.487 43.115)"/><path class="a" d="M49.028,37.012C47.044,39,45.059,40.982,42.9,42.788s-4.207,3.711-6.43,5.477a.853.853,0,0,1-1.211-.139h0l-.2-.318s-.179-.278,0-.139l.119.1a.873.873,0,0,0,.258.119h-.5l-1.568.318a27.787,27.787,0,0,0-3.076.853h-.159l-.337.119h0l.159-.119.318-.794v.516a1.171,1.171,0,0,1-1.151,1.211,1.488,1.488,0,0,1-.516-.1h0a86.489,86.489,0,0,1-8.752-4.723l-3.969-2.56c-1.31-.814-2.8-1.786-3.969-2.56l2.243-.417-2.382,3.155a1.8,1.8,0,0,1-2.9-2.124h0l2.362-3.175-.119,1.985c-.5-.794-1.032-1.588-1.568-2.362a18.081,18.081,0,0,0-1.568-1.985l-.04-.119A5.568,5.568,0,0,1,6.856,33.7a15.538,15.538,0,0,1-.814-1.389l-.695-1.27-.278-.456h0a1.985,1.985,0,0,0,.4.218h.675a1.687,1.687,0,0,0,1.092-.417L4.077,28.677v-.139a.536.536,0,0,0,0,.218,1.568,1.568,0,0,0,.615.754,1.687,1.687,0,0,0,1.31.2.556.556,0,0,0,.318-.139h0a9.784,9.784,0,0,0-.794,1.488A18.933,18.933,0,0,0,4.316,34.73a2.1,2.1,0,0,1-.179.5,4.386,4.386,0,0,0-.318.873h0V35.98a1.052,1.052,0,0,0-.159-.536c-.159-.218,0-.119,0-.139h0l.159.119a20.1,20.1,0,0,0,2.2,1.488C7.65,37.905,9.4,38.9,11.1,39.771L8.4,40.9h0a1.985,1.985,0,0,1,2.481-1.032,2.143,2.143,0,0,1,.476.238h0a1.985,1.985,0,0,1,.556,2.679v.139h0l.218-1.985h0l-.218-.238c2.659,3.969,5.418,8.117,8.355,11.908a79.026,79.026,0,0,0,9.506,10.876h0a1.369,1.369,0,0,1,.476,1.032v1.528h0a.377.377,0,0,0,0-.2h0a4.644,4.644,0,0,0,1.409.794,13.476,13.476,0,0,0,3.87.834,10.558,10.558,0,0,0,3.969-.655,13.077,13.077,0,0,0,1.885-.794c.3-.159.5-.318.774-.476-.119.655,0,0-.119-.218a.675.675,0,0,1,.318-.814h0a40.387,40.387,0,0,0,5.835-4.128,69.461,69.461,0,0,0,5.3-4.961h0A46.2,46.2,0,0,1,43.114,65.67l.357-.834a4.067,4.067,0,0,1,.139.615,1.449,1.449,0,0,1,0,.516.734.734,0,0,1,0,.3,1.071,1.071,0,0,1-.179.238h-.139a11.767,11.767,0,0,1-1.012.794A13.991,13.991,0,0,1,40.2,68.409a12.86,12.86,0,0,1-4.644,1.111,16.154,16.154,0,0,1-4.763-.675,6.966,6.966,0,0,1-2.54-1.191,2.54,2.54,0,0,1-.456-.4v-.179a1.389,1.389,0,0,1-.1-.258V64.638l.516,1.072A69.462,69.462,0,0,1,17.731,54.854C14.6,50.885,11.659,46.916,8.92,42.788v-.179h0a1.985,1.985,0,0,1,.218-1.985h0l.437,2.818h0l2.917-1.032h0a1.985,1.985,0,0,1-2.4,1.27l-.318-.119c-1.826-.933-3.572-1.885-5.358-2.917a25.561,25.561,0,0,1-3.1-1.965,2.9,2.9,0,0,1-.4-.357l-.238-.258a1.806,1.806,0,0,1-.318-.437,3.017,3.017,0,0,1-.357-.893,2.183,2.183,0,0,1,0-.476,3.354,3.354,0,0,1,0-.695,6.847,6.847,0,0,1,.675-1.985l-.179.476A23.4,23.4,0,0,1,2.033,29.57a12.265,12.265,0,0,1,1.31-2.3c.119-.119.179-.218.337-.357a3.255,3.255,0,0,1,.5-.417,2.263,2.263,0,0,1,.794-.377,2.183,2.183,0,0,1,1.826.258,2.262,2.262,0,0,1,.933,1.191,2.461,2.461,0,0,1,.218.794,4.842,4.842,0,0,1,0,.933L4.772,27.605a2.3,2.3,0,0,1,1.27-.476h.5a1.27,1.27,0,0,1,.357.119,2.242,2.242,0,0,1,.556.3l.218.2a4.525,4.525,0,0,1,.5.6,8.633,8.633,0,0,1,.456.774l.714,1.33c.218.417.437.814.655,1.151l.258.377h0l.437.4a18.735,18.735,0,0,1,1.985,2.62c.556.853,1.072,1.707,1.588,2.58h0a1.786,1.786,0,0,1-.159,1.985l-2.382,3.235L8.9,40.624l2.461-3.1v-.119a1.588,1.588,0,0,1,2.143-.3l3.969,2.818,3.969,2.719c2.64,1.766,5.3,3.533,7.938,5.021l-1.746,1.052v-.615a1.171,1.171,0,0,1,.3-.675,2.262,2.262,0,0,1,.516-.377l.318-.119.516-.179h0a.675.675,0,0,1,.278,0H29.2a31.244,31.244,0,0,1,3.394-.695l1.727-.218h.992l.417-.02a1.23,1.23,0,0,1,.318.139.893.893,0,0,1,.139.139,1.984,1.984,0,0,1,.357.556l.2.417-1.33-.337c2.342-1.488,4.6-3.116,6.867-4.783Z" transform="translate(0.009 25.621)"/><path class="b" d="M74.572,46a1.012,1.012,0,0,0,1.29.179,2.937,2.937,0,0,0,.913-1.052,12.6,12.6,0,0,0,1.072-2.679,27.783,27.783,0,0,0,.913-5.716,26.117,26.117,0,0,0-.218-5.716,11.331,11.331,0,0,0-.655-2.6,2.163,2.163,0,0,0-.516-.794h-.278a1.191,1.191,0,0,1-1.469-.814v-.159A27.368,27.368,0,0,0,69,12.562,25.8,25.8,0,0,0,55.6,4.8a24.252,24.252,0,0,0-3.969-.695c-.655,0-1.31-.2-1.985-.218H47.661A23.815,23.815,0,0,0,40.12,5.378a25.343,25.343,0,0,0-11.908,9.605l-.1.119a.476.476,0,0,1-.119.159l-.159.159-1.806.6a1.826,1.826,0,0,0,1.389-.238,1.846,1.846,0,0,0,1.092-1.151l-.437.814a26.435,26.435,0,0,0-5.279,8.514l-2.7-1.985h0l2.183,2.64h0L21.9,21.831l1.766.972-.992-.2h0a1.707,1.707,0,0,1,1.846,1.548,1.548,1.548,0,0,1-.1.675,26.911,26.911,0,0,0-1.429,6.748,24.649,24.649,0,0,0,.456,6.926A26.355,26.355,0,0,0,29.82,50.925h0a.716.716,0,1,1-1.012,1.012l-.456-.337h.972l-1.33,1.27v-.853l.278.278h0a.6.6,0,0,1,0,.834.576.576,0,0,1-.814,0l-.278-.278.893-.655c1.31,2.917,2.58,5.954,3.81,8.831h0l-.218.179.2-.2h0c-1.647-2.759-3.235-5.557-4.8-8.355a.556.556,0,0,1,.834-.695h0l.278.238-.774.853-.318-.258a.6.6,0,0,1,0-.814h0l1.211-1.389a.655.655,0,0,1,.873-.1h0l.516.4-.953,1.072a24.926,24.926,0,0,1-4.862-5.815,28.042,28.042,0,0,1-3.056-7.025,26.455,26.455,0,0,1-.933-7.68,28.936,28.936,0,0,1,1.409-7.621l1.806,2.2h0a1.568,1.568,0,0,1-.953-.179h0l-1.786-.913a1.707,1.707,0,0,1-.754-2.282,1.568,1.568,0,0,1,.377-.5h0l2.183,2.659h0L19.48,22.823a30.5,30.5,0,0,1,5.7-9.923l-.417.814A1.985,1.985,0,0,1,26.982,12.3l-1.786.6.179-.2-.218.278A29.154,29.154,0,0,1,38.85,1.667,27.248,27.248,0,0,1,47.721,0h2.262a21.7,21.7,0,0,1,2.223.238,29.015,29.015,0,0,1,4.346.853,28.638,28.638,0,0,1,14.924,9.288,29.035,29.035,0,0,1,6.43,16.194L76.14,25.8a2.243,2.243,0,0,1,1.389-.357,2.441,2.441,0,0,1,1.33.6,4.485,4.485,0,0,1,1.012,1.707,12.146,12.146,0,0,1,.556,3.156,29.322,29.322,0,0,1-1.846,11.788,10.756,10.756,0,0,1-1.429,2.659A3.156,3.156,0,0,1,76,46.36,1.111,1.111,0,0,1,74.572,46Z" transform="translate(19.138)"/><path class="a" d="M89.837,33.361a23.952,23.952,0,0,0-1.806-3.969,10.914,10.914,0,0,0-1.151-1.647.536.536,0,0,0-.258-.2h0a.476.476,0,0,0,.377,0c.258-.218.159-.179.179,0a2.133,2.133,0,0,1,0,.357l-1.409.754c.695.437.893,0,.853.1v.159l-.278.576-.6,1.33c-.218.456-.437.913-.695,1.389a5.121,5.121,0,0,1-.516.754,2.58,2.58,0,0,1-.377.437L84,33.56A24.436,24.436,0,0,0,82.513,35.8c-.5.814-.992,1.667-1.429,2.481l-.1-1.746h0a1.469,1.469,0,0,1,0,1.985v.119c-1.985,2.183-4.148,4.168-6.351,6.232a40.211,40.211,0,0,1-3.414,2.878L67.45,50.568a1.985,1.985,0,0,1-2.64-.3,1.806,1.806,0,0,1-.4-.893v-.2l-.159-1.032.675,1.23a1.29,1.29,0,0,0,.4.258h.3a1.488,1.488,0,0,1-.6,0,32.684,32.684,0,0,0-3.294-.456,14.887,14.887,0,0,0-1.568,0h.159a1.667,1.667,0,0,0,.377-.238,1.27,1.27,0,0,0,.4-.417v-.1h0v.1l-.278.754h0A1.985,1.985,0,0,1,58.4,50.409a1.866,1.866,0,0,1-.635-.377c-1.27-1.171-2.382-2.441-3.552-3.671L50.78,42.629c-2.183-2.54-4.326-5.12-6.351-7.8l-.1-.139a1.072,1.072,0,0,1,0-1.25l.337-.456-.139.516c.119-1.806.3-3.592.456-5.4h0a.734.734,0,0,1,.159-.357l2.282-2.64h0l1.846-1.885-1.429,2.163h0l-1.806,3.175.159-.437c.139,1.806.3,3.612.4,5.4a1.171,1.171,0,0,1-.1.456h0l-.337.635v-1.35l7.085,7.025,7.125,6.748-3.076.834.318-.953.159-.318.1-.218.119-.179s0-.179.456-.516a1.489,1.489,0,0,1,.417-.238h3.036a33.483,33.483,0,0,1,3.83.4h-.615a2.6,2.6,0,0,1,.556,0h0l.6.119.4.139a2.124,2.124,0,0,1,.794.456,1.707,1.707,0,0,1,.655,1.151h0l.139,1.012-3.056-1.35c2.243-1.766,4.505-3.394,6.767-5.279s4.406-3.791,6.589-5.676L78.385,38.5h0v-.119a1.469,1.469,0,0,1,0-1.647c.576-.853,1.131-1.647,1.746-2.461a16.155,16.155,0,0,1,1.985-2.421,3.055,3.055,0,0,1,.377-.337l.119-.1A4.144,4.144,0,0,0,82.99,31a12.82,12.82,0,0,0,.754-1.151l.794-1.27a7.126,7.126,0,0,1,.5-.655,1.746,1.746,0,0,1,.377-.417,1.21,1.21,0,0,1,.437-.278,1.131,1.131,0,0,1,.437,0,1.29,1.29,0,0,1,.615.238l-1.429.754a4.688,4.688,0,0,1,0-.714,1.469,1.469,0,0,1,.615-1.052,1.171,1.171,0,0,1,.873-.1,1.27,1.27,0,0,1,.437.258,1.985,1.985,0,0,1,.516.556,9.447,9.447,0,0,1,.972,2.1A17.961,17.961,0,0,1,89.837,33.361Z" transform="translate(43.467 22.862)"/><path class="a" d="M2.736,31.185c-.834-.655-.456-1.866.218-2.54a1.588,1.588,0,0,1,2.223,0,1.33,1.33,0,0,1,.218.278l.516.873a1.33,1.33,0,0,1,.179.516v.476a1.727,1.727,0,0,1-1.25,1.786,1.091,1.091,0,0,1-.695,0,1.786,1.786,0,0,1-.357-.238.972.972,0,0,0-.417-.357l-1.171-.2a.734.734,0,0,1,.536-.6Zm0,0a.714.714,0,0,0,.734,0l-1.111-.238a1.746,1.746,0,0,1,.159-.834,3.711,3.711,0,0,1,.258-.556,1.747,1.747,0,0,1,.695-.675L2.24,31.146a1.131,1.131,0,0,1,0-.576L5.2,31.761a4.207,4.207,0,0,0-2.461-.576Z" transform="translate(2.184 27.757)"/><path class="a" d="M4.509,30.355a3.453,3.453,0,0,1,1.409.635,1.528,1.528,0,0,1,.655,1.33,1.826,1.826,0,0,1-.695,1.488,1.985,1.985,0,0,1-1.469.417,2.3,2.3,0,0,1-.774-.218,2.659,2.659,0,0,1-.893-.714,1.985,1.985,0,0,1-.516-1.072l-.119-1.469a.5.5,0,0,1,.179-.516,2.8,2.8,0,0,1,1.449-.476C4.211,29.859,4.509,30.058,4.509,30.355Zm0,0a1.588,1.588,0,0,0-.139,1.429.853.853,0,0,0,.536.456V30.415a3.116,3.116,0,0,1,.576.238s.1,0-.218-.159a1.568,1.568,0,0,0-.576-.159,1.866,1.866,0,0,0-1.27.377c-.714.675-.576,1.032-.6,1.111s.278-.159.516-.417a5.576,5.576,0,0,1,1.171-1.052Z" transform="translate(2.078 29.302)"/><path class="a" d="M4.369,28.2c0-.278.437-.357.873-.1a2.441,2.441,0,0,1,1.032,1.27.258.258,0,0,1,0,.238L5.2,31.313a1.092,1.092,0,0,1-.695.556l-.456.119a1.931,1.931,0,0,1-2.2-2.8,2.977,2.977,0,0,1,1.469-1.33C3.774,27.721,4.23,27.82,4.369,28.2Zm0,0a2.878,2.878,0,0,0,.258,2.282c.318.437.615.516.655.615L2.523,28.435a2.56,2.56,0,0,1,1.29-.357L2.722,30.063a1.171,1.171,0,0,0,.834-.218A1.985,1.985,0,0,0,4.369,28.2Z" transform="translate(1.603 27.372)"/><path class="a" d="M65.839,30.838c-.1-.119-.119-.3-.238-.476a4.8,4.8,0,0,0-.437-.556,6.631,6.631,0,0,1-.933-1.211,1.052,1.052,0,0,1,1.23-1.429l1.786.476a1.171,1.171,0,0,1,.853,1.369v1.667a10.419,10.419,0,0,1-1.35.159,2.262,2.262,0,0,0-.556,0C66.176,30.977,66,31.036,65.839,30.838Zm0,0c0,.119.238,0,.258-.139a.774.774,0,0,0,0-.476,5.4,5.4,0,0,0-.437-1.111l.179,1.727c-.675.1-.933,0-.933-.476l2.917-.972a6.491,6.491,0,0,1-1.29.675C66.137,30.282,65.839,30.58,65.839,30.838Z" transform="translate(63.178 26.715)"/><path class="a" d="M67.126,29.05a.734.734,0,0,0-.635,0,4.7,4.7,0,0,0-.774.556l-.695-1.31a2.421,2.421,0,0,1-.576-.675.794.794,0,0,1,.357-1.092.675.675,0,0,1,.377-.1h2.1a.7.7,0,0,1,.714.615,5.658,5.658,0,0,1,0,1.409l.159.6a3.971,3.971,0,0,0-.5.218l-.2.119h-.1A.7.7,0,0,0,67.126,29.05Zm0,0a.734.734,0,0,0,.456.119h-.318a1.787,1.787,0,0,0-.278-.4l.159.576c-.5.159-1.012.4-1.35.5s-.536,0-.6-.337l2.838-1.131a2.937,2.937,0,0,1-.794.4l-.714-1.211a3.638,3.638,0,0,0,.238.992.754.754,0,0,0,.357.5Z" transform="translate(63.379 26.023)"/><path class="a" d="M67.278,28.863c.139.2,0,.456-.3.655a2.263,2.263,0,0,1-1.23.278l-.913-1.667a1.369,1.369,0,0,1-.318-1.25l.159-.516a1.985,1.985,0,0,1,3.691,0,2.719,2.719,0,0,1,0,1.866C68.052,28.863,67.7,29.121,67.278,28.863Zm0,0a3.453,3.453,0,0,0-1.806-1.35,4.545,4.545,0,0,0-.893,0l3.969-.476a2.481,2.481,0,0,1-.675,1.687l-.933-1.647a1.052,1.052,0,0,0-.238.714A1.627,1.627,0,0,0,67.278,28.863Z" transform="translate(63.505 24.721)"/><path class="c" d="M9.107,40.725s-7.145-4.227-7.8-5.378S2.915,28.1,4.086,27.21,5.1,28.9,3.709,31.179c-.536.893,1.469,4.207,1.866,3.671s-1.23-5.14-.794-6.549,1.985,3.275,3.156,4.207a31.754,31.754,0,0,1,3.592,5.081Z" transform="translate(1.191 26.612)"/><path class="b" d="M120.416,35.524S109.183,62.4,100.073,62.236A14.23,14.23,0,0,1,94.4,60.847a30.5,30.5,0,0,1-10.558-9.169s.635,5.358,1.528,10.161c.218,1.151.456,2.282.695,3.294,1.131,4.525,6.192,9.665,6.192,9.665S78.243,89.127,72.011,89.862h-.4c-6.073.159-26.832-10.7-26.832-10.7s2.262-8.117,2.977-12.622c.1-.655.2-1.369.258-1.985h0a78.827,78.827,0,0,0,.337-8.514V53.167h0c-.377.377-10.181,12.285-18.338,12.285S5.686,40.326,5.19,39.532h0l2.4-3.156h0c1.29.913,14.944,10.379,18.754,11.094a1.29,1.29,0,0,0,.675,0c2.719-.933,11.253-7.938,16.651-12.6l.119-.119,1.766-1.508h0l1.052-.913,1.647-1.449,21.831-1.667,12.761-.953s8.613,9.923,14.031,14.825a11.193,11.193,0,0,0,3.672,2.62c3.116.615,17.524-13.436,17.524-13.436Z" transform="translate(5.128 27.825)"/><path class="d" d="M100.281,35.623a102.148,102.148,0,0,1-11.531,20.5h0c-.714.913-1.488,1.766-2.223,2.54a9.923,9.923,0,0,1-6.589,3.513C70.889,62.018,63.7,51.619,63.7,51.619s.953,8.216,2.223,13.456c1.131,4.525,6.192,9.665,6.192,9.665S58.108,89.068,51.876,89.8L39.969,84.345s.4-25.2-3.2-34.115A65.154,65.154,0,0,0,25.64,33.242h0l24.51-3.969,12.761-.953s14.567,16.81,17.7,17.445a7.383,7.383,0,0,0,3.969-1.826,137.675,137.675,0,0,0,13.5-11.61Z" transform="translate(25.263 27.884)"/><path class="e" d="M75.248,60.817A27.983,27.983,0,0,1,66.3,53.673c-1.032-1.191-1.608-1.985-1.608-1.985a7.3,7.3,0,0,1-7.244,7.4C43.673,59.766,24.7,34.819,24.7,34.819l1.766-1.508h0l2.8-2.4L51.1,29.243l10.8-.814,1.985-.139s2.7,3.116,5.954,6.688c2.62,2.858,5.616,5.954,7.938,8.137.159,1.667.318,3.572.4,5.438A35.088,35.088,0,0,1,75.248,60.817Z" transform="translate(24.337 27.854)"/><path class="d" d="M48.3,49.06c-.318.456-10.121,12.364-18.278,12.364S5.686,36.3,5.19,35.506h0l2.4-3.156h0c1.29.913,14.944,10.379,18.754,11.094a11.729,11.729,0,0,0,9.486,6.887A34.214,34.214,0,0,0,48.3,49.06Z" transform="translate(5.128 31.852)"/><path class="c" d="M9.3,39.118S1.119,34.931,1,33.859A5.954,5.954,0,0,1,3.1,29.89c.992-.635,2.7-1.528,3.076-1.131s-1.846,1.469-2.362,1.985a6.132,6.132,0,0,0-.695,1.31,6.371,6.371,0,0,1,1.211-1.369c.873-.456,2.1-.893,2.322-.635s-1.528,1.588-1.985,2.262,3.771,3.453,4.406,4.465A2.9,2.9,0,0,1,9.3,39.118Z" transform="translate(1.003 28.219)"/><path class="c" d="M64.481,38.795s7.145-4.227,7.8-5.378S70.693,26.173,69.5,25.28s-1.012,1.687.4,3.969c.536.893-1.469,4.207-1.866,3.672s1.23-5.2.834-6.609-1.985,3.275-3.175,4.207A31.753,31.753,0,0,0,62,35.58Z" transform="translate(61.063 24.712)"/><path class="c" d="M63.321,37.188S71.5,33,71.617,31.929a5.954,5.954,0,0,0-2.1-3.969c-.992-.635-2.679-1.528-3.056-1.131s1.826,1.469,2.362,1.985a6.807,6.807,0,0,1,.675,1.31,6.371,6.371,0,0,0-1.211-1.369c-.873-.456-1.985-.893-2.322-.635s1.548,1.588,1.985,2.262-3.751,3.453-4.406,4.465A3,3,0,0,0,63.321,37.188Z" transform="translate(62.223 26.319)"/><path class="c" d="M35.328,47.973A29.114,29.114,0,0,1,28.8,62.4h0v-.913h0l-.119-4.465a53.584,53.584,0,0,0,0-14.011A37.172,37.172,0,0,0,26.695,36.8a21.573,21.573,0,0,0-1.985-3.969l.119-.119L26.6,31.2h0l.953-.834h.218l2.52.536,6.073,1.31a20.5,20.5,0,0,1,.2,2.4A63.8,63.8,0,0,1,35.328,47.973Z" transform="translate(24.347 29.902)"/><path class="c" d="M49.806,43.562a40.188,40.188,0,0,0-.476,9.268v.834c.119,2.282.318,3.969.318,3.969l-.119,5.418s-.476-.536-1.092-1.33h0a30.821,30.821,0,0,1-5.418-13.078,52.612,52.612,0,0,1-.913-15.877l2.719-4.326h.2l1.766-.119s2.7,3.116,5.954,6.688a33.54,33.54,0,0,0-2.937,8.554Z" transform="translate(41.245 27.884)"/><path class="f" d="M35.347,48.131a29.114,29.114,0,0,1-6.529,14.428h0v-.913h0a28.221,28.221,0,0,0,5.14-11.193c1.687-7.184,1.052-10.221,1.052-10.221a40.724,40.724,0,0,1-8.335-3.275,21.573,21.573,0,0,0-1.985-3.969l.119-.119,1.766-1.508h0l.953-.834h.218L28.8,30.21l1.469.853,6.271,3.711a63.8,63.8,0,0,1-1.191,13.356Z" transform="translate(24.328 29.745)"/><path class="c" d="M49.179,43.562A40.189,40.189,0,0,0,48.7,52.83l-2.6,3.235a40.168,40.168,0,0,1-3.572-14.488,36.219,36.219,0,0,1,1.985-13.138l1.766-.119s2.7,3.116,5.954,6.688A33.539,33.539,0,0,0,49.179,43.562Z" transform="translate(41.872 27.884)"/><path class="g" d="M72.6,35.334a25.8,25.8,0,0,1-3.711,8.712,24.728,24.728,0,0,1-3.969,4.684h0A26.4,26.4,0,0,1,21.116,23.7a28.957,28.957,0,0,1,.953-3.235h0A26.4,26.4,0,0,1,72.6,35.334Z" transform="translate(20.181 3.167)"/><path class="h" d="M73.639,35.344a26.117,26.117,0,0,1-3.711,8.712,26.435,26.435,0,0,1-3.969,4.7h0a26.4,26.4,0,0,1-43.8-25.046,24.053,24.053,0,0,1,.933-3.155h0A26.4,26.4,0,0,1,73.62,35.424Z" transform="translate(21.202 3.256)"/><path class="i" d="M73.164,19.172a31.456,31.456,0,0,1-3.136,7.085h0A33.4,33.4,0,0,1,24.7,38.323,26.613,26.613,0,0,1,37.342,24.014a46.043,46.043,0,0,1,35.822-4.842Z" transform="translate(24.337 17.246)"/><path class="j" d="M47.488,14.071c.218,1.985-4.942,4.227-11.511,4.922s-12.086-.357-12.3-2.362S28.615,12.4,35.184,11.69,47.27,12.047,47.488,14.071Z" transform="translate(23.32 11.292)"/><path class="j" d="M27.416,17.509a2.878,2.878,0,0,1-5.7.615,2.878,2.878,0,0,1,5.7-.615Z" transform="translate(21.403 14.978)"/><path class="d" d="M21.16,17.2s25.363-3.156,34.1,8.435a23.259,23.259,0,0,1,2.421,23.815l7.244-4.168,6.589-15.222L67.54,12.2,38.7,7.22Z" transform="translate(20.852 7.109)"/><g transform="translate(78.065 38.563)"><path class="k" d="M43.8,22.029a2.25,2.25,0,1,1-1.875-2.57A2.25,2.25,0,0,1,43.8,22.029Z" transform="translate(-39.326 -19.431)"/></g><g transform="translate(76.039 27.629)"><path class="l" d="M45.637,18.225a3.691,3.691,0,1,1-2.58-4.148,3.691,3.691,0,0,1,2.58,4.148Z" transform="translate(-38.306 -13.922)"/></g><g transform="translate(48.626 42.184)"><path class="m" d="M28.794,23.745a2.163,2.163,0,1,1-1.528-2.4,2.163,2.163,0,0,1,1.528,2.4Z" transform="translate(-24.492 -21.256)"/></g><g transform="translate(62.982 44.666)"><path class="n" d="M36,24.994a2.15,2.15,0,1,1-1.786-2.461A2.15,2.15,0,0,1,36,24.994Z" transform="translate(-31.726 -22.506)"/></g><path class="o" d="M22.046,15.751l-1.786-.933s5.279-4.862,22.267-5.954c16.492-1.072,25.8,3.255,25.8,3.255a44.534,44.534,0,0,1,3.81,18.02c0,10.459-5.636,15.142-5.636,15.142l-4.168.5A19.846,19.846,0,0,0,69.18,32.422a34.691,34.691,0,0,0-2.9-18.357S43.559,5.987,22.046,15.751Z" transform="translate(19.966 8.56)"/><path class="p" d="M74.7,37.08a28.34,28.34,0,0,1-5.557,11.55l-.576.655-.576.655v.1c-.456.5-.953.992-1.449,1.449A17.425,17.425,0,0,0,69.2,45.911h0A39.692,39.692,0,0,0,70.808,36.7c.536-10.737-3.433-16.611-3.433-16.611s-1.389-.5-3.711-1.171a75.415,75.415,0,0,0-24.649-2.937c-13.535,1.092-18.457,4.842-18.754,5.081A28.7,28.7,0,0,1,25.7,11.856h0A28.6,28.6,0,0,1,38,3.8h0l.556-.159a28.022,28.022,0,0,1,14.686-.576l1.092.258A28.122,28.122,0,0,1,66.62,10.248h0A28.38,28.38,0,0,1,74.7,37.08Z" transform="translate(19.966 2.314)"/><path class="o" d="M65.355,27.684A14.785,14.785,0,0,1,60.572,35.8a9.923,9.923,0,0,1-2.838,1.528c-7.6,2.54-25.641-.873-25.641-.873L23.52,28.4l1.27-1.33s5.755,5.616,17.266,5.219a43.661,43.661,0,0,0,12.6-2.183,21.315,21.315,0,0,0,8.732-5.021l2.54-.794h0A19.847,19.847,0,0,1,65.355,27.684Z" transform="translate(23.176 23.916)"/><path class="p" d="M65.911,24.29v8.137a23.438,23.438,0,0,1-5.557,6.291,25.145,25.145,0,0,1-12.166,5.319C35.13,46.021,28.66,38.619,28.66,38.619l-5.12-10.2c.337.318,8.077,7.938,23.815,5.855A36.12,36.12,0,0,0,58.548,31.1h0c5.835-2.818,7.006-5.954,7.442-6.767Z" transform="translate(23.195 23.916)"/><path class="d" d="M65.58,37.071A28.36,28.36,0,0,1,60,48.621v5.4a23.438,23.438,0,0,1-5.557,6.291c-.853-3.493-1.707-7.581-1.866-7.621h0a14.031,14.031,0,0,1-3.791-.972,21.433,21.433,0,0,0,8.732-5l2.52-.814a38.5,38.5,0,0,0,1.627-9.209c.695-10.737-3.294-16.611-3.294-16.611s-1.389-.5-3.711-1.151A33.361,33.361,0,0,0,41.428,7.6,57.236,57.236,0,0,0,29.52,3.63a28.221,28.221,0,0,1,14.686-.556l1.072.258a32.27,32.27,0,0,1,12.3,6.926h0A28.34,28.34,0,0,1,65.58,37.071Z" transform="translate(29.083 2.323)"/><path class="h" d="M73.092,25.8v.119l-3.155,8.474a2.443,2.443,0,0,0,0-.357h0a21.069,21.069,0,0,0-.675-3.314c-.2-.714-.417-1.548-.714-2.421a34.75,34.75,0,0,0-8.812-14.726,15.582,15.582,0,0,0-1.469-1.33A26.494,26.494,0,0,0,50.19,7.7,26.256,26.256,0,0,0,25.125,11.29,18.339,18.339,0,0,0,23.14,13.1,26.078,26.078,0,0,1,49.575,1.367,30.265,30.265,0,0,1,61.74,6.17l.238.159A27.784,27.784,0,0,1,73.092,25.718Z" transform="translate(22.802 0.974)"/><path class="q" d="M69.4,36.024a11.591,11.591,0,0,1-.556,1.985,27.487,27.487,0,0,0,.278-8.435,25.5,25.5,0,0,0-.476-3,27.784,27.784,0,0,0-8.812-14.726,18.516,18.516,0,0,0-1.528-1.27A28.082,28.082,0,0,0,23,11.514c.6-.675,1.23-1.31,1.885-1.985A28.4,28.4,0,0,1,35.3,3.4h0a28.261,28.261,0,0,1,12.5,0A29.61,29.61,0,0,1,60.291,9.53a26.613,26.613,0,0,1,9.625,17.583,25.8,25.8,0,0,1,0,5.259.715.715,0,0,1,0,.218h0a8.93,8.93,0,0,1-.139,1.25C69.7,34.536,69.559,35.27,69.4,36.024Z" transform="translate(22.664 2.656)"/><path class="q" d="M48.563,32.812a1.012,1.012,0,0,1-.576.119c-1.667-.2-2.54-4.8-1.985-10.3a31.755,31.755,0,0,1,.576-3.513l.179-.655a14.051,14.051,0,0,1,.615-1.985c.754-1.985,1.727-3.175,2.659-3.076a.754.754,0,0,1,.476.179.139.139,0,0,1,.119,0c1.29,1.012,1.985,4.8,1.429,9.605S50.131,32.118,48.563,32.812Z" transform="translate(45.148 13.191)"/><path class="q" d="M48.624,33.248a1.091,1.091,0,0,1-.714-.4C46.758,31.64,46.2,27.79,46.659,23.3v-1.25h0v-.179h0c.576-3.969,1.806-7.2,3.076-8.2l.179-.119a1.111,1.111,0,0,1,.734-.2c1.667.179,2.52,4.783,1.985,10.28S50.291,33.426,48.624,33.248Z" transform="translate(45.801 13.152)"/><path class="r" d="M54.246,42.826a1.092,1.092,0,0,1-.714-.4,1.012,1.012,0,0,1-.576.119c-1.667-.2-2.54-4.8-1.985-10.3a31.754,31.754,0,0,1,.576-3.513,25.5,25.5,0,0,0-.417-3.076,34.75,34.75,0,0,0-8.812-14.726,18.516,18.516,0,0,0-1.528-1.27h0l2.084-.953L44.362,3.63l.238.159A27.784,27.784,0,0,1,55.714,23.178a1.111,1.111,0,0,1,.734-.2c1.667.179,2.52,4.783,1.985,10.28S55.913,43,54.246,42.826Z" transform="translate(40.18 3.574)"/><path class="c" d="M25,53.077l1.667-2.9a150.181,150.181,0,0,1,15.381,8.911,52.97,52.97,0,0,1,10.419,8.335Z" transform="translate(24.633 49.407)"/><path class="q" d="M59.113,52.894,41.629,65.972h0L38.87,67.957a43.978,43.978,0,0,1,7.938-10.181,89.069,89.069,0,0,1,9.923-8.256l.318.417h0Z" transform="translate(38.289 48.757)"/><path class="c" d="M57.744,52.648,40.26,65.726h0a33.322,33.322,0,0,1,5.1-6.986,80.335,80.335,0,0,1,10.181-8.97h0Z" transform="translate(39.658 49.003)"/><path class="f" d="M68.689,52.484S56.5,51.333,45.767,51.392A147.829,147.829,0,0,0,26.04,52.861l.1-.576.635-4.545A148.628,148.628,0,0,1,46.62,46.252h2.362a108.992,108.992,0,0,1,17.861,1.31Z" transform="translate(25.657 45.535)"/><path class="c" d="M53.874,50.7s-3.969-.179-13.059.139A108.777,108.777,0,0,0,26.09,52.283l.635-4.545A148.627,148.627,0,0,1,46.571,46.25h2.362Z" transform="translate(25.706 45.537)"/><path class="s" d="M28.424,55.671a5.458,5.458,0,0,1-.893.655,12.841,12.841,0,0,1-7.065,1.985c-3.533-.3-5.517-1.469-5.8-1.985s0-18.219,0-18.219a1.985,1.985,0,0,1,.774-.576h0a23.815,23.815,0,0,1,5.676-1.072C21.7,36.678,29.139,54.956,28.424,55.671Z" transform="translate(14.342 35.898)"/><path class="t" d="M27.531,55.794a12.84,12.84,0,0,1-7.065,1.985c-3.533-.3-5.517-1.469-5.8-1.985s0-18.219,0-18.219A1.985,1.985,0,0,1,15.445,37h0s4.565,3.969,6.906,6.371S27.035,54.167,27.531,55.794Z" transform="translate(14.342 36.43)"/><path class="s" d="M49.5,55.261a4.6,4.6,0,0,0,.992.536,12.741,12.741,0,0,0,7.224,1.012c3.473-.714,5.3-2.124,5.517-2.759s-2.243-18.08-2.243-18.08a2.719,2.719,0,0,0-.853-.258h0a25.344,25.344,0,0,0-5.775-.377C53.847,35.573,48.707,54.546,49.5,55.261Z" transform="translate(48.675 34.761)"/><path class="t" d="M50,55.594a12.741,12.741,0,0,0,7.224,1.012c3.473-.714,5.3-2.124,5.517-2.759S60.5,35.768,60.5,35.768a2.719,2.719,0,0,0-.853-.258h0s-3.969,4.426-6.093,7.184S50.179,53.907,50,55.594Z" transform="translate(49.248 34.963)"/><path class="d" d="M59.527,48.355h0c-.714.913-1.488,1.766-2.223,2.54L55.32,36.13Z" transform="translate(54.486 35.573)"/><path class="b" d="M72.622,74.953,70.082,77.2s-3.056-.318-7.6-.972h0c-2.679-.377-5.954-.873-9.228-1.488h0a124,124,0,0,1-20.64-5.279A33.341,33.341,0,0,1,18.939,58.8c-1.985-2.878-2.917-5.616-1.608-7.383,2.56-3.513,16.016,1.032,26.117,6.093C48.112,59.87,54.979,64,60.933,67.69l7.76,4.842,1.985,1.27h0l1.568,1.012Z" transform="translate(16.484 49.401)"/><path class="c" d="M66.257,75.326c-.834.814-5.755.536-8.911-.774A12.283,12.283,0,0,1,55.024,73.2C52.543,71.436,50,68.916,48,68.559l-8.851-1.746-1.627-.238,4.108-7.2s4.108,2.62,7.244,4.406c.933.556,1.806,1.012,2.421,1.31a3.651,3.651,0,0,0,.853.318,29.769,29.769,0,0,1,9.467,3.374C65.007,70.8,67.11,74.512,66.257,75.326Z" transform="translate(36.96 58.455)"/><path class="u" d="M60.638,63.876l-8.177,6.331-.337.258a124,124,0,0,1-20.64-5.279A33.341,33.341,0,0,1,17.81,54.529a149.162,149.162,0,0,1,21.573,1.23A66.106,66.106,0,0,1,59.864,63.42h0Z" transform="translate(17.554 53.671)"/><path class="c" d="M54.237,71.056c-2.481-1.766-5.021-4.287-7.025-4.644L38.36,64.666l9.685-3.116c.933.556,1.806,1.012,2.421,1.31Z" transform="translate(37.787 60.602)"/><path class="b" d="M67.039,69.867a108.68,108.68,0,0,1-13.892,5.18h0l-4.664,1.409-3.612,1.032h0c-4.7,1.35-8.177,2.262-8.177,2.262L34.71,76.813l.853-.794.258-.258h0c1.469-1.369,4.207-3.969,7.4-6.787h0A191.856,191.856,0,0,1,58.307,56.491,48.107,48.107,0,0,1,77.6,48.552c2.759-.3,4.981,0,6.113,1.35C86.885,53.315,77.676,64.528,67.039,69.867Z" transform="translate(34.193 47.701)"/><path class="u" d="M60.669,69.818A108.681,108.681,0,0,1,46.777,75h0l-4.664,1.409L41.18,75.3s1.389-.556,3.493-1.469c5.081-2.223,14.21-6.47,17.266-9.685,4.108-4.287,8.831-14.408,9.347-15.539,2.759-.3,4.981,0,6.113,1.35C80.515,53.266,71.306,64.479,60.669,69.818Z" transform="translate(40.564 47.75)"/><path class="c" d="M57.575,65.2s-9.467,3-12.324,3.771S41.9,72.937,36.439,76.41s-9.923,3.81-10.221,3.414c-.695-1.23-.159-4.922,3.731-8.375s6.887-4.068,9.605-5.477,9.407-5.676,10.3-6.271h0L51.3,60.772h0Z" transform="translate(25.578 58.78)"/><path class="q" d="M37.7,60.077l6.45,5.735,1.885-.6-7.7-5.537Z" transform="translate(37.137 58.761)"/><path class="j" d="M51.314,60.712A174.767,174.767,0,0,1,35.437,69.8c-5.855,2.64-9.169,9.923-9.169,9.923-.695-1.23-.159-4.922,3.731-8.375s6.887-4.068,9.605-5.477,9.308-5.577,10.2-6.172l1.528,1.012Z" transform="translate(25.627 58.78)"/><path class="v" d="M121.846,87.362c0,1.985-25.8,3.592-57.553,3.592S6.74,89.347,6.74,87.362s25.8-3.592,57.553-3.592S121.846,85.378,121.846,87.362Z" transform="translate(6.654 55.319)"/></g></g></svg>