<svg xmlns="http://www.w3.org/2000/svg" xmlns:xlink="http://www.w3.org/1999/xlink" width="168.025" height="145.794" viewBox="0 0 168.025 145.794"><defs><style>.a{fill:url(#a);}.b{fill:url(#b);}.c{fill:url(#c);}.d{fill:#fff;}.e,.h{fill:url(#f);}.f{fill:#314f74;}.f,.i{opacity:0.35;}.g{fill:#b1ffb8;}.h{opacity:0.65;}.i{fill:#54585b;}</style><linearGradient id="a" x1="0.5" x2="0.5" y2="1" gradientUnits="objectBoundingBox"><stop offset="0" stop-color="#1a2023"/><stop offset="1" stop-color="#4d5258"/></linearGradient><linearGradient id="b" x1="0.03" y1="0.671" x2="0.97" y2="0.329" gradientUnits="objectBoundingBox"><stop offset="0.03" stop-color="#fcf9db"/><stop offset="0.45" stop-color="#659aaf"/><stop offset="0.65" stop-color="#669cb0"/><stop offset="0.75" stop-color="#6ba4b1"/><stop offset="0.83" stop-color="#74b1b5"/><stop offset="0.89" stop-color="#80c4b9"/><stop offset="0.95" stop-color="#8fdcbf"/><stop offset="1" stop-color="#a0f6c6"/></linearGradient><linearGradient id="c" x1="0.03" y1="0.671" x2="0.97" y2="0.329" xlink:href="#b"/><radialGradient id="f" cx="0.5" cy="0.5" r="0.5" gradientUnits="objectBoundingBox"><stop offset="0" stop-color="#efefa9"/><stop offset="1" stop-color="#57cba1"/></radialGradient></defs><g transform="translate(-15.18)"><g transform="translate(15.18)"><path class="a" d="M125.41,48.571,125.749,0h.648l.249,48.571Z" transform="translate(-24.268)"/><circle class="b" cx="21.234" cy="21.234" r="21.234" transform="translate(34.922 37.642) rotate(-20.39)"/><circle class="c" cx="21.234" cy="21.234" r="21.234" transform="matrix(0.884, -0.467, 0.467, 0.884, 85.196, 48.668)"/><path class="d" d="M146.29,40.332c.11,1.995-3.989,3.84-9.256,4.139s-9.565-1.047-9.684-2.992,3.989-3.83,9.265-4.129S146.17,38.357,146.29,40.332Z" transform="translate(-24.273 -0.099)"/><path class="a" d="M42.64,56.391l4.348,17.334L93.715,88.8h26.859l47.4-15.08,5.585-17.334S150.943,41.55,108.1,41.55,42.64,56.391,42.64,56.391Z" transform="translate(-24.049 -0.11)"/><path class="a" d="M24,70.57l5.585,22.241,59.971,19.359h34.459l60.839-19.359,7.171-22.241s-28.993-19.04-83.978-19.04S24,70.57,24,70.57Z" transform="translate(-24 -0.136)"/><path class="e" d="M40.03,144.578l9.964-8.4H164.451l10.133,8.4Z" transform="translate(-24.042 -0.36)"/><path class="a" d="M89.611,112.279v23.787H49.976L32.891,99.812,29.65,92.92Z" transform="translate(-24.015 -0.245)"/><path class="a" d="M185.159,92.92l-20.486,43.146H124.32V112.279Z" transform="translate(-24.265 -0.245)"/><path class="a" d="M102.416,144.541,100.81,122.39h14.881l-1.865,22.151Z" transform="translate(-24.203 -0.323)"/><path class="a" d="M102.416,48.791,100.81,26.64h14.881l-1.865,22.151Z" transform="translate(-24.203 -0.07)"/><path class="a" d="M108.27,33.618l.349-30.928h.638l.259,30.928Z" transform="translate(-24.223 -0.007)"/><path class="a" d="M122.31,49.118l.339-30.928h.648l.249,30.928Z" transform="translate(-24.26 -0.048)"/><path class="f" d="M189.038,80.012l-.309,1-.808,2.483s-23.388-15.309-80.646-15.309S26.538,80.521,26.538,80.521L26.2,79.154l-.259-1S53.926,61.91,107.275,61.91,189.038,80.012,189.038,80.012Z" transform="translate(-24.005 -0.163)"/><path class="g" d="M188.73,80.953l-.808,2.483s-23.388-15.25-80.646-15.25S26.539,80.524,26.539,80.524L26.2,79.157c2.9-1.6,30.719-16.087,81.075-16.087C157.393,63.07,185.578,79.058,188.73,80.953Z" transform="translate(-24.006 -0.167)"/><path class="h" d="M29.65,92.92l59.961,19.359V124.4L32.891,99.812Z" transform="translate(-24.015 -0.245)"/><path class="h" d="M185.159,92.92l-20.486,43.146h-6.154l4.408-18.361-38.608,3.541v-8.966Z" transform="translate(-24.265 -0.245)"/><path class="i" d="M173.906,63.07l-1.556,7.211s12.317,5.984,15.958,7.789l2.643-7.5S178.135,64.237,173.906,63.07Z" transform="translate(-24.392 -0.167)"/><path class="i" d="M169.352,78.11l-48.073,30.509L90.79,110.783h33.441l59.084-19.458,3.062-7.261S175.386,78.11,169.352,78.11Z" transform="translate(-24.176 -0.206)"/><path class="d" d="M28.34,81.92l13.075-3.93,49.21,30.629H85.269l-54.795-17.6Z" transform="translate(-24.011 -0.206)"/><path class="d" d="M26.887,76.585l-.947-5.9S35.305,65.595,42.6,63.52l.509,6.533a158.222,158.222,0,0,0-16.217,6.533Z" transform="translate(-24.005 -0.168)"/><path class="d" d="M44.51,143.614l6.622-6.2h20.1l-5.106,6.2Z" transform="translate(-24.054 -0.363)"/><path class="d" d="M67.86,143.614l4.688-6.2h6.2l-4.109,6.2Z" transform="translate(-24.116 -0.363)"/><path class="f" d="M149.085,137.41h14.821l7.789,6.2H116.91l40.293-1.177Z" transform="translate(-24.245 -0.363)"/><rect class="a" width="134.554" height="1.576" transform="translate(15.988 144.218)"/><path class="g" d="M125.72,4.68l-.11,15.14h.888l-.07-15.14Z" transform="translate(-24.268 -0.012)"/><path class="g" d="M125.61,22.26h.888l.03,2.513h-.947Z" transform="translate(-24.268 -0.059)"/><rect class="g" width="0.808" height="7.201" transform="translate(98.3 19.877)"/><path class="d" d="M89.652,31.426c.608,1.885-2.932,4.718-7.919,6.333s-9.515,1.386-10.123-.5,2.932-4.718,7.919-6.333S89.044,29.531,89.652,31.426Z" transform="translate(-24.126 -0.079)"/><path class="d" d="M37.03,103.39l15.589,31.247h8.039L50.943,110.85Z" transform="translate(-24.034 -0.273)"/><path class="d" d="M45.426,60.274,44,56.5A132.73,132.73,0,0,1,70.47,46.78l1.257,6.752a129.777,129.777,0,0,0-26.3,6.742Z" transform="translate(-24.053 -0.124)"/><path class="d" d="M73.357,53.048l-1-6.273A69.945,69.945,0,0,1,83.331,44.6l.5,6.912A102.943,102.943,0,0,0,73.357,53.048Z" transform="translate(-24.128 -0.118)"/><path class="d" d="M102.13,27.14h4.189V40.864h-3.1Z" transform="translate(-24.206 -0.072)"/><path class="d" d="M101.54,123.13l2.015,21.413h2V123.13Z" transform="translate(-24.205 -0.325)"/><path class="a" d="M112.2,118.76l1.077,3.62H103.25l1.257-3.62Z" transform="translate(-24.209 -0.314)"/><path class="d" d="M103.89,122.381l.947-3.341h2.493l-.628,3.341Z" transform="translate(-24.211 -0.314)"/><rect class="a" width="0.449" height="32.454" transform="translate(83.449 86.282)"/></g></g></svg>