<svg xmlns="http://www.w3.org/2000/svg" xmlns:xlink="http://www.w3.org/1999/xlink" width="92.305" height="158.61" viewBox="0 0 92.305 158.61"><defs><style>.a{fill:url(#a);}.b{fill:url(#b);}.c{fill:url(#d);}.d,.f{fill:#314f74;}.d{opacity:0.65;}.e{fill:#fff;}.f{opacity:0.35;}.g{fill:url(#g);}.h{fill:#3b1544;opacity:0.53;}.i{fill:url(#l);}.j{fill:url(#n);}.k{fill:url(#p);}.l{fill:url(#t);}.m{fill:url(#u);}.n{fill:url(#v);}</style><linearGradient id="a" x1="0.5" x2="0.5" y2="1" gradientUnits="objectBoundingBox"><stop offset="0" stop-color="#1a2023"/><stop offset="1" stop-color="#4d5258"/></linearGradient><radialGradient id="b" cx="0.5" cy="0.499" r="4.514" gradientTransform="translate(0.461) scale(0.079 1)" gradientUnits="objectBoundingBox"><stop offset="0" stop-color="#efefa9"/><stop offset="1" stop-color="#57cba1"/></radialGradient><radialGradient id="d" cx="0.5" cy="0.5" r="0.5" gradientTransform="matrix(1, 0, 0, 1, 0, 0)" xlink:href="#b"/><radialGradient id="g" cx="0.5" cy="0.5" r="0.551" gradientTransform="translate(0.082) scale(0.836 1)" xlink:href="#b"/><linearGradient id="l" x1="0.5" y1="1" x2="0.5" gradientUnits="objectBoundingBox"><stop offset="0" stop-color="#efefa9"/><stop offset="1" stop-color="#7fe1a6"/></linearGradient><linearGradient id="n" x1="0.509" x2="0.509" y2="0" xlink:href="#l"/><linearGradient id="p" x1="0.514" x2="0.514" y2="0" xlink:href="#l"/><radialGradient id="t" cx="0.499" cy="0.5" r="0.388" gradientTransform="translate(-0.614) scale(2.229 1)" xlink:href="#b"/><radialGradient id="u" cx="0.5" cy="0.5" r="0.368" gradientTransform="translate(-1.221) scale(3.443 1)" xlink:href="#b"/><radialGradient id="v" cx="0.5" cy="0.5" r="0.4" gradientTransform="translate(-0.438) scale(1.877 1)" xlink:href="#b"/></defs><g transform="translate(2493 -6639)"><g transform="translate(-2493 6639)"><rect class="a" width="75.252" height="2.629" transform="translate(8.891 155.982)"/><rect class="b" width="55.994" height="4.399" transform="translate(17.81 145.218)"/><path class="a" d="M27.208,66.7,0,90.532l14.324,59.84,63.769.267L92.305,90.532,64.5,66.58Z" transform="translate(0 -5.172)"/><path class="c" d="M87.169,168.584H7.5l1.568-6.364H84.605Z" transform="translate(-0.583 -12.602)"/><path class="d" d="M22.6,72.473l7.581,67.965H65.4l6.65-68.666L68.559,69.18l-42.021.138Z" transform="translate(-1.756 -5.374)"/><path class="c" d="M62.184,136.839h-29L25.07,49.773,38.5,46.48H57.24l13.18,3.293Z" transform="translate(-1.948 -3.611)"/><path class="e" d="M38.662,48.27l1.586,88.708H33.322L26.81,51.517Z" transform="translate(-2.083 -3.75)"/><path class="a" d="M42.8,50.88H55.307l-1.66,84.447H44.469Z" transform="translate(-3.325 -3.953)"/><path class="f" d="M53.646,135.327l1.66-84.447H42.8l1.669,84.447.655-.046-1.411-83.5,10.763.083-1.282,83.46Z" transform="translate(-3.325 -3.953)"/><path class="f" d="M58.671,47.98l-2.592,88.395-22.209.581H61.641l7.9-86.3Z" transform="translate(-2.631 -3.727)"/><path class="e" d="M10.03,167.988l1.033-4.778H26.041l-.387,4.778Z" transform="translate(-0.779 -12.679)"/><path class="e" d="M27.75,167.988h5.857V163.21h-5.4Z" transform="translate(-2.156 -12.679)"/><path class="f" d="M71.905,162.96l.775,3.994L7.5,168.641H85.168l-2.49-5.681Z" transform="translate(-0.583 -12.66)"/><path class="g" d="M9.34,84.349l13.152,63.1H71.255L85.1,85.059l-.231-.194L71.024,147.011H22.861L9.617,84.1Z" transform="translate(-0.726 -6.533)"/><path class="d" d="M9.64,84.067l13.244,62.911H71.048L84.892,84.832l-.3-.267-13.761,62.21H23.263L10.1,83.67Z" transform="translate(-0.749 -6.5)"/><path class="e" d="M1.69,92.557l10.717,43.579,4.676-1.909L7.676,87.89Z" transform="translate(-0.131 -6.828)"/><path class="e" d="M13.68,141.244l1.863,7.637,4.335-1.134-1.863-8.476Z" transform="translate(-1.063 -10.819)"/><rect class="a" width="15.31" height="3.293" transform="translate(38.138 39.576)"/><path class="a" d="M43.1,42.739l.839-2.029H54.02l.756,2.029Z" transform="translate(-3.348 -3.163)"/><path class="a" d="M47.02,40.193,48.542,27.52h2.306l1.669,12.673Z" transform="translate(-3.653 -2.138)"/><path class="a" d="M50.123,26.636H49.56V0h.415Z" transform="translate(-3.85)"/><path class="e" d="M43.76,42.514l.47-1.254H47.68l-.231,1.254Z" transform="translate(-3.4 -3.205)"/><path class="e" d="M48.892,27.89,47.49,39.3h1.061L49.4,27.89Z" transform="translate(-3.689 -2.167)"/><path class="e" d="M48.13,42.514l.221-1.254h.978l-.083,1.254Z" transform="translate(-3.739 -3.205)"/><path class="h" d="M50.71,27.89,51.263,39.3h1.254L50.977,27.89Z" transform="translate(-3.939 -2.167)"/><path class="h" d="M51.69,41.03h2.739l.719,1.466H51.69Z" transform="translate(-4.016 -3.187)"/><rect class="i" width="0.424" height="3.108" transform="translate(45.71 1.697)"/><path class="i" d="M49.56,8.64h.461l.018,4.4h-.48Z" transform="translate(-3.85 -0.671)"/><rect class="j" width="0.507" height="4.667" transform="translate(45.71 16.27)"/><path class="a" d="M54.484,40.1H54.06V26.31h.314Z" transform="translate(-4.2 -2.044)"/><rect class="k" width="0.323" height="2.343" transform="translate(49.86 25.548)"/><path class="i" d="M54.06,32.83h.35l.018,3.32H54.06Z" transform="translate(-4.2 -2.55)"/><path class="a" d="M45.374,39.622H44.95V20.17h.314Z" transform="translate(-3.492 -1.567)"/><path class="i" d="M44.95,28.53h.35l.018,4.252H44.95Z" transform="translate(-3.492 -2.216)"/><rect class="e" width="6.06" height="2.444" transform="translate(38.931 40.102)"/><path class="l" d="M79.192,77.97l6.539,5.654L83.038,96.739,77.31,94.1Z" transform="translate(-6.006 -6.057)"/><path class="m" d="M18.17,111.658l5.506-4.058,4.575,34.08-3.911.627Z" transform="translate(-1.412 -8.359)"/><path class="n" d="M82.69,153.607H77.35l4.5-18.677H87.3Z" transform="translate(-6.009 -10.482)"/><path class="d" d="M81.851,134.875l-4.5,18.677,4.04-19.332,6.65.267L82.69,153.552,87.3,134.875Z" transform="translate(-6.009 -10.427)"/><path class="d" d="M77.31,94.03,79.192,77.9l6.539,5.654-2.776,13.5,3.652-13.9L78.73,77.05Z" transform="translate(-6.006 -5.986)"/><path class="d" d="M24.273,142.183,18.1,111.535l5.506-4.058,4.575,34.079L23.923,106.01l-6.613,5.036Z" transform="translate(-1.345 -8.236)"/></g></g></svg>