<svg xmlns="http://www.w3.org/2000/svg" xmlns:xlink="http://www.w3.org/1999/xlink" width="203.62" height="139.273" viewBox="0 0 203.62 139.273"><defs><style>.a{fill:url(#a);}.b{fill:#451533;}.c{fill:#fff;}.d{fill:#3b1544;}.ad,.d{opacity:0.53;}.e{fill:url(#c);}.f{fill:url(#d);}.g{fill:#610431;opacity:0.28;}.h{fill:#88003b;}.h,.x{opacity:0.25;}.i{fill:#fff5ce;}.j,.k,.x{fill:url(#f);}.k{opacity:0.54;}.l{fill:#0f1132;}.ae,.m{fill:#2effa6;}.n,.r{fill:#0c107f;}.n,.z{opacity:0.35;}.o,.p{fill:#1a2023;}.o{opacity:0.42;}.ae,.p{opacity:0.55;}.q{fill:#33373b;opacity:0.95;}.s{fill:#592e49;}.t{fill:#0f0022;}.u{fill:#595c7e;}.v{fill:url(#o);}.w{fill:url(#p);}.y{fill:url(#z);}.ad,.z{fill:#9a313b;}.aa{fill:url(#aa);}.ab{fill:url(#ab);}.ac{fill:#54585b;}.af{fill:#ffffd8;}</style><radialGradient id="a" cx="0.5" cy="0.5" r="0.5" gradientUnits="objectBoundingBox"><stop offset="0" stop-color="#efefa9"/><stop offset="1" stop-color="#57cba1"/></radialGradient><linearGradient id="c" x1="3184.681" y1="1" x2="3184.681" gradientUnits="objectBoundingBox"><stop offset="0" stop-color="#efefa9"/><stop offset="1" stop-color="#7fe1a6"/></linearGradient><linearGradient id="d" x1="4155.691" y1="1" x2="4155.691" y2="0" xlink:href="#c"/><linearGradient id="f" x1="0.5" x2="0.5" y2="1" gradientUnits="objectBoundingBox"><stop offset="0" stop-color="#1a2023"/><stop offset="1" stop-color="#4d5258"/></linearGradient><linearGradient id="o" x1="85.112" y1="-48.097" x2="85.77" y2="-48.382" gradientUnits="objectBoundingBox"><stop offset="0.03" stop-color="#fcf9db"/><stop offset="0.45" stop-color="#659aaf"/></linearGradient><linearGradient id="p" x1="80.592" y1="0.5" x2="81.589" y2="0.5" gradientUnits="objectBoundingBox"><stop offset="0.55" stop-color="#659aaf"/><stop offset="0.97" stop-color="#fcf9db"/></linearGradient><radialGradient id="z" cx="0.5" cy="0.5" r="0.383" gradientTransform="translate(-0.709) scale(2.417 1)" gradientUnits="objectBoundingBox"><stop offset="0.03" stop-color="#09635e"/><stop offset="1" stop-color="#222343"/></radialGradient><linearGradient id="aa" x1="0.5" x2="0.5" y2="1" gradientUnits="objectBoundingBox"><stop offset="0" stop-color="#a8ff78"/><stop offset="1" stop-color="#78ffd6"/></linearGradient><radialGradient id="ab" cx="0.5" cy="0.5" r="0.412" gradientTransform="translate(-0.333) scale(1.667 1)" xlink:href="#z"/></defs><g transform="translate(0)"><path class="a" d="M49.621,54.81l-15.111,7.5,1.617,15.2.6.146-.6-15.387,13.653-6.528Z" transform="translate(15.776 25.056)"/><path class="a" d="M63.828,55.83H62.036L54.59,61.44l.962,13.974,1.282.1V61.863Z" transform="translate(24.955 25.522)"/><rect class="b" width="9.952" height="2.142" transform="translate(67.83 27.86) rotate(180)"/><path class="b" d="M48.207,18.051l-.539-1.311H41.111l-.481,1.311Z" transform="translate(18.573 7.652)"/><path class="b" d="M45.34,19.538l-.991-8.218h-1.5L41.77,19.538Z" transform="translate(19.095 5.175)"/><path class="b" d="M42.93,17.3h.364V0h-.277Z" transform="translate(19.625)"/><path class="c" d="M46.355,17.791l-.306-.831H43.82l.131.831Z" transform="translate(20.032 7.753)"/><path class="c" d="M43.5,11.47l.918,7.4h-.7l-.539-7.4Z" transform="translate(19.739 5.243)"/><path class="c" d="M44.017,17.791l-.146-.831H43.23l.058.831Z" transform="translate(19.762 7.753)"/><path class="d" d="M43.066,11.47l-.364,7.4h-.8l1.005-7.4Z" transform="translate(19.154 5.243)"/><path class="d" d="M43,16.87H41.226l-.466.962H43Z" transform="translate(18.633 7.712)"/><path class="e" d="M43.266,3.55h-.291L42.96,6.406h.306Z" transform="translate(19.639 1.623)"/><path class="b" d="M41.14,19.767h.277V10.82h-.2Z" transform="translate(18.807 4.946)"/><path class="b" d="M44.88,20.923h.277V8.29h-.2Z" transform="translate(20.516 3.79)"/><path class="f" d="M45.143,11.73h-.219L44.91,14.5h.233Z" transform="translate(20.53 5.362)"/><rect class="c" width="3.934" height="1.588" transform="translate(63.385 26.054)"/><path class="b" d="M84.081,15.43H82.988l-.758,4.75.321-.146Z" transform="translate(37.59 7.054)"/><path class="b" d="M71.6,13.15h-.845l-.073,4.765L71,17.769Z" transform="translate(32.31 6.011)"/><ellipse class="g" cx="101.81" cy="2.361" rx="101.81" ry="2.361" transform="translate(0 134.552)"/><path class="a" d="M76.162,99.248,76.4,71.781a67.29,67.29,0,0,1,20.691,0h0C103.862,72.393,109.2,79.416,109.2,88a19.335,19.335,0,0,1-1.268,6.965c-1.865,4.881-5.639,8.437-10.2,9.151h0c-4.371,1.239-14.761,1.035-21.668,0Z" transform="translate(34.77 32.448)"/><path class="h" d="M76.1,98.82c6.907.991,17.3,1.195,21.668,0h0c4.488-.714,8.262-4.269,10.2-9.151a28.356,28.356,0,0,1-10.375-2.229,22.528,22.528,0,0,1-7.067-4.779l-6.8,5.319-7.592,5.931Z" transform="translate(34.788 37.787)"/><ellipse class="i" cx="13.085" cy="16.262" rx="13.085" ry="16.262" transform="translate(99.173 104.171)"/><path class="j" d="M68.88,87.277c0,8.16,5.319,14.775,11.89,14.775a10.739,10.739,0,0,0,8.043-3.891,16.393,16.393,0,0,0,3.832-10.317q0-.284,0-.568v-.8c-.277-6.295-3.716-11.555-8.379-13.274a10.111,10.111,0,0,0-3.5-.641C74.2,72.487,68.88,79.1,68.88,87.277Z" transform="translate(31.488 33.17)"/><path class="k" d="M68.88,87.3c0,8.16,5.319,14.775,11.89,14.775a10.739,10.739,0,0,0,8.043-3.891c-4.371-.772-8.451-6.6-7.694-14.717.831-8.743,3.147-10.317,3.147-10.317a10.112,10.112,0,0,0-3.5-.641C74.2,72.51,68.88,79.125,68.88,87.3Z" transform="translate(31.488 33.147)"/><path class="l" d="M77.25,82.11v1.37H88.82V82.11Z" transform="translate(35.314 37.535)"/><ellipse class="l" cx="5.697" cy="7.096" rx="5.697" ry="7.096" transform="translate(111.908 112.928)"/><ellipse class="m" cx="5.697" cy="7.096" rx="5.697" ry="7.096" transform="translate(111.238 112.928)"/><path class="l" d="M76.63,84.327c0,3.453,2.244,6.251,5.027,6.251H81.9c2.667-.175,4.779-2.914,4.779-6.251S84.571,78.25,81.9,78.09h-.248C78.874,78.075,76.63,80.873,76.63,84.327Z" transform="translate(35.03 35.698)"/><path class="j" d="M77,84.327c0,3.337,2.113,6.076,4.779,6.251h0c2.667-.175,4.779-2.914,4.779-6.251s-2.113-6.076-4.779-6.237h0C79.069,78.25,77,80.99,77,84.327Z" transform="translate(35.199 35.698)"/><path class="m" d="M104.457,87.144H97.8L94.942,81l-9.122-.525V80.15l9.326.554,2.885,6.033,6.47.16Z" transform="translate(39.231 36.639)"/><path class="m" d="M97,94.368h-6.12L89.666,90.9h-6.5l-.277.306,6.528-.087L90.7,94.63h5.552Z" transform="translate(37.892 41.554)"/><path class="m" d="M78.949,71.688l15.125-.044,6.178,3.585,4.24.554-.393-.423-3.745-.393-6.28-3.526-17.034.087Z" transform="translate(35.218 32.658)"/><path class="n" d="M82.981,91.137l6.528-.087,1.282,3.512h5.552l-.816.233-5.144-.073-1.137-3.381-6.557.1Z" transform="translate(37.801 41.622)"/><path class="n" d="M104.369,87.554l-6.761-.233-2.987-6.105-8.714-.335-.087-.51,9.122.525L97.8,87.044h6.659Z" transform="translate(39.231 36.74)"/><path class="n" d="M79.385,71.871,93.3,71.74l6.207,3.745,4.517.379-.131-.146-4.24-.554L93.475,71.58l-15.125.044Z" transform="translate(35.817 32.722)"/><path class="a" d="M100.747,99.248l.233-27.467a67.379,67.379,0,0,1,20.706,0h0c6.761.612,12.094,7.635,12.094,16.218a19.658,19.658,0,0,1-1.253,6.965c-1.865,4.881-5.639,8.437-10.2,9.151h0c-4.371,1.239-14.761,1.035-21.668,0Z" transform="translate(46.015 32.448)"/><path class="h" d="M100.69,98.806c6.907.991,17.3,1.195,21.668,0h0c4.5-.714,8.277-4.269,10.2-9.151a28.427,28.427,0,0,1-10.389-2.229,22.469,22.469,0,0,1-6.98-4.736l-6.819,5.319-7.592,5.931Z" transform="translate(46.029 37.801)"/><ellipse class="i" cx="13.085" cy="16.262" rx="13.085" ry="16.262" transform="translate(135.004 104.171)"/><path class="j" d="M93.47,87.3c0,8.16,5.319,14.775,11.89,14.775a10.681,10.681,0,0,0,8.043-3.891,16.5,16.5,0,0,0,3.847-10.317V86.5c-.262-6.295-3.7-11.555-8.379-13.347a10.113,10.113,0,0,0-3.5-.641C98.789,72.51,93.47,79.125,93.47,87.3Z" transform="translate(42.729 33.147)"/><path class="k" d="M93.47,87.3c0,8.16,5.319,14.775,11.89,14.775a10.681,10.681,0,0,0,8.043-3.891c-4.371-.772-8.451-6.6-7.694-14.717.831-8.743,3.147-10.317,3.147-10.317a10.112,10.112,0,0,0-3.5-.641C98.789,72.51,93.47,79.125,93.47,87.3Z" transform="translate(42.729 33.147)"/><path class="l" d="M101.84,82.11v1.37H113.5V82.11Z" transform="translate(46.555 37.535)"/><ellipse class="l" cx="5.697" cy="7.096" rx="5.697" ry="7.096" transform="translate(147.754 112.928)"/><path class="m" d="M100.93,84.6c0,3.92,2.55,7.1,5.7,7.1s5.712-3.177,5.712-7.1-2.565-7.1-5.712-7.1S100.93,80.677,100.93,84.6Z" transform="translate(46.139 35.428)"/><path class="l" d="M101.22,84.327c0,3.453,2.244,6.251,5.027,6.251h.262c2.652-.175,4.765-2.914,4.765-6.251s-2.113-6.076-4.765-6.237h-.262C103.464,78.075,101.22,80.873,101.22,84.327Z" transform="translate(46.271 35.698)"/><path class="j" d="M101.57,84.327c0,3.337,2.113,6.076,4.765,6.251h0c2.652-.175,4.765-2.914,4.765-6.251s-2.113-6.076-4.765-6.237h0C103.654,78.25,101.57,80.99,101.57,84.327Z" transform="translate(46.431 35.698)"/><path class="m" d="M129.042,87.144h-6.659L119.527,81l-9.107-.525V80.15l9.311.554,2.9,6.033,6.455.16Z" transform="translate(50.477 36.639)"/><path class="m" d="M121.6,94.368h-6.12L114.251,90.9h-6.484l-.277.306,6.528-.087,1.268,3.512h5.552Z" transform="translate(49.138 41.554)"/><path class="m" d="M103.553,71.688l15.125-.044,6.164,3.585,4.255.554-.408-.423-3.745-.393-6.266-3.526-17.048.087Z" transform="translate(46.459 32.658)"/><path class="n" d="M107.586,91.137l6.528-.087,1.268,3.512h5.552l-.816.233-5.129-.073-1.151-3.381-6.557.1Z" transform="translate(49.042 41.622)"/><path class="n" d="M128.955,87.554l-6.747-.233-3-6.105-8.714-.335-.073-.51,9.107.525,2.856,6.149h6.659Z" transform="translate(50.477 36.74)"/><path class="n" d="M103.985,71.871l13.9-.131,6.222,3.745,4.5.379-.117-.146-4.255-.554-6.164-3.585-15.125.044Z" transform="translate(47.062 32.722)"/><path class="b" d="M52.491,11.12,49.11,17.4h.539l3.337-5.858Z" transform="translate(22.45 5.083)"/><path class="o" d="M119.565,34.1,112.4,51.556,69.95,50.507l6.178-21Z" transform="translate(31.977 13.49)"/><path class="j" d="M72.569,43.92,64.22,48.845l41.791.845,9.005-4.721Z" transform="translate(29.357 20.077)"/><path class="p" d="M124.489,41.661,99.149,20.066,59.18,12.97l21.872,24.1Z" transform="translate(27.053 5.929)"/><path class="p" d="M72.844,12.97,44.532,18.595,29.29,45.26,46,71.926h35.03l-.845-8.932h0l8.349-4.925,6.178-21Z" transform="translate(13.39 5.929)"/><path class="a" d="M106.011,48.145v7.329l-40.946.758L64.22,47.3Z" transform="translate(29.357 21.623)"/><path class="q" d="M78,55.679l-35.612.991L35.8,45.217l49.761-1.3-8.349,4.925Z" transform="translate(16.365 20.077)"/><path class="r" d="M68.73,55.73h0Z" transform="translate(31.419 25.476)"/><path class="s" d="M87.617,18.58V13.6L61.84,8.54v5.931Z" transform="translate(28.269 3.904)"/><path class="t" d="M69.49,54.74l13.362,9.617,2.4,31.314H86l.583-33.47L73.249,54.74Z" transform="translate(31.766 25.024)"/><path class="t" d="M86.58,54.46l20.56,12.094L111.716,95.8l1.137-.248L110,64.879,90.339,54.46Z" transform="translate(39.579 24.896)"/><path class="t" d="M68.079,54.83l-7.446,8.364L57.383,89.656l-.991-.044L56.13,62.32,64.7,54.932Z" transform="translate(25.659 25.065)"/><path class="t" d="M57.637,55.025l-17.85,9.034L38.126,90.448,36.7,90.142,35.62,62.719,54.242,53.83Z" transform="translate(16.283 24.608)"/><path class="b" d="M60.82,8.54h1.486v5.931l-1.486-.291Z" transform="translate(27.803 3.904)"/><path class="m" d="M86.087,17.368V13.711L62.7,9.15v4.415Z" transform="translate(28.662 4.183)"/><path class="s" d="M81.3,17.012l1.093-5.042,7.8,1.938-1.851,4.284Z" transform="translate(37.165 5.472)"/><path class="b" d="M82.626,11.97H81.533l-.743,4.75.743.291Z" transform="translate(36.932 5.472)"/><path class="m" d="M87.73,17.491l1.676-3.468-6.586-1.6L81.77,16.456Z" transform="translate(37.38 5.678)"/><path class="b" d="M53.8,19.1V3.19h-.16L53.42,19.175Z" transform="translate(24.42 1.458)"/><path class="u" d="M53.374,14.293c3.191,2.331,6.79,2.827,8.043,1.107s-.306-5-3.5-7.286-6.8-2.827-8.058-1.107S50.256,11.962,53.374,14.293Z" transform="translate(22.601 2.741)"/><path class="t" d="M112.8,53.078l-3.06,4.051-67,.233L41.92,52.67Z" transform="translate(19.163 24.077)"/><path class="v" d="M53.68,13.9c3.191,2.331,6.8,2.827,8.058,1.107S61.418,10,58.227,7.723s-6.79-2.871-8.087-1.151S50.489,11.569,53.68,13.9Z" transform="translate(22.717 2.55)"/><path class="w" d="M53.586,13.54c3,2.2,6.4,2.667,7.577,1.049S60.857,9.883,57.855,7.7s-6.339-2.652-7.563-1.035S50.6,11.354,53.586,13.54Z" transform="translate(22.797 2.605)"/><path class="c" d="M74.992,58.068l6.178-21L59.3,12.97H58.92L80.384,36.94l.058.787Z" transform="translate(26.934 5.929)"/><path class="a" d="M16.585,99.554l.248-29.565c4.036-1.02,15.81-1.341,22.294,0h0c7.286.67,13.027,8.233,13.027,17.486a20.939,20.939,0,0,1-1.355,7.5c-2.011,5.26-6.076,9.093-10.914,9.85h0c-4.707,1.341-15.883,1.122-23.314,0Z" transform="translate(7.575 31.588)"/><path class="x" d="M16.55,99.095c7.446,1.064,18.622,1.282,23.314,0h0c4.838-.758,8.9-4.59,10.914-9.85A30.468,30.468,0,0,1,39.6,86.855a24.291,24.291,0,0,1-7.519-5.115L24.8,87.481l-8.2,6.295Z" transform="translate(7.566 37.366)"/><ellipse class="b" cx="14.076" cy="17.5" rx="14.076" ry="17.5" transform="translate(11.511 101.548)"/><path class="j" d="M8.78,86.692c0,8.743,5.727,15.927,12.794,15.927a11.5,11.5,0,0,0,8.655-4.2,17.588,17.588,0,0,0,4.138-11.1V85.847c-.291-6.79-3.993-12.444-9.034-14.382a10.811,10.811,0,0,0-3.759-.685C14.507,70.78,8.78,77.905,8.78,86.692Z" transform="translate(4.014 32.356)"/><path class="k" d="M8.78,86.692c0,8.743,5.727,15.927,12.794,15.927a11.5,11.5,0,0,0,8.655-4.2c-4.707-.831-9.093-7.111-8.277-15.839.9-9.369,3.381-11.118,3.381-11.118a10.812,10.812,0,0,0-3.759-.685C14.507,70.78,8.78,77.905,8.78,86.692Z" transform="translate(4.014 32.356)"/><path class="l" d="M17.79,81.125v1.457H30.249V81.11Z" transform="translate(8.132 37.078)"/><ellipse class="l" cx="6.135" cy="7.635" rx="6.135" ry="7.635" transform="translate(25.223 110.976)"/><ellipse class="m" cx="6.135" cy="7.635" rx="6.135" ry="7.635" transform="translate(24.494 110.976)"/><path class="l" d="M17.12,83.5c0,3.716,2.419,6.732,5.421,6.732h.233C25.688,90.04,27.9,87.1,27.9,83.5s-2.215-6.528-5.129-6.717H22.5C19.539,76.78,17.12,79.8,17.12,83.5Z" transform="translate(7.826 35.099)"/><path class="j" d="M17.49,83.5c0,3.6,2.273,6.543,5.144,6.732h0c2.914-.189,5.129-3.133,5.129-6.732S25.519,76.969,22.6,76.78h0C19.763,76.969,17.49,79.913,17.49,83.5Z" transform="translate(7.995 35.099)"/><path class="m" d="M47.07,86.533H39.916l-3.075-6.615L27.02,79.35V79l10.025.6,3.118,6.5,6.965.175Z" transform="translate(12.352 36.114)"/><path class="m" d="M39.053,94.31H32.467l-1.311-3.73H24.161l-.291.335,7.023-.117,1.37,3.8h5.974Z" transform="translate(10.912 41.407)"/><path class="m" d="M19.629,69.892l16.276-.058L42.55,73.71l4.575.6-.423-.466-4.036-.423L35.905,69.63l-18.345.087Z" transform="translate(8.027 31.83)"/><path class="c" d="M28.959,76.657A22.586,22.586,0,0,0,22.11,70.61l16.99.248a17.282,17.282,0,0,1,6.441,6.251Z" transform="translate(10.107 32.278)"/><path class="c" d="M27.23,75.63H43.2l.627,1.53H27.784Z" transform="translate(12.448 34.573)"/><path class="n" d="M23.971,90.847l7.023-.117,1.37,3.8h5.974l-.874.233-5.523-.073-1.224-3.643-7.067.117Z" transform="translate(10.811 41.476)"/><path class="n" d="M46.983,86.963l-7.271-.233-3.22-6.586-9.384-.364-.087-.539,9.821.568,3.075,6.615H47.07Z" transform="translate(12.352 36.223)"/><path class="n" d="M20.087,70.091l14.979-.146,6.688,4.036,4.852.408-.131-.146-4.575-.6L35.256,69.77l-16.276.058Z" transform="translate(8.676 31.894)"/><path class="a" d="M43.065,99.554l.248-29.565c4.036-1.02,15.81-1.341,22.294,0h0c7.286.67,13.027,8.233,13.027,17.486a20.939,20.939,0,0,1-1.355,7.5c-2.011,5.26-6.076,9.093-10.914,9.85h0c-4.707,1.341-15.9,1.122-23.314,0Z" transform="translate(19.68 31.588)"/><path class="h" d="M43,99.113c7.431,1.064,18.622,1.282,23.314,0h0c4.838-.758,8.9-4.59,10.914-9.85a30.6,30.6,0,0,1-11.191-2.39A24.451,24.451,0,0,1,58.591,81.7l-7.286,5.741-8.218,6.353Z" transform="translate(19.657 37.348)"/><ellipse class="i" cx="14.076" cy="17.5" rx="14.076" ry="17.5" transform="translate(50.096 101.548)"/><path class="j" d="M35.25,86.692c0,8.743,5.741,15.927,12.808,15.927a11.5,11.5,0,0,0,8.685-4.2,17.587,17.587,0,0,0,4.138-11.1c0-.2,0-.423,0-.627v-.845c-.291-6.79-4.007-12.444-9.034-14.382A10.885,10.885,0,0,0,48,70.78C40.991,70.78,35.25,77.905,35.25,86.692Z" transform="translate(16.114 32.356)"/><path class="k" d="M35.25,86.692c0,8.743,5.741,15.927,12.808,15.927a11.5,11.5,0,0,0,8.685-4.2c-4.707-.831-9.093-7.111-8.277-15.839.889-9.369,3.381-11.118,3.381-11.118A10.885,10.885,0,0,0,48,70.78C40.991,70.78,35.25,77.905,35.25,86.692Z" transform="translate(16.114 32.356)"/><path class="l" d="M44.27,81.125v1.457H56.729V81.11Z" transform="translate(20.237 37.078)"/><path class="l" d="M43.78,83.8c0,4.211,2.754,7.635,6.149,7.635s6.135-3.424,6.135-7.635-2.739-7.65-6.135-7.65S43.78,79.574,43.78,83.8Z" transform="translate(20.013 34.811)"/><path class="m" d="M43.29,83.8c0,4.211,2.739,7.635,6.135,7.635s6.135-3.424,6.135-7.635-2.739-7.65-6.135-7.65S43.29,79.574,43.29,83.8Z" transform="translate(19.789 34.811)"/><path class="l" d="M43.6,83.5c0,3.716,2.419,6.732,5.406,6.732h.277C52.2,90.04,54.427,87.1,54.427,83.5s-2.273-6.528-5.144-6.717h-.277C46.019,76.78,43.6,79.8,43.6,83.5Z" transform="translate(19.931 35.099)"/><path class="j" d="M44,83.5c0,3.6,2.273,6.543,5.144,6.732h0c2.914-.189,5.144-3.133,5.144-6.732s-2.273-6.528-5.144-6.717h0C46.229,76.969,44,79.913,44,83.5Z" transform="translate(20.114 35.099)"/><path class="m" d="M73.55,86.533H66.4l-3.089-6.615L53.5,79.35V79l10.025.6,3.118,6.5,6.951.175Z" transform="translate(24.457 36.114)"/><path class="m" d="M65.538,94.31h-6.6l-1.311-3.73h-6.98l-.306.335,7.038-.117,1.37,3.8h5.974Z" transform="translate(23.012 41.407)"/><path class="m" d="M46.109,69.892l16.276-.058L69.03,73.71l4.575.6-.423-.466-4.036-.423L62.385,69.63l-18.345.087Z" transform="translate(20.132 31.83)"/><path class="c" d="M55.439,76.657A22.761,22.761,0,0,0,48.59,70.61l16.976.248a17.282,17.282,0,0,1,6.455,6.251Z" transform="translate(22.212 32.278)"/><path class="c" d="M53.7,75.63H69.685l.627,1.53H54.268Z" transform="translate(24.548 34.573)"/><path class="n" d="M50.436,90.847l7.038-.117,1.37,3.8h5.974l-.874.233-5.537-.073-1.224-3.643-7.053.117Z" transform="translate(22.916 41.476)"/><path class="n" d="M73.463,86.963l-7.271-.233-3.22-6.586-9.384-.364L53.5,79.24l9.807.568L66.4,86.424H73.55Z" transform="translate(24.457 36.223)"/><path class="n" d="M46.567,70.091l14.979-.146,6.688,4.036,4.852.408-.131-.146-4.575-.6L61.736,69.77l-16.276.058Z" transform="translate(20.781 31.894)"/><path class="c" d="M95.134,54.566V48.3H86.77l.131,6.368Z" transform="translate(39.666 22.08)"/><path class="c" d="M87.591,48.3H83.7l.379,6.266,3.512-.073Z" transform="translate(38.262 22.08)"/><path class="y" d="M85.435,95.218h-1.02L81.923,64.6,69.1,55.73l2.7.087L83.03,63.9Z" transform="translate(31.588 25.476)"/><path class="z" d="M72.585,47.88v6.28l33.092,1.049-39.066-.35L64.95,47.88Z" transform="translate(29.691 21.888)"/><path class="aa" d="M77.762,33.889l-5.712-5.9,5.858-10.8,6.586.962,21.012,12.211,7.548,7.155Z" transform="translate(32.937 7.858)"/><path class="t" d="M75.7,18.2l6.951.729,20.4,12.269,6,6.091,2.331.233-7.548-7.155L82.825,18.152l-6.586-.962Z" transform="translate(34.605 7.858)"/><path class="z" d="M54.59,61.44l2.244.423,6.994-6.033H62.036Z" transform="translate(24.955 25.522)"/><path class="z" d="M34.51,62.314l1.617-.044,13.653-6.528-.16-.933Z" transform="translate(15.776 25.056)"/><path class="ab" d="M111.318,95.269l-.962.131L105.14,66.913,87.45,55.78h1.472l.117-.16,17.7,10.4Z" transform="translate(39.977 25.426)"/><path class="ac" d="M36.608,22.377,70.122,18.02,83.834,32.285l-10.8,19.351-39.547.918-7.14-9.588Z" transform="translate(12.046 8.238)"/><path class="t" d="M31.25,48.079,35.3,49.39l36.647-.816,9.646-17.762v-3L70.8,47.161Z" transform="translate(14.286 12.713)"/><path class="m" d="M28.99,46.058l32.713-.8,8.379-14.105-9.836-8.218L33.259,24.609l.16-.306L60.3,22.54l10.3,8.612L62.125,45.606l-32.888.787Z" transform="translate(13.252 10.304)"/><path class="ad" d="M29.059,45.935l32.713-.8L70.15,31.028,60.314,22.81,33.328,24.486l-.117.262,27.03-1.515,9.326,7.8-8,13.683-32.727.933Z" transform="translate(13.184 10.427)"/><path class="a" d="M31.45,28.674,58.669,26.94l4.721,3.745-3.876,6.076L26.35,38.889Z" transform="translate(12.046 12.315)"/><path class="z" d="M29.69,29.14l27.452-1.734,4.517,3.6.2-.321L57.142,26.94,29.923,28.674Z" transform="translate(13.572 12.315)"/><path class="c" d="M33.21,22.916l33.66-4.3L80.013,32.285,69.9,51.636,80.7,32.285,66.986,18.02,33.472,22.377Z" transform="translate(15.181 8.238)"/><path class="ae" d="M75.49,49.271,79.1,36.3,97.449,32.66,111.481,39.1l-4.036,10.958-.291-.029L111,39.421,97.449,33.083l-18.01,3.57-3.7,12.619Z" transform="translate(34.509 14.93)"/><path class="ad" d="M75.66,49.139l3.7-12.619,18.01-3.57,13.551,6.339L107.076,49.9H106.8l3.789-10.346L97.357,33.314,79.638,36.68,75.922,49.153Z" transform="translate(34.587 15.063)"/><path class="af" d="M47.594,71.926,37.788,56.174l-4.051-1.311L26.6,45.275,36.855,24.685l6.237-.8,3.031-5.289L74.435,12.97l-28.72,5.493-3,4.925-6.12.772L25.81,45.828l7.329,9.34,4.24,1.53Z" transform="translate(11.799 5.929)"/><path class="af" d="M63.28,13.7l34,6.033,25.34,21.595-7.169,17.456L123.5,41.327,97.814,19.091Z" transform="translate(28.928 6.263)"/></g></svg>