<svg xmlns="http://www.w3.org/2000/svg" width="26.284" height="19.861" viewBox="0 0 26.284 19.861"><defs><style>.a{fill:#fff;}</style></defs><ellipse class="a" cx="4.837" cy="4.836" rx="4.837" ry="4.836" transform="translate(2.766 1.811)"/><path class="a" d="M13.639,29.345,11.26,32.467,10.985,31a.831.831,0,0,0,.681-.81.842.842,0,0,0-.842-.842H9.543a.843.843,0,0,0-.843.842.832.832,0,0,0,.681.81l-.274,1.471L6.727,29.345a5.075,5.075,0,0,0-2.978,1.684c-.775.939-1.167,3.163-1.167,5.7h15.2c0-2.537-.392-4.761-1.165-5.7A5.076,5.076,0,0,0,13.639,29.345Z" transform="translate(-2.582 -16.867)"/><ellipse class="a" cx="4.309" cy="4.309" rx="4.309" ry="4.309" transform="translate(15.202 0)"/><path class="a" d="M37.215,25.771a4.521,4.521,0,0,0-2.655-1.5L32.44,27.052l-.244-1.31a.74.74,0,0,0,.606-.721.75.75,0,0,0-.75-.75h-1.14a.75.75,0,0,0-.75.75.74.74,0,0,0,.607.721l-.244,1.31L28.4,24.27a4.517,4.517,0,0,0-2.654,1.5,3.116,3.116,0,0,0-.478.9A5.952,5.952,0,0,1,27.011,28.1a6.4,6.4,0,0,1,1.128,2.747H38.254C38.254,28.588,37.905,26.607,37.215,25.771Z" transform="translate(-11.971 -14.768)"/></svg>