<svg width="22" height="33" viewBox="0 0 22 33" fill="none" xmlns="http://www.w3.org/2000/svg">
<path d="M15.8015 26.0521C16.3579 24.5833 16.785 22.8687 17.0697 20.9663C17.0761 20.9404 17.0826 20.9145 17.0891 20.8821C17.3415 19.1934 17.4708 17.3881 17.4708 15.5181C17.4708 7.15805 11.7314 0.493311 11.4855 0.208643C11.2397 -0.0695478 10.7608 -0.0695478 10.515 0.208643C10.2691 0.493311 4.52966 7.15805 4.52966 15.5181C4.52966 17.3881 4.65908 19.1934 4.91145 20.8821C4.91792 20.9145 4.9244 20.9404 4.93088 20.9663C5.21558 22.8687 5.63615 24.5704 6.18617 26.0328C6.19261 26.0521 6.19909 26.078 6.20556 26.1039C6.61321 27.1715 7.08555 28.0969 7.60319 28.8475C7.7197 29.0222 7.92028 29.1257 8.13379 29.1257H13.8603C14.0738 29.1257 14.2679 29.0222 14.3909 28.8539C14.902 28.1163 15.3679 27.191 15.782 26.1039C15.7885 26.0845 15.795 26.0716 15.8015 26.0521ZM13.5885 19.4004C13.5885 19.7627 13.2973 20.0475 12.9414 20.0475H9.05907C8.7032 20.0475 8.41202 19.7627 8.41202 19.4004V13.5833C8.41202 13.4151 8.47675 13.2534 8.59969 13.1304C9.35674 12.3669 9.77734 11.9398 10.5473 11.1827C10.7997 10.9305 11.2073 10.9369 11.4597 11.1892L13.4009 13.1304C13.5173 13.2469 13.5885 13.4151 13.5885 13.5833V19.4004Z" fill="#5B5E61"/>
<path d="M4.96945 26.4986L4.95002 26.4275C4.38708 24.9133 3.95356 23.1533 3.6559 21.1992L3.64294 21.1281C3.5653 20.591 3.49413 20.0539 3.44236 19.5104C1.3718 20.6104 0 22.791 0 25.2239V30.4004C0 31.1704 0.452949 31.8627 1.14531 32.1733C1.39119 32.2834 1.65003 32.3416 1.94118 32.3416C2.42003 32.3416 2.8859 32.1669 3.2612 31.8239L6.21827 29.0804C5.76532 28.3557 5.35767 27.508 4.99531 26.5633L4.96945 26.4986Z" fill="#5B5E61"/>
<path d="M18.5576 19.5171C18.5123 20.0476 18.4476 20.5652 18.37 21.0764L18.3441 21.1929C18.0464 23.1729 17.6 24.9653 17.0112 26.5118C16.6294 27.5146 16.2217 28.3688 15.7817 29.087L18.7582 31.8435C19.1141 32.167 19.58 32.3418 20.0588 32.3418C20.3435 32.3418 20.6153 32.2835 20.8417 32.18C21.5471 31.8693 22 31.1705 22 30.4006V25.2241C22 22.7976 20.6282 20.6106 18.5576 19.5171Z" fill="#5B5E61"/>
</svg>
