<svg width="22" height="33" viewBox="0 0 22 33" fill="none" xmlns="http://www.w3.org/2000/svg">
<path d="M15.8015 26.0521C16.358 24.5833 16.785 22.8687 17.0697 20.9663C17.0762 20.9404 17.0827 20.9145 17.0892 20.8821C17.3415 19.1934 17.4709 17.3881 17.4709 15.5181C17.4709 7.15805 11.7315 0.493311 11.4856 0.208643C11.2398 -0.0695478 10.7609 -0.0695478 10.515 0.208643C10.2692 0.493311 4.52972 7.15805 4.52972 15.5181C4.52972 17.3881 4.65914 19.1934 4.91151 20.8821C4.91798 20.9145 4.92446 20.9404 4.93094 20.9663C5.21564 22.8687 5.63621 24.5704 6.18623 26.0328C6.19267 26.0521 6.19915 26.078 6.20562 26.1039C6.61327 27.1715 7.08561 28.0969 7.60325 28.8475C7.71976 29.0222 7.92035 29.1257 8.13385 29.1257H13.8603C14.0738 29.1257 14.268 29.0222 14.3909 28.8539C14.9021 28.1163 15.368 27.191 15.7821 26.1039C15.7886 26.0845 15.795 26.0716 15.8015 26.0521ZM13.5885 19.4004C13.5885 19.7627 13.2974 20.0475 12.9415 20.0475H9.05914C8.70326 20.0475 8.41208 19.7627 8.41208 19.4004V13.5833C8.41208 13.4151 8.47681 13.2534 8.59975 13.1304C9.3568 12.3669 9.7774 11.9398 10.5474 11.1827C10.7997 10.9305 11.2074 10.9369 11.4597 11.1892L13.4009 13.1304C13.5174 13.2469 13.5885 13.4151 13.5885 13.5833V19.4004Z" fill="url(#paint0_linear)"/>
<path d="M4.96945 26.4987L4.95002 26.4275C4.38708 24.9133 3.95356 23.1534 3.6559 21.1992L3.64294 21.1281C3.5653 20.591 3.49413 20.0539 3.44236 19.5105C1.3718 20.6105 0 22.7911 0 25.224V30.4005C0 31.1704 0.452949 31.8628 1.14531 32.1734C1.39119 32.2834 1.65003 32.3416 1.94118 32.3416C2.42003 32.3416 2.8859 32.1669 3.2612 31.824L6.21827 29.0804C5.76532 28.3557 5.35767 27.5081 4.99531 26.5634L4.96945 26.4987Z" fill="url(#paint1_linear)"/>
<path d="M18.5576 19.5171C18.5123 20.0476 18.4476 20.5652 18.3699 21.0764L18.344 21.1929C18.0464 23.1729 17.5999 24.9653 17.0111 26.5118C16.6293 27.5146 16.2217 28.3688 15.7817 29.087L18.7582 31.8435C19.114 32.167 19.5799 32.3418 20.0587 32.3418C20.3434 32.3418 20.6152 32.2835 20.8417 32.18C21.547 31.8693 21.9999 31.1705 21.9999 30.4006V25.2241C21.9999 22.7976 20.6281 20.6106 18.5576 19.5171Z" fill="url(#paint2_linear)"/>
<defs>
<linearGradient id="paint0_linear" x1="4.52972" y1="14.5628" x2="17.4709" y2="14.5628" gradientUnits="userSpaceOnUse">
<stop stop-color="#D9AFD9"/>
<stop offset="1" stop-color="#97D9E1"/>
</linearGradient>
<linearGradient id="paint1_linear" x1="0" y1="25.9261" x2="6.21827" y2="25.9261" gradientUnits="userSpaceOnUse">
<stop stop-color="#D9AFD9"/>
<stop offset="1" stop-color="#97D9E1"/>
</linearGradient>
<linearGradient id="paint2_linear" x1="15.7817" y1="25.9294" x2="21.9999" y2="25.9294" gradientUnits="userSpaceOnUse">
<stop stop-color="#D9AFD9"/>
<stop offset="1" stop-color="#97D9E1"/>
</linearGradient>
</defs>
</svg>
