<svg xmlns="http://www.w3.org/2000/svg" width="25" height="21.071" viewBox="0 0 25 21.071"><defs><style>.a{fill:#fff;}</style></defs><g transform="translate(0 0)"><path class="a" d="M42.6,11.8a1.83,1.83,0,0,1-.655,1.387,2.437,2.437,0,0,1-1.194.539H19.757a1.066,1.066,0,0,1-.347-.039,2.02,2.02,0,0,1-1.81-1.926,1.83,1.83,0,0,1,.655-1.387A2.373,2.373,0,0,1,19.8,9.8H40.481A2.145,2.145,0,0,1,42.6,11.8Z" transform="translate(-17.6 -9.8)"/><g transform="translate(1.81 4.661)"><path class="a" d="M43.294,21.939H22.647A1.066,1.066,0,0,1,22.3,21.9V38.31H43.679V21.9A1.311,1.311,0,0,1,43.294,21.939ZM37.169,32.069a2.4,2.4,0,0,1-.924,1.579,3.53,3.53,0,0,1-1.271.732c-.154.039-.193.116-.193.27v1.425H32.007v-1.31a.335.335,0,0,0-.27-.385,3.282,3.282,0,0,1-1.695-1.156,2.213,2.213,0,0,1-.539-1.464h2.773a1.186,1.186,0,0,0,1.849.539.667.667,0,0,0,.039-1.079,1.209,1.209,0,0,0-.809-.27,4.561,4.561,0,0,1-2.157-.5,2.919,2.919,0,0,1-1.579-1.733,2.4,2.4,0,0,1,1-2.658,7.005,7.005,0,0,1,1.194-.616c.154-.077.193-.116.193-.27v-.963h2.774v1.04a.211.211,0,0,0,.154.231,3.465,3.465,0,0,1,1.579,1,2.307,2.307,0,0,1,.693,1.618H34.627c-.116,0-.231,0-.231-.154,0-.077-.039-.116-.077-.193a1.23,1.23,0,0,0-1.849-.039.647.647,0,0,0,.077.847,1.38,1.38,0,0,0,.924.347,4.28,4.28,0,0,1,2.7.886A2.248,2.248,0,0,1,37.169,32.069Z" transform="translate(-22.3 -21.9)"/></g></g></svg>