<svg width="25" height="22" viewBox="0 0 25 22" fill="none" xmlns="http://www.w3.org/2000/svg">
<path d="M24.7308 2.08004C24.7285 2.35546 24.6694 2.62706 24.5575 2.87611C24.4457 3.12516 24.2837 3.34572 24.0829 3.52255C23.7452 3.81925 23.3367 4.01311 22.9017 4.08312H2.13377C2.01801 4.08953 1.90203 4.07583 1.79051 4.04256C1.31296 3.99052 0.869195 3.75944 0.540405 3.39162C0.211616 3.0238 0.0197827 2.54381 0 2.03948C0.00229204 1.76407 0.0614127 1.49246 0.173281 1.24341C0.285149 0.994361 0.447098 0.773804 0.647946 0.596971C1.0732 0.212392 1.61538 0.000619404 2.17631 0H22.6346C23.1689 0.00552628 23.6816 0.222792 24.0702 0.608395C24.4588 0.993997 24.6947 1.51954 24.7308 2.08004Z" fill="#5B5E61" fill-opacity="0.16"/>
<path d="M22.5585 4.88822H2.13379C2.01803 4.89463 1.90205 4.88092 1.79053 4.84766V21.9147H22.9393V4.84766C22.815 4.88091 22.6866 4.89458 22.5585 4.88822ZM16.4994 15.4238C16.4129 16.0766 16.0843 16.667 15.5854 17.066C15.2216 17.4095 14.7932 17.6689 14.3281 17.8273C14.1757 17.8679 14.1371 17.948 14.1371 18.1081V19.5902H11.393V18.2277C11.4074 18.1375 11.3875 18.0449 11.3375 17.97C11.2875 17.8951 11.2115 17.8438 11.1259 17.8273C10.4592 17.6253 9.87152 17.2039 9.44917 16.625C9.10153 16.2024 8.91201 15.6612 8.91597 15.1024H11.6591C11.7211 15.2869 11.824 15.4533 11.9593 15.5878C12.0945 15.7222 12.2583 15.8209 12.437 15.8757C12.6157 15.9304 12.8042 15.9397 12.987 15.9027C13.1698 15.8658 13.3416 15.7836 13.4882 15.663C13.5747 15.6019 13.6462 15.5202 13.6968 15.4244C13.7475 15.3287 13.7759 15.2217 13.7796 15.1122C13.7834 15.0028 13.7624 14.8939 13.7185 14.7946C13.6745 14.6953 13.6089 14.6083 13.5268 14.5408C13.3013 14.3481 13.0168 14.2483 12.7265 14.26C11.9854 14.2736 11.2526 14.095 10.5927 13.74C10.228 13.5694 9.90089 13.3211 9.63204 13.0109C9.36319 12.7007 9.15844 12.3352 9.03072 11.9376C8.89437 11.4261 8.91678 10.8822 9.09469 10.385C9.27261 9.88787 9.59674 9.46333 10.02 9.17317C10.3932 8.92032 10.7888 8.70578 11.2011 8.53251C11.3534 8.45243 11.392 8.41187 11.392 8.2517V7.25014H14.1361V8.33178C14.1296 8.38443 14.1414 8.43778 14.1694 8.48196C14.1975 8.52614 14.2398 8.55814 14.2885 8.57203C14.8899 8.76174 15.4303 9.12151 15.8505 9.61207C16.2816 10.0557 16.528 10.6607 16.536 11.2949H13.9848C13.87 11.2949 13.7563 11.2948 13.7563 11.1347C13.7563 11.0546 13.7177 11.014 13.6801 10.934C13.5687 10.7946 13.4302 10.6818 13.274 10.6032C13.1178 10.5246 12.9475 10.4819 12.7743 10.4781C12.6012 10.4742 12.4292 10.5093 12.27 10.5809C12.1108 10.6525 11.9679 10.7591 11.851 10.8934C11.7603 11.0251 11.7181 11.1869 11.7321 11.3489C11.7461 11.5108 11.8154 11.6619 11.9272 11.7743C12.1791 12.009 12.5047 12.1375 12.8412 12.1352C13.8054 12.1136 14.7477 12.4387 15.5122 13.0567C15.8799 13.3055 16.1696 13.6627 16.3452 14.0838C16.5208 14.5048 16.5744 14.9709 16.4994 15.4238Z" fill="#5B5E61" fill-opacity="0.16"/>
</svg>
