<svg width="27" height="20" viewBox="0 0 27 20" fill="none" xmlns="http://www.w3.org/2000/svg">
<path d="M9.46203 9.51C10.4025 9.51 11.3219 9.2311 12.1039 8.70857C12.8858 8.18604 13.4953 7.44335 13.8552 6.57443C14.215 5.70551 14.3091 4.74939 14.1256 3.82698C13.942 2.90457 13.4891 2.05731 12.824 1.39236C12.1589 0.727397 11.3115 0.274606 10.3891 0.0912463C9.46663 -0.0921135 8.51052 0.00219384 7.64168 0.362242C6.77283 0.72229 6.03027 1.33191 5.50791 2.11399C4.98554 2.89608 4.70683 3.81551 4.70703 4.756C4.70915 6.01636 5.21083 7.22448 6.10214 8.1156C6.99344 9.00672 8.20167 9.50815 9.46203 9.51Z" fill="url(#paint0_linear)"/>
<path d="M9.986 11.5107H8.938C6.64816 11.5142 4.44643 12.3937 2.78444 13.9688C1.12244 15.544 0.126175 17.6954 0 19.9817H18.914C18.7932 17.6953 17.7999 15.5422 16.1389 13.9662C14.4779 12.3902 12.2757 11.5114 9.986 11.5107Z" fill="url(#paint1_linear)"/>
<path d="M20.4962 2.23145C19.3757 2.23046 18.2801 2.56176 17.3479 3.18346C16.4157 3.80516 15.6889 4.68933 15.2592 5.72416C14.8296 6.75898 14.7164 7.89797 14.9341 8.9971C15.1518 10.0962 15.6906 11.1061 16.4822 11.899C17.2739 12.6919 18.2829 13.2323 19.3817 13.4517C20.4805 13.6712 21.6196 13.5599 22.6551 13.1318C23.6907 12.7038 24.576 11.9784 25.1992 11.0472C25.8223 10.116 26.1554 9.02092 26.1562 7.90045C26.1562 6.39849 25.5601 4.95792 24.4989 3.89504C23.4377 2.83215 21.9981 2.23383 20.4962 2.23145ZM23.0882 8.37145H21.3632C21.317 8.44989 21.2627 8.52329 21.2012 8.59045C21.1912 8.60045 21.1822 8.60945 21.1722 8.60945C21.0958 8.67532 21.0126 8.73297 20.9242 8.78145C20.8952 8.79145 20.8672 8.81045 20.8382 8.81945C20.6611 8.8882 20.4679 8.90397 20.2821 8.86485C20.0963 8.82572 19.9258 8.73339 19.7915 8.5991C19.6572 8.46481 19.5649 8.29437 19.5258 8.10853C19.4867 7.92269 19.5024 7.72948 19.5712 7.55245C19.5798 7.52215 19.5926 7.4932 19.6092 7.46645C19.653 7.37517 19.711 7.29145 19.7812 7.21845C19.7912 7.20845 19.8002 7.19945 19.8002 7.18945C19.8642 7.12427 19.9381 7.0696 20.0192 7.02745V4.26145C20.0192 4.13507 20.0694 4.01387 20.1587 3.92451C20.2481 3.83515 20.3693 3.78495 20.4957 3.78495C20.622 3.78495 20.7432 3.83515 20.8326 3.92451C20.922 4.01387 20.9722 4.13507 20.9722 4.26145V7.01545C21.1409 7.108 21.2796 7.24677 21.3722 7.41545H23.0962C23.1588 7.41491 23.221 7.42686 23.279 7.45059C23.337 7.47433 23.3896 7.50937 23.4339 7.55368C23.4783 7.59798 23.5133 7.65067 23.537 7.70866C23.5608 7.76665 23.5727 7.82879 23.5722 7.89145C23.5722 7.95482 23.5596 8.01757 23.5353 8.07606C23.5109 8.13456 23.4752 8.18766 23.4302 8.23228C23.3852 8.27691 23.3318 8.31218 23.2731 8.33606C23.2144 8.35995 23.1515 8.37198 23.0882 8.37145Z" fill="url(#paint2_linear)"/>
<defs>
<linearGradient id="paint0_linear" x1="4.70703" y1="4.755" x2="14.217" y2="4.755" gradientUnits="userSpaceOnUse">
<stop stop-color="#5EE7DF"/>
<stop offset="1" stop-color="#B490CA"/>
</linearGradient>
<linearGradient id="paint1_linear" x1="0" y1="15.7462" x2="18.914" y2="15.7462" gradientUnits="userSpaceOnUse">
<stop stop-color="#5EE7DF"/>
<stop offset="1" stop-color="#B490CA"/>
</linearGradient>
<linearGradient id="paint2_linear" x1="14.8262" y1="7.89645" x2="26.1562" y2="7.89645" gradientUnits="userSpaceOnUse">
<stop stop-color="#5EE7DF"/>
<stop offset="1" stop-color="#B490CA"/>
</linearGradient>
</defs>
</svg>
