<svg width="27" height="20" viewBox="0 0 27 20" fill="none" xmlns="http://www.w3.org/2000/svg">
<path d="M7.60299 11.483C10.2744 11.483 12.44 9.31788 12.44 6.64704C12.44 3.97619 10.2744 1.81104 7.60299 1.81104C4.93159 1.81104 2.76599 3.97619 2.76599 6.64704C2.76599 9.31788 4.93159 11.483 7.60299 11.483Z" fill="url(#paint0_linear)"/>
<path d="M11.057 12.478L8.678 15.6L8.403 14.133C8.59295 14.0982 8.76482 13.9983 8.8891 13.8504C9.01338 13.7026 9.08229 13.5161 9.084 13.323C9.084 13.0997 8.99529 12.8855 8.83738 12.7276C8.67948 12.5697 8.46531 12.481 8.242 12.481H6.961C6.7376 12.481 6.52333 12.5697 6.36526 12.7276C6.2072 12.8855 6.11827 13.0996 6.118 13.323C6.1199 13.5161 6.18888 13.7025 6.31313 13.8503C6.43737 13.998 6.60914 14.098 6.799 14.133L6.525 15.604L4.145 12.478C2.98735 12.6778 1.93484 13.2729 1.167 14.162C0.392 15.101 0 17.325 0 19.862H15.2C15.2 17.325 14.808 15.101 14.035 14.162C13.2671 13.273 12.2146 12.6778 11.057 12.478Z" fill="url(#paint1_linear)"/>
<path d="M19.511 8.618C21.8908 8.618 23.82 6.6888 23.82 4.309C23.82 1.9292 21.8908 0 19.511 0C17.1312 0 15.202 1.9292 15.202 4.309C15.202 6.6888 17.1312 8.618 19.511 8.618Z" fill="url(#paint2_linear)"/>
<path d="M25.244 11.003C24.5594 10.2106 23.621 9.68039 22.589 9.50295L20.469 12.284L20.225 10.974C20.394 10.9428 20.5469 10.8539 20.6575 10.7223C20.7681 10.5907 20.8294 10.4248 20.831 10.253C20.831 10.054 20.752 9.86327 20.6113 9.72262C20.4707 9.58197 20.2799 9.50295 20.081 9.50295H18.941C18.7421 9.50295 18.5513 9.58197 18.4107 9.72262C18.27 9.86327 18.191 10.054 18.191 10.253C18.1926 10.4249 18.2541 10.591 18.3649 10.7226C18.4756 10.8542 18.6288 10.943 18.798 10.974L18.554 12.284L16.429 9.50195C15.3972 9.67929 14.4591 10.2095 13.775 11.002C13.5674 11.2737 13.4059 11.5778 13.297 11.902C13.9638 12.2632 14.5554 12.7486 15.04 13.332C15.6262 14.1465 16.0126 15.0875 16.168 16.079H26.283C26.283 13.82 25.934 11.839 25.244 11.003Z" fill="url(#paint3_linear)"/>
<defs>
<linearGradient id="paint0_linear" x1="2.76599" y1="6.64704" x2="12.44" y2="6.64704" gradientUnits="userSpaceOnUse">
<stop stop-color="#5EE7DF"/>
<stop offset="1" stop-color="#B490CA"/>
</linearGradient>
<linearGradient id="paint1_linear" x1="0" y1="16.17" x2="15.2" y2="16.17" gradientUnits="userSpaceOnUse">
<stop stop-color="#5EE7DF"/>
<stop offset="1" stop-color="#B490CA"/>
</linearGradient>
<linearGradient id="paint2_linear" x1="15.202" y1="4.309" x2="23.82" y2="4.309" gradientUnits="userSpaceOnUse">
<stop stop-color="#5EE7DF"/>
<stop offset="1" stop-color="#B490CA"/>
</linearGradient>
<linearGradient id="paint3_linear" x1="13.297" y1="12.7905" x2="26.283" y2="12.7905" gradientUnits="userSpaceOnUse">
<stop stop-color="#5EE7DF"/>
<stop offset="1" stop-color="#B490CA"/>
</linearGradient>
</defs>
</svg>
