<svg width="25" height="25" viewBox="0 0 25 25" fill="none" xmlns="http://www.w3.org/2000/svg">
<path d="M2.5291 25.0001H22.5121C22.8397 25.0032 23.1646 24.9409 23.4678 24.817C23.7711 24.693 24.0466 24.5099 24.2782 24.2782C24.5099 24.0466 24.693 23.7711 24.817 23.4678C24.9409 23.1646 25.0032 22.8397 25.0001 22.5121V2.48711C25.003 2.15961 24.9407 1.83481 24.8167 1.53168C24.6927 1.22855 24.5095 0.953171 24.2779 0.721631C24.0462 0.490091 23.7708 0.307032 23.4676 0.183148C23.1644 0.0592643 22.8396 -0.00296083 22.5121 0.000108241H2.4871C2.15968 -0.00282719 1.83497 0.0594965 1.5319 0.18344C1.22884 0.307384 0.953508 0.490464 0.721982 0.721991C0.490455 0.953517 0.307375 1.22885 0.183431 1.53191C0.0594874 1.83497 -0.00283636 2.15969 9.9071e-05 2.48711V22.5121C0.0106016 23.1758 0.28171 23.8087 0.754884 24.2742C1.22806 24.7397 1.86533 25.0005 2.5291 25.0001ZM12.5211 4.38411C14.1302 4.38411 15.7033 4.86128 17.0412 5.75527C18.3792 6.64927 19.422 7.91994 20.0378 9.4066C20.6536 10.8933 20.8147 12.5291 20.5008 14.1074C20.1868 15.6856 19.412 17.1353 18.2741 18.2731C17.1363 19.411 15.6866 20.1858 14.1084 20.4998C12.5301 20.8137 10.8942 20.6526 9.40759 20.0368C7.92093 19.421 6.65026 18.3782 5.75626 17.0402C4.86227 15.7023 4.3851 14.1293 4.3851 12.5201C4.38642 10.3627 5.24403 8.29406 6.76954 6.76855C8.29505 5.24304 10.3637 4.38543 12.5211 4.38411Z" fill="url(#paint0_linear)"/>
<path d="M12.5211 19.5622C12.9403 19.5622 13.2801 19.2224 13.2801 18.8032C13.2801 18.384 12.9403 18.0442 12.5211 18.0442C12.1019 18.0442 11.7621 18.384 11.7621 18.8032C11.7621 19.2224 12.1019 19.5622 12.5211 19.5622Z" fill="url(#paint1_linear)"/>
<path d="M7.53104 16.4594C7.23463 16.7558 7.23463 17.2364 7.53104 17.5328C7.82745 17.8292 8.30802 17.8292 8.60442 17.5328C8.90083 17.2364 8.90083 16.7558 8.60442 16.4594C8.30802 16.163 7.82745 16.163 7.53104 16.4594Z" fill="url(#paint2_linear)"/>
<path d="M6.2391 13.2801C6.65829 13.2801 6.9981 12.9403 6.9981 12.5211C6.9981 12.1019 6.65829 11.7621 6.2391 11.7621C5.81992 11.7621 5.4801 12.1019 5.4801 12.5211C5.4801 12.9403 5.81992 13.2801 6.2391 13.2801Z" fill="url(#paint3_linear)"/>
<path d="M7.50907 7.53142C7.21266 7.82783 7.21266 8.3084 7.50907 8.60481C7.80547 8.90122 8.28604 8.90122 8.58245 8.60481C8.87886 8.3084 8.87886 7.82783 8.58245 7.53142C8.28604 7.23501 7.80547 7.23501 7.50907 7.53142Z" fill="url(#paint4_linear)"/>
<path d="M12.5211 6.99908C12.9403 6.99908 13.2801 6.65926 13.2801 6.24008C13.2801 5.82089 12.9403 5.48108 12.5211 5.48108C12.1019 5.48108 11.7621 5.82089 11.7621 6.24008C11.7621 6.65926 12.1019 6.99908 12.5211 6.99908Z" fill="url(#paint5_linear)"/>
<path d="M16.437 7.50945C16.1406 7.80586 16.1406 8.28643 16.437 8.58284C16.7335 8.87925 17.214 8.87925 17.5104 8.58284C17.8068 8.28643 17.8068 7.80586 17.5104 7.50945C17.214 7.21304 16.7335 7.21304 16.437 7.50945Z" fill="url(#paint6_linear)"/>
<path d="M18.8021 13.2801C19.2213 13.2801 19.5611 12.9403 19.5611 12.5211C19.5611 12.1019 19.2213 11.7621 18.8021 11.7621C18.3829 11.7621 18.0431 12.1019 18.0431 12.5211C18.0431 12.9403 18.3829 13.2801 18.8021 13.2801Z" fill="url(#paint7_linear)"/>
<path d="M16.459 16.4374C16.1626 16.7338 16.1626 17.2144 16.459 17.5108C16.7554 17.8072 17.236 17.8072 17.5324 17.5108C17.8288 17.2144 17.8288 16.7338 17.5324 16.4374C17.236 16.141 16.7554 16.141 16.459 16.4374Z" fill="url(#paint8_linear)"/>
<path d="M12.5201 16.358C13.2787 16.358 14.0203 16.1331 14.6511 15.7116C15.282 15.2902 15.7736 14.6911 16.064 13.9902C16.3544 13.2894 16.4304 12.5181 16.2824 11.774C16.1345 11.03 15.7693 10.3464 15.2329 9.80993C14.6965 9.27342 14.0131 8.90799 13.2691 8.75987C12.525 8.61174 11.7538 8.68756 11.0528 8.97775C10.3518 9.26793 9.75268 9.75945 9.33105 10.3901C8.90943 11.0208 8.68428 11.7624 8.68408 12.521C8.68751 13.5374 9.09272 14.5113 9.81134 15.2301C10.53 15.9489 11.5037 16.3543 12.5201 16.358ZM12.1831 15.641C11.6579 15.5814 11.1557 15.3924 10.7216 15.0907C10.2875 14.7891 9.93514 14.3845 9.69608 13.913L11.5091 13.281C11.6782 13.5044 11.915 13.6671 12.1841 13.745L12.1831 15.641ZM12.8581 15.641V13.702C13.1218 13.613 13.3555 13.4523 13.5331 13.238L15.3461 13.87C15.1158 14.3522 14.7666 14.7677 14.3313 15.0776C13.896 15.3874 13.389 15.5813 12.8581 15.641ZM15.6831 12.521C15.6784 12.7622 15.6503 13.0023 15.5991 13.238L13.7841 12.606V12.522C13.779 12.2685 13.7061 12.0209 13.5731 11.805L14.7961 10.329C15.3677 10.9152 15.6866 11.7023 15.6841 12.521H15.6831ZM12.5211 9.35904C13.1224 9.3455 13.7126 9.52263 14.2071 9.86504L12.9841 11.341C12.8338 11.2927 12.6778 11.2645 12.5201 11.257C12.362 11.2606 12.2054 11.289 12.0561 11.341L10.8341 9.86504C11.3374 9.54139 11.9218 9.36635 12.5201 9.36004L12.5211 9.35904ZM10.2871 10.329L11.5101 11.805C11.377 12.0209 11.3042 12.2685 11.2991 12.522V12.606L9.48608 13.238C9.43486 13.0023 9.40673 12.7622 9.40208 12.521C9.38045 12.1135 9.44819 11.7061 9.60054 11.3274C9.7529 10.9488 9.98619 10.608 10.2841 10.329H10.2871Z" fill="url(#paint9_linear)"/>
<defs>
<linearGradient id="paint0_linear" x1="0" y1="12.5001" x2="25.0002" y2="12.5001" gradientUnits="userSpaceOnUse">
<stop stop-color="#DF89B5"/>
<stop offset="1" stop-color="#BFD9FE"/>
</linearGradient>
<linearGradient id="paint1_linear" x1="11.7621" y1="18.8032" x2="13.2801" y2="18.8032" gradientUnits="userSpaceOnUse">
<stop stop-color="#DF89B5"/>
<stop offset="1" stop-color="#BFD9FE"/>
</linearGradient>
<linearGradient id="paint2_linear" x1="8.60442" y1="16.4594" x2="7.53103" y2="17.5328" gradientUnits="userSpaceOnUse">
<stop stop-color="#DF89B5"/>
<stop offset="1" stop-color="#BFD9FE"/>
</linearGradient>
<linearGradient id="paint3_linear" x1="5.4801" y1="12.5211" x2="6.9981" y2="12.5211" gradientUnits="userSpaceOnUse">
<stop stop-color="#DF89B5"/>
<stop offset="1" stop-color="#BFD9FE"/>
</linearGradient>
<linearGradient id="paint4_linear" x1="8.58245" y1="7.53142" x2="7.50906" y2="8.6048" gradientUnits="userSpaceOnUse">
<stop stop-color="#DF89B5"/>
<stop offset="1" stop-color="#BFD9FE"/>
</linearGradient>
<linearGradient id="paint5_linear" x1="11.7621" y1="6.24008" x2="13.2801" y2="6.24008" gradientUnits="userSpaceOnUse">
<stop stop-color="#DF89B5"/>
<stop offset="1" stop-color="#BFD9FE"/>
</linearGradient>
<linearGradient id="paint6_linear" x1="17.5104" y1="7.50945" x2="16.437" y2="8.58283" gradientUnits="userSpaceOnUse">
<stop stop-color="#DF89B5"/>
<stop offset="1" stop-color="#BFD9FE"/>
</linearGradient>
<linearGradient id="paint7_linear" x1="18.0431" y1="12.5211" x2="19.5611" y2="12.5211" gradientUnits="userSpaceOnUse">
<stop stop-color="#DF89B5"/>
<stop offset="1" stop-color="#BFD9FE"/>
</linearGradient>
<linearGradient id="paint8_linear" x1="17.5324" y1="16.4374" x2="16.459" y2="17.5108" gradientUnits="userSpaceOnUse">
<stop stop-color="#DF89B5"/>
<stop offset="1" stop-color="#BFD9FE"/>
</linearGradient>
<linearGradient id="paint9_linear" x1="8.68408" y1="12.522" x2="16.3561" y2="12.522" gradientUnits="userSpaceOnUse">
<stop stop-color="#DF89B5"/>
<stop offset="1" stop-color="#BFD9FE"/>
</linearGradient>
</defs>
</svg>
