<svg width="25" height="25" viewBox="0 0 25 25" fill="none" xmlns="http://www.w3.org/2000/svg">
<path d="M14.636 4.54602V4.39402C14.636 3.82937 14.4117 3.28785 14.0124 2.88859C13.6132 2.48932 13.0716 2.26502 12.507 2.26502C11.9424 2.26502 11.4008 2.48932 11.0016 2.88859C10.6023 3.28785 10.378 3.82937 10.378 4.39402V4.54502L14.636 4.54602ZM22.727 20.7V8.84902C22.7278 8.31298 22.5162 7.79844 22.1386 7.418C21.761 7.03756 21.248 6.82219 20.712 6.81902H4.3C3.76242 6.82165 3.24761 7.03637 2.86748 7.4165C2.48735 7.79663 2.27263 8.31144 2.27 8.84902V20.7C2.27263 21.2376 2.48735 21.7524 2.86748 22.1325C3.24761 22.5127 3.76242 22.7274 4.3 22.73H20.712C21.2479 22.7266 21.7607 22.5111 22.1383 22.1307C22.5159 21.7504 22.7275 21.236 22.727 20.7ZM25 8.84902V20.7C25 21.8384 24.5486 22.9303 23.7448 23.7363C22.941 24.5424 21.8503 24.9968 20.712 25H4.3C3.16119 24.9948 2.07052 24.54 1.26525 23.7348C0.459984 22.9295 0.00526018 21.8388 0 20.7V8.84902C0.00526018 7.71021 0.459984 6.61954 1.26525 5.81427C2.07052 5.009 3.16119 4.55428 4.3 4.54902H8.1V4.39402C8.1 3.22707 8.56357 2.10791 9.38873 1.28275C10.2139 0.457589 11.333 -0.00598145 12.5 -0.00598145C13.667 -0.00598145 14.7861 0.457589 15.6113 1.28275C16.4364 2.10791 16.9 3.22707 16.9 4.39402V4.54502H20.7C21.265 4.54502 21.8245 4.65637 22.3465 4.87272C22.8684 5.08906 23.3426 5.40616 23.742 5.80587C24.1413 6.20559 24.458 6.68009 24.6738 7.20225C24.8897 7.72441 25.0005 8.284 25 8.84902Z" fill="url(#paint0_linear)"/>
<path d="M24 6.35303H1V23.353H24V6.35303Z" fill="url(#paint1_linear)"/>
<defs>
<linearGradient id="paint0_linear" x1="0" y1="12.497" x2="25" y2="12.497" gradientUnits="userSpaceOnUse">
<stop stop-color="#A18CD1"/>
<stop offset="1" stop-color="#FBC2EB"/>
</linearGradient>
<linearGradient id="paint1_linear" x1="1" y1="14.853" x2="24" y2="14.853" gradientUnits="userSpaceOnUse">
<stop stop-color="#A18CD1"/>
<stop offset="1" stop-color="#FBC2EB"/>
</linearGradient>
</defs>
</svg>
