<svg width="25" height="25" viewBox="0 0 25 25" fill="none" xmlns="http://www.w3.org/2000/svg">
<path d="M23.664 10.072H21.794C21.5765 9.21966 21.2399 8.40226 20.794 7.644L22.116 6.322C22.2401 6.19834 22.3387 6.05138 22.4059 5.88955C22.4731 5.72773 22.5077 5.55423 22.5077 5.379C22.5077 5.20377 22.4731 5.03027 22.4059 4.86844C22.3387 4.70662 22.2401 4.55966 22.116 4.436L20.566 2.886C20.3158 2.636 19.9767 2.49556 19.623 2.49556C19.2693 2.49556 18.9302 2.636 18.68 2.886L17.356 4.208C16.5977 3.76211 15.7803 3.42546 14.928 3.208V1.336C14.9277 0.981752 14.7869 0.642089 14.5364 0.391598C14.2859 0.141107 13.9462 0.000264858 13.592 0H11.408C11.0538 0.000264858 10.7141 0.141107 10.4636 0.391598C10.2131 0.642089 10.0723 0.981752 10.072 1.336V3.206C9.21966 3.42346 8.40226 3.76011 7.644 4.206L6.322 2.886C6.19834 2.76185 6.05138 2.66335 5.88955 2.59613C5.72773 2.52892 5.55423 2.49431 5.379 2.49431C5.20377 2.49431 5.03027 2.52892 4.86844 2.59613C4.70662 2.66335 4.55966 2.76185 4.436 2.886L2.886 4.436C2.76185 4.55966 2.66335 4.70662 2.59613 4.86844C2.52892 5.03027 2.49431 5.20377 2.49431 5.379C2.49431 5.55423 2.52892 5.72773 2.59613 5.88955C2.66335 6.05138 2.76185 6.19834 2.886 6.322L4.208 7.644C3.76211 8.40226 3.42546 9.21966 3.208 10.072H1.336C0.981752 10.0723 0.642089 10.2131 0.391598 10.4636C0.141107 10.7141 0.000264858 11.0538 0 11.408V13.591C0.000264858 13.9452 0.141107 14.2849 0.391598 14.5354C0.642089 14.7859 0.981752 14.9267 1.336 14.927H3.206C3.42346 15.7793 3.76011 16.5967 4.206 17.355L2.886 18.678C2.76185 18.8017 2.66335 18.9486 2.59613 19.1104C2.52892 19.2723 2.49431 19.4458 2.49431 19.621C2.49431 19.7962 2.52892 19.9697 2.59613 20.1316C2.66335 20.2934 2.76185 20.4403 2.886 20.564L4.436 22.114C4.55966 22.2381 4.70662 22.3367 4.86844 22.4039C5.03027 22.4711 5.20377 22.5057 5.379 22.5057C5.55423 22.5057 5.72773 22.4711 5.88955 22.4039C6.05138 22.3367 6.19834 22.2381 6.322 22.114L7.644 20.792C8.40226 21.2379 9.21966 21.5745 10.072 21.792V23.661C10.0717 23.8367 10.1061 24.0107 10.1731 24.173C10.2401 24.3354 10.3385 24.483 10.4625 24.6073C10.5866 24.7317 10.734 24.8304 10.8962 24.8977C11.0584 24.9651 11.2323 24.9999 11.408 25H13.591C13.9452 24.9997 14.2849 24.8589 14.5354 24.6084C14.7859 24.3579 14.9267 24.0182 14.927 23.664V21.794C15.7793 21.5765 16.5967 21.2399 17.355 20.794L18.677 22.116C18.8007 22.2401 18.9476 22.3387 19.1094 22.4059C19.2713 22.4731 19.4448 22.5077 19.62 22.5077C19.7952 22.5077 19.9687 22.4731 20.1306 22.4059C20.2924 22.3387 20.4393 22.2401 20.563 22.116L22.113 20.566C22.2371 20.4423 22.3357 20.2954 22.4029 20.1336C22.4701 19.9717 22.5047 19.7982 22.5047 19.623C22.5047 19.4478 22.4701 19.2743 22.4029 19.1124C22.3357 18.9506 22.2371 18.8037 22.113 18.68L20.791 17.358C21.2369 16.5997 21.5735 15.7823 21.791 14.93H23.66C23.8359 14.9304 24.0102 14.8961 24.1728 14.829C24.3354 14.7619 24.4832 14.6634 24.6077 14.5391C24.7322 14.4148 24.8309 14.2672 24.8982 14.1046C24.9655 13.9421 25.0001 13.7679 25 13.592V11.408C24.9997 11.0538 24.8589 10.7141 24.6084 10.4636C24.3579 10.2131 24.0182 10.0723 23.664 10.072ZM12.5 6.552C13.0055 6.552 13.4997 6.70191 13.92 6.98276C14.3404 7.26362 14.668 7.66281 14.8614 8.12986C15.0549 8.59691 15.1055 9.11084 15.0069 9.60665C14.9083 10.1025 14.6648 10.5579 14.3074 10.9154C13.9499 11.2728 13.4945 11.5163 12.9987 11.6149C12.5028 11.7135 11.9889 11.6629 11.5219 11.4694C11.0548 11.276 10.6556 10.9484 10.3748 10.528C10.0939 10.1077 9.944 9.61353 9.944 9.108C9.94479 8.43035 10.2143 7.78068 10.6935 7.30151C11.1727 6.82234 11.8224 6.55279 12.5 6.552ZM16.2 16.54C16.2015 16.9451 16.0521 17.3363 15.7809 17.6373C15.5097 17.9383 15.1361 18.1275 14.733 18.168H10.27C9.86643 18.128 9.49225 17.939 9.22046 17.638C8.94867 17.337 8.79877 16.9456 8.8 16.54V16.414C8.8 15.4327 9.18982 14.4916 9.88371 13.7977C10.5776 13.1038 11.5187 12.714 12.5 12.714C13.4813 12.714 14.4224 13.1038 15.1163 13.7977C15.8102 14.4916 16.2 15.4327 16.2 16.414V16.54Z" fill="url(#paint0_linear)"/>
<defs>
<linearGradient id="paint0_linear" x1="0" y1="12.5" x2="25" y2="12.5" gradientUnits="userSpaceOnUse">
<stop stop-color="#5D9FFF"/>
<stop offset="0.48" stop-color="#B8DCFF"/>
<stop offset="1" stop-color="#6BBBFF"/>
</linearGradient>
</defs>
</svg>
