<svg width="26" height="25" viewBox="0 0 26 25" fill="none" xmlns="http://www.w3.org/2000/svg">
<g clip-path="url(#clip0)">
<path d="M24.682 18.492H24.29V2.351H24.6C24.6523 2.35422 24.7047 2.34628 24.7537 2.32772C24.8027 2.30915 24.8473 2.28039 24.8843 2.24333C24.9214 2.20626 24.9502 2.16175 24.9687 2.11273C24.9873 2.06372 24.9952 2.01132 24.992 1.959C24.9952 1.90668 24.9873 1.85428 24.9687 1.80527C24.9502 1.75625 24.9214 1.71174 24.8843 1.67467C24.8473 1.63761 24.8027 1.60885 24.7537 1.59028C24.7047 1.57172 24.6523 1.56378 24.6 1.567H13.634V1.136C13.634 0.834714 13.5143 0.545768 13.3013 0.332727C13.0882 0.119685 12.7993 0 12.498 0C12.1967 0 11.9078 0.119685 11.6947 0.332727C11.4817 0.545768 11.362 0.834714 11.362 1.136V1.567H0.392C0.288035 1.567 0.188328 1.6083 0.114814 1.68181C0.0412999 1.75533 0 1.85504 0 1.959C0 2.06296 0.0412999 2.16267 0.114814 2.23619C0.188328 2.3097 0.288035 2.351 0.392 2.351H0.862V18.492H0.47C0.418522 18.492 0.367548 18.5021 0.319988 18.5218C0.272429 18.5415 0.229215 18.5704 0.192814 18.6068C0.156414 18.6432 0.127539 18.6864 0.107839 18.734C0.0881394 18.7815 0.0779999 18.8325 0.0779999 18.884C0.0779999 18.9355 0.0881394 18.9865 0.107839 19.034C0.127539 19.0816 0.156414 19.1248 0.192814 19.1612C0.229215 19.1976 0.272429 19.2265 0.319988 19.2462C0.367548 19.2659 0.418522 19.276 0.47 19.276H9.677L4.584 24.329C4.52512 24.3821 4.48551 24.4532 4.4714 24.5312C4.45728 24.6092 4.46945 24.6897 4.506 24.76C4.53462 24.8278 4.5817 24.8862 4.64186 24.9285C4.70203 24.9708 4.77287 24.9954 4.84633 24.9995C4.91979 25.0036 4.99291 24.9869 5.05738 24.9515C5.12185 24.916 5.17508 24.8632 5.211 24.799L10.774 19.275H14.374L19.974 24.875C20.0478 24.9417 20.1445 24.9774 20.2439 24.9749C20.3433 24.9723 20.438 24.9317 20.5084 24.8614C20.5787 24.791 20.6193 24.6963 20.6219 24.5969C20.6244 24.4975 20.5887 24.4008 20.522 24.327L15.468 19.273H24.675C24.779 19.273 24.8787 19.2317 24.9522 19.1582C25.0257 19.0847 25.067 18.985 25.067 18.881C25.067 18.777 25.0257 18.6773 24.9522 18.6038C24.8787 18.5303 24.779 18.489 24.675 18.489L24.682 18.492ZM12.145 1.136C12.1498 1.04576 12.189 0.960797 12.2546 0.898619C12.3202 0.836441 12.4071 0.801782 12.4975 0.801782C12.5879 0.801782 12.6748 0.836441 12.7404 0.898619C12.806 0.960797 12.8452 1.04576 12.85 1.136V1.567H12.145V1.136ZM5.406 15.984H4.27C4.21852 15.984 4.16755 15.9739 4.11999 15.9542C4.07243 15.9345 4.02921 15.9056 3.99281 15.8692C3.95641 15.8328 3.92754 15.7896 3.90784 15.742C3.88814 15.6945 3.878 15.6435 3.878 15.592C3.878 15.5405 3.88814 15.4895 3.90784 15.442C3.92754 15.3944 3.95641 15.3512 3.99281 15.3148C4.02921 15.2784 4.07243 15.2495 4.11999 15.2298C4.16755 15.2101 4.21852 15.2 4.27 15.2H5.406C5.45832 15.1968 5.51072 15.2047 5.55973 15.2233C5.60875 15.2418 5.65326 15.2706 5.69033 15.3077C5.72739 15.3447 5.75615 15.3892 5.77472 15.4383C5.79328 15.4873 5.80122 15.5397 5.798 15.592C5.79774 15.6959 5.75635 15.7954 5.68289 15.8689C5.60944 15.9424 5.50988 15.9837 5.406 15.984ZM5.406 13.398H4.27C4.16604 13.398 4.06633 13.3567 3.99281 13.2832C3.9193 13.2097 3.878 13.11 3.878 13.006C3.878 12.902 3.9193 12.8023 3.99281 12.7288C4.06633 12.6553 4.16604 12.614 4.27 12.614H5.406C5.45832 12.6108 5.51072 12.6187 5.55973 12.6373C5.60875 12.6558 5.65326 12.6846 5.69033 12.7217C5.72739 12.7587 5.75615 12.8032 5.77472 12.8523C5.79328 12.9013 5.80122 12.9537 5.798 13.006C5.79167 13.1081 5.74839 13.2044 5.67626 13.2769C5.60412 13.3494 5.50805 13.3932 5.406 13.4V13.398ZM5.406 10.812H4.27C4.16604 10.812 4.06633 10.7707 3.99281 10.6972C3.9193 10.6237 3.878 10.524 3.878 10.42C3.878 10.316 3.9193 10.2163 3.99281 10.1428C4.06633 10.0693 4.16604 10.028 4.27 10.028H5.406C5.45832 10.0248 5.51072 10.0327 5.55973 10.0513C5.60875 10.0698 5.65326 10.0986 5.69033 10.1357C5.72739 10.1727 5.75615 10.2172 5.77472 10.2663C5.79328 10.3153 5.80122 10.3677 5.798 10.42C5.798 10.5241 5.75673 10.6239 5.68325 10.6975C5.60976 10.7712 5.51006 10.8127 5.406 10.813V10.812ZM5.406 8.265H4.27C4.16604 8.265 4.06633 8.2237 3.99281 8.15019C3.9193 8.07667 3.878 7.97696 3.878 7.873C3.878 7.76903 3.9193 7.66933 3.99281 7.59581C4.06633 7.5223 4.16604 7.481 4.27 7.481H5.406C5.45832 7.47779 5.51072 7.48572 5.55973 7.50428C5.60875 7.52285 5.65326 7.55161 5.69033 7.58867C5.72739 7.62574 5.75615 7.67025 5.77472 7.71927C5.79328 7.76828 5.80122 7.82068 5.798 7.873C5.79144 7.97491 5.74806 8.07095 5.67594 8.14325C5.60383 8.21555 5.50789 8.25918 5.406 8.266V8.265ZM5.406 5.679H4.27C4.1743 5.66814 4.08595 5.62243 4.02181 5.55059C3.95766 5.47875 3.9222 5.38581 3.9222 5.2895C3.9222 5.19319 3.95766 5.10025 4.02181 5.02841C4.08595 4.95657 4.1743 4.91086 4.27 4.9H5.406C5.45832 4.89678 5.51072 4.90472 5.55973 4.92328C5.60875 4.94185 5.65326 4.97061 5.69033 5.00767C5.72739 5.04474 5.75615 5.08925 5.77472 5.13827C5.79328 5.18728 5.80122 5.23969 5.798 5.292C5.79695 5.39536 5.75522 5.49415 5.68184 5.56696C5.60847 5.63977 5.50937 5.68074 5.406 5.681V5.679ZM19.471 15.979H8.541C8.48952 15.979 8.43855 15.9689 8.39099 15.9492C8.34343 15.9295 8.30021 15.9006 8.26381 15.8642C8.22741 15.8278 8.19854 15.7846 8.17884 15.737C8.15914 15.6895 8.149 15.6385 8.149 15.587C8.149 15.5355 8.15914 15.4845 8.17884 15.437C8.19854 15.3894 8.22741 15.3462 8.26381 15.3098C8.30021 15.2734 8.34343 15.2445 8.39099 15.2248C8.43855 15.2051 8.48952 15.195 8.541 15.195H19.471C19.575 15.195 19.6747 15.2363 19.7482 15.3098C19.8217 15.3833 19.863 15.483 19.863 15.587C19.863 15.691 19.8217 15.7907 19.7482 15.8642C19.6747 15.9377 19.575 15.979 19.471 15.979ZM19.471 13.393H8.541C8.43704 13.393 8.33733 13.3517 8.26381 13.2782C8.1903 13.2047 8.149 13.105 8.149 13.001C8.149 12.897 8.1903 12.7973 8.26381 12.7238C8.33733 12.6503 8.43704 12.609 8.541 12.609H19.471C19.5233 12.6058 19.5757 12.6137 19.6247 12.6323C19.6737 12.6508 19.7183 12.6796 19.7553 12.7167C19.7924 12.7537 19.8212 12.7982 19.8397 12.8473C19.8583 12.8963 19.8662 12.9487 19.863 13.001C19.8638 13.053 19.8542 13.1047 19.8349 13.153C19.8156 13.2013 19.7869 13.2453 19.7504 13.2824C19.7139 13.3195 19.6704 13.349 19.6225 13.3692C19.5745 13.3894 19.523 13.3999 19.471 13.4V13.393ZM19.471 10.807H8.541C8.43704 10.807 8.33733 10.7657 8.26381 10.6922C8.1903 10.6187 8.149 10.519 8.149 10.415C8.149 10.311 8.1903 10.2113 8.26381 10.1378C8.33733 10.0643 8.43704 10.023 8.541 10.023H19.471C19.575 10.023 19.6747 10.0643 19.7482 10.1378C19.8217 10.2113 19.863 10.311 19.863 10.415C19.863 10.519 19.8217 10.6187 19.7482 10.6922C19.6747 10.7657 19.575 10.807 19.471 10.807ZM19.471 8.26H8.541C8.43704 8.26 8.33733 8.2187 8.26381 8.14519C8.1903 8.07167 8.149 7.97197 8.149 7.868C8.149 7.76404 8.1903 7.66433 8.26381 7.59081C8.33733 7.5173 8.43704 7.476 8.541 7.476H19.471C19.5233 7.47278 19.5757 7.48072 19.6247 7.49928C19.6737 7.51785 19.7183 7.54661 19.7553 7.58367C19.7924 7.62074 19.8212 7.66525 19.8397 7.71427C19.8583 7.76328 19.8662 7.81569 19.863 7.868C19.8637 7.91995 19.854 7.9715 19.8346 8.0197C19.8152 8.06789 19.7865 8.11176 19.75 8.14878C19.7136 8.18579 19.6701 8.2152 19.6222 8.23532C19.5744 8.25545 19.5229 8.26587 19.471 8.266V8.26ZM19.471 5.674H8.541C8.48952 5.674 8.43855 5.66386 8.39099 5.64416C8.34343 5.62446 8.30021 5.59559 8.26381 5.55919C8.22741 5.52279 8.19854 5.47957 8.17884 5.43201C8.15914 5.38445 8.149 5.33348 8.149 5.282C8.149 5.23052 8.15914 5.17955 8.17884 5.13199C8.19854 5.08443 8.22741 5.04121 8.26381 5.00481C8.30021 4.96841 8.34343 4.93954 8.39099 4.91984C8.43855 4.90014 8.48952 4.89 8.541 4.89H19.471C19.575 4.89 19.6747 4.9313 19.7482 5.00481C19.8217 5.07833 19.863 5.17804 19.863 5.282C19.863 5.38596 19.8217 5.48567 19.7482 5.55919C19.6747 5.6327 19.575 5.674 19.471 5.674Z" fill="url(#paint0_linear)"/>
</g>
<defs>
<linearGradient id="paint0_linear" x1="0" y1="12.5001" x2="25.067" y2="12.5001" gradientUnits="userSpaceOnUse">
<stop stop-color="#FFC3A0"/>
<stop offset="1" stop-color="#FFAFBD"/>
</linearGradient>
<clipPath id="clip0">
<rect width="25.073" height="25" fill="white"/>
</clipPath>
</defs>
</svg>
