<svg width="25" height="22" viewBox="0 0 25 22" fill="none" xmlns="http://www.w3.org/2000/svg">
<path d="M25 2C24.9977 2.26481 24.9379 2.52597 24.8248 2.76544C24.7117 3.0049 24.548 3.21697 24.345 3.387C24.0037 3.67228 23.5907 3.85868 23.151 3.926H2.157C2.03998 3.93216 1.92274 3.91898 1.81 3.887C1.32725 3.83696 0.878656 3.61478 0.546288 3.26111C0.213919 2.90744 0.019998 2.44592 0 1.961C0.00231699 1.69618 0.0620812 1.43503 0.175167 1.19556C0.288253 0.956097 0.451965 0.744027 0.654999 0.573999C1.08488 0.204219 1.63296 0.000595569 2.2 0H22.881C23.4211 0.00531362 23.9394 0.214219 24.3322 0.584983C24.725 0.955747 24.9635 1.46107 25 2Z" fill="url(#paint0_linear)"/>
<path d="M22.8041 4.70001H2.15706C2.04003 4.70617 1.9228 4.693 1.81006 4.66101V21.071H23.1891V4.66101C23.0634 4.69298 22.9336 4.70613 22.8041 4.70001ZM16.6791 14.83C16.5916 15.4577 16.2595 16.0253 15.7551 16.409C15.3873 16.7393 14.9543 16.9887 14.4841 17.141C14.3301 17.18 14.2911 17.257 14.2911 17.411V18.836H11.5171V17.526C11.5316 17.4392 11.5115 17.3502 11.461 17.2782C11.4104 17.2061 11.3336 17.1569 11.2471 17.141C10.573 16.9467 9.979 16.5416 9.55206 15.985C9.20064 15.5786 9.00906 15.0583 9.01306 14.521H11.7861C11.8488 14.6984 11.9528 14.8584 12.0895 14.9877C12.2262 15.1169 12.3917 15.2118 12.5724 15.2645C12.753 15.3172 12.9436 15.3261 13.1284 15.2905C13.3132 15.255 13.4869 15.176 13.6351 15.06C13.7225 15.0013 13.7948 14.9227 13.846 14.8306C13.8972 14.7386 13.9258 14.6357 13.9297 14.5305C13.9335 14.4252 13.9123 14.3205 13.8679 14.225C13.8234 14.1295 13.757 14.0459 13.6741 13.981C13.4461 13.7957 13.1586 13.6997 12.8651 13.711C12.1159 13.724 11.3751 13.5523 10.7081 13.211C10.3394 13.047 10.0087 12.8083 9.73693 12.51C9.46515 12.2117 9.25817 11.8603 9.12906 11.478C8.99123 10.9862 9.01388 10.4633 9.19373 9.98523C9.37358 9.50719 9.70124 9.099 10.1291 8.82001C10.5064 8.5769 10.9062 8.37062 11.3231 8.20401C11.4771 8.12701 11.5161 8.08801 11.5161 7.93401V6.97101H14.2901V8.01101C14.2834 8.06163 14.2954 8.11293 14.3237 8.15541C14.352 8.19788 14.3948 8.22865 14.4441 8.24201C15.0521 8.42442 15.5983 8.77034 16.0231 9.24201C16.4588 9.66856 16.708 10.2503 16.7161 10.86H14.1371C14.0211 10.86 13.9061 10.86 13.9061 10.706C13.9061 10.629 13.8671 10.59 13.8291 10.513C13.7164 10.379 13.5765 10.2706 13.4186 10.195C13.2607 10.1194 13.0884 10.0784 12.9134 10.0747C12.7384 10.071 12.5646 10.1047 12.4036 10.1736C12.2427 10.2424 12.0983 10.3449 11.9801 10.474C11.8884 10.6007 11.8457 10.7562 11.8598 10.9119C11.874 11.0676 11.9441 11.213 12.0571 11.321C12.3117 11.5466 12.6408 11.6702 12.9811 11.668C13.9557 11.6472 14.9082 11.9598 15.6811 12.554C16.0527 12.7932 16.3457 13.1367 16.5232 13.5416C16.7007 13.9464 16.7549 14.3945 16.6791 14.83Z" fill="url(#paint1_linear)"/>
<defs>
<linearGradient id="paint0_linear" x1="0" y1="1.96374" x2="25" y2="1.96374" gradientUnits="userSpaceOnUse">
<stop stop-color="#9795F0"/>
<stop offset="1" stop-color="#FBC8D4"/>
</linearGradient>
<linearGradient id="paint1_linear" x1="1.81006" y1="12.866" x2="23.1891" y2="12.866" gradientUnits="userSpaceOnUse">
<stop stop-color="#9795F0"/>
<stop offset="1" stop-color="#FBC8D4"/>
</linearGradient>
</defs>
</svg>
