<svg width="33" height="30" viewBox="0 0 33 30" fill="none" xmlns="http://www.w3.org/2000/svg">
<path fill-rule="evenodd" clip-rule="evenodd" d="M16.4883 0.00150458C16.4033 0.00675457 16.317 0.0252045 16.2305 0.0483795L8.39066 3.01322C7.94794 3.20777 7.87504 3.43655 7.87504 3.85696V12.2124L0.421934 15.7632C0.0968471 15.9509 5.988e-05 16.2028 5.988e-05 16.5601V25.396C-0.00369011 25.6772 0.169034 25.9526 0.421934 26.0757L8.12115 29.8256C8.41875 29.9975 8.70821 30.0059 9.01178 29.8842L16.5 26.2397L24 29.896C24.2857 30.0487 24.5893 29.9348 24.8203 29.8607L32.5781 26.0756C32.831 25.9525 33.002 25.6771 33 25.3959V16.5482C33 16.1132 32.8531 15.9296 32.5078 15.7397L25.125 12.2241V3.83346C25.1344 3.45587 24.8065 3.06681 24.5625 3.00141L16.7578 0.0482879C16.6569 0.00415802 16.5733 -0.00382571 16.4883 0.00141303V0.00150458ZM16.4999 1.5484L22.4179 3.79839L16.4999 6.4937L10.5702 3.79839L16.4999 1.5484ZM9.37492 4.88821L15.7499 7.79445V15.3296L9.37492 12.2241V4.88821ZM8.61319 13.5132L14.6366 16.4546L8.62493 19.2085L2.51945 16.4194L8.61319 13.5132ZM24.3749 13.5132L30.4686 16.4194L24.3749 19.2085L18.3632 16.4546L24.3749 13.5132ZM1.49994 17.603L7.87493 20.5092V28.0444L1.49994 24.9272V17.603ZM17.2499 17.603L23.6249 20.5092V28.0444L17.2499 24.9389V17.603Z" fill="#5B5D60"/>
</svg>
