<svg width="26" height="31" viewBox="0 0 26 31" fill="none" xmlns="http://www.w3.org/2000/svg">
<path d="M18.0111 15.011V27.311C18.0108 27.5777 17.9048 27.8335 17.7162 28.0221C17.5276 28.2107 17.2718 28.3167 17.0051 28.317H14.9961C14.7294 28.3167 14.4737 28.2107 14.2851 28.0221C14.0965 27.8335 13.9904 27.5777 13.9901 27.311V15.011C13.9904 14.7443 14.0965 14.4886 14.2851 14.3C14.4737 14.1114 14.7294 14.0053 14.9961 14.005H17.0051C17.2718 14.0053 17.5276 14.1114 17.7162 14.3C17.9048 14.4886 18.0108 14.7443 18.0111 15.011Z" fill="url(#paint0_linear)"/>
<path d="M25.004 19.584V27.314C25.0038 27.5807 24.8977 27.8365 24.7091 28.0251C24.5205 28.2137 24.2648 28.3197 23.998 28.32H21.989C21.7223 28.3197 21.4666 28.2137 21.278 28.0251C21.0894 27.8365 20.9833 27.5807 20.983 27.314V19.584C20.9833 19.3173 21.0894 19.0616 21.278 18.873C21.4666 18.6844 21.7223 18.5783 21.989 18.578H23.998C24.2648 18.5783 24.5205 18.6844 24.7091 18.873C24.8977 19.0616 25.0038 19.3173 25.004 19.584Z" fill="url(#paint1_linear)"/>
<path d="M4.02507 1.187V27.133C4.04673 27.4233 3.95338 27.7105 3.76517 27.9325C3.57696 28.1546 3.30899 28.2938 3.01908 28.32H1.01007C0.719979 28.294 0.451743 28.155 0.263323 27.9329C0.074904 27.7108 -0.0185769 27.4234 0.00306946 27.133V1.187C-0.0185769 0.896546 0.074904 0.609245 0.263323 0.387146C0.451743 0.165047 0.719979 0.0259827 1.01007 0H3.01908C3.30899 0.0262294 3.57696 0.165395 3.76517 0.387466C3.95338 0.609538 4.04673 0.896705 4.02507 1.187Z" fill="url(#paint2_linear)"/>
<path d="M11.0181 10.393V27.314C11.0178 27.5807 10.9117 27.8364 10.7231 28.025C10.5345 28.2136 10.2788 28.3197 10.0121 28.32H8.00307C7.73634 28.3197 7.48063 28.2136 7.29202 28.025C7.10342 27.8364 6.99734 27.5807 6.99707 27.314V10.393C6.99734 10.1262 7.10342 9.8705 7.29202 9.6819C7.48063 9.4933 7.73634 9.38723 8.00307 9.38696H10.0121C10.2789 9.38696 10.5348 9.49295 10.7234 9.68161C10.9121 9.87027 11.0181 10.1262 11.0181 10.393Z" fill="url(#paint3_linear)"/>
<path d="M24.6591 29.449H0.349075C0.307539 29.4393 0.264328 29.439 0.222687 29.4483C0.181045 29.4576 0.142039 29.4762 0.108597 29.5027C0.0751546 29.5292 0.0481448 29.5629 0.0295715 29.6013C0.0109983 29.6397 0.00134277 29.6819 0.00134277 29.7245C0.00134277 29.7672 0.0109983 29.8093 0.0295715 29.8477C0.0481448 29.8861 0.0751546 29.9199 0.108597 29.9464C0.142039 29.9729 0.181045 29.9914 0.222687 30.0007C0.264328 30.01 0.307539 30.0098 0.349075 30H24.6601C24.7016 30.0098 24.7448 30.01 24.7865 30.0007C24.8281 29.9914 24.8671 29.9729 24.9005 29.9464C24.934 29.9199 24.961 29.8861 24.9796 29.8477C24.9981 29.8093 25.0078 29.7672 25.0078 29.7245C25.0078 29.6819 24.9981 29.6397 24.9796 29.6013C24.961 29.5629 24.934 29.5292 24.9005 29.5027C24.8671 29.4762 24.8281 29.4576 24.7865 29.4483C24.7448 29.439 24.7016 29.4393 24.6601 29.449H24.6591Z" fill="url(#paint4_linear)"/>
<defs>
<linearGradient id="paint0_linear" x1="13.9901" y1="21.161" x2="18.0111" y2="21.161" gradientUnits="userSpaceOnUse">
<stop stop-color="#EBBBA7"/>
<stop offset="1" stop-color="#CFC7F8"/>
</linearGradient>
<linearGradient id="paint1_linear" x1="20.983" y1="23.449" x2="25.004" y2="23.449" gradientUnits="userSpaceOnUse">
<stop stop-color="#EBBBA7"/>
<stop offset="1" stop-color="#CFC7F8"/>
</linearGradient>
<linearGradient id="paint2_linear" x1="0" y1="14.16" x2="4.02815" y2="14.16" gradientUnits="userSpaceOnUse">
<stop stop-color="#EBBBA7"/>
<stop offset="1" stop-color="#CFC7F8"/>
</linearGradient>
<linearGradient id="paint3_linear" x1="6.99707" y1="18.8535" x2="11.0181" y2="18.8535" gradientUnits="userSpaceOnUse">
<stop stop-color="#EBBBA7"/>
<stop offset="1" stop-color="#CFC7F8"/>
</linearGradient>
<linearGradient id="paint4_linear" x1="0.00134277" y1="29.7245" x2="25.0078" y2="29.7245" gradientUnits="userSpaceOnUse">
<stop stop-color="#EBBBA7"/>
<stop offset="1" stop-color="#CFC7F8"/>
</linearGradient>
</defs>
</svg>
