<svg id="Group_1249" data-name="Group 1249" xmlns="http://www.w3.org/2000/svg" width="25" height="25" viewBox="0 0 25 25">
  <g id="noun_Project_582450" transform="translate(0 0)">
    <g id="Group_1244" data-name="Group 1244" transform="translate(0 0)">
      <g id="Group_1243" data-name="Group 1243">
        <path id="Path_530" data-name="Path 530" d="M19.636,9.546V9.394a2.129,2.129,0,0,0-4.258,0v.151ZM27.727,25.7V13.849a2.027,2.027,0,0,0-2.015-2.03H9.3a2.04,2.04,0,0,0-2.03,2.03V25.7a2.04,2.04,0,0,0,2.03,2.03H25.712A2.028,2.028,0,0,0,27.727,25.7ZM30,13.849V25.7A4.3,4.3,0,0,1,25.712,30H9.3A4.32,4.32,0,0,1,5,25.7V13.849a4.32,4.32,0,0,1,4.3-4.3h3.8V9.394a4.4,4.4,0,0,1,8.8,0v.151h3.8A4.3,4.3,0,0,1,30,13.849Z" transform="translate(-5 -5)" fill="#fff"/>
      </g>
    </g>
  </g>
  <rect id="Rectangle_2129" data-name="Rectangle 2129" width="23" height="17" transform="translate(1 6.353)" fill="#fff"/>
</svg>
