<svg width="25" height="26" viewBox="0 0 25 26" fill="none" xmlns="http://www.w3.org/2000/svg">
<path d="M24.4162 19.2324H24.0285V2.44513H24.3351C24.3869 2.44847 24.4387 2.44022 24.4872 2.42091C24.5357 2.40161 24.5797 2.37169 24.6164 2.33314C24.653 2.2946 24.6815 2.2483 24.6999 2.19732C24.7182 2.14634 24.7261 2.09184 24.7229 2.03743C24.7261 1.98302 24.7182 1.92852 24.6999 1.87754C24.6815 1.82657 24.653 1.78027 24.6164 1.74172C24.5797 1.70318 24.5357 1.67326 24.4872 1.65395C24.4387 1.63465 24.3869 1.62639 24.3351 1.62974H13.4872V1.18148C13.4872 0.868134 13.3688 0.567619 13.1581 0.346048C12.9473 0.124477 12.6615 0 12.3634 0C12.0654 0 11.7796 0.124477 11.5688 0.346048C11.3581 0.567619 11.2397 0.868134 11.2397 1.18148V1.62974H0.387779C0.284934 1.62974 0.186301 1.67269 0.113578 1.74915C0.0408552 1.82561 0 1.92931 0 2.03743C0 2.14556 0.0408552 2.24926 0.113578 2.32572C0.186301 2.40217 0.284934 2.44513 0.387779 2.44513H0.852718V19.2324H0.464939C0.414015 19.2324 0.36359 19.2429 0.316543 19.2634C0.269495 19.2839 0.226747 19.3139 0.190738 19.3518C0.154729 19.3896 0.126166 19.4346 0.106678 19.484C0.0871903 19.5335 0.0771601 19.5865 0.0771601 19.6401C0.0771601 19.6936 0.0871903 19.7466 0.106678 19.7961C0.126166 19.8455 0.154729 19.8905 0.190738 19.9283C0.226747 19.9662 0.269495 19.9962 0.316543 20.0167C0.36359 20.0372 0.414015 20.0478 0.464939 20.0478H9.5728L4.53464 25.3031C4.47639 25.3583 4.43721 25.4322 4.42325 25.5133C4.40929 25.5945 4.42133 25.6782 4.45748 25.7513C4.4858 25.8218 4.53236 25.8825 4.59188 25.9266C4.6514 25.9706 4.72148 25.9962 4.79415 26.0004C4.86681 26.0046 4.93915 25.9873 5.00293 25.9505C5.0667 25.9136 5.11935 25.8587 5.15489 25.7919L10.658 20.0467H14.2192L19.7589 25.8709C19.832 25.9403 19.9276 25.9774 20.0259 25.9748C20.1243 25.9722 20.218 25.9299 20.2875 25.8567C20.3571 25.7836 20.3973 25.6851 20.3998 25.5817C20.4023 25.4783 20.367 25.3778 20.301 25.301L15.3014 20.0446H24.4093C24.5122 20.0446 24.6108 20.0017 24.6835 19.9252C24.7562 19.8488 24.7971 19.7451 24.7971 19.6369C24.7971 19.5288 24.7562 19.4251 24.6835 19.3487C24.6108 19.2722 24.5122 19.2292 24.4093 19.2292L24.4162 19.2324ZM12.0142 1.18148C12.019 1.08763 12.0578 0.999264 12.1227 0.934597C12.1875 0.869929 12.2735 0.833883 12.3629 0.833883C12.4523 0.833883 12.5383 0.869929 12.6032 0.934597C12.6681 0.999264 12.7069 1.08763 12.7116 1.18148V1.62974H12.0142V1.18148ZM5.34779 16.624H4.22402C4.1731 16.624 4.12267 16.6134 4.07563 16.5929C4.02858 16.5724 3.98583 16.5424 3.94982 16.5045C3.91381 16.4667 3.88525 16.4217 3.86576 16.3723C3.84627 16.3228 3.83624 16.2698 3.83624 16.2163C3.83624 16.1627 3.84627 16.1097 3.86576 16.0602C3.88525 16.0108 3.91381 15.9658 3.94982 15.928C3.98583 15.8901 4.02858 15.8601 4.07563 15.8396C4.12267 15.8191 4.1731 15.8086 4.22402 15.8086H5.34779C5.39954 15.8052 5.45138 15.8135 5.49987 15.8328C5.54836 15.8521 5.59239 15.882 5.62906 15.9206C5.66572 15.9591 5.69417 16.0054 5.71254 16.0564C5.7309 16.1074 5.73875 16.1618 5.73557 16.2163C5.73531 16.3243 5.69437 16.4278 5.6217 16.5042C5.54904 16.5806 5.45056 16.6237 5.34779 16.624ZM5.34779 13.9344H4.22402C4.12118 13.9344 4.02254 13.8915 3.94982 13.815C3.8771 13.7386 3.83624 13.6349 3.83624 13.5267C3.83624 13.4186 3.8771 13.3149 3.94982 13.2384C4.02254 13.162 4.12118 13.119 4.22402 13.119H5.34779C5.39954 13.1157 5.45138 13.1239 5.49987 13.1432C5.54836 13.1626 5.59239 13.1925 5.62906 13.231C5.66572 13.2696 5.69417 13.3159 5.71254 13.3668C5.7309 13.4178 5.73875 13.4723 5.73557 13.5267C5.72931 13.6329 5.6865 13.733 5.61514 13.8084C5.54377 13.8839 5.44874 13.9294 5.34779 13.9365V13.9344ZM5.34779 11.2449H4.22402C4.12118 11.2449 4.02254 11.2019 3.94982 11.1255C3.8771 11.049 3.83624 10.9453 3.83624 10.8372C3.83624 10.7291 3.8771 10.6254 3.94982 10.5489C4.02254 10.4724 4.12118 10.4295 4.22402 10.4295H5.34779C5.39954 10.4261 5.45138 10.4344 5.49987 10.4537C5.54836 10.473 5.59239 10.5029 5.62906 10.5415C5.66572 10.58 5.69417 10.6263 5.71254 10.6773C5.7309 10.7283 5.73875 10.7828 5.73557 10.8372C5.73557 10.9454 5.69475 11.0492 5.62205 11.1258C5.54936 11.2025 5.45073 11.2456 5.34779 11.2459V11.2449ZM5.34779 8.59591H4.22402C4.12118 8.59591 4.02254 8.55295 3.94982 8.4765C3.8771 8.40004 3.83624 8.29634 3.83624 8.18821C3.83624 8.08009 3.8771 7.97639 3.94982 7.89993C4.02254 7.82347 4.12118 7.78052 4.22402 7.78052H5.34779C5.39954 7.77718 5.45138 7.78543 5.49987 7.80474C5.54836 7.82404 5.59239 7.85396 5.62906 7.8925C5.66572 7.93105 5.69417 7.97735 5.71254 8.02833C5.7309 8.0793 5.73875 8.1338 5.73557 8.18821C5.72908 8.2942 5.68616 8.39409 5.61483 8.46929C5.54349 8.54448 5.44858 8.58985 5.34779 8.59695V8.59591ZM5.34779 5.90637H4.22402C4.12936 5.89508 4.04196 5.84754 3.9785 5.77282C3.91504 5.69811 3.87997 5.60144 3.87997 5.50128C3.87997 5.40111 3.91504 5.30445 3.9785 5.22973C4.04196 5.15502 4.12936 5.10748 4.22402 5.09618H5.34779C5.39954 5.09284 5.45138 5.10109 5.49987 5.1204C5.54836 5.1397 5.59239 5.16962 5.62906 5.20817C5.66572 5.24671 5.69417 5.29301 5.71254 5.34399C5.7309 5.39497 5.73875 5.44947 5.73557 5.50388C5.73453 5.61138 5.69325 5.71412 5.62066 5.78985C5.54808 5.86557 5.45005 5.90818 5.34779 5.90845V5.90637ZM19.2613 16.6188H8.44903C8.39811 16.6188 8.34769 16.6082 8.30064 16.5877C8.25359 16.5672 8.21084 16.5372 8.17483 16.4993C8.13882 16.4615 8.11026 16.4165 8.09077 16.3671C8.07129 16.3176 8.06126 16.2646 8.06126 16.2111C8.06126 16.1575 8.07129 16.1045 8.09077 16.055C8.11026 16.0056 8.13882 15.9606 8.17483 15.9228C8.21084 15.8849 8.25359 15.8549 8.30064 15.8344C8.34769 15.8139 8.39811 15.8034 8.44903 15.8034H19.2613C19.3642 15.8034 19.4628 15.8463 19.5355 15.9228C19.6083 15.9992 19.6491 16.1029 19.6491 16.2111C19.6491 16.3192 19.6083 16.4229 19.5355 16.4993C19.4628 16.5758 19.3642 16.6188 19.2613 16.6188ZM19.2613 13.9292H8.44903C8.34619 13.9292 8.24756 13.8863 8.17483 13.8098C8.10211 13.7334 8.06126 13.6297 8.06126 13.5215C8.06126 13.4134 8.10211 13.3097 8.17483 13.2332C8.24756 13.1568 8.34619 13.1138 8.44903 13.1138H19.2613C19.3131 13.1105 19.3649 13.1187 19.4134 13.138C19.4619 13.1574 19.5059 13.1873 19.5426 13.2258C19.5793 13.2644 19.6077 13.3107 19.6261 13.3616C19.6445 13.4126 19.6523 13.4671 19.6491 13.5215C19.6499 13.5756 19.6405 13.6294 19.6213 13.6796C19.6022 13.7299 19.5738 13.7756 19.5377 13.8142C19.5016 13.8528 19.4586 13.8835 19.4112 13.9045C19.3638 13.9255 19.3128 13.9364 19.2613 13.9365V13.9292ZM19.2613 11.2397H8.44903C8.34619 11.2397 8.24756 11.1967 8.17483 11.1203C8.10211 11.0438 8.06126 10.9401 8.06126 10.832C8.06126 10.7239 8.10211 10.6202 8.17483 10.5437C8.24756 10.4672 8.34619 10.4243 8.44903 10.4243H19.2613C19.3642 10.4243 19.4628 10.4672 19.5355 10.5437C19.6083 10.6202 19.6491 10.7239 19.6491 10.832C19.6491 10.9401 19.6083 11.0438 19.5355 11.1203C19.4628 11.1967 19.3642 11.2397 19.2613 11.2397ZM19.2613 8.59071H8.44903C8.34619 8.59071 8.24756 8.54775 8.17483 8.4713C8.10211 8.39484 8.06126 8.29114 8.06126 8.18301C8.06126 8.07489 8.10211 7.97119 8.17483 7.89473C8.24756 7.81827 8.34619 7.77532 8.44903 7.77532H19.2613C19.3131 7.77198 19.3649 7.78023 19.4134 7.79954C19.4619 7.81884 19.5059 7.84876 19.5426 7.8873C19.5793 7.92585 19.6077 7.97215 19.6261 8.02312C19.6445 8.0741 19.6523 8.1286 19.6491 8.18301C19.6498 8.23704 19.6402 8.29066 19.6211 8.34079C19.6019 8.39091 19.5734 8.43654 19.5374 8.47503C19.5013 8.51352 19.4583 8.54412 19.411 8.56504C19.3636 8.58597 19.3127 8.59682 19.2613 8.59695V8.59071ZM19.2613 5.90117H8.44903C8.39811 5.90117 8.34769 5.89063 8.30064 5.87014C8.25359 5.84965 8.21084 5.81962 8.17483 5.78176C8.13882 5.7439 8.11026 5.69896 8.09077 5.6495C8.07129 5.60003 8.06126 5.54702 8.06126 5.49348C8.06126 5.43994 8.07129 5.38692 8.09077 5.33746C8.11026 5.28799 8.13882 5.24305 8.17483 5.20519C8.21084 5.16734 8.25359 5.1373 8.30064 5.11682C8.34769 5.09633 8.39811 5.08578 8.44903 5.08578H19.2613C19.3642 5.08578 19.4628 5.12874 19.5355 5.20519C19.6083 5.28165 19.6491 5.38535 19.6491 5.49348C19.6491 5.6016 19.6083 5.7053 19.5355 5.78176C19.4628 5.85822 19.3642 5.90117 19.2613 5.90117Z" fill="#5B5E61" fill-opacity="0.16"/>
</svg>
