<svg xmlns="http://www.w3.org/2000/svg" width="25.073" height="25" viewBox="0 0 25.073 25">
  <g id="Proposal_icon-2" data-name="Proposal icon-2" transform="translate(-1 -1.1)">
    <g id="Group_5178" data-name="Group 5178" transform="translate(1 1.1)">
      <path id="Path_12312" data-name="Path 12312" d="M25.682,19.592H25.29V3.451H25.6a.37.37,0,0,0,.392-.392.37.37,0,0,0-.392-.392H14.634V2.236a1.136,1.136,0,0,0-2.272,0v.431H1.392a.392.392,0,0,0,0,.784h.47V19.592H1.47a.392.392,0,1,0,0,.784h9.207L5.584,25.429a.358.358,0,0,0-.078.431.393.393,0,0,0,.705.039l5.563-5.524h3.6l5.6,5.6a.388.388,0,0,0,.548-.548l-5.054-5.054h9.207a.392.392,0,0,0,0-.784ZM13.145,2.236a.353.353,0,0,1,.705,0v.431h-.705ZM6.406,17.084H5.27a.392.392,0,1,1,0-.784H6.406a.37.37,0,0,1,.392.392A.393.393,0,0,1,6.406,17.084Zm0-2.586H5.27a.392.392,0,1,1,0-.784H6.406a.37.37,0,0,1,.392.392A.421.421,0,0,1,6.406,14.5Zm0-2.586H5.27a.392.392,0,0,1,0-.784H6.406a.37.37,0,0,1,.392.392A.393.393,0,0,1,6.406,11.913Zm0-2.547H5.27a.392.392,0,1,1,0-.784H6.406a.37.37,0,0,1,.392.392A.421.421,0,0,1,6.406,9.366Zm0-2.586H5.27A.392.392,0,0,1,5.27,6H6.406a.37.37,0,0,1,.392.392A.393.393,0,0,1,6.406,6.781Zm14.065,10.3H9.541a.392.392,0,1,1,0-.784h10.93a.392.392,0,0,1,0,.784Zm0-2.586H9.541a.392.392,0,1,1,0-.784h10.93a.37.37,0,0,1,.392.392A.393.393,0,0,1,20.471,14.5Zm0-2.586H9.541a.392.392,0,1,1,0-.784h10.93a.392.392,0,0,1,0,.784Zm0-2.547H9.541a.392.392,0,1,1,0-.784h10.93a.37.37,0,0,1,.392.392A.393.393,0,0,1,20.471,9.366Zm0-2.586H9.541a.392.392,0,1,1,0-.784h10.93a.392.392,0,0,1,0,.784Z" transform="translate(-1 -1.1)" fill="#fff"/>
    </g>
  </g>
</svg>
