<svg width="25" height="32" viewBox="0 0 25 32" fill="none" xmlns="http://www.w3.org/2000/svg">
<path d="M17.8171 15.612V28.4045C17.8168 28.6819 17.7119 28.9478 17.5253 29.144C17.3387 29.3401 17.0857 29.4504 16.8219 29.4507H14.8345C14.5707 29.4504 14.3177 29.3401 14.1311 29.144C13.9446 28.9478 13.8396 28.6819 13.8394 28.4045V15.612C13.8396 15.3346 13.9446 15.0686 14.1311 14.8724C14.3177 14.6763 14.5707 14.5659 14.8345 14.5657H16.8219C17.0857 14.5659 17.3387 14.6763 17.5253 14.8724C17.7119 15.0686 17.8168 15.3346 17.8171 15.612Z" fill="#5B5E61" fill-opacity="0.16"/>
<path d="M24.735 20.3681V28.4075C24.7348 28.6849 24.6299 28.9509 24.4433 29.1471C24.2567 29.3432 24.0037 29.4536 23.7399 29.4538H21.7525C21.4886 29.4536 21.2357 29.3432 21.0491 29.1471C20.8625 28.9509 20.7576 28.6849 20.7573 28.4075V20.3681C20.7576 20.0907 20.8625 19.8247 21.0491 19.6285C21.2357 19.4324 21.4886 19.3221 21.7525 19.3218H23.7399C24.0037 19.3221 24.2567 19.4324 24.4433 19.6285C24.6299 19.8247 24.7348 20.0907 24.735 20.3681Z" fill="#5B5E61" fill-opacity="0.16"/>
<path d="M3.98173 1.23452V28.2193C4.00316 28.5213 3.91081 28.8199 3.72463 29.0509C3.53845 29.2819 3.27336 29.4266 2.98657 29.4539H0.999197C0.712226 29.4269 0.446879 29.2822 0.260488 29.0512C0.0740974 28.8202 -0.0183768 28.5214 0.00303641 28.2193V1.23452C-0.0183768 0.932442 0.0740974 0.633638 0.260488 0.402647C0.446879 0.171655 0.712226 0.027023 0.999197 0H2.98657C3.27336 0.0272796 3.53845 0.172017 3.72463 0.40298C3.91081 0.633943 4.00316 0.932607 3.98173 1.23452Z" fill="#5B5E61" fill-opacity="0.16"/>
<path d="M10.8996 10.8091V28.4076C10.8993 28.685 10.7944 28.951 10.6078 29.1471C10.4212 29.3433 10.1683 29.4536 9.90441 29.4539H7.91704C7.65319 29.4536 7.40022 29.3433 7.21365 29.1471C7.02708 28.951 6.92214 28.685 6.92188 28.4076V10.8091C6.92214 10.5317 7.02708 10.2657 7.21365 10.0696C7.40022 9.87341 7.65319 9.76309 7.91704 9.76282H9.90441C10.1683 9.76282 10.4215 9.87305 10.6081 10.0693C10.7947 10.2655 10.8996 10.5316 10.8996 10.8091Z" fill="#5B5E61" fill-opacity="0.16"/>
<path d="M24.3937 30.628H0.345453C0.304365 30.6179 0.261619 30.6177 0.220426 30.6273C0.179232 30.637 0.140646 30.6563 0.107564 30.6839C0.0744819 30.7114 0.0477629 30.7465 0.0293897 30.7864C0.0110164 30.8264 0.00146484 30.8702 0.00146484 30.9146C0.00146484 30.9589 0.0110164 31.0028 0.0293897 31.0427C0.0477629 31.0827 0.0744819 31.1177 0.107564 31.1453C0.140646 31.1728 0.179232 31.1922 0.220426 31.2019C0.261619 31.2115 0.304365 31.2113 0.345453 31.2011H24.3947C24.4358 31.2113 24.4785 31.2115 24.5197 31.2019C24.5609 31.1922 24.5995 31.1728 24.6326 31.1453C24.6656 31.1177 24.6924 31.0827 24.7107 31.0427C24.7291 31.0028 24.7387 30.9589 24.7387 30.9146C24.7387 30.8702 24.7291 30.8264 24.7107 30.7864C24.6924 30.7465 24.6656 30.7114 24.6326 30.6839C24.5995 30.6563 24.5609 30.637 24.5197 30.6273C24.4785 30.6177 24.4358 30.6179 24.3947 30.628H24.3937Z" fill="#5B5E61" fill-opacity="0.16"/>
</svg>
