<svg xmlns="http://www.w3.org/2000/svg" width="25" height="30" viewBox="0 0 25 30"><defs><style>.a{fill:#fff;}</style></defs><g transform="translate(0 0)"><path class="a" d="M261.892,247.964v12.3a1.007,1.007,0,0,1-1.006,1.006h-2.009a1.007,1.007,0,0,1-1.006-1.006v-12.3a1.007,1.007,0,0,1,1.006-1.006h2.009A1.007,1.007,0,0,1,261.892,247.964Z" transform="translate(-243.885 -232.953)"/><path class="a" d="M277.158,261.07V268.8a1.007,1.007,0,0,1-1.006,1.006h-2.009a1.007,1.007,0,0,1-1.006-1.006V261.07a1.007,1.007,0,0,1,1.006-1.006h2.009A1.007,1.007,0,0,1,277.158,261.07Z" transform="translate(-252.158 -241.486)"/><path class="a" d="M231.36,220.387v25.946a1.109,1.109,0,0,1-1.006,1.187h-2.009a1.109,1.109,0,0,1-1.007-1.187V220.387a1.109,1.109,0,0,1,1.007-1.187h2.009A1.109,1.109,0,0,1,231.36,220.387Z" transform="translate(-227.339 -219.2)"/><path class="a" d="M246.626,234.728v16.921a1.007,1.007,0,0,1-1.006,1.006h-2.009a1.007,1.007,0,0,1-1.006-1.006V234.728a1.007,1.007,0,0,1,1.006-1.006h2.009A1.006,1.006,0,0,1,246.626,234.728Z" transform="translate(-235.612 -224.335)"/><path class="a" d="M251.994,291.222H227.684a.283.283,0,1,0,0,.551h24.311a.283.283,0,1,0,0-.551Z" transform="translate(-227.339 -261.773)"/></g></svg>