<svg xmlns="http://www.w3.org/2000/svg" width="26.155" height="19.981" viewBox="0 0 26.155 19.981"><defs><style>.a{fill:#5e6063;}</style></defs><g transform="translate(0 0)"><path class="a" d="M11.965,15.029A4.755,4.755,0,1,0,7.21,10.275,4.762,4.762,0,0,0,11.965,15.029Z" transform="translate(-2.503 -5.52)"/><path class="a" d="M12.256,17.6H11.208A8.965,8.965,0,0,0,2.27,26.071H21.184A8.943,8.943,0,0,0,12.256,17.6Z" transform="translate(-2.27 -6.09)"/><path class="a" d="M23.5,7.86a5.665,5.665,0,1,0,5.66,5.669A5.669,5.669,0,0,0,23.5,7.86ZM26.092,14H24.367a1.306,1.306,0,0,1-.162.219c-.01.01-.019.019-.029.019a1.439,1.439,0,0,1-.248.172c-.029.01-.057.029-.086.038a.979.979,0,0,1-1.267-1.267.338.338,0,0,1,.038-.086.953.953,0,0,1,.172-.248c.01-.01.019-.019.019-.029a.869.869,0,0,1,.219-.162V9.89a.476.476,0,0,1,.953,0v2.754a1.011,1.011,0,0,1,.4.4H26.1a.472.472,0,0,1,.476.476A.48.48,0,0,1,26.092,14Z" transform="translate(-3.004 -5.63)"/></g></svg>