<svg xmlns="http://www.w3.org/2000/svg" width="25" height="25" viewBox="0 0 25 25"><defs><style>.a{fill:#5e6063;}</style></defs><g transform="translate(-540 -80)"><path class="a" d="M28.664,15.072H26.794a9.35,9.35,0,0,0-1-2.428l1.322-1.322a1.331,1.331,0,0,0,0-1.886l-1.55-1.55a1.334,1.334,0,0,0-1.886,0L22.356,9.208a9.35,9.35,0,0,0-2.428-1V6.336A1.337,1.337,0,0,0,18.592,5H16.408a1.337,1.337,0,0,0-1.336,1.336V8.206a9.35,9.35,0,0,0-2.428,1L11.322,7.886a1.331,1.331,0,0,0-1.886,0l-1.55,1.55a1.331,1.331,0,0,0,0,1.886l1.322,1.322a9.35,9.35,0,0,0-1,2.428H6.336A1.337,1.337,0,0,0,5,16.408v2.183a1.337,1.337,0,0,0,1.336,1.336H8.206a9.35,9.35,0,0,0,1,2.428L7.886,23.678a1.331,1.331,0,0,0,0,1.886l1.55,1.55a1.331,1.331,0,0,0,1.886,0l1.322-1.322a9.35,9.35,0,0,0,2.428,1v1.869A1.337,1.337,0,0,0,16.408,30h2.183a1.337,1.337,0,0,0,1.336-1.336V26.794a9.35,9.35,0,0,0,2.428-1l1.322,1.322a1.331,1.331,0,0,0,1.886,0l1.55-1.55a1.331,1.331,0,0,0,0-1.886l-1.322-1.322a9.35,9.35,0,0,0,1-2.428h1.869A1.337,1.337,0,0,0,30,18.592V16.408A1.337,1.337,0,0,0,28.664,15.072ZM17.5,11.552a2.556,2.556,0,1,1-2.556,2.556A2.559,2.559,0,0,1,17.5,11.552Zm3.7,9.988a1.63,1.63,0,0,1-1.467,1.628H15.27A1.631,1.631,0,0,1,13.8,21.54v-.126a3.7,3.7,0,0,1,7.4,0v.126Z" transform="translate(535 75)"/></g></svg>