<svg xmlns="http://www.w3.org/2000/svg" width="25" height="25" viewBox="0 0 25 25"><defs><style>.a{fill:#5b5e61;}</style></defs><g transform="translate(-11.666 -17.766)"><path class="a" d="M31.071,28.538l-8.856-8.9A2.213,2.213,0,0,0,21.9,19.4a4.844,4.844,0,0,0-1.037-5.226A4.789,4.789,0,0,0,15.712,13.1l2.074,2.074a1.918,1.918,0,0,1-2.713,2.713L13,15.812A4.8,4.8,0,0,0,19.3,22c.08.12.16.2.239.319l8.856,8.9a4.8,4.8,0,0,0,6.223,6.223l-2.114-2.114a1.918,1.918,0,1,1,2.713-2.713l2.114,2.114a4.789,4.789,0,0,0-1.077-5.146A4.854,4.854,0,0,0,31.071,28.538Z" transform="translate(-1 5)"/></g></svg>