<svg xmlns="http://www.w3.org/2000/svg" width="24.999" height="25" viewBox="0 0 24.999 25"><defs><style>.a{opacity:0.5;}.b{fill:#707070;}</style></defs><g class="a"><g transform="translate(0 0)"><path class="b" d="M4.929,27.4H24.912A2.465,2.465,0,0,0,27.4,24.912V4.887A2.465,2.465,0,0,0,24.912,2.4H4.887A2.465,2.465,0,0,0,2.4,4.887V24.912A2.528,2.528,0,0,0,4.929,27.4ZM14.921,6.784a8.136,8.136,0,1,1-8.136,8.136A8.141,8.141,0,0,1,14.921,6.784Z" transform="translate(-2.4 -2.4)"/><ellipse class="b" cx="0.759" cy="0.759" rx="0.759" ry="0.759" transform="translate(11.762 18.044)"/><circle class="b" cx="0.759" cy="0.759" r="0.759" transform="translate(9.141 16.996) rotate(135)"/><ellipse class="b" cx="0.759" cy="0.759" rx="0.759" ry="0.759" transform="translate(5.48 11.762)"/><circle class="b" cx="0.759" cy="0.759" r="0.759" transform="translate(9.119 8.068) rotate(135)"/><ellipse class="b" cx="0.759" cy="0.759" rx="0.759" ry="0.759" transform="translate(11.762 5.481)"/><circle class="b" cx="0.759" cy="0.759" r="0.759" transform="translate(18.047 8.046) rotate(135)"/><ellipse class="b" cx="0.759" cy="0.759" rx="0.759" ry="0.759" transform="translate(18.043 11.762)"/><circle class="b" cx="0.759" cy="0.759" r="0.759" transform="translate(18.069 16.974) rotate(135)"/><path class="b" d="M26.736,30.573A3.836,3.836,0,1,0,22.9,26.736,3.85,3.85,0,0,0,26.736,30.573Zm-.337-.717a3.192,3.192,0,0,1-2.487-1.728l1.813-.632a1.3,1.3,0,0,0,.675.464Zm.675,0V27.917a1.5,1.5,0,0,0,.675-.464l1.813.632A3.147,3.147,0,0,1,27.074,29.856Zm2.825-3.12a3.713,3.713,0,0,1-.084.717L28,26.821v-.084a1.421,1.421,0,0,0-.211-.717l1.223-1.476A3.126,3.126,0,0,1,29.9,26.736Zm-3.162-3.162a2.849,2.849,0,0,1,1.686.506L27.2,25.556a1.793,1.793,0,0,0-.464-.084,1.515,1.515,0,0,0-.464.084L25.05,24.08A3.179,3.179,0,0,1,26.736,23.575Zm-2.234.97,1.223,1.476a1.421,1.421,0,0,0-.211.717v.084l-1.813.632a3.713,3.713,0,0,1-.084-.717A2.8,2.8,0,0,1,24.5,24.544Z" transform="translate(-14.216 -14.215)"/></g></g></svg>