<svg width="25" height="27" viewBox="0 0 25 27" fill="none" xmlns="http://www.w3.org/2000/svg">
<path d="M2.50187 26.0011H22.2697C22.5938 26.0043 22.9152 25.9396 23.2151 25.8106C23.5151 25.6817 23.7877 25.4913 24.0168 25.2503C24.246 25.0094 24.4271 24.7229 24.5497 24.4075C24.6724 24.0921 24.7339 23.7542 24.7309 23.4135V2.58669C24.7338 2.24608 24.6721 1.90827 24.5495 1.59301C24.4268 1.27774 24.2456 0.991336 24.0165 0.750525C23.7873 0.509715 23.5148 0.319326 23.2149 0.190482C22.915 0.0616372 22.5937 -0.00307938 22.2697 0.000112575H2.46032C2.13643 -0.00294039 1.81521 0.0618788 1.51541 0.190785C1.21561 0.319692 0.943241 0.510103 0.714208 0.750899C0.485174 0.991696 0.304066 1.27805 0.181456 1.59325C0.0588468 1.90845 -0.00280582 2.24617 9.80042e-05 2.58669V23.4135C0.0104875 24.1037 0.278677 24.762 0.746756 25.2462C1.21484 25.7303 1.84525 26.0015 2.50187 26.0011ZM12.3863 4.55965C13.9781 4.55965 15.5342 5.05592 16.8577 5.98571C18.1813 6.9155 19.2129 8.23705 19.822 9.78324C20.4312 11.3294 20.5906 13.0308 20.28 14.6722C19.9695 16.3136 19.2029 17.8214 18.0774 19.0048C16.9518 20.1882 15.5177 20.9941 13.9564 21.3206C12.3952 21.6471 10.7769 21.4795 9.30629 20.8391C7.83564 20.1986 6.57865 19.114 5.69428 17.7225C4.80991 16.331 4.33788 14.695 4.33788 13.0214C4.33919 10.7776 5.18757 8.62615 6.69665 7.03956C8.20573 5.45297 10.2521 4.56103 12.3863 4.55965Z" fill="#5B5E61" fill-opacity="0.16"/>
<path d="M12.3861 20.3453C12.8008 20.3453 13.1369 19.9919 13.1369 19.556C13.1369 19.12 12.8008 18.7666 12.3861 18.7666C11.9714 18.7666 11.6353 19.12 11.6353 19.556C11.6353 19.9919 11.9714 20.3453 12.3861 20.3453Z" fill="#5B5E61" fill-opacity="0.16"/>
<path d="M7.44974 17.1185C7.15653 17.4267 7.15653 17.9265 7.44974 18.2348C7.74296 18.5431 8.21835 18.5431 8.51157 18.2348C8.80478 17.9265 8.80478 17.4267 8.51157 17.1185C8.21835 16.8102 7.74296 16.8102 7.44974 17.1185Z" fill="#5B5E61" fill-opacity="0.16"/>
<path d="M6.17173 13.8118C6.5864 13.8118 6.92255 13.4584 6.92255 13.0224C6.92255 12.5865 6.5864 12.233 6.17173 12.233C5.75706 12.233 5.4209 12.5865 5.4209 13.0224C5.4209 13.4584 5.75706 13.8118 6.17173 13.8118Z" fill="#5B5E61" fill-opacity="0.16"/>
<path d="M7.42826 7.83293C7.13504 8.14121 7.13504 8.64102 7.42826 8.9493C7.72147 9.25757 8.19687 9.25757 8.49008 8.9493C8.7833 8.64102 8.7833 8.14121 8.49008 7.83293C8.19687 7.52466 7.72147 7.52466 7.42826 7.83293Z" fill="#5B5E61" fill-opacity="0.16"/>
<path d="M12.3861 7.27924C12.8008 7.27924 13.1369 6.92581 13.1369 6.48984C13.1369 6.05387 12.8008 5.70044 12.3861 5.70044C11.9714 5.70044 11.6353 6.05387 11.6353 6.48984C11.6353 6.92581 11.9714 7.27924 12.3861 7.27924Z" fill="#5B5E61" fill-opacity="0.16"/>
<path d="M16.2598 7.81009C15.9666 8.11837 15.9666 8.6182 16.2598 8.92648C16.553 9.23477 17.0284 9.23477 17.3216 8.92648C17.6148 8.6182 17.6148 8.11837 17.3216 7.81009C17.0284 7.50181 16.553 7.50181 16.2598 7.81009Z" fill="#5B5E61" fill-opacity="0.16"/>
<path d="M18.5995 13.8118C19.0141 13.8118 19.3503 13.4584 19.3503 13.0224C19.3503 12.5865 19.0141 12.233 18.5995 12.233C18.1848 12.233 17.8486 12.5865 17.8486 13.0224C17.8486 13.4584 18.1848 13.8118 18.5995 13.8118Z" fill="#5B5E61" fill-opacity="0.16"/>
<path d="M16.2818 17.0955C15.9886 17.4038 15.9886 17.9036 16.2818 18.2119C16.575 18.5201 17.0504 18.5201 17.3436 18.2119C17.6368 17.9036 17.6368 17.4038 17.3436 17.0955C17.0504 16.7872 16.575 16.7872 16.2818 17.0955Z" fill="#5B5E61" fill-opacity="0.16"/>
<path d="M12.3855 17.0131C13.136 17.0131 13.8696 16.7792 14.4936 16.3408C15.1176 15.9025 15.604 15.2795 15.8913 14.5505C16.1785 13.8216 16.2537 13.0195 16.1074 12.2456C15.961 11.4717 15.5997 10.7608 15.0691 10.2028C14.5385 9.64484 13.8625 9.26478 13.1264 9.11072C12.3904 8.95667 11.6274 9.03553 10.934 9.33733C10.2406 9.63913 9.64791 10.1503 9.23082 10.8063C8.81374 11.4622 8.59102 12.2335 8.59082 13.0225C8.59421 14.0796 8.99506 15.0924 9.70594 15.84C10.4168 16.5876 11.3801 17.0093 12.3855 17.0131ZM12.0521 16.2674C11.5326 16.2054 11.0358 16.0088 10.6064 15.6951C10.177 15.3814 9.82841 14.9605 9.59192 14.4702L11.3854 13.8129C11.5527 14.0452 11.7869 14.2145 12.0531 14.2955L12.0521 16.2674ZM12.7199 16.2674V14.2508C12.9807 14.1582 13.2119 13.9911 13.3876 13.7682L15.1811 14.4255C14.9533 14.9269 14.6078 15.3591 14.1772 15.6814C13.7466 16.0036 13.2451 16.2053 12.7199 16.2674ZM15.5145 13.0225C15.5099 13.2733 15.482 13.5231 15.4314 13.7682L13.6359 13.1109V13.0235C13.6309 12.7598 13.5588 12.5024 13.4272 12.2778L14.637 10.7427C15.2025 11.3524 15.5179 12.1709 15.5154 13.0225H15.5145ZM12.3865 9.73388C12.9814 9.71981 13.5652 9.90402 14.0544 10.2601L12.8445 11.7952C12.6958 11.745 12.5415 11.7156 12.3855 11.7079C12.2291 11.7116 12.0742 11.7411 11.9265 11.7952L10.7177 10.2601C11.2155 9.92354 11.7936 9.74149 12.3855 9.73493L12.3865 9.73388ZM10.1766 10.7427L11.3864 12.2778C11.2548 12.5024 11.1827 12.7598 11.1777 13.0235V13.1109L9.38418 13.7682C9.33351 13.5231 9.30568 13.2733 9.30109 13.0225C9.27969 12.5986 9.3467 12.1749 9.49741 11.7811C9.64813 11.3873 9.87891 11.0329 10.1736 10.7427H10.1766Z" fill="#5B5E61" fill-opacity="0.16"/>
</svg>
