<svg width="24" height="27" viewBox="0 0 24 27" fill="none" xmlns="http://www.w3.org/2000/svg">
<g clip-path="url(#clip0)">
<path d="M4.13116 7.82836C5.95484 7.82836 7.43322 6.27405 7.43322 4.35672C7.43322 2.43938 5.95484 0.885071 4.13116 0.885071C2.30748 0.885071 0.829102 2.43938 0.829102 4.35672C0.829102 6.27405 2.30748 7.82836 4.13116 7.82836Z" fill="#5B5E61"/>
<path d="M6.58738 4.35556C6.58738 4.43772 6.58737 4.52092 6.58144 4.60308C6.58144 4.627 6.54187 4.89222 6.5755 4.69149C6.54852 4.84885 6.51285 5.00442 6.46866 5.15742C6.44591 5.23439 6.41822 5.30511 6.39546 5.38103C6.46273 5.19799 6.36776 5.43407 6.36183 5.458C6.28287 5.61859 6.19501 5.77417 6.09869 5.92393C5.97009 6.12466 6.21048 5.81161 6.04824 5.98841C6.00072 6.04806 5.95019 6.105 5.89689 6.15898C5.84644 6.21202 5.79005 6.26298 5.7396 6.31811C5.72278 6.33579 5.53186 6.49491 5.68322 6.37739C5.56556 6.47078 5.44195 6.55557 5.31324 6.63116L5.11539 6.73516C5.02537 6.77676 5.02537 6.77676 5.10946 6.7414C5.07582 6.75284 5.04219 6.77052 5.00262 6.783C4.87324 6.831 4.74107 6.87025 4.60693 6.90053C4.58418 6.90677 4.33786 6.94733 4.52878 6.92445C4.4508 6.9362 4.37212 6.94211 4.29334 6.94213C4.1363 6.94715 3.97912 6.94333 3.82247 6.93069C3.5811 6.91301 3.97382 6.97749 3.73838 6.91925C3.63946 6.89533 3.54054 6.87245 3.44162 6.84229L3.22893 6.77156C3.00437 6.6946 3.36346 6.85373 3.15573 6.74244C3.02322 6.67497 2.89411 6.60033 2.76894 6.51883C2.70702 6.47713 2.64725 6.432 2.58989 6.38363C2.7353 6.50115 2.55032 6.34203 2.5335 6.32435C2.40591 6.20501 2.2878 6.07491 2.18034 5.93537C2.27927 6.05914 2.19716 5.95929 2.18034 5.92913C2.14077 5.86465 2.09626 5.79913 2.05669 5.73465C1.9785 5.60112 1.90909 5.46212 1.84895 5.31863C1.92215 5.50168 1.83213 5.25935 1.8262 5.23647L1.75893 5.00662C1.74211 4.92966 1.72529 4.85373 1.70848 4.77053C1.69166 4.66653 1.69166 4.66653 1.70255 4.76429C1.69661 4.71125 1.69166 4.66029 1.68573 4.59892C1.67452 4.43411 1.67452 4.26867 1.68573 4.10387C1.68573 4.07995 1.7253 3.81474 1.69166 4.01546C1.70254 3.9385 1.71936 3.85634 1.73618 3.77937C1.76996 3.62484 1.81494 3.47324 1.87071 3.32592C1.80344 3.50897 1.89841 3.27288 1.90435 3.24896C1.94731 3.15533 1.99588 3.06467 2.04976 2.97751L2.14869 2.81838C2.17144 2.78302 2.27729 2.65301 2.17144 2.78302C2.265 2.66397 2.36613 2.55174 2.47415 2.44709C2.53053 2.39404 2.58593 2.34308 2.64231 2.2942C2.50184 2.41797 2.68683 2.25884 2.70958 2.2474C2.85453 2.14906 3.00409 2.05847 3.1577 1.97595C3.36544 1.86363 3.00635 2.01755 3.23091 1.94683C3.30411 1.92291 3.37138 1.89379 3.44359 1.87611C3.51581 1.85842 3.58901 1.8345 3.66221 1.81682C3.68497 1.81058 3.93128 1.77002 3.74036 1.7929C3.89658 1.77318 4.05394 1.76519 4.21124 1.76898C4.28939 1.76898 4.36853 1.78042 4.44667 1.78042C4.5456 1.79186 4.5456 1.79186 4.45261 1.78042C4.50352 1.78728 4.55404 1.797 4.60396 1.80954C4.74938 1.84491 4.89579 1.89171 5.0412 1.93955C5.26576 2.01651 4.90667 1.85739 5.11441 1.96867C5.20443 2.01547 5.29346 2.06331 5.37754 2.11635L5.56253 2.24012L5.68025 2.32852C5.60705 2.26924 5.60705 2.26924 5.68025 2.33476C5.8039 2.45853 5.92657 2.58229 6.04429 2.7175C6.20157 2.8943 5.96614 2.58229 6.09474 2.78198C6.15112 2.87038 6.20652 2.95255 6.25697 3.04095C6.29595 3.10831 6.33161 3.17774 6.36381 3.24896C6.38655 3.29497 6.40702 3.34218 6.42514 3.3904C6.39151 3.302 6.38557 3.302 6.42514 3.39664C6.47559 3.57345 6.52406 3.75025 6.56561 3.9333C6.62199 4.18083 6.56561 3.76273 6.57649 4.0217C6.57649 4.13403 6.58243 4.24531 6.58243 4.3514C6.58243 4.58586 6.67102 4.81071 6.82871 4.9765C6.9864 5.14229 7.20027 5.23543 7.42327 5.23543C7.64628 5.23543 7.86016 5.14229 8.01785 4.9765C8.17554 4.81071 8.26412 4.58586 8.26412 4.3514C8.25327 3.45541 7.98451 2.58389 7.49324 1.85167C7.00198 1.11944 6.31126 0.56085 5.51208 0.249487C4.72239 -0.0424056 3.86714 -0.07602 3.05894 0.153071C2.25073 0.382162 1.52746 0.863216 0.984361 1.53289C0.55153 2.06628 0.247699 2.70173 0.098729 3.38514C-0.0502406 4.06855 -0.0399356 4.77969 0.128767 5.45801C0.29747 6.13634 0.619571 6.76176 1.06766 7.28104C1.51574 7.80032 2.07654 8.19807 2.70231 8.44044C3.32807 8.68281 4.00028 8.76262 4.6617 8.67308C5.32311 8.58353 5.95416 8.32729 6.50111 7.92615C7.04806 7.52501 7.49471 6.99087 7.80306 6.36918C8.1114 5.7475 8.27229 5.05668 8.27204 4.35556C8.27204 4.1211 8.18345 3.89624 8.02576 3.73045C7.86807 3.56466 7.65419 3.47152 7.43119 3.47152C7.20818 3.47152 6.99431 3.56466 6.83662 3.73045C6.67893 3.89624 6.59034 4.1211 6.59034 4.35556H6.58738Z" fill="#5B5E61"/>
<path d="M7.39945 5.24594H13.137L12.2961 4.36191V23.2386C12.2997 23.4719 12.3895 23.6946 12.5464 23.8595C12.7033 24.0245 12.9151 24.1189 13.137 24.1226H17.7864C18.0094 24.1226 18.2233 24.0295 18.381 23.8637C18.5386 23.6979 18.6272 23.473 18.6272 23.2386C18.6272 23.0041 18.5386 22.7793 18.381 22.6135C18.2233 22.4477 18.0094 22.3545 17.7864 22.3545H13.137L13.9778 23.2386V4.36191C13.9743 4.12862 13.8845 3.90593 13.7276 3.74095C13.5707 3.57596 13.3589 3.48163 13.137 3.47787H7.39945C7.17644 3.47787 6.96256 3.57101 6.80488 3.7368C6.64719 3.90259 6.55859 4.12745 6.55859 4.36191C6.55859 4.59636 6.64719 4.82122 6.80488 4.98701C6.96256 5.15279 7.17644 5.24594 7.39945 5.24594Z" fill="#5B5E61"/>
<path d="M13.1572 13.586H17.8442C18.0672 13.586 18.2811 13.4928 18.4388 13.3271C18.5965 13.1613 18.6851 12.9364 18.6851 12.702C18.6851 12.4675 18.5965 12.2427 18.4388 12.0769C18.2811 11.9111 18.0672 11.8179 17.8442 11.8179H13.1572C12.9342 11.8179 12.7204 11.9111 12.5627 12.0769C12.405 12.2427 12.3164 12.4675 12.3164 12.702C12.3164 12.9364 12.405 13.1613 12.5627 13.3271C12.7204 13.4928 12.9342 13.586 13.1572 13.586Z" fill="#5B5E61"/>
<path d="M22.8996 20.5584H17.8545V25.8158H22.8996V20.5584Z" fill="#5B5E61"/>
<path d="M22.8996 19.6744H17.8545C17.6326 19.6781 17.4208 19.7725 17.2639 19.9375C17.107 20.1024 17.0172 20.3251 17.0137 20.5584V25.8252C17.0172 26.0585 17.107 26.2811 17.2639 26.4461C17.4208 26.6111 17.6326 26.7054 17.8545 26.7092H22.8996C23.1215 26.7054 23.3333 26.6111 23.4902 26.4461C23.6472 26.2811 23.7369 26.0585 23.7404 25.8252V20.5615C23.7389 20.3276 23.6498 20.1037 23.4925 19.9382C23.3351 19.7728 23.1221 19.6791 22.8996 19.6775C22.678 19.6823 22.4668 19.777 22.3101 19.9417C22.1533 20.1065 22.0633 20.3286 22.0588 20.5615V25.8252L22.8996 24.9411H17.8545L18.6954 25.8252V20.5615L17.8545 21.4456H22.8996C23.1226 21.4456 23.3365 21.3524 23.4942 21.1866C23.6519 21.0208 23.7404 20.796 23.7404 20.5615C23.7404 20.3271 23.6519 20.1022 23.4942 19.9364C23.3365 19.7706 23.1226 19.6775 22.8996 19.6775V19.6744Z" fill="#5B5E61"/>
<path d="M22.8996 10.0967H17.8545V15.3541H22.8996V10.0967Z" fill="#5B5E61"/>
<path d="M22.8996 9.21265H17.8545C17.6326 9.2164 17.4208 9.31074 17.2639 9.47572C17.107 9.6407 17.0172 9.86339 17.0137 10.0967V15.3634C17.0172 15.5967 17.107 15.8194 17.2639 15.9844C17.4208 16.1494 17.6326 16.2437 17.8545 16.2475H22.8996C23.1215 16.2437 23.3333 16.1494 23.4902 15.9844C23.6472 15.8194 23.7369 15.5967 23.7404 15.3634V10.0998C23.7389 9.86584 23.6498 9.64193 23.4925 9.4765C23.3351 9.31106 23.1221 9.21741 22.8996 9.21577C22.678 9.22056 22.4668 9.31522 22.3101 9.47999C22.1533 9.64475 22.0633 9.86683 22.0588 10.0998V15.3634L22.8996 14.4794H17.8545L18.6954 15.3634V10.0998L17.8545 10.9838H22.8996C23.01 10.9838 23.1194 10.961 23.2214 10.9165C23.3234 10.8721 23.4161 10.807 23.4942 10.7249C23.5723 10.6428 23.6342 10.5454 23.6764 10.4381C23.7187 10.3309 23.7404 10.2159 23.7404 10.0998C23.7404 9.9837 23.7187 9.86876 23.6764 9.7615C23.6342 9.65424 23.5723 9.55678 23.4942 9.47469C23.4161 9.3926 23.3234 9.32749 23.2214 9.28306C23.1194 9.23863 23.01 9.21577 22.8996 9.21577V9.21265Z" fill="#5B5E61"/>
</g>
<defs>
<clipPath id="clip0">
<rect width="23.7416" height="26.7061" fill="white"/>
</clipPath>
</defs>
</svg>
