<svg width="24" height="27" viewBox="0 0 24 27" fill="none" xmlns="http://www.w3.org/2000/svg">
<path d="M4.13214 7.82842C5.95581 7.82842 7.43419 6.27411 7.43419 4.35678C7.43419 2.43944 5.95581 0.885132 4.13214 0.885132C2.30846 0.885132 0.830078 2.43944 0.830078 4.35678C0.830078 6.27411 2.30846 7.82842 4.13214 7.82842Z" fill="url(#paint0_linear)"/>
<path d="M6.58738 4.35562C6.58738 4.43778 6.58737 4.52098 6.58144 4.60315C6.58144 4.62707 6.54187 4.89228 6.5755 4.69155C6.54852 4.84891 6.51285 5.00448 6.46866 5.15749C6.44591 5.23445 6.41822 5.30517 6.39546 5.38109C6.46273 5.19805 6.36776 5.43414 6.36183 5.45806C6.28287 5.61865 6.19501 5.77423 6.09869 5.92399C5.97009 6.12472 6.21048 5.81167 6.04824 5.98848C6.00072 6.04813 5.95019 6.10506 5.89689 6.15904C5.84644 6.21208 5.79005 6.26305 5.7396 6.31817C5.72278 6.33585 5.53186 6.49497 5.68322 6.37745C5.56556 6.47084 5.44195 6.55563 5.31324 6.63122L5.11539 6.73522C5.02537 6.77682 5.02537 6.77683 5.10946 6.74146C5.07582 6.7529 5.04219 6.77058 5.00262 6.78306C4.87324 6.83106 4.74107 6.87031 4.60693 6.90059C4.58418 6.90683 4.33786 6.94739 4.52878 6.92451C4.4508 6.93626 4.37212 6.94217 4.29334 6.94219C4.1363 6.94721 3.97912 6.9434 3.82247 6.93075C3.5811 6.91307 3.97382 6.97755 3.73838 6.91931C3.63946 6.89539 3.54054 6.87251 3.44162 6.84235L3.22893 6.77162C3.00437 6.69466 3.36346 6.85379 3.15573 6.7425C3.02322 6.67503 2.89411 6.60039 2.76894 6.5189C2.70702 6.47719 2.64725 6.43206 2.58989 6.38369C2.7353 6.50122 2.55032 6.34209 2.5335 6.32441C2.40591 6.20507 2.2878 6.07498 2.18034 5.93543C2.27927 6.0592 2.19716 5.95936 2.18034 5.92919C2.14077 5.86471 2.09626 5.79919 2.05669 5.73471C1.9785 5.60118 1.90909 5.46218 1.84895 5.31869C1.92215 5.50174 1.83213 5.25941 1.8262 5.23653L1.75893 5.00668C1.74211 4.92972 1.72529 4.8538 1.70848 4.77059C1.69166 4.66659 1.69166 4.66659 1.70255 4.76435C1.69661 4.71131 1.69166 4.66035 1.68573 4.59899C1.67452 4.43418 1.67452 4.26874 1.68573 4.10393C1.68573 4.08001 1.7253 3.8148 1.69166 4.01552C1.70254 3.93856 1.71936 3.8564 1.73618 3.77944C1.76996 3.6249 1.81494 3.4733 1.87071 3.32598C1.80344 3.50903 1.89841 3.27294 1.90435 3.24902C1.94731 3.15539 1.99588 3.06473 2.04976 2.97757L2.14869 2.81844C2.17144 2.78308 2.27729 2.65307 2.17144 2.78308C2.265 2.66403 2.36613 2.5518 2.47415 2.44715C2.53053 2.3941 2.58593 2.34314 2.64231 2.29426C2.50184 2.41803 2.68683 2.2589 2.70958 2.24746C2.85453 2.14913 3.00409 2.05853 3.1577 1.97601C3.36544 1.86369 3.00635 2.01761 3.23091 1.94689C3.30411 1.92297 3.37138 1.89385 3.44359 1.87617C3.51581 1.85849 3.58901 1.83457 3.66221 1.81689C3.68497 1.81064 3.93128 1.77008 3.74036 1.79296C3.89658 1.77324 4.05394 1.76525 4.21124 1.76904C4.28939 1.76904 4.36853 1.78048 4.44667 1.78048C4.5456 1.79192 4.5456 1.79192 4.45261 1.78048C4.50352 1.78734 4.55404 1.79706 4.60396 1.8096C4.74938 1.84497 4.89579 1.89177 5.0412 1.93961C5.26576 2.01657 4.90667 1.85745 5.11441 1.96873C5.20443 2.01553 5.29346 2.06337 5.37754 2.11642L5.56253 2.24018L5.68025 2.32858C5.60705 2.2693 5.60705 2.2693 5.68025 2.33482C5.8039 2.45859 5.92657 2.58235 6.04429 2.71756C6.20157 2.89436 5.96614 2.58235 6.09474 2.78204C6.15112 2.87044 6.20652 2.95261 6.25697 3.04101C6.29595 3.10837 6.33161 3.1778 6.36381 3.24902C6.38655 3.29503 6.40702 3.34224 6.42514 3.39046C6.39151 3.30206 6.38557 3.30206 6.42514 3.3967C6.47559 3.57351 6.52406 3.75031 6.56561 3.93336C6.62199 4.18089 6.56561 3.76279 6.57649 4.02176C6.57649 4.13409 6.58243 4.24537 6.58243 4.35146C6.58243 4.58592 6.67102 4.81077 6.82871 4.97656C6.9864 5.14235 7.20027 5.23549 7.42327 5.23549C7.64628 5.23549 7.86016 5.14235 8.01785 4.97656C8.17554 4.81077 8.26412 4.58592 8.26412 4.35146C8.25327 3.45547 7.98451 2.58395 7.49324 1.85173C7.00198 1.1195 6.31126 0.560911 5.51208 0.249548C4.72239 -0.0423446 3.86714 -0.075959 3.05894 0.153132C2.25073 0.382223 1.52746 0.863277 0.984361 1.53295C0.55153 2.06634 0.247699 2.70179 0.098729 3.3852C-0.0502406 4.06861 -0.0399356 4.77975 0.128767 5.45808C0.29747 6.1364 0.619571 6.76182 1.06766 7.2811C1.51574 7.80038 2.07654 8.19813 2.70231 8.4405C3.32807 8.68287 4.00028 8.76268 4.6617 8.67314C5.32311 8.58359 5.95416 8.32735 6.50111 7.92621C7.04806 7.52507 7.49471 6.99093 7.80306 6.36924C8.1114 5.74756 8.27229 5.05675 8.27204 4.35562C8.27204 4.12116 8.18345 3.8963 8.02576 3.73051C7.86807 3.56472 7.65419 3.47158 7.43119 3.47158C7.20818 3.47158 6.99431 3.56472 6.83662 3.73051C6.67893 3.8963 6.59034 4.12116 6.59034 4.35562H6.58738Z" fill="url(#paint1_linear)"/>
<path d="M7.39945 5.24597H13.137L12.2961 4.36194V23.2386C12.2997 23.4719 12.3895 23.6946 12.5464 23.8596C12.7033 24.0245 12.9151 24.1189 13.137 24.1226H17.7864C18.0094 24.1226 18.2233 24.0295 18.381 23.8637C18.5386 23.6979 18.6272 23.4731 18.6272 23.2386C18.6272 23.0042 18.5386 22.7793 18.381 22.6135C18.2233 22.4477 18.0094 22.3546 17.7864 22.3546H13.137L13.9778 23.2386V4.36194C13.9743 4.12865 13.8845 3.90596 13.7276 3.74098C13.5707 3.576 13.3589 3.48166 13.137 3.47791H7.39945C7.17644 3.47791 6.96256 3.57104 6.80488 3.73683C6.64719 3.90262 6.55859 4.12748 6.55859 4.36194C6.55859 4.5964 6.64719 4.82125 6.80488 4.98704C6.96256 5.15282 7.17644 5.24597 7.39945 5.24597Z" fill="url(#paint2_linear)"/>
<path d="M13.1572 13.5861H17.8442C18.0672 13.5861 18.2811 13.4929 18.4388 13.3271C18.5965 13.1613 18.6851 12.9365 18.6851 12.702C18.6851 12.4676 18.5965 12.2427 18.4388 12.0769C18.2811 11.9111 18.0672 11.818 17.8442 11.818H13.1572C12.9342 11.818 12.7204 11.9111 12.5627 12.0769C12.405 12.2427 12.3164 12.4676 12.3164 12.702C12.3164 12.9365 12.405 13.1613 12.5627 13.3271C12.7204 13.4929 12.9342 13.5861 13.1572 13.5861Z" fill="url(#paint3_linear)"/>
<path d="M22.9006 20.5585H17.8555V25.8159H22.9006V20.5585Z" fill="url(#paint4_linear)"/>
<path d="M22.8996 19.6744H17.8545C17.6326 19.6782 17.4208 19.7725 17.2639 19.9375C17.107 20.1025 17.0172 20.3252 17.0137 20.5585V25.8252C17.0172 26.0585 17.107 26.2812 17.2639 26.4462C17.4208 26.6112 17.6326 26.7055 17.8545 26.7093H22.8996C23.1215 26.7055 23.3333 26.6112 23.4902 26.4462C23.6472 26.2812 23.7369 26.0585 23.7404 25.8252V20.5616C23.7389 20.3276 23.6498 20.1037 23.4925 19.9383C23.3351 19.7729 23.1221 19.6792 22.8996 19.6775C22.678 19.6823 22.4668 19.777 22.3101 19.9418C22.1533 20.1065 22.0633 20.3286 22.0588 20.5616V25.8252L22.8996 24.9412H17.8545L18.6954 25.8252V20.5616L17.8545 21.4456H22.8996C23.1226 21.4456 23.3365 21.3525 23.4942 21.1867C23.6519 21.0209 23.7404 20.796 23.7404 20.5616C23.7404 20.3271 23.6519 20.1023 23.4942 19.9365C23.3365 19.7707 23.1226 19.6775 22.8996 19.6775V19.6744Z" fill="url(#paint5_linear)"/>
<path d="M22.9006 10.0968H17.8555V15.3542H22.9006V10.0968Z" fill="url(#paint6_linear)"/>
<path d="M22.8996 9.21277H17.8545C17.6326 9.21652 17.4208 9.31086 17.2639 9.47584C17.107 9.64082 17.0172 9.86352 17.0137 10.0968V15.3636C17.0172 15.5968 17.107 15.8195 17.2639 15.9845C17.4208 16.1495 17.6326 16.2438 17.8545 16.2476H22.8996C23.1215 16.2438 23.3333 16.1495 23.4902 15.9845C23.6472 15.8195 23.7369 15.5968 23.7404 15.3636V10.0999C23.7389 9.86596 23.6498 9.64205 23.4925 9.47662C23.3351 9.31118 23.1221 9.21753 22.8996 9.21589C22.678 9.22068 22.4668 9.31535 22.3101 9.48011C22.1533 9.64487 22.0633 9.86696 22.0588 10.0999V15.3636L22.8996 14.4795H17.8545L18.6954 15.3636V10.0999L17.8545 10.984H22.8996C23.01 10.984 23.1194 10.9611 23.2214 10.9167C23.3234 10.8722 23.4161 10.8071 23.4942 10.725C23.5723 10.6429 23.6342 10.5455 23.6764 10.4382C23.7187 10.331 23.7404 10.216 23.7404 10.0999C23.7404 9.98382 23.7187 9.86888 23.6764 9.76162C23.6342 9.65437 23.5723 9.5569 23.4942 9.47481C23.4161 9.39272 23.3234 9.32761 23.2214 9.28318C23.1194 9.23876 23.01 9.21589 22.8996 9.21589V9.21277Z" fill="url(#paint7_linear)"/>
<defs>
<linearGradient id="paint0_linear" x1="0.830078" y1="4.35678" x2="7.43419" y2="4.35678" gradientUnits="userSpaceOnUse">
<stop stop-color="#A1C4FD"/>
<stop offset="1" stop-color="#C2E9FB"/>
</linearGradient>
<linearGradient id="paint1_linear" x1="-0.00585938" y1="4.35585" x2="8.27204" y2="4.35585" gradientUnits="userSpaceOnUse">
<stop stop-color="#A1C4FD"/>
<stop offset="1" stop-color="#C2E9FB"/>
</linearGradient>
<linearGradient id="paint2_linear" x1="6.55859" y1="13.8003" x2="18.6272" y2="13.8003" gradientUnits="userSpaceOnUse">
<stop stop-color="#A1C4FD"/>
<stop offset="1" stop-color="#C2E9FB"/>
</linearGradient>
<linearGradient id="paint3_linear" x1="12.3164" y1="12.702" x2="18.6851" y2="12.702" gradientUnits="userSpaceOnUse">
<stop stop-color="#A1C4FD"/>
<stop offset="1" stop-color="#C2E9FB"/>
</linearGradient>
<linearGradient id="paint4_linear" x1="17.8555" y1="23.1872" x2="22.9006" y2="23.1872" gradientUnits="userSpaceOnUse">
<stop stop-color="#A1C4FD"/>
<stop offset="1" stop-color="#C2E9FB"/>
</linearGradient>
<linearGradient id="paint5_linear" x1="17.0137" y1="23.1918" x2="23.7404" y2="23.1918" gradientUnits="userSpaceOnUse">
<stop stop-color="#A1C4FD"/>
<stop offset="1" stop-color="#C2E9FB"/>
</linearGradient>
<linearGradient id="paint6_linear" x1="17.8555" y1="12.7255" x2="22.9006" y2="12.7255" gradientUnits="userSpaceOnUse">
<stop stop-color="#A1C4FD"/>
<stop offset="1" stop-color="#C2E9FB"/>
</linearGradient>
<linearGradient id="paint7_linear" x1="17.0137" y1="12.7302" x2="23.7404" y2="12.7302" gradientUnits="userSpaceOnUse">
<stop stop-color="#A1C4FD"/>
<stop offset="1" stop-color="#C2E9FB"/>
</linearGradient>
</defs>
</svg>
