<svg width="43" height="47" viewBox="0 0 43 47" fill="none" xmlns="http://www.w3.org/2000/svg">
<g clip-path="url(#clip0)">
<path d="M12.131 21.8284C13.9547 21.8284 15.4331 20.2741 15.4331 18.3567C15.4331 16.4394 13.9547 14.8851 12.131 14.8851C10.3074 14.8851 8.82898 16.4394 8.82898 18.3567C8.82898 20.2741 10.3074 21.8284 12.131 21.8284Z" fill="#5B5E61"/>
<path d="M14.5873 18.3556C14.5873 18.4377 14.5873 18.5209 14.5813 18.6031C14.5813 18.627 14.5417 18.8922 14.5754 18.6915C14.5484 18.8488 14.5127 19.0044 14.4685 19.1574C14.4458 19.2344 14.4181 19.3051 14.3953 19.381C14.4626 19.198 14.3676 19.4341 14.3617 19.458C14.2828 19.6186 14.1949 19.7742 14.0986 19.9239C13.97 20.1247 14.2104 19.8116 14.0481 19.9884C14.0006 20.0481 13.9501 20.105 13.8968 20.159C13.8463 20.212 13.7899 20.263 13.7395 20.3181C13.7227 20.3358 13.5317 20.4949 13.6831 20.3774C13.5654 20.4708 13.4418 20.5556 13.3131 20.6312L13.1153 20.7352C13.0253 20.7768 13.0253 20.7768 13.1093 20.7414C13.0757 20.7528 13.0421 20.7705 13.0025 20.783C12.8731 20.831 12.7409 20.8703 12.6068 20.9005C12.5841 20.9068 12.3377 20.9473 12.5287 20.9244C12.4507 20.9362 12.372 20.9421 12.2932 20.9421C12.1362 20.9472 11.979 20.9433 11.8223 20.9307C11.581 20.913 11.9737 20.9775 11.7383 20.9192C11.6393 20.8953 11.5404 20.8724 11.4415 20.8423L11.2288 20.7716C11.0043 20.6946 11.3633 20.8537 11.1556 20.7424C11.0231 20.675 10.894 20.6003 10.7688 20.5188C10.7069 20.4771 10.6471 20.432 10.5898 20.3836C10.7352 20.5012 10.5502 20.342 10.5334 20.3243C10.4058 20.205 10.2877 20.0749 10.1802 19.9354C10.2791 20.0591 10.197 19.9593 10.1802 19.9291C10.1407 19.8647 10.0961 19.7991 10.0566 19.7346C9.97838 19.6011 9.90897 19.4621 9.84883 19.3186C9.92203 19.5017 9.83201 19.2593 9.82608 19.2365L9.75881 19.0066C9.74199 18.9297 9.72517 18.8537 9.70836 18.7705C9.69154 18.6665 9.69154 18.6665 9.70242 18.7643C9.69649 18.7112 9.69154 18.6603 9.6856 18.5989C9.6744 18.4341 9.6744 18.2687 9.6856 18.1039C9.6856 18.0799 9.72517 17.8147 9.69154 18.0155C9.70242 17.9385 9.71924 17.8563 9.73605 17.7794C9.76984 17.6248 9.81481 17.4732 9.87059 17.3259C9.80332 17.509 9.89829 17.2729 9.90422 17.249C9.94719 17.1553 9.99576 17.0647 10.0496 16.9775L10.1486 16.8184C10.1713 16.783 10.2772 16.653 10.1713 16.783C10.2649 16.664 10.366 16.5517 10.474 16.4471C10.5304 16.394 10.5858 16.3431 10.6422 16.2942C10.5017 16.418 10.6867 16.2588 10.7095 16.2474C10.8544 16.1491 11.004 16.0585 11.1576 15.9759C11.3653 15.8636 11.0062 16.0176 11.2308 15.9468C11.304 15.9229 11.3713 15.8938 11.4435 15.8761C11.5157 15.8584 11.5889 15.8345 11.6621 15.8168C11.6848 15.8106 11.9312 15.77 11.7402 15.7929C11.8965 15.7732 12.0538 15.7652 12.2111 15.769C12.2893 15.769 12.3684 15.7804 12.4466 15.7804C12.5455 15.7919 12.5455 15.7919 12.4525 15.7804C12.5034 15.7873 12.5539 15.797 12.6038 15.8095C12.7493 15.8449 12.8957 15.8917 13.0411 15.9395C13.2656 16.0165 12.9065 15.8574 13.1143 15.9687C13.2043 16.0155 13.2933 16.0633 13.3774 16.1164L13.5624 16.2401L13.6801 16.3285C13.6069 16.2692 13.6069 16.2692 13.6801 16.3348C13.8038 16.4585 13.9264 16.5823 14.0442 16.7175C14.2015 16.8943 13.966 16.5823 14.0946 16.782C14.151 16.8704 14.2064 16.9525 14.2568 17.0409C14.2958 17.1083 14.3315 17.1777 14.3637 17.249C14.3864 17.295 14.4069 17.3422 14.425 17.3904C14.3914 17.302 14.3854 17.302 14.425 17.3966C14.4755 17.5734 14.5239 17.7503 14.5655 17.9333C14.6219 18.1808 14.5655 17.7627 14.5764 18.0217C14.5764 18.134 14.5823 18.2453 14.5823 18.3514C14.5823 18.5859 14.6709 18.8107 14.8286 18.9765C14.9863 19.1423 15.2001 19.2354 15.4232 19.2354C15.6462 19.2354 15.86 19.1423 16.0177 18.9765C16.1754 18.8107 16.264 18.5859 16.264 18.3514C16.2531 17.4554 15.9844 16.5839 15.4931 15.8517C15.0019 15.1194 14.3111 14.5609 13.512 14.2495C12.7223 13.9576 11.867 13.924 11.0588 14.1531C10.2506 14.3822 9.52734 14.8632 8.98424 15.5329C8.55141 16.0663 8.24758 16.7017 8.09861 17.3851C7.94964 18.0686 7.95994 18.7797 8.12864 19.458C8.29735 20.1363 8.61945 20.7618 9.06753 21.281C9.51562 21.8003 10.0764 22.1981 10.7022 22.4404C11.328 22.6828 12.0002 22.7626 12.6616 22.6731C13.323 22.5835 13.954 22.3273 14.501 21.9261C15.0479 21.525 15.4946 20.9909 15.8029 20.3692C16.1113 19.7475 16.2722 19.0567 16.2719 18.3556C16.2719 18.1211 16.1833 17.8962 16.0256 17.7304C15.8679 17.5647 15.6541 17.4715 15.4311 17.4715C15.2081 17.4715 14.9942 17.5647 14.8365 17.7304C14.6788 17.8962 14.5902 18.1211 14.5902 18.3556H14.5873Z" fill="#5B5E61"/>
<path d="M15.3994 19.2459H21.137L20.2961 18.3619V37.2386C20.2997 37.4719 20.3895 37.6946 20.5464 37.8595C20.7033 38.0245 20.9151 38.1189 21.137 38.1226H25.7864C26.0094 38.1226 26.2233 38.0295 26.381 37.8637C26.5386 37.6979 26.6272 37.473 26.6272 37.2386C26.6272 37.0041 26.5386 36.7793 26.381 36.6135C26.2233 36.4477 26.0094 36.3545 25.7864 36.3545H21.137L21.9778 37.2386V18.3619C21.9743 18.1286 21.8845 17.9059 21.7276 17.7409C21.5707 17.576 21.3589 17.4816 21.137 17.4779H15.3994C15.1764 17.4779 14.9626 17.571 14.8049 17.7368C14.6472 17.9026 14.5586 18.1274 14.5586 18.3619C14.5586 18.5964 14.6472 18.8212 14.8049 18.987C14.9626 19.1528 15.1764 19.2459 15.3994 19.2459Z" fill="#5B5E61"/>
<path d="M21.1568 27.586H25.8438C26.0668 27.586 26.2807 27.4928 26.4384 27.3271C26.5961 27.1613 26.6846 26.9364 26.6846 26.702C26.6846 26.4675 26.5961 26.2427 26.4384 26.0769C26.2807 25.9111 26.0668 25.8179 25.8438 25.8179H21.1568C20.9338 25.8179 20.7199 25.9111 20.5622 26.0769C20.4046 26.2427 20.316 26.4675 20.316 26.702C20.316 26.9364 20.4046 27.1613 20.5622 27.3271C20.7199 27.4928 20.9338 27.586 21.1568 27.586Z" fill="#5B5E61"/>
<path d="M30.8997 34.5584H25.8546V39.8158H30.8997V34.5584Z" fill="#5B5E61"/>
<path d="M30.8997 33.6744H25.8546C25.6328 33.6781 25.421 33.7725 25.264 33.9375C25.1071 34.1024 25.0174 34.3251 25.0138 34.5584V39.8252C25.0174 40.0585 25.1071 40.2811 25.264 40.4461C25.421 40.6111 25.6328 40.7054 25.8546 40.7092H30.8997C31.1216 40.7054 31.3334 40.6111 31.4904 40.4461C31.6473 40.2811 31.737 40.0585 31.7406 39.8252V34.5615C31.739 34.3276 31.6499 34.1037 31.4926 33.9382C31.3352 33.7728 31.1223 33.6791 30.8997 33.6775C30.6782 33.6823 30.4669 33.777 30.3102 33.9417C30.1535 34.1065 30.0634 34.3286 30.0589 34.5615V39.8252L30.8997 38.9411H25.8546L26.6955 39.8252V34.5615L25.8546 35.4456H30.8997C31.1227 35.4456 31.3366 35.3524 31.4943 35.1866C31.652 35.0208 31.7406 34.796 31.7406 34.5615C31.7406 34.3271 31.652 34.1022 31.4943 33.9364C31.3366 33.7706 31.1227 33.6775 30.8997 33.6775V33.6744Z" fill="#5B5E61"/>
<path d="M30.8997 24.0967H25.8546V29.3541H30.8997V24.0967Z" fill="#5B5E61"/>
<path d="M30.8997 23.2126H25.8546C25.6328 23.2164 25.421 23.3107 25.264 23.4757C25.1071 23.6407 25.0174 23.8634 25.0138 24.0967V29.3634C25.0174 29.5967 25.1071 29.8194 25.264 29.9844C25.421 30.1494 25.6328 30.2437 25.8546 30.2475H30.8997C31.1216 30.2437 31.3334 30.1494 31.4904 29.9844C31.6473 29.8194 31.737 29.5967 31.7406 29.3634V24.0998C31.739 23.8658 31.6499 23.6419 31.4926 23.4765C31.3352 23.3111 31.1223 23.2174 30.8997 23.2158C30.6782 23.2206 30.4669 23.3152 30.3102 23.48C30.1535 23.6448 30.0634 23.8668 30.0589 24.0998V29.3634L30.8997 28.4794H25.8546L26.6955 29.3634V24.0998L25.8546 24.9838H30.8997C31.0102 24.9838 31.1195 24.961 31.2215 24.9165C31.3235 24.8721 31.4162 24.807 31.4943 24.7249C31.5724 24.6428 31.6343 24.5454 31.6766 24.4381C31.7188 24.3309 31.7406 24.2159 31.7406 24.0998C31.7406 23.9837 31.7188 23.8688 31.6766 23.7615C31.6343 23.6542 31.5724 23.5568 31.4943 23.4747C31.4162 23.3926 31.3235 23.3275 31.2215 23.2831C31.1195 23.2386 31.0102 23.2158 30.8997 23.2158V23.2126Z" fill="#5B5E61"/>
</g>
<circle cx="21.5" cy="25.5" r="21.5" fill="#3C3C3C" fill-opacity="0.54"/>
<path d="M39.9932 6.00222H39.4959V4.08435C39.4959 1.79356 37.8443 0 35.4822 0C33.1202 0 31.5041 1.82908 31.5041 4.08435V5.98446C31.5041 6.00222 31.5041 6.00222 31.5041 5.98446H31.0068C29.9057 5.98446 29.0178 6.87236 29 7.99112V13.9933C29 15.0943 29.888 15.9822 31.0068 16H39.9932C41.0943 16 41.9822 15.1121 42 13.9933V7.99112C42 6.89012 41.0943 6.00222 39.9932 6.00222ZM32.4986 6.00222V4.08435C32.4986 2.37958 33.6708 0.994451 35.4822 0.994451C37.276 0.994451 38.5014 2.34406 38.5014 4.08435V5.98446C38.5014 6.00222 38.5014 6.00222 38.5014 5.98446H32.4986C32.4986 6.00222 32.4986 6.00222 32.4986 6.00222ZM40.9877 13.9933C40.9877 14.5438 40.5437 14.9878 39.9932 14.9878H31.0068C30.4563 14.9878 30.0123 14.5438 30.0123 13.9933V7.99112C30.0123 7.44062 30.4563 6.99667 31.0068 6.99667H39.9932C40.5437 6.99667 40.9877 7.44062 40.9877 7.99112V13.9933ZM36.4945 9.99778C36.4945 10.3707 36.2992 10.6903 35.9973 10.8679H35.9795H35.9973V12.5017C35.9973 12.7858 35.7664 12.9989 35.5 12.9989C35.2158 12.9989 35.0027 12.768 35.0027 12.5017V10.8679H35.0205H35.0027C34.7008 10.6903 34.5055 10.3707 34.5055 9.99778C34.5055 9.44728 34.9495 9.00333 35.5 9.00333C36.0505 8.98557 36.4945 9.42952 36.4945 9.99778Z" fill="white"/>
<defs>
<clipPath id="clip0">
<rect width="23.7416" height="26.7061" fill="white" transform="translate(8 14)"/>
</clipPath>
</defs>
</svg>
