<svg width="22" height="22" viewBox="0 0 22 22" fill="none" xmlns="http://www.w3.org/2000/svg">
<path d="M8.42188 22C10.3229 22 11.7948 21.8181 12.9754 21.4461C12.9504 21.3118 12.9336 21.1745 12.9336 21.0332C12.9336 20.4018 13.1961 19.8318 13.6157 19.4219C13.1961 19.012 12.9336 18.442 12.9336 17.8105C12.9336 17.1791 13.1961 16.6091 13.6157 16.1992C13.1961 15.7893 12.9336 15.2193 12.9336 14.5879C12.9336 13.9565 13.1961 13.3864 13.6157 12.9766C13.1961 12.5667 12.9336 11.9967 12.9336 11.3652C12.9336 10.6193 13.3018 9.96187 13.8616 9.55098C13.4783 9.20001 13.0687 8.88547 12.639 8.60869C12.8136 8.38881 12.9336 8.12277 12.9336 7.82031C12.9336 7.10831 12.3565 6.53125 11.6445 6.53125H5.19922C4.48721 6.53125 3.91016 7.10831 3.91016 7.82031C3.91016 8.1221 4.02983 8.3873 4.20338 8.60684C1.70113 10.2188 0 13.1379 0 16.1992C0 21.3989 4.82475 22 8.42188 22ZM8.41499 15.7435C7.34866 15.7435 6.4814 14.8763 6.4814 13.8099C6.4814 12.9682 7.02522 12.258 7.77734 11.993V11.043C7.77734 10.6868 8.0657 10.3984 8.42188 10.3984C8.77805 10.3984 9.06641 10.6868 9.06641 11.043V11.9973C9.81148 12.2661 10.3486 12.9734 10.3486 13.8099C10.3486 14.1663 10.0602 14.4545 9.70406 14.4545C9.34772 14.4545 9.05952 14.1663 9.05952 13.8099C9.05952 13.4543 8.77049 13.1654 8.41499 13.1654C8.05933 13.1654 7.77046 13.4543 7.77046 13.8099C7.77046 14.1656 8.05933 14.4545 8.41499 14.4545C9.48116 14.4545 10.3486 15.3219 10.3486 16.388C10.3486 17.2246 9.81148 17.9319 9.06641 18.2008V18.7773C9.06641 19.1335 8.77805 19.4219 8.42188 19.4219C8.0657 19.4219 7.77734 19.1335 7.77734 18.7773V18.205C7.02522 17.9401 6.4814 17.2298 6.4814 16.388C6.4814 16.0319 6.76959 15.7435 7.12593 15.7435C7.4821 15.7435 7.77046 16.0319 7.77046 16.388C7.77046 16.7437 8.05933 17.0326 8.41499 17.0326C8.77049 17.0326 9.05952 16.7437 9.05952 16.388C9.05952 16.0324 8.77049 15.7435 8.41499 15.7435Z" fill="white" fill-opacity="0.4"/>
<path d="M21.0332 20.0664H15.1895C14.6555 20.0664 14.2227 20.4993 14.2227 21.0332C14.2227 21.5671 14.6555 22 15.1895 22H21.0332C21.5671 22 22 21.5671 22 21.0332C22 20.4993 21.5671 20.0664 21.0332 20.0664Z" fill="white" fill-opacity="0.4"/>
<path d="M21.0332 16.8438H15.1895C14.6555 16.8438 14.2227 17.2766 14.2227 17.8105C14.2227 18.3445 14.6555 18.7773 15.1895 18.7773H21.0332C21.5671 18.7773 22 18.3445 22 17.8105C22 17.2766 21.5671 16.8438 21.0332 16.8438Z" fill="white" fill-opacity="0.4"/>
<path d="M21.0332 13.6211H15.1895C14.6555 13.6211 14.2227 14.054 14.2227 14.5879C14.2227 15.1218 14.6555 15.5547 15.1895 15.5547H21.0332C21.5671 15.5547 22 15.1218 22 14.5879C22 14.054 21.5671 13.6211 21.0332 13.6211Z" fill="white" fill-opacity="0.4"/>
<path d="M21.0332 10.3984H15.1895C14.6555 10.3984 14.2227 10.8313 14.2227 11.3652C14.2227 11.8992 14.6555 12.332 15.1895 12.332H21.0332C21.5671 12.332 22 11.8992 22 11.3652C22 10.8313 21.5671 10.3984 21.0332 10.3984Z" fill="white" fill-opacity="0.4"/>
<path d="M10.2368 1.28906C9.96977 0.540466 9.26112 0 8.42189 0C7.58164 0 6.86477 0.538788 6.5984 1.28906H4.5547C4.34757 1.28906 4.15304 1.38843 4.03169 1.55661C3.91084 1.72462 3.87744 1.94115 3.94357 2.13753L4.94981 5.24219H11.8941L12.9002 2.13753C12.9663 1.94115 12.9329 1.72462 12.8121 1.55661C12.6907 1.38843 12.4962 1.28906 12.2891 1.28906H10.2368Z" fill="white" fill-opacity="0.4"/>
</svg>
