<svg width="22" height="25" viewBox="0 0 22 25" fill="none" xmlns="http://www.w3.org/2000/svg">
<path d="M19.5555 2.44446H14.4406C13.9394 1.02666 12.595 0 11 0C9.40497 0 8.06051 1.02666 7.55944 2.44446H2.44446C1.09392 2.44446 0 3.53832 0 4.88891V21.9999C0 23.3505 1.09387 24.4444 2.44446 24.4444H19.5555C20.9061 24.4444 22 23.3505 22 21.9999V4.88886C21.9999 3.53832 20.9061 2.44446 19.5555 2.44446ZM11 2.44446C11.6722 2.44446 12.2222 2.98833 12.2222 3.66666C12.2222 4.34499 11.6722 4.88886 11 4.88886C10.3278 4.88886 9.77777 4.34499 9.77777 3.66666C9.77777 2.98833 10.3278 2.44446 11 2.44446ZM8.55557 19.5555L3.66666 14.6666L5.39612 12.9372L8.55557 16.0966L16.6039 8.04831L18.3333 9.77777L8.55557 19.5555Z" fill="url(#paint0_linear)"/>
<defs>
<linearGradient id="paint0_linear" x1="0" y1="12.2222" x2="22" y2="12.2222" gradientUnits="userSpaceOnUse">
<stop stop-color="#84FAB0"/>
<stop offset="1" stop-color="#8FD3F4"/>
</linearGradient>
</defs>
</svg>
