<svg width="22" height="22" viewBox="0 0 22 22" fill="none" xmlns="http://www.w3.org/2000/svg">
<path d="M7.81164 0C5.30574 0 3.26709 2.04432 3.26709 4.55714C3.26709 7.06995 5.30574 9.11427 7.81164 9.11427C10.3175 9.11427 12.3561 7.06995 12.3561 4.55714C12.3561 2.04432 10.3175 0 7.81164 0Z" fill="white" fill-opacity="0.34"/>
<path d="M14.6249 9.37793C11.1438 9.37793 8.31171 12.2091 8.31171 15.689C8.31171 19.1689 11.1438 22 14.6249 22C18.1061 22 20.9382 19.1689 20.9382 15.689C20.9382 12.2091 18.1061 9.37793 14.6249 9.37793ZM13.8143 14.9836H15.3496C16.2186 14.9836 16.9262 15.6883 16.9307 16.5561C16.9308 16.5589 16.9308 16.5617 16.9308 16.5645C16.9308 16.5672 16.9308 16.57 16.9307 16.5728C16.9262 17.4406 16.2187 18.1453 15.3496 18.1453H15.2793V18.7117C15.2793 19.0677 14.9907 19.3563 14.6347 19.3563C14.2788 19.3563 13.9902 19.0677 13.9902 18.7117V18.1453H12.8777C12.5217 18.1453 12.2332 17.8567 12.2332 17.5007C12.2332 17.1448 12.5217 16.8562 12.8777 16.8562H15.3496C15.5106 16.8562 15.6417 16.7253 15.6417 16.5645C15.6417 16.4036 15.5106 16.2727 15.3496 16.2727H13.8143C12.9453 16.2727 12.2377 15.5681 12.2332 14.7002C12.2332 14.6974 12.2332 14.6947 12.2332 14.6919C12.2332 14.6891 12.2332 14.6863 12.2332 14.6835C12.2377 13.8157 12.9452 13.1111 13.8143 13.1111H13.9902V12.5482C13.9902 12.1922 14.2788 11.9036 14.6348 11.9036C14.9907 11.9036 15.2793 12.1922 15.2793 12.5482V13.1111H16.2863C16.6422 13.1111 16.9308 13.3997 16.9308 13.7556C16.9308 14.1116 16.6422 14.4002 16.2863 14.4002H13.8144C13.6533 14.4002 13.5223 14.531 13.5223 14.6919C13.5223 14.8528 13.6533 14.9836 13.8143 14.9836Z" fill="white" fill-opacity="0.34"/>
<path d="M7.81158 10.2429C6.41944 10.2429 5.14284 9.73722 4.1549 8.89941C3.82511 9.11202 3.51204 9.35454 3.21951 9.6255C1.97372 10.7793 1.20883 12.3447 1.06583 14.0333C1.03919 14.3478 1.1464 14.6615 1.36004 14.894C1.57351 15.1264 1.87661 15.2596 2.1917 15.2596H7.1732C7.28169 13.0515 8.35574 11.0972 9.98198 9.81001C9.31308 10.0889 8.57991 10.2429 7.81158 10.2429Z" fill="white" fill-opacity="0.34"/>
</svg>
