<svg width="22" height="20" viewBox="0 0 22 20" fill="none" xmlns="http://www.w3.org/2000/svg">
<path fill-rule="evenodd" clip-rule="evenodd" d="M1.20731 9.70984H3.00072C3.20829 9.32629 3.61415 9.06608 4.07591 9.06608H6.05734C6.52086 9.06608 6.92697 9.32654 7.13304 9.70984H15.1415C15.349 9.32629 15.7534 9.06608 16.2167 9.06608H18.1981C18.6614 9.06608 19.0657 9.32654 19.2733 9.70984H20.7914C21.4563 9.70984 22 9.16585 22 8.50254V5.42135C22 4.75628 21.4563 4.21404 20.7914 4.21404H17.692L17.6721 1.84054C17.6634 0.828519 16.8436 0 15.8319 0H6.12402C5.11225 0 4.30479 1.10728 4.30479 2.1193V4.21404H1.20731C0.541984 4.21404 0 4.75628 0 5.42135V8.50254C0 9.16585 0.541984 9.70984 1.20731 9.70984ZM6.25112 2.69789C6.25112 2.30983 6.56799 1.99346 6.95555 1.99346H15.0427C15.4308 1.99346 15.7486 2.30983 15.7486 2.69789V4.21404H6.25112V2.69789Z" fill="white" fill-opacity="0.38"/>
<path fill-rule="evenodd" clip-rule="evenodd" d="M1.37827 19.2302H20.62C21.3788 19.2302 21.9997 18.609 21.9997 17.8499V10.5369C21.6458 10.7474 21.2319 10.8685 20.7914 10.8685H19.2733C19.0657 11.2518 18.6614 11.5123 18.1981 11.5123H16.2167C15.7534 11.5123 15.349 11.2518 15.1415 10.8685H7.13303C6.92697 11.2518 6.52086 11.5123 6.05734 11.5123H4.07591C3.61415 11.5123 3.20829 11.2518 3.00072 10.8685H1.20731C0.766349 10.8685 0.352716 10.7474 0 10.5369V17.8501C0 18.6092 0.619447 19.2302 1.37827 19.2302Z" fill="white" fill-opacity="0.38"/>
</svg>
