<svg width="22" height="22" viewBox="0 0 22 22" fill="none" xmlns="http://www.w3.org/2000/svg">
<g clip-path="url(#clip0)">
<path d="M14.6673 2.70417C12.0136 2.70417 9.85484 4.86292 9.85484 7.51667C9.85484 10.1704 12.0136 12.3292 14.6673 12.3292C17.3211 12.3292 19.4798 10.1704 19.4798 7.51667C19.4798 4.86292 17.3211 2.70417 14.6673 2.70417ZM14.558 7.09835L14.9954 7.23502C15.4571 7.3793 15.7673 7.80125 15.7673 8.28492V8.43333C15.7673 8.96129 15.3934 9.40344 14.8965 9.50918V9.625C14.8965 9.82749 14.7323 9.99167 14.5298 9.99167C14.3273 9.99167 14.1632 9.82749 14.1632 9.625V9.4105C13.8096 9.22735 13.5673 8.85821 13.5673 8.43333C13.5673 8.23084 13.7315 8.06667 13.934 8.06667C14.1365 8.06667 14.3007 8.23084 14.3007 8.43333C14.3007 8.6355 14.4652 8.8 14.6673 8.8C14.8695 8.8 15.034 8.6355 15.034 8.43333V8.28497C15.034 8.12373 14.9306 7.98311 14.7767 7.93499L14.3393 7.79831C13.8775 7.65403 13.5673 7.23209 13.5673 6.74841V6.6C13.5673 6.122 13.8739 5.71445 14.3007 5.56307V5.40833C14.3007 5.20584 14.4648 5.04167 14.6673 5.04167C14.8698 5.04167 15.034 5.20584 15.034 5.40833V5.56307C15.4608 5.71445 15.7673 6.122 15.7673 6.6C15.7673 6.80249 15.6032 6.96667 15.4007 6.96667C15.1982 6.96667 15.034 6.80249 15.034 6.6C15.034 6.39783 14.8695 6.23333 14.6673 6.23333C14.4652 6.23333 14.3007 6.39783 14.3007 6.6V6.74836C14.3007 6.9096 14.4041 7.05022 14.558 7.09835ZM18.0464 21.2666C17.0411 21.2598 16.2257 20.4402 16.2257 19.4333V13.3084C16.2257 13.0766 16.0129 12.9022 15.7859 12.9495C12.3819 13.6592 9.1215 11.0432 9.1215 7.51667C9.1215 3.99112 12.3808 1.37385 15.7859 2.08381C16.0129 2.13116 16.2257 1.95672 16.2257 1.72485V1.46667C16.2257 0.656654 15.569 0 14.759 0H2.84234C2.03233 0 1.37567 0.656654 1.37567 1.46667V19.4333C1.37567 20.8509 2.5248 22 3.94234 22H18.059C18.2713 22 18.4413 21.8198 18.4245 21.604C18.4095 21.411 18.24 21.268 18.0464 21.2666ZM4.95067 5.3625H8.06734C8.26983 5.3625 8.434 5.52668 8.434 5.72917C8.434 5.93166 8.26983 6.09583 8.06734 6.09583H4.95067C4.74818 6.09583 4.584 5.93166 4.584 5.72917C4.584 5.52668 4.74818 5.3625 4.95067 5.3625ZM4.95067 9.4875H8.06734C8.26983 9.4875 8.434 9.65168 8.434 9.85417C8.434 10.0567 8.26983 10.2208 8.06734 10.2208H4.95067C4.74818 10.2208 4.584 10.0567 4.584 9.85417C4.584 9.65168 4.74818 9.4875 4.95067 9.4875ZM12.6507 18.1958H4.95067C4.74818 18.1958 4.584 18.0317 4.584 17.8292C4.584 17.6267 4.74818 17.4625 4.95067 17.4625H12.6507C12.8532 17.4625 13.0173 17.6267 13.0173 17.8292C13.0173 18.0317 12.8532 18.1958 12.6507 18.1958ZM12.6507 14.3458H4.95067C4.74818 14.3458 4.584 14.1817 4.584 13.9792C4.584 13.7767 4.74818 13.6125 4.95067 13.6125H12.6507C12.8532 13.6125 13.0173 13.7767 13.0173 13.9792C13.0173 14.1817 12.8532 14.3458 12.6507 14.3458ZM20.6243 18.8824C20.6257 19.8958 19.8043 20.7171 18.7923 20.7171C17.781 20.7171 16.9604 19.8976 16.9604 18.8852C16.9604 15.4984 16.958 14.1789 16.9602 13.6564C16.961 13.4545 17.1249 13.2917 17.3268 13.2917H19.159C19.9198 13.2917 20.5455 13.871 20.6183 14.6126L20.6243 18.8824Z" fill="white" fill-opacity="0.34"/>
</g>
<defs>
<clipPath id="clip0">
<rect width="22" height="22" fill="white"/>
</clipPath>
</defs>
</svg>
