<svg width="22" height="22" viewBox="0 0 22 22" fill="none" xmlns="http://www.w3.org/2000/svg">
<path d="M20.1873 2.45165H20.0148V1.66916C20.0148 0.8722 19.3687 0.226074 18.5718 0.226074C17.7734 0.226074 17.1273 0.8722 17.1273 1.66916V2.45165H14.9768V1.66916C14.9768 0.8722 14.3308 0.226074 13.5338 0.226074C12.7361 0.226074 12.09 0.8722 12.09 1.66916V2.45165H9.92438V1.66916C9.92438 0.8722 9.2783 0.226074 8.48134 0.226074C7.68366 0.226074 7.03686 0.8722 7.03686 1.66916V2.45165H4.87196V1.66916C4.87196 0.8722 4.22579 0.226074 3.42815 0.226074C2.63124 0.226074 1.98516 0.8722 1.98516 1.66916V2.45165H1.8119C0.811431 2.45165 0 3.26236 0 4.26283L0.0144709 18.5185C0.0144709 20.3138 1.47482 21.7742 3.27018 21.7742H18.7299C20.5252 21.7742 21.9841 20.3138 21.9841 18.5185L22 4.26283C22 3.26236 21.1886 2.45165 20.1873 2.45165ZM20.5418 18.5185C20.5418 19.519 19.7297 20.3312 18.7299 20.3312H3.27018C2.27029 20.3312 1.45823 19.519 1.45823 18.5185V6.28557H20.5418V18.5185Z" fill="url(#paint0_linear)"/>
<path d="M3.94147 12.7969H7.01234C7.41878 12.7969 7.74789 12.4678 7.74789 12.0613V8.98976C7.74789 8.58332 7.41873 8.25488 7.01234 8.25488H3.94147C3.53508 8.25488 3.20587 8.58337 3.20587 8.98976V12.0613C3.20592 12.4678 3.53508 12.7969 3.94147 12.7969Z" fill="url(#paint1_linear)"/>
<path d="M3.94147 18.3712H7.01234C7.41878 18.3712 7.74789 18.042 7.74789 17.6362V14.564C7.74789 14.1583 7.41873 13.8291 7.01234 13.8291H3.94147C3.53508 13.8291 3.20587 14.1583 3.20587 14.564V17.6362C3.20592 18.042 3.53508 18.3712 3.94147 18.3712Z" fill="url(#paint2_linear)"/>
<path d="M9.51581 18.3712H12.5874C12.9931 18.3712 13.323 18.042 13.323 17.6362V14.564C13.323 14.1583 12.9931 13.8291 12.5874 13.8291H9.51581C9.10942 13.8291 8.78088 14.1583 8.78088 14.564V17.6362C8.78093 18.042 9.10942 18.3712 9.51581 18.3712Z" fill="url(#paint3_linear)"/>
<path d="M15.0714 12.7969H18.1422C18.5494 12.7969 18.8778 12.4678 18.8778 12.0613V8.98976C18.8778 8.58332 18.5494 8.25488 18.1422 8.25488H15.0714C14.6649 8.25488 14.3358 8.58337 14.3358 8.98976V12.0613C14.3358 12.4678 14.6649 12.7969 15.0714 12.7969ZM15.2331 9.24744C15.2331 9.19476 15.2757 9.15068 15.329 9.15068H17.8845C17.9379 9.15068 17.9812 9.19476 17.9812 9.24744V11.8036C17.9812 11.857 17.9379 11.8996 17.8845 11.8996H15.329C15.2757 11.8996 15.2331 11.857 15.2331 11.8036V9.24744Z" fill="url(#paint4_linear)"/>
<path d="M15.0714 18.3712H18.1422C18.5494 18.3712 18.8778 18.042 18.8778 17.6362V14.564C18.8778 14.1583 18.5494 13.8291 18.1422 13.8291H15.0714C14.6649 13.8291 14.3358 14.1583 14.3358 14.564V17.6362C14.3358 18.042 14.6649 18.3712 15.0714 18.3712Z" fill="url(#paint5_linear)"/>
<path d="M9.49697 12.7969H12.5678C12.9735 12.7969 13.3034 12.4678 13.3034 12.0613V8.98976C13.3034 8.58332 12.9736 8.25488 12.5678 8.25488H9.49697C9.08981 8.25488 8.76141 8.58337 8.76141 8.98976V12.0613C8.76141 12.4678 9.08981 12.7969 9.49697 12.7969Z" fill="url(#paint6_linear)"/>
<defs>
<linearGradient id="paint0_linear" x1="0" y1="11.0001" x2="22" y2="11.0001" gradientUnits="userSpaceOnUse">
<stop stop-color="#84FAB0"/>
<stop offset="1" stop-color="#8FD3F4"/>
</linearGradient>
<linearGradient id="paint1_linear" x1="3.20587" y1="10.5259" x2="7.74789" y2="10.5259" gradientUnits="userSpaceOnUse">
<stop stop-color="#84FAB0"/>
<stop offset="1" stop-color="#8FD3F4"/>
</linearGradient>
<linearGradient id="paint2_linear" x1="3.20587" y1="16.1001" x2="7.74789" y2="16.1001" gradientUnits="userSpaceOnUse">
<stop stop-color="#84FAB0"/>
<stop offset="1" stop-color="#8FD3F4"/>
</linearGradient>
<linearGradient id="paint3_linear" x1="8.78088" y1="16.1001" x2="13.323" y2="16.1001" gradientUnits="userSpaceOnUse">
<stop stop-color="#84FAB0"/>
<stop offset="1" stop-color="#8FD3F4"/>
</linearGradient>
<linearGradient id="paint4_linear" x1="14.3358" y1="10.5259" x2="18.8778" y2="10.5259" gradientUnits="userSpaceOnUse">
<stop stop-color="#84FAB0"/>
<stop offset="1" stop-color="#8FD3F4"/>
</linearGradient>
<linearGradient id="paint5_linear" x1="14.3358" y1="16.1001" x2="18.8778" y2="16.1001" gradientUnits="userSpaceOnUse">
<stop stop-color="#84FAB0"/>
<stop offset="1" stop-color="#8FD3F4"/>
</linearGradient>
<linearGradient id="paint6_linear" x1="8.76141" y1="10.5259" x2="13.3034" y2="10.5259" gradientUnits="userSpaceOnUse">
<stop stop-color="#84FAB0"/>
<stop offset="1" stop-color="#8FD3F4"/>
</linearGradient>
</defs>
</svg>
