<svg width="22" height="22" viewBox="0 0 22 22" fill="none" xmlns="http://www.w3.org/2000/svg">
<g clip-path="url(#clip0)">
<path d="M17.2134 13.7153C15.2847 13.7153 13.7157 15.2844 13.7157 17.2129C13.7157 19.1416 15.2847 20.7106 17.2134 20.7106C19.142 20.7106 20.711 19.1416 20.711 17.2129C20.711 15.2844 19.1419 13.7153 17.2134 13.7153ZM18.594 17.8575H17.2134C16.8574 17.8575 16.5688 17.5689 16.5688 17.213V15.8323C16.5688 15.4763 16.8574 15.1877 17.2134 15.1877C17.5693 15.1877 17.8579 15.4763 17.8579 15.8323V16.5685H18.5941C18.9501 16.5685 19.2386 16.857 19.2386 17.213C19.2386 17.5689 18.9501 17.8575 18.594 17.8575Z" fill="url(#paint0_linear)"/>
<path d="M0 19.6296C0 20.9367 1.06335 22 2.37041 22H17.2133C14.5739 22 12.4266 19.8527 12.4266 17.2133C12.4266 14.5739 14.5739 12.4267 17.2133 12.4267C19.8526 12.4267 22 14.5739 22 17.2133V6.81201H0V19.6296ZM17.4478 9.16356C17.5681 9.04368 17.734 8.97493 17.9037 8.97493C18.0734 8.97493 18.2393 9.04368 18.3592 9.16356C18.4795 9.28344 18.5482 9.44973 18.5482 9.61946C18.5482 9.78914 18.4795 9.95505 18.3592 10.0749C18.2393 10.1948 18.0734 10.264 17.9037 10.264C17.734 10.264 17.5681 10.1948 17.4478 10.0749C17.3279 9.95505 17.2592 9.78919 17.2592 9.61946C17.2592 9.44973 17.3279 9.28344 17.4478 9.16356ZM14.6862 9.16356C14.8065 9.04368 14.9723 8.97493 15.1421 8.97493C15.3118 8.97493 15.4776 9.04368 15.598 9.16356C15.7178 9.28387 15.7866 9.44973 15.7866 9.61946C15.7866 9.78871 15.7178 9.95505 15.598 10.0749C15.4776 10.1948 15.3118 10.264 15.1421 10.264C14.9723 10.264 14.8065 10.1948 14.6862 10.0749C14.5663 9.95505 14.4975 9.78876 14.4975 9.61946C14.4975 9.44973 14.5663 9.28344 14.6862 9.16356ZM12.8364 12.8365C12.7165 12.9564 12.5502 13.0252 12.3809 13.0252C12.2112 13.0252 12.0453 12.9564 11.925 12.8365C11.8051 12.7166 11.7364 12.5504 11.7364 12.3806C11.7364 12.2109 11.8051 12.045 11.925 11.9251C12.0449 11.8052 12.2112 11.7361 12.3809 11.7361C12.5506 11.7361 12.7165 11.8052 12.8364 11.9251C12.9562 12.045 13.0254 12.2109 13.0254 12.3806C13.0255 12.5504 12.9562 12.7166 12.8364 12.8365ZM11.925 9.16356C12.0449 9.04368 12.2112 8.97493 12.3809 8.97493C12.5506 8.97493 12.7165 9.04368 12.8364 9.16356C12.9562 9.28344 13.0254 9.44973 13.0254 9.61946C13.0254 9.78914 12.9562 9.95505 12.8364 10.0749C12.7165 10.1948 12.5507 10.264 12.3809 10.264C12.2111 10.264 12.0449 10.1948 11.925 10.0749C11.8051 9.95505 11.736 9.78919 11.736 9.61946C11.736 9.44973 11.8051 9.28344 11.925 9.16356ZM9.16343 9.16356C9.28374 9.04368 9.4496 8.97493 9.61929 8.97493C9.78901 8.97493 9.95491 9.04368 10.0748 9.16356C10.1951 9.28344 10.2638 9.44973 10.2638 9.61946C10.2638 9.78914 10.1951 9.95505 10.0748 10.0749C9.95491 10.1948 9.78905 10.264 9.61929 10.264C9.4496 10.264 9.2837 10.1948 9.16343 10.0749C9.04355 9.95505 8.97475 9.78919 8.97475 9.61946C8.97475 9.44973 9.04355 9.28344 9.16343 9.16356ZM9.16343 11.9251C9.28331 11.8052 9.4496 11.7361 9.61929 11.7361C9.78901 11.7361 9.95491 11.8052 10.0752 11.9251C10.1951 12.045 10.2638 12.2109 10.2638 12.3806C10.2638 12.5504 10.1951 12.7166 10.0752 12.8365C9.95487 12.9564 9.78858 13.0252 9.61929 13.0252C9.4496 13.0252 9.2837 12.9564 9.16343 12.8365C9.04355 12.7166 8.97475 12.5504 8.97475 12.3806C8.97475 12.2109 9.04355 12.045 9.16343 11.9251ZM9.16343 14.6863C9.28331 14.5665 9.4496 14.4977 9.61929 14.4977C9.78901 14.4977 9.95491 14.5665 10.0752 14.6863C10.1951 14.8062 10.2638 14.9725 10.2638 15.1422C10.2638 15.3119 10.1951 15.4782 10.0752 15.5981C9.95487 15.718 9.78858 15.7867 9.61929 15.7867C9.4496 15.7867 9.2837 15.718 9.16343 15.5981C9.04355 15.4782 8.97475 15.3119 8.97475 15.1422C8.97475 14.9725 9.04355 14.8062 9.16343 14.6863ZM9.16343 17.4479C9.28331 17.3281 9.4496 17.2593 9.61929 17.2593C9.78901 17.2593 9.95491 17.3281 10.0752 17.4479C10.1951 17.5678 10.2638 17.7341 10.2638 17.9038C10.2638 18.0731 10.1951 18.2394 10.0752 18.3593C9.95487 18.4792 9.78901 18.5484 9.61929 18.5484C9.4496 18.5484 9.28331 18.4792 9.16343 18.3593C9.04355 18.2394 8.97475 18.0736 8.97475 17.9038C8.97475 17.7341 9.04355 17.5678 9.16343 17.4479ZM6.40178 9.16356C6.5221 9.04368 6.68796 8.97493 6.85768 8.97493C7.02741 8.97493 7.1937 9.04368 7.31358 9.16356C7.43347 9.28344 7.50221 9.44973 7.50221 9.61946C7.50221 9.78871 7.43347 9.95505 7.31358 10.0749C7.1937 10.1948 7.02741 10.264 6.85768 10.264C6.68796 10.264 6.5221 10.1948 6.40178 10.0749C6.2819 9.95505 6.21315 9.78876 6.21315 9.61946C6.2132 9.44973 6.2819 9.28344 6.40178 9.16356ZM6.40226 11.9251C6.5221 11.8052 6.68796 11.7361 6.85773 11.7361C7.02745 11.7361 7.19374 11.8052 7.31362 11.9251C7.43351 12.045 7.50226 12.2113 7.50226 12.3806C7.50226 12.5504 7.43351 12.7166 7.31362 12.8365C7.19331 12.9564 7.02745 13.0252 6.85773 13.0252C6.68847 13.0252 6.52214 12.9564 6.40226 12.8365C6.2819 12.7166 6.2132 12.5504 6.2132 12.3806C6.2132 12.2109 6.2819 12.045 6.40226 11.9251ZM6.40226 14.6863C6.5221 14.5665 6.68796 14.4977 6.85773 14.4977C7.02745 14.4977 7.19374 14.5665 7.31362 14.6863C7.43351 14.8066 7.50226 14.9725 7.50226 15.1422C7.50226 15.3119 7.43351 15.4778 7.31362 15.5981C7.19331 15.718 7.02745 15.7867 6.85773 15.7867C6.68847 15.7867 6.52214 15.718 6.40226 15.5981C6.2819 15.4782 6.2132 15.3119 6.2132 15.1422C6.2132 14.9725 6.2819 14.8062 6.40226 14.6863ZM6.40226 17.4479C6.5221 17.3281 6.68796 17.2593 6.85773 17.2593C7.02745 17.2593 7.19336 17.3281 7.31362 17.4479C7.43351 17.5678 7.50226 17.7341 7.50226 17.9038C7.50226 18.0731 7.43351 18.2394 7.31362 18.3593C7.19331 18.4792 7.02745 18.5484 6.85773 18.5484C6.688 18.5484 6.52214 18.4792 6.40226 18.3593C6.2819 18.2394 6.2132 18.0736 6.2132 17.9038C6.2132 17.7341 6.2819 17.5678 6.40226 17.4479ZM3.64066 11.9251C3.76054 11.8052 3.92683 11.7361 4.09655 11.7361C4.26581 11.7361 4.43214 11.8052 4.55202 11.9251C4.67191 12.045 4.74109 12.2109 4.74109 12.3806C4.74109 12.5504 4.67191 12.7166 4.55202 12.8365C4.43214 12.9564 4.26585 13.0252 4.09655 13.0252C3.92683 13.0252 3.76054 12.9564 3.64066 12.8365C3.52077 12.7166 3.45202 12.5504 3.45202 12.3806C3.45202 12.2109 3.52077 12.045 3.64066 11.9251ZM3.64066 14.6863C3.76054 14.5665 3.9264 14.4977 4.09617 14.4977C4.26585 14.4977 4.43214 14.5665 4.55202 14.6863C4.67191 14.8062 4.7407 14.9725 4.7407 15.1422C4.7407 15.3119 4.67191 15.4782 4.55202 15.5981C4.43214 15.718 4.26585 15.7867 4.09617 15.7867C3.92687 15.7867 3.76054 15.718 3.64066 15.5981C3.52077 15.4782 3.45202 15.3119 3.45202 15.1422C3.45202 14.9725 3.52077 14.8062 3.64066 14.6863ZM3.64066 17.4479C3.76054 17.3281 3.92683 17.2593 4.09617 17.2593C4.26585 17.2593 4.43214 17.3281 4.55202 17.4479C4.67191 17.5678 4.74109 17.7341 4.74109 17.9038C4.74109 18.0736 4.67191 18.2394 4.55202 18.3593C4.43214 18.4792 4.26585 18.5484 4.09617 18.5484C3.92687 18.5484 3.76054 18.4792 3.64066 18.3593C3.52077 18.2394 3.45164 18.0731 3.45164 17.9038C3.45159 17.7341 3.52077 17.5678 3.64066 17.4479Z" fill="url(#paint1_linear)"/>
<path d="M19.6295 1.38071H18.0898V0.644531C18.0898 0.288578 17.8012 0 17.4453 0C17.0893 0 16.8008 0.288578 16.8008 0.644531V1.38071H15.5117V0.644531C15.5117 0.288578 15.2231 0 14.8672 0C14.5112 0 14.2227 0.288578 14.2227 0.644531V1.38071H12.9336V0.644531C12.9336 0.288578 12.645 0 12.2891 0C11.9331 0 11.6445 0.288578 11.6445 0.644531V1.38071H10.3555V0.644531C10.3555 0.288578 10.0668 0 9.71094 0C9.35494 0 9.06641 0.288578 9.06641 0.644531V1.38071H7.77734V0.644531C7.77734 0.288578 7.48872 0 7.13281 0C6.77682 0 6.48828 0.288578 6.48828 0.644531V1.38071H5.19922V0.644531C5.19922 0.288578 4.9106 0 4.55469 0C4.19869 0 3.91016 0.288578 3.91016 0.644531V1.38071H2.37041C1.06335 1.38071 0 2.44411 0 3.75117V5.5229H22V3.75117C22 2.44411 20.9366 1.38071 19.6295 1.38071Z" fill="url(#paint2_linear)"/>
</g>
<defs>
<linearGradient id="paint0_linear" x1="13.7157" y1="17.213" x2="20.711" y2="17.213" gradientUnits="userSpaceOnUse">
<stop stop-color="#84FAB0"/>
<stop offset="1" stop-color="#8FD3F4"/>
</linearGradient>
<linearGradient id="paint1_linear" x1="0" y1="14.406" x2="22" y2="14.406" gradientUnits="userSpaceOnUse">
<stop stop-color="#84FAB0"/>
<stop offset="1" stop-color="#8FD3F4"/>
</linearGradient>
<linearGradient id="paint2_linear" x1="0" y1="2.76145" x2="22" y2="2.76145" gradientUnits="userSpaceOnUse">
<stop stop-color="#84FAB0"/>
<stop offset="1" stop-color="#8FD3F4"/>
</linearGradient>
<clipPath id="clip0">
<rect width="22" height="22" fill="white"/>
</clipPath>
</defs>
</svg>
