<svg xmlns="http://www.w3.org/2000/svg" xmlns:xlink="http://www.w3.org/1999/xlink" width="1784" height="159" viewBox="0 0 1784 159"><defs><style>.a{fill:#69696c;opacity:0.16;}.b{filter:url(#c);}.c{filter:url(#a);}</style><filter id="a" x="0" y="0" width="1784" height="159" filterUnits="userSpaceOnUse"><feOffset dy="3" input="SourceAlpha"/><feGaussianBlur stdDeviation="3" result="b"/><feFlood flood-color="#020202"/><feComposite operator="in" in2="b"/><feComposite in="SourceGraphic"/></filter><filter id="c" x="12" y="12" width="1760" height="135" filterUnits="userSpaceOnUse"><feOffset dy="3" input="SourceAlpha"/><feGaussianBlur stdDeviation="3" result="d"/><feFlood flood-color="#020202"/><feComposite operator="in" in2="d"/><feComposite in="SourceGraphic"/></filter></defs><g transform="translate(21 18)"><g class="c" transform="matrix(1, 0, 0, 1, -21, -18)"><path class="a" d="M15,0H1742a0,0,0,0,1,0,0V117a0,0,0,0,1,0,0H15A15,15,0,0,1,0,102V15A15,15,0,0,1,15,0Z" transform="translate(21 18)"/></g><g class="b" transform="matrix(1, 0, 0, 1, -21, -18)"><rect class="a" width="1742" height="117" rx="15" transform="translate(21 18)"/></g></g></svg>