<svg xmlns="http://www.w3.org/2000/svg" width="118.66" height="137" viewBox="0 0 118.66 137">
  <g id="Group_5252" data-name="Group 5252" transform="translate(-1019.678 -269)">
    <rect id="Rectangle_2884" data-name="Rectangle 2884" width="26" height="26" transform="translate(1041 371)" fill="#ff375f"/>
    <rect id="Rectangle_3020" data-name="Rectangle 3020" width="26" height="26" transform="translate(1107 299)" fill="#ff375f"/>
    <rect id="Rectangle_3019" data-name="Rectangle 3019" width="26" height="26" transform="translate(1109 362)" fill="#ff375f"/>
    <rect id="Rectangle_2885" data-name="Rectangle 2885" width="27" height="27" transform="translate(1063 379)" fill="#4a5055"/>
    <rect id="Rectangle_3018" data-name="Rectangle 3018" width="27" height="27" transform="translate(1063 283)" fill="#4a5055"/>
    <g id="_024-idea" data-name="024-idea" transform="translate(1019.678 269)">
      <path id="Path_12452" data-name="Path 12452" d="M289.072,40.191V24.88h-8.886a24.8,24.8,0,0,0-1.512-3.654l6.281-6.283L274.128,4.115,267.845,10.4a24.58,24.58,0,0,0-3.654-1.51V0H248.88V8.886a24.8,24.8,0,0,0-3.654,1.512l-6.283-6.283L228.115,14.943l6.281,6.283a24.8,24.8,0,0,0-1.512,3.654H224V40.191h8.886a24.8,24.8,0,0,0,1.512,3.654l-6.281,6.283,10.827,10.825,6.281-6.279a25.116,25.116,0,0,0,3.655,1.512v8.886h15.311V56.185a25.115,25.115,0,0,0,3.655-1.512l6.281,6.279,10.827-10.825-6.281-6.283a24.794,24.794,0,0,0,1.512-3.654Zm-32.536,5.742a13.4,13.4,0,0,1-3.979-.6,26.888,26.888,0,0,0-8.817-8.817,13.4,13.4,0,1,1,12.8,9.418Z" transform="translate(-170.412)" fill="#f9ba48"/>
      <path id="Path_12453" data-name="Path 12453" d="M101.435,87.311a15.311,15.311,0,0,0-30.622,0c0,.174.033.344.038.519A28.512,28.512,0,0,0,59.33,85.4a28.864,28.864,0,0,0-26.264,17.225H9.569a9.569,9.569,0,1,0,0,19.139H31.724a28.589,28.589,0,0,0,10.381,15.292v3.943a6.661,6.661,0,0,0-2.559,12.277,6.638,6.638,0,0,0,1.914,9.571,6.676,6.676,0,0,0,5.43,10.591H71.77a6.676,6.676,0,0,0,5.43-10.591,6.636,6.636,0,0,0,1.914-9.569A6.661,6.661,0,0,0,76.555,141v-3.943a28.62,28.62,0,0,0,9.051-34.469c.174,0,.344.036.519.036A15.329,15.329,0,0,0,101.435,87.311ZM31.542,106.45H49.761v3.828H24.88V106.45ZM9.569,117.933a5.742,5.742,0,1,1,0-11.483h1.914v11.483Zm5.742,0V106.45h5.742v11.483Zm9.569,0v-3.828h24.88v3.828H24.88Zm48.8,42.105H44.976a2.871,2.871,0,1,1,0-5.742H73.684a2.871,2.871,0,1,1,0,5.742Zm-1.914,9.569H46.89a2.871,2.871,0,1,1,0-5.742H71.77a2.871,2.871,0,1,1,0,5.742Zm6.7-22.009a2.874,2.874,0,0,1-2.871,2.871H43.062a2.871,2.871,0,0,1,0-5.742H75.6A2.874,2.874,0,0,1,78.469,147.6Zm-4.922-13.091-.819.572v5.82H45.933v-5.82l-.819-.572a24.811,24.811,0,0,1-9.424-12.746h17.9V102.622h-16.3a25.035,25.035,0,0,1,22.044-13.4A24.7,24.7,0,0,1,72.44,93a25.123,25.123,0,0,1,8,8,24.78,24.78,0,0,1-6.89,33.512Zm1.428-44.442a11.473,11.473,0,1,1,8.4,8.4A28.914,28.914,0,0,0,74.974,90.065Z" transform="translate(0 -54.775)" fill="#fff"/>
    </g>
  </g>
</svg>
