<svg xmlns="http://www.w3.org/2000/svg" width="118.891" height="122.66" viewBox="0 0 118.891 122.66">
  <g id="Group_5251" data-name="Group 5251" transform="translate(-1030.122 -283)">
    <rect id="Rectangle_2885" data-name="Rectangle 2885" width="27" height="27" transform="translate(1068 324)" fill="#4a5055"/>
    <g id="Group_5251-2" data-name="Group 5251">
      <rect id="Rectangle_2884" data-name="Rectangle 2884" width="26" height="26" transform="translate(1041 371)" fill="#ff375f"/>
      <rect id="Rectangle_3019" data-name="Rectangle 3019" width="26" height="26" transform="translate(1095 304)" fill="#ff375f"/>
      <rect id="Rectangle_3018" data-name="Rectangle 3018" width="27" height="27" transform="translate(1063 283)" fill="#4a5055"/>
      <g id="_014-connection" data-name="014-connection" transform="translate(1030.122 287)">
        <g id="Group_5218" data-name="Group 5218" transform="translate(0 0)">
          <path id="Path_12390" data-name="Path 12390" d="M133.331.484a36.363,36.363,0,1,0,36.363,36.363A36.4,36.4,0,0,0,133.331.484Zm32.438,34.45h-12.2c-.036-1.066-.092-2.122-.186-3.144l-3.812.36c.084.905.136,1.839.172,2.785h-14.5V23.741a36.2,36.2,0,0,0,11.789-2.578,37.457,37.457,0,0,1,1.393,4.276l3.709-.949a41.935,41.935,0,0,0-1.631-4.978,36.448,36.448,0,0,0,6.708-4.685A32.369,32.369,0,0,1,165.77,34.934ZM122.317,51.561c-.909.289-1.8.628-2.685.989a42.482,42.482,0,0,1-2.676-13.791h14.461V49.954c-.57.031-1.141.029-1.705.084l.377,3.809c.444-.044.884-.033,1.326-.057V67.917a32.949,32.949,0,0,1-10.182-11.849c.743-.3,1.479-.618,2.241-.861Zm-2.951-38.482c-.591.945-1.131,1.922-1.64,2.917a32.543,32.543,0,0,1-5.523-3.841,32.427,32.427,0,0,1,13.843-6.991c-.7.626-1.418,1.3-2.153,2.071l2.777,2.635a30.648,30.648,0,0,1,4.748-4.092V19.914a32.31,32.31,0,0,1-10.243-2.26c.446-.869.921-1.719,1.437-2.542Zm15.879-7.292a33,33,0,0,1,10.239,11.868,32.36,32.36,0,0,1-10.239,2.258Zm5.412-.612a32.422,32.422,0,0,1,13.8,6.982,32.623,32.623,0,0,1-5.514,3.835A36.779,36.779,0,0,0,140.658,5.175Zm-9.24,18.566V34.934H116.93a42.442,42.442,0,0,1,2.693-13.774A36.143,36.143,0,0,0,131.418,23.741Zm-5.47,44.765a32.421,32.421,0,0,1-13.73-6.951,32.944,32.944,0,0,1,5.485-3.807A36.748,36.748,0,0,0,125.948,68.507Zm9.3-.557V53.8a32.515,32.515,0,0,1,10.23,2.3A32.164,32.164,0,0,1,135.245,67.95Zm13.715-10.2a32.412,32.412,0,0,1,5.491,3.8A32.431,32.431,0,0,1,140.715,68.5,36.71,36.71,0,0,0,148.96,57.749Zm-13.715-7.8V38.761h14.463a42.938,42.938,0,0,1-2.637,13.787A36.217,36.217,0,0,0,135.245,49.954Zm-25.8-35.127a36.425,36.425,0,0,0,6.706,4.683A46.139,46.139,0,0,0,113.1,34.934H100.893A32.36,32.36,0,0,1,109.45,14.827Zm-8.557,23.935h12.193a46.412,46.412,0,0,0,3.028,15.451,36.8,36.8,0,0,0-6.689,4.63A32.36,32.36,0,0,1,100.893,38.761Zm56.319,20.107a36.429,36.429,0,0,0-6.664-4.658,46.355,46.355,0,0,0,3.026-15.449h12.193A32.348,32.348,0,0,1,157.213,58.868Z" transform="translate(-73.77 -0.484)" fill="#fff"/>
          <path id="Path_12391" data-name="Path 12391" d="M398.815,225.772l.038-11.858-3.847-19.41-1.3-9.089a5.833,5.833,0,0,0-11.566,1.523,5.92,5.92,0,0,0-6.115,7.943,5.711,5.711,0,0,0-2.45,1.411,5.97,5.97,0,0,0-1.378,6.245,5.711,5.711,0,0,0-2.45,1.411,5.974,5.974,0,0,0,0,8.448l5.971,5.971-1.747,2.624v12.063h-1.914v22.966h26.794V233.052h-1.493Zm-18.7-34.429a2.117,2.117,0,0,1,2.609-.283l.823,5.765v.986l-1.518-1.518-1.914-1.914a2.149,2.149,0,0,1,0-3.035ZM376.283,199a2.2,2.2,0,0,1,3.035,0l3.634,3.634a5.689,5.689,0,0,0-1.324,3.625v1.122l-3.432-3.432-1.914-1.914a2.148,2.148,0,0,1,0-3.035Zm-3.828,10.691a2.146,2.146,0,1,1,3.035-3.035l4.785,4.785.038.038-2.429,3.642Zm5.345,12.459,7.655-11.483v-4.408a1.914,1.914,0,1,1,3.828,0v13.4h3.828v-13.4a5.749,5.749,0,0,0-5.742-5.742v-3.828l-1.432-10.165a2.011,2.011,0,0,1,3.112-1.954,1.981,1.981,0,0,1,.867,1.386l1.317,9.194,3.791,18.953v11.106l-1.569,7.843H377.8Zm17.225,30.042H375.887V236.88h19.139Z" transform="translate(-279.962 -137.359)" fill="#fff"/>
          <path id="Path_12392" data-name="Path 12392" d="M26.664,202.5a5.873,5.873,0,0,0-3.828-7.655,5.913,5.913,0,0,0-6.124-7.9,5.833,5.833,0,0,0-11.566-1.525L3.866,194.4.038,213.54,0,225.4l1.5,7.655H0v22.966H26.794V233.054H24.88V220.991l-1.747-2.622L29.1,212.4a5.922,5.922,0,0,0-2.44-9.895Zm-4.094-.467-1.914,1.914-3.432,3.43v-1.12a5.689,5.689,0,0,0-1.324-3.625L19.535,199a2.146,2.146,0,0,1,3.035,3.035Zm-3.828-10.691a2.149,2.149,0,0,1,0,3.035l-1.914,1.914-1.518,1.518v-.986l.823-5.766A2.12,2.12,0,0,1,18.743,191.345Zm4.224,60.848H3.828V236.882H22.966ZM5.4,233.054l-1.569-7.845V214.1l3.809-19.056,1.3-9.089a2.007,2.007,0,0,1,2.477-1.667,2.009,2.009,0,0,1,1.5,2.235L11.5,196.419l-.013,4.1h-.006a5.749,5.749,0,0,0-5.742,5.742v13.4H9.569v-13.4a1.914,1.914,0,1,1,3.828,0v4.408l7.655,11.483v10.9Zm21-23.363-5.432,5.432-2.429-3.644.038-.038h0l4.785-4.785a2.146,2.146,0,0,1,3.035,0,2.146,2.146,0,0,1,0,3.035Z" transform="translate(0 -137.361)" fill="#fff"/>
        </g>
        <g id="Group_5219" data-name="Group 5219" transform="translate(43.81 5.328)">
          <path id="Path_12393" data-name="Path 12393" d="M188.487,33.474a5.359,5.359,0,1,1,5.361-5.359A5.365,5.365,0,0,1,188.487,33.474Z" transform="translate(-183.128 -22.756)" fill="#f9ba48"/>
          <path id="Path_12394" data-name="Path 12394" d="M306.191,105.514a5.359,5.359,0,1,1,5.359-5.359A5.365,5.365,0,0,1,306.191,105.514Z" transform="translate(-272.673 -77.562)" fill="#f9ba48"/>
          <path id="Path_12395" data-name="Path 12395" d="M202.711,206.412a5.36,5.36,0,1,1,5.361-5.359A5.365,5.365,0,0,1,202.711,206.412Z" transform="translate(-193.949 -154.32)" fill="#f9ba48"/>
        </g>
      </g>
    </g>
  </g>
</svg>
