<svg xmlns="http://www.w3.org/2000/svg" width="144" height="105.667" viewBox="0 0 144 105.667">
  <g id="Group_5257" data-name="Group 5257" transform="translate(-603 -671)">
    <rect id="Rectangle_2884" data-name="Rectangle 2884" width="64" height="64" transform="translate(603 712)" fill="#ff375f"/>
    <rect id="Rectangle_2885" data-name="Rectangle 2885" width="64" height="64" transform="translate(683 671)" fill="#4a5055"/>
    <g id="_015-coins" data-name="015-coins" transform="translate(626.414 679)">
      <g id="Group_5220" data-name="Group 5220">
        <ellipse id="Ellipse_706" data-name="Ellipse 706" cx="2" cy="1.5" rx="2" ry="1.5" transform="translate(12.586 79)" fill="#333"/>
        <path id="Path_12396" data-name="Path 12396" d="M164.961,106.807l4.816.962.619-3.089-9.16-1.832-3.639,9.093,2.925,1.169,1.821-4.554a45.665,45.665,0,0,1-68.225,58.4l-1.982,2.45a48.8,48.8,0,0,0,72.825-62.6Z" transform="translate(-73.993 -82.596)" fill="#fff"/>
        <path id="Path_12397" data-name="Path 12397" d="M77.543,13.308l1.982-2.45A48.8,48.8,0,0,0,6.7,73.457l-4.816-.962-.618,3.088,9.16,1.832,3.639-9.093L11.14,67.153,9.318,71.707a45.664,45.664,0,0,1,68.225-58.4Z" fill="#fff"/>
        <ellipse id="Ellipse_707" data-name="Ellipse 707" cx="2" cy="1.5" rx="2" ry="1.5" transform="translate(81.586 16)" fill="#333"/>
        <path id="Path_12398" data-name="Path 12398" d="M91.151,152.957h1.575v3.151H89.575v9.452h40.957v-3.151h-12.6v-3.151h3.151v-3.151h-6.3v-3.151h3.151v-3.151H113.2v-3.151h3.151v-6.3h1.575v-6.3h3.151V130.9h-1.575v-3.151h3.151v1.575h3.151v-1.575h6.3V124.6h-3.151v-3.151h1.575V112H89.575v6.3H88v9.452h3.151V130.9H89.575v6.3H88v9.452h3.151Zm11.027,6.3v3.151H99.027v-3.151Zm3.151,0h3.151v3.151h-3.151Zm-3.151-3.151v-3.151h3.151v3.151Zm-1.575-6.3v-3.151h3.151v3.151Zm3.151-6.3v-3.151H106.9v3.151Zm1.575-6.3v-3.151h3.151V137.2Zm1.575-6.3v-3.151h3.151V130.9Zm0-9.452V124.6h-3.151v-3.151Zm6.3,0V124.6h-3.151v-3.151Zm3.151,0h3.151V124.6h-3.151Zm1.575-3.151v-3.151h3.151V118.3Zm-3.151,0h-3.151v-3.151h3.151Zm-6.3,0h-3.151v-3.151h3.151Zm-6.3,0H99.027v-3.151h3.151Zm-1.575,3.151V124.6H97.452v-3.151Zm3.151,6.3V130.9H100.6v-3.151Zm-1.575,6.3V137.2H99.027v-3.151Zm-1.575,6.3v3.151H97.452v-3.151Zm-3.151,6.3v3.151H94.3v-3.151Zm-1.575,6.3h3.151v3.151H95.876Zm-3.151,6.3h3.151v3.151H92.726Zm22.054,3.151h-3.151v-3.151h3.151Zm-3.151-6.3h-3.151v-3.151h3.151Zm-1.575-6.3H106.9v-3.151h3.151Zm3.151-6.3h-3.151v-3.151H113.2Zm1.575-6.3h-3.151v-3.151h3.151Zm1.575-6.3H113.2v-3.151h3.151Zm9.452-6.3h-3.151v-3.151h3.151Zm1.575-6.3h-3.151v-3.151h3.151Zm-34.656-3.151h3.151V118.3H92.726Zm-1.575,6.3H94.3V124.6H91.151Zm3.151,6.3h3.151V130.9H94.3Zm-1.575,6.3h3.151V137.2H92.726Zm-1.575,6.3H94.3v3.151H91.151Z" transform="translate(-70.672 -89.946)" fill="#fff"/>
      </g>
      <path id="Path_12399" data-name="Path 12399" d="M244.479,216.957a20.479,20.479,0,1,1,20.479-20.479A20.5,20.5,0,0,1,244.479,216.957Z" transform="translate(-179.892 -141.344)" fill="#f9ba48"/>
      <path id="Path_12400" data-name="Path 12400" d="M294.054,211.027v-.788a7.1,7.1,0,0,0-7.089-7.089H284.6V200h-3.151v3.151h-2.363a7.089,7.089,0,1,0,0,14.178h7.876a3.938,3.938,0,0,1,0,7.876h-7.876a3.942,3.942,0,0,1-3.938-3.938v-.788H272v.788a7.1,7.1,0,0,0,7.089,7.089h2.363v3.151H284.6v-3.151h2.363a7.089,7.089,0,1,0,0-14.178h-7.876a3.938,3.938,0,0,1,0-7.876h7.876a3.942,3.942,0,0,1,3.938,3.938v.788Z" transform="translate(-218.44 -160.618)" fill="#fff"/>
    </g>
  </g>
</svg>
