<svg xmlns="http://www.w3.org/2000/svg" width="144" height="107" viewBox="0 0 144 107">
  <g id="Group_5259" data-name="Group 5259" transform="translate(-1124 -410)">
    <rect id="Rectangle_2884" data-name="Rectangle 2884" width="64" height="64" transform="translate(1124 453)" fill="#ff375f"/>
    <rect id="Rectangle_2885" data-name="Rectangle 2885" width="64" height="64" transform="translate(1204 412)" fill="#4a5055"/>
    <g id="_021-idea-2" data-name="021-idea-2" transform="translate(1164.283 410)">
      <path id="Path_12436" data-name="Path 12436" d="M104.32,61.561H93.546V55.248c-.511-.2-1.023-.409-1.533-.642l-4.468,4.468L74.487,46.016l4.468-4.468c-.232-.509-.446-1.022-.642-1.533H72V21.546h6.313c.2-.511.409-1.023.642-1.533l-4.468-4.468L87.546,2.487l4.468,4.468c.509-.232,1.022-.446,1.533-.642V0H104.32V18.468h-1.539a12.312,12.312,0,0,0,0,24.625h1.539Z" transform="translate(-72)" fill="#f9ba48"/>
      <g id="Group_5226" data-name="Group 5226" transform="translate(13.851)">
        <path id="Path_12437" data-name="Path 12437" d="M284.275,29.242a10.784,10.784,0,0,0-3.623-8.048,11.363,11.363,0,0,0,.545-3.5A11.557,11.557,0,0,0,269.976,6.161a13.053,13.053,0,0,0-18.947-3.527l1.851,2.459a9.979,9.979,0,0,1,14.858,3.346l.46.877,1.171-.069c.094,0,.188-.012.285-.012a8.476,8.476,0,0,1,8.465,8.465,8.359,8.359,0,0,1-.186,1.756,10.672,10.672,0,0,0-4.431-.987,10.787,10.787,0,0,0-10.773,10.773h3.078a7.7,7.7,0,0,1,7.7-7.7,7.618,7.618,0,0,1,4.523,1.485,7.668,7.668,0,0,1,1.014,11.544l-.709.736.4.939A11.486,11.486,0,0,1,273.391,51a13.855,13.855,0,0,0-13.741-15.6v3.078a10.773,10.773,0,0,1,0,21.546,10.651,10.651,0,0,1-6.732-2.372l-1.927,2.4a13.7,13.7,0,0,0,8.659,3.047,13.878,13.878,0,0,0,12.078-7.166l.042.023c.185-.334.332-.685.489-1.033.025-.054.058-.1.082-.155a14.616,14.616,0,0,0,9.577-18.812A10.7,10.7,0,0,0,284.275,29.242Z" transform="translate(-230.409)" fill="#fff"/>
        <path id="Path_12438" data-name="Path 12438" d="M180.937,365.387A5.393,5.393,0,0,0,175.55,360H149.387a5.374,5.374,0,0,0-2.827,9.951,5.336,5.336,0,0,0,1.539,7.7,5.368,5.368,0,0,0,4.366,8.517h20.007a5.368,5.368,0,0,0,4.366-8.517,5.336,5.336,0,0,0,1.539-7.7A5.374,5.374,0,0,0,180.937,365.387Zm-31.55-2.309H175.55a2.309,2.309,0,1,1,0,4.617H149.387a2.309,2.309,0,1,1,0-4.617Zm24.625,12.312H150.926a2.309,2.309,0,0,1,0-4.617h23.086a2.309,2.309,0,0,1,0,4.617Zm-1.539,7.7H152.465a2.309,2.309,0,1,1,0-4.617h20.007a2.309,2.309,0,0,1,0,4.617Z" transform="translate(-144 -290.744)" fill="#fff"/>
      </g>
    </g>
  </g>
</svg>
