<svg xmlns="http://www.w3.org/2000/svg" width="144" height="105.173" viewBox="0 0 144 105.173">
  <g id="Group_5261" data-name="Group 5261" transform="translate(-858 -378.827)">
    <rect id="Rectangle_3027" data-name="Rectangle 3027" width="64" height="64" transform="translate(938 379)" fill="#ff375f"/>
    <rect id="Rectangle_3026" data-name="Rectangle 3026" width="64" height="64" transform="translate(858 420)" fill="#4a5055"/>
    <g id="_003-idea-3" data-name="003-idea-3" transform="translate(876.192 378.827)">
      <path id="Path_12338" data-name="Path 12338" d="M130.779,153.46h-12.1v-5.3a23.884,23.884,0,0,1-6.234-2.592l-3.755,3.753-8.554-8.554,3.753-3.755a23.884,23.884,0,0,1-2.592-6.234H96v-12.1h5.3a23.884,23.884,0,0,1,2.592-6.234l-3.753-3.755,8.554-8.554,3.755,3.753a23.884,23.884,0,0,1,6.234-2.592V96h12.1v5.3a23.884,23.884,0,0,1,6.234,2.592l3.755-3.753,8.554,8.554-3.753,3.755a23.884,23.884,0,0,1,2.592,6.234h5.3v12.1h-5.3a23.884,23.884,0,0,1-2.592,6.234l3.753,3.755-8.554,8.554-3.755-3.753a23.884,23.884,0,0,1-6.234,2.592v5.3Z" transform="translate(-77.855 -77.855)" fill="#f9ba48"/>
      <g id="Group_5204" data-name="Group 5204">
        <path id="Path_12339" data-name="Path 12339" d="M188.536,189.532v1.149h-1.512v3.024h1.512v4.536h15.121v-4.536h1.512v-3.024h-1.512v-1.149a12.1,12.1,0,1,0-15.121,0Zm12.1,5.686h-9.073v-1.512h9.073ZM194.585,180.1a1.512,1.512,0,1,1,1.512,1.512A1.513,1.513,0,0,1,194.585,180.1Zm1.512-9.073a9.069,9.069,0,0,1,5.184,16.514l-.647.451v2.693h-3.024v-6.327a4.536,4.536,0,1,0-3.024,0v6.327h-3.024v-2.693l-.647-.451a9.069,9.069,0,0,1,5.184-16.514Z" transform="translate(-149.221 -136.246)" fill="#fff"/>
        <path id="Path_12340" data-name="Path 12340" d="M115.851,0H84.543a12.488,12.488,0,0,0-8.98,21.168H72v3.024h8.742L82.538,17l-2.932-.732-.919,3.674-.305-.263A9.465,9.465,0,0,1,84.543,3.024h31.308Z" transform="translate(-58.391)" fill="#fff"/>
        <path id="Path_12341" data-name="Path 12341" d="M16.267,228.245l3.674.919-.263.305a9.466,9.466,0,0,1-16.654-6.162V192H0v31.308A12.491,12.491,0,0,0,12.47,235.8c.3,0,.609-.012.916-.033a12.377,12.377,0,0,0,7.781-3.478v3.561h3.024V227.11L17,225.313Z" transform="translate(0 -155.709)" fill="#fff"/>
        <path id="Path_12342" data-name="Path 12342" d="M225.312,375.2l2.932.732.919-3.674.305.263a9.466,9.466,0,0,1-6.16,16.654H192V392.2h31.308a12.488,12.488,0,0,0,8.98-21.168h3.563v-3.024H227.11Z" transform="translate(-155.709 -298.449)" fill="#fff"/>
        <path id="Path_12343" data-name="Path 12343" d="M387.935,75.141a12.488,12.488,0,0,0-16.9.422V72h-3.024v8.742l7.195,1.8.732-2.932-3.674-.919.263-.305a9.465,9.465,0,0,1,16.653,6.162v31.308H392.2V84.543A12.494,12.494,0,0,0,387.935,75.141Z" transform="translate(-298.449 -58.391)" fill="#fff"/>
      </g>
    </g>
  </g>
</svg>
