<svg xmlns="http://www.w3.org/2000/svg" width="144" height="105" viewBox="0 0 144 105">
  <g id="Group_5260" data-name="Group 5260" transform="translate(-938 -337)">
    <rect id="Rectangle_3024" data-name="Rectangle 3024" width="64" height="64" transform="translate(1018 337)" fill="#ff375f"/>
    <rect id="Rectangle_3025" data-name="Rectangle 3025" width="64" height="64" transform="translate(938 378)" fill="#4a5055"/>
    <g id="_011-bulb" data-name="011-bulb" transform="translate(972.052 344)">
      <path id="Path_12380" data-name="Path 12380" d="M78.873,93.591H64.089V88.38a13.305,13.305,0,1,1,14.785,0Z" transform="translate(-47.802 -52.19)" fill="#f9ba48"/>
      <g id="Group_5214" data-name="Group 5214" transform="translate(0 0)">
        <path id="Path_12381" data-name="Path 12381" d="M93.395,137.9a3.668,3.668,0,0,0-.253-1.316,3.689,3.689,0,0,0-1.965-6.816H86v-9.143a4.435,4.435,0,1,0-2.957,0v9.143H77.871a3.689,3.689,0,0,0-1.965,6.816,3.628,3.628,0,0,0,1.2,4.236v30.739L84.5,184.49l7.392-12.936v-30.7A3.68,3.68,0,0,0,93.395,137.9Zm-8.871-22.916a1.478,1.478,0,1,1-1.478,1.478A1.479,1.479,0,0,1,84.524,114.979Zm4.412,54.7H85.979V141.591h2.957Zm-8.871,0V141.591h2.957v28.091Zm-.716-31.048a.739.739,0,1,1,0-1.478H89.7a.739.739,0,0,1,0,1.478Zm-1.478-5.914H91.177a.739.739,0,0,1,0,1.478H77.871a.739.739,0,0,1,0-1.478Zm3.263,39.918h6.733l-3.366,5.89Z" transform="translate(-60.845 -91.32)" fill="#fff"/>
        <path id="Path_12382" data-name="Path 12382" d="M195.711,34.6a20.686,20.686,0,0,1-1.289,27.85l2.091,2.091a23.6,23.6,0,0,0,1.749-31.459l2.725-.546-.581-2.9-5.869,1.175L191.063,36.6l2.536,1.521Z" transform="translate(-156.131 -24.161)" fill="#fff"/>
        <path id="Path_12383" data-name="Path 12383" d="M9.776,36.869A20.7,20.7,0,0,1,33.364,4.427l1.094-2.745A23.637,23.637,0,0,0,7.222,38.389L4.5,38.932l.581,2.9,5.869-1.174,3.473-5.788-2.536-1.521Z" transform="translate(-2.047 0)" fill="#fff"/>
        <path id="Path_12384" data-name="Path 12384" d="M227.778,39.356a33.184,33.184,0,0,0-.31-11.981A34.242,34.242,0,0,0,194.174.174l-.43,0,.037,2.957A31.262,31.262,0,0,1,224.573,27.99a30.269,30.269,0,0,1,.2,11.392l-.087.515,8.628,15.431-9.574,2.188V75.547H208.959V88.853H177.911V91.81h34V78.5H226.7V59.87l11.124-2.541Z" transform="translate(-145.41 -0.142)" fill="#fff"/>
      </g>
    </g>
  </g>
</svg>
