<svg xmlns="http://www.w3.org/2000/svg" width="327.382" height="255" viewBox="0 0 327.382 255"><defs><style>.a{fill:#efc692;}.b{opacity:0.42;}.c{fill:#ffc84c;}.d{fill:#a6a5a5;mix-blend-mode:multiply;isolation:isolate;}.e{fill:#44b2ba;}.f{fill:#7697cc;}.g,.l,.m,.n,.o,.r,.y{fill:none;stroke-miterlimit:10;}.g,.y{stroke:#002861;}.g,.m{stroke-width:4.989px;}.h{fill:#f5a58e;}.i{fill:#ee7d6c;}.j{fill:#431a0b;}.k{fill:#5d2412;}.l{stroke:#f0876c;stroke-width:4.637px;}.m{stroke:#ee7d6c;}.n,.o{stroke:#431a0b;}.n{stroke-width:4.791px;}.o{stroke-width:3.749px;}.p{fill:#6c3622;}.q{fill:#fff1c8;}.r{stroke:#ffb89e;}.s{fill:#a3a3a3;}.t{fill:#fff;}.u{fill:#d2d1d1;}.v{fill:#1b3455;}.w{fill:#f39b82;}.x{fill:#77c7df;}.z{opacity:0.7;}.aa{fill:#69a1ac;}.ab{fill:#89c5cc;}.ac{opacity:0.5;}.ad{fill:#c1dee2;}.ae{fill:#00143a;}.af{fill:#f3f0eb;}.ag{fill:#455a64;}.ah{fill:#f2f2f2;}.ai{fill:rgba(0,0,0,0.1);}.aj{fill:#afb9c5;}.ak{fill:#c5cfd6;}</style></defs><g transform="translate(-162 -347)"><g transform="translate(254.108 379.182)"><path class="a" d="M368.918,342.331c-8.807,1.993-18.182,7.128-22.85,15.083-8.047,13.719-8.7,32.83-6.5,47.894,1.713,11.73,5.635,27.779,13.569,37.086,8.821,10.356,28.423,6.026,39.7,4.275,13.022-2.022,22.976-2.992,30.073-15.264,7.127-12.325,8.727-30.716,9.789-45.073.7-9.493.123-19.936-4.058-28.745C417.352,333.816,390.432,337.462,368.918,342.331Z" transform="translate(-338.481 -306.208)"/><g class="b" transform="translate(2.149 145.558)"><g transform="translate(23.208 14.817)"><path class="c" d="M448.662,794.059h8.888L434.515,854.94a4.779,4.779,0,0,1-3.855,1.548s-2.774.287-1.553-1.755Z" transform="translate(-428.797 -794.059)"/><path class="d" d="M457.576,794.059,434.541,854.94a4.779,4.779,0,0,1-3.855,1.548s-2.27.229-1.786-1.246a1.687,1.687,0,0,0,.72.471,3.618,3.618,0,0,0,3.4-.753l20.662-60.9Z" transform="translate(-428.822 -794.059)"/></g><g transform="translate(0)"><path class="c" d="M366,741.285h8.888l-23.036,60.881A4.779,4.779,0,0,1,348,803.714s-2.774.288-1.553-1.753Z" transform="translate(-346.136 -741.285)"/><path class="d" d="M374.917,741.285l-23.036,60.881a4.779,4.779,0,0,1-3.855,1.548s-2.27.232-1.785-1.245a1.716,1.716,0,0,0,.72.472,3.623,3.623,0,0,0,3.4-.754l20.659-60.9Z" transform="translate(-346.162 -741.285)"/></g><g transform="translate(114.471 7.562)"><path class="c" d="M762.732,768.219h-8.888l23.035,60.88a4.784,4.784,0,0,0,3.856,1.548s2.773.286,1.554-1.756Z" transform="translate(-753.844 -768.219)"/><path class="d" d="M753.844,768.219l23.035,60.88a4.784,4.784,0,0,0,3.856,1.548s2.27.229,1.786-1.247a1.731,1.731,0,0,1-.72.474,3.623,3.623,0,0,1-3.4-.756l-20.662-60.9Z" transform="translate(-753.844 -768.219)"/></g><g transform="translate(84.573)"><path class="c" d="M656.248,741.285h-8.889L670.4,802.167a4.781,4.781,0,0,0,3.855,1.548s2.774.288,1.553-1.753Z" transform="translate(-647.359 -741.285)"/><path class="d" d="M647.359,741.285,670.4,802.167a4.781,4.781,0,0,0,3.855,1.548s2.27.232,1.785-1.245a1.7,1.7,0,0,1-.718.472,3.621,3.621,0,0,1-3.4-.754l-20.661-60.9Z" transform="translate(-647.359 -741.285)"/></g></g><path class="e" d="M374.962,645.913c10.276-1.523,20.412-3.768,30.7-5.407,13.4-2.133,32.651-6.47,46.224-4.247,8.811,1.449,16.4,5.19,23.577,8.752,8.073,4,15.572,8.221,16.7,15.666,1.064,7.039-3.066,12.227-11.208,16.073-18.967,8.957-46.9,12.96-69.414,13.982-17.517.8-38.4-2.674-50.844-12.027-7.19-5.4-8.975-14.462-7.089-21.5C355.91,648.632,363.622,647.594,374.962,645.913Z" transform="translate(-348.862 -519.745)"/><path class="a" d="M374.962,645.913c10.276-1.523,20.412-3.768,30.7-5.407,13.4-2.133,32.651-6.47,46.224-4.247,8.811,1.449,16.4,5.19,23.577,8.752,8.073,4,15.572,8.221,16.7,15.666,1.064,7.039-3.066,12.227-11.208,16.073-18.967,8.957-46.9,12.96-69.414,13.982-17.517.8-38.4-2.674-50.844-12.027-7.19-5.4-8.975-14.462-7.089-21.5C355.91,648.632,363.622,647.594,374.962,645.913Z" transform="translate(-348.862 -519.745)"/><g transform="translate(13.233)"><path class="f" d="M489.7,598.625s-15.456.648-35.515.127c-7.883,12.05-12.645,22.411-11.162,34.666,0,0,3.13,9.917,18.434,10.849l30.846-4.8,27.254,1.007s26.536-29.062,9.51-34.154l-32.891,4.261Z" transform="translate(-426.714 -493.121)"/><path class="g" d="M454.555,638.082a99.279,99.279,0,0,1,8.295-9.314c1.021-1.165,2.184-2.183,3.2-3.2s2.62-1.746,3.493-2.765" transform="translate(-435.198 -510.51)"/><g transform="translate(24.812 5.654)"><path class="h" d="M520.051,354.739l-14.032.292-.32-15.315,14.032-.294S518.487,351.521,520.051,354.739Z" transform="translate(-496.795 -312.348)"/><path class="i" d="M519.334,350.891a45.12,45.12,0,0,1-9.331-1.3,18.641,18.641,0,0,1-4.133-1.718l-.17-8.159,14.032-.294A87.134,87.134,0,0,0,519.334,350.891Z" transform="translate(-496.795 -312.348)"/><path class="j" d="M562.779,281.87a26.65,26.65,0,0,1-3.334,6.759c-1.766,2.23-4.351,2.389-5.541-.395a15.525,15.525,0,0,1-.6-8.546,6.235,6.235,0,0,1,2.137-4.137,4.875,4.875,0,0,1,6.571.775A5,5,0,0,1,562.779,281.87Z" transform="translate(-530.804 -265.738)"/><g transform="translate(6.638 3.947)"><path class="h" d="M520.707,272.975a38.149,38.149,0,0,1-1.249,7.925c-.714,2.622-1.69,7.537-4.649,8.632a6,6,0,0,1-2.716.249c-4.033-.251-8.324-2.934-10.888-5.927-4.778-5.577-4.766-19.109.022-24.355,4.37-4.786,18.264-2.322,19.2,5.312A46.6,46.6,0,0,1,520.707,272.975Z" transform="translate(-497.629 -257.05)"/></g><path class="k" d="M517.7,317.14a9.827,9.827,0,0,1-1.2.5,6.524,6.524,0,0,1-3.45-.166c-1.652-.458-3.3-1.483-5.047-.892a8,8,0,0,1-3.081.539,3.815,3.815,0,0,1-3.229-2.3,23,23,0,0,0-1.086-3.17,5.464,5.464,0,0,0-2.971-2.307c.025,4.676.2,11.424,2.555,14.175,2.564,2.993,9.054,5.73,13.083,5.984a6.048,6.048,0,0,0,2.714-.248c2.959-1.1,2.759-8.124,3.473-10.746.164-.6.307-1.2.438-1.813A3.815,3.815,0,0,0,517.7,317.14Z" transform="translate(-490.999 -290.72)"/><path class="l" d="M493.59,302.417c-.142-.254-.124-.5-.265-.751a2.835,2.835,0,0,0-.9-1.044,1.327,1.327,0,0,0-.543-.365.687.687,0,0,0-.563-.042,2.513,2.513,0,0,0-.5.2.287.287,0,0,1-.168.068,1.117,1.117,0,0,1-.342.217,2.025,2.025,0,0,0-.377.7,5.846,5.846,0,0,0-.421,1.267,4.514,4.514,0,0,0-.161,1.042" transform="translate(-485.038 -284.119)"/><path class="j" d="M484.2,259.068c-.174.669-.317,3.74-.531,4.333s-1.562-.351-1.562-.351c-.95-1,.279-3.259-1.382-3.623-1.8-.4.828,10.831.788,12.059-1.379-1.464-6.223-9.017-7.242-14.249-.755-3.872.124-6.213,1.019-7.712,4.349-7.27,5.917-6.813,9.95-6.249,1.842.258,3.25,4.411,3.923,6.231.723,1.948-.6,3.435-1.937,4.685C485.558,255.757,485.022,256,484.2,259.068Z" transform="translate(-473.985 -242.992)"/><g transform="translate(4.155 15.954)"><path class="h" d="M489.805,300.33c-1.884,1.63-1.168,6.83,2.235,8.762.945-.909,1.1-3.524,1.3-4.8a4.99,4.99,0,0,0-.376-3.6A2.259,2.259,0,0,0,489.805,300.33Z" transform="translate(-488.786 -299.814)"/><g transform="translate(1.154 2.491)"><path class="m" d="M497.788,311.384a3.29,3.29,0,0,1-.068.885c-1.337,1.2-1.1-1.987-1.078-2.23" transform="translate(-495.57 -309.659)"/><path class="m" d="M494.646,309.156c-.064-.249-.381-.354-.616-.451-.476-.119-.919.334-1.037.813a2.273,2.273,0,0,0,.052,1.463,4.087,4.087,0,0,0,.569,1.018" transform="translate(-492.897 -308.686)"/></g></g><g transform="translate(15.79 16.739)"><path class="n" d="M536.142,303.567c-.06-.315-1.519-.855-1.984-.894-2.166-.173-2.854,0-3.935.676" transform="translate(-530.223 -302.611)"/><path class="o" d="M567.1,305.863c.074-.3,2.273-.341,3.632.253" transform="translate(-556.745 -304.795)"/><path class="p" d="M569.615,313.064c-.053.687.2,1.262.566,1.291s.7-.5.756-1.19-.2-1.262-.567-1.289S569.667,312.382,569.615,313.064Z" transform="translate(-558.55 -309.274)"/><path class="p" d="M542.016,312.661c-.055.688.2,1.265.567,1.292s.7-.5.754-1.19-.2-1.26-.566-1.288S542.069,311.978,542.016,312.661Z" transform="translate(-538.7 -308.985)"/></g></g><path class="h" d="M577.57,435.129c-1.879-11.452,3.877-12.048,3.877-12.048,6.476-1.658,9.488,8.193,9.488,8.193s4.67,21.8,4.607,31.565c0,0-6.867,4.263-10.109-1.826Z" transform="translate(-523.404 -366.729)"/><path class="h" d="M459.279,387.223,437.6,395.2l11.937,53.451h28.572l7.86-52.389-16.541-9.039Z" transform="translate(-423.002 -341.074)"/><path class="q" d="M466.551,387.223l14.489,7.287-5.989,53.753c-5.775,2.936-9.012,1.068-17.942,1.055-2.854-.006-11.315,1.559-12.558-1.439-.752-1.822-2.874-5.657-2.81-7.592s-2.056-5.086-2.216-7.02-.123-3.855-1.068-5.592c-1.765-3.232-1.738-8.024-2.542-11.657-.813-3.688-1.368-5.515-1.368-9.307,0-2.015-1.728-4.271-2.224-6.23-.522-2.085-.23-4.594,1.827-5.534,1.827-.836,3.907-1.359,5.8-2.057l12.456-4.739S463.782,391.776,466.551,387.223Z" transform="translate(-419.045 -341.074)"/><path class="q" d="M573.048,440.714l-3.531-19.237s-5.136-11.186,3.807-17.089c0,0,9.647,1.517,11.435,10.605l4.833,19.205S589.108,438.981,573.048,440.714Z" transform="translate(-516.827 -353.419)"/><path class="q" d="M440.978,518.385c2.517-4.225,3.28-9.529,6.484-13.344,3.059-3.64,8.593-7.342,13.572-7.085,3.072.159,7.444,4.49,10.6,3.818,3.791-.8,10.382,2.9,13.534.746,2.528-1.731-5.045-15.718-4.276-18.812a15.543,15.543,0,0,0-.575-9.471c-1.374-3.834-3.084-3.081-3.972-7.059-.769-3.439-1.548-6.787-4.231-9.279-7.822-7.268-21.239-6.022-30.321-2.339a6.8,6.8,0,0,0-2.7,1.586c-.749.893-3.29-.344-3.334,2.151-.077,4.331-.853,3.85-.846,8.183a70.624,70.624,0,0,1-1.247,11.4c-.9,4.469-.514,10.058-1.719,14.473-2.131,7.81-2.867,23.409-1.547,31.7A10.691,10.691,0,0,0,440.978,518.385Z" transform="translate(-417.351 -388.104)"/><path class="h" d="M451.763,481.392c-14.091-2.009-48.632,1.614-50.014-14.569-1.13-13.238,3.332-34.105,9.406-38.853,4.509-3.526,10.568-1.567,12.99,3.722,2.7,5.892-5.562,26.216-6.9,34.672,0,0,12.114,8.273,37.7,10.92Z" transform="translate(-397.093 -369.1)"/><path class="q" d="M385.613,452.881l10.46-33.238c2.125-5.614,5.734-6.557,6.47-6.557,11.174,0,12.159,13.795,12.159,13.795l-5.41,24.374S397.123,458.226,385.613,452.881Z" transform="translate(-385.613 -359.676)"/><path class="h" d="M571.975,609.271c.58-.768,3.776-1.259,5.281-1.357a34.89,34.89,0,0,1,11.471.974,30.585,30.585,0,0,1,5.379,1.759c.739.407,2.184.742,1.94,1.657-.577.314-3.9-.35-6.092-.864,3.195.934,3.941,1.809,4.005,2.232-.78.86-4.523-.831-7.157-1.4-.851-.186,5,2.019,2.14,2.257-.62.051-4.646-1.109-6.552-1.539.205.2,2.734,1.514,2.673,1.74-.056.59-2.581-.034-3.844-.373C579.521,613.894,569.686,612.3,571.975,609.271Z" transform="translate(-519.404 -499.73)"/><path class="h" d="M715.049,582.789c.7-.66,3.933-.612,5.432-.458a34.934,34.934,0,0,1,11.15,2.867,30.833,30.833,0,0,1,5.012,2.63c.66.525,2.027,1.094,1.636,1.958-.622.211-3.793-1-5.866-1.867,3,1.451,3.587,2.439,3.579,2.868-.911.717-4.32-1.573-6.824-2.575-.806-.323,4.594,2.824,1.736,2.584-.619-.054-4.4-1.868-6.205-2.609.17.228,2.443,1.947,2.344,2.162-.149.57-2.538-.464-3.722-1.01C721.72,588.6,712.285,585.4,715.049,582.789Z" transform="translate(-622.192 -481.332)"/><path class="h" d="M617.568,540.091l28.112,13.831-2.818,2.485s-30.141-4.416-34.428-9.4C608.434,547.006,611.409,538.665,617.568,540.091Z" transform="translate(-545.873 -450.904)"/><path class="r" d="M522.067,394.949l-.119-.117a1.709,1.709,0,0,1-.7.581,11.067,11.067,0,0,1-2.437,1.045,12.622,12.622,0,0,1-2.205.348,3.623,3.623,0,0,1-1.163.115,4.3,4.3,0,0,1-1.276.117c-.351,0-.7-.117-1.045-.117s-.7.117-1.044.117-.7-.117-1.045-.117a5.083,5.083,0,0,1-1.16-.231,11.115,11.115,0,0,0-2.09-.58c-.465,0-.694-.232-1.045-.581" transform="translate(-472.733 -346.547)"/><path class="r" d="M458.793,413.023c.231.233.465.58.7.813a7.106,7.106,0,0,1,.929.929,11.419,11.419,0,0,1,2.437,3.249c.229.583.58,1.162.813,1.743a13.583,13.583,0,0,1,.465,2.089,10.026,10.026,0,0,1,.115,1.856c0,.349.115.581.115.813s-.115.349-.115.58v.581c-.233,1.394-.233,2.668-.58,4.062a35.444,35.444,0,0,1-.813,3.716c-.118.58-.232,1.044-.348,1.623s-.233,1.277-.35,1.974c-.348,1.509-.694,2.9-.927,4.412s-.234,3.016-.584,4.41" transform="translate(-438.247 -359.63)"/><path class="r" d="M570.832,396.074c.465.814,1.274,1.278,1.739,2.091.348.578.58,1.16.928,1.742.232.579.582,1.159.815,1.739.115.58.115,1.16.23,1.742s.117,1.16.232,1.742.117,1.043.233,1.624a8.944,8.944,0,0,1-.115,1.741v1.625a8.862,8.862,0,0,0,.115,1.74c.114,1.277,0,2.554,0,3.716v3.365a1.492,1.492,0,0,0,.114.7v1.045c.236,1.161.236,2.2.465,3.25" transform="translate(-518.829 -347.44)"/><path class="r" d="M580.332,510.18c.117.232.117.579.232.81.117.465.232.814.35,1.277.232.466.348,1.046.58,1.626s.462,1.278.7,1.858a4.274,4.274,0,0,1,.809,1.625,5.1,5.1,0,0,1,.232,1.858,9.7,9.7,0,0,1,0,1.854c-.115.349-.232,1.626-.694,1.626" transform="translate(-525.661 -429.509)"/><g transform="translate(48.947 84.629)"><rect class="s" width="49.538" height="2.37" transform="translate(0 30.174)"/><g transform="translate(16.1)"><path class="t" d="M669.241,556.821h-46.1l4.044-32.544h46.1Z" transform="translate(-621.495 -524.277)"/><path class="u" d="M617.289,556.821h1.642l4.044-32.544h-1.642Z" transform="translate(-617.289 -524.277)"/></g><path class="u" d="M706.685,570A3.688,3.688,0,1,1,703,566.309,3.688,3.688,0,0,1,706.685,570Z" transform="translate(-660.18 -554.508)"/></g><g transform="translate(16.314 108.664)"><path class="v" d="M553.984,761.188" transform="translate(-523.025 -718.706)"/><path class="w" d="M603.387,726.465,592.84,730.76l2.714,8.2,10.742-3.626Z" transform="translate(-550.972 -693.732)"/><g transform="translate(66.576 27.09)"><path class="w" d="M681.01,724.57l11.346,1-.181,8.634-11.335-.3Z" transform="translate(-680.84 -719.459)"/><path class="x" d="M705.371,721.138c4.895,1.347,18.861.216,23.942-1.711,6.155-2.336,5.73-14.654-2.02-12.889-7.022,1.6-14.4,4.469-21.56,5.05C705.733,711.588,701.469,714.895,705.371,721.138Z" transform="translate(-697.3 -706.366)"/></g><path class="f" d="M518.366,651.742c1.75-3.606.761-11.13.761-11.13l-6.115-3.215c-7.551-5.872-16.511-9.688-23.9-15.753-5.724-4.7-11.324-12.537-19.644-11.7-5.627.563-9.5,4.79-12.73,9.036-5.379,7.072-13.017,12.842-13.017,22.536,0,8.189,10.864,14.335,16.721,13.411,4.334-.685,10.836-6.142,13.244-9.431l6.462-7.972s2.568,8.369,27.52,13.621C507.666,651.141,515.081,652.728,518.366,651.742Z" transform="translate(-443.719 -609.88)"/><path class="y" d="M552.074,611.691c2.62.746,5.948,4.167,9.671,6.405a104.093,104.093,0,0,1,12.322,9.838c6.112,5.711,12.04,8.922,19.025,13.641" transform="translate(-521.651 -611.182)"/><path class="y" d="M608.074,649.145c4.148-1.746,17.375-9.857,20.43-12.915,3.93-3.709,6.976-5.982,10.685-9.693,3.933-3.93,8.077-6.142,13.1-8.76" transform="translate(-561.929 -615.56)"/><path class="y" d="M554.852,722.941c1.09-1.747,3.709-4.148,5.677-3.493,2.837.655,4.8,3.71,7.857,3.93" transform="translate(-523.65 -688.605)"/><path class="f" d="M665.112,610.739c11.389,1.482,8.443,12.054,4.452,15.716-10.752,9.86-26.257,17.282-39.782,22.507-.458.177-13.279,4.961-15.424,5.815,2.664-6.435-3.283-10.917-3.283-10.918s15.14-7.329,25.3-18.005C636.372,625.854,651.547,607.867,665.112,610.739Z" transform="translate(-564.086 -610.274)"/><path class="x" d="M537.014,744.519c-4.281,2.728-17.959,5.758-23.386,5.41-6.572-.423-9.785-12.32-1.862-12.913,7.181-.537,15.077.031,22.094-1.52C533.86,735.5,538.908,737.4,537.014,744.519Z" transform="translate(-489.304 -700.227)"/></g><path class="j" d="M507.1,232.381c-.025,2.279,4.791,7.517,7.2,7.285a18.149,18.149,0,0,1-.659-3.391,48.853,48.853,0,0,0,7.228,4.715c.985.446,3.612,1.349,4.461.629.554-.468.189-1.432.521-1.964.621-.995.566-.4,1.532-.958,5.295-3.087.018-11.493-4.021-13.823-4.07-2.35-10.28-2.57-14.687-1.057a8.292,8.292,0,0,0-4.771,3.443c-.78,1.439-1.607,6.4.711,6.846Z" transform="translate(-470.108 -222.855)"/></g></g><g class="z" transform="translate(411.685 461.525)"><path class="aa" d="M8.186.012c4.125.219,8.948,3.145,8.917,7.647-.022,3.271-.46,6.489-.308,9.773A26.3,26.3,0,0,0,18.377,25.1c.854,2.378,2.915,4.542,3.25,7.022a10.419,10.419,0,0,1-.9,5.177c-.822,1.766-.472,1.656.62,3.325a41.95,41.95,0,0,1,5.216,10.355c1.709,5.419,2.55,11.632,1.118,17.217-.182.709-.58,3.281-1.592,3.357-1.13.085-.456-1.339-.347-1.81a31.37,31.37,0,0,0,1.183-8.779c-.5-12.126-8.248-20.895-12.766-31.617-.252-.555-.769-1.868-1.133-2.736-.575-1.371-1.031-3.913-1.893-4.975-1.623-2-.339,1.814-.058,2.546.354.926.748,1.912,1.124,2.73,1.719,3.791,3.648,7.934,5.424,11.842C8.043,39.9,2.635,27.97.9,20.317-.529,14.012-1.508-.48,8.186.012" transform="matrix(0.995, -0.105, 0.105, 0.995, 0, 35.679)"/><path class="ab" d="M30.763.037c-6.9.547-11.324,5.093-13.385,11.453-1.111,3.427-1.238,6.948-1.855,10.47A22.361,22.361,0,0,1,8.692,35.049,13.174,13.174,0,0,0,5.958,38.7,15.563,15.563,0,0,0,2.8,43.21a8.318,8.318,0,0,0-.132,7.243,7.426,7.426,0,0,0,1.939,2.38A46.609,46.609,0,0,0,.015,73.783c.116,4.338.328,8.677.575,13.01.067,1.163.446,3.084,1.015,1.133.521-1.784-.132-4.586-.193-6.45-.294-9.082-.546-17.339,3.2-25.824q.589-1.334,1.242-2.647a.88.88,0,0,0,.073-.05l.048.039c.028-.049.066-.108.11-.174a2.341,2.341,0,0,0,.336-.471,3.412,3.412,0,0,0,.71-1.295s0-.006,0-.008A122.264,122.264,0,0,1,14.8,40.2c-.02.025,2.939-4,2.482-1.774-.221,1.073-2.4,3.117-3.277,4.253a105.96,105.96,0,0,0-6.127,8.831A4.458,4.458,0,0,0,7,52.912c-.144.272-.279.546-.411.784,6.725,2.22,11.957-2.252,15.525-7.453l.012-.019a22.609,22.609,0,0,1,3.587-4c2.318-1.9,4.8-2.23,7.533-3.163C40.7,36.517,43.872,26.866,44.878,19.706,46.014,11.627,40.46-.76,30.763.037" transform="translate(32.673 23.433)"/><path class="ab" d="M29.629.689C21.6,6.992,16.788,16.626,12.771,25.753a123.517,123.517,0,0,0-9.607,31.72C2.1,64.717.873,71.986.279,79.288A77.761,77.761,0,0,0,.012,87.1c0,.214.119,6.024,1.178,4.822.6-.683-.107-6.025-.1-6.9a111.638,111.638,0,0,1,1.323-14.64C3.591,62.391,4.473,54.4,6.4,46.547A27.206,27.206,0,0,1,7.41,43.014c.474-1.2.016-.709,1.063-1.061,1.017-.343,2.182-.11,3.253-.568,4.245-1.82,7.1-7.627,9.22-11.4a77.225,77.225,0,0,0,5.731-13.721,101.376,101.376,0,0,0,2.838-10.43A27.9,27.9,0,0,1,30.3,2.46a7.792,7.792,0,0,0,.5-1.044c.056-.564-.237-.941-.2-1.416q-.5.334-.977.689" transform="translate(20.377 4.288) rotate(-8)"/><path class="ab" d="M0,0A22.049,22.049,0,0,0,22.059,22.04,22.049,22.049,0,0,0,44.118,0" transform="translate(11.218 98.911)"/><path class="aa" d="M23.112,27.474a3.388,3.388,0,0,1-2.312-.812,4.634,4.634,0,0,1-1.245-2A17.216,17.216,0,0,1,18.9,19.7c-.093-3.456-.448-7.059-3.615-9.8-.373-.322-.771-.629-1.155-.925-.343-.265-.7-.538-1.033-.821l-.161-.135c-1.079-.906-2.195-1.843-2.332-3.324A2.305,2.305,0,0,1,11,2.895a1.709,1.709,0,0,1,1.336-.474,5.5,5.5,0,0,1,1.135.139c.06.013.22.074.442.158a8.68,8.68,0,0,0,2.258.641c.174,0,.288-.039.339-.116a.337.337,0,0,0-.015-.316c-.13-.313-.578-.589-1.331-.821-1.515-.165-2.945-.312-3.8-.312a2.822,2.822,0,0,0-.551.039c-2.822.619-5.133,2.74-6.869,6.3a30.849,30.849,0,0,0-2.6,9.445c-.064.547-.122,1.139-.178,1.811H0a39.264,39.264,0,0,1,.432-4.364A28,28,0,0,1,3.514,6.023,13.367,13.367,0,0,1,6.525,2.362,8.375,8.375,0,0,1,10.7.489a6.191,6.191,0,0,1,.674-.025c.438,0,.967.017,1.487.047A3.882,3.882,0,0,1,14.513.026c.231-.017.467-.026.7-.026a11.978,11.978,0,0,1,3.977.728,17.133,17.133,0,0,1,3.8,1.93A19.816,19.816,0,0,1,26.273,5.41,16.635,16.635,0,0,1,28.7,8.6a12.316,12.316,0,0,1,1.515,6.145,19.88,19.88,0,0,1-1.061,6.318,14.461,14.461,0,0,1-2.126,4.175,4.991,4.991,0,0,1-3.864,2.232Z" transform="translate(33.882 79.588)"/></g><g class="ac" transform="translate(162 425.791)"><path class="aa" d="M19.709,7.078c1.27-1.809,3.626-6.4,5.414-7.05,1.151-.416.816,3.891.83,4.712a68.781,68.781,0,0,1-.637,9.485A37.041,37.041,0,0,1,19.286,29.8a19.673,19.673,0,0,1-6.036,6.56c-1.189.715-2.619.835-3.793,1.451-1.367.717-.623.137-1.239,1.561a32.424,32.424,0,0,0-1.525,6.634c-1.818,9.68-6.218,60.851-5.456,70.7.068.873-1.15,1.081-1.211.016C-.3,111.074,2.5,71.953,3.91,59.159s2.839-24.1,4.27-28.523A119.776,119.776,0,0,1,15.665,13.8,59.537,59.537,0,0,1,19.709,7.078Z" transform="translate(34.146 26.568)"/><path class="ad" d="M30.343.688c3.3-2.424,6.881,2.151,3.891,4.575a3,3,0,0,1-4.354-.253c-.632.769-1.223,1.573-1.791,2.253-1.73,2.07-3.366,4.189-4.929,6.358-3.247,4.506-6.03,9.265-8.939,13.938C11.349,32.17,8.5,36.806,5.9,41.534,3.693,45.541.755,50.254,0,54.646c1.145-9.315,5.491-18.269,10.666-26.481C15.8,20.021,21.69,11.126,29.638,4.7A2.811,2.811,0,0,1,30.343.688Z" transform="translate(32.937 95.706)"/><path class="aa" d="M.578.009C2.427.371,5.449,4.55,6.973,6.142a59.654,59.654,0,0,1,5,6.022A101.842,101.842,0,0,1,20.83,26.592a134.035,134.035,0,0,1,9.851,25.614,105.576,105.576,0,0,1,2.989,16.8c.107,1.064,1.223,9.265-.386,9.486-1.447.2-1-6.227-1.07-7.1a113.448,113.448,0,0,0-6.439-28.753,32.756,32.756,0,0,0-2.526-6.327c-.825-1.313-.006-.855-1.455-1.352-1.244-.427-2.662-.322-3.936-.845a19.579,19.579,0,0,1-6.928-5.551A37.3,37.3,0,0,1,2.6,14.087,69.645,69.645,0,0,1,.5,4.8C.387,3.986-.613-.223.578.009Z" transform="translate(0 73.667)"/><path class="ab" d="M4.249,4.141A167.34,167.34,0,0,1,20.634,42.895c2.239,8.136,3.805,16.484,5.361,24.772C28.4,80.5,30.683,93.332,31.331,106.393c.652,13.137,1.942,28.288-2.364,40.941,2.151-12.846.1-26.519-.259-39.445-.173-6.17-.675-12.281-1.334-18.415C26.735,83.523,25.691,77.6,24.718,71.7q-.71-4.313-1.477-8.616c-.151-.856-.215-3.4-.759-3.981s-3.338-.829-4.214-1.261a22.627,22.627,0,0,1-4.893-3.411,39.059,39.059,0,0,1-7.2-9C1.7,37.97-.087,28.866,0,20.226.021,18.549,2.721.486,1.636.237q.1-.115.185-.237Q3.053,2.06,4.249,4.141Z" transform="translate(3.626)"/><path class="ab" d="M49.813,1.174c.107-.155.807-1.232.455-1.163.717-.14-.986,1.188.8.373-.848.8-.359,1.841-.347,2.918a26.11,26.11,0,0,1-.6,5.2,35.609,35.609,0,0,1-2.424,7.854A35.2,35.2,0,0,1,36.116,30.545c-2.444,1.693-4.839,2.269-7.627,3.049-1.761.492-1.9,1.4-2.835,3.109-1.946,3.555-3.857,7.1-5.573,10.773-2.049,4.389-4.038,8.782-5.914,13.248C7.847,75.767,2.7,91.352,0,107.481c-.066-9.5,2.135-19.294,4.91-28.353a169.131,169.131,0,0,1,7.462-19.262,24.359,24.359,0,0,0,2-5.173c.2-1.18-.416-2.315-.7-3.559A37.208,37.208,0,0,1,13.62,36c1.069-5.368,4.16-7.859,9.39-8.619,1.913-.278,4.343-.176,6.1-.991,1.911-.887,2.7-3.8,3.785-5.676A77.192,77.192,0,0,1,43.258,6.625,33.616,33.616,0,0,1,46.8,3.366C47.6,2.733,49.272,1.953,49.813,1.174Z" transform="translate(33.24 46.495)"/><path class="ad" d="M.807,1.73A1.51,1.51,0,0,1,2.3,0H20.861a1.51,1.51,0,0,1,1.495,1.73l-1.434,9.718a6.042,6.042,0,0,1-5.979,5.157H8.22a6.042,6.042,0,0,1-5.979-5.157Z" transform="translate(22.112 143.711)"/></g><g transform="translate(315.11 405.612)"><path class="ae" d="M627.025,370.446c0,.026.037,0,.555,0,.064,0-.083.022,0,0s.518.1.555,0a.912.912,0,0,0,0-.555c-.1-.334-.438-.737-.555-1.11-.242-.752-.381-1.178-.555-1.665a5.335,5.335,0,0,0-.555-1.11,6.735,6.735,0,0,1,.555,1.11c.141.5.313.912.555,1.665.123.369-.11.775,0,1.11.057.161.592.453.555.555s-.425-.005-.555,0A4.8,4.8,0,0,1,627.025,370.446Z" transform="translate(-626.469 -366.007)"/></g><path class="af" d="M627.206,371.056a9.725,9.725,0,0,0,2.775,1.11,1.363,1.363,0,0,1-1.665.555A1.925,1.925,0,0,1,627.206,371.056Z" transform="translate(-313.76 43.989)"/><g transform="translate(376.607 367.685)"><g transform="translate(0 0)"><path class="ag" d="M1.254,58.4a1.254,1.254,0,0,1,0-2.508H5.886a1.254,1.254,0,0,1,0,2.508Zm6.421-4.657V44.066H9.621a4.84,4.84,0,0,1,4.464,2.972.713.713,0,0,1,1.086.608v2.513a.714.714,0,0,1-1.086.609,4.839,4.839,0,0,1-4.464,2.971Zm5-18.62V8.948a2.5,2.5,0,1,1,5,0V35.119a2.5,2.5,0,0,1-5,0Zm-5-6.449V2.5a2.5,2.5,0,0,1,5,0V28.67a2.5,2.5,0,1,1-5,0ZM1.254,5.016a1.254,1.254,0,0,1,0-2.508H5.886a1.254,1.254,0,0,1,0,2.508Z" transform="translate(5.016 22.872) rotate(-90)"/><path class="ad" d="M42.1,15.2V13.633c.727-.543,2.63-1.688,4.5-.535,2.238,1.377,3.489-.041,5.156-.218.01.122.014.246.014.371V15.2ZM.714,13.413a.714.714,0,0,1,0-1.428H29.2v1.428Zm6.448-5a.714.714,0,0,1,0-1.428H35.647V8.415ZM48.189,7.7H45.676a.7.7,0,0,0-.149.016c-.654-.4-1.44-.929-1.468-1.15-.046-.382.752-.527.807-.536l-.012,0C44.5,5.912,42.731,5.3,42.645,4.6a.52.52,0,0,1,.119-.405,2.205,2.205,0,0,1,1.267-.48s0,0-.009-.006c-.331-.27-1.977-1.667-1.843-2.628a.91.91,0,0,1,.643-.694A.7.7,0,0,1,43.084.33c1.259,0,2.412,3.655,2.986,5.834-.189-2.34-.275-5.282.389-6A.46.46,0,0,1,46.8,0a.567.567,0,0,1,.068,0c1.545.218,1.213,2.987.921,5.431l-.019.157c.508-1.76,1.286-3.857,2.1-3.857a.5.5,0,0,1,.2.043.745.745,0,0,1,.5.566c.131.88-1.429,2.229-1.48,2.273h.008A1.648,1.648,0,0,1,50.081,5a.456.456,0,0,1,.1.36C50.106,6,48.5,6.567,48.421,6.594h.006c.156.032.662.16.625.451-.014.115-.253.341-.709.671h0A.678.678,0,0,0,48.189,7.7Z" transform="translate(6.986)"/><rect class="aa" width="71.115" height="2.499" rx="1.249" transform="translate(0 15.197)"/></g></g><g transform="translate(184.515 347)"><ellipse class="ah" cx="28.853" cy="28.853" rx="28.853" ry="28.853" transform="translate(0 0)"/><ellipse class="ai" cx="1.665" cy="1.665" rx="1.665" ry="1.665" transform="translate(27.188 3.884)"/><ellipse class="ai" cx="1.665" cy="1.665" rx="1.665" ry="1.665" transform="translate(3.884 27.188)"/><ellipse class="ai" cx="1.387" cy="1.665" rx="1.387" ry="1.665" transform="translate(49.938 27.188)"/><ellipse class="ai" cx="1.665" cy="1.387" rx="1.665" ry="1.387" transform="translate(27.188 49.938)"/><path class="aj" d="M1.093,0,2.185,19.132H0Z" transform="translate(27.672 8.993)"/><path class="aj" d="M1.1,0l1.09,13.116H0Z" transform="translate(39.209 37.57) rotate(135)"/><ellipse class="ak" cx="1.942" cy="1.942" rx="1.942" ry="1.942" transform="translate(26.634 26.634)"/></g></g></svg>