<svg width="20" height="20" viewBox="0 0 20 20" fill="none" xmlns="http://www.w3.org/2000/svg">
<path d="M5 0H1C0.447715 0 0 0.447715 0 1V19C0 19.5523 0.447715 20 1 20H5C5.55228 20 6 19.5523 6 19V1C6 0.447715 5.55228 0 5 0Z" fill="url(#paint0_linear)"/>
<path d="M12 0H8C7.44772 0 7 0.447715 7 1V11C7 11.5523 7.44772 12 8 12H12C12.5523 12 13 11.5523 13 11V1C13 0.447715 12.5523 0 12 0Z" fill="url(#paint1_linear)"/>
<path d="M19 0H15C14.4477 0 14 0.447715 14 1V15C14 15.5523 14.4477 16 15 16H19C19.5523 16 20 15.5523 20 15V1C20 0.447715 19.5523 0 19 0Z" fill="url(#paint2_linear)"/>
<defs>
<linearGradient id="paint0_linear" x1="0" y1="10" x2="6" y2="10" gradientUnits="userSpaceOnUse">
<stop stop-color="#FBC2EB"/>
<stop offset="1" stop-color="#A6C1EE"/>
</linearGradient>
<linearGradient id="paint1_linear" x1="7" y1="6" x2="13" y2="6" gradientUnits="userSpaceOnUse">
<stop stop-color="#FBC2EB"/>
<stop offset="1" stop-color="#A6C1EE"/>
</linearGradient>
<linearGradient id="paint2_linear" x1="14" y1="8" x2="20" y2="8" gradientUnits="userSpaceOnUse">
<stop stop-color="#FBC2EB"/>
<stop offset="1" stop-color="#A6C1EE"/>
</linearGradient>
</defs>
</svg>
