<svg width="20" height="20" viewBox="0 0 20 20" fill="none" xmlns="http://www.w3.org/2000/svg">
<path d="M5 0H1C0.447715 0 0 0.447715 0 1V19C0 19.5523 0.447715 20 1 20H5C5.55228 20 6 19.5523 6 19V1C6 0.447715 5.55228 0 5 0Z" fill="#C5C4C4" fill-opacity="0.79"/>
<path d="M12 0H8C7.44772 0 7 0.447715 7 1V11C7 11.5523 7.44772 12 8 12H12C12.5523 12 13 11.5523 13 11V1C13 0.447715 12.5523 0 12 0Z" fill="#C5C4C4" fill-opacity="0.79"/>
<path d="M19 0H15C14.4477 0 14 0.447715 14 1V15C14 15.5523 14.4477 16 15 16H19C19.5523 16 20 15.5523 20 15V1C20 0.447715 19.5523 0 19 0Z" fill="#C5C4C4" fill-opacity="0.79"/>
</svg>
