<svg width="21" height="20" viewBox="0 0 21 20" fill="none" xmlns="http://www.w3.org/2000/svg">
<path d="M0.200514 4.25544L2.11116 6.11264L1.6569 8.73806C1.61681 8.99191 1.717 9.24578 1.92409 9.39273C2.13118 9.54641 2.4051 9.55974 2.62553 9.44619L4.98375 8.20363L7.34194 9.44619C7.5691 9.56643 7.84298 9.54641 8.05007 9.39274C8.25052 9.24578 8.35739 8.99192 8.3173 8.73806L7.86304 6.11264L9.77364 4.25544C9.95403 4.0751 10.0208 3.81455 9.94065 3.56738C9.86049 3.32689 9.6534 3.15319 9.39953 3.11312L6.76743 2.73232L5.58498 0.340699C5.35786 -0.113566 4.61634 -0.113566 4.38918 0.340699L3.20673 2.73232L0.57462 3.11311C0.320795 3.15319 0.113701 3.32689 0.0335017 3.56738C-0.046664 3.81455 0.0201674 4.0751 0.200514 4.25544Z" fill="#A4A4A5"/>
<path d="M3.42984 17.6275C3.42984 17.6275 3.42984 10.7742 3.42984 10.7742C3.42638 9.90265 2.09758 9.89895 2.09375 10.7742V17.6275C2.09709 18.4991 3.42618 18.5028 3.42984 17.6275Z" fill="#A4A4A5"/>
<path d="M5.5293 18.5393C5.5293 18.9086 5.82842 19.2074 6.19734 19.2074C6.56627 19.2074 6.86539 18.9086 6.86539 18.5393V15.9356C6.86539 15.5664 6.56627 15.2676 6.19734 15.2676C5.82842 15.2676 5.5293 15.5664 5.5293 15.9356V18.5393Z" fill="#A4A4A5"/>
<path d="M6.86539 13.3324C6.86539 13.3325 6.86539 11.6865 6.86539 11.6865C6.86176 10.8132 5.53296 10.8124 5.5293 11.6865C5.5293 11.6865 5.5293 13.3325 5.5293 13.3325C5.53296 14.2056 6.86176 14.2064 6.86539 13.3324Z" fill="#A4A4A5"/>
<path d="M20.009 7.31654C19.9288 7.07605 19.7218 6.89567 19.4679 6.86227L16.8358 6.47479L15.6533 4.08986C15.4329 3.6289 14.6847 3.6289 14.4575 4.08986L13.2751 6.47479L10.643 6.86227C10.3891 6.89567 10.182 7.07605 10.1019 7.31654C10.0217 7.55702 10.0885 7.82426 10.2689 7.99796L12.1795 9.8618L11.7252 12.4872C11.6851 12.7344 11.792 12.9883 11.9924 13.1352C12.1995 13.2889 12.4735 13.3089 12.7006 13.1887L15.0588 11.9461L17.417 13.1887C17.6374 13.3089 17.9113 13.2889 18.1184 13.1352C18.3255 12.9883 18.4257 12.7344 18.3857 12.4872L17.9314 9.8618L19.842 7.99796C20.0224 7.82426 20.0892 7.55703 20.009 7.31654Z" fill="#A4A4A5"/>
<path d="M14.381 19.3451V16.3036C14.3775 15.4308 13.0486 15.4292 13.0449 16.3037C13.0449 16.3036 13.0449 19.3451 13.0449 19.3451C13.0485 20.2178 14.3774 20.2194 14.381 19.3451Z" fill="#A4A4A5"/>
<path d="M16.9045 19.0219V14.5204C16.901 13.648 15.572 13.6456 15.5684 14.5204C15.5684 14.5204 15.5684 19.0219 15.5684 19.0219C15.5718 19.8942 16.9008 19.8966 16.9045 19.0219Z" fill="#A4A4A5"/>
</svg>
