<svg width="21" height="20" viewBox="0 0 21 20" fill="none" xmlns="http://www.w3.org/2000/svg">
<path d="M0.200514 4.25544L2.11116 6.11264L1.6569 8.73806C1.61681 8.99191 1.717 9.24578 1.92409 9.39273C2.13118 9.54641 2.4051 9.55974 2.62553 9.44619L4.98375 8.20363L7.34194 9.44619C7.5691 9.56643 7.84298 9.54641 8.05007 9.39274C8.25052 9.24579 8.35739 8.99192 8.3173 8.73806L7.86304 6.11264L9.77364 4.25544C9.95403 4.0751 10.0208 3.81455 9.94065 3.56738C9.86049 3.32689 9.6534 3.15319 9.39953 3.11312L6.76743 2.73232L5.58498 0.340699C5.35786 -0.113566 4.61634 -0.113566 4.38918 0.340699L3.20673 2.73232L0.57462 3.11311C0.320795 3.15319 0.113701 3.32689 0.0335017 3.56738C-0.046664 3.81455 0.0201674 4.0751 0.200514 4.25544Z" fill="url(#paint0_linear)"/>
<path d="M3.42594 17.6255C3.42594 17.6256 3.42594 10.7722 3.42594 10.7722C3.42247 9.9007 2.09368 9.89699 2.08984 10.7722V17.6256C2.09318 18.4971 3.42227 18.5009 3.42594 17.6255Z" fill="url(#paint1_linear)"/>
<path d="M5.53125 18.5393C5.53125 18.9086 5.83037 19.2074 6.1993 19.2074C6.56823 19.2074 6.86734 18.9086 6.86734 18.5393V15.9356C6.86734 15.5664 6.56823 15.2676 6.1993 15.2676C5.83037 15.2676 5.53125 15.5664 5.53125 15.9356V18.5393Z" fill="url(#paint2_linear)"/>
<path d="M6.86734 13.3324C6.86734 13.3325 6.86734 11.6865 6.86734 11.6865C6.86372 10.8132 5.53492 10.8124 5.53125 11.6865C5.53125 11.6865 5.53125 13.3325 5.53125 13.3325C5.53492 14.2056 6.86371 14.2064 6.86734 13.3324Z" fill="url(#paint3_linear)"/>
<path d="M20.0071 7.31654C19.9269 7.07605 19.7198 6.89567 19.4659 6.86227L16.8338 6.47479L15.6514 4.08986C15.4309 3.6289 14.6827 3.6289 14.4556 4.08986L13.2731 6.47479L10.641 6.86227C10.3872 6.89567 10.1801 7.07605 10.0999 7.31654C10.0197 7.55702 10.0866 7.82426 10.2669 7.99796L12.1776 9.8618L11.7233 12.4872C11.6832 12.7344 11.7901 12.9883 11.9905 13.1352C12.1976 13.2889 12.4715 13.3089 12.6986 13.1887L15.0569 11.9461L17.415 13.1887C17.6355 13.3089 17.9094 13.2889 18.1165 13.1352C18.3236 12.9883 18.4238 12.7344 18.3837 12.4872L17.9294 9.8618L19.84 7.99796C20.0204 7.82426 20.0872 7.55703 20.0071 7.31654Z" fill="url(#paint4_linear)"/>
<path d="M14.383 19.3451V16.3036C14.3794 15.4308 13.0505 15.4292 13.0469 16.3037C13.0469 16.3036 13.0469 19.3451 13.0469 19.3451C13.0505 20.2178 14.3793 20.2194 14.383 19.3451Z" fill="url(#paint5_linear)"/>
<path d="M16.9064 19.0238V14.5223C16.9029 13.65 15.574 13.6476 15.5703 14.5224C15.5703 14.5223 15.5703 19.0238 15.5703 19.0238C15.5738 19.8962 16.9027 19.8985 16.9064 19.0238Z" fill="url(#paint6_linear)"/>
<defs>
<linearGradient id="paint0_linear" x1="0" y1="4.76201" x2="9.97416" y2="4.76201" gradientUnits="userSpaceOnUse">
<stop stop-color="#FBC2EB"/>
<stop offset="1" stop-color="#A6C1EE"/>
</linearGradient>
<linearGradient id="paint1_linear" x1="2.08984" y1="14.1989" x2="3.42594" y2="14.1989" gradientUnits="userSpaceOnUse">
<stop stop-color="#FBC2EB"/>
<stop offset="1" stop-color="#A6C1EE"/>
</linearGradient>
<linearGradient id="paint2_linear" x1="5.53125" y1="17.2375" x2="6.86734" y2="17.2375" gradientUnits="userSpaceOnUse">
<stop stop-color="#FBC2EB"/>
<stop offset="1" stop-color="#A6C1EE"/>
</linearGradient>
<linearGradient id="paint3_linear" x1="5.53125" y1="12.5094" x2="6.86734" y2="12.5094" gradientUnits="userSpaceOnUse">
<stop stop-color="#FBC2EB"/>
<stop offset="1" stop-color="#A6C1EE"/>
</linearGradient>
<linearGradient id="paint4_linear" x1="10.0664" y1="8.50533" x2="20.0406" y2="8.50533" gradientUnits="userSpaceOnUse">
<stop stop-color="#FBC2EB"/>
<stop offset="1" stop-color="#A6C1EE"/>
</linearGradient>
<linearGradient id="paint5_linear" x1="13.0469" y1="17.8243" x2="14.383" y2="17.8243" gradientUnits="userSpaceOnUse">
<stop stop-color="#FBC2EB"/>
<stop offset="1" stop-color="#A6C1EE"/>
</linearGradient>
<linearGradient id="paint6_linear" x1="15.5703" y1="16.7731" x2="16.9064" y2="16.7731" gradientUnits="userSpaceOnUse">
<stop stop-color="#FBC2EB"/>
<stop offset="1" stop-color="#A6C1EE"/>
</linearGradient>
</defs>
</svg>
