<svg width="20" height="20" viewBox="0 0 20 20" fill="none" xmlns="http://www.w3.org/2000/svg">
<path d="M19.6635 13.7539H10.368V11.8612H13.9432C14.1535 11.8612 14.3218 11.693 14.3218 11.4826V9.23239C14.3218 9.02208 14.1535 8.85384 13.9432 8.85384H10.368V6.96109H16.8244C16.9926 6.96109 17.1399 6.79285 17.1399 6.58254V3.95373C17.1399 3.74343 16.9926 3.57518 16.8244 3.57518H10.368V0.378549C10.368 0.168244 10.1998 0 9.98948 0C9.77918 0 9.61094 0.168244 9.61094 0.378549V3.57518H5.97266C5.80442 3.57518 5.6572 3.74343 5.6572 3.95373V6.58254C5.6572 6.79285 5.80442 6.96109 5.97266 6.96109H9.61094V8.85384H0.378549C0.168244 8.85384 0 9.02208 0 9.23239V11.5037C0 11.714 0.168244 11.8822 0.378549 11.8822H9.61094V13.775H5.97266C5.80442 13.775 5.6572 13.9432 5.6572 14.1535V16.4248C5.6572 16.6351 5.80442 16.8034 5.97266 16.8034H9.61094V19.6215C9.61094 19.8318 9.77918 20 9.98948 20C10.1998 20 10.368 19.8318 10.368 19.6215V16.7823H19.6635C19.8318 16.7823 19.979 16.6141 19.979 16.4038V14.1325C19.979 13.9222 19.8318 13.7539 19.6635 13.7539Z" fill="url(#paint0_linear)"/>
<defs>
<linearGradient id="paint0_linear" x1="9.98948" y1="0" x2="9.98948" y2="20" gradientUnits="userSpaceOnUse">
<stop stop-color="#E0C3FC"/>
<stop offset="1" stop-color="#8EC5FC"/>
</linearGradient>
</defs>
</svg>
