<svg width="28" height="20" viewBox="0 0 28 20" fill="none" xmlns="http://www.w3.org/2000/svg">
<path fill-rule="evenodd" clip-rule="evenodd" d="M26.9152 19.987C26.8944 19.9881 26.8738 19.9882 26.8534 19.9874C26.1575 20.0064 25.4565 19.9999 24.7572 19.9935H24.7572H24.7571H24.7571C24.4056 19.9903 24.0546 19.987 23.7049 19.987H17.2142H9.67865H3.47396H0.87652C0.403726 19.987 0.000976562 19.5843 0.000976562 19.1115V16.8584V13.2595C0.000944263 13.2587 0.000913005 13.2578 0.00088279 13.257C-0.00033521 13.2324 -0.000282407 13.2079 0.000976562 13.1836V7.0465V6.74542L0.00088279 6.74298C-0.00033521 6.71831 -0.000282407 6.69384 0.000976562 6.6696V0.888514C0.000976562 0.415721 0.403726 0.012971 0.87652 0.012971H0.923216C1.62408 -0.00649749 2.33014 7.99708e-06 3.03447 0.00649749C3.38598 0.00973624 3.73706 0.012971 4.08684 0.012971H10.5775H18.113H24.3177H26.9152C27.388 0.012971 27.7907 0.415721 27.7907 0.888514V3.14158V6.63355C27.7966 6.66949 27.8005 6.70602 27.8023 6.74298C27.8052 6.80085 27.801 6.85767 27.7907 6.91283V12.9535V13.1476C27.7966 13.1835 27.8005 13.2201 27.8023 13.257C27.8052 13.3149 27.801 13.3717 27.7907 13.4269V19.1115C27.8141 19.5843 27.3705 19.987 26.9152 19.987ZM1.75206 14.1326V18.2109C2.17788 18.2073 2.60576 18.2151 3.03299 18.223L3.03317 18.223H3.03323H3.03328H3.03334C3.38545 18.2295 3.73711 18.2359 4.08684 18.2359H8.11426V16.8409V14.1326H3.47387H1.75206ZM8.11426 12.3815H4.09259C3.74043 12.3815 3.38826 12.3782 3.0361 12.375C2.60809 12.371 2.18008 12.3671 1.75206 12.369V7.61852H3.47387H8.11426V12.3815ZM9.86534 14.1326V18.2359H10.5775H17.932V16.8409V14.1326H17.2199H9.86534ZM17.932 12.3815H10.5833H9.86534V7.61852H17.2199H17.932V12.3815ZM19.6831 14.1326V18.2359H24.3177H26.0396V16.8584V14.1451C25.6154 14.1469 25.1913 14.143 24.7671 14.139C24.4149 14.1358 24.0628 14.1326 23.7106 14.1326H19.6831ZM26.0396 12.3815H24.3293H19.6831V7.61852H23.7106C24.0627 7.61852 24.4148 7.62176 24.7669 7.625L24.7671 7.625L24.7672 7.62501C25.1913 7.62891 25.6155 7.63282 26.0396 7.63106V12.3815ZM10.5833 5.86743H17.932V1.76406H17.2142H9.86534V3.15909V5.86743H10.5833ZM24.3293 5.86743H26.0396V1.78908C25.6138 1.79274 25.1858 1.78486 24.7585 1.777C24.4064 1.77053 24.0546 1.76406 23.7049 1.76406H19.6831V3.15909V5.86743H24.3293ZM4.09259 5.86743H8.11426V1.76406H3.47396H1.75206V3.14158V5.85495C2.18004 5.85306 2.60802 5.85701 3.03599 5.86095L3.0361 5.86095L3.03626 5.86095C3.38837 5.86419 3.74048 5.86743 4.09259 5.86743Z" fill="#C5C4C4" fill-opacity="0.79"/>
</svg>
