<svg width="156" height="186" viewBox="0 0 156 186" fill="none" xmlns="http://www.w3.org/2000/svg">
<path fill-rule="evenodd" clip-rule="evenodd" d="M31.7238 140.093C29.8127 141.24 28.666 143.533 28.666 145.444L30.1949 147.356L31.7238 146.973C32.4882 145.827 35.546 144.68 34.7815 142.005L62.6835 126.716L71.0923 120.983L71.8567 119.836C71.4745 119.454 70.7101 119.071 70.3279 119.071C69.5634 118.689 68.799 119.071 68.0346 119.454L31.7238 140.093Z" fill="#8ADCF9"/>
<path fill-rule="evenodd" clip-rule="evenodd" d="M28.666 177.169C28.666 177.933 29.0482 178.697 29.4305 179.08L30.9593 179.844C31.3415 179.462 31.3415 179.08 31.3415 178.697L32.4882 159.204L31.7238 146.973L28.666 145.444V177.169Z" fill="#66B2F1"/>
<path fill-rule="evenodd" clip-rule="evenodd" d="M72.6161 122.057C72.6161 120.156 71.0804 119.395 69.5446 120.536L33.0714 141.446C31.5357 142.206 30 144.868 30 146.388V177.943C30 179.844 31.5357 180.605 33.0714 179.464L69.9286 158.554C71.4643 157.794 73 155.132 73 153.612L72.6161 122.057Z" fill="url(#paint0_linear)"/>
<path fill-rule="evenodd" clip-rule="evenodd" d="M52 137L32 148.667L32.3704 172L52 160.71V137Z" fill="white"/>
<path fill-rule="evenodd" clip-rule="evenodd" d="M41.6562 148.501L42.4206 150.794L43.185 153.088L43.5673 154.999L41.6562 162.643L45.4784 160.732L39.3629 164.172L37.834 164.936L38.9806 160.35L39.3629 158.439V158.056L40.1273 154.999L40.8917 151.941V151.559L41.6562 148.501Z" fill="#4D16DB"/>
<path fill-rule="evenodd" clip-rule="evenodd" d="M46.2429 143.533L47.0073 145.062V145.444L47.7718 147.738L48.5362 150.031L49.3006 152.324L49.6828 152.706L50.4473 154.618V155L51.2117 157.293L45.4784 160.733L41.6562 162.644L43.5673 155L44.3318 152.706V152.324L45.0962 149.266L45.8607 146.209V145.827L46.2429 143.533Z" fill="#2030BE"/>
<path fill-rule="evenodd" clip-rule="evenodd" d="M36.3078 146.975L36.69 148.121V148.503L37.0722 150.797V151.179L37.4544 153.472V153.855L37.8366 156.148H38.2188L38.6011 158.823L38.9833 160.352L37.8366 164.939L39.3655 164.174L33.25 167.614L33.6322 164.557V164.174L34.0144 161.499V161.117L34.3967 158.059H34.7789L35.1611 155.001L35.5433 151.943L35.9255 148.886V148.503L36.3078 146.975Z" fill="#7545DD"/>
<path fill-rule="evenodd" clip-rule="evenodd" d="M55 153V152.231L60.7143 148.769V149.538L55 153ZM55 142.231L71 133V133.769L55 143V142.231ZM61.4762 139.923L55 143.769V144.538L61.4762 140.692V139.923ZM55 149.154L71 139.923V136.077L55 145.308V149.154ZM55 151.077L71 141.846V140.692L55 149.923V151.077Z" fill="#CDEEFB"/>
<path d="M110.5 172C118.508 172 125 165.508 125 157.5C125 149.492 118.508 143 110.5 143C102.492 143 96 149.492 96 157.5C96 165.508 102.492 172 110.5 172Z" fill="url(#paint1_linear)"/>
<path fill-rule="evenodd" clip-rule="evenodd" d="M90.5866 168.22C90.9688 168.602 90.5866 168.984 90.2044 169.366C89.8222 169.749 89.44 169.366 89.0577 168.984C88.2933 167.073 87.5289 165.544 86.7644 163.633C86.3822 161.722 86 159.811 86 157.9C86 151.402 88.6755 145.286 92.8799 141.082C97.0843 136.878 103.2 134.202 109.698 134.202C113.902 134.202 118.106 135.349 121.546 137.26C124.986 139.171 128.044 142.229 130.337 145.669C130.72 146.051 130.337 146.433 129.955 146.815C129.573 147.198 129.191 146.815 128.808 146.433C126.897 142.993 123.84 140.318 120.782 138.407C117.724 136.495 113.902 135.349 109.698 135.349C103.582 135.349 97.8488 138.024 94.0266 141.847C89.8222 146.051 87.5289 151.402 87.5289 157.517C87.5289 159.429 87.9111 161.34 88.2933 162.869C89.0577 164.78 89.8222 166.691 90.5866 168.22Z" fill="white"/>
<path fill-rule="evenodd" clip-rule="evenodd" d="M133.392 149.491C134.157 149.491 134.539 149.873 135.303 150.256C135.686 150.638 136.068 151.402 136.068 152.167C136.068 152.931 135.686 153.313 135.303 154.078C134.921 154.46 134.157 154.842 133.392 154.842C132.628 154.842 132.246 154.46 131.481 154.078C131.099 153.696 130.717 152.931 130.717 152.167C130.717 151.402 131.099 151.02 131.481 150.256C132.246 149.873 132.628 149.491 133.392 149.491ZM134.157 151.402C134.157 151.402 133.775 151.02 133.392 151.02C133.01 151.02 133.01 151.02 132.628 151.402C132.628 151.402 132.246 151.785 132.246 152.167C132.246 152.549 132.246 152.549 132.628 152.931C132.628 152.931 133.01 153.313 133.392 153.313C133.775 153.313 133.775 153.313 134.157 152.931C134.157 152.931 134.539 152.549 134.539 152.167C134.157 151.785 134.157 151.402 134.157 151.402Z" fill="white"/>
<path fill-rule="evenodd" clip-rule="evenodd" d="M93.6435 172.424C93.6435 172.041 94.0257 171.659 94.4079 171.659C94.7902 171.659 95.1724 172.041 95.1724 172.424V173.57H96.319C96.7013 173.57 97.0835 173.952 97.0835 174.335C97.0835 174.717 96.7013 175.099 96.319 175.099H95.1724V176.246C95.1724 176.628 94.7902 177.01 94.4079 177.01C94.0257 177.01 93.6435 176.628 93.6435 176.246V175.099H92.4968C92.1146 175.099 91.7324 174.717 91.7324 174.335C91.7324 173.952 92.1146 173.57 92.4968 173.57H93.6435V172.424Z" fill="white"/>
<path fill-rule="evenodd" clip-rule="evenodd" d="M100.435 21.4414C109.609 21.4414 116.871 28.7036 116.871 37.8768C116.871 47.0501 109.609 54.3122 100.435 54.3122C91.2622 54.3122 84 47.0501 84 37.8768C84 28.7036 91.6444 21.4414 100.435 21.4414Z" fill="url(#paint2_linear)"/>
<path fill-rule="evenodd" clip-rule="evenodd" d="M84.3843 35.963L90.1176 24.1143L96.9976 38.2564H84.3843V37.8741C84.0021 37.1097 84.0021 36.7275 84.3843 35.963Z" fill="#7CB3F8"/>
<path fill-rule="evenodd" clip-rule="evenodd" d="M100.059 44.372L110.379 22.9678L116.876 35.9632C116.876 36.3454 116.876 37.1099 116.876 37.4921C116.876 39.7854 116.494 42.0787 115.347 44.372H100.059Z" fill="#7CB3F8"/>
<path fill-rule="evenodd" clip-rule="evenodd" d="M89.7344 40.5509L100.819 18L111.903 40.5509H89.7344Z" fill="#88D6FC"/>
<path fill-rule="evenodd" clip-rule="evenodd" d="M116.871 35.5809C112.284 33.2876 108.844 32.5232 106.551 32.9054C101.582 33.2876 99.671 35.9631 96.9954 36.3453C95.4666 36.7276 94.3199 35.9631 90.4977 34.8165C88.5866 34.4343 86.2933 34.8165 84 35.9631C84 36.7276 84 37.492 84 38.2564C84 47.4297 91.2622 54.6919 100.435 54.6919C109.609 54.6919 116.871 47.4297 116.871 38.2564C116.871 37.1098 116.871 36.3453 116.871 35.5809Z" fill="url(#paint3_linear)"/>
<path fill-rule="evenodd" clip-rule="evenodd" d="M116.869 35.5811C109.607 36.7277 106.167 43.6076 97.3763 38.2566C92.0252 34.8166 88.203 35.5811 84.3809 37.4921C84.3809 37.8744 84.3809 37.8744 84.3809 38.2566C84.3809 47.4298 91.643 54.692 100.816 54.692C109.99 54.692 117.252 47.4298 117.252 38.2566C116.869 37.1099 116.869 36.3455 116.869 35.5811Z" fill="url(#paint4_linear)"/>
<path fill-rule="evenodd" clip-rule="evenodd" d="M120.339 29.305C119.956 28.9228 120.339 28.1583 120.721 28.1583C121.103 27.7761 121.867 28.1583 121.867 28.5405C122.632 30.0694 123.396 31.9805 124.161 33.8916C124.543 35.8027 124.925 37.7138 124.925 39.6249C124.925 46.1226 122.25 51.8559 118.045 56.0603C113.841 60.2647 108.108 62.9402 101.61 62.9402C97.4055 62.9402 93.5833 61.7936 90.1433 59.8825C86.7033 57.9714 83.6456 54.9136 81.7345 51.4737C81.3523 51.0914 81.7345 50.327 82.1167 50.327C82.4989 49.9448 83.2634 50.327 83.2634 50.7092C85.1745 53.767 87.85 56.4425 91.29 58.3536C94.3477 60.2647 98.1699 61.0291 101.992 61.0291C107.725 61.0291 113.459 58.7358 117.281 54.9136C121.103 51.0915 123.396 45.7404 123.396 39.6249C123.396 37.7138 123.014 36.1849 122.632 34.2738C121.867 32.7449 121.103 30.8339 120.339 29.305Z" fill="white"/>
<path fill-rule="evenodd" clip-rule="evenodd" d="M79.44 40.3887C80.2044 40.3887 81.3511 40.7709 81.7333 41.5353C82.1155 42.2998 82.8799 43.0642 82.8799 43.8286C82.8799 44.5931 82.4977 45.7397 81.7333 46.122C80.9688 46.5042 80.2044 46.8864 79.44 46.8864C78.6755 46.8864 77.5289 46.5042 77.1467 45.7397C76.3822 44.9753 76 44.2109 76 43.4464C76 42.682 76.3822 41.5353 77.1467 41.1531C77.5289 40.7709 78.2933 40.3887 79.44 40.3887ZM80.2044 42.682C79.8222 42.2998 79.44 42.2998 79.0577 42.2998C78.6755 42.2998 78.2933 42.2998 77.9111 42.682C77.5289 43.0642 77.5289 43.4464 77.5289 43.8286C77.5289 44.2109 77.5289 44.5931 77.9111 44.9753C78.2933 45.3575 78.6755 45.3575 79.0577 45.3575C79.44 45.3575 79.8222 45.3575 80.2044 44.9753C80.5866 44.5931 80.5866 44.2109 80.5866 43.8286C80.5866 43.4464 80.5866 42.682 80.2044 42.682Z" fill="white"/>
<path fill-rule="evenodd" clip-rule="evenodd" d="M111.989 95.5996L110.843 96.7463L125.367 111.271C126.514 110.506 128.043 110.506 129.189 111.653C130.336 112.799 130.336 114.711 129.189 115.857C128.043 117.004 126.131 117.004 124.985 115.857C123.838 114.711 123.838 113.182 124.603 112.035L110.078 97.5107L108.932 98.6574C108.932 98.6574 119.252 110.124 120.398 120.826C123.838 120.444 130.718 124.266 130.718 124.266L134.158 120.444L137.98 117.004C137.98 117.004 134.158 110.506 134.54 106.684C123.456 105.92 111.989 95.5996 111.989 95.5996Z" fill="url(#paint5_linear)"/>
<path d="M137.238 116.552L129.4 124.39L134.535 129.525L142.373 121.687L137.238 116.552Z" fill="#4039C3"/>
<path fill-rule="evenodd" clip-rule="evenodd" d="M101.669 92.9226L106.256 88.3359L111.607 93.687L106.256 99.0381L101.287 93.3048L101.669 92.9226ZM106.256 90.247L103.198 93.3048L106.256 96.3625L109.314 93.3048L106.256 90.247Z" fill="white"/>
<path fill-rule="evenodd" clip-rule="evenodd" d="M103.962 126.176L108.548 121.59L113.899 126.941L108.548 132.292L103.197 126.559L103.962 126.176ZM108.548 123.501L105.491 126.559L108.548 129.616L111.606 126.559L108.548 123.501Z" fill="white"/>
<path fill-rule="evenodd" clip-rule="evenodd" d="M134.921 94.8337L139.507 90.2471L144.858 95.5981L139.507 100.567L134.156 95.2159L134.921 94.8337ZM139.507 92.1582L136.45 95.2159L139.507 98.2737L142.565 95.2159L139.507 92.1582Z" fill="white"/>
<path fill-rule="evenodd" clip-rule="evenodd" d="M105.873 124.647C101.286 120.06 99.375 114.327 99.375 108.593C99.375 103.625 100.904 98.6558 103.962 94.8336L105.108 95.9803C102.051 99.8025 100.904 104.389 100.904 108.976C100.904 114.327 102.815 119.678 107.019 123.882L105.873 124.647ZM107.784 91.0114C111.988 87.9537 116.575 86.4248 121.544 86.4248C127.277 86.4248 133.01 88.7181 137.597 92.9225L136.45 94.0692C132.246 89.8648 126.895 87.9537 121.544 87.9537C116.957 87.9537 112.37 89.4826 108.548 92.1581L107.784 91.0114Z" fill="white"/>
<path fill-rule="evenodd" clip-rule="evenodd" d="M90.9629 108.211L103.958 95.2155L104.723 95.9799L91.7273 108.975L90.9629 108.211ZM108.163 91.0111L121.158 78.0156L121.923 78.7801L108.927 91.7755L108.163 91.0111Z" fill="white"/>
<path fill-rule="evenodd" clip-rule="evenodd" d="M87.142 108.978L90.1997 105.92L93.6397 109.36L90.1997 112.8L86.7598 109.36L87.142 108.978ZM90.1997 107.831L88.6709 109.36L90.1997 110.889L91.7286 109.36L90.1997 107.831Z" fill="white"/>
<path fill-rule="evenodd" clip-rule="evenodd" d="M119.63 76.8703L122.688 73.8125L126.128 77.2525L122.688 80.6924L119.248 77.2525L119.63 76.8703ZM122.688 75.7236L121.159 77.2525L122.688 78.7813L124.217 77.2525L122.688 75.7236Z" fill="white"/>
<path fill-rule="evenodd" clip-rule="evenodd" d="M26.3787 100.948C25.6142 99.4193 24.8498 98.2726 23.7031 97.126C24.4676 97.8904 25.232 98.6549 26.3787 99.0371C32.4942 102.095 40.5208 102.095 46.6363 99.4193C47.0185 99.4193 47.4007 99.0371 47.7829 99.0371C48.5473 98.6549 49.694 97.8904 50.0762 97.126C49.3118 97.8904 47.7829 100.566 47.4007 101.713C47.0185 102.859 46.6363 103.624 45.8718 104.77C45.4896 105.535 45.4896 106.299 45.1074 106.681C43.1963 109.739 40.1385 111.268 37.0808 111.268C33.2586 111.268 30.9653 109.739 29.0542 107.064C28.2897 105.917 27.9075 104.388 27.5253 103.241C27.1431 102.477 26.7609 101.713 26.3787 100.948Z" fill="#57CBA1"/>
<path fill-rule="evenodd" clip-rule="evenodd" d="M17.2033 76.105C18.35 71.5184 21.4077 67.314 25.2299 64.6384C33.2565 59.2874 44.7231 59.6696 51.9852 67.314C54.2785 69.6073 55.8074 72.665 56.5718 76.105C58.4829 83.7494 55.4252 90.6293 50.4564 96.3626L50.0741 96.7448C49.3097 97.5093 48.5453 97.8915 47.7808 98.6559C46.2519 99.4204 44.3408 100.185 42.4298 100.567C34.7854 102.478 27.9054 99.8026 26.3766 98.6559C23.701 97.127 21.0255 94.0693 19.4966 90.6293C17.2033 86.4249 15.6744 81.4561 17.2033 76.105Z" fill="url(#paint6_linear)"/>
<path fill-rule="evenodd" clip-rule="evenodd" d="M35.9342 110.123C39.7564 110.505 45.1075 108.976 46.2541 105.154C46.2541 105.154 46.2541 114.328 46.2541 115.092C46.2541 116.239 46.2541 116.621 45.8719 117.768C45.4897 119.296 44.7252 120.443 43.5786 121.59C43.1964 121.972 42.4319 122.736 41.6675 123.119C38.992 124.647 35.1698 124.647 32.112 123.501C30.5831 122.736 29.4365 121.59 28.672 120.443C27.5254 118.914 27.5254 117.385 27.5254 115.474V105.919C29.0543 108.976 33.2587 110.123 35.9342 110.123Z" fill="url(#paint7_linear)"/>
<path fill-rule="evenodd" clip-rule="evenodd" d="M30.9616 108.594C34.4015 110.505 39.7526 110.505 42.8103 108.594C43.5748 108.212 44.3392 107.447 44.7214 106.683C45.1037 106.301 45.1037 105.536 45.4859 105.154L45.8681 104.39C46.2503 105.919 45.4859 107.447 43.1926 108.976C39.7526 111.27 33.6371 111.27 30.1971 108.976C27.9038 107.83 27.1394 105.919 27.5216 104.39L27.9038 105.154C27.9038 105.536 28.286 106.301 28.6682 106.683C29.4327 107.447 30.1971 108.212 30.9616 108.594Z" fill="#7CC2FF"/>
<path fill-rule="evenodd" clip-rule="evenodd" d="M41.2831 84.8973L40.5187 84.1328L37.4609 105.919L38.6076 106.302L41.2831 84.8973Z" fill="#57CBA1"/>
<path fill-rule="evenodd" clip-rule="evenodd" d="M34.4045 91.0131L33.2578 90.6309L35.9333 107.831L36.6978 108.213L34.4045 91.0131Z" fill="#57CBA1"/>
<path fill-rule="evenodd" clip-rule="evenodd" d="M36.3105 44.7644C36.3105 44.3822 36.6928 44 37.075 44C37.4572 44 37.8394 44.3822 37.8394 44.7644V55.0843C37.8394 55.4666 37.4572 55.8488 37.075 55.8488C36.6928 55.8488 36.3105 55.4666 36.3105 55.0843V44.7644ZM36.3105 107.831C36.3105 107.448 36.6928 107.066 37.075 107.066C37.4572 107.066 37.8394 107.448 37.8394 107.831V118.15C37.8394 118.533 37.4572 118.915 37.075 118.915C36.6928 118.915 36.3105 118.533 36.3105 118.15V107.831Z" fill="white"/>
<path fill-rule="evenodd" clip-rule="evenodd" d="M73.7682 80.6914C74.1504 80.6914 74.5327 81.0736 74.5327 81.4558C74.5327 81.8381 74.1504 82.2203 73.7682 82.2203H63.4483C63.0661 82.2203 62.6839 81.8381 62.6839 81.4558C62.6839 81.0736 63.0661 80.6914 63.4483 80.6914H73.7682ZM11.0843 80.6914C11.4666 80.6914 11.8488 81.0736 11.8488 81.4558C11.8488 81.8381 11.4666 82.2203 11.0843 82.2203H0.764437C0.382218 82.2203 0 81.8381 0 81.4558C0 81.0736 0.382218 80.6914 0.764437 80.6914H11.0843Z" fill="white"/>
<path fill-rule="evenodd" clip-rule="evenodd" d="M62.6825 55.0855C63.0647 54.7033 63.4469 54.7033 63.8291 55.0855C64.2114 55.4677 64.2114 55.8499 63.8291 56.2321L56.567 63.4943C56.1848 63.8765 55.8025 63.8765 55.4203 63.4943C55.0381 63.1121 55.0381 62.7299 55.4203 62.3476L62.6825 55.0855ZM17.9629 99.4229C18.3451 99.0407 18.7273 99.0407 19.1095 99.4229C19.4918 99.8051 19.4918 100.187 19.1095 100.57L11.8474 107.832C11.4652 108.214 11.0829 108.214 10.7007 107.832C10.3185 107.449 10.3185 107.067 10.7007 106.685L17.9629 99.4229Z" fill="white"/>
<path fill-rule="evenodd" clip-rule="evenodd" d="M10.7007 56.2321C10.3185 55.8499 10.3185 55.4677 10.7007 55.0855C11.0829 54.7033 11.4652 54.7033 11.8474 55.0855L19.1095 62.3476C19.4918 62.7299 19.4918 63.1121 19.1095 63.4943C18.7273 63.8765 18.3451 63.8765 17.9629 63.4943L10.7007 56.2321ZM55.0381 100.952C54.6559 100.57 54.6559 100.187 55.0381 99.8051C55.4203 99.4229 55.8026 99.4229 56.1848 99.8051L63.4469 107.067C63.8291 107.449 63.8291 107.832 63.4469 108.214C63.0647 108.596 62.6825 108.596 62.3003 108.214L55.0381 100.952Z" fill="white"/>
<path fill-rule="evenodd" clip-rule="evenodd" d="M55.1065 69.1487C55.1065 68.9483 55.3077 68.7478 55.5089 68.7478C55.7101 68.7478 55.9112 68.9483 55.9112 69.1487V70.1509H56.9172C57.1183 70.1509 57.3195 70.3513 57.3195 70.5517C57.3195 70.7522 57.1183 70.9526 56.9172 70.9526H55.9112V71.9547C55.9112 72.1552 55.7101 72.3556 55.5089 72.3556C55.3077 72.3556 55.1065 72.1552 55.1065 71.9547V70.9526H54.1006C53.8994 70.9526 53.6982 70.7522 53.6982 70.5517C53.6982 70.3513 53.8994 70.1509 54.1006 70.1509H55.1065V69.1487Z" fill="white"/>
<path fill-rule="evenodd" clip-rule="evenodd" d="M15.6746 135.091C15.6746 134.89 15.8757 134.69 16.0769 134.69C16.2781 134.69 16.4793 134.89 16.4793 135.091V136.093H17.4852C17.6864 136.093 17.8876 136.293 17.8876 136.494C17.8876 136.694 17.6864 136.894 17.4852 136.894H16.6805V137.897C16.6805 138.097 16.4793 138.297 16.2781 138.297C16.0769 138.297 15.8757 138.097 15.8757 137.897V136.894H14.8698C14.6686 136.894 14.4675 136.694 14.4675 136.494C14.4675 136.293 14.6686 136.093 14.8698 136.093H15.8757V135.091H15.6746Z" fill="white"/>
<path fill-rule="evenodd" clip-rule="evenodd" d="M3 184.196C3 183.795 3.20118 183.194 3.60355 182.994C4.00592 182.593 4.40828 182.392 4.81065 182.392C5.21302 182.392 5.81657 182.593 6.01775 182.994C6.42012 183.394 6.6213 183.795 6.6213 184.196C6.6213 184.597 6.42012 185.198 6.01775 185.399C5.61538 185.8 5.21302 186 4.81065 186C4.40828 186 3.80473 185.8 3.60355 185.399C3.20118 184.998 3 184.597 3 184.196ZM4.2071 183.595C4.00592 183.795 4.00592 183.996 4.00592 184.196C4.00592 184.397 4.00592 184.597 4.2071 184.797C4.40828 184.998 4.60947 184.998 4.81065 184.998C5.01183 184.998 5.21302 184.998 5.4142 184.797C5.61538 184.597 5.61538 184.397 5.61538 184.196C5.61538 183.996 5.61538 183.795 5.4142 183.595C5.21302 183.394 5.01183 183.394 4.81065 183.394C4.60947 183.394 4.40828 183.394 4.2071 183.595Z" fill="white"/>
<path fill-rule="evenodd" clip-rule="evenodd" d="M67.3787 120.459C67.3787 120.058 67.5799 119.457 67.9822 119.256C68.3846 118.856 68.787 118.655 69.1894 118.655C69.5917 118.655 70.1953 118.856 70.3965 119.256C70.7988 119.657 71 120.058 71 120.459C71 120.86 70.7988 121.461 70.3965 121.662C69.9941 122.063 69.5917 122.263 69.1894 122.263C68.787 122.263 68.1834 122.063 67.9822 121.662C67.5799 121.461 67.3787 121.06 67.3787 120.459ZM68.3846 120.058C68.1834 120.259 68.1834 120.459 68.1834 120.659C68.1834 120.86 68.1834 121.06 68.3846 121.261C68.5858 121.461 68.787 121.461 68.9882 121.461C69.1893 121.461 69.3905 121.461 69.5917 121.261C69.7929 121.06 69.7929 120.86 69.7929 120.659C69.7929 120.459 69.7929 120.259 69.5917 120.058C69.3905 119.858 69.1893 119.858 68.9882 119.858C68.787 119.858 68.5858 119.858 68.3846 120.058Z" fill="white"/>
<path fill-rule="evenodd" clip-rule="evenodd" d="M62.1479 155.134C62.1479 154.733 62.3491 154.131 62.7515 153.931C63.1539 153.731 63.5562 153.33 63.9586 153.33C64.3609 153.33 64.9645 153.53 65.1657 153.931C65.5681 154.332 65.7692 154.733 65.7692 155.134C65.7692 155.534 65.5681 156.136 65.1657 156.336C64.7633 156.737 64.3609 156.938 63.9586 156.938C63.5562 156.938 62.9527 156.737 62.7515 156.336C62.5503 155.935 62.1479 155.735 62.1479 155.134ZM63.355 154.733C63.1538 154.933 63.1538 155.134 63.1538 155.334C63.1538 155.534 63.1538 155.735 63.355 155.935C63.5562 155.935 63.7574 155.935 63.9586 155.935C64.1598 155.935 64.361 155.935 64.5621 155.735C64.7633 155.534 64.7633 155.334 64.7633 155.134C64.7633 154.933 64.7633 154.733 64.5621 154.532C64.361 154.332 64.1598 154.332 63.9586 154.332C63.7574 154.532 63.5562 154.532 63.355 154.733Z" fill="white"/>
<path fill-rule="evenodd" clip-rule="evenodd" d="M15.8757 69.5496H19.497V73.1573H15.8757V69.5496ZM16.8817 70.5517V72.3556H18.6923V70.5517H16.8817Z" fill="white"/>
<path fill-rule="evenodd" clip-rule="evenodd" d="M20.9053 4.81033L18.6923 2.60561L21.3077 -1.52588e-05L23.9231 2.60561L21.1065 5.21121L20.9053 4.81033ZM19.8994 2.60561L21.1065 3.80818L22.3136 2.60561L21.1065 1.40302L19.8994 2.60561Z" fill="white"/>
<path fill-rule="evenodd" clip-rule="evenodd" d="M140.107 69.1487C140.107 68.9483 140.308 68.7478 140.509 68.7478C140.71 68.7478 140.911 68.9483 140.911 69.1487V70.1509H141.917C142.118 70.1509 142.32 70.3513 142.32 70.5517C142.32 70.7522 142.118 70.9526 141.917 70.9526H140.911V71.9547C140.911 72.1552 140.71 72.3556 140.509 72.3556C140.308 72.3556 140.107 72.1552 140.107 71.9547V70.9526H139.101C138.899 70.9526 138.698 70.7522 138.698 70.5517C138.698 70.3513 138.899 70.1509 139.101 70.1509H140.107V69.1487Z" fill="white"/>
<path fill-rule="evenodd" clip-rule="evenodd" d="M100.675 135.091C100.675 134.89 100.876 134.69 101.077 134.69C101.278 134.69 101.479 134.89 101.479 135.091V136.093H102.485C102.686 136.093 102.888 136.293 102.888 136.494C102.888 136.694 102.686 136.894 102.485 136.894H101.68V137.897C101.68 138.097 101.479 138.297 101.278 138.297C101.077 138.297 100.876 138.097 100.876 137.897V136.894H99.8698C99.6686 136.894 99.4675 136.694 99.4675 136.494C99.4675 136.293 99.6686 136.093 99.8698 136.093H100.876V135.091H100.675Z" fill="white"/>
<path fill-rule="evenodd" clip-rule="evenodd" d="M88 184.196C88 183.795 88.2012 183.194 88.6036 182.994C89.0059 182.593 89.4083 182.392 89.8107 182.392C90.213 182.392 90.8166 182.593 91.0178 182.994C91.4201 183.394 91.6213 183.795 91.6213 184.196C91.6213 184.597 91.4201 185.198 91.0178 185.399C90.6154 185.8 90.213 186 89.8107 186C89.4083 186 88.8047 185.8 88.6036 185.399C88.2012 184.998 88 184.597 88 184.196ZM89.2071 183.595C89.0059 183.795 89.0059 183.996 89.0059 184.196C89.0059 184.397 89.0059 184.597 89.2071 184.797C89.4083 184.998 89.6095 184.998 89.8107 184.998C90.0118 184.998 90.213 184.998 90.4142 184.797C90.6154 184.597 90.6154 184.397 90.6154 184.196C90.6154 183.996 90.6154 183.795 90.4142 183.595C90.213 183.394 90.0118 183.394 89.8107 183.394C89.6095 183.394 89.4083 183.394 89.2071 183.595Z" fill="white"/>
<path fill-rule="evenodd" clip-rule="evenodd" d="M152.379 120.459C152.379 120.058 152.58 119.457 152.982 119.256C153.385 118.856 153.787 118.655 154.189 118.655C154.592 118.655 155.195 118.856 155.396 119.256C155.799 119.657 156 120.058 156 120.459C156 120.86 155.799 121.461 155.396 121.662C154.994 122.063 154.592 122.263 154.189 122.263C153.787 122.263 153.183 122.063 152.982 121.662C152.58 121.461 152.379 121.06 152.379 120.459ZM153.385 120.058C153.183 120.259 153.183 120.459 153.183 120.659C153.183 120.86 153.183 121.06 153.385 121.261C153.586 121.461 153.787 121.461 153.988 121.461C154.189 121.461 154.391 121.461 154.592 121.261C154.793 121.06 154.793 120.86 154.793 120.659C154.793 120.459 154.793 120.259 154.592 120.058C154.391 119.858 154.189 119.858 153.988 119.858C153.787 119.858 153.586 119.858 153.385 120.058Z" fill="white"/>
<path fill-rule="evenodd" clip-rule="evenodd" d="M147.148 155.134C147.148 154.733 147.349 154.131 147.751 153.931C148.154 153.731 148.556 153.33 148.959 153.33C149.361 153.33 149.964 153.53 150.166 153.931C150.568 154.332 150.769 154.733 150.769 155.134C150.769 155.534 150.568 156.136 150.166 156.336C149.763 156.737 149.361 156.938 148.959 156.938C148.556 156.938 147.953 156.737 147.751 156.336C147.55 155.935 147.148 155.735 147.148 155.134ZM148.355 154.733C148.154 154.933 148.154 155.134 148.154 155.334C148.154 155.534 148.154 155.735 148.355 155.935C148.556 155.935 148.757 155.935 148.959 155.935C149.16 155.935 149.361 155.935 149.562 155.735C149.763 155.534 149.763 155.334 149.763 155.134C149.763 154.933 149.763 154.733 149.562 154.532C149.361 154.332 149.16 154.332 148.959 154.332C148.757 154.532 148.556 154.532 148.355 154.733Z" fill="white"/>
<path fill-rule="evenodd" clip-rule="evenodd" d="M100.876 69.5496H104.497V73.1573H100.876V69.5496ZM101.882 70.5517V72.3556H103.692V70.5517H101.882Z" fill="white"/>
<path fill-rule="evenodd" clip-rule="evenodd" d="M105.905 4.81033L103.692 2.60561L106.308 -1.52588e-05L108.923 2.60561L106.107 5.21121L105.905 4.81033ZM104.899 2.60561L106.107 3.80818L107.314 2.60561L106.107 1.40302L104.899 2.60561Z" fill="white"/>
<defs>
<linearGradient id="paint0_linear" x1="30.053" y1="150.011" x2="72.8069" y2="150.011" gradientUnits="userSpaceOnUse">
<stop stop-color="#7CC3E1"/>
<stop offset="1" stop-color="#8BDDFA"/>
</linearGradient>
<linearGradient id="paint1_linear" x1="116.397" y1="151.252" x2="103.339" y2="164.638" gradientUnits="userSpaceOnUse">
<stop stop-color="#57CBA1"/>
<stop offset="1" stop-color="#84FAB0"/>
</linearGradient>
<linearGradient id="paint2_linear" x1="56.7887" y1="34.8324" x2="124.875" y2="39.4818" gradientUnits="userSpaceOnUse">
<stop stop-color="#831AE2"/>
<stop offset="0.47" stop-color="#5D2CD3"/>
<stop offset="1" stop-color="#1A4BB1"/>
</linearGradient>
<linearGradient id="paint3_linear" x1="101.675" y1="30.0265" x2="99.5876" y2="44.6349" gradientUnits="userSpaceOnUse">
<stop stop-color="#8FD3F4"/>
<stop offset="1" stop-color="#8EC5FC"/>
</linearGradient>
<linearGradient id="paint4_linear" x1="105.635" y1="32.4186" x2="87.6909" y2="59.237" gradientUnits="userSpaceOnUse">
<stop stop-color="#84FAB0"/>
<stop offset="1" stop-color="#57CBA1"/>
</linearGradient>
<linearGradient id="paint5_linear" x1="118.574" y1="112.383" x2="125.436" y2="105.521" gradientUnits="userSpaceOnUse">
<stop stop-color="#7CC3E1"/>
<stop offset="1" stop-color="#8BDDFA"/>
</linearGradient>
<linearGradient id="paint6_linear" x1="31.8847" y1="70.1432" x2="45.2459" y2="97.7577" gradientUnits="userSpaceOnUse">
<stop stop-color="#57CBA1"/>
<stop offset="1" stop-color="#84FAB0"/>
</linearGradient>
<linearGradient id="paint7_linear" x1="34.0606" y1="114.671" x2="42.9582" y2="108.094" gradientUnits="userSpaceOnUse">
<stop stop-color="#7CC3E1"/>
<stop offset="1" stop-color="#8BDDFA"/>
</linearGradient>
</defs>
</svg>
