<svg xmlns="http://www.w3.org/2000/svg" width="53" height="53" viewBox="0 0 53 53">
  <g id="Group_40054" data-name="Group 40054" transform="translate(-1632 -218)">
    <rect id="Rectangle_11537" data-name="Rectangle 11537" width="53" height="53" rx="26.5" transform="translate(1632 218)" fill="#4a5055" opacity="0.27"/>
    <g id="noun_edit_958196_1_" data-name="noun_edit_958196 (1)" transform="translate(1646.684 232.832)" opacity="0.55">
      <g id="Group_1359" data-name="Group 1359" transform="translate(-0.001 -0.001)">
        <path id="Path_596" data-name="Path 596" d="M28.076,7.592a2.781,2.781,0,0,0-3.938,0L9.811,21.891a.49.49,0,0,0-.112.14.027.027,0,0,1-.028.028c-.028.056-.056.084-.056.14v.028l-1.9,6.2a.9.9,0,0,0,.2.838.8.8,0,0,0,.586.251.773.773,0,0,0,.251-.028l6.172-1.9h.028c.056-.028.112-.028.14-.056a.027.027,0,0,0,.028-.028.279.279,0,0,0,.14-.112l14.3-14.3a2.781,2.781,0,0,0,0-3.938Z" transform="translate(-7.684 -6.775)" fill="#fff"/>
      </g>
    </g>
  </g>
</svg>
