<svg xmlns="http://www.w3.org/2000/svg" xmlns:xlink="http://www.w3.org/1999/xlink" width="71" height="71" viewBox="0 0 71 71">
  <defs>
    <filter id="Path_58981" x="0" y="0" width="71" height="71" filterUnits="userSpaceOnUse">
      <feOffset dy="3" input="SourceAlpha"/>
      <feGaussianBlur stdDeviation="3" result="blur"/>
      <feFlood flood-opacity="0.161"/>
      <feComposite operator="in" in2="blur"/>
      <feComposite in="SourceGraphic"/>
    </filter>
  </defs>
  <g id="Group_40041" data-name="Group 40041" transform="translate(13598 -3161)">
    <g transform="matrix(1, 0, 0, 1, -13598, 3161)" filter="url(#Path_58981)">
      <g id="Path_58981-2" data-name="Path 58981" transform="translate(9 6)" fill="#4a5055">
        <path d="M 26.5 52 C 23.05707931518555 52 19.71767997741699 51.32592010498047 16.57455062866211 49.99649047851563 C 13.5381498336792 48.71221160888672 10.81097030639648 46.87342071533203 8.468779563903809 44.53121948242188 C 6.126580238342285 42.18902969360352 4.287789821624756 39.46184921264648 3.003509998321533 36.42544937133789 C 1.674080014228821 33.28231811523438 1 29.94292068481445 1 26.5 C 1 23.05707931518555 1.674080014228821 19.71767997741699 3.003509998321533 16.57455062866211 C 4.287789821624756 13.5381498336792 6.126580238342285 10.81097030639648 8.468779563903809 8.468779563903809 C 10.81097030639648 6.126580238342285 13.5381498336792 4.287789821624756 16.57455062866211 3.003509998321533 C 19.71767997741699 1.674080014228821 23.05707931518555 1 26.5 1 C 29.94292068481445 1 33.28231811523438 1.674080014228821 36.42544937133789 3.003509998321533 C 39.46184921264648 4.287789821624756 42.18902969360352 6.126580238342285 44.53121948242188 8.468779563903809 C 46.87342071533203 10.81097030639648 48.71221160888672 13.5381498336792 49.99649047851563 16.57455062866211 C 51.32592010498047 19.71767997741699 52 23.05707931518555 52 26.5 C 52 29.94292068481445 51.32592010498047 33.28231811523438 49.99649047851563 36.42544937133789 C 48.71221160888672 39.46184921264648 46.87342071533203 42.18902969360352 44.53121948242188 44.53121948242188 C 42.18902969360352 46.87342071533203 39.46184921264648 48.71221160888672 36.42544937133789 49.99649047851563 C 33.28231811523438 51.32592010498047 29.94292068481445 52 26.5 52 Z" stroke="none"/>
        <path d="M 26.5 2 C 23.19164085388184 2 19.98329925537109 2.647499084472656 16.964111328125 3.924510955810547 C 14.04690170288086 5.158378601074219 11.42655944824219 6.925201416015625 9.175880432128906 9.175880432128906 C 6.925201416015625 11.42655944824219 5.158378601074219 14.04690170288086 3.924510955810547 16.964111328125 C 2.647499084472656 19.98329925537109 2 23.19164085388184 2 26.5 C 2 29.80835914611816 2.647499084472656 33.01670074462891 3.924510955810547 36.035888671875 C 5.158378601074219 38.95310211181641 6.925201416015625 41.57344055175781 9.175880432128906 43.82411956787109 C 11.42655944824219 46.07479858398438 14.04690170288086 47.84162139892578 16.964111328125 49.07548904418945 C 19.98329925537109 50.35250091552734 23.19164085388184 51 26.5 51 C 29.80835914611816 51 33.01670074462891 50.35250091552734 36.035888671875 49.07548904418945 C 38.95310211181641 47.84162139892578 41.57344055175781 46.07479858398438 43.82411956787109 43.82411956787109 C 46.07479858398438 41.57344055175781 47.84162139892578 38.95310211181641 49.07548904418945 36.035888671875 C 50.35250091552734 33.01670074462891 51 29.80835914611816 51 26.5 C 51 23.19164085388184 50.35250091552734 19.98329925537109 49.07548904418945 16.964111328125 C 47.84162139892578 14.04690170288086 46.07479858398438 11.42655944824219 43.82411956787109 9.175880432128906 C 41.57344055175781 6.925201416015625 38.95310211181641 5.158378601074219 36.035888671875 3.924510955810547 C 33.01670074462891 2.647499084472656 29.80835914611816 2 26.5 2 M 26.5 0 C 41.13555145263672 0 53 11.86444854736328 53 26.5 C 53 41.13555145263672 41.13555145263672 53 26.5 53 C 11.86444854736328 53 0 41.13555145263672 0 26.5 C 0 11.86444854736328 11.86444854736328 0 26.5 0 Z" stroke="none" fill="#bcbcbc"/>
      </g>
    </g>
    <path id="Icon_metro-attachment" data-name="Icon metro-attachment" d="M18.39,9.593,16.868,8.072,9.255,15.683a3.229,3.229,0,1,0,4.567,4.567l9.135-9.134A5.382,5.382,0,0,0,15.346,3.5l-9.591,9.59-.021.02A7.507,7.507,0,0,0,16.351,23.73l.019-.021h0l6.547-6.546-1.523-1.522-6.547,6.545-.02.02a5.353,5.353,0,0,1-7.572-7.57l.021-.02h0l9.592-9.59a3.229,3.229,0,0,1,4.568,4.567L12.3,18.727a1.076,1.076,0,0,1-1.523-1.522L18.39,9.593Z" transform="translate(-13576.535 3179.072)" fill="#fff" opacity="0.82"/>
  </g>
</svg>
