<svg xmlns="http://www.w3.org/2000/svg" xmlns:xlink="http://www.w3.org/1999/xlink" width="71" height="71" viewBox="0 0 71 71">
  <defs>
    <filter id="Rectangle_11456" x="0" y="0" width="71" height="71" filterUnits="userSpaceOnUse">
      <feOffset dy="3" input="SourceAlpha"/>
      <feGaussianBlur stdDeviation="3" result="blur"/>
      <feFlood flood-opacity="0.161"/>
      <feComposite operator="in" in2="blur"/>
      <feComposite in="SourceGraphic"/>
    </filter>
  </defs>
  <g id="Group_40042" data-name="Group 40042" transform="translate(13661 -3160)">
    <g transform="matrix(1, 0, 0, 1, -13661, 3160)" filter="url(#Rectangle_11456)">
      <g id="Rectangle_11456-2" data-name="Rectangle 11456" transform="translate(9 6)" fill="#4a5055" stroke="#bcbcbc" stroke-width="2">
        <rect width="53" height="53" rx="26.5" stroke="none"/>
        <rect x="1" y="1" width="51" height="51" rx="25.5" fill="none"/>
      </g>
    </g>
    <g id="noun_Subtask_935875" transform="translate(-13650 3165)" opacity="0.82">
      <g id="Group_39910" data-name="Group 39910" transform="translate(7 15)">
        <path id="Path_58949" data-name="Path 58949" d="M38.765,31.941H21.824a3.535,3.535,0,0,0-3.458,2.824H12.647V22.059H38.765a3.529,3.529,0,1,0,0-7.059H10.529a3.529,3.529,0,1,0,0,7.059h.706V35.471a.706.706,0,0,0,.706.706h6.424A3.535,3.535,0,0,0,21.824,39H38.765a3.529,3.529,0,0,0,0-7.059ZM8.412,18.529a2.12,2.12,0,0,1,2.118-2.118H38.765a2.118,2.118,0,1,1,0,4.235H10.529A2.12,2.12,0,0,1,8.412,18.529ZM38.765,37.588H21.824a2.118,2.118,0,0,1,0-4.235H38.765a2.118,2.118,0,1,1,0,4.235Z" transform="translate(-7 -15)" fill="#fff"/>
      </g>
    </g>
  </g>
</svg>
