<svg width="78" height="101" viewBox="0 0 78 101" fill="none" xmlns="http://www.w3.org/2000/svg">
<g clip-path="url(#clip0)">
<path d="M11.7574 90.8445H5.03642C4.59112 90.8445 4.16406 91.0214 3.84919 91.3363C3.53432 91.6511 3.35742 92.0782 3.35742 92.5235V99.2445C3.35742 99.6898 3.53432 100.117 3.84919 100.432C4.16406 100.747 4.59112 100.923 5.03642 100.923H11.7574C12.2019 100.922 12.6276 100.745 12.9414 100.43C13.2552 100.115 13.4314 99.6889 13.4314 99.2445V92.5235C13.4314 92.079 13.2552 91.6527 12.9414 91.338C12.6276 91.0233 12.2019 90.8458 11.7574 90.8445ZM10.0784 97.5605H6.71542V94.2025H10.0734L10.0784 97.5605Z" fill="url(#paint0_linear)"/>
<path d="M62.1285 90.8445H55.4075C54.9622 90.8445 54.5352 91.0214 54.2203 91.3363C53.9054 91.6511 53.7285 92.0782 53.7285 92.5235V99.2445C53.7285 99.6898 53.9054 100.117 54.2203 100.432C54.5352 100.747 54.9622 100.923 55.4075 100.923H62.1285C62.5729 100.922 62.9987 100.745 63.3125 100.43C63.6263 100.115 63.8025 99.6889 63.8025 99.2445V92.5235C63.8025 92.079 63.6263 91.6527 63.3125 91.338C62.9987 91.0233 62.5729 90.8458 62.1285 90.8445ZM60.4495 97.5605H57.0865V94.2025H60.4445L60.4495 97.5605Z" fill="url(#paint1_linear)"/>
<path d="M52.0486 65.6634V58.9424C52.0486 58.498 51.8724 58.0717 51.5586 57.757C51.2448 57.4422 50.819 57.2648 50.3746 57.2634H43.6536C43.2083 57.2634 42.7813 57.4403 42.4664 57.7552C42.1515 58.0701 41.9746 58.4971 41.9746 58.9424V65.6634C41.9746 66.1087 42.1515 66.5358 42.4664 66.8507C42.7813 67.1655 43.2083 67.3424 43.6536 67.3424H50.3746C50.819 67.3411 51.2448 67.1636 51.5586 66.8489C51.8724 66.5342 52.0486 66.1079 52.0486 65.6634ZM48.6906 63.9844H45.3326V60.6214H48.6906V63.9844Z" fill="url(#paint2_linear)"/>
<path d="M75.5621 57.2634H68.8411C68.6206 57.2634 68.4023 57.3069 68.1986 57.3912C67.9949 57.4756 67.8098 57.5993 67.6539 57.7552C67.498 57.9111 67.3743 58.0962 67.2899 58.2999C67.2055 58.5036 67.1621 58.7219 67.1621 58.9424V65.6634C67.1621 65.8839 67.2055 66.1022 67.2899 66.306C67.3743 66.5097 67.498 66.6947 67.6539 66.8507C67.8098 67.0066 67.9949 67.1302 68.1986 67.2146C68.4023 67.299 68.6206 67.3424 68.8411 67.3424H75.5621C76.0065 67.3411 76.4323 67.1636 76.7461 66.8489C77.0599 66.5342 77.2361 66.1079 77.2361 65.6634V58.9424C77.2361 58.498 77.0599 58.0717 76.7461 57.757C76.4323 57.4422 76.0065 57.2648 75.5621 57.2634ZM73.8831 63.9794H70.5201V60.6214H73.8781L73.8831 63.9794Z" fill="url(#paint3_linear)"/>
<path d="M57.0862 37.1154V47.1894H47.0122C46.5669 47.1894 46.1398 47.3663 45.8249 47.6812C45.5101 47.9961 45.3332 48.4231 45.3332 48.8684V53.9054H48.6912V50.5474H70.5182V53.9054H73.8762V48.8684C73.8762 48.4235 73.6995 47.9967 73.3851 47.6819C73.0707 47.3671 72.6441 47.19 72.1992 47.1894H60.4442V35.4364C60.4442 34.9911 60.2673 34.5641 59.9524 34.2492C59.6375 33.9343 59.2105 33.7574 58.7652 33.7574H34.5232C32.0165 29.4158 28.4695 25.7657 24.2014 23.1357C19.9334 20.5057 15.0782 18.9785 10.0732 18.6914V16.7994C12.1129 16.3833 13.9254 15.2247 15.1594 13.5481C16.3934 11.8715 16.9608 9.79639 16.7517 7.72518C16.5426 5.65397 15.5718 3.73419 14.0276 2.33807C12.4835 0.941945 10.4759 0.168945 8.39416 0.168945C6.31242 0.168945 4.30484 0.941945 2.76067 2.33807C1.2165 3.73419 0.245752 5.65397 0.0366446 7.72518C-0.172463 9.79639 0.394968 11.8715 1.62892 13.5481C2.86287 15.2247 4.67543 16.3833 6.71516 16.7994V20.3254C6.71516 20.5463 6.75875 20.7651 6.84344 20.9691C6.92813 21.1732 7.05225 21.3585 7.20869 21.5144C7.36513 21.6704 7.55081 21.794 7.7551 21.8781C7.95938 21.9622 8.17825 22.0051 8.39916 22.0044C15.1755 21.9988 21.7037 24.5542 26.6754 29.1586C31.6471 33.7631 34.6951 40.0763 35.2084 46.8332C35.7218 53.5901 33.6627 60.2913 29.4437 65.5941C25.2247 70.8968 19.1576 74.4092 12.4582 75.4274C10.8621 75.6561 9.40236 76.4534 8.34736 77.6727C7.29237 78.8919 6.71311 80.4511 6.71616 82.0634V82.6694L4.28916 81.0524C3.91865 80.8053 3.46513 80.7154 3.02836 80.8026C2.59158 80.8898 2.20734 81.1469 1.96016 81.5174C1.71298 81.8879 1.6231 82.3415 1.71031 82.7782C1.79751 83.215 2.05465 83.5993 2.42516 83.8464L7.46216 87.2044C7.7381 87.3886 8.06241 87.4869 8.39416 87.4869C8.72591 87.4869 9.05022 87.3886 9.32616 87.2044L14.3632 83.8464C14.5466 83.724 14.7042 83.5667 14.8268 83.3834C14.9495 83.2002 15.0348 82.9945 15.078 82.7782C15.1212 82.562 15.1214 82.3393 15.0785 82.123C15.0356 81.9067 14.9506 81.7009 14.8282 81.5174C14.7058 81.334 14.5484 81.1764 14.3652 81.0538C14.1819 80.9311 13.9762 80.8458 13.76 80.8026C13.5437 80.7594 13.321 80.7592 13.1047 80.8021C12.8884 80.845 12.6826 80.93 12.4992 81.0524L10.0732 82.6694V82.0634C10.0772 81.2572 10.3713 80.4793 10.9015 79.8719C11.4318 79.2646 12.1628 78.8683 12.9612 78.7554C20.089 77.6294 26.5838 74.0045 31.2842 68.529C35.9845 63.0536 38.5838 56.0846 38.6172 48.8684C38.6167 44.8306 37.8022 40.8343 36.2222 37.1184L57.0862 37.1154ZM3.35716 8.57143C3.35736 7.57547 3.65281 6.60191 4.20619 5.77382C4.75956 4.94573 5.546 4.30028 6.46612 3.91905C7.38624 3.53782 8.39873 3.43792 9.37561 3.63198C10.3525 3.82604 11.2499 4.30535 11.9544 5.00933C12.659 5.7133 13.139 6.61035 13.3338 7.58707C13.5287 8.5638 13.4296 9.57636 13.0491 10.4968C12.6686 11.4172 12.0238 12.2042 11.1961 12.7582C10.3684 13.3122 9.39513 13.6084 8.39916 13.6094C7.73719 13.6101 7.08158 13.4803 6.46982 13.2274C5.85806 12.9745 5.30215 12.6034 4.83388 12.1355C4.3656 11.6676 3.99416 11.112 3.74077 10.5005C3.48738 9.88892 3.35703 9.23341 3.35716 8.57143Z" fill="url(#paint4_linear)"/>
<path d="M57.087 87.4854H60.445V79.0954C60.445 78.8749 60.4016 78.6566 60.3172 78.4529C60.2328 78.2492 60.1091 78.0641 59.9532 77.9082C59.7973 77.7523 59.6122 77.6286 59.4085 77.5442C59.2048 77.4599 58.9865 77.4164 58.766 77.4164H48.692V70.6954H45.334V79.0954C45.334 79.5407 45.5109 79.9678 45.8258 80.2827C46.1406 80.5975 46.5677 80.7744 47.013 80.7744H57.087V87.4854Z" fill="url(#paint5_linear)"/>
<path d="M73.457 70.4344H70.457V74.4344H73.457V70.4344Z" fill="url(#paint6_linear)"/>
<path d="M11.457 25.4344H6.45703V27.4344H11.457V25.4344Z" fill="url(#paint7_linear)"/>
<path d="M11.457 32.4344H6.45703V35.4344H11.457V32.4344Z" fill="url(#paint8_linear)"/>
<path d="M11.457 38.4344H6.45703V41.4344H11.457V38.4344Z" fill="url(#paint9_linear)"/>
<path d="M11.457 62.4344H6.45703V66.4344H11.457V62.4344Z" fill="url(#paint10_linear)"/>
<path d="M11.457 69.4344H6.45703V72.4344H11.457V69.4344Z" fill="url(#paint11_linear)"/>
<path d="M73.457 77.4344H70.457V80.4344H73.457V77.4344Z" fill="url(#paint12_linear)"/>
<path d="M67.457 77.4344H62.457V80.4344H67.457V77.4344Z" fill="url(#paint13_linear)"/>
<path d="M1.67969 52.2265C1.67969 53.5548 2.07357 54.8533 2.81154 55.9577C3.5495 57.0621 4.5984 57.923 5.82559 58.4313C7.05277 58.9396 8.40314 59.0726 9.70591 58.8135C11.0087 58.5543 12.2054 57.9147 13.1446 56.9754C14.0839 56.0362 14.7235 54.8395 14.9826 53.5367C15.2418 52.2339 15.1088 50.8836 14.6005 49.6564C14.0921 48.4292 13.2313 47.3803 12.1269 46.6423C11.0225 45.9044 9.72399 45.5105 8.39569 45.5105C6.61449 45.5105 4.90625 46.2181 3.64676 47.4776C2.38726 48.7371 1.67969 50.4453 1.67969 52.2265ZM8.39569 48.8685C9.05984 48.8685 9.70907 49.0654 10.2613 49.4344C10.8135 49.8034 11.2439 50.3279 11.4981 50.9414C11.7522 51.555 11.8187 52.2302 11.6892 52.8816C11.5596 53.533 11.2398 54.1313 10.7702 54.601C10.3005 55.0706 9.70219 55.3904 9.0508 55.52C8.39941 55.6495 7.72423 55.583 7.11064 55.3289C6.49704 55.0747 5.97259 54.6443 5.60361 54.0921C5.23463 53.5399 5.03769 52.8906 5.03769 52.2265C5.03769 51.3359 5.39148 50.4818 6.02122 49.852C6.65097 49.2223 7.50509 48.8685 8.39569 48.8685Z" fill="url(#paint14_linear)"/>
</g>
<defs>
<linearGradient id="paint0_linear" x1="8.39442" y1="90.8445" x2="8.39442" y2="100.923" gradientUnits="userSpaceOnUse">
<stop stop-color="#FFECD2"/>
<stop offset="1" stop-color="#FCB69F"/>
</linearGradient>
<linearGradient id="paint1_linear" x1="58.7655" y1="90.8445" x2="58.7655" y2="100.923" gradientUnits="userSpaceOnUse">
<stop stop-color="#FFECD2"/>
<stop offset="1" stop-color="#FCB69F"/>
</linearGradient>
<linearGradient id="paint2_linear" x1="47.0116" y1="57.2634" x2="47.0116" y2="67.3424" gradientUnits="userSpaceOnUse">
<stop stop-color="#FFECD2"/>
<stop offset="1" stop-color="#FCB69F"/>
</linearGradient>
<linearGradient id="paint3_linear" x1="72.1991" y1="57.2634" x2="72.1991" y2="67.3424" gradientUnits="userSpaceOnUse">
<stop stop-color="#FFECD2"/>
<stop offset="1" stop-color="#FCB69F"/>
</linearGradient>
<linearGradient id="paint4_linear" x1="36.9352" y1="0.168945" x2="36.9352" y2="87.4869" gradientUnits="userSpaceOnUse">
<stop stop-color="#FFECD2"/>
<stop offset="1" stop-color="#FCB69F"/>
</linearGradient>
<linearGradient id="paint5_linear" x1="52.8895" y1="70.6954" x2="52.8895" y2="87.4854" gradientUnits="userSpaceOnUse">
<stop stop-color="#FFECD2"/>
<stop offset="1" stop-color="#FCB69F"/>
</linearGradient>
<linearGradient id="paint6_linear" x1="71.957" y1="70.4344" x2="71.957" y2="74.4344" gradientUnits="userSpaceOnUse">
<stop stop-color="#FFECD2"/>
<stop offset="1" stop-color="#FCB69F"/>
</linearGradient>
<linearGradient id="paint7_linear" x1="8.95703" y1="25.4344" x2="8.95703" y2="27.4344" gradientUnits="userSpaceOnUse">
<stop stop-color="#FFECD2"/>
<stop offset="1" stop-color="#FCB69F"/>
</linearGradient>
<linearGradient id="paint8_linear" x1="8.95703" y1="32.4344" x2="8.95703" y2="35.4344" gradientUnits="userSpaceOnUse">
<stop stop-color="#FFECD2"/>
<stop offset="1" stop-color="#FCB69F"/>
</linearGradient>
<linearGradient id="paint9_linear" x1="8.95703" y1="38.4344" x2="8.95703" y2="41.4344" gradientUnits="userSpaceOnUse">
<stop stop-color="#FFECD2"/>
<stop offset="1" stop-color="#FCB69F"/>
</linearGradient>
<linearGradient id="paint10_linear" x1="8.95703" y1="62.4344" x2="8.95703" y2="66.4344" gradientUnits="userSpaceOnUse">
<stop stop-color="#FFECD2"/>
<stop offset="1" stop-color="#FCB69F"/>
</linearGradient>
<linearGradient id="paint11_linear" x1="8.95703" y1="69.4344" x2="8.95703" y2="72.4344" gradientUnits="userSpaceOnUse">
<stop stop-color="#FFECD2"/>
<stop offset="1" stop-color="#FCB69F"/>
</linearGradient>
<linearGradient id="paint12_linear" x1="71.957" y1="77.4344" x2="71.957" y2="80.4344" gradientUnits="userSpaceOnUse">
<stop stop-color="#FFECD2"/>
<stop offset="1" stop-color="#FCB69F"/>
</linearGradient>
<linearGradient id="paint13_linear" x1="64.957" y1="77.4344" x2="64.957" y2="80.4344" gradientUnits="userSpaceOnUse">
<stop stop-color="#FFECD2"/>
<stop offset="1" stop-color="#FCB69F"/>
</linearGradient>
<linearGradient id="paint14_linear" x1="8.39569" y1="45.5105" x2="8.39569" y2="58.9425" gradientUnits="userSpaceOnUse">
<stop stop-color="#FFECD2"/>
<stop offset="1" stop-color="#FCB69F"/>
</linearGradient>
<clipPath id="clip0">
<rect width="77.236" height="100.74" fill="white" transform="translate(0 0.178467)"/>
</clipPath>
</defs>
</svg>
