<svg width="36" height="26" viewBox="0 0 36 26" fill="none" xmlns="http://www.w3.org/2000/svg">
<path d="M36 22C36 24.209 34.209 26 32 26H4C1.791 26 0 24.209 0 22V4C0 1.791 1.791 0 4 0H32C34.209 0 36 1.791 36 4V22Z" fill="#CCD6DD"/>
<path d="M11.9501 12.636L0.637148 23.949C0.610148 23.977 0.600148 24.012 0.577148 24.04C0.917148 24.61 1.39115 25.083 1.96115 25.424C1.99015 25.401 2.02415 25.391 2.05115 25.364L13.3651 14.05C13.7551 13.659 13.7551 13.027 13.3651 12.636C12.9731 12.245 12.3411 12.245 11.9501 12.636ZM35.4231 24.04C35.4021 24.012 35.3901 23.977 35.3631 23.95L24.0511 12.636C23.6591 12.245 23.0271 12.245 22.6361 12.636C22.2451 13.028 22.2451 13.66 22.6361 14.05L33.9492 25.364C33.9752 25.39 34.0112 25.401 34.0392 25.424C34.6101 25.084 35.0831 24.61 35.4231 24.04Z" fill="#99AAB5"/>
<path d="M32 0H4C1.791 0 0 1.791 0 4V5.03L14.528 19.526C16.422 21.419 19.516 21.419 21.412 19.526L36 5.009V4C36 1.791 34.209 0 32 0Z" fill="#99AAB5"/>
<path d="M32.0003 0H4.00027C2.41227 0 1.05127 0.934 0.405273 2.275L15.1713 17.042C16.7333 18.604 19.2673 18.604 20.8283 17.042L35.5953 2.275C34.9493 0.934 33.5893 0 32.0003 0Z" fill="#E1E8ED"/>
</svg>
