<svg width="36" height="30" viewBox="0 0 36 30" fill="none" xmlns="http://www.w3.org/2000/svg">
<path d="M34 23.096C33.583 22.133 33.104 21.088 32 21.088H31C32.104 21.088 33 20.189 33 19.08V2.008C33 0.899 32.104 0 31 0H5C3.896 0 3 0.899 3 2.008V19.08C3 20.189 3.896 21.088 5 21.088H4C2.896 21.088 2.333 22.092 2 23.096L0 27.991C0 29.101 0.896 30 2 30H34C35.104 30 36 29.101 36 27.992L34 23.096Z" fill="#CCD6DD"/>
<path d="M0.0078125 28.075L0.0138125 28.132L0.183812 28.824C0.499813 29.516 1.19181 30 1.99981 30H33.9998C35.0758 30 35.9468 29.145 35.9918 28.075H0.0078125Z" fill="#9AAAB4"/>
<path d="M31 18.075C31 18.63 30.553 19.079 30 19.079H6C5.448 19.079 5 18.63 5 18.075V3.01303C5 2.45803 5.448 2.00903 6 2.00903H30C30.553 2.00903 31 2.45903 31 3.01303V18.075Z" fill="#5DADEC"/>
<path d="M32.9064 25.042L32.1464 22.867C31.9074 22.407 31.5114 22.03 30.9584 22.03H5.11035C4.55835 22.03 4.20435 22.438 3.95435 23.066L3.26635 25.043C3.04735 25.639 3.71435 26.047 4.26635 26.047H11.8444C11.8444 26.047 12.7814 26 12.9474 25.439C13.1394 24.791 13.3624 23.815 13.4104 23.643C13.4844 23.379 13.7984 23.112 14.2664 23.112H22.8444C23.3444 23.112 23.5904 23.365 23.6554 23.678C23.6974 23.882 23.9674 24.819 24.0934 25.46C24.2044 26.031 25.3144 26.046 25.3144 26.046H31.9084C32.4594 26.046 33.1254 25.575 32.9064 25.042Z" fill="#AEBBC1"/>
<path d="M22.3747 27.113H14.5937C14.2187 27.113 14.0557 26.77 14.1097 26.438C14.1637 26.107 14.4687 24.645 14.4927 24.475C14.5157 24.304 14.7667 24.1 15.0167 24.1H22.0317C22.3287 24.1 22.5217 24.263 22.5817 24.589C22.6407 24.916 22.8837 26.23 22.9027 26.53C22.9217 26.831 22.7337 27.113 22.3747 27.113Z" fill="#9AAAB4"/>
</svg>
