<svg width="36" height="36" viewBox="0 0 36 36" fill="none" xmlns="http://www.w3.org/2000/svg">
<path d="M32 0H10C7.791 0 6 1.791 6 4V28H4C1.791 28 0 29.791 0 32C0 34.209 1.791 36 4 36H28C30.209 36 32 34.209 32 32V8C34.209 8 36 6.209 36 4C36 1.791 34.209 0 32 0Z" fill="#FFD983"/>
<path d="M8 10H32V8H10L8 7V10Z" fill="#E39F3D"/>
<path d="M10 0C7.791 0 6 1.791 6 4V28.555C5.41 28.211 4.732 28 4 28C1.791 28 0 29.791 0 32C0 34.209 1.791 36 4 36C6.209 36 8 34.209 8 32V7.445C8.59 7.789 9.268 8 10 8C12.209 8 14 6.209 14 4C14 1.791 12.209 0 10 0Z" fill="#FFE8B6"/>
<path d="M12 4C12 5.104 11.104 6 10 6C8.896 6 8 5.104 8 4C8 2.896 8.896 2 10 2C11.104 2 12 2.896 12 4ZM6 32C6 33.104 5.104 34 4 34C2.896 34 2 33.104 2 32C2 30.896 2.896 30 4 30C5.104 30 6 30.896 6 32ZM30 15C30 15.552 29.553 16 29 16H11C10.448 16 10 15.552 10 15C10 14.448 10.448 14 11 14H29C29.553 14 30 14.448 30 15ZM30 19C30 19.553 29.553 20 29 20H11C10.448 20 10 19.553 10 19C10 18.447 10.448 18 11 18H29C29.553 18 30 18.447 30 19ZM30 23C30 23.553 29.553 24 29 24H11C10.448 24 10 23.553 10 23C10 22.447 10.448 22 11 22H29C29.553 22 30 22.447 30 23ZM30 27C30 27.553 29.553 28 29 28H11C10.448 28 10 27.553 10 27C10 26.447 10.448 26 11 26H29C29.553 26 30 26.447 30 27Z" fill="#C1694F"/>
</svg>
