<svg width="35" height="36" viewBox="0 0 35 36" fill="none" xmlns="http://www.w3.org/2000/svg">
<path d="M30 32C30 34.209 28.209 36 26 36H4C1.791 36 0 34.209 0 32V4C0 1.791 1.791 0 4 0H26C28.209 0 30 1.791 30 4V32Z" fill="#CCD6DD"/>
<path d="M26 24C26 24.553 25.553 25 25 25H5C4.448 25 4 24.553 4 24C4 23.447 4.448 23 5 23H25C25.553 23 26 23.447 26 24ZM10 28C10 28.553 9.552 29 9 29H5C4.448 29 4 28.553 4 28C4 27.447 4.448 27 5 27H9C9.552 27 10 27.447 10 28ZM26 8C26 8.552 25.553 9 25 9H5C4.448 9 4 8.552 4 8C4 7.448 4.448 7 5 7H25C25.553 7 26 7.448 26 8ZM26 12C26 12.553 25.553 13 25 13H5C4.448 13 4 12.553 4 12C4 11.447 4.448 11 5 11H25C25.553 11 26 11.447 26 12ZM26 16C26 16.553 25.553 17 25 17H5C4.448 17 4 16.553 4 16C4 15.447 4.448 15 5 15H25C25.553 15 26 15.447 26 16ZM26 20C26 20.553 25.553 21 25 21H5C4.448 21 4 20.553 4 20C4 19.447 4.448 19 5 19H25C25.553 19 26 19.447 26 20Z" fill="#99AAB5"/>
<path d="M30.0003 6.27196C29.1733 5.73696 28.1633 5.69296 27.4793 6.24896L26.6873 6.89496L25.2033 8.10596L25.1033 8.18596L22.7273 10.124L10.8493 19.81C10.4123 20.167 10.0563 21.029 9.67629 21.884C9.29829 22.734 8.70729 24.736 8.23329 26.275C8.08529 26.525 7.16829 28.121 7.68229 28.728C8.20229 29.343 10.0083 28.738 10.2503 28.652C11.8763 28.478 13.9813 28.279 14.8983 28.072C15.8223 27.861 16.7523 27.677 17.1893 27.32C17.1973 27.314 17.1993 27.302 17.2063 27.297L29.0643 17.631L29.8563 16.985L30.0003 16.867V6.27196Z" fill="#66757F"/>
<path d="M17.1453 22.526C17.1453 22.526 15.8713 20.645 15.0283 19.973C14.3563 19.13 12.4793 17.857 12.4793 17.857C12.0313 17.411 11.2883 17.377 10.8503 17.814C10.4133 18.252 10.0573 19.18 9.67725 20.105C9.20525 21.251 8.40125 24.259 7.90925 25.857C7.82625 26.129 8.42625 25.407 8.41225 25.647C8.40225 25.834 8.43925 26.041 8.48625 26.228L8.34025 26.387L8.54825 26.454C8.57325 26.536 8.59825 26.608 8.61625 26.664L8.77525 26.518C8.96225 26.565 9.16925 26.602 9.35525 26.592C9.59525 26.578 8.87225 27.179 9.14525 27.095C10.7433 26.602 13.7523 25.799 14.8973 25.327C15.8213 24.946 16.7513 24.591 17.1883 24.153C17.6273 23.718 17.5943 22.975 17.1453 22.526Z" fill="#D99E82"/>
<path d="M24.3123 4.35098C23.4363 5.22598 23.4363 6.64398 24.3123 7.51898L27.4793 10.687C28.3553 11.561 29.7733 11.561 30.6473 10.687L33.8163 7.51898C34.6903 6.64398 34.6903 5.22598 33.8163 4.35098L30.6473 1.18298C29.7733 0.307983 28.3553 0.307983 27.4793 1.18298L24.3123 4.35098Z" fill="#EA596E"/>
<path d="M10.8486 17.815L14.0186 20.985L17.1836 24.151L29.0646 12.272L22.7276 5.93604L10.8486 17.815Z" fill="#FFCC4D"/>
<path d="M10.2978 26.742C10.2978 26.742 8.23782 27.875 7.68182 27.318C7.12482 26.76 8.26282 24.707 8.26282 24.707C8.26282 24.707 10.2138 24.743 10.2978 26.742Z" fill="#292F33"/>
<path d="M22.7275 5.93498L26.6875 1.97498L33.0235 8.31198L29.0635 12.272L22.7275 5.93498Z" fill="#CCD6DD"/>
<path d="M25.1025 3.55799L25.8945 2.76599L32.2305 9.10099L31.4385 9.89299L25.1025 3.55799ZM23.5195 5.14199L24.3105 4.35099L30.6465 10.686L29.8545 11.478L23.5195 5.14199Z" fill="#99AAB5"/>
</svg>
