<svg width="42" height="42" viewBox="0 0 42 42" fill="none" xmlns="http://www.w3.org/2000/svg">
<path d="M21 42C32.598 42 42 32.598 42 21C42 9.40202 32.598 0 21 0C9.40202 0 0 9.40202 0 21C0 32.598 9.40202 42 21 42Z" fill="#F4900C"/>
<path d="M21.0007 37.9161C30.3435 37.9161 37.9173 30.3422 37.9173 20.9994C37.9173 11.6566 30.3435 4.08276 21.0007 4.08276C11.6578 4.08276 4.08398 11.6566 4.08398 20.9994C4.08398 30.3422 11.6578 37.9161 21.0007 37.9161Z" fill="#FFD983"/>
<path d="M21.0007 36.1661C29.377 36.1661 36.1673 29.3758 36.1673 20.9994C36.1673 12.6231 29.377 5.83276 21.0007 5.83276C12.6243 5.83276 5.83398 12.6231 5.83398 20.9994C5.83398 29.3758 12.6243 36.1661 21.0007 36.1661Z" fill="#F5F8FA"/>
<path d="M21.0007 9.33276L22.7868 16.6874L29.2501 12.7499L25.3126 19.2133L32.6673 20.9994L25.3126 22.7856L29.2501 29.2489L22.7868 25.3114L21.0007 32.6661L19.2145 25.3114L12.7512 29.2489L16.6887 22.7856L9.33398 20.9994L16.6887 19.2133L12.7512 12.7499L19.2145 16.6874L21.0007 9.33276Z" fill="#CCD6DD"/>
<path d="M20.2334 24.2061L30.4732 30.4839L24.1977 20.2429L20.2334 24.2061Z" fill="#292F33"/>
<path d="M21.7664 17.8118L11.5254 11.5339L17.8021 21.7761L21.7664 17.8118Z" fill="#DD2E44"/>
<path d="M20.9997 24.5736C22.9681 24.5736 24.5639 22.9779 24.5639 21.0095C24.5639 19.041 22.9681 17.4453 20.9997 17.4453C19.0313 17.4453 17.4355 19.041 17.4355 21.0095C17.4355 22.9779 19.0313 24.5736 20.9997 24.5736Z" fill="#8899A6"/>
<path d="M20.9998 22.9313C22.0617 22.9313 22.9225 22.0705 22.9225 21.0086C22.9225 19.9467 22.0617 19.0859 20.9998 19.0859C19.938 19.0859 19.0771 19.9467 19.0771 21.0086C19.0771 22.0705 19.938 22.9313 20.9998 22.9313Z" fill="#F5F8FA"/>
</svg>
