<svg width="34" height="34" viewBox="0 0 34 34" fill="none" xmlns="http://www.w3.org/2000/svg">
<path d="M4 1H30C31.657 1 33 2.343 33 4V30C33 31.657 31.657 33 30 33H4C2.343 33 1 31.657 1 30V4C1 2.343 2.343 1 4 1Z" fill="#CCD6DD"/>
<path d="M4 0H30C32.209 0 34 1.791 34 4V30C34 32.209 32.209 34 30 34H4C1.791 34 0 32.209 0 30V4C0 1.791 1.791 0 4 0ZM4 2C2.897 2 2 2.897 2 4V8H8V2H4ZM8 18H2V24H8V18ZM8 16V10H2V16H8ZM10 2V8H16V2H10ZM16 10H10V16H16V10ZM16 18H10V24H16V18ZM18 2V8H24V2H18ZM24 10H18V16H24V10ZM24 18H18V24H24V18ZM32 4C32 2.897 31.103 2 30 2H26V8H32V4ZM32 10H26V16H32V10ZM32 18H26V24H32V18ZM30 32C31.103 32 32 31.103 32 30V26H26V32H30ZM24 32V26H18V32H24ZM16 32V26H10V32H16ZM4 32H8V26H2V30C2 31.103 2.897 32 4 32Z" fill="#E1E8ED"/>
<path d="M3.99835 32C4.71935 32 5.41435 31.61 5.77235 30.928L15.5104 12.338L21.5864 18.414C22.0324 18.861 22.6624 19.074 23.2914 18.978C23.9174 18.886 24.4624 18.504 24.7614 17.948L31.7614 4.94796C32.2854 3.97496 31.9214 2.76196 30.9484 2.23896C29.9734 1.71596 28.7624 2.07896 28.2394 3.05096L22.5134 13.684L16.4134 7.58496C15.9634 7.13496 15.3244 6.92596 14.6974 7.02196C14.0684 7.11796 13.5224 7.50696 13.2274 8.07096L2.22736 29.071C1.71436 30.05 2.09235 31.258 3.07135 31.77C3.36835 31.927 3.68535 32 3.99835 32Z" fill="#3B94D9"/>
</svg>
