<svg xmlns="http://www.w3.org/2000/svg" width="21" height="20" viewBox="0 0 21 20"><defs><style>.a{opacity:0.3;}.b{fill:#fff;}</style></defs><g class="a" transform="translate(0.5)"><path class="b" d="M19.5,14h-2V11a.945.945,0,0,0-1-1h-6V8h3a.945.945,0,0,0,1-1V1a.945.945,0,0,0-1-1h-8a.945.945,0,0,0-1,1V7a.945.945,0,0,0,1,1h3v2h-5a.945.945,0,0,0-1,1v3H.5a.945.945,0,0,0-1,1v4a.945.945,0,0,0,1,1h6a.945.945,0,0,0,1-1V15a.945.945,0,0,0-1-1h-2V12h11v2h-2a.945.945,0,0,0-1,1v4a.945.945,0,0,0,1,1h6a.945.945,0,0,0,1-1V15A1,1,0,0,0,19.5,14Z"/></g></svg>