<svg width="34" height="34" viewBox="0 0 34 34" fill="none" xmlns="http://www.w3.org/2000/svg">
<path d="M29.4191 0H4.58255C2.05227 0 0.000976562 2.0512 0.000976562 4.58157V29.4183C0.000976562 31.9486 2.05218 33.9998 4.58255 33.9998H16.8318L16.8527 21.8501H13.6962C13.286 21.8501 12.953 21.5184 12.9515 21.1082L12.9363 17.1919C12.9348 16.7794 13.2687 16.4442 13.6811 16.4442H16.8319V12.66C16.8319 8.26853 19.514 5.87732 23.4315 5.87732H26.6461C27.0574 5.87732 27.3909 6.21075 27.3909 6.62213V9.92442C27.3909 10.3356 27.0576 10.669 26.6465 10.6692L24.6737 10.6701C22.5433 10.6701 22.1307 11.6825 22.1307 13.1682V16.4443H26.8121C27.2582 16.4443 27.6043 16.8338 27.5517 17.2768L27.0875 21.1932C27.0431 21.5679 26.7253 21.8503 26.3479 21.8503H22.1516L22.1307 34H29.4193C31.9495 34 34.0007 31.9488 34.0007 29.4185V4.58157C34.0007 2.0512 31.9494 0 29.4191 0Z" fill="white"/>
</svg>
