<svg width="35" height="32" viewBox="0 0 35 32" fill="none" xmlns="http://www.w3.org/2000/svg">
<path d="M27.7816 3.29519L19.333 2.97196C19.1305 2.96553 18.928 2.9872 18.7314 3.03636C18.3299 3.12988 17.9592 3.32524 17.6552 3.60362L4.18707 16.4C3.70878 16.8508 3.42888 17.4729 3.40883 18.1299C3.3992 18.4517 3.45355 18.7723 3.56874 19.073C3.68392 19.3737 3.85765 19.6485 4.07985 19.8815L12.3468 28.6008C12.5692 28.8362 12.8365 29.0247 13.1328 29.1554C13.4292 29.286 13.7486 29.3561 14.0724 29.3615C14.3986 29.3689 14.723 29.312 15.0271 29.1939C15.3312 29.0757 15.609 28.8988 15.8446 28.6732L29.3172 15.8696C29.7581 15.4447 30.02 14.8674 30.0492 14.2558L30.1761 5.79886C30.1794 5.15255 29.9315 4.53022 29.4848 4.06314C29.0381 3.59605 28.4274 3.32071 27.7816 3.29519ZM26.6236 9.27242C26.3654 9.51794 26.0402 9.68133 25.6891 9.74189C25.338 9.80245 24.9769 9.75747 24.6514 9.61264C24.3259 9.4678 24.0507 9.22963 23.8606 8.92828C23.6706 8.62694 23.5742 8.27597 23.5838 7.91983C23.5933 7.56369 23.7083 7.21839 23.9143 6.92766C24.1202 6.63694 24.4078 6.41386 24.7406 6.28668C25.0734 6.1595 25.4364 6.13395 25.7838 6.21324C26.1311 6.29254 26.4471 6.47312 26.6917 6.73213C27.0188 7.07841 27.1952 7.54021 27.1825 8.01635C27.1697 8.4925 26.9687 8.94417 26.6236 9.27242Z" fill="#DADADA"/>
</svg>
