<svg width="34" height="39" viewBox="0 0 34 39" fill="none" xmlns="http://www.w3.org/2000/svg">
<path d="M18.4743 5.93277V4.29737H20.1465V0H13.0355V4.29737H14.7078V5.93277C12.4809 6.18583 10.3883 6.88047 8.5163 7.9287L7.1097 5.8214L4.90793 7.29083L6.31887 9.40463C2.47693 12.4458 0 17.1392 0 22.4081C0 31.5575 7.44293 39 16.591 39C25.7391 39 33.1821 31.5575 33.1821 22.409C33.1821 13.8983 26.738 6.87223 18.4743 5.93277ZM16.591 35.9831C9.10606 35.9831 3.01687 29.8939 3.01687 22.409C3.01687 14.9244 9.10606 8.8348 16.591 8.8348C24.0756 8.8348 30.1652 14.924 30.1652 22.409C30.1652 29.8939 24.0756 35.9831 16.591 35.9831Z" fill="#84FAB0"/>
<path d="M16.5911 11.4924V22.409V33.3255C22.62 33.3255 27.5076 28.4379 27.5076 22.409C27.5076 16.38 22.62 11.4924 16.5911 11.4924Z" fill="#84FAB0"/>
</svg>
