<svg width="11" height="11" viewBox="0 0 11 11" fill="none" xmlns="http://www.w3.org/2000/svg">
<path d="M10.9977 0.611115C10.9977 0.273604 10.7241 6.19227e-07 10.3866 6.19227e-07L6.71988 0C6.38237 0 6.10879 0.273604 6.10879 0.611115C6.10879 0.94862 6.38237 1.22223 6.71988 1.22223H9.03105L5.93204 4.32122C5.69339 4.55988 5.69339 4.94681 5.93204 5.18547C6.17068 5.42412 6.55763 5.42412 6.79627 5.18547L9.77544 2.20629V4.27779C9.77544 4.61529 10.049 4.8889 10.3866 4.8889C10.7241 4.8889 10.9977 4.61529 10.9977 4.27779V0.611115Z" fill="white" fill-opacity="0.93"/>
<path d="M4.88889 0.611111C4.88889 0.273606 4.61529 0 4.27778 0H1.22222C0.547208 0 0 0.547207 0 1.22222V9.77778C0 10.4528 0.547208 11 1.22222 11H9.77779C10.4528 11 11 10.4528 11 9.77778V6.72222C11 6.3847 10.7264 6.1111 10.3889 6.1111C10.0514 6.1111 9.77779 6.3847 9.77779 6.72222V9.77778H1.22222V1.22222H4.27778C4.61529 1.22222 4.88889 0.948622 4.88889 0.611111Z" fill="white" fill-opacity="0.93"/>
</svg>
