<svg width="20" height="20" viewBox="0 0 20 20" fill="none" xmlns="http://www.w3.org/2000/svg">
<path d="M5.71429 10.5286V17.3286C5.7124 18.0365 5.43034 18.7149 4.92976 19.2155C4.42918 19.7161 3.75078 19.9981 3.04286 20H2.67143C1.9635 19.9981 1.28511 19.7161 0.784526 19.2155C0.283944 18.7149 0.0018853 18.0365 0 17.3286V10.5286C0.0018853 9.82064 0.283944 9.14225 0.784526 8.64167C1.28511 8.14109 1.9635 7.85903 2.67143 7.85714H3.04286C3.75078 7.85903 4.42918 8.14109 4.92976 8.64167C5.43034 9.14225 5.7124 9.82064 5.71429 10.5286ZM10 0C9.24224 0 8.51551 0.30102 7.97969 0.836838C7.44388 1.37266 7.14286 2.09938 7.14286 2.85714V17.1429C7.14286 17.9006 7.44388 18.6273 7.97969 19.1632C8.51551 19.699 9.24224 20 10 20C10.7578 20 11.4845 19.699 12.0203 19.1632C12.5561 18.6273 12.8571 17.9006 12.8571 17.1429V2.85714C12.8571 2.09938 12.5561 1.37266 12.0203 0.836838C11.4845 0.30102 10.7578 0 10 0ZM17.1429 4.28571C16.3851 4.28571 15.6584 4.58673 15.1226 5.12255C14.5867 5.65837 14.2857 6.3851 14.2857 7.14286V17.1429C14.2857 17.9006 14.5867 18.6273 15.1226 19.1632C15.6584 19.699 16.3851 20 17.1429 20C17.9006 20 18.6273 19.699 19.1632 19.1632C19.699 18.6273 20 17.9006 20 17.1429V7.14286C20 6.3851 19.699 5.65837 19.1632 5.12255C18.6273 4.58673 17.9006 4.28571 17.1429 4.28571Z" fill="url(#paint0_linear)"/>
<defs>
<linearGradient id="paint0_linear" x1="0" y1="10" x2="20" y2="10" gradientUnits="userSpaceOnUse">
<stop stop-color="#FBC2EB"/>
<stop offset="1" stop-color="#A6C1EE"/>
</linearGradient>
</defs>
</svg>
