<svg width="19" height="20" viewBox="0 0 19 20" fill="none" xmlns="http://www.w3.org/2000/svg">
<path d="M13.2212 2.38592C13.2211 2.47368 13.2002 2.56017 13.1601 2.63824C13.12 2.71631 13.0619 2.78372 12.9905 2.83489L10.4294 4.6716C10.3467 4.73032 10.2496 4.76521 10.1485 4.77246C10.0474 4.7797 9.94625 4.75903 9.85611 4.7127C9.76597 4.66636 9.69029 4.59615 9.63735 4.50972C9.5844 4.42329 9.55622 4.32398 9.55589 4.22263V3.11448C9.48275 3.13485 9.40732 3.14583 9.3314 3.14713C7.90782 3.14737 6.5135 3.55134 5.31027 4.31215C4.10705 5.07296 3.14427 6.15942 2.53368 7.44541C1.92309 8.73139 1.68973 10.1642 1.8607 11.5775C2.03166 12.9907 2.59993 14.3266 3.49955 15.4298C4.39917 16.5331 5.59325 17.3587 6.94318 17.8106C8.29312 18.2626 9.74355 18.3224 11.1261 17.9832C12.5087 17.644 13.7667 16.9196 14.7542 15.8942C15.7416 14.8687 16.418 13.5843 16.7048 12.1899C16.7197 12.0664 16.7601 11.9473 16.8234 11.8401C16.8867 11.733 16.9715 11.6401 17.0725 11.5675C17.1735 11.4948 17.2885 11.4438 17.4102 11.4178C17.5319 11.3918 17.6576 11.3913 17.7795 11.4164C17.9014 11.4414 18.0168 11.4915 18.1183 11.5634C18.2199 11.6353 18.3054 11.7275 18.3695 11.8341C18.4337 11.9407 18.475 12.0595 18.4909 12.1829C18.5068 12.3063 18.4969 12.4317 18.4619 12.5511C18.1067 14.2793 17.2687 15.8713 16.045 17.1422C14.8213 18.4132 13.2622 19.311 11.5488 19.7314C9.83528 20.1518 8.03771 20.0775 6.36474 19.5173C4.69177 18.957 3.21204 17.9337 2.09733 16.5661C0.982631 15.1986 0.278687 13.5429 0.0672327 11.7914C-0.144221 10.0398 0.145488 8.26417 0.902726 6.67065C1.65996 5.07713 2.85367 3.73108 4.34524 2.78878C5.83681 1.84649 7.56507 1.3466 9.32936 1.34715C9.40528 1.34841 9.48072 1.35939 9.55385 1.3798V0.551243C9.55418 0.44989 9.58236 0.350577 9.63531 0.264152C9.68825 0.177726 9.76393 0.107511 9.85407 0.0611767C9.94421 0.014842 10.0454 -0.00583103 10.1464 0.00141566C10.2475 0.00866235 10.3447 0.04355 10.4273 0.102268L12.9885 1.93898C13.0599 1.98973 13.1182 2.05671 13.1587 2.13442C13.1991 2.21212 13.2205 2.29832 13.2212 2.38592ZM16.7619 9.48584C16.7961 9.69605 16.9036 9.88737 17.0653 10.0259C17.2271 10.1645 17.4326 10.2414 17.6456 10.243C17.6928 10.244 17.7399 10.2406 17.7864 10.2328C17.963 10.2066 18.1278 10.1285 18.2599 10.0085C18.3919 9.88842 18.4853 9.7318 18.5282 9.55852C18.571 9.38524 18.5614 9.20314 18.5005 9.03536C18.4396 8.86758 18.3301 8.7217 18.1861 8.61627C18.0421 8.51084 17.8699 8.45062 17.6916 8.44327C17.5133 8.43591 17.3368 8.48175 17.1845 8.57496C17.0323 8.66817 16.9112 8.80454 16.8367 8.96674C16.7622 9.12893 16.7376 9.30962 16.766 9.48584H16.7619ZM14.7007 5.07976C14.9126 5.07911 15.1175 5.00371 15.2793 4.86683C15.4411 4.72996 15.5493 4.54039 15.5851 4.33152C15.6208 4.12264 15.5817 3.90786 15.4746 3.725C15.3675 3.54214 15.1994 3.40293 14.9997 3.33188C14.8001 3.26083 14.5818 3.26251 14.3832 3.33661C14.1847 3.41072 14.0187 3.5525 13.9144 3.73699C13.8102 3.92147 13.7744 4.13683 13.8133 4.34513C13.8522 4.55343 13.9634 4.74131 14.1273 4.87568C14.2889 5.00825 14.4917 5.0804 14.7007 5.07976ZM16.2007 5.71241C16.0457 5.80032 15.9203 5.93228 15.8403 6.09155C15.7604 6.25082 15.7296 6.43024 15.7517 6.60706C15.7738 6.78388 15.848 6.95016 15.9647 7.0848C16.0814 7.21945 16.2355 7.31641 16.4074 7.3634C16.5793 7.41038 16.7613 7.40528 16.9303 7.34873C17.0993 7.29218 17.2477 7.18674 17.3567 7.04576C17.4657 6.90478 17.5304 6.73462 17.5426 6.55683C17.5548 6.37904 17.5139 6.20164 17.4252 6.0471C17.3067 5.84082 17.1115 5.68982 16.882 5.62711C16.6526 5.56439 16.4076 5.59506 16.2007 5.71241ZM14.1069 10.6675C14.1069 11.6095 13.8275 12.5304 13.3041 13.3138C12.7807 14.0971 12.0368 14.7076 11.1665 15.0681C10.2961 15.4286 9.33837 15.5229 8.41439 15.3391C7.49042 15.1554 6.6417 14.7017 5.97555 14.0356C5.3094 13.3694 4.85575 12.5207 4.67196 11.5967C4.48817 10.6727 4.5825 9.71501 4.94302 8.84465C5.30353 7.97429 5.91405 7.23038 6.69735 6.70699C7.48066 6.1836 8.40158 5.90424 9.34365 5.90424C10.6069 5.90424 11.8185 6.40608 12.7117 7.29935C13.605 8.19263 14.1069 9.40417 14.1069 10.6675ZM11.2355 11.7389L9.92323 10.4266V8.39809C9.92323 8.24438 9.86217 8.09696 9.75348 7.98826C9.64478 7.87957 9.49737 7.81851 9.34365 7.81851C9.18993 7.81851 9.04251 7.87957 8.93382 7.98826C8.82513 8.09696 8.76406 8.24438 8.76406 8.39809V10.9083L10.4151 12.5593C10.4666 12.6211 10.5305 12.6715 10.6027 12.7073C10.6748 12.7431 10.7536 12.7634 10.834 12.7671C10.9145 12.7707 10.9948 12.7575 11.0698 12.7284C11.1449 12.6993 11.2131 12.6548 11.27 12.5979C11.327 12.541 11.3714 12.4728 11.4005 12.3977C11.4296 12.3227 11.4428 12.2423 11.4392 12.1619C11.4355 12.0815 11.4152 12.0027 11.3794 11.9305C11.3436 11.8584 11.2932 11.7945 11.2314 11.743L11.2355 11.7389Z" fill="url(#paint0_linear)"/>
<defs>
<linearGradient id="paint0_linear" x1="0" y1="10" x2="18.5545" y2="10" gradientUnits="userSpaceOnUse">
<stop stop-color="#FBC2EB"/>
<stop offset="1" stop-color="#A6C1EE"/>
</linearGradient>
</defs>
</svg>
