<svg width="40" height="20" viewBox="0 0 40 20" fill="none" xmlns="http://www.w3.org/2000/svg">
<path d="M9 0C7.21997 0 5.47991 0.52784 3.99987 1.51677C2.51983 2.50571 1.36628 3.91131 0.685088 5.55585C0.00389951 7.20038 -0.17433 9.00998 0.172937 10.7558C0.520203 12.5016 1.37737 14.1053 2.63604 15.364C3.89472 16.6226 5.49836 17.4798 7.24419 17.8271C8.99002 18.1743 10.7996 17.9961 12.4442 17.3149C14.0887 16.6337 15.4943 15.4802 16.4832 14.0001C17.4722 12.5201 18 10.78 18 9C18 6.61305 17.0518 4.32387 15.364 2.63604C13.6761 0.948212 11.387 0 9 0ZM12.0605 12.0605C11.9213 12.1999 11.756 12.3104 11.574 12.3858C11.392 12.4612 11.197 12.5 11 12.5C10.803 12.5 10.608 12.4612 10.426 12.3858C10.244 12.3104 10.0787 12.1999 9.93946 12.0605L7.93946 10.0605C7.80012 9.92131 7.68958 9.75599 7.61417 9.57401C7.53877 9.39204 7.49997 9.19698 7.5 9V4.5C7.5 4.10218 7.65804 3.72065 7.93934 3.43934C8.22065 3.15804 8.60218 3 9 3C9.39783 3 9.77936 3.15804 10.0607 3.43934C10.342 3.72065 10.5 4.10218 10.5 4.5V8.3789L12.0605 9.93946C12.1999 10.0787 12.3104 10.244 12.3858 10.426C12.4612 10.608 12.5 10.803 12.5 11C12.5 11.197 12.4612 11.392 12.3858 11.574C12.3104 11.756 12.1999 11.9213 12.0605 12.0605Z" fill="url(#paint0_linear)"/>
<path d="M23 2H39C39.2652 2 39.5196 1.89464 39.7071 1.70711C39.8946 1.51957 40 1.26522 40 1C40 0.734784 39.8946 0.48043 39.7071 0.292893C39.5196 0.105357 39.2652 0 39 0H23C22.7348 0 22.4804 0.105357 22.2929 0.292893C22.1054 0.48043 22 0.734784 22 1C22 1.26522 22.1054 1.51957 22.2929 1.70711C22.4804 1.89464 22.7348 2 23 2Z" fill="url(#paint1_linear)"/>
<path d="M33 18H23C22.7348 18 22.4804 18.1053 22.2929 18.2929C22.1054 18.4804 22 18.7348 22 19C22 19.2652 22.1054 19.5195 22.2929 19.7071C22.4804 19.8946 22.7348 20 23 20H33C33.2652 20 33.5196 19.8946 33.7071 19.7071C33.8946 19.5195 34 19.2652 34 19C34 18.7348 33.8946 18.4804 33.7071 18.2929C33.5196 18.1053 33.2652 18 33 18Z" fill="url(#paint2_linear)"/>
<path d="M39 12H23C22.7348 12 22.4804 12.1054 22.2929 12.2929C22.1054 12.4805 22 12.7348 22 13C22 13.2652 22.1054 13.5196 22.2929 13.7071C22.4804 13.8947 22.7348 14 23 14H39C39.2652 14 39.5196 13.8947 39.7071 13.7071C39.8946 13.5196 40 13.2652 40 13C40 12.7348 39.8946 12.4805 39.7071 12.2929C39.5196 12.1054 39.2652 12 39 12Z" fill="url(#paint3_linear)"/>
<path d="M39 6H23C22.7348 6 22.4804 6.10536 22.2929 6.29289C22.1054 6.48043 22 6.73478 22 7C22 7.26522 22.1054 7.51957 22.2929 7.70711C22.4804 7.89464 22.7348 8 23 8H39C39.2652 8 39.5196 7.89464 39.7071 7.70711C39.8946 7.51957 40 7.26522 40 7C40 6.73478 39.8946 6.48043 39.7071 6.29289C39.5196 6.10536 39.2652 6 39 6Z" fill="url(#paint4_linear)"/>
<defs>
<linearGradient id="paint0_linear" x1="0" y1="9" x2="18" y2="9" gradientUnits="userSpaceOnUse">
<stop stop-color="#FBC2EB"/>
<stop offset="1" stop-color="#A6C1EE"/>
</linearGradient>
<linearGradient id="paint1_linear" x1="22" y1="1" x2="40" y2="1" gradientUnits="userSpaceOnUse">
<stop stop-color="#FBC2EB"/>
<stop offset="1" stop-color="#A6C1EE"/>
</linearGradient>
<linearGradient id="paint2_linear" x1="22" y1="19" x2="34" y2="19" gradientUnits="userSpaceOnUse">
<stop stop-color="#FBC2EB"/>
<stop offset="1" stop-color="#A6C1EE"/>
</linearGradient>
<linearGradient id="paint3_linear" x1="22" y1="13" x2="40" y2="13" gradientUnits="userSpaceOnUse">
<stop stop-color="#FBC2EB"/>
<stop offset="1" stop-color="#A6C1EE"/>
</linearGradient>
<linearGradient id="paint4_linear" x1="22" y1="7" x2="40" y2="7" gradientUnits="userSpaceOnUse">
<stop stop-color="#FBC2EB"/>
<stop offset="1" stop-color="#A6C1EE"/>
</linearGradient>
</defs>
</svg>
