<svg width="19" height="20" viewBox="0 0 19 20" fill="none" xmlns="http://www.w3.org/2000/svg">
<path fill-rule="evenodd" clip-rule="evenodd" d="M3.01159 0C1.35384 0 0 1.3686 0 3.04432C0 4.72004 1.35384 6.08694 3.01159 6.08694C4.66934 6.08694 6.02318 4.72004 6.02318 3.04432C6.02318 1.3686 4.66934 0 3.01159 0ZM7.96046 1.73954C7.90384 1.7394 7.84776 1.75056 7.79541 1.77236C7.74307 1.79416 7.69549 1.82617 7.65541 1.86658C7.61532 1.90698 7.58352 1.955 7.56182 2.00784C7.54013 2.06069 7.52896 2.11732 7.52896 2.17454C7.52896 2.23175 7.54013 2.28841 7.56182 2.34126C7.58352 2.39411 7.61532 2.44212 7.65541 2.48253C7.69549 2.52294 7.74307 2.55494 7.79541 2.57674C7.84776 2.59854 7.90384 2.60968 7.96046 2.60954H17.8422C17.8988 2.60968 17.9549 2.59854 18.0073 2.57674C18.0596 2.55494 18.1072 2.52294 18.1473 2.48253C18.1874 2.44212 18.2192 2.39411 18.2409 2.34126C18.2626 2.28841 18.2737 2.23175 18.2737 2.17454C18.2737 2.11732 18.2626 2.06069 18.2409 2.00784C18.2192 1.955 18.1874 1.90698 18.1473 1.86658C18.1072 1.82617 18.0596 1.79416 18.0073 1.77236C17.9549 1.75056 17.8988 1.7394 17.8422 1.73954H7.96046ZM7.96046 3.47911C7.8463 3.47911 7.73682 3.52493 7.65609 3.60651C7.57537 3.68809 7.53002 3.79874 7.53002 3.91411C7.53002 4.02948 7.57537 4.1401 7.65609 4.22168C7.73682 4.30325 7.8463 4.3491 7.96046 4.3491H12.6795C12.7937 4.3491 12.9032 4.30325 12.9839 4.22168C13.0646 4.1401 13.11 4.02948 13.11 3.91411C13.11 3.79874 13.0646 3.68809 12.9839 3.60651C12.9032 3.52493 12.7937 3.47911 12.6795 3.47911H7.96046ZM3.01243 6.95652C1.35427 6.95652 0 8.32512 0 10.0008C0 11.6765 1.35427 13.0435 3.01243 13.0435C4.67059 13.0435 6.02444 11.6765 6.02444 10.0008C6.02444 9.21599 5.72499 8.50087 5.23877 7.95983L3.38047 11.0937C3.34722 11.1497 3.3019 11.1974 3.2479 11.2333C3.1939 11.2692 3.13259 11.2923 3.06853 11.301C3.00448 11.3096 2.93932 11.3036 2.87789 11.2833C2.81646 11.263 2.76034 11.229 2.71371 11.1838L1.64024 10.1389C1.59776 10.0997 1.56348 10.0523 1.53942 9.99953C1.51536 9.94675 1.50201 9.88963 1.50017 9.83155C1.49833 9.77347 1.50802 9.7156 1.52868 9.66137C1.54934 9.60714 1.58054 9.55766 1.62045 9.51583C1.66036 9.47399 1.70816 9.44066 1.76103 9.41781C1.8139 9.39496 1.87077 9.38305 1.92827 9.38279C1.98577 9.38253 2.04274 9.3939 2.09581 9.41626C2.14888 9.43863 2.19698 9.47153 2.23726 9.51299L2.92168 10.1775L4.56948 7.40108C4.11409 7.12096 3.58222 6.95652 3.01243 6.95652ZM7.96046 8.69606C7.90387 8.69596 7.84783 8.70716 7.79552 8.72898C7.74322 8.7508 7.69568 8.78282 7.65564 8.82322C7.61559 8.86362 7.58383 8.91162 7.56215 8.96444C7.54048 9.01726 7.52932 9.07387 7.52932 9.13105C7.52932 9.18824 7.54048 9.24487 7.56215 9.2977C7.58383 9.35052 7.61559 9.39851 7.65564 9.43891C7.69568 9.47932 7.74322 9.51133 7.79552 9.53315C7.84783 9.55497 7.90387 9.56614 7.96046 9.56605H17.8422C17.8988 9.56614 17.9549 9.55497 18.0072 9.53315C18.0595 9.51133 18.107 9.47932 18.1471 9.43891C18.1871 9.39851 18.2189 9.35052 18.2405 9.2977C18.2622 9.24487 18.2734 9.18824 18.2734 9.13105C18.2734 9.07387 18.2622 9.01726 18.2405 8.96444C18.2189 8.91162 18.1871 8.86362 18.1471 8.82322C18.107 8.78282 18.0595 8.7508 18.0072 8.72898C17.9549 8.70716 17.8988 8.69596 17.8422 8.69606H7.96046ZM7.96046 10.4356C7.90384 10.4355 7.84776 10.4466 7.79541 10.4684C7.74307 10.4902 7.69549 10.5223 7.65541 10.5627C7.61532 10.6031 7.58352 10.6511 7.56182 10.7039C7.54013 10.7567 7.52896 10.8134 7.52896 10.8706C7.52896 10.9278 7.54013 10.9845 7.56182 11.0373C7.58352 11.0902 7.61532 11.1382 7.65541 11.1786C7.69549 11.219 7.74307 11.251 7.79541 11.2728C7.84776 11.2946 7.90384 11.3058 7.96046 11.3056H12.6795C12.7935 11.3053 12.9027 11.2594 12.9832 11.1778C13.0637 11.0963 13.1089 10.9858 13.1089 10.8706C13.1089 10.7554 13.0637 10.645 12.9832 10.5634C12.9027 10.4819 12.7935 10.4359 12.6795 10.4356H7.96046ZM3.01159 13.913C1.35384 13.913 0 15.2817 0 16.9574C0 18.6331 1.35384 20 3.01159 20C4.66934 20 6.02318 18.6331 6.02318 16.9574C6.02318 15.2817 4.66934 13.913 3.01159 13.913ZM7.96046 15.653C7.90315 15.6517 7.84616 15.662 7.79284 15.6833C7.73952 15.7045 7.69094 15.7364 7.64996 15.7769C7.60897 15.8174 7.57641 15.8657 7.55417 15.9191C7.53194 15.9725 7.52049 16.0299 7.52049 16.0878C7.52049 16.1457 7.53194 16.2031 7.55417 16.2565C7.57641 16.3099 7.60897 16.3582 7.64996 16.3987C7.69094 16.4392 7.73952 16.4711 7.79284 16.4923C7.84616 16.5136 7.90315 16.5239 7.96046 16.5226H17.8422C17.9547 16.52 18.0617 16.4731 18.1403 16.3919C18.2189 16.3106 18.2629 16.2015 18.2629 16.0878C18.2629 15.9742 18.2189 15.865 18.1403 15.7837C18.0617 15.7025 17.9547 15.6556 17.8422 15.653H7.96046ZM7.96046 17.3926C7.84806 17.3952 7.74112 17.4421 7.66254 17.5234C7.58395 17.6046 7.53995 17.7138 7.53995 17.8274C7.53995 17.941 7.58395 18.0501 7.66254 18.1314C7.74112 18.2126 7.84806 18.2595 7.96046 18.2621H12.6795C12.7368 18.2635 12.7938 18.2532 12.8472 18.2319C12.9005 18.2107 12.9491 18.1789 12.9901 18.1384C13.0311 18.0979 13.0637 18.0495 13.086 17.9961C13.1082 17.9427 13.1197 17.8853 13.1197 17.8274C13.1197 17.7694 13.1082 17.712 13.086 17.6586C13.0637 17.6052 13.0311 17.5568 12.9901 17.5163C12.9491 17.4758 12.9005 17.444 12.8472 17.4228C12.7938 17.4015 12.7368 17.3913 12.6795 17.3926H7.96046Z" fill="url(#paint0_linear)"/>
<defs>
<linearGradient id="paint0_linear" x1="0" y1="10" x2="18.2737" y2="10" gradientUnits="userSpaceOnUse">
<stop stop-color="#FBC2EB"/>
<stop offset="1" stop-color="#A6C1EE"/>
</linearGradient>
</defs>
</svg>
