<svg width="20" height="25" viewBox="0 0 20 25" fill="none" xmlns="http://www.w3.org/2000/svg">
<path d="M17.8947 4.3421H15.9474V6H17.8158V23.3421H1.63158V6H3.42105V4.3421H1.57895C0.710526 4.3421 0 5.05263 0 5.92105V23.421C0 24.2895 0.710526 25 1.57895 25H17.8947C18.7632 25 19.4737 24.2895 19.4737 23.421V5.92105C19.4737 5.05263 18.7632 4.3421 17.8947 4.3421Z" fill="#C5C4C4" fill-opacity="0.79"/>
<path d="M5.26307 12.1842C5.34202 12.2895 5.44728 12.3421 5.57886 12.3421C5.71044 12.3421 5.81571 12.2895 5.89465 12.2105L8.02623 9.73684C8.15781 9.57895 8.15781 9.31579 7.99992 9.15789L7.71044 8.86842C7.55255 8.71053 7.28939 8.71053 7.13149 8.86842L5.57886 10.4211L4.89465 9.73684C4.73676 9.60526 4.4736 9.60526 4.31571 9.76316L4.02623 10.0526C3.86834 10.2105 3.86834 10.4474 3.99992 10.6053L5.26307 12.1842Z" fill="#C5C4C4" fill-opacity="0.79"/>
<path d="M9.4209 10.4474V11.2105C9.4209 11.3947 9.57879 11.5526 9.763 11.5526H15.263C15.4472 11.5526 15.6051 11.3947 15.6051 11.2105V10.4474C15.6051 10.2631 15.4472 10.1053 15.263 10.1053H9.763C9.57879 10.1053 9.4209 10.2631 9.4209 10.4474Z" fill="#C5C4C4" fill-opacity="0.79"/>
<path d="M5.2366 16.4474C5.31555 16.5526 5.42081 16.6053 5.55239 16.6053C5.68397 16.6053 5.78924 16.5526 5.86818 16.4474L8.05239 13.921C8.18397 13.7632 8.18397 13.5 8.02608 13.3421L7.7366 13.0526C7.57871 12.8947 7.28924 12.8947 7.13134 13.0526L5.52608 14.6579L4.84187 13.9737C4.68397 13.8158 4.3945 13.8158 4.2366 13.9737L3.94713 14.2632C3.78924 14.421 3.78924 14.6579 3.92081 14.8158L5.2366 16.4474Z" fill="#C5C4C4" fill-opacity="0.79"/>
<path d="M15.6051 14.6842C15.6051 14.5 15.4472 14.3421 15.263 14.3421H9.763C9.57879 14.3421 9.4209 14.5 9.4209 14.6842V15.4474C9.4209 15.6316 9.57879 15.7895 9.763 15.7895H15.263C15.4472 15.7895 15.6051 15.6316 15.6051 15.4474V14.6842Z" fill="#C5C4C4" fill-opacity="0.79"/>
<path d="M5.2366 20.6842C5.31555 20.7895 5.42081 20.8421 5.55239 20.8421C5.68397 20.8421 5.78924 20.7895 5.86818 20.6842L8.05239 18.1579C8.18397 18 8.18397 17.7368 8.02608 17.5789L7.7366 17.2895C7.57871 17.1316 7.28924 17.1316 7.13134 17.2895L5.52608 18.8947L4.84187 18.2105C4.68397 18.0526 4.42081 18.0526 4.2366 18.2105L3.94713 18.5C3.78924 18.6579 3.78924 18.8947 3.92081 19.0526L5.2366 20.6842Z" fill="#C5C4C4" fill-opacity="0.79"/>
<path d="M15.263 18.5789H9.763C9.57879 18.5789 9.4209 18.7368 9.4209 18.9211V19.6842C9.4209 19.8684 9.57879 20.0263 9.763 20.0263H15.263C15.4472 20.0263 15.6051 19.8684 15.6051 19.6842V18.9211C15.6051 18.7368 15.4472 18.5789 15.263 18.5789Z" fill="#C5C4C4" fill-opacity="0.79"/>
<path d="M5.26341 6.57895H14.0792C14.4213 6.57895 14.7108 6.28947 14.7108 5.94737V3.44737C14.7108 3.10526 14.4213 2.81579 14.0792 2.81579H12.6318C12.5529 1.23684 11.2634 0 9.68447 0C8.10552 0 6.81605 1.26316 6.7371 2.81579H5.26341C4.92131 2.81579 4.63184 3.10526 4.63184 3.44737V5.94737C4.65815 6.28947 4.92131 6.57895 5.26341 6.57895ZM9.68447 1.84211C10.316 1.84211 10.816 2.34211 10.816 2.97368C10.816 3.60526 10.316 4.10526 9.68447 4.10526C9.05289 4.10526 8.55289 3.60526 8.55289 2.97368C8.55289 2.34211 9.05289 1.84211 9.68447 1.84211Z" fill="#C5C4C4" fill-opacity="0.79"/>
</svg>
