<svg width="20" height="25" viewBox="0 0 20 25" fill="none" xmlns="http://www.w3.org/2000/svg">
<path d="M17.8947 4.3421H15.9474V6H17.8158V23.3421H1.63158V6H3.42105V4.3421H1.57895C0.710526 4.3421 0 5.05263 0 5.92105V23.421C0 24.2895 0.710526 25 1.57895 25H17.8947C18.7632 25 19.4737 24.2895 19.4737 23.421V5.92105C19.4737 5.05263 18.7632 4.3421 17.8947 4.3421Z" fill="url(#paint0_linear)"/>
<path d="M5.2632 12.1842C5.34214 12.2895 5.44741 12.3421 5.57899 12.3421C5.71056 12.3421 5.81583 12.2895 5.89478 12.2105L8.02635 9.73684C8.15793 9.57895 8.15793 9.31579 8.00004 9.15789L7.71056 8.86842C7.55267 8.71053 7.28951 8.71053 7.13162 8.86842L5.57899 10.4211L4.89478 9.73684C4.73688 9.60526 4.47372 9.60526 4.31583 9.76316L4.02635 10.0526C3.86846 10.2105 3.86846 10.4474 4.00004 10.6053L5.2632 12.1842Z" fill="url(#paint1_linear)"/>
<path d="M9.42102 10.4474V11.2105C9.42102 11.3947 9.57892 11.5526 9.76313 11.5526H15.2631C15.4473 11.5526 15.6052 11.3947 15.6052 11.2105V10.4474C15.6052 10.2631 15.4473 10.1053 15.2631 10.1053H9.76313C9.57892 10.1053 9.42102 10.2631 9.42102 10.4474Z" fill="url(#paint2_linear)"/>
<path d="M5.23685 16.4474C5.3158 16.5526 5.42106 16.6053 5.55264 16.6053C5.68422 16.6053 5.78948 16.5526 5.86843 16.4474L8.05264 13.921C8.18422 13.7632 8.18422 13.5 8.02632 13.3421L7.73685 13.0526C7.57895 12.8947 7.28948 12.8947 7.13158 13.0526L5.52632 14.6579L4.84211 13.9737C4.68422 13.8158 4.39474 13.8158 4.23685 13.9737L3.94737 14.2632C3.78948 14.421 3.78948 14.6579 3.92106 14.8158L5.23685 16.4474Z" fill="url(#paint3_linear)"/>
<path d="M15.6052 14.6842C15.6052 14.5 15.4473 14.3421 15.2631 14.3421H9.76313C9.57892 14.3421 9.42102 14.5 9.42102 14.6842V15.4474C9.42102 15.6316 9.57892 15.7895 9.76313 15.7895H15.2631C15.4473 15.7895 15.6052 15.6316 15.6052 15.4474V14.6842Z" fill="url(#paint4_linear)"/>
<path d="M5.23685 20.6842C5.3158 20.7895 5.42106 20.8421 5.55264 20.8421C5.68422 20.8421 5.78948 20.7895 5.86843 20.6842L8.05264 18.1579C8.18422 18 8.18422 17.7368 8.02632 17.5789L7.73685 17.2895C7.57895 17.1316 7.28948 17.1316 7.13158 17.2895L5.52632 18.8947L4.84211 18.2105C4.68422 18.0526 4.42106 18.0526 4.23685 18.2105L3.94737 18.5C3.78948 18.6579 3.78948 18.8947 3.92106 19.0526L5.23685 20.6842Z" fill="url(#paint5_linear)"/>
<path d="M15.2631 18.5789H9.76313C9.57892 18.5789 9.42102 18.7368 9.42102 18.9211V19.6842C9.42102 19.8684 9.57892 20.0263 9.76313 20.0263H15.2631C15.4473 20.0263 15.6052 19.8684 15.6052 19.6842V18.9211C15.6052 18.7368 15.4473 18.5789 15.2631 18.5789Z" fill="url(#paint6_linear)"/>
<path d="M5.26305 6.57895H14.0788C14.4209 6.57895 14.7104 6.28947 14.7104 5.94737V3.44737C14.7104 3.10526 14.4209 2.81579 14.0788 2.81579H12.6315C12.5525 1.23684 11.263 0 9.6841 0C8.10515 0 6.81568 1.26316 6.73673 2.81579H5.26305C4.92094 2.81579 4.63147 3.10526 4.63147 3.44737V5.94737C4.65779 6.28947 4.92094 6.57895 5.26305 6.57895ZM9.6841 1.84211C10.3157 1.84211 10.8157 2.34211 10.8157 2.97368C10.8157 3.60526 10.3157 4.10526 9.6841 4.10526C9.05252 4.10526 8.55252 3.60526 8.55252 2.97368C8.55252 2.34211 9.05252 1.84211 9.6841 1.84211Z" fill="url(#paint7_linear)"/>
<defs>
<linearGradient id="paint0_linear" x1="0" y1="14.671" x2="19.4737" y2="14.671" gradientUnits="userSpaceOnUse">
<stop stop-color="#FBC2EB"/>
<stop offset="1" stop-color="#A6C1EE"/>
</linearGradient>
<linearGradient id="paint1_linear" x1="3.90442" y1="10.5461" x2="8.12197" y2="10.5461" gradientUnits="userSpaceOnUse">
<stop stop-color="#FBC2EB"/>
<stop offset="1" stop-color="#A6C1EE"/>
</linearGradient>
<linearGradient id="paint2_linear" x1="9.42102" y1="10.8289" x2="15.6052" y2="10.8289" gradientUnits="userSpaceOnUse">
<stop stop-color="#FBC2EB"/>
<stop offset="1" stop-color="#A6C1EE"/>
</linearGradient>
<linearGradient id="paint3_linear" x1="3.82544" y1="14.7697" x2="8.14826" y2="14.7697" gradientUnits="userSpaceOnUse">
<stop stop-color="#FBC2EB"/>
<stop offset="1" stop-color="#A6C1EE"/>
</linearGradient>
<linearGradient id="paint4_linear" x1="9.42102" y1="15.0658" x2="15.6052" y2="15.0658" gradientUnits="userSpaceOnUse">
<stop stop-color="#FBC2EB"/>
<stop offset="1" stop-color="#A6C1EE"/>
</linearGradient>
<linearGradient id="paint5_linear" x1="3.82544" y1="19.0066" x2="8.14826" y2="19.0066" gradientUnits="userSpaceOnUse">
<stop stop-color="#FBC2EB"/>
<stop offset="1" stop-color="#A6C1EE"/>
</linearGradient>
<linearGradient id="paint6_linear" x1="9.42102" y1="19.3026" x2="15.6052" y2="19.3026" gradientUnits="userSpaceOnUse">
<stop stop-color="#FBC2EB"/>
<stop offset="1" stop-color="#A6C1EE"/>
</linearGradient>
<linearGradient id="paint7_linear" x1="4.63147" y1="3.28947" x2="14.7104" y2="3.28947" gradientUnits="userSpaceOnUse">
<stop stop-color="#FBC2EB"/>
<stop offset="1" stop-color="#A6C1EE"/>
</linearGradient>
</defs>
</svg>
