<svg xmlns="http://www.w3.org/2000/svg" xmlns:xlink="http://www.w3.org/1999/xlink" width="188.002" height="187.998" viewBox="0 0 188.002 187.998"><defs><style>.a{fill:url(#a);}</style><linearGradient id="a" x1="0.5" x2="0.5" y2="1" gradientUnits="objectBoundingBox"><stop offset="0" stop-color="#667db6"/><stop offset="0.388" stop-color="#666baf"/><stop offset="1" stop-color="#654ea3"/></linearGradient></defs><path class="a" d="M-12290-1852a93.415,93.415,0,0,1-36.589-7.387,94.01,94.01,0,0,1-15.969-8.667,94.668,94.668,0,0,1-13.912-11.478,94.736,94.736,0,0,1-11.478-13.911,94.073,94.073,0,0,1-8.667-15.967A93.411,93.411,0,0,1-12384-1946a93.419,93.419,0,0,1,7.387-36.589,94.059,94.059,0,0,1,8.667-15.967,94.739,94.739,0,0,1,11.478-13.912,94.721,94.721,0,0,1,13.912-11.478,94.01,94.01,0,0,1,15.969-8.667A93.406,93.406,0,0,1-12290-2040a93.413,93.413,0,0,1,36.589,7.387,94.01,94.01,0,0,1,15.969,8.667,94.8,94.8,0,0,1,13.911,11.478,94.7,94.7,0,0,1,11.479,13.912,94.083,94.083,0,0,1,8.667,15.967A93.419,93.419,0,0,1-12196-1946a93.411,93.411,0,0,1-7.387,36.588,94.092,94.092,0,0,1-8.667,15.967,94.692,94.692,0,0,1-11.479,13.911,94.746,94.746,0,0,1-13.911,11.478,94.01,94.01,0,0,1-15.969,8.667A93.415,93.415,0,0,1-12290-1852Zm0-162a68.078,68.078,0,0,0-68,68,68.077,68.077,0,0,0,68,68,68.076,68.076,0,0,0,68-68A68.078,68.078,0,0,0-12290-2014Z" transform="translate(12384 2040)"/></svg>