<svg xmlns="http://www.w3.org/2000/svg" width="35.4" height="30.089" viewBox="0 0 35.4 30.089"><defs><style>.a{fill:none;stroke:#70f84e;stroke-width:1.4px;opacity:0.97;}</style></defs><path class="a" d="M9.271,2.482a.8.8,0,0,0-1.129,0l-4.229,4.2L2.406,5.218a.8.8,0,0,0-1.129,0L.234,6.261a.8.8,0,0,0,0,1.129l3.16,3.148a.849.849,0,0,0,1.169,0L5.6,9.5l4.795-4.794A.8.8,0,0,0,10.4,3.578Zm0,10.571a.8.8,0,0,0-1.129,0L3.913,17.285,2.406,15.817a.8.8,0,0,0-1.129,0L.234,16.859a.8.8,0,0,0,0,1.129l3.152,3.154a.848.848,0,0,0,1.169,0L5.6,20.1l4.795-4.8a.8.8,0,0,0,.006-1.122ZM4.25,24.562a3.188,3.188,0,1,0,0,6.375,3.188,3.188,0,1,0,0-6.375Zm28.688,1.063H13.813a1.063,1.063,0,0,0-1.063,1.063v2.125a1.062,1.062,0,0,0,1.063,1.063H32.938A1.062,1.062,0,0,0,34,28.812V26.687A1.063,1.063,0,0,0,32.938,25.625Zm0-21.25H13.813A1.063,1.063,0,0,0,12.75,5.437V7.562a1.063,1.063,0,0,0,1.063,1.063H32.938A1.062,1.062,0,0,0,34,7.562V5.437A1.063,1.063,0,0,0,32.938,4.375Zm0,10.625H13.813a1.063,1.063,0,0,0-1.063,1.063v2.125a1.062,1.062,0,0,0,1.063,1.063H32.938A1.062,1.062,0,0,0,34,18.187V16.062A1.062,1.062,0,0,0,32.938,15Z" transform="translate(0.7 -1.548)"/></svg>