<svg xmlns="http://www.w3.org/2000/svg" width="36.4" height="34.463" viewBox="0 0 36.4 34.463"><defs><style>.a{opacity:0.97;}.b{fill:none;stroke:#70f84e;stroke-width:1.4px;}</style></defs><g class="a" transform="translate(0.7 0.7)"><g transform="translate(0 13.113)"><path class="b" d="M7.653,58.58v6.16H2.38V58.58H7.653M9.24,56.2H.793A.787.787,0,0,0,0,56.993V75.357a.787.787,0,0,0,.793.793H9.24a.787.787,0,0,0,.793-.793V56.993A.818.818,0,0,0,9.24,56.2Z" transform="translate(0 -56.2)"/></g><g transform="translate(12.413 8.33)"><path class="b" d="M60.853,38.08V50.447H55.58V38.08h5.273M62.44,35.7H53.993a.787.787,0,0,0-.793.793V59.64a.787.787,0,0,0,.793.793H62.44a.787.787,0,0,0,.793-.793V36.493a.818.818,0,0,0-.793-.793Z" transform="translate(-53.2 -35.7)"/></g><g transform="translate(24.967)"><path class="b" d="M114.653,2.38V17.687H109.38V2.38h5.273M116.24,0h-8.447A.787.787,0,0,0,107,.793V32.27a.787.787,0,0,0,.793.793h8.447a.787.787,0,0,0,.793-.793V.793A.787.787,0,0,0,116.24,0Z" transform="translate(-107)"/></g></g></svg>