<svg xmlns="http://www.w3.org/2000/svg" width="35.4" height="46.733" viewBox="0 0 35.4 46.733"><defs><style>.a{fill:none;stroke:#70f84e;stroke-width:1.4px;opacity:0.97;}</style></defs><path class="a" d="M16.278,0A3.783,3.783,0,0,0,12.5,3.778V41.555a3.783,3.783,0,0,0,3.778,3.778H42.722A3.783,3.783,0,0,0,46.5,41.555V10.389a.945.945,0,0,0-.276-.668L36.779.277A.945.945,0,0,0,36.111,0H16.278ZM37.055,3.225l6.22,6.22H38.945a1.892,1.892,0,0,1-1.889-1.889V3.225ZM20.54,5.648a.747.747,0,0,1,.748.746v.747l1.413.4c.4.113.745.334.745.746s-.349.86-.745.748l-1.414-.4c.024.229-.009.707,0,.982.018.743-1.334.8-1.347.015,0-.182-.034-.747-.021-.971a1.12,1.12,0,0,0,.252,2.212h.746a2.608,2.608,0,0,1,.374,5.19v.784a.747.747,0,0,1-1.494,0V16.1l-1.52-.564c-.387-.143-.746-.335-.746-.747s.36-.892.746-.747l1.5.564c-.009-.079,0,.009,0-.651,0-.85,1.422-.8,1.4.013-.009.17,0,.33-.008.607a1.12,1.12,0,0,0-.257-2.21h-.748a2.608,2.608,0,0,1-.373-5.189V6.394a.746.746,0,0,1,.746-.746Zm8.015,9.463H39.889a.944.944,0,1,1,0,1.889H28.555a.944.944,0,0,1,0-1.889Zm-9.444,5.667H39.889a.944.944,0,1,1,0,1.889H19.111a.944.944,0,1,1,0-1.889Zm0,5.667H39.889a.944.944,0,1,1,0,1.889H19.111a.944.944,0,1,1,0-1.889Zm0,5.667H39.889a.944.944,0,1,1,0,1.889H19.111a.944.944,0,1,1,0-1.889Zm0,5.667H30.445a.944.944,0,0,1,0,1.889H19.111a.944.944,0,1,1,0-1.889Z" transform="translate(-11.8 0.7)"/></svg>