<svg xmlns="http://www.w3.org/2000/svg" width="35.72" height="24.448" viewBox="0 0 35.72 24.448"><defs><style>.a{opacity:0.97;}.b{fill:none;stroke:#70f84e;stroke-width:1.4px;}</style></defs><g class="a" transform="translate(-5.536 -19.256)"><g transform="translate(6.236 20.001)"><path class="b" d="M26.168,35.479c-.576-1.28-4.093-2.388-4.093-2.388-1.313-.462-1.713-.924-1.835-1.16-.013-.028-.025-.054-.034-.077v-.01l-.021-.073h0a5.938,5.938,0,0,1-.176-.762s-.007.038-.021.1a2.7,2.7,0,0,1-.005-.363l-.031.033a6.777,6.777,0,0,0,1.025-1.848,3.453,3.453,0,0,0,.6-1.373c.266-.744.187-1.125.066-1.316a4.847,4.847,0,0,0-.226-3.608,3.17,3.17,0,0,0-2.014-2.078,5.936,5.936,0,0,0-3.9-.384C12.66,20.652,12.051,24,12.051,24a5.27,5.27,0,0,0,.257,2.524,3.144,3.144,0,0,0,.118,1.308.979.979,0,0,0,.455.794,6.578,6.578,0,0,0,.97,2.023l-.009-.009a1.877,1.877,0,0,1,0,.564c-.007-.033-.01-.054-.01-.054a4.375,4.375,0,0,1-.184.688l0,.01c-.132.176-.264.337-.394.483a15.232,15.232,0,0,1-3.608,1.592A3.652,3.652,0,0,0,8.07,34.988a11.191,11.191,0,0,0-1.834,4.859c.021,1.236.554,1.365.554,1.365,3.774,1.684,9.778,1.783,9.778,1.783a30.172,30.172,0,0,0,10.41-1.527c.642-.405.661-.725.661-.725C28.087,36.862,26.168,35.479,26.168,35.479Z" transform="translate(-6.236 -20.001)"/><path class="b" d="M71.1,27.667a7.664,7.664,0,0,0-7.329-7.658V20H63.1v.007a7.476,7.476,0,0,0-6.3,3.825,7.668,7.668,0,0,0,6.631,11.5,7.662,7.662,0,0,0,6.47-3.547l.007,0,.168-.291.168-.291-.007,0A7.327,7.327,0,0,0,71.1,27.667Zm-7.672,7a7,7,0,0,1-6.051-10.492,6.819,6.819,0,0,1,5.721-3.49v7.18l6.218,3.59A7.022,7.022,0,0,1,63.425,34.662Z" transform="translate(-36.778 -20.002)"/></g></g></svg>