<svg xmlns="http://www.w3.org/2000/svg" width="34" height="34" viewBox="0 0 34 34"><defs><style>.a{fill:#70f84e;}</style></defs><g transform="translate(-2 -2)"><g transform="translate(2 2)"><path class="a" d="M36,20.417c0-2.019-.921-3.683-2.16-4.144a14.851,14.851,0,0,0-29.679,0C2.921,16.733,2,18.4,2,20.417c0,2.373,1.24,4.25,2.833,4.25H6.392a2.11,2.11,0,0,0,1.983,1.417A2.131,2.131,0,0,0,10.5,23.958V16.875A2.131,2.131,0,0,0,8.375,14.75a2.11,2.11,0,0,0-1.983,1.417H5.577A13.361,13.361,0,0,1,9.012,7.879l1.7,1.7a.707.707,0,0,0,.956.035,11.445,11.445,0,0,1,14.662,0,.746.746,0,0,0,.46.177.7.7,0,0,0,.5-.212l1.7-1.7a13.563,13.563,0,0,1,3.435,8.287h-.815a2.11,2.11,0,0,0-1.983-1.417A2.131,2.131,0,0,0,27.5,16.875v7.083a2.131,2.131,0,0,0,2.125,2.125,2.11,2.11,0,0,0,1.983-1.417h.85v2.125a6.394,6.394,0,0,1-6.375,6.375H23.817a2.11,2.11,0,0,0-1.983-1.417h-4.25a2.125,2.125,0,0,0,0,4.25h4.25a2.11,2.11,0,0,0,1.983-1.417h2.267a7.815,7.815,0,0,0,7.792-7.792V24.525C35.115,24.065,36,22.435,36,20.417ZM21.833,34.583h-4.25a.708.708,0,0,1,0-1.417h4.25a.708.708,0,0,1,0,1.417ZM8.375,16.167a.71.71,0,0,1,.708.708v7.083a.708.708,0,0,1-1.417,0V16.875A.71.71,0,0,1,8.375,16.167ZM6.25,23.25H4.833c-.673,0-1.417-1.2-1.417-2.833s.744-2.833,1.417-2.833H6.25ZM26.756,8.127a12.909,12.909,0,0,0-15.477,0l-1.24-1.24A13.213,13.213,0,0,1,19,3.417a13.37,13.37,0,0,1,9,3.471Zm2.869,16.54a.71.71,0,0,1-.708-.708V16.875a.708.708,0,1,1,1.417,0v7.083A.71.71,0,0,1,29.625,24.667Zm3.542-1.417H31.75V17.583h1.417c.673,0,1.417,1.2,1.417,2.833S33.84,23.25,33.167,23.25Z" transform="translate(-2 -2)"/></g></g></svg>