<svg xmlns="http://www.w3.org/2000/svg" width="35.433" height="34.509" viewBox="0 0 35.433 34.509"><defs><style>.a{opacity:0.97;}.b{fill:none;stroke:#70f84e;stroke-width:1.4px;fill-rule:evenodd;}</style></defs><g class="a" transform="translate(-16.267 -152.339)"><path class="b" d="M60.633.126a3.231,3.231,0,0,1,3.424,2.446c3.058,0,2.935,4.4,2.079,6.6,2.324-.245.734,5.014-.612,4.892-.612,3.3-3.058,5.748-5.993,5.748s-5.381-2.446-5.871-5.748c-1.345.122-2.935-5.014-.856-4.892-1.1-2.691,0-6.482,2.079-7.705C53.294-1.219,54.518.738,60.633.126Z" transform="translate(-28.467 153)"/><path class="b" d="M0,179.719C.367,171.647-.367,168.835,8.806,167l3.424,9.54,1.1-3.18a5.1,5.1,0,0,1-1.1-2.935c0-1.712,3.669-1.712,3.669,0a4.383,4.383,0,0,1-1.1,2.935l1.223,3.18L19.446,167a19.577,19.577,0,0,1,3.669.978,7.456,7.456,0,0,0-2.079,5.014,7.212,7.212,0,0,0,4.525,6.727Z" transform="translate(17 6.428)"/><path class="b" d="M189.748,169A5.81,5.81,0,1,1,184,174.748,5.742,5.742,0,0,1,189.748,169Zm2.813,6.971c.122,1.223-.978,1.835-2.079,1.957,0,.367,0,.856-.489.856s-.489-.489-.489-.856a3.214,3.214,0,0,1-1.835-.856c-.856-1.1.367-1.957.978-.978.612,1.223,2.446.978,2.446.245,0-1.468-3.669-.612-3.669-2.813a1.919,1.919,0,0,1,2.079-1.712c0-.367-.122-.978.489-.978s.489.612.489.978a2.272,2.272,0,0,1,1.59.856.651.651,0,0,1-.856.978c-.612-.489-.489-.978-1.468-.978-.367,0-.856.245-.856.612C188.77,174.381,192.317,173.892,192.561,175.971Z" transform="translate(-144.496 4.673)"/></g></svg>