<svg xmlns="http://www.w3.org/2000/svg" width="30.3" height="28.4" viewBox="0 0 30.3 28.4"><defs><style>.a{opacity:0.97;}.b{fill:none;stroke:#70f84e;stroke-width:1.4px;}</style></defs><g class="a" transform="translate(-29.9 -30.8)"><path class="b" d="M52.9,34h-.7V31.5H30.6V48.6a5.015,5.015,0,0,0,5,5H47.3a4.951,4.951,0,0,0,5-5v-.5H53a6.487,6.487,0,0,0,6.5-6.5V40.5A6.638,6.638,0,0,0,52.9,34Zm3.5,7.6a3.543,3.543,0,0,1-3.5,3.5h-.7V37h.7a3.543,3.543,0,0,1,3.5,3.5Z"/><rect class="b" width="19.3" height="2.5" transform="translate(31.8 56)"/></g></svg>