<svg xmlns="http://www.w3.org/2000/svg" width="35.4" height="26.055" viewBox="0 0 35.4 26.055"><defs><style>.a{fill:none;stroke:#70f84e;stroke-width:1.4px;}</style></defs><g transform="translate(-3.52 -31.92)"><path class="a" d="M19.909,35.123v2.154c0,1.382-3.51,2.5-7.841,2.5s-7.841-1.114-7.841-2.5V35.123c0-1.382,3.51-2.5,7.841-2.5S19.909,33.738,19.909,35.123Zm-7.841,7.031a17.711,17.711,0,0,1-7.8-1.486.854.854,0,0,0-.048.271v2.154c0,1.382,3.51,2.5,7.841,2.5s7.841-1.114,7.841-2.5V40.94a.854.854,0,0,0-.048-.271A17.569,17.569,0,0,1,12.068,42.154Zm0,5.831a17.711,17.711,0,0,1-7.8-1.486.851.851,0,0,0-.048.271v2.154c0,1.382,3.51,2.5,7.841,2.5s7.841-1.114,7.841-2.5V46.771a.851.851,0,0,0-.048-.271,17.568,17.568,0,0,1-7.785,1.489Zm0,5.831a17.711,17.711,0,0,1-7.8-1.486.854.854,0,0,0-.048.271v2.154c0,1.4,3.517,2.518,7.848,2.518s7.841-1.114,7.841-2.5V52.617a.854.854,0,0,0-.048-.271A17.84,17.84,0,0,1,12.068,53.817ZM30.379,38.448c-4.331,0-7.841,1.114-7.841,2.5v2.154c0,1.382,3.51,2.5,7.841,2.5s7.841-1.114,7.841-2.5V40.951C38.223,39.569,34.71,38.448,30.379,38.448Zm0,9.538A17.625,17.625,0,0,1,22.587,46.5a.854.854,0,0,0-.048.271v2.154c0,1.382,3.51,2.5,7.841,2.5s7.841-1.114,7.841-2.5V46.775a.854.854,0,0,0-.048-.271,17.708,17.708,0,0,1-7.792,1.486Zm0,5.831a17.711,17.711,0,0,1-7.8-1.486.854.854,0,0,0-.048.271v2.154c.007,1.4,3.521,2.518,7.848,2.518s7.841-1.114,7.841-2.5V52.617a.854.854,0,0,0-.048-.271A17.872,17.872,0,0,1,30.379,53.817Z"/></g></svg>