<svg width="21" height="15" viewBox="0 0 21 15" fill="none" xmlns="http://www.w3.org/2000/svg">
<path d="M20.0639 10.8939H18.8733V10.1816C18.8733 8.88268 17.7709 7.83519 16.4039 7.83519H11.0462V5.48883H13.5376C13.7801 5.48883 13.9786 5.30028 13.9786 5.06983V1.38268C13.9786 1.15223 13.7801 0.963687 13.5376 0.963687H10.539C10.4068 0.963687 10.2745 0.900838 10.1863 0.796089L9.72326 0.167598C9.63507 0.0628492 9.50278 0 9.37049 0H7.4082C7.16567 0 6.96724 0.188548 6.96724 0.418995V5.06983C6.96724 5.30028 7.16567 5.48883 7.4082 5.48883H9.89965V7.83519H4.54193C3.17494 7.83519 2.07253 8.88268 2.07253 10.1816V10.8939H0.881929C0.396868 10.8939 0 11.2709 0 11.7318V14.162C0 14.6229 0.396868 15 0.881929 15H4.38759C4.87266 15 5.26952 14.6229 5.26952 14.162V11.7109C5.26952 11.25 4.87266 10.8729 4.38759 10.8729H3.19699V10.1606C3.19699 9.46927 3.79229 8.90363 4.51988 8.90363H9.89965V10.8729H8.70904C8.22398 10.8729 7.82712 11.25 7.82712 11.7109V14.1411C7.82712 14.602 8.22398 14.979 8.70904 14.979H12.2368C12.7218 14.979 13.1187 14.602 13.1187 14.1411V11.7109C13.1187 11.25 12.7218 10.8729 12.2368 10.8729H11.0462V8.90363H16.4259C17.1535 8.90363 17.7488 9.46927 17.7488 10.1606V10.8729H16.5582C16.0731 10.8729 15.6763 11.25 15.6763 11.7109V14.1411C15.6763 14.602 16.0731 14.979 16.5582 14.979H20.0639C20.5489 14.979 20.9458 14.602 20.9458 14.1411V11.7109C20.9458 11.25 20.5489 10.8939 20.0639 10.8939Z" fill="#E2E2E2" fill-opacity="0.32"/>
</svg>
