<svg width="14" height="16" viewBox="0 0 14 16" fill="none" xmlns="http://www.w3.org/2000/svg">
<path d="M11.1756 4.1071C11.1496 4.1071 11.1235 4.1071 11.0975 4.1071C10.8891 4.1071 10.6807 4.03284 10.4983 3.88433C10.316 3.73581 10.2118 3.48829 10.2118 3.26551V2.81997V0.666504H3.07395C2.96975 0.666504 2.8916 0.740761 2.8916 0.839771V1.0873V2.77046V13.0922C2.8916 13.1913 2.96975 13.2655 3.07395 13.2655H11.0454H13.3899C13.4941 13.2655 13.5723 13.1913 13.5723 13.0922V3.85957L11.1756 4.1071Z" fill="#57CBA1"/>
<path d="M3.07389 13.9092C2.57893 13.9092 2.18818 13.5379 2.18818 13.0676V2.74581V1.73096H1.56297C1.45877 1.73096 1.38062 1.80521 1.38062 1.90422V14.1319C1.38062 14.231 1.45877 14.3052 1.56297 14.3052H11.905C12.0092 14.3052 12.0873 14.231 12.0873 14.1319V13.8844H11.0453H3.07389V13.9092Z" fill="#57CBA1"/>
<path d="M0.67731 14.1566V3.09229H0.182353C0.0781513 3.09229 0 3.16654 0 3.26555V15.4933C0 15.5923 0.0781513 15.6665 0.182353 15.6665H10.5243C10.6286 15.6665 10.7067 15.5923 10.7067 15.4933V14.9982H1.56302C1.06807 14.9982 0.67731 14.6269 0.67731 14.1566Z" fill="#57CBA1"/>
<path d="M10.8892 3.26547C10.8892 3.33973 10.9413 3.38923 10.9413 3.38923C10.9673 3.41399 11.0194 3.43874 11.0976 3.43874L13.1816 3.24072L10.8892 1.0625V2.79517V3.26547Z" fill="#57CBA1"/>
</svg>
