<svg width="14" height="16" viewBox="0 0 14 16" fill="none" xmlns="http://www.w3.org/2000/svg">
<path d="M11.1757 4.10722C11.1497 4.10722 11.1236 4.10722 11.0976 4.10722C10.8892 4.10722 10.6808 4.03296 10.4984 3.88445C10.3161 3.73593 10.2119 3.48841 10.2119 3.26564V2.82009V0.666626H3.07408C2.96987 0.666626 2.89172 0.740883 2.89172 0.839893V1.08742V2.77059V13.0924C2.89172 13.1914 2.96987 13.2656 3.07408 13.2656H11.0455H13.39C13.4942 13.2656 13.5724 13.1914 13.5724 13.0924V3.8597L11.1757 4.10722Z" fill="#E2E2E2" fill-opacity="0.32"/>
<path d="M3.07401 13.9092C2.57905 13.9092 2.1883 13.5379 2.1883 13.0676V2.74581V1.73096H1.56309C1.45889 1.73096 1.38074 1.80521 1.38074 1.90422V14.1319C1.38074 14.231 1.45889 14.3052 1.56309 14.3052H11.9051C12.0093 14.3052 12.0874 14.231 12.0874 14.1319V13.8844H11.0454H3.07401V13.9092Z" fill="#E2E2E2" fill-opacity="0.32"/>
<path d="M0.67731 14.1567V3.09235H0.182353C0.0781513 3.09235 0 3.1666 0 3.26561V15.4933C0 15.5923 0.0781513 15.6666 0.182353 15.6666H10.5243C10.6286 15.6666 10.7067 15.5923 10.7067 15.4933V14.9983H1.56302C1.06807 14.9983 0.67731 14.627 0.67731 14.1567Z" fill="#E2E2E2" fill-opacity="0.32"/>
<path d="M10.8892 3.26565C10.8892 3.33991 10.9413 3.38942 10.9413 3.38942C10.9673 3.41417 11.0194 3.43892 11.0976 3.43892L13.1816 3.2409L10.8892 1.06268V2.79536V3.26565Z" fill="#E2E2E2" fill-opacity="0.32"/>
</svg>
