<svg width="25" height="15" viewBox="0 0 25 15" fill="none" xmlns="http://www.w3.org/2000/svg">
<path d="M7.35079 8.65469V5.70068H0.376079C0.27634 5.70189 0.181078 5.74022 0.110758 5.80744C0.0404382 5.87466 0.000671222 5.96541 0 6.06018V12.386C0.00104149 12.4798 0.041224 12.5695 0.11173 12.6352C0.182236 12.7009 0.277306 12.7374 0.376079 12.7366H3.3619C3.49101 12.7371 3.61493 12.7849 3.70782 12.8701L5.99954 15.0001V13.2022C5.99828 13.1419 6.00962 13.0819 6.0329 13.0258C6.05617 12.9696 6.09093 12.9184 6.13516 12.8751C6.17939 12.8318 6.23221 12.7973 6.29058 12.7735C6.34894 12.7497 6.41168 12.7372 6.47518 12.7366H12.3168C12.4165 12.7377 12.5127 12.7016 12.5846 12.636C12.6566 12.5705 12.6987 12.4807 12.7017 12.386V10.1687H8.96223C8.0877 10.1687 7.35079 9.4857 7.35079 8.65469Z" fill="#57CBA1"/>
<path d="M24.2464 0H8.96228C8.62425 0 8.32373 0.236242 8.32373 0.557481V8.65463C8.32373 8.97582 8.62425 9.24426 8.96228 9.24426H16.4394C16.5024 9.24362 16.565 9.25495 16.6234 9.2776C16.6818 9.30025 16.7348 9.33377 16.7793 9.37617C16.8239 9.41857 16.8591 9.469 16.8829 9.52451C16.9066 9.58002 16.9184 9.63947 16.9177 9.69939V12.3083L20.0796 9.37266C20.1725 9.28896 20.2961 9.24291 20.4241 9.24426H24.2463C24.41 9.24265 24.5664 9.17989 24.6818 9.06956C24.7972 8.95923 24.8623 8.81018 24.863 8.65463V0.557481C24.863 0.236242 24.5845 0 24.2464 0ZM22.5929 7.08727H10.5938C10.4648 7.08727 10.3411 7.03857 10.2499 6.95189C10.1586 6.86521 10.1074 6.74764 10.1074 6.62506C10.1074 6.50247 10.1586 6.3849 10.2499 6.29822C10.3411 6.21154 10.4648 6.16284 10.5938 6.16284H22.5929C22.7219 6.16284 22.8457 6.21154 22.9369 6.29822C23.0281 6.3849 23.0794 6.50247 23.0794 6.62506C23.0794 6.74764 23.0281 6.86521 22.9369 6.95189C22.8457 7.03857 22.7219 7.08727 22.5929 7.08727ZM22.5929 4.98163H10.5938C10.4648 4.98163 10.3411 4.93293 10.2499 4.84625C10.1586 4.75957 10.1074 4.642 10.1074 4.51942C10.1074 4.39683 10.1586 4.27927 10.2499 4.19258C10.3411 4.1059 10.4648 4.0572 10.5938 4.0572H22.5929C22.7219 4.0572 22.8457 4.1059 22.9369 4.19258C23.0281 4.27927 23.0794 4.39683 23.0794 4.51942C23.0794 4.642 23.0281 4.75957 22.9369 4.84625C22.8457 4.93293 22.7219 4.98163 22.5929 4.98163ZM22.5929 2.92735H10.5938C10.4648 2.92735 10.3411 2.87865 10.2499 2.79197C10.1586 2.70529 10.1074 2.58772 10.1074 2.46514C10.1074 2.34255 10.1586 2.22498 10.2499 2.1383C10.3411 2.05162 10.4648 2.00292 10.5938 2.00292H22.5929C22.7219 2.00292 22.8457 2.05162 22.9369 2.1383C23.0281 2.22498 23.0794 2.34255 23.0794 2.46514C23.0794 2.58772 23.0281 2.70529 22.9369 2.79197C22.8457 2.87865 22.7219 2.92735 22.5929 2.92735Z" fill="#57CBA1"/>
</svg>
