<svg width="28" height="15" viewBox="0 0 28 15" fill="none" xmlns="http://www.w3.org/2000/svg">
<path d="M24.222 2.65491L19.4834 5.20555V12.7496L27.6272 8.36228L24.222 2.65491ZM20.9133 5.78049L21.0443 6.00195C21.2121 5.97892 21.383 5.98864 21.5467 6.0305C21.7104 6.07235 21.8634 6.14544 21.9963 6.24536L21.4336 6.92108C21.3852 6.88477 21.3273 6.86168 21.266 6.85425C21.2048 6.84682 21.1427 6.85533 21.0862 6.87891C21.0297 6.90248 20.981 6.94017 20.9453 6.98801C20.9097 7.03586 20.8884 7.09207 20.8837 7.15054C20.8791 7.209 20.8913 7.26759 20.919 7.31998C20.9467 7.37237 20.9889 7.41655 21.041 7.4479C21.0931 7.47926 21.1533 7.4966 21.215 7.49797C21.2767 7.49934 21.3376 7.48469 21.3912 7.45569C21.644 7.32019 21.9387 7.27275 22.2244 7.3215C22.5101 7.37025 22.769 7.51216 22.9564 7.72278C23.1438 7.9334 23.248 8.19959 23.2511 8.47538C23.2542 8.75118 23.156 9.01936 22.9733 9.23372L23.1043 9.45334L22.3162 9.87819L22.1852 9.65847C22.0171 9.68174 21.8458 9.67221 21.6818 9.63035C21.5177 9.5885 21.3644 9.51521 21.2313 9.41506L21.794 8.73934C21.8423 8.77579 21.9001 8.79909 21.9613 8.8067C22.0224 8.81432 22.0846 8.80598 22.1412 8.78259C22.1978 8.7592 22.2466 8.72164 22.2824 8.67392C22.3182 8.62619 22.3397 8.57015 22.3446 8.51172C22.3494 8.45328 22.3375 8.39464 22.31 8.34216C22.2825 8.28969 22.2405 8.24534 22.1884 8.21381C22.1364 8.18228 22.0764 8.1648 22.0147 8.1632C21.9531 8.16161 21.8921 8.17593 21.8384 8.20473C21.5855 8.34023 21.2909 8.38767 21.0052 8.33892C20.7195 8.29017 20.4606 8.14826 20.2732 7.93764C20.0858 7.72702 19.9815 7.46094 19.9784 7.18514C19.9753 6.90934 20.0736 6.64117 20.2562 6.4268L20.1232 6.20708L20.9133 5.78049Z" fill="#57CBA1"/>
<path d="M5.91994 0C5.65826 5.63642e-08 5.40731 0.0987372 5.22227 0.27455C5.03724 0.450362 4.93329 0.688875 4.93328 0.937514V3.74995H0.986656C0.857085 3.74995 0.728782 3.7742 0.609074 3.82131C0.489365 3.86843 0.380596 3.93755 0.288976 4.0246C0.197356 4.11166 0.12468 4.21493 0.0750975 4.32867C0.0255148 4.44242 -3.25143e-06 4.56434 3.10734e-10 4.68746V14.0625C3.32338e-06 14.3111 0.103956 14.5495 0.288989 14.7253C0.474023 14.9012 0.724981 15 0.986656 15H17.7598C18.0215 15 18.2725 14.9012 18.4575 14.7253C18.6425 14.5495 18.7465 14.3111 18.7465 14.0625V4.68746C18.7465 4.56434 18.721 4.44242 18.6714 4.32867C18.6218 4.21493 18.5491 4.11166 18.4575 4.0246C18.3659 3.93755 18.2571 3.86843 18.1374 3.82131C18.0177 3.7742 17.8894 3.74995 17.7598 3.74995H13.8132V0.937514C13.8132 0.688875 13.7092 0.450362 13.5242 0.27455C13.3392 0.0987372 13.0882 5.6364e-08 12.8265 0H5.91994ZM5.91994 0.937514H12.8265V3.74995H5.91994V0.937514Z" fill="#57CBA1"/>
<path d="M3.94696 2.34412V3.28163H1.97363V2.34412H3.94696Z" fill="#57CBA1"/>
<path d="M14.7998 2.34412V3.28163H16.7731V2.34412H14.7998Z" fill="#57CBA1"/>
</svg>
