<svg width="15" height="15" viewBox="0 0 15 15" fill="none" xmlns="http://www.w3.org/2000/svg">
<path d="M0.624893 8.40009C0.459169 8.4001 0.300238 8.46333 0.183053 8.57585C0.0658687 8.68837 1.67463e-05 8.84097 0 9.00009V13.8001C1.67463e-05 13.9592 0.0658687 14.1118 0.183053 14.2243C0.300238 14.3368 0.459169 14.4001 0.624893 14.4001H5.62396C5.78969 14.4001 5.94862 14.3368 6.0658 14.2243C6.18299 14.1118 6.24882 13.9592 6.24884 13.8001V9.00009C6.24882 8.84097 6.18299 8.68837 6.0658 8.57585C5.94862 8.46333 5.78969 8.4001 5.62396 8.40009H0.624893Z" fill="#57CBA1"/>
<path d="M8.74855 8.40009C8.58283 8.4001 8.4239 8.46333 8.30671 8.57585C8.18953 8.68837 8.12367 8.84097 8.12366 9.00009V13.8001C8.12367 13.9592 8.18953 14.1118 8.30671 14.2243C8.4239 14.3368 8.58283 14.4001 8.74855 14.4001H13.7476C13.9133 14.4001 14.0723 14.3368 14.1895 14.2243C14.3066 14.1118 14.3725 13.9592 14.3725 13.8001V9.00009C14.3725 8.84097 14.3066 8.68837 14.1895 8.57585C14.0723 8.46333 13.9133 8.4001 13.7476 8.40009H8.74855Z" fill="#57CBA1"/>
<path d="M11.2382 7.01407e-05C11.0759 0.00255836 10.9209 0.065593 10.8061 0.175851L7.68172 3.17586C7.56458 3.28839 7.49878 3.44097 7.49878 3.60007C7.49878 3.75918 7.56458 3.91178 7.68172 4.0243L10.8061 7.0243C10.9233 7.13677 11.0823 7.19996 11.248 7.19996C11.4137 7.19996 11.5726 7.13677 11.6898 7.0243L14.8142 4.0243C14.9313 3.91178 14.9971 3.75918 14.9971 3.60007C14.9971 3.44097 14.9313 3.28839 14.8142 3.17586L11.6898 0.175851C11.6306 0.119006 11.5601 0.0741615 11.4826 0.0439635C11.405 0.0137656 11.3219 -0.00115851 11.2382 7.01407e-05ZM11.2479 1.4485L13.4887 3.60006L11.2479 5.75163L9.00708 3.60006L11.2479 1.4485Z" fill="#57CBA1"/>
<path d="M0.624893 0.600037C0.459169 0.600053 0.300238 0.663282 0.183053 0.775801C0.0658687 0.888319 1.67463e-05 1.04092 0 1.20005V6.00003C1.67463e-05 6.15916 0.0658687 6.31176 0.183053 6.42428C0.300238 6.5368 0.459169 6.60003 0.624893 6.60004H5.62396C5.78969 6.60003 5.94862 6.5368 6.0658 6.42428C6.18299 6.31176 6.24882 6.15916 6.24884 6.00003V1.20005C6.24882 1.04092 6.18299 0.888319 6.0658 0.775801C5.94862 0.663282 5.78969 0.600053 5.62396 0.600037H0.624893Z" fill="#57CBA1"/>
</svg>
