<svg width="16" height="15" viewBox="0 0 16 15" fill="none" xmlns="http://www.w3.org/2000/svg">
<path d="M8.42422 13.9994V7.24564C8.42422 7.20684 8.43373 7.16858 8.45199 7.13388C8.47025 7.09918 8.49676 7.06899 8.52942 7.04571L9.58265 6.29515C9.62819 6.2627 9.68358 6.24516 9.7405 6.24516C9.79743 6.24516 9.85281 6.2627 9.89835 6.29515L10.9516 7.04571C10.9843 7.06899 11.0108 7.09918 11.029 7.13388C11.0473 7.16858 11.0568 7.20684 11.0568 7.24564V13.9994H8.42422ZM14.4791 13.9994V4.49409C14.4791 4.45529 14.4696 4.41703 14.4514 4.38233C14.4331 4.34763 14.4066 4.31744 14.3739 4.29416L13.3207 3.5436C13.2752 3.51115 13.2198 3.49361 13.1628 3.49361C13.1059 3.49361 13.0505 3.51115 13.005 3.5436L11.9518 4.29416C11.9191 4.31744 11.8926 4.34763 11.8743 4.38233C11.8561 4.41703 11.8466 4.45529 11.8466 4.49409V13.9994H14.4791ZM7.63445 13.9994V5.74504C7.63445 5.70617 7.62493 5.66783 7.60663 5.63307C7.58834 5.5983 7.56177 5.56806 7.52904 5.54473L6.47602 4.79431C6.43048 4.76186 6.37509 4.74432 6.31816 4.74432C6.26124 4.74432 6.20585 4.76186 6.16031 4.79431L5.10729 5.54473C5.07456 5.56806 5.04799 5.5983 5.0297 5.63307C5.0114 5.66783 5.00188 5.70617 5.00188 5.74504V13.9994H7.63445ZM4.21211 13.9994V3.24338C4.21211 3.20459 4.2026 3.16633 4.18434 3.13162C4.16608 3.09692 4.13957 3.06674 4.10691 3.04346L3.05368 2.2929C3.00814 2.26045 2.95275 2.24291 2.89583 2.24291C2.8389 2.24291 2.78351 2.26045 2.73797 2.2929L1.68474 3.04346C1.65208 3.06674 1.62557 3.09692 1.60731 3.13162C1.58905 3.16633 1.57954 3.20459 1.57954 3.24338V13.9994H4.21211ZM15.5322 14.4997H0.526514V0.241694C0.524169 0.17684 0.495406 0.115386 0.446292 0.070295C0.397178 0.0252037 0.331552 0 0.263257 0C0.194962 0 0.129336 0.0252037 0.080222 0.070295C0.0311079 0.115386 0.00234502 0.17684 4.28189e-08 0.241694V14.7499C-1.96829e-05 14.7827 0.00677618 14.8152 0.0199991 14.8456C0.033222 14.876 0.0526126 14.9035 0.0770622 14.9268C0.101512 14.95 0.130541 14.9684 0.16249 14.981C0.194438 14.9936 0.22868 15 0.263257 15H15.5322C15.6004 14.9978 15.6651 14.9704 15.7125 14.9238C15.7599 14.8771 15.7864 14.8147 15.7864 14.7499C15.7864 14.685 15.7599 14.6226 15.7125 14.576C15.6651 14.5293 15.6004 14.502 15.5322 14.4997Z" fill="#E2E2E2" fill-opacity="0.32"/>
</svg>
