<svg width="17" height="15" viewBox="0 0 17 15" fill="none" xmlns="http://www.w3.org/2000/svg">
<path d="M16.6906 1.68504V3.86565H0V1.68504C0 1.12336 0.452037 0.693848 1.04316 0.693848H2.43405V1.35464C2.1211 1.55288 1.94724 1.91631 1.94724 2.27975C1.94724 2.9075 2.50359 3.43614 3.16426 3.43614C3.82493 3.43614 4.38128 2.9075 4.38128 2.27975C4.38128 1.91631 4.20742 1.55288 3.89447 1.35464V0.693848H5.91125V1.35464C5.5983 1.55288 5.38967 1.91631 5.38967 2.27975C5.38967 2.9075 5.94602 3.43614 6.60669 3.43614C7.26736 3.43614 7.82372 2.9075 7.82372 2.27975C7.82372 1.91631 7.64986 1.55288 7.33691 1.35464V0.693848H9.38846V1.35464C9.07551 1.58592 8.86688 1.91631 8.86688 2.27975C8.86688 2.9075 9.42323 3.43614 10.0839 3.43614C10.7446 3.43614 11.3009 2.9075 11.3009 2.27975C11.3009 1.91631 11.0923 1.55288 10.7793 1.35464V0.693848H12.7961V1.35464C12.4832 1.58592 12.2745 1.91631 12.2745 2.27975C12.2745 2.9075 12.8309 3.43614 13.4916 3.43614C14.1522 3.43614 14.7086 2.9075 14.7086 2.27975C14.7086 1.91631 14.5347 1.55288 14.187 1.35464V0.693848H15.5779C16.2038 0.693848 16.6906 1.12336 16.6906 1.68504Z" fill="#57CBA1"/>
<path d="M0 4.19598V14.0088C0 14.5704 0.452037 14.9999 1.04316 14.9999H15.6474C16.2038 14.9999 16.6906 14.5704 16.6906 14.0088V4.19598H0ZM3.54675 13.0176C3.54675 13.2158 3.40766 13.348 3.19903 13.348H1.63429C1.42566 13.348 1.28657 13.2158 1.28657 13.0176V11.5308C1.28657 11.3325 1.42566 11.2004 1.63429 11.2004H3.19903C3.40766 11.2004 3.54675 11.3325 3.54675 11.5308V13.0176ZM3.54675 10.1762C3.54675 10.3744 3.40766 10.5066 3.19903 10.5066H1.63429C1.42566 10.5066 1.28657 10.3744 1.28657 10.1762V8.68938C1.28657 8.49114 1.42566 8.35898 1.63429 8.35898H3.19903C3.40766 8.35898 3.54675 8.49114 3.54675 8.68938V10.1762ZM3.54675 7.36779C3.54675 7.56603 3.40766 7.69819 3.19903 7.69819H1.63429C1.42566 7.69819 1.28657 7.56603 1.28657 7.36779V5.88101C1.28657 5.68277 1.42566 5.55061 1.63429 5.55061H3.19903C3.40766 5.55061 3.54675 5.68277 3.54675 5.88101V7.36779ZM6.50238 13.0176C6.50238 13.2158 6.36329 13.348 6.15466 13.348H4.58991C4.38128 13.348 4.24219 13.2158 4.24219 13.0176V11.5308C4.24219 11.3325 4.38128 11.2004 4.58991 11.2004H6.15466C6.36329 11.2004 6.50238 11.3325 6.50238 11.5308V13.0176ZM6.50238 10.1762C6.50238 10.3744 6.36329 10.5066 6.15466 10.5066H4.58991C4.38128 10.5066 4.24219 10.3744 4.24219 10.1762V8.68938C4.24219 8.49114 4.38128 8.35898 4.58991 8.35898H6.15466C6.36329 8.35898 6.50238 8.49114 6.50238 8.68938V10.1762ZM6.50238 7.36779C6.50238 7.56603 6.36329 7.69819 6.15466 7.69819H4.58991C4.38128 7.69819 4.24219 7.56603 4.24219 7.36779V5.88101C4.24219 5.68277 4.38128 5.55061 4.58991 5.55061H6.15466C6.36329 5.55061 6.50238 5.68277 6.50238 5.88101V7.36779ZM9.458 13.0176C9.458 13.2158 9.31892 13.348 9.11028 13.348H7.54554C7.33691 13.348 7.19782 13.2158 7.19782 13.0176V11.5308C7.19782 11.3325 7.33691 11.2004 7.54554 11.2004H9.11028C9.31892 11.2004 9.458 11.3325 9.458 11.5308V13.0176ZM9.458 10.1762C9.458 10.3744 9.31892 10.5066 9.11028 10.5066H7.54554C7.33691 10.5066 7.19782 10.3744 7.19782 10.1762V8.68938C7.19782 8.49114 7.33691 8.35898 7.54554 8.35898H9.11028C9.31892 8.35898 9.458 8.49114 9.458 8.68938V10.1762ZM9.458 7.36779C9.458 7.56603 9.31892 7.69819 9.11028 7.69819H7.54554C7.33691 7.69819 7.19782 7.56603 7.19782 7.36779V5.88101C7.19782 5.68277 7.33691 5.55061 7.54554 5.55061H9.11028C9.31892 5.55061 9.458 5.68277 9.458 5.88101V7.36779ZM12.4484 13.0176C12.4484 13.2158 12.3093 13.348 12.1007 13.348H10.5359C10.3273 13.348 10.1882 13.2158 10.1882 13.0176V11.5308C10.1882 11.3325 10.3273 11.2004 10.5359 11.2004H12.1007C12.3093 11.2004 12.4484 11.3325 12.4484 11.5308V13.0176ZM12.4484 10.2092C12.4484 10.4074 12.3093 10.5396 12.1007 10.5396H10.5359C10.3273 10.5396 10.1882 10.4074 10.1882 10.2092V8.72242C10.1882 8.52418 10.3273 8.39202 10.5359 8.39202H12.1007C12.3093 8.39202 12.4484 8.52418 12.4484 8.72242V10.2092ZM12.4484 7.36779C12.4484 7.56603 12.3093 7.69819 12.1007 7.69819H10.5359C10.3273 7.69819 10.1882 7.56603 10.1882 7.36779V5.88101C10.1882 5.68277 10.3273 5.55061 10.5359 5.55061H12.1007C12.3093 5.55061 12.4484 5.68277 12.4484 5.88101V7.36779ZM15.404 13.0176C15.404 13.2158 15.2649 13.348 15.0563 13.348H13.4916C13.2829 13.348 13.1438 13.2158 13.1438 13.0176V11.5308C13.1438 11.3325 13.2829 11.2004 13.4916 11.2004H15.0563C15.2649 11.2004 15.404 11.3325 15.404 11.5308V13.0176ZM15.404 10.1762C15.404 10.3744 15.2649 10.5066 15.0563 10.5066H13.4916C13.2829 10.5066 13.1438 10.3744 13.1438 10.1762V8.68938C13.1438 8.49114 13.2829 8.35898 13.4916 8.35898H15.0563C15.2649 8.35898 15.404 8.49114 15.404 8.68938V10.1762ZM15.404 7.36779C15.404 7.56603 15.2649 7.69819 15.0563 7.69819H13.4916C13.2829 7.69819 13.1438 7.56603 13.1438 7.36779V5.88101C13.1438 5.68277 13.2829 5.55061 13.4916 5.55061H15.0563C15.2649 5.55061 15.404 5.68277 15.404 5.88101V7.36779Z" fill="#57CBA1"/>
<path d="M4.03377 2.27974C4.03377 2.74229 3.65128 3.10573 3.16447 3.10573C2.67766 3.10573 2.29517 2.74229 2.29517 2.27974C2.29517 1.94934 2.5038 1.65198 2.81675 1.51982V0.330397C2.81675 0.132159 2.99061 0 3.16447 0C3.3731 0 3.54696 0.165198 3.54696 0.330397V1.55286C3.82514 1.68502 4.03377 1.94934 4.03377 2.27974Z" fill="#57CBA1"/>
<path d="M7.47591 2.27974C7.47591 2.74229 7.09342 3.10573 6.60661 3.10573C6.1198 3.10573 5.7373 2.74229 5.7373 2.27974C5.7373 1.94934 5.94594 1.65198 6.25889 1.51982V0.330397C6.25889 0.132159 6.43275 0 6.60661 0C6.81524 0 6.9891 0.165198 6.9891 0.330397V1.55286C7.26728 1.68502 7.47591 1.94934 7.47591 2.27974Z" fill="#57CBA1"/>
<path d="M14.3953 2.27974C14.3953 2.74229 14.0128 3.10573 13.526 3.10573C13.0392 3.10573 12.6567 2.74229 12.6567 2.27974C12.6567 1.94934 12.8654 1.65198 13.1783 1.51982V0.330397C13.1783 0.132159 13.3522 0 13.526 0C13.7347 0 13.8738 0.165198 13.8738 0.330397V1.55286C14.1867 1.68502 14.3953 1.94934 14.3953 2.27974Z" fill="#57CBA1"/>
<path d="M10.9532 2.27974C10.9532 2.74229 10.5707 3.10573 10.0839 3.10573C9.59709 3.10573 9.2146 2.74229 9.2146 2.27974C9.2146 1.94934 9.42323 1.65198 9.73618 1.51982V0.330397C9.73618 0.132159 9.91004 0 10.0839 0C10.2925 0 10.4316 0.165198 10.4316 0.330397V1.55286C10.7446 1.68502 10.9532 1.94934 10.9532 2.27974Z" fill="#57CBA1"/>
</svg>
