<svg width="17" height="16" viewBox="0 0 17 16" fill="none" xmlns="http://www.w3.org/2000/svg">
<path fill-rule="evenodd" clip-rule="evenodd" d="M2.23507 0.666626C1.35997 0.666626 0.656702 1.33546 0.656702 2.16798C0.656702 2.82711 1.09832 3.38219 1.71626 3.58541C1.71728 3.5857 1.71814 3.58625 1.7191 3.58652C1.75225 3.59735 1.78584 3.607 1.81996 3.61576C1.8356 3.61985 1.85141 3.62349 1.86725 3.62712C1.89411 3.63318 1.92106 3.63891 1.94845 3.64364C1.97319 3.648 1.99823 3.65122 2.02338 3.65446C2.04501 3.65719 2.06643 3.66069 2.08834 3.66259C2.13661 3.66685 2.18552 3.66935 2.23506 3.66935C2.2846 3.66935 2.33351 3.66685 2.38179 3.66259C2.40369 3.66069 2.42511 3.65721 2.44674 3.65446C2.4719 3.65122 2.49694 3.64801 2.52168 3.64364C2.54906 3.6389 2.57601 3.63317 2.60287 3.62712C2.61871 3.62349 2.63452 3.61985 2.65017 3.61576C2.68447 3.60696 2.71827 3.59715 2.75159 3.58625H2.7519C3.37103 3.38361 3.81373 2.8279 3.81373 2.16801C3.81373 1.76969 3.64746 1.38788 3.35134 1.10629C3.05521 0.824688 2.65377 0.66665 2.23508 0.66665L2.23507 0.666626ZM13.8987 0.666626C13.0783 0.666626 12.4088 1.25449 12.3283 2.01394C12.323 2.06457 12.3204 2.11595 12.3204 2.16798C12.3204 2.82711 12.762 3.38219 13.3799 3.58541C13.3809 3.5857 13.3818 3.58625 13.3828 3.58652C13.4159 3.59735 13.4495 3.607 13.4836 3.61576C13.4993 3.61985 13.5151 3.62349 13.5309 3.62712C13.5578 3.63318 13.5847 3.63891 13.6121 3.64364C13.6369 3.648 13.6619 3.65122 13.687 3.65446C13.7087 3.65719 13.7301 3.66069 13.752 3.66259C13.8003 3.66685 13.8492 3.66935 13.8987 3.66935C13.9483 3.66935 13.9972 3.66685 14.0455 3.66259C14.0674 3.66069 14.0888 3.65721 14.1104 3.65446C14.1356 3.65122 14.1606 3.64801 14.1853 3.64364C14.2127 3.6389 14.2397 3.63317 14.2665 3.62712C14.2824 3.62349 14.2982 3.61985 14.3138 3.61576C14.3481 3.60696 14.3819 3.59715 14.4153 3.58625H14.4156C15.0347 3.38361 15.4774 2.8279 15.4774 2.16801C15.4774 1.76969 15.3111 1.38788 15.015 1.10629C14.7189 0.824688 14.3174 0.66665 13.8988 0.66665L13.8987 0.666626ZM7.78043 1.57756C6.58701 1.5973 5.40815 1.91014 4.36728 2.4931C4.35235 2.58152 4.33306 2.66837 4.3066 2.75271C4.48296 2.82266 4.64553 2.92396 4.78324 3.05482C4.88961 3.15589 4.97793 3.27088 5.04678 3.3951C6.85529 2.41992 9.13997 2.42161 10.991 3.54074C11.0346 3.56709 11.0766 3.59495 11.1192 3.62223C11.2114 3.24284 11.4655 2.92138 11.8081 2.72645C11.7451 2.68552 11.6823 2.64437 11.6175 2.60517C10.5057 1.93301 9.25948 1.59774 8.01918 1.57756C7.93952 1.57632 7.85999 1.57617 7.78043 1.57756ZM12.1999 3.43029C12.1993 3.43058 12.1987 3.43084 12.1981 3.43113C12.1977 3.43127 12.1974 3.43155 12.197 3.43168C12.1608 3.44693 12.1264 3.46477 12.093 3.4842C12.0829 3.49006 12.0734 3.49666 12.0636 3.50288C12.0405 3.51756 12.0182 3.53311 11.9967 3.54971C11.9859 3.55804 11.9754 3.56664 11.9651 3.57543C11.9455 3.59203 11.9266 3.60924 11.9086 3.6274C11.8992 3.63695 11.8897 3.6464 11.8807 3.65637C11.8627 3.67639 11.8461 3.69759 11.83 3.71917C11.823 3.72859 11.8153 3.73737 11.8086 3.74706C11.7879 3.77745 11.7691 3.80913 11.7525 3.84208C11.747 3.85305 11.7428 3.86467 11.7377 3.87592C11.7271 3.8996 11.7171 3.92344 11.7086 3.94819C11.7035 3.96327 11.6995 3.97877 11.6953 3.99421C11.6916 4.00737 11.6869 4.02007 11.6839 4.03347C11.6844 4.03389 11.685 4.03431 11.6856 4.03487C11.6726 4.0931 11.6636 4.15275 11.6636 4.2149V5.07223L16.134 5.07252V4.21492C16.134 3.98738 16.039 3.76942 15.8697 3.60853C15.7907 3.53355 15.6984 3.47463 15.5984 3.4323C15.2024 3.91305 14.5881 4.22385 13.8987 4.22385C13.7294 4.22385 13.5648 4.20509 13.4067 4.16971C13.4061 4.16887 13.4057 4.16804 13.405 4.16727C13.3608 4.15737 13.3178 4.1448 13.2748 4.13235C13.254 4.12632 13.2329 4.12108 13.2124 4.11448C13.1697 4.10077 13.1279 4.08514 13.0864 4.069C13.064 4.06025 13.0418 4.0511 13.0198 4.04166C12.9775 4.02355 12.9355 4.00513 12.8947 3.98454C12.8808 3.97754 12.8676 3.96962 12.854 3.96234C12.7715 3.9185 12.6923 3.86958 12.6169 3.81616C12.604 3.80701 12.5906 3.7985 12.5779 3.78909C12.5403 3.7612 12.5043 3.73151 12.4688 3.70138C12.4529 3.68795 12.4372 3.67436 12.4218 3.6605C12.3885 3.63064 12.3558 3.60025 12.3246 3.56846C12.3107 3.55429 12.2977 3.53941 12.2842 3.52487C12.2554 3.49392 12.2266 3.46296 12.1998 3.4304L12.1999 3.43029ZM0.534478 3.43084C0.218421 3.56364 0 3.86286 0 4.21482V5.07216L4.47013 5.07245V4.21484C4.47013 4.07834 4.43541 3.94545 4.37156 3.8261C4.37141 3.82568 4.37098 3.8254 4.37067 3.82498C4.35086 3.78809 4.32824 3.75283 4.30287 3.71887C4.29878 3.71338 4.29455 3.70804 4.29034 3.70262C4.26449 3.6697 4.23695 3.63783 4.206 3.60842C4.16664 3.57102 4.12398 3.5376 4.07865 3.50826L4.07834 3.50797C4.05573 3.49334 4.03237 3.47996 4.00854 3.46736L4.00824 3.46707C3.98429 3.45441 3.95972 3.44273 3.93473 3.43215C3.88946 3.4871 3.84076 3.5394 3.79 3.5897C3.77658 3.60296 3.76248 3.61549 3.74869 3.62841C3.71038 3.66442 3.67062 3.69885 3.6296 3.73209C3.61234 3.74603 3.59518 3.76009 3.57746 3.77351C3.5325 3.80771 3.48563 3.83993 3.43786 3.8707C3.41556 3.88499 3.39322 3.89914 3.37034 3.91265C3.32322 3.94063 3.27504 3.9669 3.22561 3.99143C3.19356 4.00724 3.16056 4.02152 3.1276 4.03583C3.09836 4.04859 3.06892 4.06083 3.039 4.07237C2.99983 4.08739 2.96045 4.10174 2.92019 4.1146C2.89835 4.12162 2.87596 4.12747 2.85381 4.13383C2.81151 4.14591 2.76923 4.15828 2.72589 4.16793L2.7276 4.16934C2.56936 4.20479 2.40444 4.22375 2.235 4.22375C1.54497 4.22375 0.930324 3.91232 0.53441 3.43085L0.534478 3.43084ZM13.0084 5.62657C13.8286 7.11768 13.9098 8.9372 13.0896 10.551C12.4314 11.846 11.3023 12.7897 9.98359 13.2765C9.95827 13.3692 9.92825 13.4601 9.89014 13.5472C10.0317 13.6144 10.1628 13.7023 10.2768 13.8106C10.4079 13.9352 10.5107 14.0812 10.5842 14.2394C12.0942 13.6354 13.3812 12.5268 14.1403 11.0332C15.0315 9.27975 15.0309 7.31577 14.2896 5.62684L13.0084 5.62657ZM1.6872 6.87101L0.82451 12.714L2.54533 12.3659C2.80611 12.6661 3.09539 12.9454 3.41143 13.1996C3.93864 13.6237 4.54054 13.9763 5.20205 14.2405C5.34216 13.9406 5.58951 13.6957 5.89665 13.5483C5.85826 13.4607 5.82807 13.3692 5.80263 13.276C5.19235 13.0509 4.64286 12.7373 4.16557 12.3534C4.06386 12.2716 3.96631 12.1858 3.87127 12.0979L4.97897 11.8737L4.53709 11.2024L1.6872 6.87101ZM2.39746 10.0424L3.10573 11.119L2.21171 11.2995L2.39746 10.0424ZM7.89296 11.2608C7.01786 11.2608 6.3146 11.9297 6.3146 12.7622C6.3146 13.3745 6.69572 13.8972 7.24509 14.1314C7.24893 14.1331 7.25264 14.1349 7.25649 14.1366C7.28391 14.148 7.31203 14.158 7.34025 14.168C7.35662 14.1738 7.37291 14.1797 7.38954 14.185C7.41516 14.1932 7.44112 14.2003 7.46732 14.2072C7.48861 14.2129 7.51005 14.2181 7.5317 14.2229C7.55531 14.2281 7.57892 14.2333 7.60293 14.2375C7.61104 14.239 7.61899 14.2408 7.62715 14.2421C7.646 14.2452 7.66533 14.2468 7.68441 14.2492C7.70482 14.2517 7.72502 14.255 7.74567 14.2568C7.74979 14.2572 7.75378 14.2577 7.75792 14.2582H7.75823C7.80262 14.2617 7.84757 14.2636 7.89299 14.2636C7.9384 14.2636 7.98336 14.2617 8.02775 14.2582H8.02805C8.03218 14.2579 8.03618 14.2572 8.04031 14.2568C8.06095 14.255 8.08115 14.2517 8.10156 14.2492C8.12065 14.2468 8.13997 14.2452 8.15882 14.2421C8.16691 14.2409 8.17472 14.239 8.18276 14.2375C8.20725 14.2333 8.23133 14.228 8.25541 14.2227C8.27617 14.218 8.2968 14.2132 8.31723 14.2078C8.34412 14.2007 8.37073 14.1931 8.397 14.1848C8.41265 14.1797 8.42803 14.1743 8.44344 14.1688C8.47283 14.1584 8.5021 14.148 8.53062 14.136H8.53093C9.08595 13.904 9.47168 13.3783 9.47168 12.7622C9.47168 12.3639 9.3054 11.9821 9.00928 11.7005C8.71316 11.4189 8.31172 11.2608 7.89303 11.2608L7.89296 11.2608ZM6.19238 14.0253L6.19207 14.0256C6.14672 14.0447 6.10398 14.0679 6.06301 14.0935C6.05286 14.0999 6.04352 14.1071 6.03366 14.1138C6.00315 14.1346 5.97423 14.1571 5.94677 14.1812C5.93743 14.1895 5.92837 14.1978 5.91942 14.2064C5.89115 14.2335 5.86503 14.2623 5.84078 14.2928C5.83572 14.2992 5.83028 14.3052 5.8254 14.3117C5.72057 14.4517 5.65788 14.6225 5.65788 14.809V15.6666H10.1283V14.809C10.1283 14.6772 10.0955 14.5489 10.0357 14.4327C10.0149 14.3923 9.99104 14.3534 9.96363 14.3163C9.96065 14.3123 9.95728 14.3085 9.95422 14.3044C9.92792 14.2702 9.89935 14.2372 9.86761 14.2067C9.8663 14.2055 9.86549 14.2039 9.86419 14.2026H9.86389C9.84598 14.1856 9.82728 14.1695 9.80805 14.1542C9.80609 14.1526 9.80431 14.1508 9.80234 14.1493C9.78108 14.1326 9.75919 14.1169 9.73653 14.1022H9.73622C9.69091 14.0728 9.64308 14.0475 9.59322 14.0264L9.59292 14.0267L9.59261 14.0264C9.54788 14.0807 9.49968 14.1323 9.44959 14.182C9.43826 14.1933 9.42671 14.2043 9.41512 14.2153C9.36844 14.2597 9.31997 14.3021 9.26925 14.3423C9.26386 14.3466 9.25872 14.3511 9.25329 14.3553C9.19841 14.3979 9.14062 14.4375 9.0815 14.4749C9.06558 14.485 9.04927 14.4945 9.03306 14.5042C8.98545 14.5326 8.93661 14.5591 8.88662 14.584C8.87088 14.5919 8.85558 14.6004 8.83961 14.6079C8.77944 14.6361 8.71757 14.6611 8.65443 14.6839C8.63144 14.6922 8.60798 14.6997 8.58462 14.7072C8.36721 14.7778 8.13504 14.8179 7.89288 14.8179C7.65022 14.8179 7.4178 14.7775 7.19999 14.7067C7.17739 14.6994 7.15472 14.6922 7.13247 14.6842C7.06936 14.6614 7.00715 14.6365 6.947 14.6084C6.92956 14.6003 6.91289 14.591 6.89572 14.5824C6.84671 14.5579 6.79884 14.5318 6.75212 14.5039C6.7357 14.4941 6.71925 14.4843 6.70312 14.4741C6.64459 14.437 6.5874 14.398 6.53303 14.3558C6.52561 14.3501 6.51871 14.3438 6.51138 14.338C6.46249 14.299 6.41574 14.2576 6.37064 14.2148C6.35877 14.2035 6.34691 14.1922 6.33531 14.1807C6.28527 14.1309 6.23696 14.0796 6.19229 14.0253H6.19238Z" fill="#E2E2E2" fill-opacity="0.32"/>
</svg>
