<svg width="14" height="16" viewBox="0 0 14 16" fill="none" xmlns="http://www.w3.org/2000/svg">
<path d="M6.84112 11C7.98596 11 9.10508 10.6774 10.057 10.0731C11.0089 9.46873 11.7508 8.60975 12.1889 7.60476C12.627 6.59977 12.7416 5.4939 12.5183 4.427C12.2949 3.36011 11.7437 2.3801 10.9341 1.61091C10.1246 0.841726 9.09322 0.317902 7.97038 0.105683C6.84755 -0.106535 5.68369 0.00238303 4.626 0.418665C3.56831 0.834947 2.66429 1.5399 2.02825 2.44437C1.39222 3.34884 1.05273 4.4122 1.05273 5.5C1.05416 6.95827 1.66447 8.35643 2.74969 9.38759C3.83492 10.4187 5.30639 10.9986 6.84112 11ZM6.84112 1.02314C7.77342 1.02314 8.68478 1.28585 9.45994 1.77803C10.2351 2.27022 10.8392 2.96978 11.1959 3.78823C11.5526 4.60668 11.6458 5.50726 11.4638 6.37606C11.2818 7.24487 10.8327 8.04287 10.1734 8.66914C9.51401 9.29541 8.67399 9.72182 7.75956 9.89443C6.84513 10.067 5.89737 9.97811 5.03614 9.63888C4.17491 9.29964 3.4389 8.72535 2.9212 7.98863C2.4035 7.2519 2.12737 6.38585 2.12772 5.5C2.12915 4.31278 2.62625 3.17461 3.50993 2.33528C4.39361 1.49595 5.59166 1.02404 6.84112 1.02314Z" fill="#57CBA1"/>
<path d="M4.7593 6.99581H6.81976C6.96496 6.99581 7.10423 6.92952 7.2069 6.81152C7.30958 6.69352 7.36727 6.53348 7.36727 6.36661V2.62919C7.36727 2.54657 7.3531 2.46475 7.32559 2.38841C7.29807 2.31207 7.25774 2.24271 7.2069 2.18429C7.15606 2.12586 7.09571 2.07951 7.02928 2.04789C6.96285 2.01627 6.89166 2 6.81976 2C6.74786 2 6.67666 2.01627 6.61023 2.04789C6.54381 2.07951 6.48345 2.12586 6.43261 2.18429C6.38177 2.24271 6.34144 2.31207 6.31392 2.38841C6.28641 2.46475 6.27225 2.54657 6.27225 2.62919V5.74161H4.75747C4.61226 5.74161 4.473 5.8079 4.37032 5.9259C4.26764 6.04389 4.20996 6.20393 4.20996 6.37081C4.20996 6.53768 4.26764 6.69772 4.37032 6.81571C4.473 6.93371 4.61226 7 4.75747 7L4.7593 6.99581Z" fill="#57CBA1"/>
<path d="M12.2152 13.007C11.9267 13.0089 11.6452 13.099 11.4067 13.2657C11.1683 13.4325 10.9836 13.6683 10.8764 13.9432H8.17716C8.07049 13.6651 7.88471 13.4264 7.644 13.2582C7.40328 13.09 7.11878 13 6.82754 13C6.5363 13 6.2518 13.09 6.01109 13.2582C5.77038 13.4264 5.58459 13.6651 5.47793 13.9432H2.8003C2.67485 13.6217 2.44423 13.3552 2.14805 13.1893C1.85188 13.0233 1.50863 12.9684 1.17729 13.034C0.84595 13.0995 0.547196 13.2814 0.332355 13.5484C0.117515 13.8154 0 14.1508 0 14.4971C0 14.8433 0.117515 15.1787 0.332355 15.4457C0.547196 15.7127 0.84595 15.8946 1.17729 15.9601C1.50863 16.0257 1.85188 15.9708 2.14805 15.8049C2.44423 15.639 2.67485 15.3724 2.8003 15.051H5.48693C5.59288 15.3298 5.7784 15.5693 6.0192 15.7381C6.26001 15.907 6.54488 15.9973 6.83654 15.9973C7.1282 15.9973 7.41307 15.907 7.65388 15.7381C7.89468 15.5693 8.0802 15.3298 8.18615 15.051H10.8764C10.9724 15.3038 11.1339 15.525 11.3435 15.6906C11.5531 15.8561 11.8027 15.9598 12.0656 15.9905C12.3284 16.0211 12.5943 15.9775 12.8348 15.8644C13.0752 15.7513 13.2809 15.5729 13.4298 15.3486C13.5787 15.1243 13.665 14.8625 13.6795 14.5915C13.6939 14.3205 13.636 14.0506 13.5119 13.811C13.3878 13.5713 13.2023 13.3709 12.9754 13.2315C12.7484 13.0921 12.4887 13.019 12.2242 13.02L12.2152 13.007Z" fill="#57CBA1"/>
</svg>
