<svg width="16" height="15" viewBox="0 0 16 15" fill="none" xmlns="http://www.w3.org/2000/svg">
<path d="M15.7865 1.26788C15.7865 1.17804 15.749 1.09153 15.6811 1.02703L14.7048 0.0992605C14.5638 -0.0330868 14.3389 -0.0330868 14.1996 0.0992605L13.6268 0.641984L13.4554 0.479134C13.3554 0.382457 13.2181 0.329952 13.077 0.329952C12.9343 0.329952 12.7985 0.382457 12.6987 0.479134L10.5658 2.50601H3.88809V0.685989C3.88809 0.404459 3.64902 0.177102 3.35258 0.177102C3.05632 0.177102 2.81707 0.404459 2.81707 0.685989V2.50601H0.901997C0.605738 2.50601 0.366486 2.73337 0.366486 3.0149C0.366486 3.29643 0.605563 3.52379 0.901997 3.52379H2.81725V9.86929L1.87848 10.7632L1.84269 10.7954C1.79095 10.8446 1.74991 10.9022 1.72307 10.9632L0.052335 14.2708C-0.0458918 14.4658 -0.00309302 14.6981 0.157578 14.8508C0.259313 14.9492 0.396655 15 0.535927 15C0.614508 15 0.692914 14.983 0.767988 14.9508L4.2789 13.3497C4.33257 13.3242 4.38238 13.292 4.42536 13.2496L5.40166 12.3219H12.0755V14.1419C12.0755 14.4234 12.3165 14.6508 12.611 14.6508C12.9072 14.6508 13.1465 14.4234 13.1465 14.1419V12.3219H15.0617C15.358 12.3219 15.5973 12.0945 15.5973 11.813C15.5973 11.5315 15.3582 11.3041 15.0617 11.3041H13.1467V4.96211L15.2814 2.93356C15.4903 2.73504 15.4903 2.41284 15.2814 2.21432L15.11 2.05147L15.6811 1.50708C15.749 1.44424 15.7865 1.35773 15.7865 1.26788ZM3.88809 3.52379H9.49457L3.88809 8.85152V3.52379ZM1.67834 13.4057L2.45837 11.8605L3.30627 12.6644L1.67834 13.4057ZM6.47269 11.3041L12.0757 5.97988V11.3043H6.47269V11.3041ZM12.2326 4.39221L4.83949 11.4195C4.82704 11.4313 4.81441 11.4415 4.80195 11.4535L3.92195 12.2914L2.85285 11.2754L11.1653 3.37461L13.077 1.55791L14.1463 2.57385L12.2326 4.39221ZM14.6566 1.52058L14.1852 1.07103L14.4512 0.818336L14.9242 1.26788L14.6566 1.52058Z" fill="#E2E2E2" fill-opacity="0.35"/>
</svg>
