<svg xmlns="http://www.w3.org/2000/svg" width="172.237" height="172.237" viewBox="0 0 172.237 172.237">
  <g id="noun_Kanban_Board_2013855" data-name="noun_Kanban Board_2013855" transform="translate(-5.763 -5.763)">
    <g id="Group_2070" data-name="Group 2070" transform="translate(5.763 5.763)">
      <path id="Path_11571" data-name="Path 11571" d="M65.672,24.484h52.42V5.763h11.233V24.484H178V35.717H129.324V178H118.091V35.717H65.672V178H54.439V35.717H5.763V24.484H54.439V5.763H65.672Z" transform="translate(-5.763 -5.763)" fill="#33373b"/>
      <path id="Path_11572" data-name="Path 11572" d="M24.653,118.768H48.991a5.616,5.616,0,0,1,5.616,5.616v20.594a5.616,5.616,0,0,1-5.616,5.616H24.653a5.616,5.616,0,0,1-5.616-5.616V124.384A5.616,5.616,0,0,1,24.653,118.768Z" transform="translate(-14.357 -78.922)" fill="#373d42"/>
      <path id="Path_11573" data-name="Path 11573" d="M205.176,118.768h24.338a5.616,5.616,0,0,1,5.616,5.616v20.594a5.616,5.616,0,0,1-5.616,5.616H205.176a5.616,5.616,0,0,1-5.616-5.616V124.384A5.616,5.616,0,0,1,205.176,118.768Z" transform="translate(-131.227 -78.922)" fill="#373d42"/>
      <path id="Path_11574" data-name="Path 11574" d="M205.176,363.3h24.338a5.616,5.616,0,0,1,5.616,5.617v20.593a5.616,5.616,0,0,1-5.616,5.617H205.176a5.616,5.616,0,0,1-5.616-5.617V368.918A5.616,5.616,0,0,1,205.176,363.3Z" transform="translate(-131.227 -237.232)" fill="#373d42"/>
      <path id="Path_11575" data-name="Path 11575" d="M385.7,363.3h24.338a5.616,5.616,0,0,1,5.616,5.617v20.593a5.616,5.616,0,0,1-5.616,5.617H385.7a5.616,5.616,0,0,1-5.616-5.617V368.918A5.616,5.616,0,0,1,385.7,363.3Z" transform="translate(-248.097 -237.232)" fill="#373d42"/>
      <path id="Path_11576" data-name="Path 11576" d="M48.991,242.036a5.616,5.616,0,0,1,5.616,5.616v20.594a5.616,5.616,0,0,1-5.616,5.616H24.653a5.616,5.616,0,0,1-5.616-5.616V247.652a5.616,5.616,0,0,1,5.616-5.616Zm0,4.212H24.653a1.4,1.4,0,0,0-1.4,1.4v20.594a1.4,1.4,0,0,0,1.4,1.4H48.991a1.4,1.4,0,0,0,1.4-1.4V247.652A1.4,1.4,0,0,0,48.991,246.248Z" transform="translate(-14.357 -158.726)" fill="#373d42"/>
      <path id="Path_11577" data-name="Path 11577" d="M229.514,242.036a5.616,5.616,0,0,1,5.616,5.616v20.594a5.616,5.616,0,0,1-5.616,5.616H205.176a5.616,5.616,0,0,1-5.616-5.616V247.652a5.616,5.616,0,0,1,5.616-5.616Zm0,4.212H205.176a1.4,1.4,0,0,0-1.4,1.4v20.594a1.4,1.4,0,0,0,1.4,1.4h24.338a1.4,1.4,0,0,0,1.4-1.4V247.652A1.4,1.4,0,0,0,229.514,246.248Z" transform="translate(-131.227 -158.726)" fill="#373d42"/>
    </g>
  </g>
</svg>
