<svg xmlns="http://www.w3.org/2000/svg" width="24.316" height="24.371" viewBox="0 0 24.316 24.371"><defs><style>.a{opacity:0.55;}.b{fill:#fff;}</style></defs><g class="a" transform="translate(-7.684 -6.775)"><g transform="translate(7.684 6.775)"><path class="b" d="M29.538,7.65a2.981,2.981,0,0,0-4.22,0L9.964,22.975a.525.525,0,0,0-.12.15.029.029,0,0,1-.03.03c-.03.06-.06.09-.06.15v.03L7.719,29.979a.967.967,0,0,0,.21.9.861.861,0,0,0,.629.269.829.829,0,0,0,.269-.03l6.615-2.035h.03c.06-.03.12-.03.15-.06a.029.029,0,0,0,.03-.03.3.3,0,0,0,.15-.12L31.125,13.547a2.981,2.981,0,0,0,0-4.22Z" transform="translate(-7.684 -6.775)"/></g></g></svg>