<svg xmlns="http://www.w3.org/2000/svg" xmlns:xlink="http://www.w3.org/1999/xlink" width="403" height="126" viewBox="0 0 403 126"><defs><style>.a{fill:#69696c;opacity:0.16;}.b{filter:url(#c);}.c{filter:url(#a);}</style><filter id="a" x="0" y="0" width="403" height="126" filterUnits="userSpaceOnUse"><feOffset dy="3" input="SourceAlpha"/><feGaussianBlur stdDeviation="3" result="b"/><feFlood flood-color="#020202"/><feComposite operator="in" in2="b"/><feComposite in="SourceGraphic"/></filter><filter id="c" x="12" y="12" width="379" height="102" filterUnits="userSpaceOnUse"><feOffset dy="3" input="SourceAlpha"/><feGaussianBlur stdDeviation="3" result="d"/><feFlood flood-color="#020202"/><feComposite operator="in" in2="d"/><feComposite in="SourceGraphic"/></filter></defs><g transform="translate(21 18)"><g class="c" transform="matrix(1, 0, 0, 1, -21, -18)"><path class="a" d="M15,0H361a0,0,0,0,1,0,0V84a0,0,0,0,1,0,0H15A15,15,0,0,1,0,69V15A15,15,0,0,1,15,0Z" transform="translate(21 18)"/></g><g class="b" transform="matrix(1, 0, 0, 1, -21, -18)"><path class="a" d="M15,0H346a15,15,0,0,1,15,15V84a0,0,0,0,1,0,0H0a0,0,0,0,1,0,0V15A15,15,0,0,1,15,0Z" transform="translate(21 18)"/></g></g></svg>