<svg xmlns="http://www.w3.org/2000/svg" width="17" height="17" viewBox="0 0 17 17"><defs><style>.a{fill:none;}.b,.c{stroke:none;}.c{fill:#70f84e;}</style></defs><g class="a"><path class="b" d="M8.5,0A8.5,8.5,0,1,1,0,8.5,8.5,8.5,0,0,1,8.5,0Z"/><path class="c" d="M 8.5 5 C 6.570090293884277 5 5 6.570090293884277 5 8.5 C 5 10.42991065979004 6.570090293884277 12 8.5 12 C 10.42991065979004 12 12 10.42991065979004 12 8.5 C 12 6.570090293884277 10.42991065979004 5 8.5 5 M 8.5 0 C 13.19441986083984 0 17 3.805580139160156 17 8.5 C 17 13.19441986083984 13.19441986083984 17 8.5 17 C 3.805580139160156 17 0 13.19441986083984 0 8.5 C 0 3.805580139160156 3.805580139160156 0 8.5 0 Z"/></g></svg>