<svg xmlns="http://www.w3.org/2000/svg" xmlns:xlink="http://www.w3.org/1999/xlink" width="160.087" height="201.465" viewBox="0 0 160.087 201.465"><defs><style>.a{fill:none;}.b{fill:#725227;}.c{fill:#1a1a1a;}.d{clip-path:url(#a);}.e{fill:#392914;}.f{fill:#fff;}.g{fill:#ffc84c;}.h{fill:#fff1c8;}</style><clipPath id="a"><rect class="a" width="158.622" height="192.016" rx="10"/></clipPath></defs><g transform="translate(0.313 178.554)"><path class="b" d="M557.754,302.675l-.037,6.914A14.822,14.822,0,0,1,542.89,324.4l-128.981-.055a14.82,14.82,0,0,1-14.814-14.827l.037-6.916Z" transform="translate(-398.539 -302.051)"/><path class="c" d="M543.075,325.143h-.006l-128.978-.056A15.4,15.4,0,0,1,398.72,309.7l.04-7.47,159.733.068-.04,7.473A15.4,15.4,0,0,1,543.075,325.143Zm-143.209-21.8-.034,6.361a14.283,14.283,0,0,0,14.26,14.27l128.978.056h.006a14.284,14.284,0,0,0,14.267-14.261l.036-6.358Z" transform="translate(-398.72 -302.232)"/></g><g transform="translate(0 1.014)"><g class="d"><g transform="translate(-0.555 19.171)"><g transform="translate(33.812)"><path class="e" d="M468.167,207.154s-.928-14.329-21.567-10.851-23.422,40.157-18.321,62.748,4.406,41.008,0,42.468-6.957-1-6.957,2.435,3.246,12.575,19.711,6.264S468.167,207.154,468.167,207.154Z" transform="translate(-420.766 -195.199)"/><path class="c" d="M431.316,313.134a11.246,11.246,0,0,1-6.523-1.808,9,9,0,0,1-3.846-7.19,2.641,2.641,0,0,1,.611-2c.587-.566,1.43-.535,2.508-.5a11.143,11.143,0,0,0,4.218-.47c3.526-1.168,5.093-17.643-.368-41.819-3.861-17.1-3.181-41.254,5.591-54.329,3.446-5.139,7.881-8.2,13.181-9.089,7.6-1.284,13.471-.341,17.437,2.8A12.8,12.8,0,0,1,468.9,207.3a.522.522,0,0,1,0,.1c-.437,3.965-10.9,97.163-27.488,103.523A28.921,28.921,0,0,1,431.316,313.134Zm-8.007-10.4a1.525,1.525,0,0,0-.981.2,1.793,1.793,0,0,0-.27,1.2,7.988,7.988,0,0,0,3.365,6.274c3.327,2.288,8.719,2.106,15.592-.531,15.81-6.059,26.467-99.807,26.773-102.552a11.926,11.926,0,0,0-4.369-7.732c-3.708-2.926-9.277-3.787-16.547-2.563-4.987.842-9.173,3.738-12.443,8.613-8.6,12.816-9.24,36.6-5.428,53.465,4.9,21.684,4.728,41.429-.368,43.119a12.213,12.213,0,0,1-4.612.525C423.766,302.743,423.524,302.736,423.31,302.736Z" transform="translate(-420.947 -195.381)"/></g><g transform="translate(38.991 57.437)"><path class="f" d="M435.523,234.661s-10.707-1.45-10.707,4.682,10.707,4.566,10.707,4.566Z" transform="translate(-424.26 -233.952)"/><path class="c" d="M432.865,244.829c-2.2,0-5.137-.328-6.9-1.847a4.688,4.688,0,0,1,0-6.928c3.025-2.646,9.535-1.8,9.807-1.764a.556.556,0,0,1,.482.551v9.249a.557.557,0,0,1-.474.551A22.172,22.172,0,0,1,432.865,244.829Zm.225-9.579c-2.048,0-4.835.283-6.39,1.642a3.3,3.3,0,0,0-1.149,2.632,3.256,3.256,0,0,0,1.143,2.615c2.213,1.916,6.941,1.61,8.453,1.458v-8.256C434.7,235.3,433.959,235.25,433.091,235.25Z" transform="translate(-424.441 -234.134)"/></g><g transform="translate(107.452 57.437)"><path class="f" d="M471.007,234.661s10.707-1.45,10.707,4.682-10.707,4.566-10.707,4.566Z" transform="translate(-470.451 -233.952)"/><path class="c" d="M474.026,244.829a22.172,22.172,0,0,1-2.92-.187.557.557,0,0,1-.474-.551v-9.249a.555.555,0,0,1,.482-.551c.273-.037,6.781-.882,9.809,1.764a4.69,4.69,0,0,1,0,6.926C479.166,244.5,476.23,244.829,474.026,244.829Zm-2.283-1.232c1.513.156,6.243.458,8.454-1.458a3.259,3.259,0,0,0,1.141-2.615,3.3,3.3,0,0,0-1.146-2.632c-2.216-1.936-6.929-1.688-8.45-1.55Z" transform="translate(-470.632 -234.134)"/></g><g transform="translate(45.639 74.375)"><path class="f" d="M434.831,254.75V292l-5.53,10.9,33.672,15.074,28.142-15.306V245.937l-30.906,4.839Z" transform="translate(-428.746 -245.381)"/><path class="c" d="M463.153,318.713a.558.558,0,0,1-.227-.049l-33.671-15.073a.554.554,0,0,1-.267-.759l5.468-10.781v-37.12a.555.555,0,0,1,.471-.548l56.283-8.814a.571.571,0,0,1,.448.127.558.558,0,0,1,.194.422v56.735a.554.554,0,0,1-.292.488l-28.141,15.3A.556.556,0,0,1,463.153,318.713Zm-32.911-15.9,32.887,14.724,27.611-15.016V246.769l-55.173,8.638v36.778a.54.54,0,0,1-.061.252Zm4.77-10.63h0Z" transform="translate(-428.927 -245.562)"/></g><g transform="translate(73.485 74.375)"><path class="e" d="M451.149,250.776l30.906-4.839v15.324s-9.578,12.423-25.153,10.571S451.149,250.776,451.149,250.776Z" transform="translate(-447.531 -245.381)"/><path class="c" d="M460.2,272.755a26.747,26.747,0,0,1-3.184-.191c-3.957-.47-6.693-2.078-8.134-4.778-3.424-6.421,1.73-16.649,1.951-17.082a.552.552,0,0,1,.411-.295l30.906-4.841a.571.571,0,0,1,.448.127.558.558,0,0,1,.194.422v15.324a.559.559,0,0,1-.116.339C482.586,261.9,474.046,272.755,460.2,272.755Zm-8.5-21.294c-.76,1.6-4.709,10.418-1.836,15.8,1.26,2.36,3.71,3.772,7.283,4.2,14.2,1.691,23.408-8.851,24.532-10.215V246.769Z" transform="translate(-447.714 -245.562)"/></g><g transform="translate(69.827 8.41)"><path class="g" d="M445.621,211.318s.993-10.544,10.086-9.856,9.041,9.856,9.041,9.856l-8.3,5.026Z" transform="translate(-445.065 -200.875)"/><path class="g" d="M456.632,217.08a.573.573,0,0,1-.236-.052L445.568,212a.553.553,0,0,1-.319-.556c.01-.111,1.144-11.054,10.68-10.359,9.5.717,9.555,10.317,9.555,10.414a.558.558,0,0,1-.267.473l-8.3,5.026A.558.558,0,0,1,456.632,217.08ZM446.4,211.164l10.193,4.729,7.768-4.7c-.08-1.567-.869-8.417-8.519-9C448.272,201.6,446.675,209.306,446.4,211.164Z" transform="translate(-445.246 -201.056)"/></g><g transform="translate(47.212 26.094)"><path class="f" d="M431.828,233.507s-11.728,54.168,30.645,54.168c28.337,0,31.035-32.037,29.714-53.258-.655-10.51-5.41-14.6-5.41-14.6l-3.943-4.411-22.489-2.044L438.31,217.5Z" transform="translate(-429.818 -212.806)"/><path class="c" d="M462.641,288.412c-10.763,0-19.028-3.48-24.565-10.344-12.669-15.7-6.684-44.211-6.622-44.5a.531.531,0,0,1,.028-.09l6.481-16.01a.559.559,0,0,1,.412-.338L460.414,213a.476.476,0,0,1,.153-.007l22.49,2.045a.542.542,0,0,1,.363.182l3.941,4.411c.151.122,4.888,4.313,5.549,14.936.928,14.888-.127,34.936-10.421,45.89C477.526,285.734,470.851,288.412,462.641,288.412Zm-30.11-54.559c-.267,1.286-5.693,28.519,6.412,43.52,5.315,6.587,13.289,9.927,23.7,9.927,7.889,0,14.294-2.56,19.037-7.608,10.022-10.664,11.038-30.39,10.123-45.059-.631-10.16-5.171-14.174-5.216-14.214l-3.848-4.3-22.2-2.017-21.662,4.064Z" transform="translate(-429.988 -212.987)"/></g><g transform="translate(47.646 69.622)"><path class="h" d="M443.382,249.514c0-3.747-4.12-6.784-9.2-6.784a12.068,12.068,0,0,0-3.523.517,46.787,46.787,0,0,0,3.314,13.041c.071,0,.139.007.209.007C439.262,256.3,443.382,253.259,443.382,249.514Z" transform="translate(-430.1 -242.174)"/><path class="c" d="M434.359,257.033l-.145,0a.7.7,0,0,1-.575-.339,47.271,47.271,0,0,1-3.354-13.2.554.554,0,0,1,.39-.6,12.554,12.554,0,0,1,3.685-.542c5.382,0,9.76,3.292,9.76,7.34S439.74,257.033,434.359,257.033Zm-.03-.642.03.086v-.1Zm-2.884-12.558a46.071,46.071,0,0,0,3.075,12.087c4.694-.061,8.487-2.831,8.487-6.225,0-3.434-3.879-6.228-8.648-6.228A11.577,11.577,0,0,0,431.445,243.833Z" transform="translate(-430.28 -242.355)"/></g><g transform="translate(62.678 63.296)"><path class="e" d="M445.307,240.549a2.261,2.261,0,1,1-2.254-2.087A2.176,2.176,0,0,1,445.307,240.549Z" transform="translate(-440.242 -237.906)"/><path class="c" d="M443.233,243.372a2.648,2.648,0,1,1,2.81-2.643A2.732,2.732,0,0,1,443.233,243.372Zm0-4.174a1.539,1.539,0,1,0,1.7,1.531A1.623,1.623,0,0,0,443.233,239.2Z" transform="translate(-440.423 -238.087)"/></g><g transform="translate(98.248 69.622)"><path class="h" d="M474,242.73c-5.084,0-9.2,3.037-9.2,6.784,0,3.07,2.769,5.66,6.566,6.5a56.541,56.541,0,0,0,3.5-13.247C474.576,242.743,474.292,242.73,474,242.73Z" transform="translate(-464.241 -242.174)"/><path class="c" d="M471.544,256.747a.574.574,0,0,1-.122-.012c-4.187-.923-7-3.753-7-7.04,0-4.048,4.378-7.34,9.76-7.34.3,0,.6.013.9.033a.557.557,0,0,1,.513.637,57.176,57.176,0,0,1-3.533,13.379A.553.553,0,0,1,471.544,256.747Zm2.638-13.28c-4.77,0-8.648,2.794-8.648,6.228,0,2.6,2.311,4.95,5.675,5.844a55.937,55.937,0,0,0,3.188-12.071Z" transform="translate(-464.422 -242.355)"/></g><g transform="translate(93.689 63.296)"><path class="e" d="M461.72,240.549a2.261,2.261,0,1,0,2.254-2.087A2.176,2.176,0,0,0,461.72,240.549Z" transform="translate(-461.166 -237.906)"/><path class="c" d="M464.155,243.372a2.648,2.648,0,1,1,2.81-2.643A2.732,2.732,0,0,1,464.155,243.372Zm0-4.174a1.539,1.539,0,1,0,1.7,1.531A1.621,1.621,0,0,0,464.155,239.2Z" transform="translate(-461.346 -238.087)"/></g><path class="c" d="M455.575,257.69c-1.451,0-2.957-.076-4.138-.156a.555.555,0,0,1-.517-.593.53.53,0,0,1,.591-.516c3.541.239,7.677.182,8.2-.286.2-.6-.251-5.666-.58-9.364-.685-7.689-.741-9.346-.339-9.849.828-1.032,8.238-7.187,16.616-4.3a.556.556,0,1,1-.362,1.051c-7.669-2.637-14.66,3.044-15.388,3.945-.176.571.259,5.475.58,9.056.639,7.178.774,9.508.379,10.1C460.15,257.49,457.933,257.69,455.575,257.69Z" transform="translate(-372.685 -177.792)"/><path class="c" d="M437.932,236.638a.557.557,0,0,1-.267-1.045c9.831-5.352,16.776,0,16.843.053a.555.555,0,1,1-.688.872c-.261-.2-6.462-4.936-15.622.053A.582.582,0,0,1,437.932,236.638Z" transform="translate(-379.214 -177.139)"/><path class="c" d="M452.89,256.655h-.044a20.2,20.2,0,0,1-10.7-4.132.555.555,0,1,1,.717-.848,19.473,19.473,0,0,0,10.076,3.871.556.556,0,0,1-.044,1.11Z" transform="translate(-377.011 -168.303)"/><g transform="translate(47.048 17.292)"><path class="e" d="M430.527,247.353s-5.53-39.882,31.994-39.93,29.973,38.767,29.973,38.767.062-16.231-11.036-20.1a19.739,19.739,0,0,0-18.937,3.105,23.929,23.929,0,0,0-16.633-4.657C431.748,226.088,430.527,247.353,430.527,247.353Z" transform="translate(-429.702 -206.867)"/><path class="c" d="M430.7,248.09a.556.556,0,0,1-.551-.479c-.025-.188-2.487-18.946,7.835-30.812,5.614-6.456,13.928-9.736,24.709-9.751h.07c10.869,0,19.056,3.243,24.335,9.64,9.527,11.544,6.151,29.607,6.115,29.79a.556.556,0,0,1-1.1-.108c0-.159-.073-15.881-10.663-19.575a19.264,19.264,0,0,0-18.386,3,.559.559,0,0,1-.725.012,23.6,23.6,0,0,0-16.216-4.532c-13.516,1.484-14.855,22.09-14.867,22.3a.555.555,0,0,1-.534.523Zm32.062-39.93h-.07c-10.44.013-18.472,3.164-23.867,9.364-6.607,7.592-7.8,18.155-7.842,24.491,1.439-6.556,5.238-16.776,15.017-17.849a24.376,24.376,0,0,1,16.687,4.5,20.519,20.519,0,0,1,19.126-2.92c7.237,2.523,9.886,9.947,10.852,15.167.27-6.109-.388-16.2-6.43-23.52C481.18,211.266,473.282,208.16,462.764,208.16Z" transform="translate(-429.877 -207.048)"/></g><g transform="translate(108.906 64.612)"><path class="g" d="M481.241,246.973c0,4.211-2.07,7.623-4.626,7.623s-4.627-3.412-4.627-7.623,2.072-7.623,4.627-7.623S481.241,242.763,481.241,246.973Z" transform="translate(-471.432 -238.794)"/><path class="g" d="M476.795,255.333c-2.905,0-5.182-3.593-5.182-8.18s2.277-8.178,5.182-8.178,5.183,3.593,5.183,8.178S479.7,255.333,476.795,255.333Zm0-15.247c-2.205,0-4.07,3.237-4.07,7.067s1.865,7.068,4.07,7.068,4.071-3.237,4.071-7.068S479,240.087,476.795,240.087Z" transform="translate(-471.613 -238.975)"/></g><g transform="translate(37.679 64.612)"><path class="g" d="M423.931,246.973c0,4.211,2.071,7.623,4.626,7.623s4.626-3.412,4.626-7.623-2.071-7.623-4.626-7.623S423.931,242.763,423.931,246.973Z" transform="translate(-423.375 -238.794)"/><path class="g" d="M428.738,255.333c-2.9,0-5.182-3.593-5.182-8.18s2.277-8.178,5.182-8.178,5.183,3.593,5.183,8.178S431.644,255.333,428.738,255.333Zm0-15.247c-2.207,0-4.07,3.237-4.07,7.067s1.863,7.068,4.07,7.068,4.071-3.237,4.071-7.068S430.944,240.087,428.738,240.087Z" transform="translate(-423.556 -238.975)"/></g><g transform="translate(0 120.44)"><path class="h" d="M449.677,277.018l27.065,8,29.219-8s51.17.381,51.17,37.932,2.041,37.552,2.041,37.552l-160.663-2.087V314.95S401.405,277.018,449.677,277.018Z" transform="translate(-397.953 -276.46)"/><path class="c" d="M559.353,353.239h-.007l-160.663-2.087a.556.556,0,0,1-.548-.556V315.132c.03-.427,3.5-38.488,51.724-38.488a.526.526,0,0,1,.159.022l26.913,7.956L506,276.663a.36.36,0,0,1,.151-.019c.516,0,51.721.821,51.721,38.488,0,32.526,1.543,36.634,1.817,37.107a.547.547,0,0,1,.224.449A.555.555,0,0,1,559.353,353.239Zm-160.107-3.191,159.3,2.069c-1.187-3.625-1.787-16.022-1.787-36.985,0-35.908-48.33-37.332-50.543-37.375l-29.143,7.978a.523.523,0,0,1-.305,0l-26.987-7.977c-47.135.04-50.505,37.046-50.534,37.42Zm0,.548h0Z" transform="translate(-398.134 -276.642)"/></g><g transform="translate(78.233 120.44)"><path class="h" d="M451.293,328.865V285.019l28.535,25.046.684-33.046" transform="translate(-450.737 -276.461)"/><path class="c" d="M451.474,329.6a.556.556,0,0,1-.556-.556V285.2a.556.556,0,0,1,.922-.418l27.636,24.258.661-31.853a.547.547,0,0,1,.568-.544.555.555,0,0,1,.544.566l-.685,33.047a.557.557,0,0,1-.922.408L452.03,286.427v42.619A.556.556,0,0,1,451.474,329.6Z" transform="translate(-450.918 -276.642)"/></g><path class="c" d="M454.793,310.481a1.948,1.948,0,1,1,1.948-1.948A1.948,1.948,0,0,1,454.793,310.481Zm0-2.784a.836.836,0,1,0,.836.836A.837.837,0,0,0,454.793,307.7Z" transform="translate(-371.755 -141.764)"/><path class="c" d="M454.793,302.872a1.947,1.947,0,1,1,1.948-1.946A1.946,1.946,0,0,1,454.793,302.872Zm0-2.782a.835.835,0,1,0,.836.836A.837.837,0,0,0,454.793,300.09Z" transform="translate(-371.755 -145.432)"/><path class="c" d="M454.793,295.362a1.947,1.947,0,1,1,1.948-1.948A1.948,1.948,0,0,1,454.793,295.362Zm0-2.782a.835.835,0,1,0,.836.834A.836.836,0,0,0,454.793,292.58Z" transform="translate(-371.755 -149.053)"/><g transform="translate(49.697 120.441)"><path class="h" d="M460.575,285.019l-27.065-8-1.471,33.046,28.535-25.046" transform="translate(-431.484 -276.461)"/><path class="c" d="M432.221,310.8a.533.533,0,0,1-.24-.056.554.554,0,0,1-.316-.525l1.47-33.047a.565.565,0,0,1,.233-.428.554.554,0,0,1,.482-.08l27.064,8a.555.555,0,0,1,.209.95l-28.536,25.047A.562.562,0,0,1,432.221,310.8Zm1.995-32.869-1.381,31.035,26.8-23.52Z" transform="translate(-431.665 -276.642)"/></g></g></g></g><path class="f" d="M543.106,374.946l-8.949,0V373.83l8.893,0Zm-17.841-.007-8.893,0v-1.112l8.893,0Zm-17.784-.007-8.893,0v-1.112l8.893,0Zm-17.784-.009-8.893,0v-1.112l8.893,0Zm-17.784-.007-8.893,0V373.8l8.893,0Zm-17.784-.007-8.893,0v-1.112l8.893,0Zm-17.784-.007-8.893,0v-1.112l8.893,0Zm-17.786-.009h-4.489a15.338,15.338,0,0,1-4.5-.67l.325-1.061a14.246,14.246,0,0,0,4.174.62h4.489Zm133.218-2.659-.63-.914a14.235,14.235,0,0,0,5.223-6.618l1.036.4A15.344,15.344,0,0,1,551.777,372.232Zm-149.719-3.124a15.279,15.279,0,0,1-3.319-8.459l1.11-.082a14.151,14.151,0,0,0,3.077,7.845Zm156.376-12.979h-1.112l0-8.891h1.112Zm-158.622-4.411H398.7l0-8.891h1.112ZM558.44,338.344h-1.112l0-8.891h1.112Zm-158.619-4.411H398.71l0-8.891h1.112ZM558.449,320.56h-1.112l0-8.891h1.112Zm-158.62-4.411h-1.112l0-8.891h1.112Zm158.628-13.373h-1.112l0-8.891h1.112Zm-158.62-4.411h-1.112l0-8.891h1.112Zm158.628-13.373h-1.112l0-8.891h1.112Zm-158.62-4.411h-1.112l0-8.893h1.112Zm158.628-13.373H557.36l0-8.891h1.112ZM399.851,262.8H398.74l0-8.891h1.112ZM558.48,249.423h-1.112l0-8.891h1.112Zm-158.622-4.412h-1.112l0-8.891h1.112Zm158.629-13.372h-1.112l0-8.893h1.112Zm-158.622-4.411h-1.112l0-8.893h1.112ZM558.5,213.855h-1.112l0-8.893H558.5Zm-158.622-4.412h-1.112l0-8.891h1.112ZM557.35,196.114a14.186,14.186,0,0,0-3.095-7.839l.869-.7a15.315,15.315,0,0,1,3.335,8.453Zm-156.51-4.131-1.036-.4a15.326,15.326,0,0,1,5.644-7.122l.628.916A14.222,14.222,0,0,0,400.84,191.983Zm146.439-8.439a14.264,14.264,0,0,0-4.149-.614l-4.516,0v-1.112l4.516,0a15.362,15.362,0,0,1,4.473.663Zm-17.557-.62-8.891,0v-1.112l8.891,0Zm-17.784-.007-8.891,0V181.8l8.891,0Zm-17.784-.007-8.893,0v-1.112l8.893,0Zm-17.786-.007-8.891,0v-1.112l8.891,0Zm-17.784-.009-8.893,0v-1.112l8.893,0Zm-17.784-.007-8.893,0v-1.112l8.893,0Zm-17.784-.007-8.862,0-.03-1.113.076,0h8.816Z" transform="translate(-398.416 -181.762)"/></svg>