<svg xmlns="http://www.w3.org/2000/svg" xmlns:xlink="http://www.w3.org/1999/xlink" width="159.803" height="199.981" viewBox="0 0 159.803 199.981"><defs><style>.a{fill:none;}.b{fill:#725227;}.c{fill:#1a1a1a;}.d{clip-path:url(#a);}.e{fill:#f2bf4c;}.f{fill:#fff;}.g{fill:#392914;}.h{fill:#fff1c8;}</style><clipPath id="a"><rect class="a" width="158.622" height="192.016" rx="10"/></clipPath></defs><g transform="translate(0.028 177.072)"><path class="b" d="M557.46,148.665l-.037,6.916A14.823,14.823,0,0,1,542.6,170.4l-128.981-.056A14.82,14.82,0,0,1,398.8,155.512l.037-6.914Z" transform="translate(-398.245 -148.042)"/><path class="c" d="M542.781,171.132h-.006L413.8,171.076a15.376,15.376,0,0,1-15.371-15.383l.04-7.47,159.735.068-.042,7.471A15.4,15.4,0,0,1,542.781,171.132Zm-143.209-21.8-.034,6.361a14.265,14.265,0,0,0,14.26,14.269l128.978.056h.006a14.283,14.283,0,0,0,14.267-14.26l.036-6.358Z" transform="translate(-398.426 -148.223)"/></g><path class="a" d="M10,0H148.622a10,10,0,0,1,10,10V182.016a10,10,0,0,1-10,10H10a10,10,0,0,1-10-10V10A10,10,0,0,1,10,0Z" transform="translate(0.621 0.423)"/><g transform="translate(0.621 0.423)"><g class="d"><g transform="translate(-0.608 37.484)"><g transform="translate(43.188)"><path class="e" d="M439.414,123.446s-11.131-.468-11.47-21.457,5.58-32.115,11.5-39.071c2.939-3.453,16.68-13.907,24.688-4.163l-.028,64.7Z" transform="translate(-427.374 -54.148)"/><path class="c" d="M464.281,124.193h0l-24.685-.012h-.024c-.476-.019-11.66-.735-12-22-.274-17.018,3.529-29.919,11.63-39.44,1.918-2.256,9.422-8.41,16.71-8.41h.111a10.993,10.993,0,0,1,8.719,4.252.563.563,0,0,1,.125.353l-.027,64.7a.557.557,0,0,1-.556.556Zm-24.672-1.123,24.116.012.027-63.944a9.892,9.892,0,0,0-7.743-3.7h-.1c-6.9,0-14.031,5.868-15.863,8.018-8.026,9.435-11.636,21.733-11.364,38.7C429,122.147,439.263,123.047,439.609,123.069Z" transform="translate(-427.555 -54.329)"/></g><g transform="translate(79.358 0.007)"><path class="e" d="M477.021,123.464s11.131-.459,11.488-21.447-5.552-32.121-11.463-39.08c-2.936-3.458-16.668-13.922-24.684-4.186l-.028,64.7Z" transform="translate(-451.778 -54.153)"/><path class="c" d="M477.2,124.2h0l-24.687-.01a.554.554,0,0,1-.556-.556l.027-64.7a.557.557,0,0,1,.128-.353,10.993,10.993,0,0,1,8.722-4.246h.1c7.291,0,14.8,6.166,16.717,8.424,8.09,9.527,11.881,22.431,11.593,39.45-.362,21.267-11.544,21.971-12.02,21.991Zm-24.132-1.122,24.116.01c.568-.033,10.608-.892,10.947-20.9.288-16.969-3.311-29.271-11.33-38.712-1.83-2.154-8.97-8.032-15.866-8.032h-.093a9.9,9.9,0,0,0-7.747,3.689Z" transform="translate(-451.959 -54.334)"/></g><path class="c" d="M480.483,121.372a.555.555,0,0,1-.39-.952c.125-.123,12.339-12.592,2.852-40.869-3.279-9.77-8.2-16.145-14.636-18.948a20.849,20.849,0,0,0-15.546-.1.556.556,0,0,1-.461-1.012,21.634,21.634,0,0,1,16.45.093C475.487,62.519,480.617,69.117,484,79.2c9.726,28.988-2.6,41.5-3.126,42.014A.554.554,0,0,1,480.483,121.372Z" transform="translate(-372.592 -52.608)"/><path class="c" d="M477.193,121.217a.574.574,0,0,1-.178-.03.554.554,0,0,1-.348-.7c8.745-25.954,3.777-41.081.037-47.787-3-5.377-7.317-9.176-11.555-10.16-9.591-2.229-12.183.371-12.207.4a.56.56,0,0,1-.781.033.55.55,0,0,1-.047-.774c.111-.13,2.918-3.151,13.287-.74,4.537,1.055,9.124,5.056,12.272,10.7,3.83,6.867,8.928,22.323.047,48.682A.559.559,0,0,1,477.193,121.217Z" transform="translate(-372.592 -51.343)"/><path class="c" d="M435.81,121.35a.558.558,0,0,1-.39-.159c-.528-.519-12.843-13.038-3.092-42.019,3.391-10.079,8.527-16.673,15.265-19.6a21.637,21.637,0,0,1,16.449-.08.556.556,0,0,1-.461,1.012,20.872,20.872,0,0,0-15.56.093c-6.43,2.8-11.355,9.169-14.639,18.928-9.53,28.327,2.693,40.749,2.818,40.87a.556.556,0,0,1-.39.953Z" transform="translate(-383.871 -52.61)"/><path class="c" d="M437.445,121.2a.556.556,0,0,1-.528-.378c-8.859-26.367-3.747-41.82.087-48.684,3.154-5.644,7.744-9.64,12.281-10.691,10.375-2.4,13.173.62,13.287.75a.556.556,0,0,1-.831.74c-.052-.055-2.665-2.617-12.2-.408-4.237.983-8.559,4.777-11.562,10.151-3.745,6.7-8.727,21.826,0,47.787a.555.555,0,0,1-.35.7A.562.562,0,0,1,437.445,121.2Z" transform="translate(-382.216 -51.344)"/><g transform="translate(107.149 45.513)"><path class="f" d="M471.088,85.453s8.22-.691,8.392,3.658-8.4,4.692-8.4,4.692Z" transform="translate(-470.528 -84.855)"/><path class="c" d="M471.265,94.541a.556.556,0,0,1-.556-.556l0-8.35a.557.557,0,0,1,.51-.554c.218-.018,5.408-.428,7.793,1.679a3.414,3.414,0,0,1,1.2,2.511c.191,4.848-8.556,5.256-8.93,5.269Zm.56-8.379,0,7.224c1.838-.165,7.409-.929,7.285-4.073a2.32,2.32,0,0,0-.824-1.721C476.645,86.144,473.134,86.116,471.825,86.162Z" transform="translate(-470.709 -85.037)"/></g><g transform="translate(43.186 45.488)"><path class="f" d="M436.327,85.437s-8.22-.7-8.395,3.651,8.392,4.7,8.392,4.7Z" transform="translate(-427.373 -84.839)"/><path class="c" d="M436.5,94.525h-.024c-.372-.015-9.12-.43-8.924-5.276a3.42,3.42,0,0,1,1.2-2.511c2.386-2.1,7.575-1.691,7.8-1.67a.556.556,0,0,1,.508.553l0,8.35a.559.559,0,0,1-.556.556Zm-1.223-8.39c-1.59,0-4.38.193-5.789,1.436a2.315,2.315,0,0,0-.824,1.721c-.126,3.1,5.442,3.9,7.28,4.076l0-7.221C435.768,86.139,435.54,86.135,435.282,86.135Z" transform="translate(-427.554 -85.02)"/></g><g transform="translate(51.743 45.521)"><path class="f" d="M433.726,92.818l-.024,55.648,31.971,14.45,23.47-19.992.025-57.507Z" transform="translate(-433.146 -84.861)"/><path class="c" d="M465.853,163.652a.559.559,0,0,1-.228-.049l-31.97-14.451a.553.553,0,0,1-.328-.505L433.351,93a.555.555,0,0,1,.482-.55l55.441-7.4a.557.557,0,0,1,.63.551l-.025,57.506a.554.554,0,0,1-.194.424l-23.47,19.993A.566.566,0,0,1,465.853,163.652Zm-31.414-15.365,31.322,14.159,23.006-19.6.025-56.615-54.329,7.252Z" transform="translate(-433.327 -85.042)"/></g><g transform="translate(79.349 56.704)"><path class="g" d="M480.117,113.254s-8.066,13.413-27.789,11.913l2.551-23.983,25.3-8.221Z" transform="translate(-451.772 -92.406)"/><path class="c" d="M455.5,126.02c-.98,0-1.99-.037-3.035-.117a.554.554,0,0,1-.511-.612l2.551-23.983a.553.553,0,0,1,.381-.47l25.3-8.223a.548.548,0,0,1,.5.08.556.556,0,0,1,.228.451l-.065,20.291a.542.542,0,0,1-.08.286,24.859,24.859,0,0,1-6.653,6.686A31.77,31.77,0,0,1,455.5,126.02Zm-2.38-1.186c17.734,1.1,25.749-10.243,26.619-11.562L479.8,93.91l-24.23,7.873Zm27.175-11.4h0Z" transform="translate(-451.953 -92.587)"/></g><g transform="translate(51.528 13.082)"><path class="f" d="M472.9,63.547a14.628,14.628,0,0,0-11.493,5.2,14.629,14.629,0,0,0-11.49-5.205c-7.36.23-16.352,10.661-16.363,34.2s12.18,41.614,27.821,41.62,27.848-18.058,27.858-41.6S480.262,63.784,472.9,63.547Z" transform="translate(-433.001 -62.974)"/><path class="c" d="M461.568,140.094h-.009c-7.768,0-14.958-4.347-20.242-12.232-5.251-7.835-8.14-18.469-8.135-29.944.006-17.009,5.814-34.408,16.9-34.755a14.933,14.933,0,0,1,11.506,4.9A15,15,0,0,1,473.1,63.173c11.088.356,16.882,17.761,16.874,34.77C489.963,121.582,477.486,140.094,461.568,140.094ZM450.547,64.268c-.141,0-.283,0-.428.007-6.355.2-15.816,9.321-15.825,33.643,0,11.257,2.818,21.672,7.947,29.324,5.072,7.569,11.933,11.739,19.318,11.74h.009c15.3,0,27.283-18.023,27.294-41.041.01-24.322-9.441-33.453-15.8-33.658a14.154,14.154,0,0,0-11.035,4.979.55.55,0,0,1-.44.218h0a.552.552,0,0,1-.442-.219A14.231,14.231,0,0,0,450.547,64.268Z" transform="translate(-433.182 -63.156)"/></g><path class="c" d="M462.446,103.943h-3.479a3.457,3.457,0,0,1-2.623-1.048,5.436,5.436,0,0,1-1.175-3.652l.007-17.935c0-1.045-1.9-3.339-7.56-3.342h-.007c-5.422,0-7.442,2.168-7.463,2.191a.558.558,0,0,1-.783.044.552.552,0,0,1-.05-.78c.092-.105,2.32-2.567,8.3-2.567h.007c6.318,0,8.672,2.735,8.672,4.455l-.009,17.965a4.4,4.4,0,0,0,.877,2.862,2.357,2.357,0,0,0,1.811.7h3.479a.556.556,0,1,1,0,1.112Z" transform="translate(-378.764 -43.47)"/><g transform="translate(62.966 44.211)"><path class="g" d="M445.449,86.621a2.087,2.087,0,1,1-2.087-2.088A2.087,2.087,0,0,1,445.449,86.621Z" transform="translate(-440.718 -83.977)"/><path class="c" d="M443.545,89.445h0a2.644,2.644,0,1,1,1.867-.774A2.648,2.648,0,0,1,443.543,89.445Zm0-4.175a1.532,1.532,0,1,0,0,3.064h0a1.533,1.533,0,0,0,1.53-1.531h0a1.531,1.531,0,0,0-1.53-1.533Z" transform="translate(-440.899 -84.158)"/></g><g transform="translate(51.691 51.58)"><path class="h" d="M436.929,89.5a14.937,14.937,0,0,0-3.262.356,60.919,60.919,0,0,0,1.458,9.744,15.45,15.45,0,0,0,1.8.105c4.931,0,8.93-2.281,8.93-5.1S441.86,89.508,436.929,89.5Z" transform="translate(-433.111 -88.949)"/><path class="c" d="M437.11,100.446a13.036,13.036,0,0,1-1.869-.108.557.557,0,0,1-.476-.425,61.522,61.522,0,0,1-1.472-9.834.554.554,0,0,1,.433-.58,15.448,15.448,0,0,1,3.373-.369h.01A13.494,13.494,0,0,1,443.7,90.7c1.868,1.067,2.9,2.521,2.895,4.091C446.591,97.964,442.426,100.446,437.11,100.446Zm-1.352-1.172c.442.04.894.061,1.347.061h0c4.537,0,8.37-2.079,8.371-4.543,0-1.155-.828-2.265-2.334-3.126a12.384,12.384,0,0,0-6.037-1.424h-.01a14.543,14.543,0,0,0-2.662.245A60.587,60.587,0,0,0,435.758,99.274Z" transform="translate(-433.292 -89.13)"/></g><g transform="translate(91.595 44.224)"><path class="g" d="M460.59,86.627a2.087,2.087,0,1,0,2.088-2.085A2.087,2.087,0,0,0,460.59,86.627Z" transform="translate(-460.034 -83.986)"/><path class="c" d="M462.859,89.452h0a2.646,2.646,0,0,1-2.643-2.644h0a2.648,2.648,0,0,1,2.644-2.641,2.643,2.643,0,0,1,0,5.285Zm-1.533-2.643a1.533,1.533,0,0,0,1.531,1.531h0a1.531,1.531,0,0,0,0-3.062A1.535,1.535,0,0,0,461.327,86.81Z" transform="translate(-460.215 -84.167)"/></g><g transform="translate(94.848 51.602)"><path class="h" d="M471.715,89.519c-4.931,0-8.93,2.281-8.93,5.1s3.994,5.1,8.925,5.106a15.791,15.791,0,0,0,1.8-.1,60.917,60.917,0,0,0,1.467-9.744A14.933,14.933,0,0,0,471.715,89.519Z" transform="translate(-462.229 -88.965)"/><path class="c" d="M471.911,100.46h-.018a13.52,13.52,0,0,1-6.59-1.57c-1.867-1.069-2.895-2.521-2.893-4.092s1.029-3.024,2.9-4.089a13.516,13.516,0,0,1,6.584-1.564h.006a15.432,15.432,0,0,1,3.384.371.558.558,0,0,1,.433.581,61.149,61.149,0,0,1-1.481,9.833.557.557,0,0,1-.477.424A16.144,16.144,0,0,1,471.911,100.46Zm-.021-10.2a12.37,12.37,0,0,0-6.032,1.418c-1.506.86-2.336,1.968-2.336,3.123s.828,2.266,2.333,3.126a12.374,12.374,0,0,0,6.038,1.424,8.625,8.625,0,0,0,1.346-.059,59.922,59.922,0,0,0,1.328-8.786,14.485,14.485,0,0,0-2.671-.246h-.006Z" transform="translate(-462.41 -89.145)"/></g><g transform="translate(60.414 13.462)"><path class="e" d="M458.519,68.62S444.611,61.1,439.552,78.6c0,0,.2-23.13,18.967-11.586Z" transform="translate(-438.996 -63.231)"/><path class="c" d="M439.733,79.338a.486.486,0,0,1-.08-.006.554.554,0,0,1-.476-.554c0-.448.164-10.977,6.269-14.355,3.431-1.9,7.986-1.122,13.545,2.3a.56.56,0,0,1,.265.474l0,1.607a.556.556,0,0,1-.82.488c-.056-.028-5.442-2.874-10.514-.746-3.514,1.476-6.089,4.973-7.655,10.391A.554.554,0,0,1,439.733,79.338Zm9.8-14.814a7.215,7.215,0,0,0-3.55.871c-3.155,1.747-4.566,5.814-5.192,9.011a13.351,13.351,0,0,1,6.708-6.89c4.395-1.839,8.848-.359,10.645.411v-.419C454.849,65.52,451.969,64.524,449.534,64.524Z" transform="translate(-439.177 -63.412)"/></g><path class="c" d="M470.357,83.727A.565.565,0,0,1,470,83.6c-2.247-1.925-4.5-2.813-6.7-2.626a8.058,8.058,0,0,0-5.032,2.554.559.559,0,0,1-.783.07.553.553,0,0,1-.071-.781,9.062,9.062,0,0,1,5.779-2.949c2.5-.209,5.042.759,7.534,2.887a.556.556,0,0,1-.363.978Z" transform="translate(-370.036 -42.032)"/><path class="c" d="M453.765,103.928h0c-3.1,0-4.306-3.078-4.357-3.209a.556.556,0,0,1,1.039-.4c.04.1,1,2.5,3.319,2.5h0c2.337,0,3.308-2.466,3.317-2.491a.556.556,0,1,1,1.039.4C458.07,100.854,456.858,103.928,453.765,103.928Z" transform="translate(-373.849 -32.326)"/><g transform="translate(0 92.533)"><path class="e" d="M450.3,123.606a48.607,48.607,0,0,0,31.67,15.319s18.115-7.993,24.009-17.034l0-4.755s15.976,3.37,11.448,16.935c0,0,6.262,1.393,4.519,8.35,0,0,35.493.71,35.484,22.278l-.018,40-158.622-.068.018-41.395s6.606-20.52,37.218-20.507c0,0-2.657-7.132,5.926-8.346C441.952,134.387,438.469,123.253,450.3,123.606Z" transform="translate(-398.235 -116.58)"/><path class="c" d="M557.594,205.439h0l-158.622-.068a.556.556,0,0,1-.556-.556l.018-41.395a.609.609,0,0,1,.025-.17c.068-.207,6.976-20.574,37.015-20.889a6.964,6.964,0,0,1,.615-5.044c.983-1.651,2.78-2.726,5.349-3.2-.339-1.473-.928-5.254,1.141-7.983,1.544-2.036,4.229-3.006,7.915-2.9a.554.554,0,0,1,.412.2,48.473,48.473,0,0,0,31.147,15.107c1.62-.735,17.981-8.288,23.548-16.637v-4.586a.557.557,0,0,1,.206-.433.539.539,0,0,1,.464-.111c.326.068,8.011,1.746,11.281,7.452a11.9,11.9,0,0,1,.757,9.656,6.738,6.738,0,0,1,4.5,8.19c4.949.252,35.362,2.625,35.352,22.807l-.016,40a.556.556,0,0,1-.556.556Zm-158.066-1.18,157.51.068.016-39.447c.01-20.775-34.589-21.715-34.939-21.722a.557.557,0,0,1-.528-.691,6.466,6.466,0,0,0-.489-5.1,6.282,6.282,0,0,0-3.611-2.57.555.555,0,0,1-.362-.27.548.548,0,0,1-.044-.449c1.18-3.538,1.015-6.665-.494-9.3-2.487-4.341-7.966-6.21-9.874-6.745v4.037a.555.555,0,0,1-.089.3c-5.917,9.077-23.507,16.911-24.252,17.242a.55.55,0,0,1-.271.044,49.857,49.857,0,0,1-31.882-15.322c-3.181-.037-5.469.777-6.754,2.469-2.223,2.933-.817,7.547-.8,7.594a.554.554,0,0,1-.452.714c-2.549.362-4.288,1.294-5.167,2.77a6.243,6.243,0,0,0-.314,4.833.557.557,0,0,1-.522.75h-.03c-28.851,0-36.142,18.682-36.633,20.046Z" transform="translate(-398.416 -116.761)"/></g></g></g></g><path class="f" d="M542.812,221.936l-8.951,0v-1.112l8.893,0Zm-17.842-.007-8.893,0v-1.112l8.893,0Zm-17.784-.007-8.893,0v-1.112l8.893,0Zm-17.784-.007-8.893,0V220.8l8.893,0Zm-17.784-.007-8.893,0V220.79l8.893,0Zm-17.784-.007-8.893,0v-1.112l8.893,0Zm-17.784-.007-8.893,0v-1.112l8.893,0Zm-17.786-.007-4.488,0a15.355,15.355,0,0,1-4.5-.671l.325-1.063a14.217,14.217,0,0,0,4.175.622l4.488,0Zm133.219-2.66-.63-.914a14.234,14.234,0,0,0,5.223-6.618l1.036.4A15.344,15.344,0,0,1,551.483,219.223ZM401.763,216.1a15.263,15.263,0,0,1-3.317-8.459l1.109-.08a14.16,14.16,0,0,0,3.077,7.845Zm156.378-12.975h-1.112l0-8.893h1.112Zm-158.622-4.415h-1.112l0-8.891h1.112Zm158.629-13.369h-1.112l0-8.893h1.112Zm-158.62-4.415h-1.112l0-8.891h1.112Zm158.628-13.37h-1.112l0-8.891h1.112Zm-158.62-4.414h-1.112l0-8.891h1.112Zm158.628-13.37h-1.112l0-8.891h1.112Zm-158.62-4.414h-1.112l0-8.891h1.112Zm158.628-13.37h-1.112l0-8.891h1.112Zm-158.62-4.414h-1.112l0-8.891h1.112ZM558.178,114.2h-1.112l0-8.891h1.112Zm-158.619-4.414h-1.112v-8.893h1.112Zm158.628-13.37h-1.112l0-8.891h1.112ZM399.565,92h-1.112l0-8.893h1.112ZM558.194,78.63h-1.112l0-8.891H558.2ZM399.572,74.216H398.46l0-8.893h1.112ZM558.2,60.846H557.09l0-8.893h1.112ZM399.579,56.432h-1.112l0-8.893h1.112ZM557.056,43.1a14.173,14.173,0,0,0-3.093-7.839l.869-.7a15.291,15.291,0,0,1,3.333,8.453ZM400.547,38.972l-1.038-.4a15.37,15.37,0,0,1,5.644-7.123l.631.917A14.23,14.23,0,0,0,400.547,38.972Zm146.439-8.438a14.3,14.3,0,0,0-4.15-.615h-4.515V28.806h4.515a15.451,15.451,0,0,1,4.475.663Zm-17.557-.621-8.891,0V28.8l8.891,0Zm-17.784-.007-8.891,0V28.79l8.891,0ZM493.86,29.9l-8.891,0V28.783l8.891,0Zm-17.784-.007-8.893,0V28.775l8.893,0Zm-17.786-.007-8.891,0V28.768l8.891,0Zm-17.784-.007-8.893,0V28.76l8.893,0Zm-17.784-.009-8.863,0-.03-1.112,8.893,0Z" transform="translate(-398.407 -28.753)"/></svg>