<svg xmlns="http://www.w3.org/2000/svg" xmlns:xlink="http://www.w3.org/1999/xlink" width="159.803" height="200.141" viewBox="0 0 159.803 200.141"><defs><style>.a{fill:none;}.b{fill:#725227;}.c{fill:#1a1a1a;}.d{clip-path:url(#a);}.e{fill:#fff;}.f{fill:#392914;}.g{fill:#fff1c8;}.h{fill:#ffde0a;}</style><clipPath id="a"><rect class="a" width="158.622" height="192.016" rx="10"/></clipPath></defs><g transform="translate(0 155.182)"><path class="b" d="M232.643,177.677l-128.981-.056a14.82,14.82,0,0,1-14.814-14.827l.07-14.15a14.821,14.821,0,0,1,14.827-14.816l128.979.056a14.821,14.821,0,0,1,14.816,14.827l-.07,14.15A14.822,14.822,0,0,1,232.643,177.677Z" transform="translate(-88.292 -133.274)"/><path class="c" d="M232.829,178.413h-.006l-128.981-.055a15.394,15.394,0,0,1-15.37-15.385l.07-14.153a15.373,15.373,0,0,1,15.377-15.367h.006l128.979.055a15.394,15.394,0,0,1,15.371,15.383l-.07,14.152a15.378,15.378,0,0,1-15.377,15.37ZM103.92,134.566a14.281,14.281,0,0,0-14.266,14.258l-.07,14.153a14.281,14.281,0,0,0,14.258,14.27l128.981.055h.006a14.268,14.268,0,0,0,14.266-14.26l.07-14.153A14.265,14.265,0,0,0,232.9,134.62l-128.979-.055Z" transform="translate(-88.473 -133.454)"/></g><path class="a" d="M10,0H148.622a10,10,0,0,1,10,10V182.016a10,10,0,0,1-10,10H10a10,10,0,0,1-10-10V10A10,10,0,0,1,10,0Z" transform="translate(0.593 0.583)"/><g transform="translate(0.593 0.583)"><g class="d"><g transform="translate(-0.605 16.278)"><g transform="translate(46.29 73.622)"><path class="e" d="M181.658,149.543,181.675,110l.009-19.828-61.591,12.5-.02,46.844L156.124,170.4Z" transform="translate(-119.516 -89.622)"/><path class="c" d="M156.3,171.141a.559.559,0,0,1-.279-.076l-36.052-20.886a.559.559,0,0,1-.277-.482l.021-46.843a.557.557,0,0,1,.445-.545l61.592-12.5a.563.563,0,0,1,.462.114.557.557,0,0,1,.2.43l-.027,59.367a.557.557,0,0,1-.2.431l-25.533,20.86A.559.559,0,0,1,156.3,171.141Zm-35.5-21.764,35.442,20.534,25.032-20.449.027-58.425-60.48,12.272Zm61.03.347h0Z" transform="translate(-119.697 -89.802)"/></g><g transform="translate(50.725 61.501)"><path class="f" d="M123.064,104.877,180.247,82l-.013,31.948s-4.492,16.022-21.4,16.658S123.064,104.877,123.064,104.877Z" transform="translate(-122.508 -81.443)"/><path class="c" d="M158.4,131.353c-16.836,0-34.838-24.9-35.606-25.972a.555.555,0,0,1,.246-.839l57.183-22.878a.556.556,0,0,1,.762.516l-.013,31.948a.562.562,0,0,1-.021.15c-.046.165-4.8,16.419-21.918,17.062C158.821,131.348,158.609,131.353,158.4,131.353Zm-34.279-26.047c2.874,3.828,19.856,25.512,34.87,24.924,15.758-.593,20.52-15.051,20.869-16.184L179.872,83Z" transform="translate(-122.689 -81.624)"/></g><g transform="translate(38.669 51.811)"><path class="e" d="M123.328,75.5s-8.22-.7-8.4,3.651,8.392,4.7,8.392,4.7Z" transform="translate(-114.374 -74.905)"/><path class="c" d="M123.5,84.59h-.022c-.372-.015-9.12-.428-8.924-5.276a3.414,3.414,0,0,1,1.2-2.509c2.388-2.1,7.577-1.69,7.8-1.672a.554.554,0,0,1,.51.553l0,8.35a.556.556,0,0,1-.556.556Zm-1.221-8.39c-1.589,0-4.38.193-5.789,1.438a2.314,2.314,0,0,0-.826,1.719c-.126,3.144,5.444,3.911,7.28,4.079l0-7.224C122.769,76.2,122.541,76.2,122.283,76.2Z" transform="translate(-114.555 -75.086)"/></g><g transform="translate(107.036 51.836)"><path class="e" d="M161.06,75.52s8.22-.692,8.392,3.656-8.395,4.692-8.395,4.692Z" transform="translate(-160.501 -74.922)"/><path class="c" d="M161.238,84.606a.563.563,0,0,1-.385-.154.556.556,0,0,1-.17-.4l0-8.35a.554.554,0,0,1,.51-.553c.221-.019,5.411-.428,7.795,1.678a3.423,3.423,0,0,1,1.2,2.511c.193,4.848-8.556,5.256-8.928,5.271Zm.559-8.379,0,7.225c1.836-.166,7.409-.929,7.285-4.073a2.32,2.32,0,0,0-.824-1.721C166.616,76.212,163.107,76.179,161.8,76.228Z" transform="translate(-160.682 -75.103)"/></g><g transform="translate(46.315 25.264)"><path class="e" d="M126.368,65.532,120.1,82.227l-.011,24.7,33.038,18.8,21.918-7.3,6.617-18.086.012-29.22L167.766,57.549Z" transform="translate(-119.533 -56.995)"/><path class="c" d="M153.308,126.459a.568.568,0,0,1-.276-.073L120,107.587a.556.556,0,0,1-.282-.483l.01-24.7a.551.551,0,0,1,.036-.2l6.269-16.695a.552.552,0,0,1,.415-.35l41.4-7.983a.563.563,0,0,1,.494.148L182.244,70.9a.552.552,0,0,1,.167.4l-.012,29.219a.565.565,0,0,1-.034.191L175.748,118.8a.558.558,0,0,1-.345.338l-21.919,7.3A.54.54,0,0,1,153.308,126.459Zm-32.483-19.678L153.368,125.3l21.429-7.132,6.492-17.741.012-28.887L167.767,58.331,126.96,66.2l-6.124,16.308Z" transform="translate(-119.714 -57.175)"/></g><g transform="translate(93.511 63.415)"><path class="g" d="M160.862,83.29c-4.931,0-8.93,2.281-8.93,5.1s3.994,5.1,8.925,5.106a14.746,14.746,0,0,0,3.572-.427l1.881-5.137V84.36A13.665,13.665,0,0,0,160.862,83.29Z" transform="translate(-151.376 -82.734)"/><path class="c" d="M161.047,94.231h-.009a13.5,13.5,0,0,1-6.588-1.571c-1.868-1.067-2.895-2.52-2.893-4.091,0-3.172,4.165-5.654,9.478-5.654h.007a14.169,14.169,0,0,1,5.675,1.118.556.556,0,0,1,.331.508v3.57a.565.565,0,0,1-.034.191l-1.881,5.137a.551.551,0,0,1-.387.348A15.314,15.314,0,0,1,161.047,94.231Zm-.01-10.2c-4.537,0-8.367,2.079-8.368,4.543,0,1.155.827,2.265,2.333,3.126a12.384,12.384,0,0,0,6.037,1.424h.009a14.323,14.323,0,0,0,3.145-.342l1.743-4.764v-3.1a13.276,13.276,0,0,0-4.894-.883h-.006Z" transform="translate(-151.557 -82.915)"/></g><g transform="translate(46.317 63.392)"><path class="g" d="M124.5,83.275a14.367,14.367,0,0,0-4.406.667l0,8.868a14.348,14.348,0,0,0,4.4.67c4.931,0,8.93-2.281,8.931-5.1S129.43,83.278,124.5,83.275Z" transform="translate(-119.534 -82.719)"/><path class="c" d="M124.683,94.216h-.006a15.025,15.025,0,0,1-4.578-.7.557.557,0,0,1-.384-.529l0-8.868a.556.556,0,0,1,.385-.529,14.976,14.976,0,0,1,4.571-.694h.006c5.318,0,9.483,2.49,9.483,5.662S130,94.216,124.683,94.216Zm-3.857-1.636a14.149,14.149,0,0,0,3.851.525h.006c4.535,0,8.367-2.079,8.368-4.543s-3.833-4.549-8.371-4.55h-.006a14.056,14.056,0,0,0-3.845.522Z" transform="translate(-119.715 -82.9)"/></g><g transform="translate(46.324 21.408)"><path class="f" d="M122.541,62.264A173.352,173.352,0,0,0,120.1,88.7s2.791-17.738,13.922-19.821,33.047-.682,33.047-.682,13.911,7.658,14.6,22.964l.007-18.785s.7-13.218-8.342-16.7S122.541,62.264,122.541,62.264Z" transform="translate(-119.539 -54.394)"/><path class="c" d="M181.846,91.9a.555.555,0,0,1-.556-.531c-.636-14.113-12.942-21.7-14.209-22.443-1.82-.11-22.281-1.282-32.781.68-10.614,1.986-13.449,19.189-13.476,19.363a.569.569,0,0,1-.593.467.555.555,0,0,1-.511-.554,175.267,175.267,0,0,1,2.454-26.533.555.555,0,0,1,.416-.442c1.712-.412,42.019-10.068,51.121-6.567,9.312,3.587,8.727,16.693,8.7,17.251L182.4,91.34a.555.555,0,0,1-.544.556ZM151.8,67.365c8.189,0,15.354.448,15.478.457a.561.561,0,0,1,.233.067c.12.067,10.317,5.809,13.779,17.034l0-12.366c.007-.157.571-12.887-7.986-16.182-8.344-3.219-46.028,5.56-50.105,6.524a184.191,184.191,0,0,0-2.253,20.845c1.716-5.536,5.521-13.808,13.142-15.233A106.872,106.872,0,0,1,151.8,67.365Z" transform="translate(-119.72 -54.573)"/></g><g transform="translate(46.235 63.417)"><path class="b" d="M120.12,86.28s6.487,12.99,30.78,12.767,30.792-15.755,30.792-15.755,1.6,47.541-28.545,47.759-32.585-11.819-32.929-20.864S120.12,86.28,120.12,86.28Z" transform="translate(-119.479 -82.735)"/><path class="c" d="M152.549,131.791c-31.9,0-32.441-14.435-32.7-21.4-.342-8.957-.1-23.79-.1-23.938a.556.556,0,0,1,1.052-.24c.064.126,6.554,12.463,29.68,12.463.2,0,.4,0,.6,0,23.609-.215,30.221-15.263,30.285-15.416a.552.552,0,0,1,.614-.331.558.558,0,0,1,.455.528c.037,1.129.786,27.8-11.988,41.107a23.086,23.086,0,0,1-17.108,7.227C153.07,131.791,152.805,131.791,152.549,131.791Zm-31.718-43.48c-.052,4.264-.145,14.984.123,22.036.406,10.679,4.636,20.542,32.369,20.329a22.016,22.016,0,0,0,16.314-6.883c10.411-10.843,11.583-31.552,11.682-38.2-2.706,4.227-11.036,14.012-30.234,14.187C131.582,99.929,123.462,91.853,120.831,88.311Z" transform="translate(-119.66 -82.916)"/></g><path class="c" d="M149.643,99.176h-3.479a3.367,3.367,0,0,1-2.552-1.032,5.954,5.954,0,0,1-1.246-3.96l.006-19.219a3,3,0,0,0-1.627-2.229,10.8,10.8,0,0,0-5.932-1.393H134.8c-5.411,0-7.429,2.324-7.448,2.348a.562.562,0,0,1-.783.071.554.554,0,0,1-.076-.778c.092-.113,2.321-2.752,8.306-2.752h.009a11.866,11.866,0,0,1,6.533,1.571,4.07,4.07,0,0,1,2.137,3.163l-.007,19.249a4.944,4.944,0,0,0,.946,3.169,2.274,2.274,0,0,0,1.743.682h3.479a.556.556,0,0,1,0,1.112Z" transform="translate(-70.188 -25.616)"/><path class="c" d="M144.294,77.4h0a.556.556,0,0,1-.556-.556,4.081,4.081,0,0,1,2.14-3.163,11.876,11.876,0,0,1,6.524-1.564h.01c5.992,0,8.221,2.644,8.313,2.758a.555.555,0,0,1-.858.706c-.027-.031-2.047-2.351-7.455-2.352h-.01a10.777,10.777,0,0,0-5.923,1.387,3,3,0,0,0-1.63,2.228A.556.556,0,0,1,144.294,77.4Z" transform="translate(-61.815 -24.707)"/><g transform="translate(58.74 56.023)"><path class="f" d="M132.646,80.391A2.087,2.087,0,1,1,130.56,78.3,2.087,2.087,0,0,1,132.646,80.391Z" transform="translate(-127.916 -77.747)"/><path class="c" d="M130.74,83.215h0a2.643,2.643,0,0,1,0-5.287h0a2.641,2.641,0,0,1,2.641,2.644h0a2.641,2.641,0,0,1-2.643,2.643Zm0-4.175a1.532,1.532,0,0,0,0,3.064h0a1.533,1.533,0,0,0,1.531-1.531h0a1.531,1.531,0,0,0-1.53-1.533Z" transform="translate(-128.097 -77.928)"/></g><g transform="translate(87.962 56.035)"><path class="f" d="M152.362,80.4a2.087,2.087,0,1,1-2.085-2.088A2.087,2.087,0,0,1,152.362,80.4Z" transform="translate(-147.632 -77.755)"/><path class="c" d="M150.456,83.223h0a2.643,2.643,0,1,1,2.644-2.641h0a2.644,2.644,0,0,1-2.643,2.641Zm0-4.175a1.532,1.532,0,0,0,0,3.064h0a1.531,1.531,0,0,0,1.531-1.53h0A1.535,1.535,0,0,0,150.457,79.048Z" transform="translate(-147.813 -77.936)"/></g><path class="c" d="M148.353,100.238a.556.556,0,0,1-.074-1.107c.065-.009,6.558-.943,9.63-4.449a.556.556,0,1,1,.836.732c-3.347,3.821-10.031,4.78-10.314,4.818A.439.439,0,0,1,148.353,100.238Z" transform="translate(-59.858 -13.919)"/><g transform="translate(45.491)"><path class="b" d="M153.43,54.976s8.583-3.707,4.178-11.129c-4.864-8.2-28.291.219-34.092,8.8S112.655,79.739,151.126,80s34.326-20.317,27.119-24.553C167.579,49.186,153.43,54.976,153.43,54.976Z" transform="translate(-118.978 -39.948)"/><path class="c" d="M152.05,80.744l-.747,0c-16.77-.116-27.117-3.674-30.753-10.578-3.756-7.137,1.106-15.312,2.686-17.648,4.328-6.4,18.051-12.669,27.188-12.376,3.8.113,6.51,1.359,7.844,3.606a7.6,7.6,0,0,1,1.017,6.376,8.114,8.114,0,0,1-2.179,3.324c4.983-1.322,14.064-2.72,21.6,1.707,3.419,2.008,6.081,7.251,4.621,12.548C181.976,72.594,176.109,80.744,152.05,80.744Zm-2.192-39.5c-8.679,0-21.7,5.985-25.7,11.9-1.493,2.207-6.092,9.919-2.622,16.507,3.43,6.514,13.447,9.874,29.776,9.985l.748,0c23.317,0,28.93-7.639,30.2-12.226,1.3-4.719-1.122-9.538-4.111-11.294-10.31-6.059-24.184-.5-24.322-.439a.556.556,0,0,1-.431-1.026c.037-.016,3.808-1.685,4.839-4.875a6.543,6.543,0,0,0-.917-5.46c-1.426-2.4-4.55-2.992-6.92-3.062Q150.127,41.242,149.858,41.242Z" transform="translate(-119.158 -40.129)"/></g><g transform="translate(0 122.525)"><path class="h" d="M135.055,123.172s5.6,16.932,30.956,16.942,30.7-16.916,30.7-16.916,50.787-2.065,50.772,34.112l-.015,36.178L88.84,193.42l.016-36.176S90.334,123.154,135.055,123.172Z" transform="translate(-88.284 -122.616)"/><path class="c" d="M247.643,194.224h0l-158.622-.068a.556.556,0,0,1-.556-.556l.016-36.176C88.5,157.054,90.5,122.8,135.2,122.8a.581.581,0,0,1,.563.381c.056.166,5.8,16.551,30.428,16.563h.024c12.864,0,20.371-4.491,24.4-8.26a21.857,21.857,0,0,0,5.737-8.269.557.557,0,0,1,.508-.387c.277-.015,28.03-.972,42.53,12.955,5.856,5.625,8.825,12.93,8.82,21.71l-.016,36.178A.556.556,0,0,1,247.643,194.224Zm-158.066-1.18,157.51.068.016-35.622c0-8.466-2.849-15.5-8.479-20.909-13.264-12.741-38.03-12.726-41.347-12.656-1,2.536-7.743,16.923-31.061,16.926h-.024c-13.279-.006-21.122-4.692-25.364-8.625a23.957,23.957,0,0,1-5.977-8.318c-17.879.074-31.358,5.86-39,16.745a35.271,35.271,0,0,0-6.261,16.793Z" transform="translate(-88.465 -122.797)"/></g></g></g></g><path class="e" d="M232.881,221.936l-8.949,0v-1.112l8.893,0Zm-17.841-.007-8.893,0v-1.112l8.893,0Zm-17.784-.007-8.893,0v-1.112l8.893,0Zm-17.784-.007-8.893,0V220.8l8.893,0Zm-17.786-.007-8.891,0V220.79l8.891,0ZM143.9,221.9l-8.891,0v-1.112l8.891,0Zm-17.784-.007-8.893,0v-1.112l8.893,0Zm-17.784-.007-4.488,0a15.372,15.372,0,0,1-4.5-.671l.326-1.063a14.217,14.217,0,0,0,4.175.622l4.488,0Zm133.221-2.66-.631-.914a14.246,14.246,0,0,0,5.222-6.618l1.039.4A15.359,15.359,0,0,1,241.554,219.223ZM91.834,216.1a15.263,15.263,0,0,1-3.319-8.457l1.109-.08A14.16,14.16,0,0,0,92.7,215.4ZM248.209,203.12H247.1l0-8.891h1.112Zm-158.62-4.412H88.477l0-8.893h1.112Zm158.628-13.372H247.1l0-8.891h1.112ZM89.6,180.923H88.484l0-8.893H89.6Zm158.628-13.372h-1.112l0-8.891h1.112ZM89.6,163.139H88.492l0-8.893h1.112Zm158.628-13.372H247.12l0-8.891h1.112Zm-158.62-4.412H88.5l0-8.893h1.112ZM248.24,131.983h-1.112l0-8.893h1.112ZM89.62,127.57H88.508l0-8.893h1.112ZM248.246,114.2h-1.112l0-8.893h1.112Zm-158.62-4.414H88.514l0-8.891H89.63Zm158.628-13.37h-1.112l0-8.893h1.112ZM89.635,92H88.523l0-8.891h1.112ZM248.262,78.63h-1.112l0-8.893h1.112ZM89.642,74.216H88.53l0-8.891h1.112ZM248.27,60.846h-1.112l0-8.893h1.112ZM89.649,56.432H88.538l0-8.891h1.112ZM247.124,43.1a14.182,14.182,0,0,0-3.093-7.839l.867-.7a15.29,15.29,0,0,1,3.335,8.451ZM90.614,38.972l-1.036-.4a15.348,15.348,0,0,1,5.643-7.122l.63.916A14.246,14.246,0,0,0,90.614,38.972Zm146.44-8.438a14.265,14.265,0,0,0-4.149-.615h-4.518V28.806h4.518a15.4,15.4,0,0,1,4.472.663ZM219.5,29.914l-8.893,0V28.8l8.893,0Zm-17.784-.007-8.893,0V28.79l8.893,0ZM183.927,29.9l-8.891,0V28.783l8.891,0Zm-17.784-.007-8.891,0V28.775l8.891,0Zm-17.784-.007-8.891,0V28.768l8.891,0Zm-17.784-.007-8.893,0V28.76l8.893,0Zm-17.784-.009-8.863,0-.028-1.112,8.891,0Z" transform="translate(-88.471 -28.753)"/></svg>