<svg xmlns="http://www.w3.org/2000/svg" xmlns:xlink="http://www.w3.org/1999/xlink" width="159.917" height="201.285" viewBox="0 0 159.917 201.285"><defs><style>.a{fill:none;}.b{fill:#725227;}.c{fill:#1a1a1a;}.d{clip-path:url(#a);}.e{fill:#fff;}.f{fill:#392914;}.g{fill:#f2bf4c;}.h{fill:#fff1c8;}</style><clipPath id="a"><rect class="a" width="158.622" height="192.016" rx="10"/></clipPath></defs><g transform="translate(0 178.376)"><path class="b" d="M247.468,456.815l-.037,6.916A14.82,14.82,0,0,1,232.6,478.545l-128.979-.055a14.821,14.821,0,0,1-14.816-14.827l.037-6.916Z" transform="translate(-88.253 -456.191)"/><path class="c" d="M232.792,479.281h-.007l-128.979-.055a15.378,15.378,0,0,1-15.371-15.383l.04-7.471,159.734.068-.04,7.473a15.376,15.376,0,0,1-15.376,15.368Zm-143.211-21.8-.036,6.363a14.265,14.265,0,0,0,14.26,14.269l128.979.055h.007a14.265,14.265,0,0,0,14.264-14.26l.036-6.358Z" transform="translate(-88.434 -456.372)"/></g><g transform="translate(0.576 0.779)"><g class="d"><g transform="translate(-0.556 33.187)"><g transform="translate(110.655 48.125)"><path class="e" d="M163.482,391.825s8.611-.694,8.794,3.654-8.794,4.7-8.794,4.7Z" transform="translate(-162.926 -391.227)"/><path class="c" d="M163.663,400.913a.554.554,0,0,1-.556-.556v-8.349a.555.555,0,0,1,.511-.554c.236-.021,5.76-.436,8.211,1.731a3.353,3.353,0,0,1,1.181,2.453,3.391,3.391,0,0,1-.95,2.514c-2.3,2.5-8.13,2.752-8.376,2.761Zm.556-8.377v7.227c1.482-.127,5.419-.621,7.025-2.365a2.291,2.291,0,0,0,.657-1.713,2.258,2.258,0,0,0-.808-1.666C169.381,392.5,165.6,392.487,164.219,392.536Z" transform="translate(-163.107 -391.409)"/></g><g transform="translate(39.033 48.124)"><path class="e" d="M123.954,391.825s-8.611-.694-8.794,3.654,8.794,4.7,8.794,4.7Z" transform="translate(-114.603 -391.227)"/><path class="c" d="M124.135,400.913h-.022c-.246-.009-6.072-.262-8.376-2.761a3.391,3.391,0,0,1-.95-2.514,3.353,3.353,0,0,1,1.181-2.453c2.451-2.168,7.974-1.753,8.211-1.731a.555.555,0,0,1,.511.554v8.349a.554.554,0,0,1-.556.556Zm-1.276-8.39c-1.691,0-4.689.2-6.155,1.5a2.258,2.258,0,0,0-.806,1.664,2.3,2.3,0,0,0,.657,1.715c1.611,1.746,5.543,2.238,7.025,2.364v-7.227C123.383,392.528,123.139,392.523,122.859,392.523Z" transform="translate(-114.784 -391.408)"/></g><g transform="translate(46.916 55.995)"><path class="e" d="M120.477,456.46V397.093l64.516,12.523V456.46l-37.777,20.871Z" transform="translate(-119.921 -396.538)"/><path class="c" d="M147.4,478.068a.548.548,0,0,1-.342-.117l-26.739-20.872a.555.555,0,0,1-.213-.439V397.275a.555.555,0,0,1,.661-.545l64.516,12.523a.555.555,0,0,1,.449.545v46.843a.556.556,0,0,1-.288.488L147.665,478A.559.559,0,0,1,147.4,478.068Zm-26.184-21.7,26.235,20.477,37.168-20.535V410.257l-63.4-12.308Z" transform="translate(-120.102 -396.719)"/></g><g transform="translate(46.916 55.995)"><path class="f" d="M184.993,409.617l-64.516-12.524v22.969s17.406,24.7,39.089,26.658C177.221,448.316,184.993,409.617,184.993,409.617Z" transform="translate(-119.921 -396.538)"/><path class="c" d="M160.778,447.5c-.359,0-.72-.015-1.082-.049-21.687-1.961-39.317-26.642-39.493-26.891a.554.554,0,0,1-.1-.32V397.275a.555.555,0,0,1,.661-.545l64.516,12.523a.555.555,0,0,1,.439.655,107.86,107.86,0,0,1-6.129,19.262C174.323,441.2,167.839,447.5,160.778,447.5Zm-39.564-27.439c1.458,2,18.254,24.445,38.583,26.284,15.832,1.405,23.68-31.439,24.715-36.112l-63.3-12.286Z" transform="translate(-120.102 -396.719)"/></g><g transform="translate(46.917 7.643)"><path class="e" d="M184.993,405.634V389.168l-6.56-16.7-43.365-8-14.577,13.566v24.583s-.031.99,0,2.647v1.991l.074.19c-.089,25.2,13.64,54.816,39,55,31.583.231,24.949-23.864,25.314-32.908S184.993,405.634,184.993,405.634Z" transform="translate(-119.922 -363.915)"/><path class="c" d="M160.185,463.186h-.443c-14.992-.11-24.322-10.056-29.509-18.382-6.413-10.289-10.07-23.8-10.042-37.074l-.037-.093a.568.568,0,0,1-.037-.2v-1.991c-.031-1.664,0-2.665,0-2.665V378.217a.557.557,0,0,1,.178-.406l14.577-13.566a.551.551,0,0,1,.479-.139l43.365,8a.554.554,0,0,1,.416.344l6.56,16.7a.554.554,0,0,1,.037.2V405.81c.006.329.245,15.035-.114,23.934-.05,1.266.039,2.826.141,4.632.382,6.72.9,15.923-5.05,22.179C176.515,460.956,169.613,463.186,160.185,463.186Zm-38.957-55.852.037.095a.577.577,0,0,1,.037.2c-.12,33.9,19.455,54.3,38.448,54.444,9.281.053,16.114-2.047,20.15-6.286,5.622-5.906,5.115-14.833,4.744-21.349-.1-1.836-.194-3.421-.141-4.74.36-8.924.116-23.726.113-23.876V389.454l-6.407-16.312-42.787-7.892-14.194,13.209V402.8c0,.027-.031,1,0,2.637Z" transform="translate(-120.103 -364.096)"/></g><g transform="translate(46.879)"><path class="g" d="M185.005,408.119l.233-24.457s2.536-24.349-32.492-24.349-32.243,23.064-32.243,24.4-.052,18.036-.052,18.036,1.094-18.09,7.008-21.568c0,0,9.527,11.828,25.287,11.828S177.9,380.184,177.9,380.184,185.005,388.407,185.005,408.119Z" transform="translate(-119.896 -358.758)"/><path class="c" d="M185.185,408.856h0a.556.556,0,0,1-.553-.556c0-16.547-5.107-24.968-6.579-27.052-2.1,2.339-11.23,11.5-25.122,11.5-14.22,0-23.554-9.6-25.389-11.65-5.262,3.848-6.341,20.694-6.35,20.867a.528.528,0,0,1-.574.522.556.556,0,0,1-.538-.557s.052-16.695.052-18.033l-.012-.259a20.957,20.957,0,0,1,5.565-15.951c5.508-5.806,14.673-8.748,27.245-8.748,12.683,0,21.951,3.148,27.546,9.355a21.613,21.613,0,0,1,5.5,15.607l-.231,24.4A.556.556,0,0,1,185.185,408.856Zm.556-.556h0Zm-7.661-28.49a.554.554,0,0,1,.421.191c.224.261,4.313,5.124,6.246,16.142l.117-12.306a20.893,20.893,0,0,0-5.229-14.814c-5.377-5.954-14.363-8.973-26.707-8.973-12.254,0-21.149,2.826-26.438,8.4a19.87,19.87,0,0,0-5.26,15.13c.007.147.012.253.012.317,0,.654-.012,4.967-.025,9.211,1.011-5.263,2.856-11.288,6.143-13.222a.559.559,0,0,1,.714.13c.093.116,9.557,11.62,24.854,11.62s24.624-11.5,24.716-11.617a.554.554,0,0,1,.424-.209Z" transform="translate(-120.077 -358.939)"/></g><path class="c" d="M153.059,421.2h-3.477a3.184,3.184,0,0,1-2.391-.99c-1.534-1.605-1.417-4.614-1.411-4.74V393a3.057,3.057,0,0,0-.716-1.787c-1.258-1.61-3.753-2.534-6.845-2.534-5.4,0-7.351,2.635-7.431,2.748a.556.556,0,0,1-.909-.64c.092-.132,2.323-3.219,8.34-3.219,4.7,0,6.856,1.856,7.72,2.963a4.114,4.114,0,0,1,.952,2.471v22.5c0,.05-.1,2.69,1.107,3.95a2.082,2.082,0,0,0,1.584.645h3.477a.556.556,0,0,1,0,1.112Z" transform="translate(-68.521 -345.137)"/><path class="c" d="M161.466,391.659a.556.556,0,0,1-.455-.234c-.084-.119-2.038-2.748-7.431-2.748-3.09,0-5.585.925-6.845,2.534a.556.556,0,0,1-.876-.685c.866-1.106,3.018-2.961,7.72-2.961,6.017,0,8.248,3.087,8.34,3.219a.555.555,0,0,1-.454.874Z" transform="translate(-60.824 -345.137)"/><g transform="translate(61.731 53.907)"><circle class="f" cx="2.087" cy="2.087" r="2.087" transform="translate(0.556 0.556)"/><path class="c" d="M132.741,400.6a2.643,2.643,0,1,1,2.643-2.643A2.645,2.645,0,0,1,132.741,400.6Zm0-4.175a1.532,1.532,0,1,0,1.531,1.533A1.533,1.533,0,0,0,132.741,396.422Z" transform="translate(-130.098 -395.31)"/></g><g transform="translate(48.95 67.608)"><path class="h" d="M129.657,409.988c0-2.6-3.407-4.741-7.808-5.057a72,72,0,0,0,2.936,9.6C127.675,413.685,129.657,411.97,129.657,409.988Z" transform="translate(-121.294 -404.372)"/><path class="c" d="M124.966,415.266a.556.556,0,0,1-.519-.356,72.726,72.726,0,0,1-2.958-9.671.561.561,0,0,1,.119-.489.519.519,0,0,1,.462-.191c4.823.345,8.324,2.7,8.324,5.611,0,2.18-2.02,4.125-5.272,5.075A.625.625,0,0,1,124.966,415.266Zm-2.216-9.524a71.226,71.226,0,0,0,2.549,8.281c2.437-.831,3.983-2.312,3.983-3.852C129.282,408.079,126.469,406.21,122.75,405.741Z" transform="translate(-121.474 -404.554)"/></g><g transform="translate(93.652 53.907)"><path class="f" d="M152.01,397.772a2.088,2.088,0,1,0,2.088-2.087A2.089,2.089,0,0,0,152.01,397.772Z" transform="translate(-151.454 -395.129)"/><path class="c" d="M154.278,400.6a2.643,2.643,0,1,1,2.644-2.643A2.646,2.646,0,0,1,154.278,400.6Zm0-4.175a1.532,1.532,0,1,0,1.533,1.533A1.534,1.534,0,0,0,154.278,396.422Z" transform="translate(-151.635 -395.31)"/></g><g transform="translate(102.801 67.574)"><path class="h" d="M166.837,404.906c-4.8.083-8.654,2.328-8.654,5.094s3.864,5.019,8.678,5.094c-.11-1.939-.218-3.67-.162-5.05C166.762,408.472,166.808,406.722,166.837,404.906Z" transform="translate(-157.627 -404.35)"/><path class="c" d="M167.042,415.831h-.009c-5.173-.082-9.225-2.564-9.225-5.65s4.042-5.561,9.2-5.65a.644.644,0,0,1,.4.163.564.564,0,0,1,.163.4c-.031,1.82-.076,3.573-.141,5.152-.05,1.258.039,2.809.139,4.6l.022.39a.555.555,0,0,1-.554.587Zm-.588-10.167c-4.2.233-7.534,2.2-7.534,4.518s3.327,4.283,7.532,4.518c-.1-1.731-.178-3.235-.127-4.5C166.381,408.8,166.422,407.264,166.453,405.663Z" transform="translate(-157.808 -404.531)"/></g><path class="c" d="M149.887,417.019a.555.555,0,0,1-.222-1.064c.046-.021,4.59-2.011,6.392-4.329a.556.556,0,1,1,.877.683c-1.977,2.542-6.63,4.578-6.827,4.664A.536.536,0,0,1,149.887,417.019Z" transform="translate(-59.094 -333.641)"/><path class="c" d="M134.907,405.171c-7.048,0-12.567-2.784-12.567-6.336s5.52-6.335,12.567-6.335,12.566,2.783,12.566,6.335S141.953,405.171,134.907,405.171Zm0-11.559c-6.21,0-11.455,2.392-11.455,5.223s5.245,5.225,11.455,5.225,11.454-2.392,11.454-5.225S141.116,393.612,134.907,393.612Z" transform="translate(-72.107 -342.758)"/><path class="c" d="M159.548,405.171c-7.046,0-12.566-2.784-12.566-6.336s5.52-6.335,12.566-6.335,12.567,2.783,12.567,6.335S166.594,405.171,159.548,405.171Zm0-11.559c-6.209,0-11.454,2.392-11.454,5.223s5.245,5.225,11.454,5.225S171,401.667,171,398.835,165.756,393.612,159.548,393.612Z" transform="translate(-60.226 -342.758)"/><path class="c" d="M151.6,398.153a.553.553,0,0,1-.276-.073c-7.35-4.206-11.661-.249-11.841-.08a.556.556,0,0,1-.769-.8c.05-.046,5.066-4.719,13.163-.082a.555.555,0,0,1-.277,1.037Z" transform="translate(-64.293 -341.521)"/><g transform="translate(0 96.82)"><path class="h" d="M135.74,440.87V424.638S146.558,435.3,168.113,435.3,200.255,428,200.255,428V440.87s47.19-.6,47.19,23.181V496.18H88.823V464.051S95.725,440.87,135.74,440.87Z" transform="translate(-88.267 -424.082)"/><path class="c" d="M247.626,496.916H89a.556.556,0,0,1-.556-.556V464.232a.578.578,0,0,1,.022-.159c.07-.234,7.412-23.363,46.9-23.576V424.819a.556.556,0,0,1,.946-.4c.107.105,10.932,10.508,31.983,10.508,21.1,0,31.721-7.134,31.825-7.206a.555.555,0,0,1,.871.457v12.312c4.317.007,30.688.514,42.062,11.746a16.364,16.364,0,0,1,5.13,11.994V496.36A.556.556,0,0,1,247.626,496.916ZM89.56,495.8H247.07V464.232a15.293,15.293,0,0,0-4.8-11.2c-11.811-11.664-41.534-11.43-41.829-11.423a.532.532,0,0,1-.4-.162.549.549,0,0,1-.166-.394v-11.87c-2.949,1.718-13.3,6.861-31.584,6.861-17.99,0-28.712-7.482-31.817-10.007v15.017a.556.556,0,0,1-.556.556c-38.047,0-45.889,21.306-46.361,22.712Z" transform="translate(-88.448 -424.263)"/></g><path class="c" d="M151.716,442.7a83.636,83.636,0,0,1-12.92-.989c-11.411-1.792-18.118-5.3-18.4-5.451a.556.556,0,0,1,.522-.981c.268.141,27.317,14.085,64.054-.028a.556.556,0,0,1,.4,1.037A93.6,93.6,0,0,1,151.716,442.7Z" transform="translate(-73.186 -322.163)"/><path class="c" d="M142.522,444.527a.555.555,0,0,1-.556-.554l-.021-11.955a.557.557,0,0,1,.556-.557h0a.555.555,0,0,1,.556.554l.021,11.955a.556.556,0,0,1-.556.557Z" transform="translate(-62.655 -323.973)"/><path class="c" d="M138.161,444.527a.554.554,0,0,1-.505-.325c-1.132-2.491-.162-11.258-.047-12.25a.544.544,0,0,1,.617-.488.554.554,0,0,1,.488.615c-.3,2.61-.9,9.791-.046,11.661a.555.555,0,0,1-.276.737A.548.548,0,0,1,138.161,444.527Z" transform="translate(-64.985 -323.974)"/><path class="c" d="M133.612,444.135a.556.556,0,0,1-.553-.5c-.233-2.364-.012-12.192,0-12.61a.611.611,0,0,1,.569-.544.556.556,0,0,1,.542.569c0,.1-.228,10.178,0,12.475a.555.555,0,0,1-.5.608Z" transform="translate(-66.99 -324.446)"/><path class="c" d="M129.645,443.6a.556.556,0,0,1-.544-.44c-.642-3.034-.037-12.914-.01-13.333a.527.527,0,0,1,.59-.519.556.556,0,0,1,.52.588c-.007.1-.622,10.148-.012,13.032a.557.557,0,0,1-.428.66A.634.634,0,0,1,129.645,443.6Z" transform="translate(-68.989 -325.012)"/><path class="c" d="M125.21,442.59a.558.558,0,0,1-.554-.531c-.116-2.441,1.061-13.326,1.11-13.788a.565.565,0,0,1,.614-.494.557.557,0,0,1,.492.612c-.012.114-1.217,11.261-1.106,13.618a.557.557,0,0,1-.529.582Z" transform="translate(-70.995 -325.75)"/><path class="c" d="M121.8,441.527a.485.485,0,0,1-.079-.006.553.553,0,0,1-.471-.628c.359-2.518,1.755-14.221,1.768-14.338a.556.556,0,1,1,1.1.129c-.015.119-1.411,11.836-1.773,14.366A.556.556,0,0,1,121.8,441.527Z" transform="translate(-72.637 -326.576)"/><path class="c" d="M147.192,444.139a.54.54,0,0,1-.159-.024.556.556,0,0,1-.375-.691c.547-1.847.17-8.831-.021-11.367a.556.556,0,1,1,1.109-.083c.028.381.7,9.346-.022,11.765A.555.555,0,0,1,147.192,444.139Z" transform="translate(-60.393 -323.974)"/><path class="c" d="M151.273,443.627a.548.548,0,0,1-.356-.129.555.555,0,0,1-.07-.783c1.1-1.313,1.269-7.587,1.121-11.232a.556.556,0,0,1,.532-.58.587.587,0,0,1,.578.534c.041,1.009.351,9.918-1.378,11.989A.555.555,0,0,1,151.273,443.627Z" transform="translate(-58.425 -324.242)"/><path class="c" d="M155.8,442.766a.606.606,0,0,1-.114-.012.555.555,0,0,1-.43-.658c.668-3.2,0-11.521-.01-11.605a.555.555,0,0,1,.508-.6.546.546,0,0,1,.6.508c.03.348.692,8.568-.009,11.924A.556.556,0,0,1,155.8,442.766Z" transform="translate(-56.245 -324.731)"/><path class="c" d="M159.776,441.755a.555.555,0,0,1-.532-.717c.757-2.478-.013-11.7-.021-11.792a.556.556,0,1,1,1.107-.093c.033.387.8,9.529-.022,12.21A.554.554,0,0,1,159.776,441.755Z" transform="translate(-54.326 -325.332)"/><path class="c" d="M164.2,440.326a.531.531,0,0,1-.126-.015.555.555,0,0,1-.415-.667c.517-2.229-1.5-8.789-2.32-11.129a.557.557,0,0,1,1.051-.368c.124.357,3.046,8.752,2.351,11.749A.555.555,0,0,1,164.2,440.326Z" transform="translate(-53.317 -325.75)"/></g></g></g><path class="e" d="M232.92,529.2l-8.949,0v-1.112l8.891,0Zm-17.842-.007-8.891,0v-1.112l8.891,0Zm-17.784-.006-8.891,0v-1.112l8.891,0Zm-17.784-.009-8.893,0v-1.112l8.893,0Zm-17.784-.007-8.893,0v-1.112l8.893,0Zm-17.784-.007-8.893,0v-1.112l8.893,0Zm-17.784-.007-8.893,0v-1.112l8.893,0Zm-17.784-.009h-4.489a15.286,15.286,0,0,1-4.5-.671l.325-1.063a14.2,14.2,0,0,0,4.175.622h4.489Zm133.219-2.659-.63-.914a14.22,14.22,0,0,0,5.222-6.616l1.038.4A15.333,15.333,0,0,1,241.592,526.492Zm-149.72-3.124a15.281,15.281,0,0,1-3.317-8.459l1.109-.082a14.169,14.169,0,0,0,3.077,7.845ZM248.248,510.39h-1.112l0-8.893h1.112Zm-158.62-4.414H88.516l0-8.893h1.112Zm158.628-13.37h-1.112l0-8.893h1.112Zm-158.62-4.415H88.523l0-8.891h1.112Zm158.628-13.369h-1.112l0-8.893h1.112Zm-158.62-4.415H88.531l0-8.891h1.112ZM248.27,457.037h-1.112l0-8.893h1.112ZM89.65,452.622H88.538l0-8.891h1.112Zm158.628-13.369h-1.112l0-8.893h1.112ZM89.659,434.838H88.547l0-8.891h1.112Zm158.628-13.369h-1.112l0-8.893h1.112Zm-158.62-4.415H88.555l0-8.891h1.112Zm158.626-13.37h-1.112l0-8.891H248.3ZM89.674,399.269H88.562l0-8.891h1.112ZM248.3,385.9H247.19l0-8.891H248.3Zm-158.62-4.414H88.569l0-8.893h1.112Zm158.628-13.37H247.2l0-8.891h1.112ZM89.688,363.7H88.577l0-8.893h1.112Zm157.475-13.327a14.175,14.175,0,0,0-3.093-7.84l.867-.7a15.29,15.29,0,0,1,3.335,8.451Zm-156.51-4.132-1.036-.4a15.334,15.334,0,0,1,5.643-7.122l.63.917A14.245,14.245,0,0,0,90.653,346.241Zm146.44-8.438a14.221,14.221,0,0,0-4.149-.614h-4.518v-1.112h4.518a15.319,15.319,0,0,1,4.473.663Zm-17.557-.62-8.893,0v-1.112l8.893,0Zm-17.784-.007-8.893,0v-1.112l8.893,0Zm-17.784-.007-8.893,0v-1.112l8.893,0Zm-17.786-.009-8.891,0v-1.112l8.891,0Zm-17.784-.007-8.891,0v-1.112l8.891,0Zm-17.784-.007-8.893,0v-1.112l8.893,0Zm-17.784-.007-8.863,0-.03-1.112,8.893,0Z" transform="translate(-88.394 -336.022)"/></svg>