<svg xmlns="http://www.w3.org/2000/svg" xmlns:xlink="http://www.w3.org/1999/xlink" width="131.913" height="165.173" viewBox="0 0 131.913 165.173"><defs><style>.a{fill:none;}.b{fill:#1a1a1a;}.c{clip-path:url(#a);}.d{fill:#392914;}.e{fill:#fff;}.f{fill:#ffc84c;}.g{fill:#fff1c8;}</style><clipPath id="a"><rect class="a" width="130.706" height="165.173" rx="10"/></clipPath></defs><g transform="translate(0 -1.014)"><g transform="translate(0.258 147.308)"><path class="b" d="M517.67,321.111h0l-106.279-.046a12.687,12.687,0,0,1-12.666-12.677l.033-6.155,131.622.056-.033,6.158A12.687,12.687,0,0,1,517.67,321.111ZM399.664,303.148l-.028,5.242a11.769,11.769,0,0,0,11.75,11.759l106.279.046h0a11.771,11.771,0,0,0,11.756-11.751l.029-5.239Z" transform="translate(-398.72 -302.232)"/></g><g transform="translate(0 1.014)"><g class="c"><g transform="translate(-0.458 16.491)"><g transform="translate(27.862)"><path class="d" d="M459.922,205.561s-.764-12.326-17.771-9.334-19.3,34.543-15.1,53.976,3.631,35.275,0,36.531-5.733-.857-5.733,2.095,2.675,10.817,16.242,5.388S459.922,205.561,459.922,205.561Z" transform="translate(-420.864 -195.277)"/><path class="b" d="M429.491,296.673a8.981,8.981,0,0,1-5.375-1.555,7.856,7.856,0,0,1-3.169-6.185,2.337,2.337,0,0,1,.5-1.719c.484-.487,1.179-.46,2.066-.426a8.815,8.815,0,0,0,3.476-.4c2.905-1,4.2-15.177-.3-35.973-3.181-14.709-2.621-35.487,4.607-46.734,2.84-4.42,6.494-7.05,10.861-7.818,6.265-1.1,11.1-.293,14.369,2.408a11.188,11.188,0,0,1,3.936,7.365.468.468,0,0,1,0,.083c-.36,3.41-8.979,83.58-22.65,89.051A22.978,22.978,0,0,1,429.491,296.673Zm-6.6-8.945a1.214,1.214,0,0,0-.808.175,1.594,1.594,0,0,0-.222,1.03,6.975,6.975,0,0,0,2.772,5.4c2.742,1.969,7.185,1.812,12.848-.456,13.028-5.212,21.809-85.855,22.062-88.216a10.416,10.416,0,0,0-3.6-6.651c-3.056-2.517-7.644-3.257-13.635-2.2-4.11.724-7.559,3.215-10.253,7.409-7.084,11.024-7.614,31.481-4.472,45.991,4.034,18.652,3.9,35.637-.3,37.091a9.662,9.662,0,0,1-3.8.451C423.27,287.734,423.071,287.728,422.894,287.728Z" transform="translate(-420.947 -195.381)"/></g><g transform="translate(32.129 49.408)"><path class="e" d="M433.639,234.64s-8.823-1.247-8.823,4.028,8.823,3.928,8.823,3.928Z" transform="translate(-424.358 -234.03)"/><path class="b" d="M431.383,243.334c-1.816,0-4.233-.282-5.683-1.589a4.153,4.153,0,0,1,0-5.959c2.493-2.276,7.857-1.549,8.081-1.517a.472.472,0,0,1,.4.474V242.7a.473.473,0,0,1-.391.474A17.518,17.518,0,0,1,431.383,243.334Zm.186-8.24c-1.688,0-3.984.244-5.265,1.413a2.891,2.891,0,0,0-.946,2.264,2.856,2.856,0,0,0,.942,2.249c1.823,1.649,5.719,1.385,6.965,1.255v-7.1C432.891,235.137,432.284,235.094,431.568,235.094Z" transform="translate(-424.441 -234.134)"/></g><g transform="translate(88.542 49.408)"><path class="e" d="M471.007,234.64s8.823-1.247,8.823,4.028-8.823,3.928-8.823,3.928Z" transform="translate(-470.549 -234.03)"/><path class="b" d="M473.429,243.334a17.518,17.518,0,0,1-2.406-.161.473.473,0,0,1-.391-.474v-7.956a.471.471,0,0,1,.4-.474c.225-.032,5.587-.759,8.083,1.517a4.155,4.155,0,0,1,0,5.958C477.664,243.052,475.245,243.334,473.429,243.334Zm-1.881-1.06c1.247.134,5.144.394,6.966-1.255a2.859,2.859,0,0,0,.94-2.249,2.9,2.9,0,0,0-.944-2.264c-1.826-1.665-5.71-1.452-6.963-1.334Z" transform="translate(-470.632 -234.134)"/></g><g transform="translate(37.607 63.978)"><path class="e" d="M433.858,253.518v32.045l-4.557,9.376,27.746,12.966,23.189-13.166v-48.8L454.769,250.1Z" transform="translate(-428.844 -245.459)"/><path class="b" d="M457.129,308.487a.443.443,0,0,1-.187-.042L429.2,295.479a.467.467,0,0,1-.244-.277.5.5,0,0,1,.024-.376l4.505-9.274V253.621a.471.471,0,0,1,.388-.472l46.378-7.582a.457.457,0,0,1,.369.11.489.489,0,0,1,.16.363v48.8a.48.48,0,0,1-.241.419l-23.189,13.165A.443.443,0,0,1,457.129,308.487ZM430.01,294.811l27.1,12.665,22.752-12.916V246.6L434.4,254.03v31.637a.481.481,0,0,1-.05.217Zm3.93-9.144h0Z" transform="translate(-428.927 -245.562)"/></g><g transform="translate(60.552 63.978)"><path class="d" d="M450.611,250.1l25.467-4.163v13.182s-7.892,10.687-20.727,9.093S450.611,250.1,450.611,250.1Z" transform="translate(-447.63 -245.459)"/><path class="b" d="M458,268.954a21.122,21.122,0,0,1-2.623-.164c-3.261-.4-5.515-1.787-6.7-4.11-2.821-5.523,1.425-14.322,1.607-14.694a.456.456,0,0,1,.338-.254l25.467-4.164a.457.457,0,0,1,.369.11.489.489,0,0,1,.16.363v13.182a.494.494,0,0,1-.1.292C476.449,259.616,469.412,268.954,458,268.954Zm-7-18.317c-.626,1.374-3.88,8.962-1.513,13.594,1.038,2.03,3.057,3.245,6,3.611,11.7,1.455,19.288-7.614,20.215-8.787V246.6Z" transform="translate(-447.714 -245.562)"/></g><g transform="translate(57.538 7.235)"><path class="f" d="M445.621,209.935s.818-9.07,8.311-8.478,7.45,8.478,7.45,8.478l-6.837,4.323Z" transform="translate(-445.163 -200.953)"/><path class="f" d="M454.628,214.84a.456.456,0,0,1-.194-.045l-8.923-4.323a.479.479,0,0,1-.263-.478c.009-.1.943-9.509,8.8-8.911,7.827.617,7.874,8.875,7.874,8.958a.485.485,0,0,1-.22.407l-6.838,4.323A.445.445,0,0,1,454.628,214.84Zm-8.428-5.088,8.4,4.068,6.4-4.045c-.066-1.348-.716-7.24-7.02-7.738C447.74,201.525,446.423,208.152,446.2,209.751Z" transform="translate(-445.246 -201.056)"/></g><g transform="translate(38.903 22.447)"><path class="e" d="M431.566,230.691s-9.664,46.6,25.252,46.6c23.35,0,25.573-27.558,24.485-45.813-.54-9.041-4.458-12.558-4.458-12.558l-3.249-3.794-18.531-1.758-18.158,3.557Z" transform="translate(-429.91 -212.884)"/><path class="b" d="M456.895,277.868c-8.869,0-15.679-2.994-20.242-8.9-10.44-13.509-5.508-38.03-5.457-38.276a.471.471,0,0,1,.023-.078l5.341-13.772a.466.466,0,0,1,.34-.291L455.059,213a.376.376,0,0,1,.126-.006l18.532,1.759a.44.44,0,0,1,.3.157l3.247,3.794c.125.1,4.028,3.71,4.573,12.848.765,12.807-.1,30.052-8.587,39.475C469.16,275.564,463.659,277.868,456.895,277.868Zm-24.811-46.932c-.22,1.107-4.691,24.533,5.283,37.436,4.38,5.666,10.95,8.54,19.527,8.54,6.5,0,11.778-2.2,15.686-6.544,8.258-9.173,9.1-26.141,8.341-38.76-.52-8.74-4.261-12.192-4.3-12.227l-3.171-3.7-18.29-1.735-17.849,3.5Z" transform="translate(-429.988 -212.987)"/></g><g transform="translate(39.26 59.889)"><path class="g" d="M441.142,248.565c0-3.223-3.4-5.835-7.584-5.835a9.558,9.558,0,0,0-2.9.445,41.686,41.686,0,0,0,2.731,11.218c.059,0,.115.006.172.006C437.747,254.4,441.142,251.787,441.142,248.565Z" transform="translate(-430.198 -242.252)"/><path class="b" d="M433.641,254.981l-.12,0a.577.577,0,0,1-.474-.292,42.107,42.107,0,0,1-2.764-11.351.477.477,0,0,1,.321-.513,9.942,9.942,0,0,1,3.036-.467c4.435,0,8.042,2.832,8.042,6.314S438.075,254.981,433.641,254.981Zm-.024-.552.024.074v-.085Zm-2.377-10.8a41.039,41.039,0,0,0,2.534,10.4c3.868-.052,6.993-2.435,6.993-5.355,0-2.954-3.2-5.357-7.126-5.357A9.161,9.161,0,0,0,431.24,243.626Z" transform="translate(-430.28 -242.355)"/></g><g transform="translate(51.648 54.448)"><path class="d" d="M444.513,240.257a1.859,1.859,0,1,1-1.858-1.8A1.828,1.828,0,0,1,444.513,240.257Z" transform="translate(-440.34 -237.984)"/><path class="b" d="M442.739,242.633a2.274,2.274,0,1,1,2.316-2.273A2.3,2.3,0,0,1,442.739,242.633Zm0-3.59a1.319,1.319,0,1,0,1.4,1.317A1.361,1.361,0,0,0,442.739,239.043Z" transform="translate(-440.423 -238.087)"/></g><g transform="translate(80.958 59.889)"><path class="g" d="M472.381,242.73c-4.189,0-7.584,2.612-7.584,5.835,0,2.64,2.281,4.869,5.41,5.588a50.352,50.352,0,0,0,2.881-11.4C472.855,242.741,472.621,242.73,472.381,242.73Z" transform="translate(-464.339 -242.252)"/><path class="b" d="M470.29,254.735a.455.455,0,0,1-.1-.01c-3.45-.794-5.768-3.228-5.768-6.056,0-3.482,3.608-6.314,8.042-6.314.25,0,.495.011.738.028a.454.454,0,0,1,.326.177.5.5,0,0,1,.1.371,50.91,50.91,0,0,1-2.912,11.509A.456.456,0,0,1,470.29,254.735Zm2.174-11.424c-3.93,0-7.126,2.4-7.126,5.357,0,2.232,1.9,4.258,4.676,5.027a49.812,49.812,0,0,0,2.627-10.383Z" transform="translate(-464.422 -242.355)"/></g><g transform="translate(77.201 54.448)"><path class="d" d="M461.72,240.257a1.859,1.859,0,1,0,1.858-1.8A1.828,1.828,0,0,0,461.72,240.257Z" transform="translate(-461.263 -237.984)"/><path class="b" d="M463.66,242.633a2.274,2.274,0,1,1,2.316-2.273A2.3,2.3,0,0,1,463.66,242.633Zm0-3.59a1.319,1.319,0,1,0,1.4,1.317A1.36,1.36,0,0,0,463.66,239.043Z" transform="translate(-461.346 -238.087)"/></g><path class="b" d="M454.755,254.079c-1.2,0-2.436-.065-3.41-.134a.471.471,0,0,1-.426-.51.444.444,0,0,1,.487-.444c2.918.205,6.326.157,6.76-.246a73.729,73.729,0,0,0-.478-8.055c-.564-6.614-.611-8.04-.28-8.472.683-.887,6.788-6.182,13.692-3.7a.483.483,0,0,1,.285.608.456.456,0,0,1-.583.3c-6.319-2.268-12.08,2.619-12.68,3.394a76.178,76.178,0,0,0,.478,7.79c.526,6.175.637,8.179.313,8.69C458.525,253.907,456.7,254.079,454.755,254.079Z" transform="translate(-386.453 -185.351)"/><path class="b" d="M437.834,236.16a.453.453,0,0,1-.4-.25.489.489,0,0,1,.182-.649c8.1-4.6,13.824,0,13.879.046a.491.491,0,0,1,.076.671.444.444,0,0,1-.642.079c-.215-.175-5.325-4.246-12.873.046A.464.464,0,0,1,437.834,236.16Z" transform="translate(-389.45 -184.978)"/><path class="b" d="M450.963,255.941h-.037a16.3,16.3,0,0,1-8.82-3.555.492.492,0,0,1-.054-.673.444.444,0,0,1,.645-.056,15.71,15.71,0,0,0,8.3,3.33.473.473,0,0,1,.42.515A.466.466,0,0,1,450.963,255.941Z" transform="translate(-388.439 -179.94)"/><g transform="translate(38.768 14.875)"><path class="d" d="M430.477,241.771s-4.557-34.306,26.363-34.348,24.7,33.348,24.7,33.348.051-13.962-9.094-17.292a15.768,15.768,0,0,0-15.6,2.671,19.187,19.187,0,0,0-13.705-4.006C431.483,223.478,430.477,241.771,430.477,241.771Z" transform="translate(-429.797 -206.945)"/><path class="b" d="M430.557,242.353a.465.465,0,0,1-.454-.412c-.021-.162-2.049-16.3,6.456-26.5,4.626-5.554,11.477-8.375,20.36-8.388h.057c8.956,0,15.7,2.79,20.053,8.292,7.85,9.931,5.068,25.468,5.039,25.625a.456.456,0,0,1-.493.384.47.47,0,0,1-.414-.477c0-.136-.06-13.661-8.786-16.838a15.386,15.386,0,0,0-15.15,2.577.446.446,0,0,1-.6.01,18.922,18.922,0,0,0-13.362-3.9c-11.137,1.276-12.241,19-12.251,19.18a.467.467,0,0,1-.44.45ZM456.976,208h-.057c-8.6.011-15.221,2.722-19.667,8.055-5.444,6.53-6.426,15.617-6.462,21.067,1.186-5.639,4.316-14.431,12.374-15.354a19.507,19.507,0,0,1,13.751,3.871,16.359,16.359,0,0,1,15.76-2.512c5.964,2.17,8.146,8.556,8.942,13.047.222-5.255-.32-13.938-5.3-20.232C472.151,210.677,465.643,208,456.976,208Z" transform="translate(-429.877 -207.048)"/></g><g transform="translate(89.74 55.58)"><path class="f" d="M479.613,245.907c0,3.622-1.706,6.557-3.812,6.557s-3.813-2.935-3.813-6.557,1.707-6.557,3.813-6.557S479.613,242.286,479.613,245.907Z" transform="translate(-471.53 -238.872)"/><path class="f" d="M475.883,253.047c-2.394,0-4.27-3.09-4.27-7.036s1.876-7.035,4.27-7.035,4.271,3.09,4.271,7.035S478.278,253.047,475.883,253.047Zm0-13.115c-1.817,0-3.354,2.784-3.354,6.079s1.536,6.08,3.354,6.08,3.355-2.784,3.355-6.08S477.7,239.931,475.883,239.931Z" transform="translate(-471.613 -238.975)"/></g><g transform="translate(31.048 55.58)"><path class="f" d="M423.931,245.907c0,3.622,1.706,6.557,3.812,6.557s3.812-2.935,3.812-6.557-1.706-6.557-3.812-6.557S423.931,242.286,423.931,245.907Z" transform="translate(-423.473 -238.872)"/><path class="f" d="M427.826,253.047c-2.394,0-4.27-3.09-4.27-7.036s1.876-7.035,4.27-7.035,4.271,3.09,4.271,7.035S430.221,253.047,427.826,253.047Zm0-13.115c-1.818,0-3.354,2.784-3.354,6.079s1.535,6.08,3.354,6.08,3.355-2.784,3.355-6.08S429.644,239.931,427.826,239.931Z" transform="translate(-423.556 -238.975)"/></g><g transform="translate(0 103.603)"><path class="g" d="M440.672,277.018l22.3,6.882,24.077-6.882s42.164.328,42.164,32.63,1.682,32.3,1.682,32.3l-132.388-1.8V309.648S400.9,277.018,440.672,277.018Z" transform="translate(-398.051 -276.538)"/><path class="b" d="M530.98,342.531h-.006l-132.388-1.8a.469.469,0,0,1-.452-.478V309.751c.024-.367,2.881-33.108,42.621-33.108a.417.417,0,0,1,.131.019l22.176,6.844,23.951-6.846a.286.286,0,0,1,.125-.017c.425,0,42.619.706,42.619,33.108,0,27.979,1.271,31.513,1.5,31.92a.477.477,0,0,1,.185.386A.468.468,0,0,1,530.98,342.531Zm-131.93-2.745,131.263,1.78c-.978-3.119-1.473-13.782-1.473-31.815,0-30.888-39.824-32.113-41.647-32.15l-24.014,6.863a.414.414,0,0,1-.252,0L440.689,277.6c-38.84.034-41.617,31.867-41.64,32.189Zm0,.472h0Z" transform="translate(-398.134 -276.642)"/></g><g transform="translate(64.465 103.603)"><path class="g" d="M451.293,321.617V283.9l23.513,21.544.564-28.427" transform="translate(-450.835 -276.539)"/><path class="b" d="M451.376,322.2a.469.469,0,0,1-.458-.478V284a.48.48,0,0,1,.27-.436.446.446,0,0,1,.49.077l22.772,20.867.545-27.4a.459.459,0,0,1,.468-.468.469.469,0,0,1,.448.487l-.564,28.427a.478.478,0,0,1-.274.427.441.441,0,0,1-.486-.077l-22.753-20.849V321.72A.469.469,0,0,1,451.376,322.2Z" transform="translate(-450.918 -276.642)"/></g><path class="b" d="M454.451,309.937a1.677,1.677,0,1,1,1.6-1.675A1.641,1.641,0,0,1,454.451,309.937Zm0-2.394a.72.72,0,1,0,.689.719A.705.705,0,0,0,454.451,307.542Z" transform="translate(-386.026 -164.805)"/><path class="b" d="M454.451,302.327a1.676,1.676,0,1,1,1.6-1.674A1.64,1.64,0,0,1,454.451,302.327Zm0-2.393a.719.719,0,1,0,.689.719A.705.705,0,0,0,454.451,299.934Z" transform="translate(-386.026 -166.897)"/><path class="b" d="M454.451,294.817a1.676,1.676,0,1,1,1.6-1.675A1.641,1.641,0,0,1,454.451,294.817Zm0-2.393a.719.719,0,1,0,.689.718A.7.7,0,0,0,454.451,292.424Z" transform="translate(-386.026 -168.962)"/><g transform="translate(40.951 103.604)"><path class="g" d="M455.553,283.9l-22.3-6.882-1.212,28.427L455.553,283.9" transform="translate(-431.582 -276.539)"/><path class="b" d="M432.123,306.027a.424.424,0,0,1-.2-.048.48.48,0,0,1-.26-.451l1.212-28.428a.492.492,0,0,1,.192-.368.441.441,0,0,1,.4-.069l22.3,6.883a.467.467,0,0,1,.318.356.492.492,0,0,1-.145.462l-23.514,21.545A.452.452,0,0,1,432.123,306.027Zm1.644-28.275-1.138,26.7,22.081-20.232Z" transform="translate(-431.665 -276.642)"/></g></g></g></g></g></svg>