<svg width="71" height="87" viewBox="0 0 71 87" fill="none" xmlns="http://www.w3.org/2000/svg">
<path d="M22.4361 44.4342C22.4361 44.4342 16.7298 43.2022 17.1837 38.5333C17.1837 38.5333 9.72654 41.3865 8.68902 36.9122C7.65151 32.4379 10.8937 31.0113 10.8937 31.0113C10.8937 31.0113 6.03039 30.6223 6.22492 26.148C6.41946 21.6737 10.5047 21.4792 10.5047 21.4792C10.5047 21.4792 8.88356 18.1072 12.3203 16.6807C12.3203 16.6807 8.88356 11.4282 13.3578 7.92663C17.8321 4.48986 20.815 6.50005 20.815 6.50005C20.815 6.50005 20.2314 2.2203 23.2791 0.599178C26.3268 -1.02194 29.7636 4.23048 29.7636 4.23048C29.7636 4.23048 31.1901 1.57185 34.9511 2.02576C38.7121 2.41483 38.7121 4.68439 38.7121 4.68439C38.7121 4.68439 39.9442 1.24762 43.0567 1.83123C46.2341 2.41483 45.0021 6.69458 45.0021 6.69458C45.0021 6.69458 50.449 1.63669 54.2749 5.46253C58.1007 9.28837 54.2749 14.4111 54.2749 14.4111C54.2749 14.4111 59.1382 14.8002 59.7218 19.469C60.3054 24.1378 56.285 26.148 56.285 26.148C56.285 26.148 60.9539 30.2332 57.9062 34.059C54.8585 37.8849 51.8108 37.3013 51.8108 37.3013C51.8108 37.3013 54.0155 43.5912 47.3365 44.3694C40.7223 45.2772 22.4361 44.4342 22.4361 44.4342Z" fill="url(#paint0_linear)"/>
<path d="M38.0638 45.0833C30.6715 45.0833 22.5011 44.6942 22.3714 44.6942C22.3714 44.6942 22.3714 44.6942 22.3065 44.6942C22.2417 44.6942 16.665 43.4622 16.7947 38.9231C15.6924 39.3121 12.1259 40.3496 9.98603 39.1824C9.14305 38.7285 8.62429 38.0152 8.36491 37.0426C7.58677 33.6706 9.20789 31.9198 10.1806 31.2714C8.88367 30.8823 5.83597 29.78 6.0305 26.1487C6.22503 22.258 9.20789 21.4798 10.1806 21.2853C9.98603 20.7665 9.6618 19.5345 10.1157 18.3673C10.4399 17.5243 11.0884 16.9407 11.9962 16.4868C11.3478 15.3844 9.20789 10.7805 13.2283 7.66791C16.8596 4.87959 19.583 5.59288 20.5557 6.04679C20.4909 4.87959 20.6206 1.76704 23.2143 0.340458C26.0027 -1.15097 28.9855 2.67487 29.8285 3.77723C30.3473 3.06394 31.9684 1.37797 35.0161 1.76704C37.6099 2.02642 38.5177 3.19363 38.8419 3.90692C39.4255 2.8694 40.7224 1.11859 43.1865 1.57251C44.0295 1.7022 44.6131 2.15611 45.067 2.80456C45.7155 3.84207 45.6506 5.26866 45.5209 6.04679C47.0124 4.87959 51.357 2.02642 54.5992 5.26866C57.9711 8.64058 55.6367 12.9852 54.8586 14.2172C56.0906 14.4118 59.6571 15.4493 60.1758 19.4696C60.6946 23.49 57.8414 25.6299 56.8688 26.2135C57.7766 27.1213 61.0188 30.8175 58.2953 34.2542C55.7664 37.4316 53.3023 37.691 52.3296 37.6262C52.5242 38.4691 52.9781 40.609 51.8757 42.3598C51.0976 43.6567 49.6061 44.4349 47.5311 44.6942C45.2616 44.9536 41.7599 45.0833 38.0638 45.0833ZM22.4362 44.2403C23.1495 44.2403 40.917 45.0185 47.4014 44.2403C49.2819 43.9809 50.6437 43.2677 51.357 42.1004C52.589 40.0903 51.6812 37.4316 51.6812 37.4316C51.6812 37.3668 51.6812 37.2371 51.746 37.1723C51.8109 37.1074 51.8757 37.1074 52.0054 37.1074C52.0054 37.1074 54.9234 37.6262 57.8414 33.93C60.6946 30.2987 56.2852 26.408 56.2203 26.3432C56.1555 26.2783 56.1555 26.2135 56.1555 26.1487C56.1555 26.0838 56.2203 26.019 56.2852 25.9541C56.4148 25.8893 60.1758 23.9439 59.5922 19.5345C59.0086 15.1251 54.4047 14.6711 54.3398 14.6711C54.275 14.6711 54.1453 14.6063 54.1453 14.5414C54.0804 14.4766 54.1453 14.3469 54.1453 14.2821C54.275 14.0875 57.8414 9.35387 54.1453 5.65772C50.514 2.02642 45.2616 6.82493 45.1967 6.88977C45.1319 6.95462 45.0022 6.95462 44.9373 6.88977C44.8725 6.82493 44.8076 6.69524 44.8076 6.63039C44.8076 6.63039 45.3912 4.42567 44.5483 3.06394C44.224 2.54518 43.7053 2.22095 42.992 2.09126C40.074 1.50766 38.9068 4.7499 38.9068 4.7499C38.8419 4.87959 38.7771 4.94443 38.6474 4.87959C38.5177 4.87959 38.4529 4.7499 38.4529 4.62021C38.4529 4.55536 38.388 2.61002 34.8864 2.22095C31.3199 1.83189 29.9582 4.29599 29.9582 4.29599C29.8934 4.36083 29.8285 4.42567 29.7637 4.42567C29.6988 4.42567 29.5691 4.36083 29.5691 4.29599C29.5043 4.23114 26.1972 -0.761902 23.4089 0.729526C20.5557 2.22095 21.0745 6.30617 21.0745 6.37102C21.0745 6.43586 21.0745 6.56555 20.9448 6.63039C20.8799 6.69524 20.7503 6.69524 20.6854 6.63039C20.5557 6.56555 17.7674 4.7499 13.4876 8.05698C11.7368 9.41872 11.0235 11.2344 11.4126 13.5039C11.672 15.1899 12.515 16.4868 12.515 16.4868C12.5798 16.5516 12.5798 16.6165 12.515 16.6813C12.515 16.7462 12.4501 16.811 12.3853 16.811C11.4126 17.2001 10.829 17.7837 10.5048 18.5618C9.98603 19.9236 10.6345 21.3501 10.6345 21.3501C10.6993 21.415 10.6345 21.4798 10.6345 21.6095C10.5696 21.6744 10.5048 21.7392 10.4399 21.7392C10.3103 21.7392 6.6141 21.9986 6.41957 26.1487C6.22503 30.2987 10.6993 30.7526 10.8939 30.7526C11.0235 30.7526 11.0884 30.8175 11.0884 30.9472C11.0884 31.0769 11.0235 31.1417 10.9587 31.2065C10.829 31.2714 7.911 32.6331 8.88367 36.7832C9.0782 37.6262 9.53211 38.2746 10.2454 38.6637C12.5798 39.8957 16.9893 38.2746 17.0541 38.2746C17.1189 38.2746 17.2486 38.2746 17.3135 38.3395C17.3783 38.4043 17.4432 38.4691 17.3783 38.534C16.9893 42.8786 22.112 44.1106 22.4362 44.2403Z" fill="#392914"/>
<path d="M20.8149 24.3972C20.8149 24.3972 16.5352 23.6191 16.5352 26.2129C16.5352 28.8066 20.8149 28.677 20.8149 28.677V24.3972Z" fill="white"/>
<path d="M20.6857 28.8721C20.1021 28.8721 18.027 28.8073 16.9895 27.7698C16.5356 27.3159 16.3411 26.7971 16.3411 26.2135C16.3411 25.565 16.5356 25.1111 16.9895 24.7221C18.2216 23.6846 20.7505 24.1385 20.8802 24.1385C21.0099 24.1385 21.0747 24.2682 21.0747 24.3978V28.6776C21.0747 28.8073 20.945 28.937 20.8154 28.937C20.8154 28.8721 20.7505 28.8721 20.6857 28.8721ZM19.4536 24.5275C18.6755 24.5275 17.7676 24.6572 17.2489 25.1111C16.9247 25.3705 16.795 25.7596 16.795 26.2135C16.795 26.7323 16.9895 27.1213 17.3137 27.4455C18.2216 28.2885 19.9724 28.4182 20.556 28.4182V24.5924C20.3614 24.5275 19.9724 24.5275 19.4536 24.5275Z" fill="#392914"/>
<path d="M49.0867 24.3969C49.0867 24.3969 53.3664 23.6188 53.3664 26.2126C53.3664 28.8063 49.0867 28.6767 49.0867 28.6767V24.3969Z" fill="white"/>
<path d="M49.2819 28.8722C49.217 28.8722 49.1522 28.8722 49.1522 28.8722C49.0225 28.8722 48.8928 28.7425 48.8928 28.6128V24.333C48.8928 24.2033 48.9577 24.1385 49.0874 24.0736C49.217 24.0736 51.746 23.6197 52.978 24.6572C53.432 25.0463 53.6265 25.5002 53.6265 26.1487C53.6265 26.7971 53.432 27.3159 52.978 27.7049C51.8757 28.8073 49.8655 28.8722 49.2819 28.8722ZM49.3467 24.5924V28.4182C49.9952 28.4182 51.746 28.2886 52.589 27.4456C52.9132 27.1213 53.1077 26.7323 53.1077 26.2135C53.1077 25.7596 52.978 25.3705 52.6538 25.1112C51.746 24.333 49.9303 24.5276 49.3467 24.5924Z" fill="#392914"/>
<path d="M20.8146 26.2131V45.8611L35.8585 48.7142L47.79 44.8235V25.1756L20.8146 26.2131Z" fill="white"/>
<path d="M35.8593 48.9741L20.7504 46.1209C20.6208 46.1209 20.5559 45.9912 20.5559 45.8615V26.1487C20.5559 26.019 20.6856 25.8893 20.8153 25.8893L47.7907 24.9815C47.8555 24.9815 47.9204 24.9815 47.9852 25.0464C48.0501 25.1112 48.0501 25.176 48.0501 25.2409V44.8888C48.0501 45.0185 47.9852 45.0834 47.8555 45.1482L35.9889 49.0389C35.9241 48.9741 35.9241 48.9741 35.8593 48.9741ZM21.0747 45.667L35.9241 48.4553L47.5961 44.6295V25.4354L21.1395 26.4081L21.0747 45.667Z" fill="#392914"/>
<path d="M47.7899 38.2094C47.7899 38.2094 41.9539 43.0727 36.2476 42.8134L38.3874 27.8342L47.7899 25.1756V38.2094Z" fill="#392914"/>
<path d="M36.7022 43.0732C36.5725 43.0732 36.378 43.0732 36.2483 43.0732C36.1834 43.0732 36.1186 43.0083 36.0537 43.0083C35.9889 42.9435 35.9889 42.8786 35.9889 42.8138L38.1288 27.8347C38.1288 27.7698 38.1936 27.6401 38.3233 27.6401L47.7258 24.9815C47.7906 24.9815 47.8555 24.9815 47.9203 25.0464C47.9852 25.1112 47.9852 25.176 47.9852 25.2409V38.2747C47.9852 38.3395 47.9852 38.4044 47.9203 38.4692C47.7258 38.5989 42.2788 43.0732 36.7022 43.0732ZM36.5725 42.5544C36.6373 42.5544 36.7022 42.5544 36.767 42.5544C41.7601 42.5544 46.8828 38.6637 47.5961 38.0801V25.5003L38.6475 28.0292L36.5725 42.5544Z" fill="#392914"/>
<path d="M20.4899 18.4963C20.4899 18.4963 14.9781 43.0725 34.9503 43.0725C54.9224 43.0725 47.9192 10.5853 47.9192 10.5853L33.9776 9.35321L20.4899 18.4963Z" fill="white"/>
<path d="M34.9512 43.2677C29.7636 43.2677 25.8081 41.5817 23.1495 38.3394C17.4431 31.2065 20.1666 18.5618 20.2314 18.4321C20.2314 18.3673 20.2963 18.3024 20.3611 18.3024L33.8488 9.15933C33.9137 9.15933 33.9785 9.09448 33.9785 9.09448L47.9201 10.3265C48.0498 10.3265 48.1147 10.3914 48.1147 10.5211C48.1795 10.7156 52.1999 29.9096 45.067 38.7934C42.6677 41.7762 39.2958 43.2677 34.9512 43.2677ZM20.7502 18.6267C20.4908 19.7939 18.2861 31.4011 23.6034 38.0801C26.1323 41.1926 29.9581 42.8137 35.016 42.8137C39.1661 42.8137 42.4732 41.3872 44.7427 38.534C51.3569 30.2987 48.1147 12.7906 47.7256 10.8453L34.0434 9.61324L20.7502 18.6267Z" fill="#392914"/>
<path d="M0.259181 65.1204C0.259181 65.1204 0.453715 47.0288 19.7774 47.0936V41.8412C19.7774 41.8412 23.6681 44.824 34.3027 44.824C44.9372 44.824 48.8279 41.8412 48.8279 41.8412L49.0224 47.0936C49.0224 47.0936 69.5782 46.3155 69.5782 65.1853C69.5782 84.0551 70.486 85.8708 70.486 85.8708H0.194336L0.259181 65.1204Z" fill="url(#paint1_linear)"/>
<path d="M34.9515 32.4386C34.0437 32.4386 33.1359 32.3089 32.4226 32.2441L32.1632 32.1793C32.0335 32.1793 31.9038 32.0496 31.9687 31.9199C31.9687 31.7902 32.0984 31.6605 32.228 31.7253L32.4874 31.7902C33.6546 31.9199 35.4703 32.1793 36.6375 31.7902C37.3508 31.5308 37.0914 27.3159 36.5078 23.5549C36.5078 23.4252 36.5726 23.2955 36.7023 23.2955C36.832 23.2955 36.9617 23.3604 36.9617 23.4901C37.2859 25.4354 38.2586 31.7902 36.7672 32.3089C36.3133 32.4386 35.6648 32.4386 34.9515 32.4386Z" fill="#392914"/>
<path d="M28.1419 26.4721C28.1419 26.9909 27.7529 27.3799 27.2341 27.3799C26.7154 27.3799 26.3263 26.9909 26.3263 26.4721C26.3263 25.9533 26.7154 25.5643 27.2341 25.5643C27.688 25.5643 28.1419 25.9533 28.1419 26.4721Z" fill="#392914"/>
<path d="M27.2348 27.6401C26.9106 27.6401 26.6512 27.5104 26.3919 27.3159C26.1973 27.1213 26.0676 26.7971 26.0676 26.4729C26.0676 26.1486 26.1973 25.8893 26.3919 25.6299C26.5864 25.4354 26.9106 25.3057 27.2348 25.3057C27.8833 25.3057 28.402 25.8244 28.402 26.4729C28.402 26.7971 28.2723 27.0565 28.0778 27.3159C27.8184 27.5104 27.4942 27.6401 27.2348 27.6401ZM27.2348 25.7596C27.0403 25.7596 26.9106 25.8244 26.7809 25.9541C26.6512 26.0838 26.5864 26.2783 26.5864 26.408C26.5864 26.6026 26.6512 26.7322 26.7809 26.8619C26.9106 26.9916 27.1051 27.0565 27.2348 27.0565C27.4294 27.0565 27.5591 26.9916 27.6887 26.8619C27.8184 26.7322 27.8833 26.5377 27.8833 26.408C27.8833 26.0838 27.5591 25.7596 27.2348 25.7596Z" fill="#392914"/>
<path d="M23.9924 23.6845C23.9275 23.6845 23.8627 23.6845 23.7978 23.6197C23.6681 23.5548 23.6681 23.3603 23.7978 23.2954C23.8627 23.2306 25.6135 21.3501 29.5042 22.3228C29.6339 22.3876 29.6987 22.5173 29.6987 22.647C29.6339 22.7767 29.5042 22.8415 29.3745 22.8415C25.7432 21.9337 24.1221 23.6197 24.1221 23.6845C24.1221 23.6845 24.0572 23.6845 23.9924 23.6845Z" fill="#392914"/>
<path d="M21.1383 28.2234C20.6844 28.2234 20.2953 28.2882 19.9062 28.3531C20.1008 30.2336 20.425 32.2438 21.1383 34.0594C23.2782 34.0594 25.029 32.7625 25.029 31.1414C25.0938 29.5851 23.343 28.2234 21.1383 28.2234Z" fill="#FFF1C8"/>
<path d="M21.1393 34.3839C21.0096 34.3839 20.9447 34.3191 20.8799 34.2542C20.2314 32.5683 19.8424 30.6229 19.6478 28.4831C19.6478 28.3534 19.7127 28.2237 19.8424 28.2237C20.2314 28.094 20.6853 28.094 21.1393 28.094C23.4088 28.094 25.2893 29.5206 25.2893 31.2714C25.2893 32.1144 24.8354 32.9573 24.0573 33.541C23.2791 34.0597 22.2416 34.3839 21.1393 34.3839ZM20.1666 28.6128C20.3611 30.5581 20.7502 32.3089 21.2689 33.8652C22.2416 33.8652 23.0846 33.5409 23.733 33.087C24.3815 32.5683 24.7706 31.9198 24.7706 31.2065C24.7706 29.7151 23.1494 28.5479 21.0744 28.4831C20.815 28.4831 20.4908 28.5479 20.1666 28.6128Z" fill="#392914"/>
<path d="M41.8243 26.4721C41.8243 26.9909 42.2134 27.3799 42.7322 27.3799C43.2509 27.3799 43.64 26.9909 43.64 26.4721C43.64 25.9533 43.2509 25.5643 42.7322 25.5643C42.2134 25.5643 41.8243 25.9533 41.8243 26.4721Z" fill="#392914"/>
<path d="M42.7326 27.6401C42.4084 27.6401 42.149 27.5104 41.8897 27.3159C41.6951 27.1213 41.5654 26.7971 41.5654 26.4729H41.8248H41.5654C41.5654 26.1486 41.6951 25.8893 41.8897 25.6299C42.0842 25.4354 42.4084 25.3057 42.7326 25.3057C43.3811 25.3057 43.8998 25.8244 43.8998 26.4729C43.8998 27.1213 43.3811 27.6401 42.7326 27.6401ZM42.7326 25.7596C42.5381 25.7596 42.4084 25.8244 42.2787 25.9541C42.149 26.0838 42.0842 26.2783 42.0842 26.408C42.0842 26.6026 42.149 26.7322 42.2787 26.8619C42.4084 26.9916 42.6029 27.0565 42.7326 27.0565C43.1217 27.0565 43.3811 26.7322 43.3811 26.408C43.3811 26.0838 43.1217 25.7596 42.7326 25.7596Z" fill="#392914"/>
<path d="M45.91 23.6845C45.8452 23.6845 45.7803 23.6845 45.7155 23.6196C45.6506 23.5548 44.0944 21.8688 40.4631 22.7766C40.3334 22.8415 40.2037 22.7118 40.1388 22.5821C40.074 22.4524 40.2037 22.3227 40.3334 22.2579C44.224 21.2852 45.9749 23.1657 46.0397 23.2306C46.1045 23.3602 46.1045 23.4899 46.0397 23.5548C46.0397 23.6845 45.9749 23.6845 45.91 23.6845Z" fill="#392914"/>
<path d="M44.8718 31.2059C44.8718 32.5027 45.9742 33.5403 47.4656 33.9942C48.1141 32.1785 48.5031 30.298 48.7625 28.2878C46.6226 28.2878 44.8718 29.5847 44.8718 31.2059Z" fill="#FFF1C8"/>
<path d="M47.4661 34.1894C47.4012 34.1894 47.4012 34.1894 47.4661 34.1894C45.7153 33.7355 44.6129 32.5034 44.6129 31.2065C44.6129 29.4557 46.4934 28.0291 48.763 28.0291C48.8278 28.0291 48.8927 28.0291 48.9575 28.094C49.0224 28.1588 49.0224 28.2236 49.0224 28.2885C48.763 30.4284 48.3091 32.3089 47.7255 34.0597C47.6606 34.1245 47.5309 34.1894 47.4661 34.1894ZM48.5036 28.5479C46.6231 28.6776 45.1317 29.8448 45.1317 31.2065C45.1317 32.244 46.0395 33.2167 47.3364 33.6706C47.8552 32.1143 48.2442 30.4284 48.5036 28.5479Z" fill="#392914"/>
<path d="M36.5068 36.7827C36.5068 36.7827 41.046 36.4585 42.0835 33.3459C42.0835 33.3459 40.4624 32.7623 40.0733 33.3459C39.6842 33.9295 39.2952 34.9022 39.2952 34.9022C39.2952 34.9022 38.2576 33.7998 37.4147 34.2538C36.7014 34.7077 36.5068 36.7827 36.5068 36.7827Z" fill="#725227"/>
<path d="M36.5074 37.0425C36.4426 37.0425 36.3777 37.0425 36.3129 36.9776C36.248 36.9128 36.248 36.8479 36.248 36.7831C36.3129 36.394 36.5074 34.5135 37.2856 34.1245C37.9989 33.7354 38.777 34.2541 39.1661 34.5784C39.2957 34.2541 39.62 33.6705 39.8145 33.2815C40.2684 32.5682 41.7598 33.0869 42.0841 33.1518C42.2138 33.2166 42.2786 33.3463 42.2138 33.476C41.2411 36.7182 36.702 37.0425 36.5074 37.0425ZM37.8043 34.4487C37.6746 34.4487 37.6098 34.4487 37.4801 34.5135C37.1559 34.7081 36.8316 35.7456 36.702 36.5237C37.6746 36.394 40.7872 35.8104 41.695 33.5409C41.1114 33.3463 40.3981 33.2815 40.2036 33.5409C39.8145 34.1245 39.4254 35.0971 39.4254 35.0971C39.4254 35.162 39.2957 35.2268 39.2309 35.2268C39.1661 35.2268 39.0364 35.2268 39.0364 35.162C38.8418 34.9026 38.3231 34.4487 37.8043 34.4487Z" fill="#392914"/>
<path d="M18.6752 12.7258C18.6752 12.7258 14.8494 19.2103 20.2315 20.0532C25.6136 20.8962 26.7808 16.4219 26.7808 16.4219C26.7808 16.4219 28.0129 22.8416 32.6169 21.6095C37.2857 20.3775 35.9888 13.3094 35.9888 13.3094C35.9888 13.3094 36.7669 16.7462 40.8521 16.8759C44.9374 17.0055 45.9749 14.5414 45.9749 14.5414C45.9749 14.5414 45.3264 21.2204 52.1351 21.2853L51.2921 9.41871L29.0504 7.99213L18.6752 12.7258Z" fill="url(#paint2_linear)"/>
<path d="M31.4499 21.9337C30.7366 21.9337 30.0233 21.7392 29.3748 21.3501C27.7537 20.3126 26.9756 18.3024 26.6514 17.1352C26.0678 18.4321 24.3169 20.8962 20.1669 20.2478C18.8051 20.0532 17.8325 19.4696 17.3786 18.497C16.2762 16.2274 18.3512 12.7258 18.4161 12.5961C18.4809 12.4664 18.6106 12.4664 18.7403 12.5312C18.87 12.5961 18.87 12.7258 18.8051 12.8555C18.8051 12.9203 16.795 16.2922 17.7676 18.3024C18.1567 19.0806 18.9348 19.5993 20.1669 19.7938C25.2248 20.572 26.392 16.4868 26.392 16.2922C26.392 16.1625 26.5217 16.0977 26.6514 16.0977C26.781 16.0977 26.8459 16.1625 26.9107 16.2922C26.9107 16.3571 27.5592 19.5993 29.6342 20.8962C30.4772 21.415 31.4499 21.5447 32.4874 21.2853C36.832 20.1181 35.6648 13.3094 35.6648 13.2445C35.6648 13.1148 35.7296 12.9852 35.8593 12.9852C35.989 12.9852 36.1187 13.05 36.1187 13.1797C36.1187 13.3094 36.8968 16.4219 40.7875 16.5516C44.6782 16.6813 45.6509 14.3469 45.6509 14.3469C45.7157 14.2172 45.8454 14.1524 45.9102 14.2172C46.0399 14.2172 46.1048 14.3469 46.1048 14.4766C46.1048 14.4766 45.8454 17.3298 47.5314 19.2102C48.5689 20.3126 50.0603 20.9611 52.0056 20.9611C52.1353 20.9611 52.265 21.0907 52.265 21.2204C52.265 21.3501 52.1353 21.4798 52.0056 21.4798C49.8658 21.4798 48.2446 20.8314 47.1423 19.5993C45.9102 18.1727 45.586 16.4219 45.586 15.3196C44.9376 16.0977 43.511 17.2001 40.7227 17.0704C38.2586 17.0055 36.8968 15.7086 36.2484 14.6711C36.3781 16.8758 36.0538 20.8962 32.5522 21.804C32.228 21.9337 31.8389 21.9337 31.4499 21.9337Z" fill="#392914"/>
<path d="M34.9512 77.7649C34.8215 77.7649 34.7567 77.7 34.6918 77.5703C34.3027 75.2359 33.6543 46.1206 33.6543 44.8886C33.6543 44.7589 33.784 44.6292 33.9137 44.6292C34.0434 44.6292 34.1731 44.7589 34.1731 44.8886C34.1731 45.2128 34.8215 75.2359 35.2106 77.5055C35.2106 77.5703 35.0809 77.7 34.9512 77.7649Z" fill="#392914"/>
<path d="M30.2823 78.2191C30.1526 78.2191 30.0878 78.1543 30.023 78.0246C29.3097 75.755 30.023 46.121 30.023 44.8241C30.023 44.6944 30.1526 44.6295 30.2823 44.5647C30.412 44.5647 30.5417 44.6944 30.5417 44.8241C30.5417 45.1483 29.8284 75.6253 30.5417 77.8949C30.6066 78.0246 30.4769 78.1543 30.3472 78.2191C30.3472 78.2191 30.3472 78.2191 30.2823 78.2191Z" fill="#392914"/>
<path d="M25.7432 76.9871C25.6135 76.9871 25.5487 76.9222 25.4838 76.7925C24.9002 71.9292 26.4565 45.9264 26.5214 44.8241C26.5214 44.6944 26.651 44.5647 26.7807 44.5647C26.9104 44.5647 27.0401 44.6944 27.0401 44.8241C27.0401 45.0835 25.419 71.8643 26.0026 76.6628C26.0026 76.8574 25.8729 76.9222 25.7432 76.9871Z" fill="#392914"/>
<path d="M22.7604 76.9868C22.6307 76.9868 22.5659 76.9219 22.501 76.7922C21.4635 71.475 23.6682 44.7589 23.7331 43.5917C23.7331 43.462 23.8628 43.3323 23.9925 43.3972C24.1222 43.3972 24.2518 43.5269 24.187 43.6566C24.187 43.916 21.9823 71.4101 22.955 76.7274C23.0198 76.7922 22.955 76.9219 22.7604 76.9868C22.8253 76.9868 22.7604 76.9868 22.7604 76.9868Z" fill="#392914"/>
<path d="M19.1938 77.7001C19.0642 77.7001 18.9345 77.6353 18.9345 77.5056C18.4157 72.5126 21.2689 43.9809 21.3337 42.7488C21.3337 42.6191 21.4634 42.4895 21.5931 42.5543C21.7228 42.5543 21.8525 42.684 21.7876 42.8137C21.7876 43.1379 18.8696 72.5126 19.3884 77.4408C19.4532 77.5704 19.3884 77.7001 19.1938 77.7001C19.2587 77.7001 19.2587 77.7001 19.1938 77.7001Z" fill="#392914"/>
<path d="M15.4329 78.8672C15.3032 78.8672 15.1735 78.8023 15.1735 78.6726C14.5899 71.9936 18.2212 48.0659 18.4158 47.0933C18.4158 46.9636 18.5455 46.8987 18.6751 46.8987C18.8048 46.8987 18.8697 47.0284 18.8697 47.1581C18.8048 47.4175 15.0438 72.0585 15.6923 78.6078C15.6923 78.7375 15.6274 78.8672 15.4329 78.8672C15.4977 78.8672 15.4977 78.8672 15.4329 78.8672Z" fill="#392914"/>
<path d="M12.4502 77.7C12.3205 77.7 12.2557 77.6352 12.1909 77.5055C11.4127 70.632 15.044 48.3254 15.1737 47.4176C15.1737 47.2879 15.3034 47.223 15.4331 47.223C15.5628 47.223 15.6276 47.3527 15.6276 47.4824C15.5628 47.7418 11.8666 70.632 12.6448 77.4407C12.7096 77.5703 12.5799 77.7 12.4502 77.7Z" fill="#392914"/>
<path d="M9.46699 78.154C9.3373 78.154 9.20761 78.0243 9.20761 77.8947C8.62401 65.639 11.9959 48.2606 12.0608 48.0661C12.0608 47.9364 12.1905 47.8716 12.3202 47.8716C12.4498 47.8716 12.5147 48.0012 12.5147 48.1309C12.4498 48.3255 9.07792 65.639 9.66152 77.8298C9.72637 78.0892 9.59668 78.154 9.46699 78.154Z" fill="#392914"/>
<path d="M6.22481 77.7001C6.09512 77.7001 5.96543 77.5705 5.96543 77.4408C5.64121 66.5469 8.68891 49.7521 8.68891 49.6224C8.68891 49.4927 8.8186 49.4279 8.94829 49.4279C9.07798 49.4279 9.14282 49.5575 9.14282 49.6872C9.14282 49.8818 6.09512 66.5469 6.41935 77.4408C6.48419 77.6353 6.3545 77.7001 6.22481 77.7001Z" fill="#392914"/>
<path d="M2.65842 78.8673C2.52873 78.8673 2.39904 78.7376 2.39904 78.6079C1.81544 68.8812 4.60376 53.1239 4.60376 52.9294C4.60376 52.7997 4.73345 52.7349 4.86314 52.7349C4.99283 52.7349 5.05767 52.8646 5.05767 52.9942C5.05767 53.1239 2.26935 68.8163 2.85295 78.5431C2.9178 78.7376 2.85295 78.8673 2.65842 78.8673Z" fill="#392914"/>
<path d="M38.712 78.2188C38.5823 78.2188 38.4526 78.0891 38.4526 77.9594C38.8417 68.1678 36.2479 45.0831 36.2479 44.8886C36.2479 44.7589 36.3128 44.6292 36.4425 44.6292C36.5721 44.6292 36.7018 44.6941 36.7018 44.8237C36.7018 45.0831 39.2956 68.103 38.9066 77.9594C38.9066 78.0891 38.8417 78.2188 38.712 78.2188Z" fill="#392914"/>
<path d="M42.0192 78.2188C41.8247 78.2188 41.7598 78.0891 41.7598 77.9594C42.6676 71.1507 39.8145 45.148 39.7496 44.8886C39.7496 44.7589 39.8145 44.6292 39.9442 44.6292C40.0739 44.6292 40.2035 44.6941 40.2035 44.8237C40.2035 45.0831 43.0567 71.1507 42.2137 78.0242C42.2786 78.0891 42.1489 78.2188 42.0192 78.2188Z" fill="#392914"/>
<path d="M45.5208 78.219C45.456 78.219 45.456 78.219 45.5208 78.219C45.3912 78.219 45.2615 78.0894 45.2615 77.9597C46.3638 67.9736 42.538 44.3701 42.4731 44.1756C42.4731 44.0459 42.538 43.9162 42.6677 43.9162C42.7974 43.9162 42.9271 43.981 42.9271 44.1107C42.9919 44.3701 46.8177 67.9736 45.7154 78.0245C45.7154 78.0894 45.6505 78.219 45.5208 78.219Z" fill="#392914"/>
<path d="M48.7631 78.2187C48.7631 78.2187 48.6983 78.2187 48.7631 78.2187C48.5686 78.2187 48.5038 78.0891 48.5038 77.9594C49.8006 67.5842 45.5209 43.5917 45.4561 43.3971C45.4561 43.2674 45.5209 43.1378 45.6506 43.1378C45.7803 43.1378 45.91 43.2026 45.91 43.3323C45.9748 43.5917 50.2546 67.5842 48.9577 78.0891C48.9577 78.0891 48.8928 78.2187 48.7631 78.2187Z" fill="#392914"/>
<path d="M52.6536 78.2188C52.5239 78.2188 52.3942 78.0891 52.3942 77.9594C53.0427 70.8913 47.6605 42.7487 47.5957 42.4894C47.5957 42.3597 47.6605 42.23 47.7902 42.23C47.9199 42.23 48.0496 42.2948 48.0496 42.4245C48.2442 43.5917 53.4966 70.8913 52.8481 78.0243C52.913 78.0891 52.7833 78.2188 52.6536 78.2188Z" fill="#392914"/>
<path d="M55.8309 78.2188C55.7013 78.2188 55.5716 78.0891 55.5716 77.9594C56.3497 68.0382 51.8106 47.5472 51.7457 47.3527C51.7457 47.223 51.8106 47.0933 51.9403 47.0933C52.07 47.0933 52.1996 47.1582 52.1996 47.2879C52.2645 47.4824 56.8685 68.103 56.0255 78.0891C56.0903 78.0891 55.9606 78.2188 55.8309 78.2188Z" fill="#392914"/>
<path d="M59.0733 78.2189C58.8788 78.2189 58.814 78.0892 58.814 77.9595C60.1109 71.6047 55.7014 48.2606 55.7014 48.0661C55.7014 47.9364 55.7663 47.8067 55.896 47.8067C56.0256 47.8067 56.1553 47.8715 56.1553 48.0012C56.3499 48.9739 60.6296 71.6696 59.2679 78.0892C59.3327 78.154 59.203 78.2189 59.0733 78.2189Z" fill="#392914"/>
<path d="M62.3157 77.765C62.1212 77.7002 62.0563 77.5705 62.0563 77.4408C63.7423 70.7618 58.2953 49.0388 58.2305 48.7795C58.1657 48.6498 58.2954 48.5201 58.425 48.4552C58.5547 48.4552 58.6844 48.5201 58.7493 48.6498C58.9438 49.5576 64.2611 70.697 62.5751 77.5057C62.5751 77.7002 62.4454 77.765 62.3157 77.765Z" fill="#392914"/>
<path d="M65.8174 77.7649C65.7526 77.7649 65.7526 77.7649 65.8174 77.7649C65.6229 77.7649 65.558 77.6352 65.558 77.5055C66.4659 71.475 61.408 50.4653 61.3431 50.2707C61.3431 50.141 61.408 50.0113 61.5377 49.9465C61.6674 49.9465 61.797 50.0113 61.8619 50.141C62.0564 50.984 66.9846 71.4749 66.0768 77.5703C66.012 77.6352 65.8823 77.7649 65.8174 77.7649Z" fill="#392914"/>
<path d="M69.1244 77.7649C68.9947 77.7649 68.865 77.6352 68.865 77.5055C69.1892 73.0961 64.7798 53.0591 64.7798 52.8645C64.7798 52.7349 64.8446 52.6052 64.9743 52.6052C65.104 52.6052 65.2337 52.67 65.2337 52.7997C65.4282 53.6427 69.6431 73.0961 69.3838 77.6352C69.3838 77.6352 69.2541 77.7649 69.1244 77.7649Z" fill="#392914"/>
<path d="M70.551 86.1301H0.259379C0.194534 86.1301 0.129689 86.1301 0.0648447 86.0653C-5.15408e-09 86.0004 0 85.9356 0 85.8707V65.1852C0 64.9907 0.453913 47.0287 19.5183 46.899V41.8411C19.5183 41.7763 19.5831 41.6466 19.6479 41.6466C19.7128 41.5818 19.8425 41.6466 19.9073 41.6466C19.9722 41.6466 23.9277 44.6295 34.3029 44.6295C44.678 44.6295 48.6335 41.7115 48.6984 41.7115C48.7632 41.6466 48.8929 41.6466 48.9578 41.7115C49.0226 41.7763 49.0874 41.8411 49.0874 41.906L49.282 46.9639C50.8383 46.9639 59.3978 47.1584 64.9744 52.4757C68.2166 55.5882 69.8378 59.868 69.8378 65.2501C69.8378 83.5363 70.6807 85.741 70.7456 85.8707C70.7456 85.9356 70.7456 86.0652 70.7456 86.1301C70.6807 86.0652 70.6159 86.1301 70.551 86.1301ZM0.453913 85.6113H70.2268C69.9674 84.509 69.3838 80.3589 69.3838 65.1852C69.3838 59.9977 67.7627 55.7828 64.6502 52.7351C58.7493 47.0287 49.2171 47.353 49.0874 47.353C49.0226 47.353 48.9578 47.353 48.8929 47.2881C48.8281 47.2233 48.8281 47.1584 48.8281 47.0936L48.6335 42.2302C47.4015 42.9435 43.2514 45.0185 34.3029 45.0185C25.4191 45.0185 21.2042 42.9435 19.9722 42.2302V47.0287C19.9722 47.0936 19.9722 47.1584 19.9073 47.2233C19.8425 47.2881 19.7776 47.2881 19.7128 47.2881C11.8017 47.2881 6.16025 50.271 2.91801 56.1718C0.518758 60.5813 0.453913 64.9907 0.453913 65.0556V85.6113Z" fill="#392914"/>
<defs>
<linearGradient id="paint0_linear" x1="6.21924" y1="22.5395" x2="59.7797" y2="22.5395" gradientUnits="userSpaceOnUse">
<stop stop-color="#FFECD2"/>
<stop offset="1" stop-color="#FCB69F"/>
</linearGradient>
<linearGradient id="paint1_linear" x1="0.194336" y1="63.856" x2="70.486" y2="63.856" gradientUnits="userSpaceOnUse">
<stop stop-color="#20E2D7"/>
<stop offset="1" stop-color="#F9FEA5"/>
</linearGradient>
<linearGradient id="paint2_linear" x1="17.3567" y1="14.8794" x2="52.1351" y2="14.8794" gradientUnits="userSpaceOnUse">
<stop stop-color="#FFECD2"/>
<stop offset="1" stop-color="#FCB69F"/>
</linearGradient>
</defs>
</svg>
