<svg width="75" height="91" viewBox="0 0 75 91" fill="none" xmlns="http://www.w3.org/2000/svg">
<g opacity="0.9">
<path d="M50.3982 62.0353V43.6522V34.4261L21.7562 40.2785V62.0353L38.487 71.7433L50.3982 62.0353Z" fill="white"/>
<path d="M38.4876 71.9505C38.4188 71.9505 38.4188 71.9505 38.3499 71.8816L21.6191 62.1737C21.5503 62.1048 21.4814 62.036 21.4814 61.9671V40.2102C21.4814 40.0725 21.5503 40.0037 21.688 39.9348L50.33 34.1514C50.3988 34.1514 50.4677 34.1514 50.5365 34.2202C50.6054 34.2891 50.6054 34.3579 50.6054 34.4268V62.036C50.6054 62.1048 50.5365 62.1737 50.5365 62.2425L38.6942 71.9505C38.6253 71.9505 38.5565 71.9505 38.4876 71.9505ZM22.0323 61.8294L38.4876 71.3997L50.1234 61.8983V34.771L22.0323 40.4856V61.8294Z" fill="#4A4E53" fill-opacity="0.7"/>
<path d="M23.8217 39.4519L50.3981 28.8489V43.7207C50.3981 43.7207 48.3326 51.1566 40.4836 51.432C32.5657 51.7074 23.8217 39.4519 23.8217 39.4519Z" fill="#392914"/>
<path d="M40.1399 51.6393C32.2909 51.6393 23.96 40.0724 23.6157 39.5904C23.5469 39.5216 23.5469 39.4527 23.5469 39.3839C23.5469 39.315 23.6157 39.2462 23.6846 39.2462L50.261 28.5743C50.3299 28.5743 50.3987 28.5743 50.4676 28.5743C50.5364 28.6431 50.6053 28.712 50.6053 28.7808V43.6526V43.7215C50.6053 43.7903 48.402 51.3639 40.4153 51.6393C40.3465 51.6393 40.2776 51.6393 40.1399 51.6393ZM24.2354 39.5216C25.5436 41.3117 33.4614 51.3639 40.4153 51.0885C47.7135 50.8131 49.9168 44.0657 50.1233 43.5838V29.1939L24.2354 39.5216Z" fill="#4A4E53" fill-opacity="0.7"/>
<path d="M22.1005 24.305C22.1005 24.305 18.3138 23.9608 18.1761 26.0263C18.1072 28.023 22.1005 28.2295 22.1005 28.2295V24.305Z" fill="white"/>
<path d="M22.1011 28.4366C21.8946 28.4366 17.8324 28.2301 17.9701 25.958C17.9701 25.4761 18.1766 25.1318 18.5209 24.7875C19.6225 23.8236 22.0323 24.0302 22.17 24.0302C22.3077 24.0302 22.3766 24.1679 22.3766 24.3056V28.1612C22.3766 28.2301 22.3766 28.2989 22.3077 28.3678C22.2389 28.4366 22.17 28.4366 22.1011 28.4366ZM21.5503 24.581C20.793 24.581 19.4848 24.6498 18.8652 25.2695C18.5898 25.4761 18.5209 25.7515 18.4521 26.0957C18.3832 27.5416 20.9995 27.8858 21.8257 28.0235V24.6498C21.7569 24.581 21.688 24.581 21.5503 24.581Z" fill="#4A4E53" fill-opacity="0.7"/>
<path d="M49.985 24.3737C49.985 24.3737 53.7718 24.0295 53.9095 26.095C53.9783 28.0917 49.985 28.2982 49.985 28.2982V24.3737Z" fill="white"/>
<path d="M49.9857 28.5055C49.9169 28.5055 49.848 28.5055 49.7792 28.4367C49.7103 28.3678 49.7103 28.299 49.7103 28.2301V24.3745C49.7103 24.2368 49.7792 24.0991 49.9169 24.0991C49.9857 24.0991 52.4644 23.8925 53.566 24.8565C53.9102 25.2007 54.1168 25.545 54.1168 26.0269C54.2545 28.299 50.1923 28.5055 49.9857 28.5055ZM50.2611 24.581V27.9547C51.0873 27.8859 53.7037 27.5416 53.6348 26.0958C53.6348 25.7515 53.4971 25.545 53.2217 25.2696C52.4644 24.581 50.8808 24.581 50.2611 24.581Z" fill="#4A4E53" fill-opacity="0.7"/>
<path d="M24.7168 15.6984L21.7562 23.4097V34.9078L37.11 43.6519L47.2999 40.2782L50.3982 31.8784V18.3147L43.9262 11.9805L24.7168 15.6984Z" fill="white"/>
<path d="M37.1106 43.9281C37.0417 43.9281 37.0417 43.9281 36.9729 43.9281L21.6191 35.1152C21.5503 35.0463 21.4814 34.9775 21.4814 34.9086V23.4105V23.3417L24.3732 15.5615C24.3732 15.4927 24.5109 15.4238 24.5797 15.4238L43.7891 11.7059C43.858 11.7059 43.9268 11.7059 43.9957 11.7747L50.4677 18.109C50.5365 18.1779 50.5365 18.2467 50.5365 18.3156V31.8792V31.948L47.5759 40.3478C47.5759 40.4167 47.5071 40.4855 47.4382 40.4855L37.1794 43.8592C37.1794 43.9281 37.1794 43.9281 37.1106 43.9281ZM22.0323 34.7709L37.1794 43.3773L47.1628 40.0724L50.1923 31.8103V18.3844L43.9268 12.2567L24.9928 15.9058L22.17 23.4794L22.0323 34.7709Z" fill="#4A4E53" fill-opacity="0.7"/>
<path d="M47.8507 29.6753C45.5786 29.6753 43.7196 30.7081 43.7196 32.0162C43.7196 33.3244 45.5786 34.3572 47.8507 34.3572C48.4703 34.3572 49.0211 34.2883 49.5031 34.1506L50.3981 31.7408V30.0884C49.7096 29.8818 48.8146 29.6753 47.8507 29.6753Z" fill="#FFF1C8"/>
<path d="M47.8514 34.702C46.6809 34.702 45.5793 34.4266 44.7531 33.9447C43.8581 33.4627 43.3761 32.7742 43.3761 32.0168C43.3761 30.571 45.3039 29.4005 47.7826 29.4005C48.7465 29.4005 49.6415 29.6071 50.3989 29.9513C50.4677 30.0202 50.5366 30.089 50.5366 30.1579V31.8103V31.8791L49.6415 34.2889C49.6415 34.3578 49.5727 34.4266 49.435 34.4266C49.0219 34.6332 48.4711 34.702 47.8514 34.702ZM47.8514 29.9513C45.717 29.9513 43.9958 30.9152 43.9958 32.0857C43.9958 32.6365 44.4089 33.1185 45.0974 33.5316C45.8547 33.9447 46.8186 34.2201 47.9203 34.2201C48.4022 34.2201 48.8842 34.1512 49.3661 34.0824L50.1923 31.8791V30.4333C49.435 30.089 48.6776 29.9513 47.8514 29.9513Z" fill="#4A4E53" fill-opacity="0.7"/>
<path d="M23.8218 29.6751C23.0644 29.6751 22.3759 29.8128 21.7562 29.9505V34.0816C22.3759 34.2881 23.0644 34.4258 23.8218 34.4258C26.0938 34.4258 27.9528 33.3931 27.9528 32.0849C27.9528 30.7767 26.0938 29.6751 23.8218 29.6751Z" fill="#FFF1C8"/>
<path d="M23.8224 34.702C23.065 34.702 22.3077 34.5643 21.688 34.3577C21.5503 34.2889 21.4814 34.22 21.4814 34.0823V29.9513C21.4814 29.8136 21.5503 29.7447 21.688 29.6759C22.3077 29.4693 23.065 29.3316 23.8224 29.3316C26.301 29.3316 28.2288 30.5021 28.2288 31.9479C28.2288 33.5315 26.301 34.702 23.8224 34.702ZM22.0323 33.9446C22.5831 34.0823 23.2027 34.22 23.8224 34.22C25.9567 34.22 27.678 33.2561 27.678 32.0856C27.678 30.9152 25.8879 29.9513 23.8224 29.9513C23.2027 29.9513 22.5831 30.0201 22.0323 30.2267V33.9446Z" fill="#4A4E53" fill-opacity="0.7"/>
<path d="M22.9269 13.5645C22.9269 13.5645 21.8253 19.8987 21.7565 25.8199C21.7565 25.8199 23.0646 17.5578 28.2285 16.5939C33.3923 15.63 43.5822 16.2496 43.5822 16.2496C43.5822 16.2496 50.0542 19.8299 50.3984 26.9215V18.1775C50.3984 18.1775 50.7427 12.0497 46.5428 10.3973C42.274 8.8826 22.9269 13.5645 22.9269 13.5645Z" fill="#392914"/>
<path d="M50.3989 27.2663C50.2612 27.2663 50.1235 27.1285 50.1235 26.9908C49.8481 20.45 44.1335 16.9386 43.5138 16.5944C42.6876 16.5255 33.1862 15.9747 28.2978 16.9386C23.3405 17.8337 22.0324 25.8204 22.0324 25.8892C22.0324 26.0269 21.8947 26.0958 21.757 26.0958C21.6193 26.0958 21.5504 25.9581 21.5504 25.8204C21.5504 19.8992 22.652 13.5649 22.7209 13.4961C22.7209 13.4272 22.7897 13.2895 22.9274 13.2895C23.7536 13.083 42.4811 8.60767 46.681 10.2601C51.0186 11.9125 50.7432 18.0402 50.7432 18.2468V26.9908C50.6055 27.1285 50.5366 27.2663 50.3989 27.2663ZM36.4222 15.9059C40.209 15.9059 43.5827 16.1124 43.5827 16.1124C43.6515 16.1124 43.6515 16.1124 43.7204 16.1124C43.7892 16.1124 48.54 18.7976 50.1235 24.0303V18.3156C50.1235 18.2468 50.3989 12.3256 46.4056 10.8109C42.5499 9.29618 24.993 13.4272 23.134 13.8403C22.9963 14.7354 22.3078 19.0041 22.1012 23.5483C22.9274 21.0008 24.6487 17.1452 28.2289 16.4567C30.4322 15.9747 33.5305 15.9059 36.4222 15.9059Z" fill="#4A4E53" fill-opacity="0.7"/>
<path d="M21.7561 31.1209C21.7561 31.1209 24.7855 37.1797 36.0771 37.042C47.3686 36.9043 50.3981 29.675 50.3981 29.675C50.3981 29.675 51.1554 51.7761 37.1098 51.845C23.1331 51.9138 21.9627 46.3369 21.825 42.137C21.6873 38.0059 21.7561 31.1209 21.7561 31.1209Z" fill="#725227"/>
<path d="M36.7665 52.1213C21.9635 52.1213 21.6881 45.4427 21.5504 42.2067C21.4127 38.0757 21.4816 31.1218 21.4816 31.0529C21.4816 30.9152 21.5504 30.8464 21.6881 30.7775C21.8258 30.7775 21.8947 30.7775 21.9635 30.9152C21.9635 30.9841 24.993 36.6987 35.7337 36.6987C35.8025 36.6987 35.9402 36.6987 36.0091 36.6987C46.9564 36.6298 50.0547 29.607 50.0547 29.5382C50.1235 29.4005 50.1924 29.3316 50.3301 29.4005C50.4678 29.4005 50.5366 29.5382 50.5366 29.6759C50.5366 30.2267 50.8809 42.6198 44.9597 48.7476C42.8253 50.9508 40.1402 52.0524 37.0419 52.1213C36.973 52.1213 36.9042 52.1213 36.7665 52.1213ZM22.0324 31.948C22.0324 33.9446 21.9635 38.9019 22.1012 42.2067C22.3078 47.164 24.2356 51.777 37.1107 51.6393C40.1402 51.6393 42.6876 50.5377 44.6843 48.4722C49.5039 43.4461 50.0547 33.8069 50.1235 30.7087C48.8842 32.7053 45.0286 37.2495 36.078 37.3183C26.9896 37.3183 23.2717 33.6004 22.0324 31.948Z" fill="#4A4E53" fill-opacity="0.7"/>
<path d="M36.9042 34.1512H35.3207C34.8387 34.1512 34.4256 34.0135 34.1502 33.6692C33.5305 32.9807 33.5994 31.8791 33.5994 31.8103V22.8597C33.5994 22.5843 33.3928 22.1711 32.842 21.8269C32.3601 21.5515 31.5339 21.2072 30.088 21.2072C27.5405 21.2072 26.6455 22.3089 26.6455 22.3089C26.5766 22.4466 26.3701 22.4466 26.3012 22.3089C26.1635 22.24 26.1635 22.0334 26.2324 21.9646C26.3012 21.8957 27.334 20.6564 30.088 20.6564C31.6716 20.6564 32.6355 21.0695 33.1174 21.4138C33.7371 21.8269 34.0814 22.3777 34.0814 22.8597V31.8103C34.0814 31.8103 34.0125 32.7742 34.4945 33.2561C34.701 33.4627 34.9764 33.6004 35.3207 33.6004H36.9042C37.0419 33.6004 37.1796 33.7381 37.1796 33.8758C37.1796 34.0135 37.0419 34.1512 36.9042 34.1512Z" fill="#4A4E53" fill-opacity="0.7"/>
<path d="M38.2811 24.4433C38.1434 24.4433 38.0057 24.3056 38.0057 24.1679C38.0057 23.6171 38.35 23.0663 38.9696 22.722C39.4516 22.3778 40.4155 21.9647 41.9991 21.9647C44.7531 21.9647 45.7859 23.204 45.8547 23.2728C45.9236 23.4105 45.9236 23.5482 45.7859 23.6171C45.6482 23.6859 45.5105 23.6859 45.4416 23.5482C45.4416 23.5482 44.4777 22.4466 41.9991 22.4466C40.5532 22.4466 39.727 22.7909 39.2451 23.0663C38.6942 23.4105 38.4877 23.8236 38.4877 24.099C38.5565 24.3744 38.4877 24.4433 38.2811 24.4433Z" fill="#4A4E53" fill-opacity="0.7"/>
<path d="M29.4675 27.2651C29.4675 27.8159 29.0544 28.229 28.5036 28.229C27.9528 28.229 27.5397 27.8159 27.5397 27.2651C27.5397 26.7143 27.9528 26.3012 28.5036 26.3012C29.0544 26.3012 29.4675 26.7143 29.4675 27.2651Z" fill="#392914"/>
<path d="M28.5045 28.4365C28.1602 28.4365 27.8848 28.2988 27.6094 28.0923C27.4028 27.8857 27.2651 27.5415 27.2651 27.1972C27.2651 26.8529 27.4028 26.5775 27.6094 26.3021C27.8159 26.0956 28.1602 25.9579 28.5045 25.9579C28.8487 25.9579 29.1241 26.0956 29.3995 26.3021C29.6061 26.5087 29.7438 26.8529 29.7438 27.1972C29.7438 27.5415 29.6061 27.8169 29.3995 28.0923C29.1241 28.3677 28.8487 28.4365 28.5045 28.4365ZM28.5045 26.5087C28.2979 26.5087 28.1602 26.5775 28.0225 26.7152C27.8848 26.8529 27.8159 27.0595 27.8159 27.1972C27.8159 27.6103 28.1602 27.8857 28.5045 27.8857C28.711 27.8857 28.8487 27.8169 28.9864 27.6792C29.1241 27.5415 29.193 27.3349 29.193 27.1972C29.193 26.9907 29.1241 26.8529 28.9864 26.7152C28.9176 26.5775 28.711 26.5087 28.5045 26.5087Z" fill="#4A4E53" fill-opacity="0.7"/>
<path d="M43.0312 27.2655C43.0312 27.8163 42.6181 28.2294 42.0673 28.2294C41.5165 28.2294 41.1034 27.8163 41.1034 27.2655C41.1034 26.7147 41.5165 26.3016 42.0673 26.3016C42.6181 26.3016 43.0312 26.7147 43.0312 27.2655Z" fill="#392914"/>
<path d="M42.0679 28.5054C41.7237 28.5054 41.4483 28.3677 41.1729 28.1612C40.9663 27.9546 40.8286 27.6104 40.8286 27.2661C40.8286 26.5776 41.3794 26.0268 42.0679 26.0268C42.7564 26.0268 43.3072 26.5776 43.3072 27.2661C43.3072 27.6104 43.1695 27.8858 42.963 28.1612C42.7564 28.3677 42.4122 28.5054 42.0679 28.5054ZM42.0679 26.5088C41.6548 26.5088 41.3794 26.853 41.3794 27.1973C41.3794 27.4038 41.4483 27.5415 41.586 27.6792C41.7237 27.8169 41.9302 27.8858 42.0679 27.8858C42.2745 27.8858 42.4122 27.8169 42.5499 27.6792C42.6876 27.5415 42.7564 27.335 42.7564 27.1973C42.8253 26.853 42.481 26.5088 42.0679 26.5088Z" fill="#4A4E53" fill-opacity="0.7"/>
<path d="M41.104 40.0724C40.9663 40.0724 40.8975 40.0036 40.8286 39.8659C40.8286 39.7282 40.8975 39.5905 41.0352 39.5905C41.0352 39.5905 44.0646 39.1774 45.5105 37.525C45.5793 37.3873 45.7859 37.3873 45.8547 37.525C45.9924 37.5938 45.9924 37.8004 45.8547 37.8692C44.4089 39.5905 41.2417 40.0724 41.104 40.0724Z" fill="#4A4E53" fill-opacity="0.7"/>
<path d="M37.1102 6.95429C37.1102 6.95429 41.1035 5.23302 39.038 1.79048C36.7659 -1.99632 25.8875 1.85933 23.2023 5.85268C20.5171 9.84603 18.1762 18.4524 36.0085 18.5901C53.9098 18.7278 51.9819 9.15752 48.6082 7.16084C43.7198 4.26911 37.1102 6.95429 37.1102 6.95429Z" fill="#725227"/>
<path d="M36.4221 18.8663C36.2844 18.8663 36.2156 18.8663 36.0779 18.8663C28.2977 18.7975 23.4782 17.1451 21.8257 13.9779C20.1045 10.6731 22.3077 6.88629 23.0651 5.78468C25.0617 2.82409 31.4649 -0.0676454 35.6648 0.00120547C37.4549 0.0700563 38.6942 0.620864 39.3139 1.65363C39.9335 2.68639 40.0712 3.71915 39.7958 4.61421C39.5893 5.23387 39.1762 5.78468 38.7631 6.12893C41.104 5.50927 45.3039 4.88962 48.8153 6.95514C50.3988 7.91905 51.6382 10.3288 50.9497 12.8075C50.33 15.0795 47.576 18.8663 36.4221 18.8663ZM35.3894 0.483162C31.3272 0.483162 25.3371 3.2372 23.4782 5.99123C22.7897 7.02399 20.6553 10.6042 22.2388 13.6337C23.8224 16.6631 28.5043 18.2467 36.0779 18.2467C36.2156 18.2467 36.2844 18.2467 36.4221 18.2467C47.2317 18.2467 49.848 14.6664 50.4677 12.6009C51.0874 10.3977 49.9169 8.19446 48.5399 7.36825C43.7203 4.54536 37.3172 7.16169 37.2483 7.16169C37.1106 7.23055 36.9729 7.1617 36.9041 7.02399C36.8352 6.88629 36.9041 6.74859 37.0418 6.67974C37.0418 6.67974 38.8319 5.92238 39.3139 4.40766C39.5893 3.6503 39.4516 2.75524 38.9008 1.86018C38.2122 0.758565 36.7664 0.483162 35.6648 0.414311C35.5271 0.483162 35.4582 0.483162 35.3894 0.483162Z" fill="#4A4E53" fill-opacity="0.7"/>
<path d="M21.756 57.1468C21.756 57.1468 24.3723 64.9958 36.1458 64.9958C47.9193 64.9958 50.3979 57.1468 50.3979 57.1468C50.3979 57.1468 74.0138 56.1829 74.0138 72.9825C74.0138 89.7821 74.0138 89.7821 74.0138 89.7821H0.343371V72.9825C0.27452 72.9825 0.963029 57.1468 21.756 57.1468Z" fill="url(#paint0_linear)"/>
<path d="M73.9458 90.0581H0.275403C0.137702 90.0581 0 89.9204 0 89.7827V72.9831C0 72.8454 0.963912 56.872 21.688 56.872C21.8257 56.872 21.8946 56.9408 21.9634 57.0785C21.9634 57.1474 24.6486 64.7898 36.0779 64.7898C42.0679 64.7898 45.5104 62.7243 47.4382 60.9342C49.4349 59.0064 50.1234 57.0785 50.1234 57.0785C50.1234 56.9408 50.2611 56.872 50.33 56.872C50.4677 56.872 63.3428 56.39 70.0902 62.862C72.8442 65.4783 74.2212 68.852 74.2212 72.9142V89.7139C74.2212 89.9893 74.0835 90.0581 73.9458 90.0581ZM0.550807 89.5073H73.7393V72.9831C73.7393 69.0586 72.4311 65.7538 69.8148 63.2751C63.687 57.3539 52.1201 57.3539 50.6054 57.4228C50.1234 58.5933 47.0251 65.2718 36.1467 65.2718C29.9501 65.2718 26.301 63.0686 24.3732 61.2784C22.5831 59.626 21.8257 57.9736 21.6192 57.4228C13.2882 57.4228 7.02279 60.1768 3.51139 65.2029C0.82621 69.0586 0.619658 72.9831 0.619658 72.9831L0.550807 89.5073Z" fill="#4A4E53" fill-opacity="0.7"/>
</g>
<defs>
<linearGradient id="paint0_linear" x1="0.339722" y1="73.4594" x2="74.0138" y2="73.4594" gradientUnits="userSpaceOnUse">
<stop stop-color="#74EBD5"/>
<stop offset="1" stop-color="#9FACE6"/>
</linearGradient>
</defs>
</svg>
