<svg width="68" height="82" viewBox="0 0 68 82" fill="none" xmlns="http://www.w3.org/2000/svg">
<path d="M33.743 4.91594C33.743 4.91594 33.3736 -1.05686 24.7531 0.420945C16.1325 1.89875 15.0242 17.1078 17.1793 26.4673C19.2729 35.8267 19.0266 43.5236 17.1793 44.1394C15.3321 44.7551 14.2853 43.7083 14.2853 45.1246C14.2853 46.5408 15.6399 50.3585 22.4748 47.7107C29.3096 45.063 33.743 4.91594 33.743 4.91594Z" fill="#392914"/>
<path d="M18.3496 48.8811C17.3028 48.8811 16.3792 48.6348 15.6403 48.1422C14.4703 47.3417 14.0393 46.0486 14.0393 45.125C14.0393 44.7555 14.1009 44.4476 14.2856 44.3245C14.5319 44.0782 14.9014 44.0782 15.3324 44.1398C15.825 44.1398 16.3792 44.2013 17.0565 43.955C18.5343 43.4624 19.1501 36.6276 16.9333 26.5908C15.3324 19.5097 15.6403 9.47291 19.2732 3.99271C20.6894 1.83758 22.5367 0.606075 24.7534 0.236623C27.8937 -0.317554 30.3567 0.113473 32.0193 1.40655C33.8665 2.82278 33.9897 4.85476 33.9897 4.97791C33.9897 4.97791 33.9897 4.97792 33.9897 5.03949C33.805 6.70202 29.4331 45.4328 22.5983 48.019C20.9357 48.5732 19.5195 48.8811 18.3496 48.8811ZM15.0245 44.5708C14.8398 44.5708 14.7166 44.5708 14.5935 44.6324C14.5319 44.6939 14.4703 44.8787 14.4703 45.125C14.4703 45.7407 14.7782 46.9722 15.8866 47.7111C17.2412 48.6348 19.5195 48.5732 22.352 47.4648C28.9405 45.0018 33.3739 6.02469 33.4971 4.91634C33.4971 4.73162 33.2508 2.94593 31.7114 1.71443C30.172 0.482924 27.8322 0.113473 24.815 0.66765C22.7214 1.0371 20.9973 2.20703 19.6427 4.23901C16.0713 9.53448 15.825 19.4481 17.3644 26.4677C19.3964 35.4577 19.3348 43.7087 17.2412 44.3861C16.4407 44.6324 15.825 44.6324 15.3324 44.6324C15.2092 44.5708 15.1477 44.5708 15.0245 44.5708Z" fill="#1A1A1A"/>
<path d="M20.8732 24.0659C20.8732 24.0659 16.4398 23.4502 16.4398 26.0364C16.4398 28.5609 20.8732 27.9452 20.8732 27.9452V24.0659Z" fill="white"/>
<path d="M19.7042 28.2535C18.7806 28.2535 17.5491 28.1304 16.8102 27.5146C16.3792 27.1452 16.1945 26.6526 16.1945 26.0984C16.1945 25.4826 16.3792 25.0516 16.8102 24.6821C18.0417 23.5738 20.751 23.9432 20.8742 23.9432C20.9973 23.9432 21.0589 24.0664 21.0589 24.1895V28.0072C21.0589 28.1304 20.9973 28.1919 20.8742 28.2535C20.8742 28.1919 20.3816 28.2535 19.7042 28.2535ZM19.7658 24.2511C18.9038 24.2511 17.7338 24.3743 17.1181 24.9284C16.8102 25.2363 16.6255 25.5442 16.6255 26.0368C16.6255 26.4678 16.8102 26.8373 17.1181 27.1452C18.0417 27.9456 20.0121 27.8225 20.6279 27.7609V24.3127C20.4431 24.3127 20.1353 24.2511 19.7658 24.2511Z" fill="#1A1A1A"/>
<path d="M44.8879 24.0658C44.8879 24.0658 49.3214 23.45 49.3214 26.0362C49.3214 28.5608 44.8879 27.945 44.8879 27.945V24.0658Z" fill="white"/>
<path d="M46.0584 28.2534C45.3811 28.2534 44.8885 28.1919 44.8269 28.1919C44.7038 28.1919 44.6422 28.0687 44.6422 27.9456V24.1279C44.6422 24.0047 44.7038 23.9432 44.8269 23.8816C44.9501 23.8816 47.6594 23.5121 48.8909 24.6205C49.3219 24.9899 49.5067 25.4825 49.5067 26.0367C49.5067 26.6525 49.3219 27.0835 48.8909 27.453C48.2136 28.1303 46.9821 28.2534 46.0584 28.2534ZM45.0732 27.7608C45.689 27.8224 47.6594 27.9456 48.583 27.1451C48.8909 26.8988 49.0756 26.5293 49.0756 26.0367C49.0756 25.6057 48.8909 25.2362 48.583 24.9284C47.6594 24.1279 45.689 24.251 45.0732 24.3126V27.7608Z" fill="#1A1A1A"/>
<path d="M21.4895 34.7185V50.2355L19.2112 54.7305L33.1888 61.0112L44.8881 54.6689V39.8293V31.0856L32.0188 33.056L21.4895 34.7185Z" fill="white"/>
<path d="M33.1892 61.2579C33.1276 61.2579 33.1276 61.2579 33.0661 61.2579L19.0885 54.9772C19.0269 54.9772 18.9653 54.9156 18.9653 54.854C18.9653 54.7925 18.9653 54.7309 18.9653 54.6693L21.2436 50.1743V34.7805C21.2436 34.6574 21.3052 34.5958 21.4283 34.5342L44.8269 30.9013C44.8885 30.9013 44.9501 30.9013 45.0117 30.9628C45.0732 31.0244 45.0732 31.086 45.0732 31.1476V54.7309C45.0732 54.7925 45.0117 54.9156 44.9501 54.9156L33.2508 61.2579C33.2508 61.1963 33.1892 61.2579 33.1892 61.2579ZM19.5195 54.6077L33.1892 60.7037L44.6422 54.4846V31.3323L21.7362 34.9037V50.1743C21.7362 50.2359 21.7362 50.2359 21.7362 50.2975L19.5195 54.6077Z" fill="#1A1A1A"/>
<path d="M32.0185 33.0558L44.8877 31.0238V37.366C44.8877 37.366 40.8853 42.5384 34.4199 41.7379C27.9545 41.0606 32.0185 33.0558 32.0185 33.0558Z" fill="#392914"/>
<path d="M35.7136 42.1077C35.2826 42.1077 34.8515 42.1077 34.4205 42.0462C32.758 41.8614 31.6496 41.1841 31.0339 40.0758C29.6176 37.428 31.7728 33.1793 31.8344 32.9946C31.8959 32.933 31.9575 32.8715 32.0191 32.8715L44.8883 30.8395C44.9499 30.8395 45.0114 30.8395 45.073 30.9011C45.1346 30.9626 45.1346 31.0242 45.1346 31.0858V37.428C45.1346 37.4896 45.1346 37.5512 45.073 37.5512C45.0114 37.6128 41.4401 42.1077 35.7136 42.1077ZM32.2038 33.3025C31.8959 33.9798 30.2334 37.6128 31.4649 39.891C31.9575 40.8762 33.0043 41.4304 34.4821 41.6151C40.3933 42.2925 44.211 37.9206 44.7036 37.3665V31.3321L32.2038 33.3025Z" fill="#1A1A1A"/>
<path d="M29.2476 7.74849C29.2476 7.74849 29.6786 3.37665 33.4347 3.62295C37.1908 3.93083 37.1908 7.74849 37.1908 7.74849L33.7426 9.84205L29.2476 7.74849Z" fill="#F2BF4C"/>
<path d="M33.7434 10.0888C33.6818 10.0888 33.6818 10.0888 33.6202 10.0888L29.1252 7.99524C29.0637 7.93367 29.0021 7.87209 29.0021 7.74894C29.0021 7.68737 29.4947 3.1308 33.4355 3.43868C37.3763 3.74655 37.3763 7.74894 37.3763 7.74894C37.3763 7.81052 37.3147 7.93367 37.2532 7.93367L33.8665 10.0888C33.8049 10.0888 33.8049 10.0888 33.7434 10.0888ZM29.4947 7.62579L33.7434 9.5962L36.9453 7.62579C36.8837 6.94847 36.5758 4.11601 33.4355 3.8697C30.2952 3.68498 29.6178 6.88689 29.4947 7.62579Z" fill="#1A1A1A"/>
<path d="M20.4424 19.3863C20.4424 19.3863 15.578 41.8612 33.1885 41.8612C44.9494 41.8612 46.0577 28.561 45.5035 19.7557C45.2572 15.3839 43.2868 13.6598 43.2868 13.6598L41.6243 11.8125L32.2649 10.9505L23.0902 12.6746L20.4424 19.3863Z" fill="white"/>
<path d="M33.1892 42.1078C28.6942 42.1078 25.3075 40.6916 22.9677 37.7975C17.7338 31.2706 20.1968 19.4481 20.1968 19.325C20.1968 19.325 20.1968 19.325 20.1968 19.2634L22.9061 12.6133C22.9061 12.5517 23.0293 12.4901 23.0908 12.4901L32.2655 10.766H32.3271L41.6866 11.6281C41.7481 11.6281 41.8097 11.6897 41.8097 11.6897L43.4722 13.5369C43.5338 13.5985 45.5042 15.3226 45.7505 19.756C46.12 25.9135 45.6889 34.2878 41.4403 38.8443C39.3467 40.9995 36.5758 42.1078 33.1892 42.1078ZM20.6894 19.4481C20.5662 20.0023 18.3495 31.2706 23.3371 37.5512C25.5538 40.2606 28.8789 41.6768 33.1892 41.6768C36.4527 41.6768 39.1004 40.63 41.0708 38.5365C45.2579 34.103 45.6274 25.9135 45.2579 19.8176C45.0116 15.5689 43.1028 13.9064 43.1028 13.9064L41.5018 12.1207L32.2655 11.2586L23.2756 12.9212L20.6894 19.4481Z" fill="#1A1A1A"/>
<path d="M25.3067 31.8861C25.3067 30.3468 23.5826 29.0537 21.489 29.0537C20.9964 29.0537 20.5038 29.1153 20.0112 29.2384C20.196 31.0857 20.627 32.9329 21.3659 34.657H21.4275C23.5826 34.7186 25.3067 33.4871 25.3067 31.8861Z" fill="#FFF1C8"/>
<path d="M21.4899 34.9652C21.4899 34.9652 21.4283 34.9652 21.4899 34.9652C21.3667 34.9652 21.2436 34.9036 21.182 34.842C20.5047 33.2411 20.012 31.3938 19.7657 29.3618C19.7657 29.2387 19.8273 29.1771 19.9505 29.1155C20.4431 28.9924 20.9357 28.8692 21.4899 28.8692C23.7066 28.8692 25.5538 30.2239 25.5538 31.948C25.5538 33.6105 23.7066 34.9652 21.4899 34.9652ZM20.2584 29.485C20.5047 31.3322 20.9357 33.0563 21.5514 34.5341C23.5218 34.5341 25.0612 33.3642 25.0612 31.948C25.0612 30.5317 23.4603 29.3618 21.4899 29.3618C21.0588 29.3002 20.6894 29.3618 20.2584 29.485Z" fill="#1A1A1A"/>
<path d="M28.1391 27.329C28.1391 27.8216 27.7081 28.1911 27.2155 28.1911C26.7229 28.1911 26.2919 27.8216 26.2919 27.329C26.2919 26.8364 26.7229 26.467 27.2155 26.467C27.7081 26.467 28.1391 26.8364 28.1391 27.329Z" fill="#392914"/>
<path d="M27.2162 28.4381C26.6004 28.4381 26.0463 27.9455 26.0463 27.3297C26.0463 26.714 26.6004 26.2214 27.2162 26.2214C27.8319 26.2214 28.3861 26.714 28.3861 27.3297C28.3861 27.9455 27.8319 28.4381 27.2162 28.4381ZM27.2162 26.714C26.8467 26.714 26.5389 27.0219 26.5389 27.3297C26.5389 27.6992 26.8467 27.9455 27.2162 27.9455C27.5856 27.9455 27.8935 27.6376 27.8935 27.3297C27.8935 26.9603 27.5856 26.714 27.2162 26.714Z" fill="#1A1A1A"/>
<path d="M44.8881 29.1147C42.7945 29.1147 41.0704 30.3462 41.0704 31.9471C41.0704 33.2402 42.2404 34.287 43.7797 34.6565C44.4571 32.9323 44.9497 31.0851 45.2576 29.1763C45.1344 29.1147 45.0113 29.1147 44.8881 29.1147Z" fill="#FFF1C8"/>
<path d="M43.7801 34.8419C43.7801 34.8419 43.7185 34.8419 43.7801 34.8419C41.9944 34.4725 40.8245 33.3026 40.8245 31.8863C40.8245 30.2238 42.6717 28.8076 44.8884 28.8076C45.0116 28.8076 45.1347 28.8076 45.2579 28.8076C45.3195 28.8076 45.381 28.8691 45.4426 28.8691C45.5042 28.9307 45.5042 28.9923 45.5042 29.0539C45.1963 31.1474 44.7037 32.9947 44.0264 34.5956C43.9648 34.7804 43.8416 34.8419 43.7801 34.8419ZM44.8884 29.3002C42.918 29.3002 41.3171 30.4701 41.3171 31.8863C41.3171 32.9947 42.3023 33.9183 43.6569 34.2878C44.2727 32.81 44.7037 31.1474 45.0116 29.3002C44.95 29.3002 44.8884 29.3002 44.8884 29.3002Z" fill="#1A1A1A"/>
<path d="M39.1609 27.329C39.1609 27.8216 39.5919 28.1911 40.0845 28.1911C40.5771 28.1911 41.0081 27.8216 41.0081 27.329C41.0081 26.8364 40.5771 26.467 40.0845 26.467C39.5919 26.467 39.1609 26.8364 39.1609 27.329Z" fill="#392914"/>
<path d="M40.0853 28.4381C39.4696 28.4381 38.9154 27.9455 38.9154 27.3297C38.9154 26.714 39.4696 26.2214 40.0853 26.2214C40.7011 26.2214 41.2553 26.714 41.2553 27.3297C41.2553 27.9455 40.7627 28.4381 40.0853 28.4381ZM40.0853 26.714C39.7159 26.714 39.408 27.0219 39.408 27.3297C39.408 27.6992 39.7159 27.9455 40.0853 27.9455C40.4548 27.9455 40.7627 27.6376 40.7627 27.3297C40.8242 26.9603 40.4548 26.714 40.0853 26.714Z" fill="#1A1A1A"/>
<path d="M34.4206 33.1179C33.8048 33.1179 33.1891 33.0563 32.6965 33.0563C32.5733 33.0563 32.4502 32.9332 32.5117 32.81C32.5117 32.6869 32.6349 32.5637 32.758 32.6253C34.2358 32.7485 35.96 32.6869 36.1447 32.5022C36.2063 32.2559 36.0215 30.1623 35.8984 28.6229C35.5905 25.421 35.5905 24.7437 35.7752 24.559C36.1447 24.1279 39.2234 21.6034 42.6717 22.7733C42.7948 22.8349 42.8564 22.958 42.7948 23.0812C42.7332 23.2043 42.6101 23.2659 42.4869 23.2043C39.285 22.096 36.391 24.4974 36.0831 24.8668C36.0215 25.1131 36.2063 27.1451 36.3294 28.6229C36.5757 31.5785 36.6373 32.5637 36.5141 32.81C36.3294 33.0563 35.4058 33.1179 34.4206 33.1179Z" fill="#1A1A1A"/>
<path d="M24.3838 24.6819C24.3222 24.6819 24.1991 24.6203 24.1991 24.5588C24.1375 24.4356 24.1991 24.3124 24.2607 24.2509C28.3246 22.0342 31.2187 24.2509 31.2802 24.2509C31.4034 24.3124 31.4034 24.4972 31.3418 24.5588C31.2802 24.6819 31.0955 24.6819 31.0339 24.6203C30.9108 24.5588 28.3246 22.5883 24.5685 24.6203C24.4454 24.6203 24.4454 24.6819 24.3838 24.6819Z" fill="#1A1A1A"/>
<path d="M31.5264 36.6277C28.8787 36.443 27.1546 34.9652 27.0314 34.9036C26.9083 34.842 26.9083 34.6573 27.0314 34.5957C27.093 34.4726 27.2778 34.4726 27.3393 34.5957C27.3393 34.5957 29.0634 36.012 31.5264 36.1967C31.6496 36.1967 31.7727 36.3198 31.7112 36.443C31.7727 36.5661 31.6496 36.6277 31.5264 36.6277Z" fill="#1A1A1A"/>
<path d="M19.8883 23.9424C19.8883 23.9424 17.61 7.37868 33.1885 7.37868C48.7671 7.37868 45.6267 23.5114 45.6267 23.5114C45.6267 23.5114 45.6267 16.7381 41.0702 15.1372C36.452 13.5362 33.1885 16.4302 33.1885 16.4302C33.1885 16.4302 30.2945 14.0288 26.2921 14.5214C20.3809 15.1372 19.8883 23.9424 19.8883 23.9424Z" fill="#392914"/>
<path d="M19.8889 24.1896C19.7658 24.1896 19.7042 24.128 19.6426 24.0048C19.6426 23.9433 18.5959 16.1232 22.9061 11.1972C25.246 8.48787 28.6942 7.13322 33.1892 7.13322C37.6842 7.13322 41.1324 8.48787 43.2875 11.1356C47.2283 15.9385 45.8121 23.4507 45.8121 23.5122C45.8121 23.6354 45.689 23.697 45.5658 23.697C45.4427 23.697 45.3811 23.5738 45.3811 23.4507C45.3811 23.3891 45.3811 16.8621 40.9477 15.3227C36.5143 13.7833 33.3123 16.5542 33.3123 16.5542C33.2508 16.6158 33.1276 16.6158 33.0045 16.5542C33.0045 16.5542 30.172 14.2759 26.2928 14.6454C20.6894 15.2611 20.1352 23.8201 20.1352 23.8817C20.1352 24.0664 20.0121 24.1896 19.8889 24.1896ZM33.1892 7.56424C28.8174 7.56424 25.4923 8.85732 23.214 11.4435C20.4431 14.5838 19.9505 18.9557 19.9505 21.6034C20.5663 18.8941 22.1056 14.6454 26.1696 14.2144C29.8026 13.8449 32.4503 15.569 33.1276 16.0616C33.8049 15.5074 36.9453 13.4139 41.0708 14.8301C44.088 15.8769 45.1964 18.9557 45.5658 21.1108C45.689 18.5862 45.3811 14.3991 42.9181 11.3203C40.8861 8.85732 37.561 7.56424 33.1892 7.56424Z" fill="#1A1A1A"/>
<path d="M49.321 30.1616C49.321 31.8857 48.4589 33.302 47.4121 33.302C46.3653 33.302 45.5033 31.8857 45.5033 30.1616C45.5033 28.4375 46.3653 27.0213 47.4121 27.0213C48.4589 27.0213 49.321 28.4375 49.321 30.1616Z" fill="#F2BF4C"/>
<path d="M47.4128 33.5489C46.1813 33.5489 45.2577 32.0711 45.2577 30.1623C45.2577 28.2535 46.1813 26.7757 47.4128 26.7757C48.6443 26.7757 49.568 28.2535 49.568 30.1623C49.568 32.0711 48.5828 33.5489 47.4128 33.5489ZM47.4128 27.2683C46.4892 27.2683 45.7503 28.6229 45.7503 30.2239C45.7503 31.8248 46.5508 33.1795 47.4128 33.1795C48.3365 33.1795 49.0754 31.8248 49.0754 30.2239C49.0754 28.5613 48.3365 27.2683 47.4128 27.2683Z" fill="#1A1A1A"/>
<path d="M15.8855 30.1616C15.8855 31.8857 16.7476 33.302 17.7943 33.302C18.8411 33.302 19.7032 31.8857 19.7032 30.1616C19.7032 28.4375 18.8411 27.0213 17.7943 27.0213C16.7476 27.0213 15.8855 28.4375 15.8855 30.1616Z" fill="#F2BF4C"/>
<path d="M17.7953 33.5489C16.5638 33.5489 15.6401 32.0711 15.6401 30.1623C15.6401 28.2535 16.5638 26.7757 17.7953 26.7757C19.0268 26.7757 19.9504 28.2535 19.9504 30.1623C19.9504 32.0711 19.0268 33.5489 17.7953 33.5489ZM17.7953 27.2683C16.8716 27.2683 16.1327 28.6229 16.1327 30.2239C16.1327 31.8248 16.9332 33.1795 17.7953 33.1795C18.7189 33.1795 19.4578 31.8248 19.4578 30.2239C19.5194 28.5613 18.7189 27.2683 17.7953 27.2683Z" fill="#1A1A1A"/>
<path d="M21.4891 50.235L32.7573 53.5601L44.8876 50.235C44.8876 50.235 66.1311 50.4198 66.1311 65.9983C66.1311 81.5768 66.9932 81.5768 66.9932 81.5768L0.245605 80.7148V65.9983C0.245605 65.9367 1.41554 50.235 21.4891 50.235Z" fill="url(#paint0_linear)"/>
<path d="M66.9939 81.8238L0.246301 80.9618C0.12315 80.9618 0 80.8386 0 80.7155V65.999C0 65.8143 1.47781 49.9894 21.4898 49.9894H21.5513L32.758 53.3145L44.8268 49.9894H44.8884C45.0731 49.9894 66.3781 50.3589 66.3781 65.999C66.3781 79.484 66.9939 81.2081 67.117 81.3928C67.1786 81.4544 67.2402 81.516 67.2402 81.5775C67.1786 81.7007 67.117 81.8238 66.9939 81.8238ZM0.492602 80.4692L66.686 81.3312C66.1934 79.8534 65.9471 74.6811 65.9471 65.9374C65.9471 51.0362 45.8736 50.4205 44.9499 50.4205L32.8196 53.7455C32.758 53.7455 32.758 53.7455 32.6965 53.7455L21.4898 50.4205C1.90883 50.4205 0.492602 65.8143 0.492602 65.9374V80.4692Z" fill="#1A1A1A"/>
<path d="M32.7576 71.7248V53.5601L44.58 63.9663L44.8879 50.235" fill="url(#paint1_linear)"/>
<path d="M32.7581 71.9718C32.635 71.9718 32.5118 71.8486 32.5118 71.7255V53.4992C32.5118 53.4377 32.5734 53.3145 32.635 53.3145C32.6966 53.2529 32.8197 53.3145 32.8813 53.3761L44.3343 63.4744L44.5806 50.2357C44.5806 50.1126 44.7037 49.9894 44.8269 49.9894C44.95 49.9894 45.0732 50.1126 45.0732 50.2357L44.7653 63.967C44.7653 64.0286 44.7037 64.1517 44.6422 64.1517C44.5806 64.2133 44.4574 64.1517 44.3959 64.0902L32.9429 53.9918V71.7255C32.9429 71.8486 32.8813 71.9718 32.7581 71.9718Z" fill="#1A1A1A"/>
<path d="M34.4822 70.0631C34.0512 70.0631 33.6818 69.6937 33.6818 69.2627C33.6818 68.8316 34.0512 68.4622 34.4822 68.4622C34.9133 68.4622 35.2827 68.8316 35.2827 69.2627C35.2827 69.6937 34.9748 70.0631 34.4822 70.0631ZM34.4822 68.8932C34.2975 68.8932 34.1128 69.0779 34.1128 69.2627C34.1128 69.4474 34.2975 69.6321 34.4822 69.6321C34.667 69.6321 34.8517 69.4474 34.8517 69.2627C34.8517 69.0164 34.667 68.8932 34.4822 68.8932Z" fill="#1A1A1A"/>
<path d="M34.4822 65.3218C34.0512 65.3218 33.6818 64.9523 33.6818 64.5213C33.6818 64.0902 34.0512 63.7208 34.4822 63.7208C34.9133 63.7208 35.2827 64.0902 35.2827 64.5213C35.2827 64.9523 34.9748 65.3218 34.4822 65.3218ZM34.4822 64.2134C34.2975 64.2134 34.1128 64.3981 34.1128 64.5828C34.1128 64.7676 34.2975 64.9523 34.4822 64.9523C34.667 64.9523 34.8517 64.7676 34.8517 64.5828C34.8517 64.3365 34.667 64.2134 34.4822 64.2134Z" fill="#1A1A1A"/>
<path d="M34.4822 60.7037C34.0512 60.7037 33.6818 60.3342 33.6818 59.9032C33.6818 59.4721 34.0512 59.1027 34.4822 59.1027C34.9133 59.1027 35.2827 59.4721 35.2827 59.9032C35.2827 60.3342 34.9748 60.7037 34.4822 60.7037ZM34.4822 59.5953C34.2975 59.5953 34.1128 59.78 34.1128 59.9647C34.1128 60.1495 34.2975 60.3342 34.4822 60.3342C34.667 60.3342 34.8517 60.1495 34.8517 59.9647C34.8517 59.7184 34.667 59.5953 34.4822 59.5953Z" fill="#1A1A1A"/>
<path d="M32.7573 53.56L21.489 50.2349L20.8733 63.9662L32.7573 53.56Z" fill="url(#paint2_linear)"/>
<path d="M20.874 64.1519C20.8124 64.1519 20.8124 64.1519 20.7508 64.1519C20.6893 64.0903 20.6277 64.0287 20.6277 63.9056L21.2434 50.1743C21.2434 50.1127 21.305 50.0511 21.3666 49.9896C21.4282 49.928 21.4897 49.928 21.5513 49.928L32.8196 53.253C32.8812 53.253 32.9427 53.3146 33.0043 53.4378C33.0043 53.4993 33.0043 53.6225 32.9427 53.6841L21.0587 64.0903C20.9971 64.1519 20.9356 64.1519 20.874 64.1519ZM21.736 50.5437L21.1819 63.4129L32.327 53.6225L21.736 50.5437Z" fill="#1A1A1A"/>
<defs>
<linearGradient id="paint0_linear" x1="0.245605" y1="65.9059" x2="66.9932" y2="65.9059" gradientUnits="userSpaceOnUse">
<stop stop-color="#B7F8DB"/>
<stop offset="1" stop-color="#50A7C2"/>
</linearGradient>
<linearGradient id="paint1_linear" x1="32.7576" y1="60.9799" x2="44.8879" y2="60.9799" gradientUnits="userSpaceOnUse">
<stop stop-color="#B7F8DB"/>
<stop offset="1" stop-color="#50A7C2"/>
</linearGradient>
<linearGradient id="paint2_linear" x1="20.8733" y1="57.1005" x2="32.7573" y2="57.1005" gradientUnits="userSpaceOnUse">
<stop stop-color="#B7F8DB"/>
<stop offset="1" stop-color="#50A7C2"/>
</linearGradient>
</defs>
</svg>
