<svg width="73" height="86" viewBox="0 0 73 86" fill="none" xmlns="http://www.w3.org/2000/svg">
<path d="M71.9198 71.3755V74.514C71.9198 78.1868 68.9148 81.1918 65.2421 81.1918H7.14553C3.47277 81.1918 0.467773 78.1868 0.467773 74.514V71.3755H71.9198Z" fill="#725227"/>
<path d="M65.1752 81.3926H7.07865C3.27233 81.3926 0.133789 78.2541 0.133789 74.4478V71.1089H72.12V74.4478C72.12 78.3209 69.0483 81.3926 65.1752 81.3926ZM0.668022 71.5763V74.4478C0.668022 77.987 3.53944 80.8584 7.07865 80.8584H65.1752C68.7144 80.8584 71.5858 77.987 71.5858 74.4478V71.5763H0.668022Z" fill="#1A1A1A"/>
<path d="M20.2334 58.6211V40.7915V31.8433L51.0178 37.5194V58.6211L32.9879 68.0367L20.2334 58.6211Z" fill="white"/>
<path d="M32.9879 68.237C32.9211 68.237 32.8544 68.237 32.8544 68.1702L20.0999 58.7545C20.0331 58.6878 19.9663 58.621 19.9663 58.5542V31.7764C19.9663 31.7096 19.9663 31.6428 20.0331 31.5761C20.0999 31.5093 20.1666 31.5093 20.2334 31.5093L50.9511 37.1186C51.0847 37.1186 51.1514 37.2522 51.1514 37.3857V58.4874C51.1514 58.5542 51.0846 58.6878 51.0179 58.6878L32.9879 68.1034C33.0547 68.237 33.0547 68.237 32.9879 68.237ZM20.5005 58.4874L32.9879 67.7027L50.7508 58.4206V37.6528L20.5005 32.1103V58.4874Z" fill="#1A1A1A"/>
<path d="M51.018 37.5196L20.3003 28.3711V40.8585C20.3003 40.8585 22.5707 48.0705 30.9847 48.3376C39.3987 48.6047 51.018 37.5196 51.018 37.5196Z" fill="white"/>
<path d="M50.6172 26.4344C50.6172 26.4344 54.6906 26.1006 54.8242 28.1039C54.8909 30.0404 50.6172 30.2408 50.6172 30.2408V26.4344Z" fill="white"/>
<path d="M50.6172 30.441C50.5504 30.441 50.4837 30.441 50.4169 30.3742C50.3501 30.3074 50.3501 30.2407 50.3501 30.1739V26.4343C50.3501 26.3008 50.4837 26.1672 50.5505 26.1672C50.684 26.1672 53.3551 25.9669 54.4903 26.9686C54.8242 27.2357 55.0245 27.6363 55.0245 28.037C55.0245 28.4377 54.891 28.8383 54.6239 29.1055C53.6222 30.3074 50.7508 30.441 50.6172 30.441ZM50.8844 26.7015V29.9736C51.6189 29.9068 53.5554 29.7064 54.29 28.9051C54.4903 28.7048 54.5571 28.4377 54.5571 28.1706C54.5571 27.9035 54.4236 27.6363 54.2232 27.436C53.4219 26.6347 51.5521 26.6347 50.8844 26.7015Z" fill="#1A1A1A"/>
<path d="M20.7014 26.4344C20.7014 26.4344 16.628 26.1006 16.4944 28.1039C16.4276 30.0404 20.7014 30.2408 20.7014 30.2408V26.4344Z" fill="white"/>
<path d="M20.701 30.4411C20.5675 30.4411 17.7628 30.3076 16.6944 29.1723C16.4273 28.8384 16.2269 28.5046 16.2937 28.1039C16.2937 27.7032 16.494 27.3026 16.8279 27.0355C17.9631 26.0338 20.6342 26.2341 20.7678 26.2341C20.9013 26.2341 20.9681 26.3677 20.9681 26.5012V30.2408C20.9681 30.3076 20.9681 30.3743 20.9014 30.4411C20.8346 30.4411 20.7678 30.4411 20.701 30.4411ZM20.1 26.7016C19.2987 26.7016 17.8296 26.7684 17.095 27.4361C16.8947 27.6365 16.7611 27.9036 16.7611 28.1707C16.7611 28.4378 16.8279 28.7049 17.0283 28.9052C17.7628 29.7066 19.6993 29.9737 20.4339 29.9737V26.7016C20.3671 26.7016 20.2336 26.7016 20.1 26.7016Z" fill="#1A1A1A"/>
<path d="M51.018 28.6384V21.2261L47.8794 13.6802L27.2452 10.0742L20.3003 16.2178V27.3028V29.3729L20.3671 29.4397C20.6342 34.9155 22.5039 48.6717 34.5907 48.8052C49.6157 48.9388 50.8844 43.463 51.018 39.3896C51.1515 35.3161 51.018 28.6384 51.018 28.6384Z" fill="white"/>
<path d="M34.9247 49.0054C34.7912 49.0054 34.6576 49.0054 34.5241 49.0054C29.1819 48.9387 25.242 46.3343 22.7712 41.1925C20.7011 36.9855 20.2337 32.0439 20.1001 29.4396V29.3728V29.3061V16.1509C20.1001 16.0841 20.1001 16.0173 20.1669 15.9505L27.1117 9.80701C27.1785 9.74023 27.2453 9.74023 27.3121 9.74023L47.9464 13.3462C48.0131 13.3462 48.0799 13.413 48.1467 13.4798L51.2852 21.0256V21.0924V28.5047C51.2852 28.6383 51.4188 35.2493 51.2185 39.2559C51.0849 42.528 50.8178 49.0054 34.9247 49.0054ZM20.5008 29.3061C20.5008 29.3728 20.5008 29.3728 20.5675 29.4396C20.8347 35.1825 22.7712 48.4712 34.5241 48.538C34.6576 48.538 34.7912 48.538 34.9915 48.538C48.4806 48.538 50.5507 44.1307 50.751 39.3895C50.9514 35.3828 50.8178 28.7051 50.8178 28.6383V21.2927L47.746 13.9472L27.3121 10.408L20.5675 16.3512V29.3061H20.5008Z" fill="#1A1A1A"/>
<path d="M49.8162 11.61C49.8162 11.61 51.0182 17.7536 51.0182 23.4964C51.0182 23.4964 49.6159 15.4831 44.0734 14.5482C38.5308 13.6134 27.5793 14.2144 27.5793 14.2144C27.5793 14.2144 20.6344 17.6868 20.3006 24.5649V16.0841C20.3006 16.0841 19.9667 10.1409 24.4408 8.53826C28.9149 6.93559 49.8162 11.61 49.8162 11.61Z" fill="url(#paint0_linear)"/>
<path d="M20.2337 24.8987C20.1002 24.8987 19.9666 24.7651 19.9666 24.6315V16.1508C19.9666 16.084 19.6328 10.0073 24.3072 8.40459C28.8481 6.80193 48.9481 11.2092 49.8162 11.3428C49.883 11.3428 50.0165 11.4096 50.0165 11.5431C50.0165 11.6099 51.2186 17.7535 51.2186 23.4963C51.2186 23.6299 51.1518 23.7634 51.0182 23.7634C50.8846 23.7634 50.7511 23.6967 50.7511 23.5631C50.7511 23.4963 49.3488 15.7501 44.0066 14.8152C38.7311 13.9471 28.4474 14.4813 27.6461 14.4813C27.0451 14.8152 20.8347 18.2209 20.5676 24.5648C20.5009 24.7651 20.3673 24.8987 20.2337 24.8987ZM27.379 8.60492C26.177 8.60492 25.1753 8.6717 24.5075 8.93881C20.2337 10.4079 20.5009 16.1508 20.5009 16.2176V21.9604C22.1703 16.8186 27.3789 14.1475 27.4457 14.1475H27.5125C27.6461 14.1475 38.5308 13.5465 44.0734 14.4813C47.9465 15.1491 49.883 19.0222 50.6843 21.5598C50.484 17.0857 49.7495 12.8787 49.5491 12.0106C47.9465 11.4764 34.1235 8.60492 27.379 8.60492Z" fill="#1A1A1A"/>
<path d="M38.8647 35.7832H34.3906C33.9232 35.7832 33.5893 35.6496 33.2554 35.3157C32.5876 34.648 32.6544 33.3792 32.6544 33.3124V23.83C32.6544 23.229 31.8531 22.027 29.2487 22.027C26.8447 22.027 25.9099 23.1622 25.9099 23.1622C25.8431 23.2958 25.6428 23.2958 25.576 23.229C25.4424 23.1622 25.4424 22.9619 25.5092 22.8951C25.576 22.8283 26.5776 21.5596 29.2487 21.5596C32.1202 21.5596 33.1886 22.9619 33.1886 23.8968V33.3792C33.1886 33.3792 33.1218 34.4476 33.656 34.9819C33.8564 35.1822 34.1235 35.249 34.3906 35.249H38.8647C38.9983 35.249 39.1318 35.3825 39.1318 35.5161C39.1318 35.6496 38.9983 35.7832 38.8647 35.7832Z" fill="#1A1A1A"/>
<path d="M28.7809 27.5697C28.7809 28.1039 28.3802 28.5045 27.846 28.5045C27.3118 28.5045 26.9111 28.1039 26.9111 27.5697C26.9111 27.0354 27.3118 26.6348 27.846 26.6348C28.3802 26.6348 28.7809 27.0354 28.7809 27.5697Z" fill="#392914"/>
<path d="M27.846 28.7717C27.1783 28.7717 26.644 28.2375 26.644 27.5697C26.644 26.9019 27.1783 26.3677 27.846 26.3677C28.5138 26.3677 29.048 26.9019 29.048 27.5697C29.048 28.2375 28.5138 28.7717 27.846 28.7717ZM27.846 26.9019C27.4454 26.9019 27.1783 27.2358 27.1783 27.5697C27.1783 27.9703 27.5121 28.2375 27.846 28.2375C28.2467 28.2375 28.5138 27.9036 28.5138 27.5697C28.5138 27.2358 28.1799 26.9019 27.846 26.9019Z" fill="#1A1A1A"/>
<path d="M23.3055 29.9736C22.1703 29.9736 21.1019 30.2407 20.4341 30.7082C20.5009 31.7099 20.6344 32.8451 20.8348 34.1139C21.5025 34.4477 22.3706 34.5813 23.3055 34.5813C25.5092 34.5813 27.3122 33.5796 27.3122 32.3108C27.3122 30.9753 25.5092 29.9736 23.3055 29.9736Z" fill="#FFF1C8"/>
<path d="M23.3055 34.8484C22.3707 34.8484 21.5026 34.6481 20.7012 34.3142C20.6344 34.2474 20.5677 34.1806 20.5677 34.1139C20.3673 32.9786 20.2338 31.8434 20.167 30.7082C20.167 30.6414 20.2338 30.5079 20.3006 30.4411C21.1019 29.9737 22.1703 29.7065 23.3055 29.7065C25.7095 29.7065 27.5793 30.8418 27.5793 32.2441C27.5793 33.7132 25.7095 34.8484 23.3055 34.8484ZM21.0351 33.9135C21.7029 34.1806 22.4374 34.3142 23.3055 34.3142C25.3757 34.3142 27.0451 33.3793 27.0451 32.2441C27.0451 31.1089 25.3089 30.174 23.3055 30.174C22.3039 30.174 21.369 30.3743 20.6344 30.775C20.7012 31.8434 20.8348 32.9119 21.0351 33.9135Z" fill="#1A1A1A"/>
<path d="M42.4038 27.5697C42.4038 28.1039 42.8044 28.5045 43.3387 28.5045C43.8729 28.5045 44.2736 28.1039 44.2736 27.5697C44.2736 27.0354 43.8729 26.6348 43.3387 26.6348C42.8044 26.6348 42.4038 27.0354 42.4038 27.5697Z" fill="#392914"/>
<path d="M43.3387 28.7717C42.6709 28.7717 42.1367 28.2375 42.1367 27.5697C42.1367 26.9019 42.6709 26.3677 43.3387 26.3677C44.0065 26.3677 44.5407 26.9019 44.5407 27.5697C44.5407 28.2375 44.0065 28.7717 43.3387 28.7717ZM43.3387 26.9019C42.938 26.9019 42.6709 27.2358 42.6709 27.5697C42.6709 27.9703 43.0048 28.2375 43.3387 28.2375C43.7394 28.2375 44.0065 27.9036 44.0065 27.5697C44.0065 27.2358 43.7394 26.9019 43.3387 26.9019Z" fill="#1A1A1A"/>
<path d="M51.0177 30.8417C50.2832 30.3075 49.148 29.9736 47.8792 29.9736C45.6756 29.9736 43.8726 30.9753 43.8726 32.2441C43.8726 33.5129 45.6756 34.5145 47.8792 34.5145C49.148 34.5145 50.2832 34.1806 51.0177 33.6464C51.0177 32.6447 51.0177 31.6431 51.0177 30.8417Z" fill="#FFF1C8"/>
<path d="M47.8793 34.8485C45.4753 34.8485 43.6055 33.7133 43.6055 32.311C43.6055 30.9086 45.4753 29.7734 47.8793 29.7734C49.148 29.7734 50.35 30.1073 51.1513 30.7083C51.2181 30.7751 51.2849 30.8419 51.2849 30.9087C51.2849 31.71 51.2849 32.7117 51.2849 33.7801C51.2849 33.8469 51.2181 33.9136 51.1513 33.9804C50.35 34.4479 49.148 34.8485 47.8793 34.8485ZM47.8793 30.2409C45.8091 30.2409 44.1397 31.1758 44.1397 32.311C44.1397 33.4462 45.8759 34.3811 47.8793 34.3811C49.0145 34.3811 50.0829 34.114 50.8174 33.6465C50.8174 32.7116 50.8174 31.8435 50.8174 31.0422C50.0829 30.508 49.0145 30.2409 47.8793 30.2409Z" fill="#1A1A1A"/>
<path d="M51.0179 53.88C51.0179 53.88 48.2133 61.4927 35.5256 61.4927C22.8378 61.4927 20.2335 53.88 20.2335 53.88C20.2335 53.88 0.200195 53.1455 0.200195 69.4392C0.200195 85.7329 0.200195 85.7329 0.200195 85.7329H71.6522V69.4392C71.719 69.4392 73.3884 53.88 51.0179 53.88Z" fill="url(#paint1_linear)"/>
<path d="M71.7191 86.0002H0.267106C0.133551 86.0002 0 85.8666 0 85.7331V69.4394C0 65.0988 1.40232 61.6264 4.1402 58.9553C10.0166 53.2792 20.1668 53.6131 20.3004 53.6131C20.4339 53.6131 20.5007 53.6799 20.5007 53.8134C20.5007 53.8802 23.3054 61.2925 35.5924 61.2925C47.8795 61.2925 50.8177 53.8802 50.8177 53.8134C50.8845 53.7466 50.9513 53.6798 51.0849 53.6798C59.0982 53.6798 64.9746 55.6832 68.5138 59.623C72.5204 64.0971 71.9862 69.5061 71.9862 69.5061V85.7999C71.9862 85.9334 71.8527 86.0002 71.7191 86.0002ZM0.467431 85.5328H71.452V69.5061C71.452 69.4394 71.9862 64.2307 68.1131 59.9569C64.7075 56.1506 59.0314 54.2141 51.2184 54.2141C50.6842 55.3493 47.2118 61.8267 35.5924 61.8267C28.9815 61.8267 25.1084 59.6898 23.0383 57.9536C21.1017 56.351 20.3004 54.6815 20.1 54.2141C18.7645 54.2141 9.74952 54.2808 4.47409 59.4227C1.80298 61.9603 0.467431 65.3659 0.467431 69.5061V85.5328Z" fill="#1A1A1A"/>
<path d="M35.6588 65.0986C48.0126 65.2322 52.1529 57.486 53.3549 54.0135C52.6203 53.9468 51.819 53.9468 51.0176 53.9468C51.0176 53.9468 48.213 61.5594 35.5253 61.5594C22.8375 61.5594 20.2332 53.88 20.2332 53.88C20.2332 53.88 18.8308 53.8132 16.7607 54.0803C17.8292 56.6846 22.1697 64.9651 35.6588 65.0986Z" fill="url(#paint2_linear)"/>
<path d="M35.926 65.2989C35.8593 65.2989 35.7257 65.2989 35.6589 65.2989C22.0363 65.1653 17.5622 56.7513 16.5605 54.147C16.5605 54.0802 16.5605 54.0135 16.5605 53.9467C16.6273 53.8799 16.6941 53.8131 16.7609 53.8131C18.831 53.6128 20.2333 53.6128 20.3001 53.6128C20.4337 53.6128 20.5004 53.6796 20.5004 53.8131C20.5004 53.8799 23.3051 61.2922 35.5922 61.2922C47.946 61.2922 50.8174 53.8799 50.8174 53.8131C50.8842 53.7464 50.951 53.6796 51.0846 53.6796C51.8191 53.6796 52.5537 53.6796 53.4218 53.7463C53.4886 53.7463 53.5553 53.8131 53.6221 53.8799C53.6889 53.9467 53.6889 54.0135 53.6221 54.0802C52.4201 57.4859 48.2799 65.2989 35.926 65.2989ZM35.6589 64.8314C47.5453 64.8982 51.6855 57.6862 53.0211 54.2138C52.3533 54.2138 51.8191 54.147 51.2181 54.147C51.0178 54.6812 50.1497 56.2839 48.2131 57.8866C46.0763 59.6228 42.2031 61.7597 35.5922 61.7597C28.9812 61.7597 25.1081 59.6228 23.038 57.8866C21.1014 56.2839 20.3001 54.6145 20.0998 54.147C19.6991 54.147 18.6306 54.147 17.1615 54.2806C18.3635 57.0852 22.8376 64.6979 35.6589 64.8314Z" fill="#1A1A1A"/>
<path d="M46.544 24.1641C46.4772 24.1641 46.4772 24.1641 46.4105 24.1641C42.4706 22.3611 40.3337 24.0973 40.3337 24.0973C40.2001 24.1641 40.0666 24.1641 39.9998 24.0973C39.933 23.9637 39.933 23.8302 39.9998 23.7634C40.0666 23.6966 42.4038 21.7601 46.6108 23.6966C46.7443 23.7634 46.8111 23.8969 46.7444 24.0305C46.6776 24.0973 46.6108 24.1641 46.544 24.1641Z" fill="#1A1A1A"/>
<path d="M32.7212 40.3242C29.9165 39.8568 28.6478 38.2541 28.581 38.1873C28.5142 38.0538 28.5142 37.9202 28.6477 37.8534C28.7813 37.7867 28.9149 37.7867 28.9816 37.9202C28.9816 37.9202 30.1836 39.4561 32.788 39.8568C32.9215 39.8568 32.9883 39.9903 32.9883 40.1239C32.9215 40.2574 32.8548 40.3242 32.7212 40.3242Z" fill="#1A1A1A"/>
<path d="M23.8393 14.1472C23.8393 14.1472 18.7642 13.3459 18.5639 8.87178C18.3635 4.39768 23.4386 1.45947 27.2449 4.19735C27.2449 4.19735 26.9111 0.724912 30.1832 0.324246C33.4553 -0.0764194 37.2616 1.79335 38.7975 4.9319C38.7975 4.9319 39.7991 -0.61064 44.2065 0.658134C48.6138 1.92691 46.4769 5.66645 46.4769 5.66645C46.4769 5.66645 49.2815 4.73157 50.951 7.20234C52.6204 9.73989 49.8826 12.411 49.8826 12.411C49.8826 12.411 53.355 14.0137 51.8859 17.6864C50.35 21.3592 45.6755 19.3559 45.6755 19.3559C45.6755 19.3559 45.1413 20.4911 43.3383 20.4243C41.5353 20.2908 41.0679 18.421 41.0679 18.421C41.0679 18.421 40.4669 22.0937 36.5938 22.0937C32.7207 22.0937 32.7207 16.5512 32.7207 16.5512C32.7207 16.5512 30.6506 20.0236 26.9111 18.9552C23.1715 17.82 23.8393 14.1472 23.8393 14.1472Z" fill="url(#paint3_linear)"/>
<path d="M36.5939 22.2942C33.3886 22.2942 32.654 18.755 32.5205 17.2191C31.7192 18.2208 29.7158 20.0238 26.8444 19.1556C23.5055 18.2208 23.5055 15.2158 23.5723 14.3477C22.5706 14.1473 18.4972 12.9453 18.3636 8.8719C18.2969 6.66824 19.4321 4.59812 21.3686 3.59646C23.1716 2.5948 25.3085 2.66158 27.0447 3.73002C27.1115 2.72836 27.5122 0.391144 30.1833 0.0572565C33.4554 -0.343409 36.9946 1.39281 38.7976 4.19746C39.0647 3.26258 39.7324 1.59314 41.1348 0.725032C42.0697 0.124034 43.1381 -0.00952109 44.4069 0.391144C45.8092 0.79181 46.7441 1.52636 47.1448 2.46124C47.5454 3.52968 47.2783 4.6649 47.0112 5.2659C47.9461 5.13234 49.9494 5.06558 51.285 7.0689C52.7541 9.27256 51.0179 11.6098 50.4169 12.3443C51.285 12.8785 53.5554 14.6148 52.2199 17.7533C51.8192 18.755 51.1514 19.4228 50.2165 19.8234C48.5471 20.4912 46.477 19.8902 45.876 19.6899C45.6089 20.0238 44.9411 20.7583 43.4052 20.6915C42.2032 20.6248 41.5355 19.8234 41.2016 19.2224C40.6674 20.2241 39.5321 22.2942 36.5939 22.2942ZM32.7208 16.2174H32.7876C32.9211 16.2174 32.9879 16.351 32.9879 16.4845C32.9879 16.5513 33.0547 21.76 36.5939 21.76C40.1999 21.76 40.8009 18.4211 40.8009 18.2875C40.8009 18.154 40.9345 18.0872 41.068 18.0872C41.2016 18.0872 41.2683 18.154 41.3351 18.2875C41.3351 18.3543 41.7358 19.957 43.3384 20.0905C44.9411 20.1573 45.4085 19.2224 45.4753 19.2224C45.5421 19.0889 45.6756 19.0221 45.8092 19.0889C45.8092 19.0889 48.2132 20.0905 50.0162 19.356C50.8175 19.0221 51.3518 18.4211 51.7524 17.6198C53.1548 14.2141 50.0162 12.745 49.8827 12.6782C49.8159 12.6114 49.7491 12.5447 49.7491 12.4779C49.7491 12.4111 49.7491 12.3443 49.8159 12.2775C49.9494 12.144 52.4202 9.74001 50.8843 7.40279C49.3484 5.06558 46.7441 5.93368 46.6773 5.93368C46.6105 6.00045 46.477 5.93368 46.4102 5.8669C46.3434 5.80013 46.3434 5.66657 46.4102 5.59979C46.4102 5.59979 47.2783 4.06391 46.7441 2.72836C46.4102 1.92703 45.6089 1.32602 44.3401 0.925357C43.2716 0.591469 42.27 0.72503 41.4687 1.19247C39.7324 2.26091 39.1982 4.93202 39.1982 4.99879C39.1982 5.13235 39.0647 5.19913 38.9979 5.19913C38.8643 5.19913 38.7976 5.13235 38.7308 5.06558C37.2617 2.12736 33.5889 0.190804 30.3168 0.591469C27.3786 0.992135 27.5789 4.06391 27.6457 4.19746C27.6457 4.26424 27.5789 4.39779 27.5121 4.46457C27.4454 4.53135 27.3118 4.53135 27.245 4.46457C25.5756 3.26257 23.4387 3.12902 21.7025 4.13068C19.8995 5.06557 18.8978 6.93534 18.9646 9.00545C19.165 13.2124 23.8394 14.0138 23.9729 14.0138C24.0397 14.0138 24.1065 14.0805 24.1065 14.1473C24.1733 14.2141 24.1733 14.2809 24.1733 14.3477C24.1733 14.4812 23.5723 17.8201 27.0447 18.8218C30.5172 19.8234 32.5205 16.6849 32.5872 16.5513C32.5872 16.2842 32.654 16.2174 32.7208 16.2174Z" fill="#1A1A1A"/>
<defs>
<linearGradient id="paint0_linear" x1="35.6566" y1="8.20361" x2="35.6566" y2="24.5649" gradientUnits="userSpaceOnUse">
<stop stop-color="#725227"/>
<stop offset="1" stop-color="#725227" stop-opacity="0"/>
</linearGradient>
<linearGradient id="paint1_linear" x1="0.200195" y1="69.804" x2="71.7042" y2="69.804" gradientUnits="userSpaceOnUse">
<stop stop-color="#84FAB0"/>
<stop offset="1" stop-color="#8FD3F4"/>
</linearGradient>
<linearGradient id="paint2_linear" x1="16.7607" y1="59.4864" x2="53.3549" y2="59.4864" gradientUnits="userSpaceOnUse">
<stop stop-color="#84FAB0"/>
<stop offset="1" stop-color="#8FD3F4"/>
</linearGradient>
<linearGradient id="paint3_linear" x1="35.4032" y1="0.270508" x2="35.4032" y2="22.0937" gradientUnits="userSpaceOnUse">
<stop stop-color="#392914"/>
<stop offset="1" stop-opacity="0.89"/>
</linearGradient>
</defs>
</svg>
