<svg id="Group_223" data-name="Group 223" xmlns="http://www.w3.org/2000/svg" xmlns:xlink="http://www.w3.org/1999/xlink" width="145.734" height="176.415" viewBox="0 0 145.734 176.415">
  <defs>
    <clipPath id="clip-path">
      <rect id="Rectangle_2504" data-name="Rectangle 2504" width="145.734" height="176.415" rx="10" fill="none"/>
    </clipPath>
    <clipPath id="clip-path-2">
      <path id="Path_285" data-name="Path 285" d="M243.158,159.311s.451-37.924,41.046-37.908l.005-11.079s8.23,6.3,30.56,6.31,30.553-6.284,30.553-6.284l.421,11.08s43.167-1.687,43.149,37.943,1.906,43.465,1.906,43.465l-147.66-.063Z" transform="translate(-243.139 -110.324)" fill="none"/>
    </clipPath>
  </defs>
  <g id="Group_222" data-name="Group 222" clip-path="url(#clip-path)">
    <g id="Group_221" data-name="Group 221" transform="translate(-0.146 22.871)">
      <g id="Group_207" data-name="Group 207" transform="translate(12.619)">
        <path id="Path_237" data-name="Path 237" d="M286.378,139.016s-12.048-2.563-11.076-12.363c0,0-15.653,5.959-17.78-3.417s4.694-12.34,4.694-12.34-10.226-.872-9.8-10.246,8.953-9.8,8.953-9.8-3.406-7.246,3.84-10.225c0,0-7.24-11.083,2.138-18.323s15.7-2.975,15.7-2.975-1.2-8.949,5.191-12.356,13.625,7.677,13.625,7.677,2.978-5.539,10.869-4.683,7.891,5.542,7.891,5.542,2.542-7.243,9.153-5.962,4.151,10.229,4.151,10.229,11.41-10.649,19.5-2.549-.007,18.75-.007,18.75,10.226.857,11.5,10.658-7.25,14.058-7.25,14.058,9.8,8.558,3.4,16.636-12.787,6.8-12.787,6.8,4.7,13.211-9.374,14.91S286.378,139.016,286.378,139.016Z" transform="translate(-251.895 -45.804)" fill="#ffde0a"/>
        <path id="Path_238" data-name="Path 238" d="M319.406,140.432c-15.52,0-32.658-.756-32.914-.767a.6.6,0,0,1-.084-.011c-.121-.026-11.839-2.631-11.53-12.123-2.375.8-9.795,2.954-14.344.515a6.568,6.568,0,0,1-3.373-4.558c-1.619-7.138,1.826-10.759,3.773-12.181-2.877-.648-9.238-2.943-8.889-10.542.372-8.113,6.63-9.844,8.745-10.2a9.044,9.044,0,0,1-.109-6.076,7.345,7.345,0,0,1,3.934-3.961c-1.295-2.319-5.911-11.952,2.559-18.491,7.657-5.913,13.329-4.393,15.422-3.459-.124-2.47.1-9.023,5.537-11.92,5.883-3.133,12.167,4.848,13.862,7.221,1.128-1.5,4.475-4.989,10.926-4.284,5.426.588,7.326,2.929,7.991,4.522,1.164-2.131,4-5.919,9.1-4.935a5.641,5.641,0,0,1,3.907,2.571c1.352,2.18,1.194,5.109.933,6.841,3.155-2.461,12.254-8.421,19.079-1.592,7.107,7.114,2.149,16.179.509,18.726,2.538.473,10.035,2.571,11.128,10.977,1.1,8.46-4.931,12.983-6.913,14.225,1.966,1.969,8.7,9.607,2.959,16.853-5.256,6.64-10.5,7.154-12.477,7.065.475,1.765,1.333,6.264-.936,9.927-1.693,2.732-4.75,4.382-9.087,4.9A188.611,188.611,0,0,1,319.406,140.432Zm-32.824-1.785c1.518.067,38.755,1.672,52.4.023,4.013-.485,6.819-1.974,8.341-4.43,2.574-4.156.633-9.747.614-9.8a.508.508,0,0,1,.1-.5.515.515,0,0,1,.485-.169c.06.01,6.185,1.093,12.288-6.614,6.023-7.608-3.244-15.852-3.339-15.933a.511.511,0,0,1,.108-.842c.335-.167,8.184-4.223,6.972-13.536-1.207-9.286-10.939-10.207-11.035-10.216a.513.513,0,0,1-.365-.818c.32-.421,7.732-10.394.054-18.078-7.647-7.652-18.686,2.457-18.794,2.56a.511.511,0,0,1-.842-.508c.012-.048,1.242-4.646-.524-7.488a4.661,4.661,0,0,0-3.23-2.105c-6.1-1.182-8.55,5.563-8.575,5.629a.5.5,0,0,1-.568.335.511.511,0,0,1-.425-.5c0-.169-.143-4.244-7.436-5.034-7.457-.814-10.334,4.364-10.363,4.416a.51.51,0,0,1-.428.268.487.487,0,0,1-.449-.23c-.071-.108-7.055-10.654-12.959-7.506-6,3.2-4.936,11.752-4.924,11.837a.511.511,0,0,1-.791.492c-.248-.165-6.155-3.949-15.1,2.956A11.086,11.086,0,0,0,263.4,74.233a18.592,18.592,0,0,0,2.371,6.253.511.511,0,0,1-.233.752,6.6,6.6,0,0,0-3.91,3.624,8.452,8.452,0,0,0,.339,5.913.513.513,0,0,1-.437.727c-.328.018-8.065.526-8.469,9.31-.4,8.767,8.933,9.68,9.331,9.716a.511.511,0,0,1,.161.976c-.263.114-6.4,2.93-4.4,11.758a5.592,5.592,0,0,0,2.861,3.884c4.947,2.653,14.146-.8,14.24-.831a.51.51,0,0,1,.689.527C275.055,135.813,285.847,138.476,286.582,138.647Z" transform="translate(-252.031 -45.942)" fill="#1a1a1a"/>
      </g>
      <g id="Group_208" data-name="Group 208" transform="translate(34.258 50.291)">
        <path id="Path_239" data-name="Path 239" d="M277.246,83.472s-8.948-1.6-8.949,3.831,8.947,5.117,8.947,5.117Z" transform="translate(-267.786 -82.738)" fill="#fff"/>
        <path id="Path_240" data-name="Path 240" d="M277.075,93.07c-1.219,0-5.525-.159-7.77-2.329a4.418,4.418,0,0,1-1.384-3.3,3.886,3.886,0,0,1,1.386-3.129c2.6-2.171,7.939-1.245,8.164-1.205a.512.512,0,0,1,.422.5l0,8.948a.512.512,0,0,1-.493.511C277.368,93.068,277.255,93.07,277.075,93.07ZM274.583,83.9a7.511,7.511,0,0,0-4.62,1.194,2.873,2.873,0,0,0-1.02,2.346,3.4,3.4,0,0,0,1.07,2.568c1.844,1.782,5.526,2.015,6.855,2.04l0-8A18.231,18.231,0,0,0,274.583,83.9Z" transform="translate(-267.922 -82.874)" fill="#1a1a1a"/>
      </g>
      <g id="Group_209" data-name="Group 209" transform="translate(102.634 50.318)">
        <path id="Path_241" data-name="Path 241" d="M318.513,83.489s8.949-1.593,8.948,3.84-8.951,5.109-8.951,5.109Z" transform="translate(-317.999 -82.758)" fill="#fff"/>
        <path id="Path_242" data-name="Path 242" d="M318.96,93.089c-.188,0-.3,0-.334,0a.51.51,0,0,1-.492-.511l0-8.949a.51.51,0,0,1,.421-.5c.226-.041,5.568-.963,8.162,1.212a3.887,3.887,0,0,1,1.385,3.131,4.43,4.43,0,0,1-1.386,3.3C324.479,92.927,320.194,93.089,318.96,93.089Zm.2-9.023,0,8c1.329-.022,5.011-.252,6.856-2.033a3.4,3.4,0,0,0,1.073-2.565,2.878,2.878,0,0,0-1.02-2.349C324.215,83.565,320.424,83.9,319.16,84.066Z" transform="translate(-318.135 -82.894)" fill="#1a1a1a"/>
      </g>
      <g id="Group_210" data-name="Group 210" transform="translate(43.188 52.24)">
        <path id="Path_243" data-name="Path 243" d="M274.873,86.789l-.018,41.334,31.67,5.979,24.969-8.18.018-41.239Z" transform="translate(-274.344 -84.169)" fill="#fff"/>
        <path id="Path_244" data-name="Path 244" d="M306.662,134.748a.552.552,0,0,1-.1-.008l-31.67-5.979a.512.512,0,0,1-.417-.5l.018-41.334a.509.509,0,0,1,.492-.509l56.639-2.107a.445.445,0,0,1,.373.142.515.515,0,0,1,.157.368l-.018,41.24a.509.509,0,0,1-.353.485l-24.969,8.181A.517.517,0,0,1,306.662,134.748Zm-31.16-6.912,31.125,5.876,24.493-8.025.018-40.34-55.618,2.068Z" transform="translate(-274.48 -84.305)" fill="#1a1a1a"/>
      </g>
      <g id="Group_211" data-name="Group 211" transform="translate(75.661 52.243)">
        <path id="Path_245" data-name="Path 245" d="M322.874,111.986S310.59,122.2,298.7,121.649l4.441-31.394,19.744-5.572Z" transform="translate(-298.191 -84.172)" fill="#392914"/>
        <path id="Path_246" data-name="Path 246" d="M299.787,122.317q-.486,0-.974-.023a.511.511,0,0,1-.369-.184.505.505,0,0,1-.112-.4l4.441-31.394a.507.507,0,0,1,.366-.419l19.744-5.572a.517.517,0,0,1,.447.084.511.511,0,0,1,.2.407l-.012,27.3a.513.513,0,0,1-.184.394C322.842,112.925,311.409,122.317,299.787,122.317Zm-.365-1.025c.116,0,.231,0,.346,0,10.5,0,21.206-8.2,22.731-9.416l.012-26.385-18.774,5.3Zm23.588-9.17h0Z" transform="translate(-298.327 -84.307)" fill="#1a1a1a"/>
      </g>
      <g id="Group_212" data-name="Group 212" transform="translate(41.118 18.994)">
        <path id="Path_247" data-name="Path 247" d="M274.793,79.427S263.151,130.983,305.132,131s27.194-68.169,27.194-68.169l-29.272-2.568Z" transform="translate(-272.833 -59.755)" fill="#fff"/>
        <path id="Path_248" data-name="Path 248" d="M305.275,131.647h-.016c-10.916,0-19.226-3.481-24.7-10.331-12.017-15.039-6.2-41.6-6.137-41.865a.512.512,0,0,1,.211-.31l28.263-19.164a.543.543,0,0,1,.331-.086l29.272,2.57a.512.512,0,0,1,.455.4c.087.406,8.616,40.748-6.393,59.352C321.508,128.473,314.347,131.647,305.275,131.647Zm-29.9-51.777c-.5,2.432-5.192,26.827,5.983,40.811,5.27,6.595,13.312,9.941,23.9,9.945h.016c8.749,0,15.642-3.045,20.488-9.053,13.949-17.291,7.082-54.049,6.265-58.128l-28.712-2.521Z" transform="translate(-272.96 -59.89)" fill="#1a1a1a"/>
      </g>
      <path id="Path_249" data-name="Path 249" d="M243.158,159.311s.451-37.924,41.046-37.908l.005-11.079s8.23,6.3,30.56,6.31,30.553-6.284,30.553-6.284l.421,11.08s43.167-1.687,43.149,37.943,1.906,43.465,1.906,43.465l-147.66-.063Z" transform="translate(-242.628 -22.654)" fill="#fff1c8"/>
      <path id="Path_250" data-name="Path 250" d="M298.39,101.061a41.693,41.693,0,0,1-5.259-.434l-.592-.076a.51.51,0,0,1-.443-.571.5.5,0,0,1,.571-.443l.6.076c2.476.319,6.216.8,8.767-.05,1.521-.505,1.01-9.388-.334-17.327a.51.51,0,1,1,1.006-.17c.69,4.074,2.7,17.45-.35,18.466A12.787,12.787,0,0,1,298.39,101.061Z" transform="translate(-224.921 -33.03)" fill="#1a1a1a"/>
      <g id="Group_213" data-name="Group 213" transform="translate(54.711 52.968)">
        <path id="Path_251" data-name="Path 251" d="M287.152,87.134a1.917,1.917,0,1,1-1.916-1.919A1.918,1.918,0,0,1,287.152,87.134Z" transform="translate(-282.806 -84.704)" fill="#392914"/>
        <path id="Path_252" data-name="Path 252" d="M285.371,89.7h0a2.429,2.429,0,0,1,0-4.857h0a2.431,2.431,0,0,1,2.427,2.429h0a2.427,2.427,0,0,1-2.427,2.428Zm0-3.836a1.407,1.407,0,0,0,0,2.815h0a1.4,1.4,0,0,0,1.405-1.407h0a1.408,1.408,0,0,0-1.405-1.408Z" transform="translate(-282.942 -84.84)" fill="#1a1a1a"/>
      </g>
      <path id="Path_253" data-name="Path 253" d="M279.935,83.3a.511.511,0,0,1-.38-.854c.153-.167,3.813-4.093,12.012-2.011a.51.51,0,1,1-.252.989c-7.605-1.928-10.967,1.672-11,1.708A.509.509,0,0,1,279.935,83.3Z" transform="translate(-229.503 -33.683)" fill="#1a1a1a"/>
      <g id="Group_214" data-name="Group 214" transform="translate(41.336 58.664)">
        <path id="Path_254" data-name="Path 254" d="M276.083,89.4a10.64,10.64,0,0,0-2.589.315,47.362,47.362,0,0,0,2.538,12h.045c4.545,0,8.23-2.755,8.232-6.156S280.628,89.4,276.083,89.4Z" transform="translate(-272.984 -88.887)" fill="#fff1c8"/>
        <path id="Path_255" data-name="Path 255" d="M276.217,102.364h0a.573.573,0,0,1-.524-.338,47.718,47.718,0,0,1-2.567-12.133.511.511,0,0,1,.385-.542,11.338,11.338,0,0,1,2.711-.328h0c4.819,0,8.738,3,8.737,6.674a5.968,5.968,0,0,1-2.616,4.763A10.257,10.257,0,0,1,276.217,102.364ZM274.18,90.247a46.728,46.728,0,0,0,2.345,11.088,9.136,9.136,0,0,0,5.2-1.694,4.971,4.971,0,0,0,2.207-3.945c0-3.116-3.46-5.651-7.715-5.653A10.318,10.318,0,0,0,274.18,90.247Z" transform="translate(-273.119 -89.023)" fill="#1a1a1a"/>
      </g>
      <g id="Group_215" data-name="Group 215" transform="translate(87.296 52.983)">
        <path id="Path_256" data-name="Path 256" d="M307.246,87.142a1.917,1.917,0,1,0,1.917-1.916A1.916,1.916,0,0,0,307.246,87.142Z" transform="translate(-306.735 -84.715)" fill="#392914"/>
        <path id="Path_257" data-name="Path 257" d="M309.3,89.707a2.427,2.427,0,0,1-2.427-2.429h0a2.427,2.427,0,0,1,2.427-2.427h0a2.428,2.428,0,1,1,0,4.856Zm0-3.835a1.407,1.407,0,0,0,0,2.813,1.407,1.407,0,1,0,0-2.813Z" transform="translate(-306.871 -84.851)" fill="#1a1a1a"/>
      </g>
      <path id="Path_258" data-name="Path 258" d="M316.776,83.318a.511.511,0,0,1-.377-.166c-.138-.148-3.438-3.633-11-1.717a.511.511,0,0,1-.249-.991C313.34,78.373,317,82.3,317.156,82.467a.51.51,0,0,1-.38.851Z" transform="translate(-220.339 -33.68)" fill="#1a1a1a"/>
      <g id="Group_216" data-name="Group 216" transform="translate(93.682 58.689)">
        <path id="Path_259" data-name="Path 259" d="M311.936,95.572c0,2.674,2.281,4.946,5.463,5.8a57.732,57.732,0,0,0,2.764-11.955C315.621,89.416,311.937,92.172,311.936,95.572Z" transform="translate(-311.425 -88.905)" fill="#fff1c8"/>
        <path id="Path_260" data-name="Path 260" d="M317.535,102.017A.539.539,0,0,1,317.4,102c-3.5-.937-5.843-3.466-5.842-6.293h0c0-3.677,3.922-6.667,8.738-6.667a.509.509,0,0,1,.507.576,58.244,58.244,0,0,1-2.79,12.062A.512.512,0,0,1,317.535,102.017Zm2.179-11.938c-3.982.219-7.13,2.661-7.131,5.629h0c0,2.24,1.841,4.274,4.631,5.172A57.207,57.207,0,0,0,319.714,90.079Zm-7.642,5.629h0Z" transform="translate(-311.561 -89.041)" fill="#1a1a1a"/>
      </g>
      <g id="Group_217" data-name="Group 217" transform="translate(76.115 68.856)">
        <path id="Path_261" data-name="Path 261" d="M299.035,104.642s9.588-.635,11.669-7.186c0,0-3.355-1.28-4.155,0a31.025,31.025,0,0,0-1.68,3.31s-2.241-2.311-3.914-1.379C299.531,100.178,299.035,104.642,299.035,104.642Z" transform="translate(-298.525 -96.371)" fill="#725227"/>
        <path id="Path_262" data-name="Path 262" d="M299.17,105.29a.51.51,0,0,1-.507-.566c.087-.79.6-4.77,2.177-5.647,1.453-.806,3.135.286,3.984.978a26.645,26.645,0,0,1,1.426-2.733c.972-1.555,4.142-.445,4.77-.206a.512.512,0,0,1,.3.632c-2.161,6.806-11.715,7.514-12.121,7.541Zm2.8-5.475a1.279,1.279,0,0,0-.628.154c-.727.406-1.315,2.538-1.576,4.234,2.048-.27,8.523-1.488,10.423-6.294-1.181-.369-2.723-.592-3.068-.046a30.443,30.443,0,0,0-1.644,3.244.511.511,0,0,1-.836.153A4.65,4.65,0,0,0,301.966,99.814Z" transform="translate(-298.66 -96.508)" fill="#1a1a1a"/>
      </g>
      <path id="Path_263" data-name="Path 263" d="M272.331,68.129s-8.057,13.594,3.24,15.349,13.7-7.668,13.7-7.668,2.55,13.42,12.3,10.868S308.6,69.263,308.6,69.263s1.595,7.191,10.224,7.514,10.694-4.948,10.694-4.948-1.43,14.061,12.953,14.227l-1.762-24.982-46.644-3Z" transform="translate(-233.076 -41.555)" fill="#ffde0a"/>
      <path id="Path_264" data-name="Path 264" d="M299.321,84.975a7.9,7.9,0,0,1-4.295-1.243c-3.381-2.135-5.048-6.453-5.731-8.789-1.29,2.7-4.949,7.854-13.668,6.5-2.9-.451-4.852-1.7-5.8-3.715-2.255-4.78,2.019-12.091,2.2-12.4a.51.51,0,1,1,.878.52c-.042.071-4.182,7.156-2.157,11.445.8,1.687,2.491,2.744,5.034,3.139,10.687,1.664,13.029-6.923,13.124-7.291a.517.517,0,0,1,.511-.383.511.511,0,0,1,.485.414c.014.071,1.378,6.984,5.67,9.693a7.347,7.347,0,0,0,6,.778c9.185-2.4,6.691-16.687,6.666-16.829a.511.511,0,0,1,.4-.592.517.517,0,0,1,.6.389c.063.278,1.63,6.811,9.744,7.116,8.151.3,10.18-4.577,10.2-4.626a.511.511,0,0,1,.983.237c-.005.06-.556,6.015,3.015,10.006,2.13,2.382,5.3,3.613,9.435,3.66a.511.511,0,0,1,.505.517.525.525,0,0,1-.516.5c-4.434-.052-7.864-1.4-10.192-4.008a14.443,14.443,0,0,1-3.293-8.942c-1.362,1.633-4.317,3.9-10.175,3.671a11.047,11.047,0,0,1-9.4-5.036c.208,4.624-.46,13.019-7.714,14.919A9.876,9.876,0,0,1,299.321,84.975Z" transform="translate(-233.212 -39.019)" fill="#1a1a1a"/>
      <g id="Group_220" data-name="Group 220" transform="translate(0.511 87.67)">
        <g id="Group_219" data-name="Group 219" clip-path="url(#clip-path-2)">
          <g id="Group_218" data-name="Group 218" transform="translate(4.441 0.749)">
            <path id="Path_265" data-name="Path 265" d="M297.375,184.2a.51.51,0,0,1-.5-.429c-.8-4.932-2.15-66.067-2.207-68.666a.511.511,0,0,1,.5-.522.5.5,0,0,1,.522.5c.014.637,1.4,63.662,2.194,68.525a.512.512,0,0,1-.422.587A.585.585,0,0,1,297.375,184.2Z" transform="translate(-228.942 -109.532)" fill="#1a1a1a"/>
            <path id="Path_266" data-name="Path 266" d="M289.806,185.155a.509.509,0,0,1-.489-.365c-1.443-4.816-.053-67.063.007-69.711a.535.535,0,0,1,.523-.5.509.509,0,0,1,.5.522c-.014.647-1.448,64.732-.05,69.395a.511.511,0,0,1-.343.636A.485.485,0,0,1,289.806,185.155Z" transform="translate(-231.113 -109.533)" fill="#1a1a1a"/>
            <path id="Path_267" data-name="Path 267" d="M282.634,182.594a.511.511,0,0,1-.507-.448c-1.265-10.157,2.017-64.769,2.157-67.088a.535.535,0,0,1,.541-.479.511.511,0,0,1,.479.541c-.035.566-3.417,56.837-2.164,66.9a.511.511,0,0,1-.443.571A.52.52,0,0,1,282.634,182.594Z" transform="translate(-233.582 -109.534)" fill="#1a1a1a"/>
            <path id="Path_268" data-name="Path 268" d="M278.168,183.275a.511.511,0,0,1-.5-.417c-2.113-11.231,2.387-67.317,2.58-69.7a.52.52,0,0,1,.549-.468.511.511,0,0,1,.468.55c-.048.583-4.683,58.331-2.594,69.429a.511.511,0,0,1-.407.6A.563.563,0,0,1,278.168,183.275Z" transform="translate(-235.294 -110.217)" fill="#1a1a1a"/>
            <path id="Path_269" data-name="Path 269" d="M272.577,185.32a.511.511,0,0,1-.508-.459c-1.054-10.477,4.845-70.41,5.1-72.957a.51.51,0,0,1,1.016.1c-.061.624-6.14,62.378-5.1,72.754a.508.508,0,0,1-.456.558A.34.34,0,0,1,272.577,185.32Z" transform="translate(-237.161 -110.667)" fill="#1a1a1a"/>
            <path id="Path_270" data-name="Path 270" d="M266.791,185.353a.509.509,0,0,1-.508-.464c-1.264-13.964,6.415-64.206,6.743-66.339a.516.516,0,0,1,.583-.426.508.508,0,0,1,.426.581c-.079.522-7.988,52.251-6.735,66.091a.512.512,0,0,1-.463.556Z" transform="translate(-239.259 -108.253)" fill="#1a1a1a"/>
            <path id="Path_271" data-name="Path 271" d="M262.125,182.719a.509.509,0,0,1-.507-.451c-1.689-14.5,5.958-61.241,6.283-63.223a.511.511,0,0,1,1.008.166c-.079.483-7.948,48.582-6.276,62.939a.511.511,0,0,1-.448.566Z" transform="translate(-240.983 -108.073)" fill="#1a1a1a"/>
            <path id="Path_272" data-name="Path 272" d="M257.563,183.256a.51.51,0,0,1-.509-.486c-1.257-25.758,5.9-62.216,5.975-62.581a.517.517,0,0,1,.6-.4.51.51,0,0,1,.4.6c-.072.364-7.206,36.7-5.956,62.333a.511.511,0,0,1-.486.534Z" transform="translate(-242.6 -107.653)" fill="#1a1a1a"/>
            <path id="Path_273" data-name="Path 273" d="M252.52,181.459a.512.512,0,0,1-.511-.5c-.636-22.906,5.687-58.1,5.751-58.457a.52.52,0,0,1,.594-.411.511.511,0,0,1,.411.594c-.064.351-6.367,35.448-5.734,58.246a.513.513,0,0,1-.5.526Z" transform="translate(-244.388 -106.818)" fill="#1a1a1a"/>
            <path id="Path_274" data-name="Path 274" d="M247.086,182.034a.511.511,0,0,1-.509-.479c-1.258-20.491,4.615-53.543,4.675-53.875a.511.511,0,0,1,1,.181c-.059.33-5.911,33.263-4.66,53.631a.512.512,0,0,1-.478.542Z" transform="translate(-246.4 -104.946)" fill="#1a1a1a"/>
            <path id="Path_275" data-name="Path 275" d="M303.824,185.16H303.8a.51.51,0,0,1-.489-.531c.848-20.6-4.6-68.99-4.656-69.476a.511.511,0,0,1,1.014-.116c.056.488,5.514,48.954,4.661,69.634A.512.512,0,0,1,303.824,185.16Z" transform="translate(-227.499 -109.531)" fill="#1a1a1a"/>
            <path id="Path_276" data-name="Path 276" d="M308.821,185.163a.549.549,0,0,1-.067,0,.512.512,0,0,1-.441-.572c1.842-14.261-4.119-68.883-4.179-69.433a.511.511,0,0,1,.452-.564.5.5,0,0,1,.562.452c.061.551,6.035,55.294,4.178,69.675A.511.511,0,0,1,308.821,185.163Z" transform="translate(-225.518 -109.531)" fill="#1a1a1a"/>
            <path id="Path_277" data-name="Path 277" d="M314.622,185.584a.4.4,0,0,1-.057,0,.511.511,0,0,1-.452-.562c2.319-20.992-5.757-70.5-5.839-71a.51.51,0,0,1,.421-.587.5.5,0,0,1,.587.421c.082.5,8.18,50.143,5.847,71.272A.511.511,0,0,1,314.622,185.584Z" transform="translate(-224.022 -109.95)" fill="#1a1a1a"/>
            <path id="Path_278" data-name="Path 278" d="M319.78,186.021l-.065,0a.511.511,0,0,1-.443-.571c2.749-21.827-6.283-72.114-6.374-72.619a.511.511,0,0,1,1-.182c.093.508,9.152,50.947,6.382,72.928A.51.51,0,0,1,319.78,186.021Z" transform="translate(-222.35 -110.384)" fill="#1a1a1a"/>
            <path id="Path_279" data-name="Path 279" d="M326.8,186.515h-.049a.512.512,0,0,1-.46-.557c1.408-14.882-9.923-73.879-10.037-74.474a.511.511,0,1,1,1-.192c.47,2.431,11.471,59.735,10.051,74.763A.51.51,0,0,1,326.8,186.515Z" transform="translate(-221.137 -110.874)" fill="#1a1a1a"/>
            <path id="Path_280" data-name="Path 280" d="M331.168,183.826h-.042a.51.51,0,0,1-.467-.55c1.687-20.774-7.946-63.9-8.042-64.336a.51.51,0,1,1,1-.225c.1.436,9.765,43.715,8.064,64.644A.51.51,0,0,1,331.168,183.826Z" transform="translate(-218.836 -108.182)" fill="#1a1a1a"/>
            <path id="Path_281" data-name="Path 281" d="M335.787,183.443a.53.53,0,0,1-.1-.01.512.512,0,0,1-.4-.6c2.725-13.382-6.5-62.35-6.594-62.843a.511.511,0,0,1,1-.191c.383,2.021,9.354,49.661,6.591,63.237A.512.512,0,0,1,335.787,183.443Z" transform="translate(-216.637 -107.796)" fill="#1a1a1a"/>
            <path id="Path_282" data-name="Path 282" d="M341.163,182.042a.5.5,0,0,1-.125-.016.511.511,0,0,1-.37-.62c3.555-14.092-7.867-59.7-7.982-60.157a.51.51,0,1,1,.99-.249c.475,1.883,11.6,46.315,7.982,60.655A.511.511,0,0,1,341.163,182.042Z" transform="translate(-215.195 -107.35)" fill="#1a1a1a"/>
            <path id="Path_283" data-name="Path 283" d="M346.7,181.248a.721.721,0,0,1-.076-.005.513.513,0,0,1-.43-.581c1.887-12.644-8.693-56.769-8.8-57.213a.511.511,0,0,1,.994-.24c.438,1.822,10.733,44.762,8.818,57.6A.512.512,0,0,1,346.7,181.248Z" transform="translate(-213.49 -106.553)" fill="#1a1a1a"/>
            <path id="Path_284" data-name="Path 284" d="M351.823,179.8h-.035a.51.51,0,0,1-.475-.543c.631-9.3-8.539-51.389-8.632-51.813a.51.51,0,1,1,1-.218c.38,1.738,9.3,42.654,8.654,52.1A.51.51,0,0,1,351.823,179.8Z" transform="translate(-211.578 -105.104)" fill="#1a1a1a"/>
          </g>
        </g>
      </g>
      <path id="Path_286" data-name="Path 286" d="M390.934,203.484h0l-147.66-.063a.511.511,0,0,1-.511-.511l.019-43.465v-.005c0-.383.919-38.11,41.046-38.411l.006-10.57a.51.51,0,0,1,.82-.406c.082.063,8.407,6.2,30.251,6.205h.048c21.808,0,30.114-6.118,30.2-6.179a.518.518,0,0,1,.527-.056.513.513,0,0,1,.293.443l.4,10.581c3.24,0,21.269.434,32.9,11.628,6.817,6.558,10.27,15.586,10.265,26.834-.016,38.45,1.782,43.074,1.859,43.251a.519.519,0,0,1-.04.489A.512.512,0,0,1,390.934,203.484ZM243.785,202.4l146.476.063c-.513-2.282-1.758-11.1-1.744-42.954.005-10.959-3.343-19.74-9.951-26.1-12.454-11.982-32.47-11.342-32.668-11.335a.485.485,0,0,1-.366-.135.514.514,0,0,1-.163-.355l-.385-10.173c-2.531,1.532-11.349,5.869-30.029,5.869h-.049c-18.632-.008-27.47-4.319-30.05-5.873l0,10.131a.5.5,0,0,1-.15.361.51.51,0,0,1-.361.15h-.029c-16.62,0-28.487,6.286-35.27,18.681a44.811,44.811,0,0,0-5.237,18.72Z" transform="translate(-242.764 -22.789)" fill="#1a1a1a"/>
    </g>
  </g>
</svg>
