<svg xmlns="http://www.w3.org/2000/svg" xmlns:xlink="http://www.w3.org/1999/xlink" width="163.59" height="158.763" viewBox="0 0 163.59 158.763"><defs><style>.a{fill:url(#a);}.b{fill:url(#b);}.as,.c,.cd{fill:url(#c);}.d{fill:url(#d);}.e{fill:url(#e);}.f{fill:#0c0816;}.g{fill:url(#g);}.ay,.h,.k{opacity:0.2;}.ay,.az,.ba,.bb,.bd,.be,.bs,.h,.k,.m,.n,.o,.p,.q,.r,.u,.v{mix-blend-mode:screen;}.ai,.as,.ay,.az,.ba,.bb,.bd,.be,.bp,.bs,.cd,.h,.k,.m,.n,.o,.p,.q,.r,.u,.v,.w{isolation:isolate;}.h{fill:url(#h);}.aw,.bc,.i{fill:#fff;}.i{opacity:0.5;}.j{fill:#ede9ff;opacity:0.85;}.k{fill:url(#i);}.l{fill:url(#j);}.m{opacity:0.49;}.m,.s{fill:url(#k);}.n{fill:url(#l);}.o{fill:url(#m);}.p{fill:url(#n);}.q{fill:url(#o);}.r{fill:url(#p);}.t{fill:#1a2023;}.u{fill:url(#x);}.v{fill:url(#y);}.w{fill:#4b007f;}.bb,.cd,.w{opacity:0.4;}.ai,.bp,.cd,.w{mix-blend-mode:multiply;}.x{fill:#ff9b96;}.y{fill:url(#ac);}.z{fill:url(#ad);}.aa{fill:url(#ae);}.ab{fill:url(#af);}.ac{fill:url(#ag);}.ad{fill:#f4c5a2;}.ae{fill:url(#ah);}.af{fill:url(#ai);}.ag{fill:url(#aj);}.ah{fill:url(#ak);}.ai{opacity:0.26;}.aj{fill:url(#al);}.ak{fill:url(#am);}.al{fill:url(#an);}.am{fill:url(#ao);}.an{fill:url(#ap);}.ao{fill:url(#aq);}.ap{fill:#4d5258;}.aq{fill:url(#ar);}.ar,.bp{opacity:0.15;}.as{opacity:0.82;mix-blend-mode:hard-light;}.at{fill:url(#at);}.au{fill:url(#au);}.av{fill:url(#av);}.ax{opacity:0.76;fill:url(#ax);}.ay,.bb{fill:url(#ay);}.az{fill:url(#az);}.ba{fill:url(#ba);}.bc{opacity:0.8;}.bd{fill:url(#bc);}.be{fill:url(#bd);}.bf{fill:url(#be);}.bg{fill:url(#bg);}.bh{fill:#1dbfff;}.bi{fill:url(#bm);}.bj{fill:#40e0d0;}.bk{fill:url(#bn);}.bl{fill:url(#bp);}.bm{fill:url(#bq);}.bn{fill:url(#br);}.bo{fill:url(#bs);}.bq{fill:url(#bu);}.br{fill:url(#bw);}.bs{fill:#fff679;opacity:0.45;}.bt{fill:url(#bx);}.bu{fill:#ffd250;}.bv{fill:#f9ac4c;}.bw{fill:#ffeb58;}.bx{fill:url(#cd);}.by{fill:#ffdd3e;}.bz{fill:url(#ce);}.ca{fill:url(#cf);}.cb{fill:url(#cg);}.cc{opacity:0.89;}.ce{fill:url(#cx);}.cf{fill:url(#cy);}.cg{fill:url(#cz);}.ch{fill:url(#da);}.ci{fill:url(#dj);}.cj{fill:url(#dr);}.ck{fill:url(#ds);}</style><linearGradient id="a" x1="0.5" x2="0.5" y2="1" gradientUnits="objectBoundingBox"><stop offset="0" stop-color="#a8ff78"/><stop offset="1" stop-color="#78ffd6"/></linearGradient><linearGradient id="b" x1="0.702" y1="0.5" x2="-0.411" y2="0.5" gradientUnits="objectBoundingBox"><stop offset="0" stop-color="#1a2023"/><stop offset="1" stop-color="#4d5258"/></linearGradient><radialGradient id="c" cx="0.5" cy="0.5" r="0.5" gradientUnits="objectBoundingBox"><stop offset="0" stop-color="#efefa9"/><stop offset="1" stop-color="#57cba1"/></radialGradient><linearGradient id="d" x1="0.004" y1="0.367" x2="1.165" y2="0.767" gradientUnits="objectBoundingBox"><stop offset="0" stop-color="#1dbfff"/><stop offset="0.069" stop-color="#1fb5f9"/><stop offset="0.708" stop-color="#3362cb"/><stop offset="1" stop-color="#3c42b9"/></linearGradient><linearGradient id="e" x1="1.097" y1="0.5" x2="-0.088" y2="0.5" xlink:href="#b"/><linearGradient id="g" x1="0.047" y1="-0.018" x2="1.364" y2="1.488" xlink:href="#b"/><linearGradient id="h" x1="0.047" y1="-0.018" x2="1.037" y2="1.115" gradientUnits="objectBoundingBox"><stop offset="0.416" stop-color="#c0f0ff"/><stop offset="0.438" stop-color="#c5f1ff"/><stop offset="0.466" stop-color="#d4f4ff"/><stop offset="0.497" stop-color="#eefbff"/><stop offset="0.514" stop-color="#fff"/></linearGradient><linearGradient id="i" x1="1.161" y1="0.41" x2="2.151" y2="1.543" xlink:href="#h"/><linearGradient id="j" x1="0.5" y1="-0.858" x2="0.5" y2="1.55" xlink:href="#b"/><linearGradient id="k" x1="0.5" y1="0" x2="0.5" y2="1" xlink:href="#b"/><radialGradient id="l" cx="0.5" cy="0.5" r="1.07" gradientTransform="matrix(0.335, -0.691, -0.154, -0.347, 32.481, 67.348)" gradientUnits="objectBoundingBox"><stop offset="0.026" stop-color="#fffdff"/><stop offset="0.192" stop-color="#b5f"/><stop offset="0.22" stop-color="#ab40f9"/><stop offset="0.277" stop-color="#901df0"/><stop offset="0.324" stop-color="#7f07eb"/><stop offset="0.355" stop-color="#7900e9"/><stop offset="0.4" stop-color="#6000ba"/><stop offset="0.449" stop-color="#4a008e"/><stop offset="0.502" stop-color="#360068"/><stop offset="0.558" stop-color="#250047"/><stop offset="0.619" stop-color="#17002d"/><stop offset="0.685" stop-color="#0d0019"/><stop offset="0.759" stop-color="#05000a"/><stop offset="0.85" stop-color="#010002"/><stop offset="1"/></radialGradient><radialGradient id="m" cx="0.5" cy="0.5" r="1.07" gradientTransform="matrix(0.335, -0.692, -0.154, -0.347, 60.605, 119.182)" xlink:href="#l"/><radialGradient id="n" cx="0.5" cy="0.5" r="0.451" gradientTransform="matrix(0.189, 1, 12.778, -0.003, 1304.673, -1941.738)" xlink:href="#l"/><radialGradient id="o" cx="0.5" cy="0.5" r="0.451" gradientTransform="matrix(0.189, 1, 12.766, -0.003, 1352.764, -1848.109)" xlink:href="#l"/><radialGradient id="p" cx="0.5" cy="0.5" r="1.072" gradientTransform="matrix(0.333, -0.697, -0.155, -0.344, 40.379, 73.653)" xlink:href="#l"/><radialGradient id="x" cx="0.5" cy="0.5" r="1.1" gradientTransform="matrix(-0.332, 0.674, 0.145, 0.354, 22.653, 3.042)" xlink:href="#l"/><radialGradient id="y" cx="0.5" cy="0.5" r="1.099" gradientTransform="matrix(0.322, 0.699, -0.151, 0.343, 25.588, 5.178)" xlink:href="#l"/><linearGradient id="ac" x1="-0.075" y1="-0.003" x2="1.664" y2="1.602" xlink:href="#b"/><linearGradient id="ad" x1="-0.318" y1="-0.271" x2="1.008" y2="0.838" xlink:href="#b"/><linearGradient id="ae" x1="0.5" y1="1.325" x2="0.5" y2="0.363" xlink:href="#b"/><linearGradient id="af" x1="0.5" y1="0.988" x2="0.5" y2="-0.045" xlink:href="#b"/><linearGradient id="ag" x1="0.5" y1="0.081" x2="0.5" y2="1.162" gradientUnits="objectBoundingBox"><stop offset="0" stop-color="#fff"/><stop offset="0.995" stop-color="#e5bfff"/></linearGradient><linearGradient id="ah" x1="0.893" y1="0.814" x2="-0.035" y2="0.053" gradientUnits="objectBoundingBox"><stop offset="0" stop-color="#8dc2f6"/><stop offset="1" stop-color="#c2f6ac"/></linearGradient><linearGradient id="ai" x1="0.5" y1="0.572" x2="0.5" y2="0.125" xlink:href="#ah"/><linearGradient id="aj" x1="0.5" y1="0.989" x2="0.5" y2="0.293" xlink:href="#ah"/><linearGradient id="ak" x1="-0.348" y1="-0.177" x2="0.955" y2="0.892" gradientUnits="objectBoundingBox"><stop offset="0" stop-color="#13002a"/><stop offset="0.218" stop-color="#2a0054"/><stop offset="0.513" stop-color="#4d0094"/><stop offset="0.621" stop-color="#4b0597"/><stop offset="0.757" stop-color="#47149f"/><stop offset="0.907" stop-color="#412eae"/><stop offset="1" stop-color="#3c42b9"/></linearGradient><linearGradient id="al" x1="0.5" y1="1.003" x2="0.5" y2="-0.001" gradientUnits="objectBoundingBox"><stop offset="0" stop-color="#7000aa"/><stop offset="0.198" stop-color="#6120b8"/><stop offset="0.63" stop-color="#3d73dd"/><stop offset="1" stop-color="#1dbfff"/></linearGradient><linearGradient id="am" x1="0.5" y1="1.043" x2="0.5" y2="0.065" xlink:href="#ah"/><linearGradient id="an" x1="-0.005" y1="0.5" x2="1.085" y2="0.5" xlink:href="#b"/><linearGradient id="ao" x1="-0.52" y1="0.5" x2="1.071" y2="0.5" xlink:href="#b"/><linearGradient id="ap" x1="1.079" y1="0.471" x2="0.122" y2="0.824" xlink:href="#ah"/><linearGradient id="aq" x1="-0.141" y1="0.44" x2="0.729" y2="0.81" xlink:href="#ah"/><linearGradient id="ar" x1="-0.018" y1="0.5" x2="1.104" y2="0.5" xlink:href="#b"/><linearGradient id="at" x1="0.747" y1="1.051" x2="-0.111" y2="0.093" xlink:href="#ah"/><linearGradient id="au" x1="-0.335" y1="0.211" x2="0.661" y2="0.716" xlink:href="#ah"/><linearGradient id="av" x1="0.5" y1="0" x2="0.5" y2="1" xlink:href="#ah"/><linearGradient id="ax" x1="0.5" y1="0.826" x2="0.5" y2="-0.06" gradientUnits="objectBoundingBox"><stop offset="0.001" stop-color="#fff"/><stop offset="0.996" stop-color="#57edff" stop-opacity="0"/></linearGradient><linearGradient id="ay" x1="-0.012" y1="0.346" x2="1.036" y2="0.661" xlink:href="#h"/><radialGradient id="az" cx="0.5" cy="0.5" r="1.077" gradientTransform="matrix(-0.239, -0.855, -0.19, 0.251, 124.477, 121.678)" xlink:href="#l"/><radialGradient id="ba" cx="0.5" cy="0.5" r="0.451" gradientTransform="matrix(3.091, 0.974, 6.402, -0.11, -2543.295, -1083.411)" xlink:href="#l"/><radialGradient id="bc" cx="0.5" cy="0.5" r="1.077" gradientTransform="matrix(-0.239, -0.855, -0.19, 0.251, 123.032, 115.647)" xlink:href="#l"/><radialGradient id="bd" cx="0.5" cy="0.5" r="0.451" gradientTransform="matrix(3.09, 0.974, 6.4, -0.11, -2504.125, -1089.672)" xlink:href="#l"/><linearGradient id="be" x1="0.5" y1="1.001" x2="0.5" y2="-0.23" xlink:href="#ah"/><linearGradient id="bg" x1="-0.174" y1="-0.326" x2="1.27" y2="1.443" gradientUnits="objectBoundingBox"><stop offset="0" stop-color="#4d0094"/><stop offset="0.133" stop-color="#4b0597"/><stop offset="0.301" stop-color="#47149f"/><stop offset="0.486" stop-color="#412eae"/><stop offset="0.6" stop-color="#3c42b9"/><stop offset="0.717" stop-color="#3362cb"/><stop offset="0.972" stop-color="#1fb5f9"/><stop offset="1" stop-color="#1dbfff"/></linearGradient><linearGradient id="bm" x1="-0.174" y1="-0.326" x2="1.27" y2="1.443" xlink:href="#a"/><linearGradient id="bn" x1="0.966" y1="0.541" x2="-0.046" y2="0.276" xlink:href="#b"/><linearGradient id="bp" x1="1.858" y1="0.5" x2="0.27" y2="0.5" xlink:href="#b"/><linearGradient id="bq" x1="0.5" y1="0.984" x2="0.5" y2="-0.074" xlink:href="#b"/><linearGradient id="br" x1="0.5" y1="1.092" x2="0.5" y2="0.136" xlink:href="#b"/><linearGradient id="bs" x1="1.333" y1="0.5" x2="-0.001" y2="0.5" xlink:href="#ak"/><linearGradient id="bu" x1="0.5" y1="1.032" x2="0.5" y2="-0.003" xlink:href="#al"/><linearGradient id="bw" y1="0.5" x2="1" y2="0.5" gradientUnits="objectBoundingBox"><stop offset="0" stop-color="#f16a2b"/><stop offset="0.331" stop-color="#e8ac55"/><stop offset="0.719" stop-color="#fde52c"/><stop offset="0.804" stop-color="#fde72f"/><stop offset="0.883" stop-color="#fded3b"/><stop offset="0.96" stop-color="#fef74d"/><stop offset="1" stop-color="#ffff5b"/></linearGradient><linearGradient id="bx" y1="0.5" x2="1" y2="0.5" gradientUnits="objectBoundingBox"><stop offset="0" stop-color="#ffc754"/><stop offset="1" stop-color="#ffff8d"/></linearGradient><linearGradient id="cd" x1="-0.292" y1="0.5" x2="1.019" y2="0.5" gradientUnits="objectBoundingBox"><stop offset="0" stop-color="#ffbe1b"/><stop offset="1" stop-color="#ffff8d"/></linearGradient><linearGradient id="ce" x1="1.197" y1="0.5" x2="-0.251" y2="0.5" gradientUnits="objectBoundingBox"><stop offset="0" stop-color="#f16a2b"/><stop offset="1" stop-color="#e8ac55"/></linearGradient><linearGradient id="cf" x1="-0.007" y1="0.5" x2="0.914" y2="0.5" xlink:href="#ce"/><linearGradient id="cg" x1="-0.676" y1="0.5" x2="1.135" y2="0.5" xlink:href="#bx"/><linearGradient id="cx" x1="0.5" y1="0.044" x2="0.5" y2="0.866" gradientUnits="objectBoundingBox"><stop offset="0" stop-color="#5100ec"/><stop offset="0.163" stop-color="#4f00e2"/><stop offset="0.432" stop-color="#4900c9"/><stop offset="0.771" stop-color="#4100a1"/><stop offset="1" stop-color="#3b0082"/></linearGradient><linearGradient id="cy" y1="0.038" y2="0.989" xlink:href="#a"/><linearGradient id="cz" x1="-40.107" y1="0.044" x2="-40.107" y2="0.866" xlink:href="#b"/><linearGradient id="da" x1="-39.992" y1="0.038" x2="-39.992" y2="0.989" xlink:href="#a"/><linearGradient id="dj" x1="1.197" y1="0.5" x2="-0.251" y2="0.5" xlink:href="#ce"/><linearGradient id="dr" x1="-0.007" y1="0.5" x2="0.914" y2="0.5" xlink:href="#ce"/><linearGradient id="ds" x1="-0.676" y1="0.5" x2="1.135" y2="0.5" xlink:href="#bx"/></defs><g transform="translate(-349.546 -178.708)"><g transform="translate(325.435 150.074)"><g transform="translate(125.395 47.803)"><g transform="translate(0.639 38.022)"><path class="a" d="M534.719,274.415a.544.544,0,0,1-.227-1.039l22.638-10.36V250.792a.544.544,0,0,1,1.087,0v12.573a.545.545,0,0,1-.318.495l-22.955,10.505A.54.54,0,0,1,534.719,274.415Z" transform="translate(-534.174 -250.249)"/></g><path class="b" d="M553.725,231.9a2.157,2.157,0,0,1,1.569,0l31.228,13.421s0,.633,0,.872a.437.437,0,0,1-.31.4l-20.3,9.3a2.152,2.152,0,0,1-1.569,0l-30.895-13.974c-.236-.107-.334-.248-.335-.386,0-.252,0-.91,0-.91Z" transform="translate(-533.115 -204.898)"/><path class="c" d="M553.724,230.324a2.154,2.154,0,0,1,1.569.005l30.9,13.974c.438.2.449.519.021.714l-20.3,9.3a2.155,2.155,0,0,1-1.569-.005l-30.895-13.974c-.439-.2-.449-.518-.021-.714Z" transform="translate(-533.115 -204.275)"/><path class="d" d="M558.366,244.514a1.946,1.946,0,0,1,1.416,0l5.3,2.4c.4.179.406.468.02.644l-3.963,1.817a1.947,1.947,0,0,1-1.416-.005l-5.3-2.4c-.4-.179-.406-.468-.021-.645Zm.976-10.761c-.106.048-.1.127,0,.176l1.348.61a.532.532,0,0,0,.387,0l1-.46c.1-.048.1-.126-.006-.175l-1.348-.61a.532.532,0,0,0-.386,0Zm1.891.856c-.106.048-.1.127,0,.176l1.348.61a.529.529,0,0,0,.387,0l1-.459c.1-.048.1-.126-.005-.176l-1.348-.61a.53.53,0,0,0-.385,0Zm1.928.872c-.106.049-.1.128,0,.176l1.348.61a.535.535,0,0,0,.388,0l1-.46c.1-.048.1-.127-.007-.176l-1.348-.61a.535.535,0,0,0-.386,0Zm1.95.883c-.105.048-.1.127,0,.176l1.348.61a.53.53,0,0,0,.386,0l1-.459c.1-.048.1-.126-.005-.176l-1.348-.61a.53.53,0,0,0-.385,0Zm1.929.872c-.106.049-.1.128,0,.176l1.348.61a.535.535,0,0,0,.388,0l1-.459c.1-.048.1-.127-.007-.176l-1.348-.61a.533.533,0,0,0-.385,0Zm1.932.874c-.106.049-.1.127,0,.176l1.348.61a.532.532,0,0,0,.387,0l1-.459c.1-.048.1-.127-.005-.176l-1.348-.61a.53.53,0,0,0-.385,0Zm1.929.872c-.106.048-.1.128.005.177l1.348.61a.534.534,0,0,0,.386,0l1-.459c.1-.048.1-.127-.005-.176l-1.348-.61a.534.534,0,0,0-.387,0Zm1.932.874c-.106.048-.1.128,0,.176l1.348.61a.537.537,0,0,0,.389,0l1-.459c.1-.048.1-.127-.007-.176l-1.348-.61a.535.535,0,0,0-.386,0Zm1.93.873c-.106.048-.1.127,0,.176l1.348.61a.532.532,0,0,0,.387,0l1-.459c.1-.048.1-.127-.005-.176l-1.348-.61a.53.53,0,0,0-.385,0Zm1.935.875c-.106.049-.1.128.005.177l1.348.61a.535.535,0,0,0,.387,0l1-.459c.1-.048.1-.127-.005-.176l-1.348-.61a.535.535,0,0,0-.387,0Zm1.93.873c-.106.049-.1.127,0,.176l1.348.61a.531.531,0,0,0,.387,0l1-.46c.1-.048.1-.127-.005-.176l-1.348-.61a.53.53,0,0,0-.385,0Zm1.931.874c-.1.049-.1.127,0,.176l1.348.61a.53.53,0,0,0,.386,0l1-.459c.1-.048.1-.126-.005-.176l-1.348-.61a.531.531,0,0,0-.385,0Zm1.929.872c-.106.048-.1.128,0,.176l1.348.61a.535.535,0,0,0,.388,0l1-.459c.1-.048.1-.127-.007-.176l-1.348-.61a.533.533,0,0,0-.385,0Zm1.932.874c-.106.048-.1.127,0,.176l1.348.61a.532.532,0,0,0,.387,0l1-.459c.1-.048.1-.127-.005-.176l-1.348-.61a.53.53,0,0,0-.385,0Zm1.928.872c-.106.048-.1.128.005.177l1.348.61a.533.533,0,0,0,.386,0l1-.459c.1-.048.1-.127-.005-.176l-1.348-.61a.535.535,0,0,0-.387,0ZM557.8,234.458c-.106.048-.1.126.005.176l4.547,2.057a.529.529,0,0,0,.386,0l1-.459c.106-.049.1-.127-.005-.176L559.192,234a.528.528,0,0,0-.386,0Zm5.139,2.325c-.106.048-.1.127.007.176l1.348.609a.527.527,0,0,0,.385,0l1-.46c.106-.048.1-.127-.005-.175l-1.348-.61a.529.529,0,0,0-.387,0Zm1.93.873c-.106.048-.1.126.005.175l1.348.61a.528.528,0,0,0,.387,0l1-.46c.106-.048.1-.127-.007-.176l-1.348-.61a.524.524,0,0,0-.385,0Zm1.932.874c-.106.048-.1.126.005.175l1.348.61a.526.526,0,0,0,.386,0l1-.46c.106-.048.1-.126-.005-.175l-1.348-.61a.524.524,0,0,0-.385,0Zm1.929.872c-.106.048-.1.127.005.175l1.348.61a.524.524,0,0,0,.386,0l1-.459c.106-.048.1-.127-.007-.176l-1.348-.609a.529.529,0,0,0-.386,0Zm1.931.874c-.106.048-.1.126.005.175l1.348.61a.521.521,0,0,0,.385,0l1-.459c.106-.048.1-.126-.006-.176l-1.348-.609a.526.526,0,0,0-.386,0Zm1.929.872c-.1.048-.1.127.007.176l1.348.61a.532.532,0,0,0,.386,0l1-.459c.106-.048.1-.127-.005-.176l-1.348-.61a.53.53,0,0,0-.386,0Zm1.936.875c-.106.048-.1.127.005.175l1.348.61a.528.528,0,0,0,.387,0l1-.46c.106-.048.1-.127-.007-.176l-1.348-.61a.527.527,0,0,0-.385,0Zm1.93.873c-.106.048-.1.126.006.175l1.348.61a.521.521,0,0,0,.385,0l1-.459c.106-.048.1-.126-.005-.176l-1.348-.609a.524.524,0,0,0-.385,0Zm1.93.873c-.106.048-.1.127.007.176l1.348.61a.524.524,0,0,0,.385,0l1-.459c.106-.048.1-.127-.005-.175l-1.348-.61a.529.529,0,0,0-.387,0Zm1.93.873c-.106.048-.1.126.005.175l1.348.61a.529.529,0,0,0,.387,0l1-.459c.1-.048.1-.127-.007-.176l-1.348-.61a.527.527,0,0,0-.385,0Zm1.931.874c-.106.048-.1.126.005.175l1.348.61a.522.522,0,0,0,.386,0l1-.459c.106-.048.1-.126-.005-.176l-1.348-.609a.524.524,0,0,0-.385,0Zm1.929.872c-.106.048-.1.127.005.175l1.348.61a.53.53,0,0,0,.386,0l1-.46c.106-.048.1-.127-.007-.176l-1.348-.61a.532.532,0,0,0-.386,0Zm-27.925-11.221c-.105.048-.1.126.006.176l1.456.659a.527.527,0,0,0,.385,0l1-.46c.106-.049.1-.127-.005-.176l-1.457-.659a.521.521,0,0,0-.385,0Zm2.009.908c-.106.049-.1.127.007.176l1.457.659a.524.524,0,0,0,.385,0l1-.46c.106-.048.1-.126-.005-.176l-1.456-.659a.532.532,0,0,0-.387,0Zm-5.081.5c-.105.048-.1.126.006.176l1.021.462a.528.528,0,0,0,.386,0l2.531-1.16c.105-.048.1-.127,0-.176l-1.021-.462a.532.532,0,0,0-.387,0Zm3.132.025c-.1.048-.1.127.005.176l1.457.659a.533.533,0,0,0,.386,0l1-.46c.106-.048.1-.127-.006-.177l-1.457-.659a.53.53,0,0,0-.386,0Zm6.022,1.31c-.1.048-.1.126.005.175l1.348.61a.528.528,0,0,0,.385,0l1-.46c.105-.048.1-.127,0-.176l-1.348-.609a.527.527,0,0,0-.386,0Zm-3.487-.178c-.105.048-.1.127.006.177l2.667,1.206a.532.532,0,0,0,.387,0l1-.46c.1-.048.1-.126-.005-.175l-1.124-.508,1.346-.617c.106-.048.1-.127,0-.176l-1.348-.609a.532.532,0,0,0-.388,0l-1.536.7-.367.168Zm5.415,1.051c-.1.048-.1.127.007.176l1.348.61a.531.531,0,0,0,.385,0l1-.46c.106-.048.1-.127,0-.176l-1.348-.609a.532.532,0,0,0-.388,0Zm1.932.874c-.1.048-.1.127.006.175l1.348.61a.532.532,0,0,0,.387,0l1-.46c.106-.048.1-.127-.005-.177l-1.348-.609a.532.532,0,0,0-.387,0Zm1.929.872c-.1.048-.1.127.007.176l1.348.61a.53.53,0,0,0,.385,0l1-.46c.105-.048.1-.127,0-.176l-1.348-.61a.535.535,0,0,0-.388,0Zm1.932.874c-.1.048-.1.127.005.175l1.35.61a.533.533,0,0,0,.385,0l1-.459c.106-.048.1-.127,0-.176l-1.35-.61a.535.535,0,0,0-.387,0Zm1.93.873c-.1.048-.1.126.005.175l1.348.61a.531.531,0,0,0,.386,0l1-.46c.106-.048.1-.127,0-.176l-1.348-.61a.532.532,0,0,0-.387,0Zm1.934.875c-.1.048-.1.127.007.176l1.348.61a.527.527,0,0,0,.385,0l1-.46c.106-.048.1-.127,0-.176l-1.348-.61a.532.532,0,0,0-.388,0Zm1.93.873c-.1.048-.1.127.006.175l1.348.61a.535.535,0,0,0,.387,0l1-.459c.106-.048.1-.127-.006-.177l-1.348-.61a.535.535,0,0,0-.387,0Zm1.932.874c-.1.048-.1.126.005.175l1.348.61a.53.53,0,0,0,.385,0l1-.459c.105-.048.1-.127,0-.176l-1.348-.61a.53.53,0,0,0-.386,0Zm1.928.872c-.1.048-.1.127.007.176l1.348.61a.534.534,0,0,0,.385,0l1-.459c.106-.048.1-.128,0-.176l-1.348-.61a.535.535,0,0,0-.388,0Zm1.959.886c-.1.048-.1.126.005.176l2.948,1.333a.531.531,0,0,0,.385,0l1-.46c.105-.048.1-.127,0-.176L583.06,246.2a.532.532,0,0,0-.387,0ZM562.1,239.2c-.106.048-.1.127,0,.176l1.348.61a.535.535,0,0,0,.388,0l1-.46c.1-.048.1-.127-.007-.176l-1.348-.61a.533.533,0,0,0-.385,0Zm1.932.874c-.106.048-.1.127,0,.176l1.348.61a.532.532,0,0,0,.387,0l1-.46c.1-.048.1-.126-.005-.175l-1.348-.61a.526.526,0,0,0-.386,0Zm1.929.872c-.106.048-.1.127.005.177l1.348.61a.535.535,0,0,0,.387,0l1-.46c.1-.048.1-.127-.005-.175l-1.348-.61a.532.532,0,0,0-.387,0Zm1.932.874c-.106.048-.1.127,0,.176l1.348.609a.532.532,0,0,0,.388,0l1-.46c.1-.048.1-.127-.007-.176l-1.348-.61a.53.53,0,0,0-.385,0Zm1.93.873c-.106.048-.1.127,0,.176l1.348.609a.529.529,0,0,0,.387,0l1-.46c.1-.048.1-.126-.006-.175l-1.348-.61a.528.528,0,0,0-.386,0Zm1.935.875c-.106.048-.1.127.005.177l1.348.61a.534.534,0,0,0,.387,0l1-.46c.1-.048.1-.127-.005-.175l-1.348-.61a.535.535,0,0,0-.387,0Zm1.93.873c-.105.048-.1.127,0,.176l1.348.61a.532.532,0,0,0,.387,0l1-.46c.1-.048.1-.126-.005-.175l-1.348-.61a.527.527,0,0,0-.385,0Zm1.93.873c-.106.048-.1.127.005.177l1.348.61a.532.532,0,0,0,.387,0l1-.46c.1-.048.1-.126-.005-.175l-1.348-.61a.532.532,0,0,0-.387,0Zm1.93.873c-.106.048-.1.127,0,.176l1.348.61a.532.532,0,0,0,.388,0l1-.46c.1-.048.1-.127-.007-.176l-1.348-.61a.53.53,0,0,0-.385,0Zm1.932.874c-.106.048-.1.127,0,.176l1.348.609a.529.529,0,0,0,.387,0l1-.46c.1-.048.1-.126-.005-.175l-1.348-.61a.529.529,0,0,0-.386,0Zm1.929.872c-.106.048-.1.127.005.176l1.676.758a.532.532,0,0,0,.387,0l1-.46c.1-.048.1-.127-.005-.175l-1.676-.758a.532.532,0,0,0-.387,0ZM554.786,237.3c-.106.048-.1.126.005.176l1.456.659a.532.532,0,0,0,.387,0l1-.46c.106-.048.1-.127-.007-.176l-1.457-.659a.527.527,0,0,0-.385,0Zm2.1.941c-.1.048-.1.127.007.176l1.778.8a.533.533,0,0,0,.385,0l1-.46c.106-.048.1-.127,0-.176l-1.778-.8a.532.532,0,0,0-.388,0Zm2.38,1.077c-.1.048-.1.126.006.176l1.348.61a.53.53,0,0,0,.385,0l1-.459c.105-.049.1-.127,0-.176l-1.348-.61a.532.532,0,0,0-.387,0Zm1.929.872c-.1.048-.1.127.007.176l1.348.61a.533.533,0,0,0,.385,0l1-.46c.106-.048.1-.127,0-.176l-1.348-.61a.536.536,0,0,0-.388,0Zm1.932.874c-.1.048-.1.127.006.176l1.348.609a.532.532,0,0,0,.387,0l1-.46c.106-.048.1-.127-.005-.176l-1.348-.61a.53.53,0,0,0-.386,0Zm1.929.872c-.1.048-.1.127.007.176l1.348.609a.527.527,0,0,0,.385,0l1-.46c.105-.048.1-.127,0-.176l-1.348-.61a.532.532,0,0,0-.388,0Zm1.932.874c-.1.048-.1.127.005.176l1.349.61a.53.53,0,0,0,.385,0l1-.46c.106-.048.1-.127,0-.176l-1.349-.61a.529.529,0,0,0-.387,0Zm1.93.873c-.1.048-.1.126.005.175l1.348.61a.525.525,0,0,0,.386,0l1-.459c.106-.048.1-.127,0-.176l-1.348-.61a.529.529,0,0,0-.387,0Zm1.934.875c-.1.048-.1.127.007.176l1.348.609a.527.527,0,0,0,.385,0l1-.46c.106-.048.1-.127,0-.176l-1.348-.61a.532.532,0,0,0-.388,0Zm1.93.873c-.1.048-.1.127.005.175l1.348.61a.532.532,0,0,0,.387,0l1-.46c.106-.048.1-.127-.005-.176l-1.348-.61a.532.532,0,0,0-.387,0Zm1.932.874c-.1.048-.1.126.005.176l1.348.609a.527.527,0,0,0,.385,0l1-.46c.1-.048.1-.127,0-.176l-1.348-.61a.527.527,0,0,0-.387,0Zm1.928.872c-.1.048-.1.127.007.176l1.348.61a.53.53,0,0,0,.385,0l1-.46c.106-.048.1-.127,0-.176l-1.348-.61a.532.532,0,0,0-.388,0Zm1.959.886c-.1.048-.1.127.005.176l2.948,1.334a.533.533,0,0,0,.385,0l1-.46c.106-.048.1-.127,0-.176l-2.948-1.334a.531.531,0,0,0-.387,0Zm-28.5-10.075c-.106.048-.1.127,0,.176l1.02.461a.529.529,0,0,0,.387,0l2.542-1.165c.105-.048.1-.127,0-.176l-1.021-.461a.529.529,0,0,0-.387,0Zm3.1,0c-.1.048-.1.127.005.176l1.538.7a.535.535,0,0,0,.387,0l1-.459c.106-.048.1-.128-.005-.177l-1.538-.7a.532.532,0,0,0-.387,0Zm2.128.963c-.1.048-.1.127.007.176l.761.344a.535.535,0,0,0,.387,0l1-.46c.106-.048.1-.127-.005-.177l-.762-.344a.532.532,0,0,0-.388,0Zm1.41.638c-.1.048-.1.127.005.176l.8.361a.535.535,0,0,0,.387,0l1-.459c.1-.049.1-.128-.006-.177l-.8-.361a.532.532,0,0,0-.387,0Zm1.407.637c-.1.048-.1.127.005.175l2.21,1a.533.533,0,0,0,.386,0l1-.46c.105-.048.1-.127-.006-.176l-2.209-1a.535.535,0,0,0-.387,0Zm2.793,1.263c-.1.048-.1.126.005.176l1.348.61a.53.53,0,0,0,.385,0l1-.46c.106-.048.1-.127,0-.176l-1.348-.61a.533.533,0,0,0-.387,0Zm1.928.872c-.1.048-.1.127.007.176l1.348.61a.535.535,0,0,0,.386,0l1-.46c.106-.048.1-.127,0-.176l-1.348-.61a.531.531,0,0,0-.389,0Zm1.932.874c-.1.048-.1.127.005.176l1.348.609a.532.532,0,0,0,.387,0l1-.46c.106-.048.1-.127-.005-.176l-1.348-.61a.53.53,0,0,0-.386,0Zm1.93.873c-.1.048-.1.126.005.176l1.348.609a.527.527,0,0,0,.385,0l1-.46c.106-.048.1-.127,0-.176l-1.348-.61a.526.526,0,0,0-.387,0Zm1.935.875c-.1.048-.1.127.007.176l1.348.61a.534.534,0,0,0,.385,0l1-.459c.1-.049.1-.128,0-.176l-1.348-.61a.535.535,0,0,0-.388,0Zm1.93.873c-.1.048-.1.126.006.176l1.348.61a.531.531,0,0,0,.386,0l1-.46c.106-.048.1-.127,0-.176l-1.348-.61a.527.527,0,0,0-.386,0Zm1.93.873c-.1.048-.1.127.007.176l1.348.61a.532.532,0,0,0,.386,0l1-.46c.106-.048.1-.127,0-.176l-1.348-.61a.537.537,0,0,0-.389,0Zm1.93.873c-.1.048-.1.127.005.175l1.348.61a.53.53,0,0,0,.386,0l1-.46c.105-.048.1-.127-.006-.176l-1.348-.61a.532.532,0,0,0-.387,0Zm1.932.874c-.1.048-.1.126.005.176l1.348.609a.527.527,0,0,0,.385,0l1-.46c.106-.048.1-.127,0-.176l-1.348-.61a.526.526,0,0,0-.387,0Zm1.929.872c-.1.048-.1.127.007.176l1.348.61a.533.533,0,0,0,.386,0l1-.46c.106-.048.1-.127,0-.176l-1.348-.61a.532.532,0,0,0-.388,0Zm-26.024-10.37c-.106.049-.1.127,0,.176l1.348.61a.532.532,0,0,0,.387,0l1-.459c.1-.048.1-.127-.005-.176l-1.348-.61a.531.531,0,0,0-.386,0Zm1.928.873c-.106.048-.1.128.005.177l1.348.61a.535.535,0,0,0,.387,0l1-.459c.1-.048.1-.127-.005-.176l-1.348-.61a.534.534,0,0,0-.386,0Zm1.95.882c-.105.049-.1.127,0,.176l1.348.61a.532.532,0,0,0,.387,0l1-.46c.1-.048.1-.127-.006-.176l-1.348-.61a.531.531,0,0,0-.385,0Zm1.929.872c-.106.048-.1.128.005.177l1.348.61a.534.534,0,0,0,.387,0l1-.459c.1-.048.1-.127-.005-.176l-1.348-.61a.535.535,0,0,0-.387,0Zm1.932.874c-.106.048-.1.127,0,.176l9.074,4.1a.53.53,0,0,0,.387,0l1-.459c.1-.048.1-.127-.006-.176l-9.074-4.1a.532.532,0,0,0-.386,0Zm9.655,4.367c-.105.048-.1.127,0,.176l1.348.61a.535.535,0,0,0,.388,0l1-.459c.1-.048.1-.127-.007-.176l-1.348-.61a.533.533,0,0,0-.385,0Zm1.931.874c-.105.048-.1.127,0,.176l1.348.61a.532.532,0,0,0,.387,0l1-.46c.1-.048.1-.126-.005-.175l-1.348-.61a.53.53,0,0,0-.385,0Zm1.929.872c-.106.048-.1.128.005.177l1.348.61a.534.534,0,0,0,.386,0l1-.46c.1-.048.1-.127-.005-.175l-1.348-.61a.535.535,0,0,0-.387,0Zm1.932.874c-.106.048-.1.128,0,.176l1.348.61a.535.535,0,0,0,.388,0l1-.46c.1-.048.1-.127-.007-.176l-1.348-.61a.535.535,0,0,0-.386,0Zm1.929.872c-.106.048-.1.127.005.177l1.046.473a.533.533,0,0,0,.386,0l1-.46c.1-.048.1-.127-.005-.176l-1.046-.473a.527.527,0,0,0-.386,0Z" transform="translate(-539.813 -205.495)"/><path class="e" d="M558.366,244.01a1.942,1.942,0,0,1,1.416.005l5.3,2.4c.4.179.406.468.02.645l-3.963,1.816a1.947,1.947,0,0,1-1.416,0l-5.3-2.4c-.4-.179-.406-.468-.021-.644Zm.976-10.761c-.106.048-.1.127,0,.176l1.348.61a.532.532,0,0,0,.387,0l1-.46c.1-.048.1-.126-.006-.175l-1.348-.61a.532.532,0,0,0-.386,0Zm1.891.856c-.106.048-.1.127,0,.176l1.348.61a.529.529,0,0,0,.387,0l1-.46c.1-.048.1-.126-.005-.175l-1.348-.61a.527.527,0,0,0-.385,0Zm1.928.872c-.106.048-.1.127,0,.176l1.348.61a.529.529,0,0,0,.388,0l1-.459c.1-.048.1-.127-.007-.176l-1.348-.609a.532.532,0,0,0-.386,0Zm1.95.882c-.105.048-.1.127,0,.176l1.348.61a.527.527,0,0,0,.386,0l1-.46c.1-.048.1-.126-.005-.175l-1.348-.61a.527.527,0,0,0-.385,0Zm1.929.872c-.106.048-.1.127,0,.176l1.348.61a.529.529,0,0,0,.388,0l1-.46c.1-.048.1-.127-.007-.176l-1.348-.61a.533.533,0,0,0-.385,0Zm1.932.874c-.106.048-.1.127,0,.176l1.348.61a.526.526,0,0,0,.387,0l1-.459c.1-.048.1-.126-.005-.176l-1.348-.609a.527.527,0,0,0-.385,0Zm1.929.872c-.106.048-.1.127.005.176l1.348.61a.534.534,0,0,0,.386,0l1-.459c.1-.048.1-.127-.005-.176l-1.348-.61a.535.535,0,0,0-.387,0Zm1.932.874c-.106.048-.1.127,0,.176l1.348.61a.537.537,0,0,0,.389,0l1-.459c.1-.048.1-.127-.007-.176l-1.348-.61a.535.535,0,0,0-.386,0Zm1.93.872c-.106.049-.1.127,0,.176l1.348.61a.532.532,0,0,0,.387,0l1-.459c.1-.048.1-.126-.005-.176l-1.348-.61a.53.53,0,0,0-.385,0Zm1.935.875c-.106.048-.1.127.005.176l1.348.61a.535.535,0,0,0,.387,0l1-.46c.1-.048.1-.127-.005-.176l-1.348-.609a.532.532,0,0,0-.387,0Zm1.93.873c-.106.048-.1.127,0,.176l1.348.61a.527.527,0,0,0,.387,0l1-.459c.1-.048.1-.126-.005-.176l-1.348-.61a.53.53,0,0,0-.385,0Zm1.931.874c-.1.048-.1.127,0,.176l1.348.61a.528.528,0,0,0,.386,0l1-.459c.1-.048.1-.126-.005-.176l-1.348-.61a.531.531,0,0,0-.385,0Zm1.929.872c-.106.049-.1.128,0,.176l1.348.61a.535.535,0,0,0,.388,0l1-.459c.1-.048.1-.127-.007-.176l-1.348-.61a.533.533,0,0,0-.385,0Zm1.932.874c-.106.048-.1.127,0,.176l1.348.61a.532.532,0,0,0,.387,0l1-.459c.1-.048.1-.126-.005-.176l-1.348-.61a.53.53,0,0,0-.385,0Zm1.928.872c-.106.048-.1.128.005.177l1.348.61a.533.533,0,0,0,.386,0l1-.46c.1-.048.1-.127-.005-.176l-1.348-.61a.535.535,0,0,0-.387,0ZM557.8,233.954c-.106.048-.1.127.005.176l4.547,2.056a.529.529,0,0,0,.386,0l1-.459c.106-.048.1-.126-.005-.176l-4.547-2.056a.529.529,0,0,0-.386,0Zm5.139,2.325c-.106.048-.1.127.007.176l1.348.61a.53.53,0,0,0,.385,0l1-.46c.106-.048.1-.127-.005-.175l-1.348-.61a.529.529,0,0,0-.387,0Zm1.93.873c-.106.048-.1.126.005.176l1.348.609a.529.529,0,0,0,.387,0l1-.46c.106-.048.1-.127-.007-.176l-1.348-.61a.521.521,0,0,0-.385,0Zm1.932.874c-.106.048-.1.126.005.176l1.348.61a.529.529,0,0,0,.386,0l1-.46c.106-.048.1-.126-.005-.175l-1.348-.61a.527.527,0,0,0-.385,0Zm1.929.872c-.106.048-.1.127.005.175l1.348.61a.527.527,0,0,0,.386,0l1-.46c.106-.048.1-.127-.007-.176l-1.348-.61a.529.529,0,0,0-.386,0Zm1.931.874c-.106.048-.1.126.005.175l1.348.61a.524.524,0,0,0,.385,0l1-.46c.106-.048.1-.126-.006-.175l-1.348-.61a.526.526,0,0,0-.386,0Zm1.929.872c-.1.048-.1.127.007.176l1.348.61a.526.526,0,0,0,.386,0l1-.46c.106-.048.1-.127-.005-.175l-1.348-.61a.527.527,0,0,0-.386,0Zm1.936.875c-.106.048-.1.127.005.176l1.348.61a.531.531,0,0,0,.387,0l1-.46c.106-.048.1-.127-.007-.176l-1.348-.61a.53.53,0,0,0-.385,0Zm1.93.873c-.106.048-.1.126.006.176l1.348.609a.524.524,0,0,0,.385,0l1-.46c.106-.048.1-.126-.005-.175l-1.348-.61a.522.522,0,0,0-.385,0Zm1.93.873c-.106.048-.1.127.007.176l1.348.61a.53.53,0,0,0,.385,0l1-.46c.106-.048.1-.127-.005-.175l-1.348-.61a.532.532,0,0,0-.387,0Zm1.93.873c-.106.048-.1.126.005.175l1.348.61a.529.529,0,0,0,.387,0l1-.46c.1-.048.1-.127-.007-.176l-1.348-.61a.524.524,0,0,0-.385,0Zm1.931.874c-.106.048-.1.126.005.175l1.348.61a.525.525,0,0,0,.386,0l1-.46c.106-.048.1-.126-.005-.175l-1.348-.61a.524.524,0,0,0-.385,0Zm1.929.872c-.106.048-.1.127.005.175l1.348.61a.53.53,0,0,0,.386,0l1-.46c.106-.048.1-.127-.007-.176l-1.348-.609a.529.529,0,0,0-.386,0Zm-27.925-11.221c-.105.048-.1.126.006.176l1.456.659a.527.527,0,0,0,.385,0l1-.459c.106-.048.1-.126-.005-.176l-1.457-.659a.527.527,0,0,0-.385,0Zm2.009.909c-.106.048-.1.127.007.176l1.457.659a.527.527,0,0,0,.385,0l1-.46c.106-.048.1-.126-.005-.175l-1.456-.659a.529.529,0,0,0-.387,0Zm-5.081.5c-.105.049-.1.127.006.176l1.021.462a.529.529,0,0,0,.386,0l2.531-1.16c.105-.048.1-.127,0-.176l-1.021-.462a.532.532,0,0,0-.387,0Zm3.132.026c-.1.048-.1.126.005.175l1.457.659a.531.531,0,0,0,.386,0l1-.46c.106-.048.1-.127-.006-.176l-1.457-.659a.53.53,0,0,0-.386,0Zm6.022,1.309c-.1.048-.1.126.005.176l1.348.61a.53.53,0,0,0,.385,0l1-.46c.105-.048.1-.127,0-.176l-1.348-.61a.527.527,0,0,0-.386,0Zm-3.487-.178c-.105.048-.1.127.006.177l2.667,1.206a.532.532,0,0,0,.387,0l1-.459c.1-.048.1-.127-.005-.176l-1.124-.508,1.346-.617c.106-.048.1-.127,0-.176l-1.348-.61a.529.529,0,0,0-.388,0l-1.536.7-.367.168Zm5.415,1.051c-.1.048-.1.127.007.176l1.348.609a.53.53,0,0,0,.385,0l1-.46c.106-.048.1-.127,0-.176l-1.348-.61a.532.532,0,0,0-.388,0Zm1.932.874c-.1.048-.1.127.006.175l1.348.61a.532.532,0,0,0,.387,0l1-.46c.106-.048.1-.127-.005-.176l-1.348-.61a.529.529,0,0,0-.387,0Zm1.929.872c-.1.048-.1.127.007.176l1.348.61a.527.527,0,0,0,.385,0l1-.46c.105-.048.1-.127,0-.176l-1.348-.61a.532.532,0,0,0-.388,0Zm1.932.874c-.1.048-.1.127.005.175l1.35.61a.53.53,0,0,0,.385,0l1-.46c.106-.048.1-.127,0-.176l-1.35-.61a.532.532,0,0,0-.387,0Zm1.93.873c-.1.048-.1.126.005.175l1.348.61a.525.525,0,0,0,.386,0l1-.46c.106-.048.1-.127,0-.176l-1.348-.609a.529.529,0,0,0-.387,0Zm1.934.875c-.1.048-.1.127.007.176l1.348.609a.527.527,0,0,0,.385,0l1-.46c.106-.048.1-.127,0-.176l-1.348-.61a.529.529,0,0,0-.388,0Zm1.93.873c-.1.048-.1.127.006.175l1.348.61a.532.532,0,0,0,.387,0l1-.46c.106-.048.1-.127-.006-.177l-1.348-.609a.532.532,0,0,0-.387,0Zm1.932.874c-.1.048-.1.126.005.176l1.348.609a.527.527,0,0,0,.385,0l1-.46c.105-.048.1-.127,0-.176l-1.348-.61a.528.528,0,0,0-.386,0Zm1.928.872c-.1.048-.1.127.007.176l1.348.61a.53.53,0,0,0,.385,0l1-.46c.106-.048.1-.127,0-.176l-1.348-.61a.532.532,0,0,0-.388,0Zm1.959.886c-.1.048-.1.127.005.176l2.948,1.334a.534.534,0,0,0,.385,0l1-.46c.105-.048.1-.127,0-.176l-2.948-1.334a.532.532,0,0,0-.387,0ZM562.1,238.7c-.106.048-.1.128,0,.176l1.348.61a.535.535,0,0,0,.388,0l1-.46c.1-.048.1-.127-.007-.176l-1.348-.61a.533.533,0,0,0-.385,0Zm1.932.874c-.106.048-.1.127,0,.176l1.348.61a.532.532,0,0,0,.387,0l1-.459c.1-.048.1-.127-.005-.176l-1.348-.61a.532.532,0,0,0-.386,0Zm1.929.872c-.106.048-.1.127.005.177l1.348.61a.534.534,0,0,0,.387,0l1-.459c.1-.048.1-.127-.005-.176l-1.348-.61a.535.535,0,0,0-.387,0Zm1.932.874c-.106.048-.1.128,0,.176l1.348.61a.535.535,0,0,0,.388,0l1-.46c.1-.048.1-.127-.007-.176l-1.348-.61a.533.533,0,0,0-.385,0Zm1.93.873c-.106.048-.1.127,0,.176l1.348.61a.532.532,0,0,0,.387,0l1-.46c.1-.048.1-.126-.006-.175l-1.348-.61a.531.531,0,0,0-.386,0Zm1.935.875c-.106.048-.1.128.005.177l1.348.61a.534.534,0,0,0,.387,0l1-.459c.1-.048.1-.127-.005-.176l-1.348-.61a.535.535,0,0,0-.387,0Zm1.93.873c-.105.048-.1.127,0,.176l1.348.61a.532.532,0,0,0,.387,0l1-.46c.1-.047.1-.126-.005-.175l-1.348-.61a.53.53,0,0,0-.385,0Zm1.93.873c-.106.048-.1.127.005.177l1.348.61a.532.532,0,0,0,.387,0l1-.46c.1-.047.1-.126-.005-.175l-1.348-.61a.535.535,0,0,0-.387,0Zm1.93.873c-.106.048-.1.127,0,.176l1.348.61a.535.535,0,0,0,.388,0l1-.46c.1-.048.1-.127-.007-.176l-1.348-.61a.533.533,0,0,0-.385,0Zm1.932.874c-.106.048-.1.127,0,.176l1.348.61a.532.532,0,0,0,.387,0l1-.46c.1-.048.1-.126-.005-.175l-1.348-.61a.532.532,0,0,0-.386,0Zm1.929.872c-.106.048-.1.127.005.177l1.676.758a.535.535,0,0,0,.387,0l1-.46c.1-.048.1-.127-.005-.176l-1.676-.758a.535.535,0,0,0-.387,0ZM554.786,236.8c-.106.048-.1.126.005.176l1.456.659a.529.529,0,0,0,.387,0l1-.459c.106-.048.1-.127-.007-.176l-1.457-.659a.527.527,0,0,0-.385,0Zm2.1.941c-.1.048-.1.127.007.176l1.778.8a.533.533,0,0,0,.385,0l1-.459c.106-.048.1-.128,0-.176l-1.778-.8a.535.535,0,0,0-.388,0Zm2.38,1.077c-.1.048-.1.127.006.176l1.348.61a.53.53,0,0,0,.385,0l1-.459c.105-.048.1-.127,0-.176l-1.348-.61a.532.532,0,0,0-.387,0Zm1.929.872c-.1.048-.1.127.007.176l1.348.61a.533.533,0,0,0,.385,0l1-.46c.106-.048.1-.128,0-.176l-1.348-.61a.535.535,0,0,0-.388,0Zm1.932.874c-.1.048-.1.127.006.176l1.348.61a.535.535,0,0,0,.387,0l1-.459c.106-.048.1-.128-.005-.177l-1.348-.61a.533.533,0,0,0-.386,0Zm1.929.872c-.1.048-.1.127.007.176l1.348.61a.53.53,0,0,0,.385,0l1-.459c.105-.049.1-.127,0-.176l-1.348-.61a.535.535,0,0,0-.388,0Zm1.932.874c-.1.048-.1.127.005.176l1.349.61a.533.533,0,0,0,.385,0l1-.459c.106-.049.1-.128,0-.176l-1.349-.61a.535.535,0,0,0-.387,0Zm1.93.873c-.1.048-.1.126.005.176l1.348.61a.531.531,0,0,0,.386,0l1-.46c.106-.048.1-.127,0-.176l-1.348-.61a.529.529,0,0,0-.387,0Zm1.934.875c-.1.048-.1.127.007.176l1.348.61a.53.53,0,0,0,.385,0l1-.459c.106-.048.1-.127,0-.176l-1.348-.61a.535.535,0,0,0-.388,0Zm1.93.873c-.1.048-.1.127.005.176l1.348.61a.535.535,0,0,0,.387,0l1-.459c.106-.049.1-.128-.005-.177l-1.348-.61a.535.535,0,0,0-.387,0Zm1.932.874c-.1.048-.1.126.005.176l1.348.61a.53.53,0,0,0,.385,0l1-.46c.1-.049.1-.127,0-.176l-1.348-.61a.53.53,0,0,0-.387,0Zm1.928.872c-.1.048-.1.127.007.176l1.348.61a.533.533,0,0,0,.385,0l1-.46c.106-.048.1-.127,0-.176l-1.348-.61a.535.535,0,0,0-.388,0Zm1.959.886c-.1.048-.1.126.005.175l2.948,1.334a.534.534,0,0,0,.385,0l1-.46c.106-.049.1-.128,0-.176l-2.948-1.334a.532.532,0,0,0-.387,0Zm-28.5-10.075c-.106.048-.1.127,0,.176l1.02.462a.532.532,0,0,0,.387,0l2.542-1.165c.105-.048.1-.127,0-.176l-1.021-.462a.529.529,0,0,0-.387,0Zm3.1,0c-.1.048-.1.127.005.176l1.538.7a.535.535,0,0,0,.387,0l1-.46c.106-.048.1-.128-.005-.177l-1.538-.7a.532.532,0,0,0-.387,0Zm2.128.963c-.1.048-.1.127.007.176l.761.344a.532.532,0,0,0,.387,0l1-.46c.106-.048.1-.127-.005-.177l-.762-.344a.532.532,0,0,0-.388,0Zm1.41.638c-.1.048-.1.126.005.175l.8.361a.535.535,0,0,0,.387,0l1-.459c.1-.048.1-.128-.006-.177l-.8-.361a.532.532,0,0,0-.387,0Zm1.407.636c-.1.048-.1.127.005.176l2.21,1a.533.533,0,0,0,.386,0l1-.459c.105-.048.1-.128-.006-.177l-2.209-1a.532.532,0,0,0-.387,0Zm2.793,1.263c-.1.048-.1.127.005.176l1.348.61a.53.53,0,0,0,.385,0l1-.46c.106-.049.1-.127,0-.176l-1.348-.61a.532.532,0,0,0-.387,0Zm1.928.872c-.1.048-.1.127.007.176l1.348.61a.535.535,0,0,0,.386,0l1-.459c.106-.048.1-.128,0-.176l-1.348-.61a.537.537,0,0,0-.389,0Zm1.932.874c-.1.048-.1.127.005.176l1.348.61a.535.535,0,0,0,.387,0l1-.459c.106-.048.1-.128-.005-.177l-1.348-.61a.533.533,0,0,0-.386,0Zm1.93.873c-.1.048-.1.126.005.176l1.348.61a.53.53,0,0,0,.385,0l1-.46c.106-.048.1-.127,0-.176l-1.348-.61a.532.532,0,0,0-.387,0Zm1.935.875c-.1.048-.1.127.007.176l1.348.61a.534.534,0,0,0,.385,0l1-.46c.1-.048.1-.128,0-.176l-1.348-.61a.535.535,0,0,0-.388,0Zm1.93.873c-.1.048-.1.127.006.176l1.348.61a.531.531,0,0,0,.386,0l1-.46c.106-.048.1-.127,0-.176l-1.348-.61a.53.53,0,0,0-.386,0Zm1.93.873c-.1.048-.1.127.007.176l1.348.61a.532.532,0,0,0,.386,0l1-.46c.106-.048.1-.127,0-.176l-1.348-.61a.537.537,0,0,0-.389,0Zm1.93.873c-.1.048-.1.127.005.176l1.348.61a.533.533,0,0,0,.386,0l1-.459c.105-.049.1-.128-.006-.177l-1.348-.61a.535.535,0,0,0-.387,0Zm1.932.874c-.1.048-.1.126.005.176l1.348.61a.53.53,0,0,0,.385,0l1-.459c.106-.049.1-.127,0-.176l-1.348-.61a.532.532,0,0,0-.387,0Zm1.929.872c-.1.048-.1.127.007.176l1.348.61a.535.535,0,0,0,.386,0l1-.46c.106-.048.1-.127,0-.176l-1.348-.61a.535.535,0,0,0-.388,0Zm-26.024-10.369c-.106.048-.1.127,0,.176l1.348.61a.529.529,0,0,0,.387,0l1-.459c.1-.048.1-.126-.005-.176l-1.348-.61a.532.532,0,0,0-.386,0Zm1.928.872c-.106.048-.1.128.005.177l1.348.61a.535.535,0,0,0,.387,0l1-.459c.1-.048.1-.127-.005-.176l-1.348-.61a.533.533,0,0,0-.386,0Zm1.95.883c-.105.048-.1.127,0,.176l1.348.61a.532.532,0,0,0,.387,0l1-.459c.1-.048.1-.126-.006-.176l-1.348-.61a.53.53,0,0,0-.385,0Zm1.929.872c-.106.049-.1.128.005.177l1.348.61a.534.534,0,0,0,.387,0l1-.459c.1-.048.1-.127-.005-.176l-1.348-.61a.535.535,0,0,0-.387,0Zm1.932.874c-.106.048-.1.127,0,.176l9.074,4.1a.53.53,0,0,0,.387,0l1-.459c.1-.048.1-.126-.006-.176l-9.074-4.1a.532.532,0,0,0-.386,0Zm9.655,4.367c-.105.049-.1.128,0,.176l1.348.61a.535.535,0,0,0,.388,0l1-.46c.1-.048.1-.127-.007-.176l-1.348-.61a.533.533,0,0,0-.385,0Zm1.931.874c-.105.049-.1.127,0,.176l1.348.61a.532.532,0,0,0,.387,0l1-.46c.1-.048.1-.127-.005-.176l-1.348-.61a.53.53,0,0,0-.385,0Zm1.929.873c-.106.048-.1.128.005.177l1.348.61a.534.534,0,0,0,.386,0l1-.459c.1-.048.1-.127-.005-.176l-1.348-.61a.535.535,0,0,0-.387,0Zm1.932.874c-.106.048-.1.128,0,.176l1.348.61a.535.535,0,0,0,.388,0l1-.459c.1-.048.1-.127-.007-.176l-1.348-.61a.535.535,0,0,0-.386,0Zm1.929.872c-.106.048-.1.128.005.177l1.046.473a.533.533,0,0,0,.386,0l1-.459c.1-.048.1-.127-.005-.176l-1.046-.473a.534.534,0,0,0-.386,0Z" transform="translate(-539.813 -205.296)"/><path class="c" d="M601.372,201.464a1.491,1.491,0,0,1,.8,1.254l-.031,23.337a.593.593,0,0,1-.243.528c-.144.09-.979.517-.979.517L570.39,212.466a1.49,1.49,0,0,1-.8-1.253l-.782-23.273s1.01-.562,1.045-.585a.571.571,0,0,1,.567-.005Z" transform="translate(-547.258 -187.277)"/><path class="f" d="M600.086,202.474a1.49,1.49,0,0,1,.8,1.254l-.031,23.337a.525.525,0,0,1-.8.526L569.1,213.476a1.491,1.491,0,0,1-.8-1.253l.031-23.338a.526.526,0,0,1,.8-.526Z" transform="translate(-547.058 -187.677)"/><path class="g" d="M599.649,204.147a1.355,1.355,0,0,1,.725,1.14l-.028,21.217a.478.478,0,0,1-.726.478L571.482,214.15a1.355,1.355,0,0,1-.724-1.14l.028-21.217a.478.478,0,0,1,.726-.478Z" transform="translate(-548.03 -188.851)"/><g transform="translate(16.667 3.429)"><path class="h" d="M581.544,202.534a.978.978,0,0,1,.522.822l-.021,15.293a.345.345,0,0,1-.524.345l-20.281-9.249a.977.977,0,0,1-.522-.822l.021-15.293a.344.344,0,0,1,.523-.345Z" transform="translate(-560.719 -193.067)"/><path class="i" d="M582,202.252,561.718,193a.334.334,0,0,0-.478.131.439.439,0,0,1,.229.04l20.281,9.249a.978.978,0,0,1,.522.822l-.021,15.293a.487.487,0,0,1-.046.214.341.341,0,0,0,.294-.384l.021-15.293A.975.975,0,0,0,582,202.252Z" transform="translate(-560.926 -192.956)"/><path class="j" d="M581.136,205.833a.139.139,0,0,1-.06-.013l-17.975-8.2a.144.144,0,1,1,.119-.263l17.976,8.2a.144.144,0,0,1-.06.275Zm.131,1.615a.144.144,0,0,0-.071-.191l-17.976-8.2a.144.144,0,1,0-.119.263l17.975,8.2a.139.139,0,0,0,.06.013A.144.144,0,0,0,581.267,207.448Zm0,1.7a.144.144,0,0,0-.071-.191l-17.976-8.2a.144.144,0,1,0-.119.263l17.975,8.2a.148.148,0,0,0,.06.013A.144.144,0,0,0,581.267,209.148Zm0,1.7a.144.144,0,0,0-.071-.191l-17.976-8.2a.145.145,0,0,0-.191.072.144.144,0,0,0,.072.191l17.975,8.2a.148.148,0,0,0,.06.013A.144.144,0,0,0,581.267,210.848Zm-6.65-1.333a.144.144,0,0,0-.071-.191l-11.326-5.165a.144.144,0,0,0-.119.263l11.325,5.165a.147.147,0,0,0,.06.013A.144.144,0,0,0,574.617,209.515Zm0,1.7a.144.144,0,0,0-.071-.191l-11.326-5.165a.144.144,0,1,0-.119.262l11.325,5.165a.147.147,0,0,0,.06.013A.143.143,0,0,0,574.617,211.214Zm0,1.7a.144.144,0,0,0-.071-.191l-11.326-5.165a.144.144,0,1,0-.119.262l11.325,5.165a.147.147,0,0,0,.06.013A.143.143,0,0,0,574.617,212.914Zm0,1.7a.144.144,0,0,0-.071-.191l-11.326-5.165a.145.145,0,0,0-.191.071.144.144,0,0,0,.072.191l11.325,5.165a.147.147,0,0,0,.06.013A.143.143,0,0,0,574.617,214.614Zm.469-4.947v5.214a.276.276,0,0,0,.162.252l5.5,2.508a.277.277,0,0,0,.392-.252v-5.139a.276.276,0,0,0-.159-.251l-5.5-2.582A.277.277,0,0,0,575.086,209.666Z" transform="translate(-561.629 -194.696)"/></g><g transform="translate(39.702 6.199)"><path class="k" d="M599.264,210.221a.737.737,0,0,1-.394-.62l.015-11.543a.26.26,0,0,1,.4-.26l15.308,6.982a.737.737,0,0,1,.394.62l-.015,11.543a.26.26,0,0,1-.4.26Z" transform="translate(-598.87 -197.63)"/><path class="i" d="M614.918,204.56l-15.308-6.981a.252.252,0,0,0-.361.1.33.33,0,0,1,.173.03l15.307,6.981a.737.737,0,0,1,.394.62l-.016,11.543a.366.366,0,0,1-.034.161.258.258,0,0,0,.222-.29l.016-11.543A.738.738,0,0,0,614.918,204.56Z" transform="translate(-599.021 -197.543)"/><path class="j" d="M606.09,207.434a.109.109,0,0,0,.054.144l8.548,3.9a.109.109,0,1,0,.09-.2l-8.548-3.9a.108.108,0,0,0-.144.054Zm0-1.283a.109.109,0,0,0,.054.144l8.548,3.9a.109.109,0,1,0,.09-.2l-8.548-3.9a.11.11,0,0,0-.144.054Zm0-1.282a.108.108,0,0,0,.054.144l8.548,3.9a.109.109,0,1,0,.09-.2l-8.548-3.9a.109.109,0,0,0-.144.054Zm0-1.283a.108.108,0,0,0,.054.144l8.548,3.9a.109.109,0,1,0,.09-.2l-8.548-3.9a.109.109,0,0,0-.144.054Zm-.354,3.734v-3.936a.209.209,0,0,0-.122-.19l-4.149-1.893a.209.209,0,0,0-.3.19v3.879a.208.208,0,0,0,.12.189l4.149,1.949A.209.209,0,0,0,605.737,207.32Z" transform="translate(-599.781 -199.025)"/><path class="j" d="M606.09,215.692a.108.108,0,0,0,.054.144l8.548,3.9a.11.11,0,0,0,.144-.054.108.108,0,0,0-.054-.144l-8.548-3.9a.109.109,0,0,0-.144.054Zm0-1.283a.108.108,0,0,0,.054.144l8.548,3.9a.109.109,0,1,0,.09-.2l-8.548-3.9a.119.119,0,0,0-.045-.01A.109.109,0,0,0,606.09,214.409Zm0-1.283a.109.109,0,0,0,.054.144l8.548,3.9a.11.11,0,0,0,.144-.054.108.108,0,0,0-.054-.144l-8.548-3.9a.109.109,0,0,0-.045-.01A.11.11,0,0,0,606.09,213.126Zm0-1.283a.109.109,0,0,0,.054.144l8.548,3.9a.109.109,0,1,0,.09-.2l-8.548-3.9a.11.11,0,0,0-.144.054Zm-.354,3.734v-3.935a.209.209,0,0,0-.122-.19l-4.149-1.894a.209.209,0,0,0-.3.19v3.879a.208.208,0,0,0,.12.189l4.149,1.95A.209.209,0,0,0,605.737,215.577Z" transform="translate(-599.781 -202.296)"/></g><path class="l" d="M553.724,277.616a2.158,2.158,0,0,1,1.569,0l30.9,13.975c.438.2.449.518.021.714l-20.3,9.3a2.154,2.154,0,0,1-1.569-.005l-30.895-13.974c-.439-.2-.449-.519-.021-.714Z" transform="translate(-533.115 -223.013)"/><path class="m" d="M608.312,251.581c-3.693,1.544-12.764,5.778-20.26,9.456s-10.579,5.408-6.886,3.865,12.765-5.778,20.261-9.455S612.005,250.037,608.312,251.581Z" transform="translate(-551.535 -212.531)"/><path class="n" d="M602.11,201.653c-3.506-1.941-12.538-6.259-20.173-9.643s-10.979-4.554-7.473-2.613,12.539,6.259,20.173,9.643S605.618,203.595,602.11,201.653Z" transform="translate(-548.946 -187.746)"/><path class="o" d="M614.176,204.145c-1.794-.992-6.416-3.2-10.322-4.933s-5.617-2.332-3.822-1.34,6.416,3.2,10.322,4.933S615.971,205.137,614.176,204.145Z" transform="translate(-559.346 -191.285)"/><path class="p" d="M625.646,222.174c.178-2.043.321-7.163.318-11.436s-.148-6.08-.327-4.037-.321,7.163-.318,11.436S625.468,224.216,625.646,222.174Z" transform="translate(-569.647 -194.64)"/><path class="q" d="M595.872,223.676c.178-2.043.32-7.163.318-11.435s-.149-6.08-.327-4.037-.32,7.163-.318,11.436S595.694,225.719,595.872,223.676Z" transform="translate(-557.85 -195.236)"/><path class="r" d="M582.13,202.454c-2.646-1.386-9.4-4.582-15.083-7.137s-8.146-3.5-5.5-2.118,9.4,4.583,15.083,7.138S584.776,203.841,582.13,202.454Z" transform="translate(-543.959 -189.371)"/></g><path class="s" d="M590.76,361.4l11.486-5.236a4.131,4.131,0,0,1,3.417,0l11.515,5.214a1.32,1.32,0,0,1,0,2.406L605.6,369.024a4.129,4.129,0,0,1-3.419-.005l-11.423-5.213A1.321,1.321,0,0,1,590.76,361.4Z" transform="translate(-430.253 -206.242)"/><g transform="translate(24.111 84.646)"><path class="s" d="M502.992,322.209l-52.836,23.922a7.7,7.7,0,0,1-6.346,0l-31.838-14.415-13.717,6.211a2.112,2.112,0,0,1-1.744,0L376.565,328.9a.42.42,0,0,1,0-.765l13.654-6.264-19-8.6a1.531,1.531,0,0,1-.007-2.786l52.278-23.986a7.7,7.7,0,0,1,6.368-.022l73.133,32.948A1.531,1.531,0,0,1,502.992,322.209Zm-99.624,16.715-20.095-9.053a2.11,2.11,0,0,0-1.749.006l-14.365,6.59a.42.42,0,0,0,0,.765l19.946,9.031a2.112,2.112,0,0,0,1.744,0l14.517-6.573A.421.421,0,0,0,403.368,338.924Z" transform="translate(-365.98 -263.153)"/><g transform="translate(0.927 58.832)"><path class="a" d="M366.909,358.036l36.7,2.25v3.327a.414.414,0,0,1-.247.383l-14.518,6.573a2.116,2.116,0,0,1-1.744,0l-19.946-9.031a.415.415,0,0,1-.245-.335C366.893,361.036,366.909,358.036,366.909,358.036Z" transform="translate(-366.903 -350.609)"/><path class="c" d="M367.159,352.518l14.365-6.59a2.111,2.111,0,0,1,1.749-.006l20.095,9.053a.421.421,0,0,1,0,.767l-14.517,6.573a2.112,2.112,0,0,1-1.744,0l-19.946-9.031A.42.42,0,0,1,367.159,352.518Z" transform="translate(-366.907 -345.735)"/></g><g transform="translate(10.331 43.487)"><path class="a" d="M382.484,332.622l36.7,2.249V338.2a.415.415,0,0,1-.247.384l-14.517,6.573a2.116,2.116,0,0,1-1.744,0l-19.946-9.031a.414.414,0,0,1-.245-.335C382.468,335.621,382.484,332.622,382.484,332.622Z" transform="translate(-382.478 -325.194)"/><path class="c" d="M382.734,327.1l14.365-6.59a2.11,2.11,0,0,1,1.749-.006l20.095,9.053a.421.421,0,0,1,0,.767L404.426,336.9a2.112,2.112,0,0,1-1.744,0l-19.946-9.03A.421.421,0,0,1,382.734,327.1Z" transform="translate(-382.482 -320.32)"/></g><g transform="translate(4.312)"><path class="t" d="M372.529,291.682l133.579,8.871s0,3.786,0,4.348a1.511,1.511,0,0,1-.9,1.4l-52.836,23.922a7.694,7.694,0,0,1-6.346,0l-72.593-32.867a1.507,1.507,0,0,1-.889-1.217C372.475,295.52,372.529,291.682,372.529,291.682Z" transform="translate(-372.509 -265.486)"/><path class="s" d="M373.444,272.983,425.723,249a7.691,7.691,0,0,1,6.368-.022l73.133,32.948a1.531,1.531,0,0,1,0,2.79L452.39,308.635a7.689,7.689,0,0,1-6.346,0l-72.593-32.867A1.531,1.531,0,0,1,373.444,272.983Z" transform="translate(-372.526 -248.296)"/></g><path class="u" d="M369.28,292.485c9.661,4.755,34.176,15.944,54.752,24.99s29.424,12.524,19.762,7.768-34.177-15.945-54.752-24.99S359.618,287.729,369.28,292.485Z" transform="translate(-365.367 -264.961)"/><path class="v" d="M554.9,310.322c-6.181,3.094-21.905,10.293-35.12,16.078s-18.915,7.966-12.734,4.871,21.907-10.293,35.119-16.078S561.085,307.227,554.9,310.322Z" transform="translate(-420.515 -272.314)"/></g><g transform="translate(53.708 96.994)"><g transform="translate(46.76 3.031)"><path class="a" d="M492.376,284.8a.544.544,0,0,1-.227-1.039l21.717-9.949a.544.544,0,0,1,.452.989L492.6,284.755A.536.536,0,0,1,492.376,284.8Z" transform="translate(-491.831 -273.767)"/></g><path class="a" d="M445.042,283.693a.54.54,0,0,1-.226-.05L414.7,269.785a.544.544,0,1,1,.455-.988l30.113,13.859a.544.544,0,0,1-.228,1.038Z" transform="translate(-414.386 -268.747)"/><g transform="translate(49.65 20.619)"><path class="a" d="M563.138,337.69a.547.547,0,0,1-.213-.043l-34.408-14.639a.545.545,0,0,1-.331-.5v-4.189l-31.252-14.383a.544.544,0,0,1,.455-.988l31.568,14.528a.544.544,0,0,1,.316.494v4.178l33.321,14.178V323.787a.544.544,0,0,1,1.088,0v13.359a.545.545,0,0,1-.544.544Z" transform="translate(-496.617 -302.897)"/></g></g><g transform="translate(56.51 48.883)"><path class="w" d="M437.692,276.26h0a1.834,1.834,0,0,1,0,3.343l-7.127,3.225a12.71,12.71,0,0,1-10.459.01h0a1.834,1.834,0,0,1,0-3.343l7.127-3.225A12.712,12.712,0,0,1,437.692,276.26Z" transform="translate(-419.028 -223.169)"/><g transform="translate(0.147)"><path class="x" d="M426,262.185l.331,10.189c.937,1.293,4.8,1.2,3.948.03v-10Z" transform="translate(-421.937 -218.036)"/><path class="x" d="M434.276,261.756l.235,8.768c1.118.808,4.882.724,3.629-.583l-.157-8.541Z" transform="translate(-425.216 -217.725)"/><path class="y" d="M438.189,275.545s3.834,3.137,3.111,3.759-6.729-1.208-6.729-1.208a2.8,2.8,0,0,1-.011-1.968C436.033,276.64,439.019,276.473,438.189,275.545Z" transform="translate(-425.265 -223.329)"/><path class="z" d="M430.358,279.009s3.821,3.8,3.083,4.23c-1.237.719-6.8-2.178-7-2.358,0,0-.524-.083-.03-2.026C427.278,279.558,430.758,279.937,430.358,279.009Z" transform="translate(-422.016 -224.641)"/><path class="aa" d="M431.377,227.957l5.13-.207c.1.122.519,27.88.519,27.88a22.607,22.607,0,0,1-6.7-.219l.765-14.169Z" transform="translate(-423.649 -204.392)"/><path class="ab" d="M424.271,228.237l-.046,28.255s4.348.638,6.193-.242l.542-28.5Z" transform="translate(-421.233 -204.392)"/><path class="ac" d="M431.54,199.793c3.521.042,4.189,13.918,4.063,18.42-1.04,1.13-6.364,1.578-6.558.615-.209-10.843-.891-17.843-1.153-18.582A10.362,10.362,0,0,1,431.54,199.793Z" transform="translate(-422.686 -193.309)"/><path class="ad" d="M456.071,204.427a5.947,5.947,0,0,1,.051-.615c.239-1.449.535-1.273.877-1.7.536-.665.982-1.359,1.179-1.28s-.635,1.654-.385,1.748a1.2,1.2,0,0,1,.561,1.721c-.354.776-.983.966-1.166,1.21C456.75,205.551,456.309,205.255,456.071,204.427Z" transform="translate(-433.852 -193.726)"/><path class="ae" d="M443.5,207.337l4.674-4.33,2.788,3.331s-5.975,7.275-8,5.411-4.187-3.8-4.187-3.8l-1.744-7.123C438.981,201.719,441.509,204.621,443.5,207.337Z" transform="translate(-426.309 -193.726)"/><path class="af" d="M436.8,223.455s.9-22.48-2.319-23.556c1.717.254,3.579,1.464,4.06,6.407.351,3.607.578,16.893.578,16.893C438.709,223.635,436.8,223.455,436.8,223.455Z" transform="translate(-425.298 -193.358)"/><path class="ag" d="M423.507,213.836c-.3-6.475-.752-11.538-.752-11.538a6.708,6.708,0,0,1,3.979-2.113c.45,1.273,2.39,12.978,2.592,23.473-1.872,1.273-6.571.334-6.571.334C422.85,220.439,423.3,216.932,423.507,213.836Z" transform="translate(-420.651 -193.47)"/><path class="x" d="M430.611,197.347l2.15.059a6.816,6.816,0,0,0,.056,1.482c0,2.424-1.087,2.52-2.537.06Z" transform="translate(-423.633 -192.346)"/><path class="x" d="M429.8,192.472a2.238,2.238,0,0,0,2.118,2.608c.7,0,1.436-1.167,1.436-2.608s-.266-2.608-1.436-2.608S429.941,191.04,429.8,192.472Z" transform="translate(-423.436 -189.382)"/><path class="ah" d="M430,192.087c-.167.263.061.9-.149.917s-.054-.606-.377-.511c-.28.083-.143.892.185,1.394-.835-.5-2.037-3.324-.77-3.654-.065-1.212,1.851-1.26,2.609-1.1,1.378.284,2.55,1.43,1.729,2.585C432.7,192.457,430.17,191.824,430,192.087Z" transform="translate(-422.865 -189.065)"/><g transform="translate(1.403 29.673)"><path class="x" d="M422.84,238.21s.4.373.52.517a1.882,1.882,0,0,1,.634,1.092c.044.3-.319-.208-.479-.262s-.056.314-.037.661c.086,1.575-1.528,2.88-1.877-.845-.05-.537.18-.772.13-1Z" transform="translate(-421.594 -238.21)"/></g><g class="ai" transform="translate(3.297 10.946)"><path class="aj" d="M426.657,207.193a9.42,9.42,0,0,1-.234,2.5c-.21.816-.463,1.6-.608,2.4a30.508,30.508,0,0,0-.5,4.9c-.044,1.644.059,3.295.168,4.944.06.825.133,1.651.226,2.474.073.827.177,1.65.272,2.477a38.4,38.4,0,0,1-.943-4.906,33.879,33.879,0,0,1-.3-5A23.2,23.2,0,0,1,425.38,212c.2-.818.511-1.606.77-2.384A11.041,11.041,0,0,0,426.657,207.193Z" transform="translate(-424.731 -207.193)"/></g><path class="ak" d="M424.476,205.168c-.128,3.229-1.058,2.983-1.524,8.047a48.884,48.884,0,0,0,.857,11.648,6.586,6.586,0,0,1-3.871.6s-.666-5.775-.666-10.965.46-7.726,1.438-10.359C421.65,201.6,424.648,200.85,424.476,205.168Z" transform="translate(-419.271 -194.223)"/></g></g><g transform="translate(73.544 0)"><g transform="translate(5.782 96.42)"><path class="al" d="M456.816,290.54c0,3.672,6.372,6.648,14.233,6.648s14.233-2.976,14.233-6.648v-10.7H456.816Z" transform="translate(-456.816 -272.567)"/><ellipse class="am" cx="14.233" cy="6.647" rx="14.233" ry="6.647" transform="translate(0)"/></g><g transform="translate(0 38.536)"><path class="an" d="M461.965,250.077l-7.213,11.556,7.213,3.167Z" transform="translate(-450.216 -202.892)"/><path class="ao" d="M493.106,248.48l7.213,11.556-7.213,3.167Z" transform="translate(-465.412 -202.259)"/><g transform="translate(9.054 54.546)"><path class="ap" d="M462.234,273.394c0,2.828,4.908,5.12,10.962,5.12s10.962-2.292,10.962-5.12v-2.646H462.234Z" transform="translate(-462.234 -265.629)"/><ellipse class="aq" cx="10.962" cy="5.12" rx="10.962" ry="5.12" transform="translate(0)"/></g><g class="ar" transform="translate(9.054 49.824)"><path class="t" d="M462.234,265.573c0,2.828,4.908,5.12,10.962,5.12s10.962-2.292,10.962-5.12v-2.646H462.234Z" transform="translate(-462.234 -257.808)"/><ellipse class="ap" cx="10.962" cy="5.12" rx="10.962" ry="5.12" transform="translate(0)"/></g><g transform="translate(9.054 45.102)"><path class="ap" d="M462.234,257.753c0,2.828,4.908,5.12,10.962,5.12s10.962-2.292,10.962-5.12v-2.646H462.234Z" transform="translate(-462.234 -249.987)"/><ellipse class="ap" cx="10.962" cy="5.12" rx="10.962" ry="5.12" transform="translate(0)"/></g><path class="as" d="M487.249,191.927c1.113-10.988-8.954-20-20-20s-20.423,8.961-20,20c.417,10.833,7.782,16.98,7.782,26.39-.428,8.894,23.987,8.946,24.432,0C479.467,209.115,486.384,200.464,487.249,191.927Z" transform="translate(-447.239 -171.929)"/><g transform="translate(28.726 50.53)"><path class="at" d="M496.094,255.617l8.509,16.239-1.43.662-7.314-4.925-1.042-11.383Z" transform="translate(-494.816 -255.617)"/><path class="au" d="M494.816,256.6l8.357,16.308-8.357-3.883Z" transform="translate(-494.816 -256.007)"/></g><g transform="translate(3.713 51.614)"><path class="av" d="M461.855,257.412l-8.466,16.158,1.43.662,7.314-4.925,1.042-11.383Z" transform="translate(-453.388 -257.412)"/><path class="av" d="M464.113,258.26l-8.357,16.308,8.357-3.883Z" transform="translate(-454.327 -257.748)"/></g><g transform="translate(12.591 20.258)"><g transform="translate(0.002)"><path class="aw" d="M475.184,233.97h-.012a.272.272,0,0,1-.251-.2L468.4,210.587c-.589-2.568-.325-4.42.706-4.967a1.328,1.328,0,0,1,1.607.358,11.3,11.3,0,0,1,1.6,2.942c.72,1.651,1.538,3.524,2.677,3.993s2.749-.265,4.168-.914a8.166,8.166,0,0,1,2.714-.915,1,1,0,0,1,.889.4c.476.674.248,2.168-.7,4.568l-6.629,17.737A.271.271,0,0,1,475.184,233.97Zm-5.513-27.948a.65.65,0,0,0-.307.077c-.589.313-1.056,1.641-.434,4.352l6.29,22.372,6.34-16.963c1.13-2.87.962-3.775.761-4.06a.443.443,0,0,0-.427-.174,7.9,7.9,0,0,0-2.506.866c-1.52.694-3.24,1.481-4.6.921-1.343-.553-2.169-2.447-2.969-4.278a11.073,11.073,0,0,0-1.5-2.788A.907.907,0,0,0,469.671,206.023Z" transform="translate(-468.095 -205.481)"/></g><g transform="translate(0 0)"><path class="aw" d="M475.183,233.97a.273.273,0,0,1-.258-.187l-5.9-17.742c-.941-2.386-1.169-3.881-.693-4.554a1,1,0,0,1,.889-.4,8.167,8.167,0,0,1,2.714.915c1.419.649,3.027,1.383,4.168.914s1.957-2.342,2.678-3.993a11.306,11.306,0,0,1,1.6-2.942,1.329,1.329,0,0,1,1.608-.357c1.03.547,1.3,2.4.708,4.954l-7.256,23.2a.272.272,0,0,1-.257.191Zm-6.011-22.344a.43.43,0,0,0-.395.175c-.2.284-.369,1.19.759,4.056l5.638,16.956,7-22.381c.618-2.691.15-4.019-.439-4.332a.781.781,0,0,0-.955.249,11.058,11.058,0,0,0-1.5,2.788c-.8,1.831-1.625,3.725-2.969,4.278s-3.082-.228-4.6-.921a7.906,7.906,0,0,0-2.506-.866Z" transform="translate(-468.092 -205.481)"/></g></g></g><path class="ax" d="M472.827,158.623Zm2.9-6.626a.349.349,0,0,0,0,.7C475.916,152.695,475.916,152,475.723,152ZM461.14,164.182a.425.425,0,0,0,.425.425C461.8,164.607,461.14,163.947,461.14,164.182Zm22.006-2.566a.439.439,0,0,0,.878,0C484.025,161.374,483.146,161.374,483.146,161.616ZM459.4,136.739a.133.133,0,1,0,.133.133A.133.133,0,0,0,459.4,136.739Zm25.488,29.287a.3.3,0,1,0,.3.3A.3.3,0,0,0,484.884,166.026Zm-22.82-15.092a.221.221,0,1,0,.22.22A.22.22,0,0,0,462.064,150.934Z" transform="translate(-452.003 -108.105)"/></g><g transform="translate(114.939 50.98)"><path class="ay" d="M518.012,199.293l10.685-4.838a1.688,1.688,0,0,1,2.384,1.538v9.026a1.688,1.688,0,0,1-.992,1.538L519.4,211.394a1.688,1.688,0,0,1-2.384-1.537v-9.027A1.689,1.689,0,0,1,518.012,199.293Z" transform="translate(-516.282 -193.238)"/><path class="i" d="M516.759,209.669v-9.027a1.689,1.689,0,0,1,.992-1.538l10.685-4.838a1.662,1.662,0,0,1,1.489.059,1.68,1.68,0,0,0-1.887-.347l-10.685,4.838a1.688,1.688,0,0,0-.992,1.538v9.027a1.669,1.669,0,0,0,.9,1.478A1.663,1.663,0,0,1,516.759,209.669Z" transform="translate(-516.021 -193.049)"/><path class="j" d="M519.422,209.752c0-6.544,1.491-7.588,2.244-6.834s1.966,3.954,2.763,1.383,1.683-1.514,2.879.17,1.331-2.917,1.818-4.335,1.817-2.127,1.773,4.52Z" transform="translate(-517.234 -195.173)"/><path class="az" d="M529.5,192.673a74.788,74.788,0,0,0-9.637,4.081c-3.5,1.742-4.86,2.739-3.038,2.227a74.833,74.833,0,0,0,9.637-4.081C529.963,193.158,531.322,192.161,529.5,192.673Z" transform="translate(-515.884 -192.539)"/><path class="ba" d="M516.626,213.583a74.872,74.872,0,0,0,.269-10.462c-.139-3.907-.484-5.557-.772-3.687a74.9,74.9,0,0,0-.268,10.462C515.993,213.8,516.339,215.454,516.626,213.583Z" transform="translate(-515.798 -194.965)"/></g><g transform="translate(99.849 67.711)"><path class="bb" d="M492.995,226.924l10.563-4.783a1.669,1.669,0,0,1,2.357,1.52v8.923a1.668,1.668,0,0,1-.98,1.52l-10.562,4.783a1.669,1.669,0,0,1-2.357-1.52v-8.923A1.668,1.668,0,0,1,492.995,226.924Z" transform="translate(-491.284 -220.938)"/><path class="bc" d="M491.756,237.181v-8.923a1.668,1.668,0,0,1,.981-1.52l10.563-4.783a1.643,1.643,0,0,1,1.471.059,1.66,1.66,0,0,0-1.865-.344l-10.562,4.783a1.668,1.668,0,0,0-.981,1.52V236.9a1.648,1.648,0,0,0,.885,1.461A1.641,1.641,0,0,1,491.756,237.181Z" transform="translate(-491.026 -220.753)"/><path class="j" d="M494.389,237.263c0-6.469,2.24-4.882,2.985-4.137s1.177,1.29,1.966-1.251,1.058-3.9,2.241-2.236,1.921-.481,2.4-1.882,1.8-2.1,1.752,4.468Z" transform="translate(-492.225 -222.852)"/><path class="bd" d="M504.351,220.381a73.926,73.926,0,0,0-9.527,4.034c-3.46,1.721-4.8,2.707-3,2.2a73.975,73.975,0,0,0,9.527-4.034C504.808,220.86,506.152,219.874,504.351,220.381Z" transform="translate(-490.891 -220.248)"/><path class="be" d="M491.624,241.051a73.933,73.933,0,0,0,.266-10.342c-.137-3.862-.478-5.494-.763-3.644a74.02,74.02,0,0,0-.266,10.342C491,241.268,491.34,242.9,491.624,241.051Z" transform="translate(-490.805 -222.646)"/></g><g transform="translate(159.287 122.558)"><g transform="translate(9.536)"><path class="bf" d="M609.591,311.191,622.6,317.08a2.691,2.691,0,0,1,1.581,2.451v14.376a1.146,1.146,0,0,1-.459.923,27.875,27.875,0,0,1-2.6,1.122l-11.579-6.88a2.691,2.691,0,0,1-1.581-2.451l-2.027-14.258s2.29-.958,2.654-1.147A1.146,1.146,0,0,1,609.591,311.191Z" transform="translate(-605.393 -311.086)"/><path class="c" d="M606.676,313l13.008,5.89a2.69,2.69,0,0,1,1.581,2.451V335.72a1.158,1.158,0,0,1-1.635,1.054l-13.008-5.889a2.691,2.691,0,0,1-1.581-2.451V314.057A1.158,1.158,0,0,1,606.676,313Z" transform="translate(-605.041 -311.804)"/><path class="bg" d="M610.613,319.595l8.667,3.925a1.793,1.793,0,0,1,1.054,1.633v9.579a.771.771,0,0,1-1.089.7l-8.667-3.924a1.793,1.793,0,0,1-1.054-1.633V320.3A.771.771,0,0,1,610.613,319.595Z" transform="translate(-606.817 -314.43)"/><path class="bh" d="M620.185,334.762l-8.667-3.924a1.793,1.793,0,0,1-1.053-1.633v-9.579a.674.674,0,0,1,.009-.071.769.769,0,0,0-.95.746v9.579a1.793,1.793,0,0,0,1.054,1.633l8.667,3.924a.768.768,0,0,0,1.08-.632A.745.745,0,0,1,620.185,334.762Z" transform="translate(-606.817 -314.433)"/></g><g transform="translate(4.768 2.127)"><path class="bf" d="M601.695,314.714,614.7,320.6a2.691,2.691,0,0,1,1.581,2.451v14.376a1.146,1.146,0,0,1-.459.923,27.774,27.774,0,0,1-2.6,1.122l-11.579-6.88a2.691,2.691,0,0,1-1.581-2.451l-2.027-14.259s2.29-.958,2.655-1.147A1.145,1.145,0,0,1,601.695,314.714Z" transform="translate(-597.496 -314.609)"/><path class="c" d="M598.779,316.527l13.007,5.889a2.691,2.691,0,0,1,1.581,2.451v14.376a1.157,1.157,0,0,1-1.634,1.054l-13.008-5.889a2.692,2.692,0,0,1-1.581-2.451V317.581A1.157,1.157,0,0,1,598.779,316.527Z" transform="translate(-597.144 -315.328)"/><path class="bg" d="M602.716,323.118l8.667,3.925a1.793,1.793,0,0,1,1.054,1.633v9.579a.771.771,0,0,1-1.089.7l-8.667-3.924a1.793,1.793,0,0,1-1.054-1.633V323.82A.772.772,0,0,1,602.716,323.118Z" transform="translate(-598.92 -317.953)"/><path class="bh" d="M612.288,338.285l-8.667-3.924a1.793,1.793,0,0,1-1.053-1.633v-9.579a.648.648,0,0,1,.009-.07.768.768,0,0,0-.95.745V333.4a1.793,1.793,0,0,0,1.054,1.633l8.667,3.924a.768.768,0,0,0,1.08-.632A.764.764,0,0,1,612.288,338.285Z" transform="translate(-598.92 -317.956)"/></g><g transform="translate(0 4.254)"><path class="bf" d="M593.8,318.237l13.007,5.889a2.691,2.691,0,0,1,1.581,2.451v14.377a1.146,1.146,0,0,1-.459.923,27.931,27.931,0,0,1-2.6,1.122l-11.579-6.881a2.69,2.69,0,0,1-1.581-2.451l-2.026-14.259s2.29-.958,2.654-1.147A1.146,1.146,0,0,1,593.8,318.237Z" transform="translate(-589.6 -318.132)"/><path class="c" d="M590.883,320.05l13.008,5.889a2.691,2.691,0,0,1,1.581,2.451v14.376a1.157,1.157,0,0,1-1.635,1.054l-13.008-5.889a2.691,2.691,0,0,1-1.581-2.451V321.1A1.157,1.157,0,0,1,590.883,320.05Z" transform="translate(-589.248 -318.851)"/><path class="bi" d="M594.82,326.641l8.667,3.925a1.792,1.792,0,0,1,1.054,1.633v9.579a.771.771,0,0,1-1.089.7l-8.667-3.924a1.793,1.793,0,0,1-1.053-1.633v-9.579A.771.771,0,0,1,594.82,326.641Z" transform="translate(-591.024 -321.476)"/><path class="bj" d="M604.392,341.808l-8.667-3.924a1.793,1.793,0,0,1-1.054-1.633v-9.579c0-.024.007-.046.009-.07a.768.768,0,0,0-.949.745v9.579a1.793,1.793,0,0,0,1.053,1.633l8.667,3.924a.767.767,0,0,0,1.08-.632A.707.707,0,0,1,604.392,341.808Z" transform="translate(-591.024 -321.479)"/></g></g><g transform="translate(103.01 68.605)"><path class="w" d="M526.409,308.9h0a1.926,1.926,0,0,1,0,3.51l-7.483,3.387a13.349,13.349,0,0,1-10.983.01h0a1.926,1.926,0,0,1,0-3.51l7.483-3.387A13.347,13.347,0,0,1,526.409,308.9Z" transform="translate(-500.309 -255.803)"/><path class="bk" d="M527.842,310.437a20.421,20.421,0,0,0-3.241.21c-.961.116-4.16.976-4.784,1.646-1,1.075,8.027,2.194,8.036.951C527.865,311.389,527.842,310.437,527.842,310.437Z" transform="translate(-505.43 -256.874)"/><path class="x" d="M526.229,304.172V308.2c-.038.289,1.842.616,4.2.392l.2-4.8Z" transform="translate(-508.002 -254.245)"/><path class="x" d="M511.172,239.922s-1.449-.8-1.7-.931-1.251-.566-1.406-1c-.1-.269.2-.113.563-.012.836.234-1.178-2.572-.376-2.919.391-.168,1.36-.413,2.364,2.656.257.785,1.327.9,1.534,1.2Z" transform="translate(-500.799 -226.977)"/><path class="c" d="M519.609,236.54a16.317,16.317,0,0,0,1.281,4.675l-8.6-4.7s-2.063,1.612-1.426,3.621c0,0,10.662,7.047,13.7,5.078,1.619-1.049.7-6.384-.535-8.748C521.806,232.229,519.068,233.515,519.609,236.54Z" transform="translate(-501.866 -226.495)"/><path class="x" d="M523.153,230.964V234.4l2.59-1.063-.712-2.663Z" transform="translate(-506.783 -225.272)"/><path class="x" d="M500.383,245.8a1.345,1.345,0,0,1-1.426-1.2c-.01-1.112-.555-1.639-.561-1.394-.007.229.155.753.1.632-.065-.145-.8-2.787-2.282-2.024-.434.224-.013,2.254.815,3.459.857,1.249,1.56.642,2.087,1.764Z" transform="translate(-496.041 -229.63)"/><path class="bl" d="M520.73,312.965a20.419,20.419,0,0,0-3.241.21c-.961.115-4.16.976-4.785,1.646-1,1.075,8.028,2.194,8.036.951C520.753,313.917,520.73,312.965,520.73,312.965Z" transform="translate(-502.612 -257.875)"/><path class="x" d="M519.118,306.7v4.028c-.039.289,1.841.615,4.2.392l.2-4.8Z" transform="translate(-505.184 -255.247)"/><path class="bm" d="M530.26,265.069l-.327,26.522s-4.018.973-6.208,0l.882-25.648Z" transform="translate(-507.01 -238.901)"/><path class="bn" d="M523.725,270.032l-.445,24.393a11.282,11.282,0,0,1-5.549-.714c.182-1.765.008-22.452-.061-23.981-.007-.161-.011-.246-.011-.246Z" transform="translate(-504.607 -240.65)"/><path class="x" d="M520.876,225.913c.144,1.468.92,2.919,2.418,2.445a2.654,2.654,0,0,0,1.893-2.87,2.214,2.214,0,1,0-4.311.425Z" transform="translate(-505.875 -222.247)"/><path class="bo" d="M523.691,227.764s-.424.554-1.31.077a4.674,4.674,0,0,1-.74-1.266c-.078-.368.322-.956.124-1.24-.383-.551-.922-.3-.784.93-.2-.545-3.556-1.26-2.027-3.075,1.984-2.355,6.052-1.718,5.336.865C525.448,224.095,524.347,226.548,523.691,227.764Z" transform="translate(-504.962 -221.729)"/><path class="c" d="M517.03,235.957s-2.183,16.226-2.183,21.861c3.725,3.137,13.416.627,14.12-1.567,0,0-1.682-17.837-2.539-20.019C524.878,232.29,520.4,233.176,517.03,235.957Z" transform="translate(-503.492 -226.42)"/><g class="bp" transform="translate(12.079 12.945)"><path class="bq" d="M516.046,251.91a3.625,3.625,0,0,0,1.222-.435,2.782,2.782,0,0,0,.856-.89,12.157,12.157,0,0,0,1.09-2.344c.306-.817.56-1.657.805-2.5s.468-1.7.662-2.57a12.362,12.362,0,0,1-.223,2.672,16.2,16.2,0,0,1-.7,2.6,8.969,8.969,0,0,1-1.269,2.408,2.781,2.781,0,0,1-1.094.879A3.121,3.121,0,0,1,516.046,251.91Z" transform="translate(-516.046 -243.169)"/></g><path class="c" d="M509.768,239.019c-1.082,5.656-1.328,5.263-2.358,5.54-.826.222-6.8-2.868-6.8-2.868s-1.994,2-1.356,4.013c0,0,8.566,5.13,11.6,3.161,1.619-1.049,2.889-5.706,3.12-8.3C514.469,235.079,510.345,236,509.768,239.019Z" transform="translate(-497.265 -227.621)"/></g><g transform="translate(38.735 99.387)"><path class="w" d="M389.588,290.881c0,2.143,3.619,3.881,8.084,3.881s8.083-1.738,8.083-3.881-3.619-3.88-8.083-3.88S389.588,288.738,389.588,290.881Z" transform="translate(-389.588 -278.373)"/><g transform="translate(0.65 7.157)"><path class="br" d="M405.532,290.474v1.459c0,1.971-3.328,3.568-7.433,3.568s-7.433-1.6-7.433-3.568v-1.459Z" transform="translate(-390.665 -286.906)"/><path class="bs" d="M408.751,292.2h-.738v3.672c.257-.056.5-.122.738-.192Z" transform="translate(-397.539 -287.589)"/><path class="bs" d="M396.735,292.354h.738v3.672c-.257-.055-.5-.121-.738-.191Z" transform="translate(-393.07 -287.651)"/><path class="bs" d="M412.453,294.32a4.1,4.1,0,0,0,1.3-1.11v-2.457h-1.3Z" transform="translate(-399.298 -287.016)"/><path class="bt" d="M390.665,288.132c0,1.971,3.327,3.568,7.433,3.568s7.433-1.6,7.433-3.568-3.328-3.568-7.433-3.568S390.665,286.162,390.665,288.132Z" transform="translate(-390.665 -284.564)"/><path class="bu" d="M393.5,288.64c0,1.482,2.562,2.683,5.723,2.683s5.722-1.2,5.722-2.683-2.562-2.682-5.722-2.682S393.5,287.159,393.5,288.64Z" transform="translate(-391.788 -285.116)"/><path class="bv" d="M399.221,286.33c3.027,0,5.5,1.1,5.7,2.5a1.279,1.279,0,0,0,.02-.186c0-1.481-2.562-2.682-5.722-2.682s-5.723,1.2-5.723,2.682a1.27,1.27,0,0,0,.02.186C393.723,287.433,396.194,286.33,399.221,286.33Z" transform="translate(-391.788 -285.116)"/><path class="bv" d="M403.393,288.217l.523-.269-.414-.211-.524.269a3.558,3.558,0,0,0-2.913-.111c-1.016.522-.339,1.066.175,1.516l-1.021.524c-.152-.152-.118-.3.123-.449l-1.185-.6c-.807.444-.619,1.008.189,1.5l-.53.273.414.211.524-.269a3.567,3.567,0,0,0,2.95.112c1-.514.3-1.064-.206-1.52l1-.514c.12.125.094.265-.118.4l1.192.607C404.335,289.232,404.218,288.708,403.393,288.217Zm-2.894,1.918a1.146,1.146,0,0,1-.881.019l.915-.47C400.691,289.862,400.732,290.015,400.5,290.135Zm.722-1.227c-.135-.173-.152-.322.074-.437a1.019,1.019,0,0,1,.825-.024Z" transform="translate(-393.428 -285.779)"/><path class="bw" d="M403.393,287.938l.523-.269-.414-.211-.524.269a3.558,3.558,0,0,0-2.913-.111c-1.016.522-.339,1.066.175,1.516l-1.021.524c-.152-.152-.118-.3.123-.449l-1.185-.6c-.807.445-.619,1.008.189,1.5l-.53.273.414.211.524-.269a3.567,3.567,0,0,0,2.95.112c1-.514.3-1.064-.206-1.52l1-.514c.12.125.094.265-.118.4l1.192.607C404.335,288.954,404.218,288.43,403.393,287.938Zm-2.894,1.918a1.147,1.147,0,0,1-.881.019l.915-.47C400.691,289.583,400.732,289.736,400.5,289.856Zm.722-1.228c-.135-.173-.152-.322.074-.437a1.019,1.019,0,0,1,.825-.024Z" transform="translate(-393.428 -285.669)"/></g><g transform="translate(0.65 4.771)"><path class="br" d="M405.532,286.523v1.459c0,1.97-3.328,3.568-7.433,3.568s-7.433-1.6-7.433-3.568v-1.459Z" transform="translate(-390.665 -282.955)"/><path class="bs" d="M408.751,288.247h-.738v3.672c.257-.056.5-.122.738-.192Z" transform="translate(-397.539 -283.638)"/><path class="bs" d="M396.735,288.4h.738v3.672c-.257-.055-.5-.121-.738-.191Z" transform="translate(-393.07 -283.7)"/><path class="bs" d="M412.453,290.369a4.1,4.1,0,0,0,1.3-1.11V286.8h-1.3Z" transform="translate(-399.298 -283.065)"/><path class="bt" d="M390.665,284.182c0,1.971,3.327,3.568,7.433,3.568s7.433-1.6,7.433-3.568-3.328-3.568-7.433-3.568S390.665,282.211,390.665,284.182Z" transform="translate(-390.665 -280.613)"/><path class="bu" d="M393.5,284.689c0,1.482,2.562,2.683,5.723,2.683s5.722-1.2,5.722-2.683-2.562-2.682-5.722-2.682S393.5,283.208,393.5,284.689Z" transform="translate(-391.788 -281.165)"/><path class="bv" d="M399.221,282.379c3.027,0,5.5,1.1,5.7,2.5a1.276,1.276,0,0,0,.02-.186c0-1.481-2.562-2.682-5.722-2.682s-5.723,1.2-5.723,2.682a1.268,1.268,0,0,0,.02.186C393.723,283.482,396.194,282.379,399.221,282.379Z" transform="translate(-391.788 -281.165)"/><path class="bv" d="M403.393,284.266l.523-.269-.414-.211-.524.269a3.558,3.558,0,0,0-2.913-.111c-1.016.522-.339,1.066.175,1.516l-1.021.524c-.152-.152-.118-.3.123-.449l-1.185-.6c-.807.445-.619,1.008.189,1.5l-.53.273.414.211.524-.269a3.567,3.567,0,0,0,2.95.112c1-.514.3-1.064-.206-1.52l1-.514c.12.125.094.265-.118.4l1.192.607C404.335,285.282,404.218,284.757,403.393,284.266Zm-2.894,1.918a1.147,1.147,0,0,1-.881.019l.915-.47C400.691,285.911,400.732,286.065,400.5,286.184Zm.722-1.228c-.135-.173-.152-.322.074-.437a1.019,1.019,0,0,1,.825-.024Z" transform="translate(-393.428 -281.828)"/><path class="bw" d="M403.393,283.987l.523-.269-.414-.211-.524.269a3.558,3.558,0,0,0-2.913-.111c-1.016.522-.339,1.066.175,1.516l-1.021.524c-.152-.152-.118-.3.123-.449l-1.185-.6c-.807.445-.619,1.008.189,1.5l-.53.273.414.211.524-.269a3.567,3.567,0,0,0,2.95.112c1-.514.3-1.064-.206-1.52l1-.514c.12.125.094.265-.118.4l1.192.607C404.335,285,404.218,284.478,403.393,283.987ZM400.5,285.9a1.147,1.147,0,0,1-.881.019l.915-.47C400.691,285.632,400.732,285.786,400.5,285.9Zm.722-1.228c-.135-.173-.152-.322.074-.437a1.019,1.019,0,0,1,.825-.024Z" transform="translate(-393.428 -281.718)"/></g><g transform="translate(0.65 2.386)"><path class="br" d="M405.532,282.572v1.459c0,1.971-3.328,3.568-7.433,3.568s-7.433-1.6-7.433-3.568v-1.459Z" transform="translate(-390.665 -279.004)"/><path class="bs" d="M408.751,284.3h-.738v3.672c.257-.056.5-.122.738-.192Z" transform="translate(-397.539 -279.687)"/><path class="bs" d="M396.735,284.452h.738v3.672c-.257-.055-.5-.121-.738-.191Z" transform="translate(-393.07 -279.749)"/><path class="bs" d="M412.453,286.418a4.1,4.1,0,0,0,1.3-1.11v-2.457h-1.3Z" transform="translate(-399.298 -279.114)"/><path class="bt" d="M390.665,280.23c0,1.971,3.327,3.568,7.433,3.568s7.433-1.6,7.433-3.568-3.328-3.568-7.433-3.568S390.665,278.26,390.665,280.23Z" transform="translate(-390.665 -276.662)"/><path class="bu" d="M393.5,280.738c0,1.482,2.562,2.683,5.723,2.683s5.722-1.2,5.722-2.683-2.562-2.682-5.722-2.682S393.5,279.257,393.5,280.738Z" transform="translate(-391.788 -277.214)"/><path class="bv" d="M399.221,278.428c3.027,0,5.5,1.1,5.7,2.5a1.276,1.276,0,0,0,.02-.186c0-1.481-2.562-2.682-5.722-2.682s-5.723,1.2-5.723,2.682a1.268,1.268,0,0,0,.02.186C393.723,279.53,396.194,278.428,399.221,278.428Z" transform="translate(-391.788 -277.214)"/><path class="bv" d="M403.393,280.315l.523-.269-.414-.211-.524.269a3.558,3.558,0,0,0-2.913-.111c-1.016.522-.339,1.066.175,1.515l-1.021.524c-.152-.152-.118-.3.123-.449l-1.185-.6c-.807.444-.619,1.008.189,1.5l-.53.273.414.211.524-.269a3.567,3.567,0,0,0,2.95.112c1-.514.3-1.064-.206-1.52l1-.514c.12.125.094.265-.118.4l1.192.607C404.335,281.331,404.218,280.806,403.393,280.315Zm-2.894,1.918a1.147,1.147,0,0,1-.881.019l.915-.47C400.691,281.96,400.732,282.114,400.5,282.233Zm.722-1.228c-.135-.173-.152-.322.074-.437a1.019,1.019,0,0,1,.825-.024Z" transform="translate(-393.428 -277.877)"/><path class="bw" d="M403.393,280.036l.523-.269-.414-.211-.524.269a3.558,3.558,0,0,0-2.913-.111c-1.016.522-.339,1.066.175,1.515l-1.021.524c-.152-.152-.118-.3.123-.449l-1.185-.6c-.807.445-.619,1.008.189,1.5l-.53.273.414.211.524-.269a3.567,3.567,0,0,0,2.95.112c1-.514.3-1.064-.206-1.52l1-.514c.12.125.094.265-.118.4l1.192.607C404.335,281.052,404.218,280.528,403.393,280.036Zm-2.894,1.918a1.147,1.147,0,0,1-.881.019l.915-.47C400.691,281.681,400.732,281.835,400.5,281.954Zm.722-1.227c-.135-.173-.152-.321.074-.437a1.019,1.019,0,0,1,.825-.024Z" transform="translate(-393.428 -277.767)"/></g><g transform="translate(0.65)"><path class="br" d="M405.532,278.621v1.459c0,1.971-3.328,3.568-7.433,3.568s-7.433-1.6-7.433-3.568v-1.459Z" transform="translate(-390.665 -275.053)"/><path class="bs" d="M408.751,280.477h-.738v3.672c.257-.055.5-.121.738-.192Z" transform="translate(-397.539 -275.788)"/><path class="bs" d="M396.72,280.366h.738v3.672c-.257-.056-.5-.121-.738-.192Z" transform="translate(-393.064 -275.744)"/><path class="bs" d="M412.453,282.467a4.1,4.1,0,0,0,1.3-1.11V278.9h-1.3Z" transform="translate(-399.298 -275.163)"/><path class="bx" d="M390.665,276.279c0,1.971,3.327,3.568,7.433,3.568s7.433-1.6,7.433-3.568-3.328-3.568-7.433-3.568S390.665,274.309,390.665,276.279Z" transform="translate(-390.665 -272.711)"/><path class="by" d="M393.5,276.787c0,1.482,2.562,2.683,5.723,2.683s5.722-1.2,5.722-2.683-2.562-2.682-5.722-2.682S393.5,275.307,393.5,276.787Z" transform="translate(-391.788 -273.263)"/><path class="bz" d="M399.221,274.477c3.027,0,5.5,1.1,5.7,2.5a1.278,1.278,0,0,0,.02-.186c0-1.481-2.562-2.682-5.722-2.682s-5.723,1.2-5.723,2.682a1.27,1.27,0,0,0,.02.186C393.723,275.58,396.194,274.477,399.221,274.477Z" transform="translate(-391.788 -273.263)"/><path class="ca" d="M403.393,276.364l.523-.269-.414-.211-.524.269a3.558,3.558,0,0,0-2.913-.111c-1.016.522-.339,1.066.175,1.515l-1.021.524c-.152-.152-.118-.3.123-.449l-1.185-.605c-.807.446-.619,1.009.189,1.5l-.53.273.414.211.524-.269a3.564,3.564,0,0,0,2.95.112c1-.514.3-1.064-.206-1.52l1-.514c.12.125.094.265-.118.4l1.192.607C404.335,277.38,404.218,276.856,403.393,276.364Zm-2.894,1.918a1.147,1.147,0,0,1-.881.019l.915-.47C400.691,278.009,400.732,278.163,400.5,278.282Zm.722-1.227c-.135-.173-.152-.321.074-.437a1.019,1.019,0,0,1,.825-.024Z" transform="translate(-393.428 -273.926)"/><path class="cb" d="M403.393,276.085l.523-.269-.414-.211-.524.269a3.558,3.558,0,0,0-2.913-.111c-1.016.522-.339,1.066.175,1.516l-1.021.524c-.152-.152-.118-.3.123-.449l-1.185-.6c-.807.445-.619,1.008.189,1.5l-.53.273.414.211.524-.269a3.565,3.565,0,0,0,2.95.112c1-.514.3-1.064-.206-1.52l1-.514c.12.125.094.265-.118.4l1.192.607C404.335,277.1,404.218,276.576,403.393,276.085ZM400.5,278a1.147,1.147,0,0,1-.881.019l.915-.47C400.691,277.73,400.732,277.884,400.5,278Zm.722-1.228c-.135-.173-.152-.321.074-.437a1.019,1.019,0,0,1,.825-.024Z" transform="translate(-393.428 -273.816)"/></g></g><g transform="translate(117.132 144.736)"><g class="cc" transform="translate(26.698)"><path class="cd" d="M572.821,394.254l-4.124,1.836a.6.6,0,0,1-.5,0l-4.477-2.025a.132.132,0,0,1,0-.241l4.257-1.847a.6.6,0,0,1,.5.007l4.342,2.031A.132.132,0,0,1,572.821,394.254Z" transform="translate(-563.647 -365.294)"/><g transform="translate(0.245)"><path class="c" d="M572.815,374.515l-4.224,1.877-4.539-2.056v-23.26l8.75.055Z" transform="translate(-564.053 -349.109)"/><path class="c" d="M572.8,349.84l-4.211,1.916-4.539-1.971,4.344-1.967Z" transform="translate(-564.053 -347.818)"/><path class="c" d="M568.591,376.391V353.046l-4.539-1.971v23.26Z" transform="translate(-564.053 -349.109)"/></g></g><g class="cc" transform="translate(17.798 14.39)"><path class="cd" d="M558.081,400.775l-4.125,1.836a.6.6,0,0,1-.5,0l-4.477-2.025a.132.132,0,0,1,0-.241l4.257-1.846a.6.6,0,0,1,.5.007l4.342,2.031A.132.132,0,0,1,558.081,400.775Z" transform="translate(-548.906 -382.268)"/><g transform="translate(0.246)"><path class="c" d="M558.077,387.895l-4.224,1.877-4.539-2.056V374.908l8.75.055Z" transform="translate(-549.314 -372.942)"/><path class="c" d="M558.064,373.673l-4.211,1.916-4.539-1.971,4.344-1.967Z" transform="translate(-549.314 -371.651)"/><path class="c" d="M553.853,389.771V376.879l-4.539-1.971v12.807Z" transform="translate(-549.314 -372.942)"/></g></g><g class="cc" transform="translate(8.899 12.216)"><path class="cd" d="M543.342,407.3l-4.124,1.836a.6.6,0,0,1-.5,0l-4.477-2.024a.132.132,0,0,1,0-.242l4.257-1.847a.6.6,0,0,1,.5.007l4.343,2.031A.132.132,0,0,1,543.342,407.3Z" transform="translate(-534.167 -382.678)"/><g transform="translate(0.246)"><path class="c" d="M543.338,390.405l-4.224,1.876-4.539-2.056V371.308l8.75.055Z" transform="translate(-534.576 -369.341)"/><path class="c" d="M543.326,370.072l-4.211,1.916-4.539-1.971,4.344-1.967Z" transform="translate(-534.576 -368.05)"/><path class="c" d="M539.114,392.282v-19l-4.539-1.971v18.919Z" transform="translate(-534.576 -369.341)"/></g></g><g class="cc" transform="translate(0 26.23)"><path class="cd" d="M528.6,413.818l-4.125,1.836a.6.6,0,0,1-.5,0l-4.476-2.024a.132.132,0,0,1,0-.242l4.257-1.846a.6.6,0,0,1,.5.007l4.343,2.031A.132.132,0,0,1,528.6,413.818Z" transform="translate(-519.429 -399.276)"/><g transform="translate(0.246)"><path class="c" d="M528.6,403.539l-4.224,1.876-4.539-2.056v-8.841l8.75.055Z" transform="translate(-519.837 -392.552)"/><path class="c" d="M528.587,393.283l-4.211,1.916-4.539-1.971,4.344-1.967Z" transform="translate(-519.837 -391.261)"/><path class="c" d="M524.376,405.415v-8.926l-4.539-1.971v8.841Z" transform="translate(-519.837 -392.552)"/></g></g></g><g transform="translate(0 66.213)"><g transform="translate(37.887)"><path class="ce" d="M391.209,222.029c1.058-.271,2.416-.721,2.421,1.042a4.828,4.828,0,0,1-2.407,3.782l0,.923-.323.518-.312-.152,0-.934c-1.346.643-2.329.4-2.384-1.039l1.8-1.041.312.152s-.227.546.264.392l0-1.8c-1.063.292-2.39.719-2.4-1.068a4.855,4.855,0,0,1,2.381-3.749l0-.923.635-.367.312.152-.31.77c1.357-.654,2.228-.362,2.324,1.033l-1.5,1.2-.312-.152c-.042-.4-.231-.551-.506-.51Zm.009,3.311a1.555,1.555,0,0,0,.638-1.18c0-.409-.256-.49-.642-.437l0,1.617m-.645-3.189,0-1.577a1.37,1.37,0,0,0-.592,1.1c0,.4.241.5.6.474" transform="translate(-388.183 -217.767)"/><g transform="translate(0.312 0.152)"><path class="cf" d="M391.726,222.28c1.058-.271,2.416-.722,2.421,1.042a4.83,4.83,0,0,1-2.408,3.781l0,.923-.635.366,0-.934c-1.346.644-2.33.4-2.385-1.039l1.8-1.041c.037.447.237.618.577.544l-.005-1.8c-1.063.292-2.39.719-2.4-1.067a4.856,4.856,0,0,1,2.382-3.75l0-.923.635-.367,0,.923c1.357-.655,2.228-.363,2.324,1.032l-1.814,1.048c-.042-.4-.231-.551-.505-.51Zm.009,3.311a1.555,1.555,0,0,0,.638-1.181c0-.409-.255-.49-.642-.436l0,1.617m-.645-3.189,0-1.576a1.371,1.371,0,0,0-.592,1.1c0,.4.24.5.6.474" transform="translate(-388.7 -218.018)"/></g></g><g transform="translate(179.962 32.213)"><g transform="translate(0.313)"><path class="cg" d="M626.433,273.612c-.275-.042-.463.112-.505.51l-.312.152-1.5-1.2c.1-1.4.967-1.688,2.324-1.033l-.309-.77.312-.152.635.367,0,.923a4.855,4.855,0,0,1,2.382,3.75c0,1.786-1.332,1.359-2.4,1.067l0,1.8c.491.153.264-.392.264-.392l.313-.152,1.8,1.041c-.055,1.436-1.039,1.682-2.384,1.039l0,.934-.313.152-.322-.517,0-.923a4.828,4.828,0,0,1-2.407-3.782c0-1.763,1.363-1.313,2.421-1.041Zm-.014,5.079,0-1.617c-.387-.054-.642.027-.642.437a1.555,1.555,0,0,0,.638,1.18m.645-3.189c.356.024.6-.077.6-.474a1.369,1.369,0,0,0-.592-1.1l0,1.576" transform="translate(-624.008 -271.119)"/></g><g transform="translate(0 0.152)"><path class="ch" d="M625.916,273.863c-.275-.042-.464.112-.505.51l-1.815-1.048c.1-1.4.967-1.688,2.324-1.032l0-.923.635.366,0,.923a4.856,4.856,0,0,1,2.381,3.75c0,1.787-1.332,1.36-2.4,1.068l0,1.8c.34.074.54-.1.577-.544l1.8,1.041c-.054,1.437-1.038,1.682-2.384,1.038l0,.934-.635-.366,0-.923a4.83,4.83,0,0,1-2.407-3.781c0-1.764,1.363-1.313,2.421-1.042Zm-.014,5.08,0-1.617c-.387-.054-.641.027-.642.436a1.553,1.553,0,0,0,.638,1.181m.645-3.189c.356.025.595-.077.6-.474a1.37,1.37,0,0,0-.592-1.1l0,1.576" transform="translate(-623.49 -271.37)"/></g></g></g><g transform="translate(130.246 106.22)"><path class="w" d="M558.893,298.624c-4.465,0-8.084,1.738-8.084,3.88a2.04,2.04,0,0,0,.261.963,16.581,16.581,0,0,0-1.837-.1c-4.464,0-8.083,1.738-8.083,3.88s3.619,3.88,8.083,3.88,8.083-1.738,8.083-3.88a2.043,2.043,0,0,0-.261-.963,16.615,16.615,0,0,0,1.839.1c4.464,0,8.082-1.738,8.082-3.881S563.356,298.624,558.893,298.624Z" transform="translate(-541.149 -289.811)"/><g transform="translate(10.243)"><g transform="translate(0 7.157)"><path class="br" d="M572.98,301.79v1.459c0,1.971-3.328,3.568-7.433,3.568s-7.434-1.6-7.434-3.568V301.79Z" transform="translate(-558.113 -298.222)"/><path class="bs" d="M576.2,303.514h-.738v3.672c.257-.056.5-.121.738-.192Z" transform="translate(-564.987 -298.905)"/><path class="bs" d="M564.183,303.671h.738v3.672c-.257-.056-.5-.122-.738-.192Z" transform="translate(-560.518 -298.967)"/><path class="bs" d="M579.9,305.636a4.1,4.1,0,0,0,1.3-1.109V302.07h-1.3Z" transform="translate(-566.746 -298.333)"/><path class="bt" d="M558.113,299.448c0,1.971,3.328,3.568,7.434,3.568s7.433-1.6,7.433-3.568-3.328-3.568-7.433-3.568S558.113,297.478,558.113,299.448Z" transform="translate(-558.113 -295.88)"/><path class="bu" d="M560.947,299.956c0,1.482,2.562,2.683,5.723,2.683s5.722-1.2,5.722-2.683-2.562-2.682-5.722-2.682S560.947,298.476,560.947,299.956Z" transform="translate(-559.236 -296.432)"/><path class="bv" d="M566.67,297.646c3.026,0,5.5,1.1,5.7,2.5a1.283,1.283,0,0,0,.02-.186c0-1.48-2.562-2.682-5.722-2.682s-5.723,1.2-5.723,2.682a1.275,1.275,0,0,0,.02.186C561.172,298.749,563.643,297.646,566.67,297.646Z" transform="translate(-559.236 -296.432)"/><path class="bv" d="M570.842,299.533l.524-.269-.414-.211-.524.269a3.562,3.562,0,0,0-2.913-.111c-1.016.522-.339,1.066.176,1.516l-1.021.524c-.152-.151-.119-.3.123-.449l-1.185-.6c-.807.445-.619,1.008.189,1.5l-.531.272.414.211.523-.269a3.564,3.564,0,0,0,2.949.112c1-.514.3-1.064-.206-1.52l1-.514c.12.125.094.265-.118.4l1.193.607C571.784,300.549,571.667,300.025,570.842,299.533Zm-2.895,1.918a1.144,1.144,0,0,1-.881.019l.916-.47C568.14,301.178,568.18,301.332,567.948,301.451Zm.722-1.228c-.134-.173-.152-.321.074-.437a1.019,1.019,0,0,1,.825-.024Z" transform="translate(-560.877 -297.095)"/><path class="bw" d="M570.842,299.254l.524-.269-.414-.211-.524.269a3.562,3.562,0,0,0-2.913-.111c-1.016.522-.339,1.066.176,1.515l-1.021.524c-.152-.152-.119-.3.123-.449l-1.185-.6c-.807.445-.619,1.008.189,1.5l-.531.272.414.211.523-.269a3.562,3.562,0,0,0,2.949.112c1-.514.3-1.064-.206-1.52l1-.514c.12.125.094.265-.118.4l1.193.607C571.784,300.27,571.667,299.746,570.842,299.254Zm-2.895,1.918a1.144,1.144,0,0,1-.881.019l.916-.47C568.14,300.9,568.18,301.053,567.948,301.172Zm.722-1.227c-.134-.174-.152-.322.074-.438a1.021,1.021,0,0,1,.825-.024Z" transform="translate(-560.877 -296.985)"/></g><g transform="translate(0 4.771)"><path class="br" d="M572.98,297.839V299.3c0,1.971-3.328,3.568-7.433,3.568s-7.434-1.6-7.434-3.568v-1.459Z" transform="translate(-558.113 -294.271)"/><path class="bs" d="M576.2,299.563h-.738v3.672c.257-.056.5-.121.738-.192Z" transform="translate(-564.987 -294.954)"/><path class="bs" d="M564.183,299.72h.738v3.672c-.257-.056-.5-.122-.738-.192Z" transform="translate(-560.518 -295.016)"/><path class="bs" d="M579.9,301.685a4.1,4.1,0,0,0,1.3-1.109v-2.457h-1.3Z" transform="translate(-566.746 -294.382)"/><path class="bt" d="M558.113,295.5c0,1.971,3.328,3.568,7.434,3.568s7.433-1.6,7.433-3.568-3.328-3.568-7.433-3.568S558.113,293.527,558.113,295.5Z" transform="translate(-558.113 -291.929)"/><path class="bu" d="M560.947,296.005c0,1.482,2.562,2.683,5.723,2.683s5.722-1.2,5.722-2.683-2.562-2.682-5.722-2.682S560.947,294.525,560.947,296.005Z" transform="translate(-559.236 -292.481)"/><path class="bv" d="M566.67,293.7c3.026,0,5.5,1.1,5.7,2.5a1.282,1.282,0,0,0,.02-.186c0-1.481-2.562-2.682-5.722-2.682s-5.723,1.2-5.723,2.682a1.273,1.273,0,0,0,.02.186C561.172,294.8,563.643,293.7,566.67,293.7Z" transform="translate(-559.236 -292.481)"/><path class="bv" d="M570.842,295.582l.524-.269-.414-.211-.524.269a3.561,3.561,0,0,0-2.913-.111c-1.016.522-.339,1.066.176,1.516l-1.021.524c-.152-.152-.119-.3.123-.449l-1.185-.6c-.807.445-.619,1.008.189,1.5l-.531.273.414.211.523-.269a3.562,3.562,0,0,0,2.949.112c1-.514.3-1.064-.206-1.52l1-.514c.12.126.094.265-.118.4l1.193.607C571.784,296.6,571.667,296.074,570.842,295.582Zm-2.895,1.918a1.144,1.144,0,0,1-.881.019l.916-.47C568.14,297.228,568.18,297.381,567.948,297.5Zm.722-1.227c-.134-.174-.152-.322.074-.438a1.021,1.021,0,0,1,.825-.024Z" transform="translate(-560.877 -293.144)"/><path class="bw" d="M570.842,295.3l.524-.269-.414-.211-.524.269a3.559,3.559,0,0,0-2.913-.111c-1.016.521-.339,1.066.176,1.515l-1.021.524c-.152-.152-.119-.3.123-.449l-1.185-.6c-.807.445-.619,1.008.189,1.5l-.531.272.414.211.523-.269a3.562,3.562,0,0,0,2.949.112c1-.514.3-1.064-.206-1.52l1-.514c.12.126.094.265-.118.4l1.193.607C571.784,296.319,571.667,295.8,570.842,295.3Zm-2.895,1.918a1.144,1.144,0,0,1-.881.019l.916-.47C568.14,296.949,568.18,297.1,567.948,297.221Zm.722-1.227c-.134-.174-.152-.322.074-.438a1.021,1.021,0,0,1,.825-.024Z" transform="translate(-560.877 -293.034)"/></g><g transform="translate(0 2.386)"><path class="br" d="M572.98,293.888v1.459c0,1.971-3.328,3.568-7.433,3.568s-7.434-1.6-7.434-3.568v-1.459Z" transform="translate(-558.113 -290.32)"/><path class="bs" d="M576.2,295.612h-.738v3.672c.257-.056.5-.121.738-.192Z" transform="translate(-564.987 -291.003)"/><path class="bs" d="M564.183,295.769h.738v3.672c-.257-.056-.5-.122-.738-.192Z" transform="translate(-560.518 -291.065)"/><path class="bs" d="M579.9,297.734a4.1,4.1,0,0,0,1.3-1.109v-2.457h-1.3Z" transform="translate(-566.746 -290.431)"/><path class="bt" d="M558.113,291.546c0,1.971,3.328,3.568,7.434,3.568s7.433-1.6,7.433-3.568-3.328-3.568-7.433-3.568S558.113,289.576,558.113,291.546Z" transform="translate(-558.113 -287.978)"/><path class="bu" d="M560.947,292.054c0,1.482,2.562,2.683,5.723,2.683s5.722-1.2,5.722-2.683-2.562-2.682-5.722-2.682S560.947,290.574,560.947,292.054Z" transform="translate(-559.236 -288.53)"/><path class="bv" d="M566.67,289.744c3.026,0,5.5,1.1,5.7,2.5a1.284,1.284,0,0,0,.02-.186c0-1.481-2.562-2.682-5.722-2.682s-5.723,1.2-5.723,2.682a1.275,1.275,0,0,0,.02.186C561.172,290.846,563.643,289.744,566.67,289.744Z" transform="translate(-559.236 -288.53)"/><path class="bv" d="M570.842,291.631l.524-.269-.414-.211-.524.269a3.562,3.562,0,0,0-2.913-.111c-1.016.522-.339,1.066.176,1.516l-1.021.524c-.152-.152-.119-.3.123-.449l-1.185-.6c-.807.445-.619,1.008.189,1.5l-.531.272.414.211.523-.268a3.564,3.564,0,0,0,2.949.112c1-.514.3-1.064-.206-1.52l1-.514c.12.125.094.265-.118.4l1.193.607C571.784,292.647,571.667,292.123,570.842,291.631Zm-2.895,1.918a1.144,1.144,0,0,1-.881.019l.916-.47C568.14,293.276,568.18,293.43,567.948,293.549Zm.722-1.228c-.134-.173-.152-.321.074-.437a1.019,1.019,0,0,1,.825-.024Z" transform="translate(-560.877 -289.193)"/><path class="bw" d="M570.842,291.352l.524-.269-.414-.211-.524.269a3.562,3.562,0,0,0-2.913-.111c-1.016.522-.339,1.066.176,1.516l-1.021.524c-.152-.152-.119-.3.123-.449l-1.185-.6c-.807.445-.619,1.008.189,1.5l-.531.272.414.211.523-.269a3.562,3.562,0,0,0,2.949.112c1-.514.3-1.064-.206-1.52l1-.514c.12.125.094.265-.118.4l1.193.607C571.784,292.368,571.667,291.844,570.842,291.352Zm-2.895,1.918a1.144,1.144,0,0,1-.881.019l.916-.47C568.14,293,568.18,293.151,567.948,293.27Zm.722-1.227c-.134-.174-.152-.322.074-.438a1.021,1.021,0,0,1,.825-.024Z" transform="translate(-560.877 -289.083)"/></g><path class="br" d="M572.98,289.937V291.4c0,1.971-3.328,3.568-7.433,3.568s-7.434-1.6-7.434-3.568v-1.459Z" transform="translate(-558.113 -286.369)"/><path class="bs" d="M576.2,291.794h-.738v3.672c.257-.056.5-.122.738-.192Z" transform="translate(-564.987 -287.104)"/><path class="bs" d="M564.168,291.682h.738v3.672c-.257-.055-.5-.121-.738-.192Z" transform="translate(-560.512 -287.06)"/><path class="bs" d="M579.9,293.783a4.1,4.1,0,0,0,1.3-1.109v-2.457h-1.3Z" transform="translate(-566.746 -286.48)"/><path class="bx" d="M558.113,287.6c0,1.971,3.328,3.568,7.434,3.568s7.433-1.6,7.433-3.568-3.328-3.568-7.433-3.568S558.113,285.625,558.113,287.6Z" transform="translate(-558.113 -284.027)"/><path class="by" d="M560.947,288.1c0,1.482,2.562,2.683,5.723,2.683s5.722-1.2,5.722-2.683-2.562-2.682-5.722-2.682S560.947,286.623,560.947,288.1Z" transform="translate(-559.236 -284.579)"/><path class="ci" d="M566.67,285.793c3.026,0,5.5,1.1,5.7,2.5a1.28,1.28,0,0,0,.02-.186c0-1.48-2.562-2.682-5.722-2.682s-5.723,1.2-5.723,2.682a1.272,1.272,0,0,0,.02.186C561.172,286.9,563.643,285.793,566.67,285.793Z" transform="translate(-559.236 -284.579)"/><path class="ca" d="M570.842,287.68l.524-.269-.414-.211-.524.269a3.559,3.559,0,0,0-2.913-.11c-1.016.521-.339,1.066.176,1.515l-1.021.524c-.152-.152-.119-.3.123-.449l-1.185-.6c-.807.445-.619,1.008.189,1.5l-.531.273.414.211.523-.268a3.564,3.564,0,0,0,2.949.112c1-.514.3-1.064-.206-1.52l1-.514c.12.126.094.265-.118.4l1.193.607C571.784,288.7,571.667,288.172,570.842,287.68Zm-2.895,1.918a1.144,1.144,0,0,1-.881.019l.916-.47C568.14,289.326,568.18,289.479,567.948,289.6Zm.722-1.227c-.134-.174-.152-.322.074-.438a1.021,1.021,0,0,1,.825-.024Z" transform="translate(-560.877 -285.242)"/><path class="cb" d="M570.842,287.4l.524-.269-.414-.211-.524.269a3.559,3.559,0,0,0-2.913-.11c-1.016.521-.339,1.066.176,1.515l-1.021.524c-.152-.152-.119-.3.123-.449l-1.185-.6c-.807.445-.619,1.008.189,1.5l-.531.272.414.211.523-.268a3.567,3.567,0,0,0,2.949.112c1-.515.3-1.064-.206-1.52l1-.514c.12.126.094.265-.118.4l1.193.607C571.784,288.417,571.667,287.893,570.842,287.4Zm-2.895,1.918a1.144,1.144,0,0,1-.881.019l.916-.47C568.14,289.047,568.18,289.2,567.948,289.319Zm.722-1.227c-.134-.174-.152-.322.074-.438a1.021,1.021,0,0,1,.825-.024Z" transform="translate(-560.877 -285.132)"/></g><g transform="translate(0.528 9.33)"><g transform="translate(0 2.386)"><path class="br" d="M556.891,309.341V310.8c0,1.971-3.328,3.568-7.433,3.568s-7.433-1.6-7.433-3.568v-1.459Z" transform="translate(-542.024 -305.773)"/><path class="bs" d="M560.11,311.065h-.738v3.672c.257-.056.5-.122.738-.192Z" transform="translate(-548.897 -306.456)"/><path class="bs" d="M548.094,311.222h.738v3.672c-.257-.056-.5-.122-.738-.192Z" transform="translate(-544.429 -306.518)"/><path class="bs" d="M563.812,313.187a4.1,4.1,0,0,0,1.3-1.109v-2.457h-1.3Z" transform="translate(-550.657 -305.884)"/><path class="bt" d="M542.024,307c0,1.971,3.328,3.568,7.433,3.568s7.433-1.6,7.433-3.568-3.328-3.568-7.433-3.568S542.024,305.029,542.024,307Z" transform="translate(-542.024 -303.431)"/><path class="bu" d="M544.857,307.507c0,1.482,2.562,2.683,5.723,2.683s5.722-1.2,5.722-2.683-2.562-2.682-5.722-2.682S544.857,306.027,544.857,307.507Z" transform="translate(-543.146 -303.983)"/><path class="bv" d="M550.58,305.2c3.027,0,5.5,1.1,5.7,2.5a1.275,1.275,0,0,0,.02-.186c0-1.481-2.562-2.682-5.722-2.682s-5.723,1.2-5.723,2.682a1.267,1.267,0,0,0,.02.186C545.082,306.3,547.553,305.2,550.58,305.2Z" transform="translate(-543.146 -303.983)"/><path class="bv" d="M554.753,307.084l.523-.269-.414-.211-.524.269a3.56,3.56,0,0,0-2.913-.111c-1.016.522-.339,1.066.175,1.515l-1.021.524c-.152-.152-.118-.3.123-.449l-1.185-.6c-.807.445-.62,1.008.188,1.5l-.53.273.414.211.523-.269a3.562,3.562,0,0,0,2.95.112c1-.514.3-1.064-.206-1.52l1-.514c.12.125.094.265-.118.4l1.192.607C555.694,308.1,555.577,307.576,554.753,307.084ZM551.859,309a1.144,1.144,0,0,1-.881.019l.916-.47C552.05,308.729,552.091,308.883,551.859,309Zm.722-1.227c-.135-.173-.152-.321.074-.437a1.02,1.02,0,0,1,.824-.024Z" transform="translate(-544.788 -304.646)"/><path class="bw" d="M554.753,306.8l.523-.269-.414-.211-.524.269a3.56,3.56,0,0,0-2.913-.111c-1.016.522-.339,1.066.175,1.516l-1.021.524c-.152-.152-.118-.3.123-.449l-1.185-.6c-.807.445-.62,1.008.188,1.5l-.53.273.414.211.523-.269a3.563,3.563,0,0,0,2.95.112c1-.514.3-1.064-.206-1.52l1-.514c.12.125.094.265-.118.4l1.192.607C555.694,307.821,555.577,307.3,554.753,306.8Zm-2.894,1.918a1.144,1.144,0,0,1-.881.019l.916-.47C552.05,308.45,552.091,308.6,551.859,308.723Zm.722-1.227c-.135-.173-.152-.321.074-.437a1.02,1.02,0,0,1,.824-.024Z" transform="translate(-544.788 -304.536)"/></g><path class="br" d="M556.891,305.39v1.459c0,1.971-3.328,3.568-7.433,3.568s-7.433-1.6-7.433-3.568V305.39Z" transform="translate(-542.024 -301.822)"/><path class="bs" d="M560.11,307.247h-.738v3.672c.257-.056.5-.122.738-.192Z" transform="translate(-548.897 -302.557)"/><path class="bs" d="M548.079,307.135h.738v3.672c-.257-.056-.5-.121-.738-.192Z" transform="translate(-544.423 -302.513)"/><path class="bs" d="M563.812,309.236a4.093,4.093,0,0,0,1.3-1.11V305.67h-1.3Z" transform="translate(-550.657 -301.933)"/><path class="bx" d="M542.024,303.049c0,1.971,3.328,3.568,7.433,3.568s7.433-1.6,7.433-3.568-3.328-3.568-7.433-3.568S542.024,301.078,542.024,303.049Z" transform="translate(-542.024 -299.48)"/><path class="by" d="M544.857,303.556c0,1.482,2.562,2.683,5.723,2.683s5.722-1.2,5.722-2.683-2.562-2.682-5.722-2.682S544.857,302.076,544.857,303.556Z" transform="translate(-543.146 -300.032)"/><path class="bz" d="M550.58,301.246c3.027,0,5.5,1.1,5.7,2.5a1.274,1.274,0,0,0,.02-.186c0-1.48-2.562-2.682-5.722-2.682s-5.723,1.2-5.723,2.682a1.266,1.266,0,0,0,.02.186C545.082,302.349,547.553,301.246,550.58,301.246Z" transform="translate(-543.146 -300.032)"/><path class="cj" d="M554.753,303.133l.523-.269-.414-.211-.524.269a3.56,3.56,0,0,0-2.913-.111c-1.016.522-.339,1.066.175,1.516l-1.021.524c-.152-.152-.118-.3.123-.449l-1.185-.6c-.807.445-.62,1.008.188,1.5l-.53.273.414.211.523-.269a3.562,3.562,0,0,0,2.95.112c1-.514.3-1.064-.206-1.52l1-.514c.12.125.094.265-.118.4l1.192.607C555.694,304.149,555.577,303.625,554.753,303.133Zm-2.894,1.918a1.147,1.147,0,0,1-.881.019l.916-.47C552.05,304.778,552.091,304.932,551.859,305.051Zm.722-1.227c-.135-.173-.152-.321.074-.437a1.017,1.017,0,0,1,.824-.024Z" transform="translate(-544.788 -300.695)"/><path class="ck" d="M554.753,302.854l.523-.269-.414-.211-.524.269a3.56,3.56,0,0,0-2.913-.111c-1.016.522-.339,1.066.175,1.515l-1.021.524c-.152-.152-.118-.3.123-.449l-1.185-.6c-.807.445-.62,1.008.188,1.5l-.53.272.414.211.523-.269a3.562,3.562,0,0,0,2.95.112c1-.514.3-1.064-.206-1.52l1-.514c.12.125.094.265-.118.4l1.192.607C555.694,303.87,555.577,303.346,554.753,302.854Zm-2.894,1.918a1.144,1.144,0,0,1-.881.019l.916-.47C552.05,304.5,552.091,304.653,551.859,304.772Zm.722-1.228c-.135-.173-.152-.321.074-.437a1.02,1.02,0,0,1,.824-.024Z" transform="translate(-544.788 -300.585)"/></g></g></g></g></svg>