<svg width="46" height="42" viewBox="0 0 46 42" fill="none" xmlns="http://www.w3.org/2000/svg">
<rect width="19" height="19" rx="8" fill="url(#paint0_linear)"/>
<rect x="8" y="5" width="38" height="37" rx="5" fill="url(#paint1_linear)"/>
<path d="M22.5166 21.5732C23.2788 21.5732 23.8987 20.9533 23.8987 20.1911C23.8987 19.4289 23.2788 18.8091 22.5166 18.8091C21.7544 18.8091 21.1346 19.4289 21.1346 20.1911C21.1346 20.9533 21.7543 21.5732 22.5166 21.5732ZM22.5166 19.5001C22.8976 19.5001 23.2077 19.8102 23.2077 20.1911C23.2077 20.5721 22.8976 20.8822 22.5166 20.8822C22.1357 20.8822 21.8256 20.5721 21.8256 20.1911C21.8256 19.8102 22.1356 19.5001 22.5166 19.5001ZM23.6802 16.9087C23.6802 16.6926 23.8553 16.5174 24.0714 16.5174C24.2874 16.5174 24.4626 16.6926 24.4626 16.9087C24.4626 17.1248 24.2874 17.2999 24.0714 17.2999C23.8553 17.2999 23.6802 17.1248 23.6802 16.9087ZM18.2434 22.0915C18.2434 22.3075 18.0682 22.4827 17.8521 22.4827C17.6361 22.4827 17.4609 22.3075 17.4609 22.0915C17.4609 21.8754 17.6361 21.7002 17.8521 21.7002C18.0682 21.7002 18.2434 21.8754 18.2434 22.0915ZM35.9918 16.0449H31.438C29.1861 16.0449 27.3539 17.8771 27.3539 20.129V24.3373H23.1456C20.8937 24.3373 19.0615 26.1695 19.0615 28.4214V32.9753C19.0615 33.1663 19.216 33.3208 19.407 33.3208H23.9608C26.2127 33.3208 28.0449 31.4886 28.0449 29.2367V25.0284H32.2532C34.5051 25.0284 36.3373 23.1962 36.3373 20.9443V16.3904C36.3373 16.1995 36.1828 16.0449 35.9918 16.0449ZM27.3539 29.2367C27.3539 31.1077 25.8318 32.6298 23.9608 32.6298H19.7525V28.4214C19.7525 26.5505 21.2746 25.0284 23.1456 25.0284H27.3539V29.2367Z" fill="url(#paint2_linear)"/>
<defs>
<linearGradient id="paint0_linear" x1="0" y1="9.5" x2="19" y2="9.5" gradientUnits="userSpaceOnUse">
<stop stop-color="#E0C3FC"/>
<stop offset="1" stop-color="#8EC5FC"/>
</linearGradient>
<linearGradient id="paint1_linear" x1="38.6714" y1="37.6393" x2="16.4843" y2="8.78507" gradientUnits="userSpaceOnUse">
<stop offset="0.130754" stop-color="#2D3135"/>
<stop offset="0.827958" stop-color="#35393E"/>
</linearGradient>
<linearGradient id="paint2_linear" x1="17.4609" y1="24.6829" x2="36.3373" y2="24.6829" gradientUnits="userSpaceOnUse">
<stop stop-color="#5EE7DF"/>
<stop offset="1" stop-color="#B490CA"/>
</linearGradient>
</defs>
</svg>
