<svg xmlns="http://www.w3.org/2000/svg" width="23.335" height="20.438" viewBox="0 0 23.335 20.438"><defs><style>.a{fill:#40e0d0;}</style></defs><g transform="translate(433.369 504.275)"><path class="a" d="M15.073,21.662A2.969,2.969,0,1,0,12.1,18.694,2.968,2.968,0,0,0,15.073,21.662Zm6.387,8.45a9.168,9.168,0,0,1-3.491-4.4c-.364-1.945-1.462-3.419-3.513-3.419-2.316,0-3.588,1.877-3.588,4.193v9.675h7.174V31.254a11.291,11.291,0,0,0,1.781,1.409,1.516,1.516,0,0,0,1.637-2.551ZM30,21.662a2.969,2.969,0,1,0-2.968-2.968A2.968,2.968,0,0,0,30,21.662Zm.617.632c-2.052,0-3.149,1.473-3.512,3.419a9.184,9.184,0,0,1-3.493,4.4,1.516,1.516,0,1,0,1.637,2.552,11.509,11.509,0,0,0,1.781-1.409v4.908H34.2V26.488C34.2,24.171,32.932,22.294,30.617,22.294Z" transform="translate(-444.237 -520)"/></g></svg>