<svg xmlns="http://www.w3.org/2000/svg" xmlns:xlink="http://www.w3.org/1999/xlink" width="42.799" height="42.799" viewBox="0 0 42.799 42.799"><defs><style>.a{fill:url(#a);}</style><linearGradient id="a" x1="0.5" x2="0.5" y2="1" gradientUnits="objectBoundingBox"><stop offset="0" stop-color="#667db6"/><stop offset="0.388" stop-color="#666baf"/><stop offset="1" stop-color="#654ea3"/></linearGradient></defs><g transform="translate(0 0)"><g transform="translate(0 0)"><path class="a" d="M30.057,12.782v-.259a3.644,3.644,0,0,0-7.289,0v.259ZM43.909,40.433V20.149a3.471,3.471,0,0,0-3.45-3.476H12.367a3.493,3.493,0,0,0-3.476,3.476V40.433a3.493,3.493,0,0,0,3.476,3.476H40.459A3.471,3.471,0,0,0,43.909,40.433ZM47.8,20.149V40.433A7.356,7.356,0,0,1,40.459,47.8H12.367A7.4,7.4,0,0,1,5,40.433V20.149a7.4,7.4,0,0,1,7.367-7.367h6.511v-.259a7.535,7.535,0,0,1,15.071,0v.259h6.511A7.357,7.357,0,0,1,47.8,20.149Z" transform="translate(-5 -5)"/></g></g><rect class="a" width="39.376" height="29.104" transform="translate(1.712 10.876)"/></svg>