<svg xmlns="http://www.w3.org/2000/svg" width="34" height="34" viewBox="0 0 34 34"><defs><style>.a{fill:#383e42;}.b,.c{stroke:none;}.c{fill:#70f84e;}</style></defs><g class="a"><path class="b" d="M 17 31.5 C 13.12691020965576 31.5 9.485639572143555 29.99173927307129 6.746950149536133 27.25304985046387 C 4.008259773254395 24.51436042785645 2.5 20.87309074401855 2.5 17 C 2.5 13.12691020965576 4.008259773254395 9.485639572143555 6.746950149536133 6.746950149536133 C 9.485639572143555 4.008259773254395 13.12691020965576 2.5 17 2.5 C 20.87309074401855 2.5 24.51436042785645 4.008259773254395 27.25304985046387 6.746950149536133 C 29.99173927307129 9.485639572143555 31.5 13.12691020965576 31.5 17 C 31.5 20.87309074401855 29.99173927307129 24.51436042785645 27.25304985046387 27.25304985046387 C 24.51436042785645 29.99173927307129 20.87309074401855 31.5 17 31.5 Z"/><path class="c" d="M 17 5 C 13.79467964172363 5 10.78121948242188 6.248220443725586 8.514720916748047 8.514720916748047 C 6.248220443725586 10.78121948242188 5 13.79467964172363 5 17 C 5 20.20532035827637 6.248220443725586 23.21878051757813 8.514720916748047 25.48527908325195 C 10.78121948242188 27.75177955627441 13.79467964172363 29 17 29 C 20.20532035827637 29 23.21878051757813 27.75177955627441 25.48527908325195 25.48527908325195 C 27.75177955627441 23.21878051757813 29 20.20532035827637 29 17 C 29 13.79467964172363 27.75177955627441 10.78121948242188 25.48527908325195 8.514720916748047 C 23.21878051757813 6.248220443725586 20.20532035827637 5 17 5 M 17 0 C 26.38883972167969 0 34 7.611160278320313 34 17 C 34 26.38883972167969 26.38883972167969 34 17 34 C 7.611160278320313 34 0 26.38883972167969 0 17 C 0 7.611160278320313 7.611160278320313 0 17 0 Z"/></g></svg>