<svg xmlns="http://www.w3.org/2000/svg" width="21.305" height="19.529" viewBox="0 0 21.305 19.529"><defs><style>.a{fill:#fc9747;}</style></defs><g transform="translate(140 -198)"><g transform="translate(-142 194)"><path class="a" d="M15.423,39.78A4.773,4.773,0,0,0,19.9,43.33a4.269,4.269,0,0,0,3.33-1.229L16.541,39.78Z" transform="translate(-7.465 -19.899)"/><path class="a" d="M8.969,14.182,2.888,14.2A.886.886,0,0,0,2,15.078v8.7a.886.886,0,0,0,.888.879H8.969Z" transform="translate(0 -5.663)"/><path class="a" d="M32.262,4a.791.791,0,0,0-.333.067L19.7,8.313v10.9l12.188,4.233a.847.847,0,0,0,.373.084.886.886,0,0,0,.888-.879V4.879A.886.886,0,0,0,32.262,4Z" transform="translate(-9.845)"/></g></g></svg>