<svg width="17" height="16" viewBox="0 0 17 16" fill="none" xmlns="http://www.w3.org/2000/svg">
<path d="M4.75427 12.6727C4.96448 13.4671 5.42597 14.1722 6.06983 14.6827C6.7137 15.1933 7.50541 15.4819 8.32679 15.5055C8.81414 15.5422 9.30368 15.4737 9.76218 15.3044C10.2207 15.1352 10.6374 14.8693 10.984 14.5248L5.64641 12.6727H4.75427Z" fill="url(#paint0_linear)"/>
<path d="M5.56107 3.60608L0.7086 3.62044C0.521915 3.62001 0.342638 3.69344 0.209887 3.82469C0.077135 3.95595 0.00168515 4.13439 0 4.32106V11.2634C0.00147553 11.4502 0.0768331 11.6289 0.209607 11.7603C0.342381 11.8917 0.521778 11.9653 0.7086 11.9648H5.56107V3.60608Z" fill="#FC9747"/>
<path d="M16.2922 0.00010052C16.2008 -0.0015308 16.1101 0.0167111 16.0265 0.0535646L6.26807 3.44176V12.1397L15.9938 15.5175C16.0866 15.5622 16.1884 15.5851 16.2914 15.5845C16.4782 15.5849 16.6576 15.5114 16.7904 15.38C16.9232 15.2485 16.9985 15.0699 17 14.8831V0.701518C16.9985 0.514841 16.9233 0.336323 16.7907 0.204917C16.6581 0.0735114 16.4789 -0.000116009 16.2922 0.00010052Z" fill="url(#paint1_linear)"/>
<defs>
<linearGradient id="paint0_linear" x1="4.75427" y1="14.0939" x2="10.984" y2="14.0939" gradientUnits="userSpaceOnUse">
<stop stop-color="#F6D365"/>
<stop offset="1" stop-color="#FDA085"/>
</linearGradient>
<linearGradient id="paint1_linear" x1="6.26807" y1="7.79226" x2="17" y2="7.79226" gradientUnits="userSpaceOnUse">
<stop stop-color="#F6D365"/>
<stop offset="1" stop-color="#FDA085"/>
</linearGradient>
</defs>
</svg>
