<svg width="18" height="15" viewBox="0 0 18 15" fill="none" xmlns="http://www.w3.org/2000/svg">
<path d="M3.08586 4.35763C3.5167 4.35705 3.93769 4.22875 4.29562 3.98896C4.65355 3.74916 4.93236 3.40863 5.0968 3.01041C5.26124 2.61219 5.30392 2.17416 5.21946 1.75168C5.135 1.32921 4.92719 0.941257 4.62228 0.636867C4.31738 0.332477 3.92908 0.125314 3.50646 0.0415646C3.08385 -0.042185 2.64589 0.00123878 2.24794 0.166347C1.85 0.331454 1.50994 0.610834 1.27075 0.969171C1.03155 1.32751 0.903965 1.74872 0.90411 2.17955C0.904109 2.46589 0.960568 2.74942 1.07026 3.01392C1.17994 3.27841 1.34071 3.51868 1.54335 3.72099C1.74599 3.92329 1.98654 4.08365 2.25122 4.19289C2.5159 4.30213 2.79952 4.35812 3.08586 4.35763ZM7.77299 10.5587C6.60224 9.77692 5.70622 8.64759 5.2111 7.32975C4.94398 5.9024 4.13821 4.82069 2.63307 4.82069C0.933464 4.82069 0 6.19814 0 7.89775V14.9978H5.26468V11.3968C5.66448 11.7845 6.10236 12.1309 6.57167 12.4308C6.81979 12.5814 7.11697 12.6292 7.39979 12.5638C7.68261 12.4983 7.92866 12.325 8.08543 12.0807C8.24221 11.8364 8.29728 11.5405 8.23891 11.2561C8.18054 10.9718 8.01334 10.7215 7.77299 10.5587ZM14.0401 4.35763C14.4711 4.35778 14.8925 4.2301 15.2509 3.99074C15.6093 3.75139 15.8887 3.41111 16.0537 3.01295C16.2187 2.6148 16.2619 2.17665 16.1778 1.75393C16.0938 1.33121 15.8863 0.942918 15.5815 0.638161C15.2767 0.333404 14.8885 0.125877 14.4657 0.0418305C14.043 -0.0422162 13.6049 0.000993515 13.2067 0.165994C12.8086 0.330994 12.4683 0.610372 12.2289 0.968789C11.9896 1.32721 11.8619 1.74856 11.862 2.17955C11.862 2.75721 12.0915 3.31122 12.5 3.71969C12.9084 4.12816 13.4625 4.35763 14.0401 4.35763ZM14.4929 4.82143C12.987 4.82143 12.182 5.9024 11.9156 7.33048C11.4194 8.64813 10.523 9.7773 9.35225 10.5594C9.22806 10.6378 9.12059 10.7399 9.03605 10.8599C8.95152 10.98 8.89158 11.1156 8.85969 11.2589C8.8278 11.4022 8.8246 11.5504 8.85027 11.695C8.87593 11.8395 8.92996 11.9776 9.00923 12.1012C9.08851 12.2248 9.19146 12.3314 9.31215 12.415C9.43285 12.4986 9.5689 12.5575 9.71246 12.5883C9.85602 12.6191 10.0043 12.6211 10.1486 12.5943C10.293 12.5676 10.4306 12.5125 10.5536 12.4322C11.0223 12.1315 11.4601 11.7852 11.8606 11.3982V15H17.1223V7.89922C17.1223 6.19887 16.1918 4.82143 14.4929 4.82143Z" fill="url(#paint0_linear)"/>
<defs>
<linearGradient id="paint0_linear" x1="0" y1="7.5" x2="17.1223" y2="7.5" gradientUnits="userSpaceOnUse">
<stop stop-color="#A1C4FD"/>
<stop offset="1" stop-color="#C2E9FB"/>
</linearGradient>
</defs>
</svg>
