<svg width="11" height="16" viewBox="0 0 11 16" fill="none" xmlns="http://www.w3.org/2000/svg">
<g clip-path="url(#clip0)">
<path d="M7.18805 8.89104L2.04404 5.92304C1.8939 5.82417 1.72514 5.75704 1.54811 5.72576C1.37109 5.69449 1.18954 5.69973 1.01461 5.74117C0.83968 5.7826 0.675069 5.85936 0.530883 5.96672C0.386697 6.07409 0.265979 6.20979 0.176143 6.3655C0.0863068 6.52121 0.0292492 6.69364 0.0084727 6.87221C-0.0123038 7.05077 0.00363971 7.2317 0.0553248 7.40387C0.10701 7.57605 0.193345 7.73585 0.309029 7.87345C0.424713 8.01105 0.567303 8.12355 0.728044 8.20404L5.86805 11.172C6.01801 11.2587 6.18359 11.315 6.35531 11.3377C6.52703 11.3604 6.70154 11.349 6.86887 11.3042C7.0362 11.2595 7.19308 11.1822 7.33054 11.0768C7.46801 10.9714 7.58337 10.84 7.67004 10.69C7.75672 10.5401 7.813 10.3745 7.83569 10.2028C7.85837 10.0311 7.84701 9.85655 7.80225 9.68922C7.75749 9.52188 7.68021 9.36501 7.57483 9.22754C7.46944 9.09008 7.33801 8.97471 7.18805 8.88804V8.89104ZM2.94804 5.68104L6.94805 7.99004L8.30804 4.20504L5.54404 2.61104L2.94804 5.68104ZM4.41215e-05 15.404L3.82504 10.758L2.11104 9.76904L4.41215e-05 15.404ZM9.95904 2.11204L6.53204 0.133041C6.30475 0.00202416 6.03473 -0.033336 5.78136 0.0347397C5.528 0.102815 5.31206 0.26875 5.18104 0.496041C5.05003 0.723332 5.01467 0.993359 5.08274 1.24672C5.15082 1.50008 5.31675 1.71602 5.54404 1.84704L8.97104 3.82604C9.08359 3.89098 9.20782 3.93312 9.33665 3.95004C9.46547 3.96697 9.59637 3.95836 9.72187 3.9247C9.84737 3.89103 9.96501 3.83298 10.0681 3.75386C10.1711 3.67473 10.2576 3.57608 10.3225 3.46354C10.3875 3.351 10.4296 3.22677 10.4465 3.09794C10.4635 2.96911 10.4549 2.83821 10.4212 2.71271C10.3875 2.58722 10.3295 2.46958 10.2504 2.36651C10.1712 2.26345 10.0726 2.17698 9.96004 2.11204H9.95904Z" fill="#D6D8D9"/>
</g>
<defs>
<clipPath id="clip0">
<rect width="10.454" height="15.404" fill="white"/>
</clipPath>
</defs>
</svg>
