<svg width="388" height="209" viewBox="0 0 388 209" fill="none" xmlns="http://www.w3.org/2000/svg">
<g opacity="0.2">
<path d="M92.0399 119.408C98.7448 134.037 102.524 147.904 97.5867 154.06C97.2819 154.426 96.9771 154.761 96.6419 155.066C92.8323 158.418 85.3655 158.479 72.7176 153.512C39.1017 140.254 37.5169 117.336 30.7206 94.9352C24.0157 72.8395 0.609536 76.5577 0 76.6796C54.5535 57.6925 80.6721 94.5999 92.0399 119.408Z" fill="#A4A4A4"/>
<path d="M97.5867 154.091C97.2819 154.456 96.9771 154.792 96.6419 155.096C90.3332 151.287 78.2339 143.241 72.5347 134.189C69.8528 129.923 67.5975 125.107 65.1898 120.018C60.6793 110.417 55.9858 100.452 47.8181 92.8323L48.7324 91.8571C57.083 99.6591 61.8374 109.716 66.4089 119.439C68.7861 124.498 71.0414 129.252 73.6929 133.458C79.2091 142.266 91.4303 150.372 97.5867 154.091Z" fill="#4D5354"/>
<path d="M86.2189 125.412C85.8227 126.387 85.5789 126.936 85.5484 126.997C85.457 126.448 85.335 125.93 85.2436 125.412C80.7635 102.432 74.7596 100.025 56.7783 79.9406C38.4008 59.3688 48.9762 40.2294 48.9762 40.2294C110.57 57.9973 90.3942 115.111 86.2189 125.412Z" fill="#6A6B6D"/>
<path d="M86.2188 125.412C85.8226 126.387 85.5788 126.936 85.5483 126.997C85.4569 126.448 85.335 125.93 85.2436 125.412C87.2246 105.541 75.2472 82.2264 71.4985 78.0511C67.5975 73.7234 65.1898 67.7499 64.306 65.5251C64.1536 65.1594 64.0012 64.7937 63.9708 64.7022L64.8546 64.2146C64.946 64.3365 65.0375 64.6108 65.2508 65.1289C66.1346 67.3232 68.4813 73.1748 72.2605 77.3501C76.9844 82.6835 88.0474 106.09 86.2188 125.412Z" fill="#2D3135"/>
<path d="M362.643 155.645H92.7714C84.9083 155.645 78.5387 149.275 78.5387 141.412V59.125C78.5387 51.262 84.9083 44.8923 92.7714 44.8923H362.643C370.506 44.8923 376.876 51.262 376.876 59.125V141.412C376.906 149.275 370.506 155.645 362.643 155.645Z" fill="#919191"/>
<path d="M351.428 76.6797H314.978V80.3369H351.428V76.6797Z" fill="#5B5D60"/>
<path d="M356.883 87.9865H314.978V91.6437H356.883V87.9865Z" fill="#5B5D60"/>
<path d="M336.586 99.2629H314.917V102.92H336.586V99.2629Z" fill="#5B5D60"/>
<path d="M348.319 110.509H314.917V114.166H348.319V110.509Z" fill="#5B5D60"/>
<path d="M149.946 145.466H117.458V149.458H149.946V145.466Z" fill="#D4D4D4"/>
<path d="M157.87 138.334H109.595V142.327H157.87V138.334Z" fill="#D4D4D4"/>
<path d="M264.417 70.95H186.244V75.9786H264.417V70.95Z" fill="white"/>
<path d="M303.183 70.95H272.798V75.9786H303.183V70.95Z" fill="white"/>
<path d="M222.938 59.4907H186.244V64.5194H222.938V59.4907Z" fill="white"/>
<path d="M133.732 130.959C128.277 130.959 123.035 129.831 118.098 127.576C104.627 121.45 95.9105 107.949 95.9105 93.137C95.9105 72.2909 112.856 55.3458 133.702 55.3458C154.548 55.3458 171.493 72.2909 171.493 93.137C171.493 107.918 162.777 121.45 149.306 127.576C144.43 129.831 139.157 130.959 133.732 130.959ZM133.732 57.3573C113.983 57.3573 97.9219 73.4186 97.9219 93.1675C97.9219 107.187 106.181 119.987 118.92 125.778C123.583 127.881 128.551 128.978 133.732 128.978C138.883 128.978 143.881 127.911 148.544 125.778C161.314 119.987 169.542 107.187 169.542 93.1675C169.512 73.4186 153.451 57.3573 133.732 57.3573Z" fill="url(#paint0_linear)"/>
<path d="M193.771 85.5483H191.79V133.945H193.771V85.5483Z" fill="#A8A8A8"/>
<path d="M202.945 85.5483H200.964V133.945H202.945V85.5483Z" fill="#A8A8A8"/>
<path d="M212.118 85.5483H210.137V133.945H212.118V85.5483Z" fill="#A8A8A8"/>
<path d="M221.292 85.5483H219.311V133.945H221.292V85.5483Z" fill="#A8A8A8"/>
<path d="M230.435 85.5483H228.454V133.945H230.435V85.5483Z" fill="#A8A8A8"/>
<path d="M239.608 85.5483H237.627V133.945H239.608V85.5483Z" fill="#A8A8A8"/>
<path d="M248.782 85.5483H246.801V133.945H248.782V85.5483Z" fill="#A8A8A8"/>
<path d="M257.955 85.5483H255.974V133.945H257.955V85.5483Z" fill="#A8A8A8"/>
<path d="M267.129 85.5483H265.148V133.945H267.129V85.5483Z" fill="#A8A8A8"/>
<path d="M276.303 85.5483H274.322V133.945H276.303V85.5483Z" fill="#A8A8A8"/>
<path d="M285.476 85.5483H283.495V133.945H285.476V85.5483Z" fill="#A8A8A8"/>
<path d="M294.65 85.5483H292.669V133.945H294.65V85.5483Z" fill="#A8A8A8"/>
<path d="M193.771 100.025H191.79V133.945H193.771V100.025Z" fill="#232527"/>
<path d="M202.945 111.758H200.964V133.946H202.945V111.758Z" fill="#232527"/>
<path d="M212.118 92.5276H210.137V133.946H212.118V92.5276Z" fill="#232527"/>
<path d="M221.292 121.877H219.311V133.946H221.292V121.877Z" fill="#232527"/>
<path d="M230.435 109.747H228.454V133.945H230.435V109.747Z" fill="#232527"/>
<path d="M239.608 100.695H237.627V133.945H239.608V100.695Z" fill="#232527"/>
<path d="M248.782 112.49H246.801V133.945H248.782V112.49Z" fill="#232527"/>
<path d="M257.955 97.6172H255.974V133.946H257.955V97.6172Z" fill="#232527"/>
<path d="M267.129 113.983H265.148V133.945H267.129V113.983Z" fill="#232527"/>
<path d="M276.303 102.006H274.322V133.945H276.303V102.006Z" fill="#232527"/>
<path d="M285.476 117.976H283.495V133.945H285.476V117.976Z" fill="#232527"/>
<path d="M294.65 102.006H292.669V133.945H294.65V102.006Z" fill="#232527"/>
<path d="M103.713 29.7759V33.0064H72.3824V64.3366H69.1519V29.7759H103.713Z" fill="#5B5D60"/>
<path d="M387.421 20.4194H361.912V22.2176H387.421V20.4194Z" fill="#5B5D60"/>
<path d="M387.421 23.8024H361.912V31.3301H387.421V23.8024Z" fill="#5B5D60"/>
<path d="M359.474 26.6367H344.418V27.7644H359.474V26.6367Z" fill="#5B5D60"/>
<path d="M359.474 28.252H344.418V31.2996H359.474V28.252Z" fill="#5B5D60"/>
<path d="M388 20.4194H386.872V41.4789H388V20.4194Z" fill="#5B5D60"/>
<path d="M159.053 0.355088L240.902 8.67382e-05C241.682 -0.00857187 242.322 0.632164 242.314 1.41144L242.14 30.0628C242.132 30.8507 241.482 31.4828 240.695 31.4568C233.474 31.2404 159.503 30.2879 158.083 30.3485C156.689 30.4091 157.442 7.77552 157.65 1.70583C157.693 0.952532 158.299 0.363746 159.053 0.355088Z" fill="#2D3135"/>
<path d="M240.746 30.3485H240.738C236.123 30.21 191.917 29.6559 170.671 29.3961C164.464 29.3182 160.048 29.2662 158.871 29.2489H158.758L158.741 29.145C158.239 26.3136 158.247 16.8411 158.767 1.7578C158.776 1.60195 158.897 1.47207 159.061 1.47207L240.911 1.11707C240.989 1.11707 241.067 1.1517 241.119 1.20365C241.171 1.2556 241.205 1.33353 241.205 1.41146L241.032 30.0628C241.041 30.2187 240.902 30.3485 240.746 30.3485ZM158.992 28.9805C160.317 28.9978 164.645 29.0497 170.68 29.1277C191.926 29.3961 236.132 29.9416 240.746 30.0801H240.755C240.764 30.0801 240.772 30.0628 240.772 30.0541L240.946 1.4028L240.92 1.23829V1.36816L159.07 1.72317C159.053 1.72317 159.044 1.73183 159.044 1.74914C158.525 16.6333 158.507 26.0366 158.992 28.9805Z" fill="white"/>
<path opacity="0.7" d="M162.559 7.7495C162.559 8.52012 162.819 9.15219 163.139 9.15219H194.489C194.809 9.15219 195.069 8.52012 195.069 7.7495C195.069 6.97888 194.809 6.3468 194.489 6.3468H163.13C162.81 6.3468 162.559 6.97888 162.559 7.7495Z" fill="url(#paint1_linear)"/>
<path opacity="0.7" d="M162.559 12.5378C162.559 13.3084 162.819 13.9405 163.139 13.9405H194.489C194.809 13.9405 195.069 13.3084 195.069 12.5378C195.069 11.7672 194.809 11.1351 194.489 11.1351H163.13C162.81 11.1351 162.559 11.7586 162.559 12.5378Z" fill="url(#paint2_linear)"/>
<path opacity="0.7" d="M162.559 17.3174C162.559 18.088 162.819 18.7201 163.139 18.7201H194.489C194.809 18.7201 195.069 18.088 195.069 17.3174C195.069 16.5468 194.809 15.9147 194.489 15.9147H163.13C162.81 15.9147 162.559 16.5468 162.559 17.3174Z" fill="url(#paint3_linear)"/>
<path opacity="0.7" d="M162.559 22.1055C162.559 22.8761 162.819 23.5082 163.139 23.5082H194.489C194.809 23.5082 195.069 22.8761 195.069 22.1055C195.069 21.3348 194.809 20.7028 194.489 20.7028H163.13C162.81 20.7028 162.559 21.3262 162.559 22.1055Z" fill="url(#paint4_linear)"/>
<path d="M203.009 14.2003C206.021 14.2003 208.463 11.758 208.463 8.74533C208.463 5.73266 206.021 3.29041 203.009 3.29041C199.996 3.29041 197.554 5.73266 197.554 8.74533C197.554 11.758 199.996 14.2003 203.009 14.2003Z" fill="white"/>
<path d="M216.566 14.2003C219.578 14.2003 222.02 11.758 222.02 8.74533C222.02 5.73266 219.578 3.29041 216.566 3.29041C213.553 3.29041 211.111 5.73266 211.111 8.74533C211.111 11.758 213.553 14.2003 216.566 14.2003Z" fill="white"/>
<path d="M230.115 14.3735C233.127 14.3735 235.569 11.9312 235.569 8.91855C235.569 5.90588 233.127 3.46362 230.115 3.46362C227.103 3.46362 224.661 5.90588 224.661 8.91855C224.661 11.9312 227.103 14.3735 230.115 14.3735Z" fill="white"/>
<path d="M206.246 7.58505C206.41 7.99201 206.505 8.44226 206.505 8.91848C206.505 10.8494 204.938 12.4252 202.999 12.4252C201.068 12.4252 199.493 10.858 199.493 8.91848C199.493 6.97895 201.06 5.41174 202.999 5.41174C203.06 5.41174 203.12 5.41174 203.172 5.4204V4.52856C203.111 4.52856 203.051 4.52856 202.999 4.52856C200.575 4.52856 198.609 6.49407 198.609 8.91848C198.609 11.3429 200.575 13.3084 202.999 13.3084C205.423 13.3084 207.388 11.3429 207.388 8.91848C207.388 8.32104 207.267 7.74957 207.051 7.23005L206.246 7.58505Z" fill="#2D3135"/>
<path d="M218.366 11.8884C217.83 12.2261 217.189 12.4252 216.496 12.4252C214.566 12.4252 212.99 10.858 212.99 8.91848C212.99 6.97895 214.557 5.41174 216.496 5.41174C216.557 5.41174 216.617 5.41174 216.669 5.4204V4.52856C216.609 4.52856 216.548 4.52856 216.496 4.52856C214.072 4.52856 212.107 6.49407 212.107 8.91848C212.107 11.3429 214.072 13.3084 216.496 13.3084C217.345 13.3084 218.133 13.066 218.799 12.6503L218.366 11.8884Z" fill="#2D3135"/>
<path d="M233.041 10.8926C232.409 11.8191 231.344 12.4252 230.141 12.4252C228.21 12.4252 226.634 10.858 226.634 8.91848C226.634 6.97895 228.201 5.41174 230.141 5.41174C230.201 5.41174 230.262 5.41174 230.314 5.4204V4.52856C230.253 4.52856 230.193 4.52856 230.141 4.52856C227.717 4.52856 225.751 6.49407 225.751 8.91848C225.751 11.3429 227.717 13.3084 230.141 13.3084C231.638 13.3084 232.963 12.5551 233.76 11.4035L233.041 10.8926Z" fill="#2D3135"/>
<g opacity="0.64">
<path opacity="0.64" d="M207.449 16.5034H198.558C198.004 16.5034 197.545 16.9537 197.545 17.5165C197.545 18.0793 197.995 18.5295 198.558 18.5295H207.449C208.003 18.5295 208.462 18.0793 208.462 17.5165C208.462 16.9537 208.012 16.5034 207.449 16.5034Z" fill="url(#paint5_linear)"/>
<path opacity="0.64" d="M221.007 16.5034H212.115C211.561 16.5034 211.103 16.9537 211.103 17.5165C211.103 18.0793 211.553 18.5295 212.115 18.5295H221.007C221.561 18.5295 222.02 18.0793 222.02 17.5165C222.02 16.9537 221.561 16.5034 221.007 16.5034Z" fill="url(#paint6_linear)"/>
<path opacity="0.64" d="M225.673 18.5295H234.565C235.119 18.5295 235.578 18.0793 235.578 17.5165C235.578 16.9537 235.128 16.5034 234.565 16.5034H225.673C225.119 16.5034 224.661 16.9537 224.661 17.5165C224.661 18.0793 225.119 18.5295 225.673 18.5295Z" fill="url(#paint7_linear)"/>
<path opacity="0.64" d="M207.449 19.6466H198.558C198.004 19.6466 197.545 20.0969 197.545 20.6597V26.6081C197.545 27.1623 197.995 27.6212 198.558 27.6212H207.449C208.003 27.6212 208.462 27.1709 208.462 26.6081V20.6597C208.462 20.1055 208.012 19.6466 207.449 19.6466Z" fill="url(#paint8_linear)"/>
<path opacity="0.64" d="M221.007 19.6466H212.115C211.561 19.6466 211.103 20.0969 211.103 20.6597V26.6081C211.103 27.1623 211.553 27.6212 212.115 27.6212H221.007C221.561 27.6212 222.02 27.1709 222.02 26.6081V20.6597C222.02 20.1055 221.561 19.6466 221.007 19.6466Z" fill="url(#paint9_linear)"/>
<path opacity="0.64" d="M234.565 19.6466H225.673C225.119 19.6466 224.661 20.0969 224.661 20.6597V26.6081C224.661 27.1623 225.111 27.6212 225.673 27.6212H234.565C235.119 27.6212 235.578 27.1709 235.578 26.6081V20.6597C235.569 20.1055 235.119 19.6466 234.565 19.6466Z" fill="url(#paint10_linear)"/>
</g>
<g opacity="0.3">
<path opacity="0.3" d="M146.851 94.6818C146.528 94.6147 146.314 94.2975 146.381 93.968C146.516 93.3335 146.619 92.6868 146.699 92.0401C146.735 91.7107 147.034 91.4788 147.357 91.5154C147.363 91.5154 147.363 91.5154 147.37 91.5154C147.699 91.5582 147.937 91.8571 147.894 92.1865C147.815 92.8637 147.699 93.5471 147.565 94.2121C147.504 94.5171 147.217 94.7184 146.912 94.6879C146.894 94.6879 146.869 94.6879 146.851 94.6818ZM146.863 88.8798C146.851 88.2331 146.814 87.5742 146.747 86.9336C146.711 86.6042 146.955 86.3053 147.284 86.2747C147.614 86.2442 147.912 86.4822 147.943 86.8116C148.01 87.4888 148.053 88.1782 148.065 88.8615C148.071 89.1971 147.803 89.4655 147.473 89.4716C147.449 89.4716 147.424 89.4716 147.4 89.4716C147.101 89.435 146.869 89.1849 146.863 88.8798ZM146.204 83.8039C146.052 83.1755 145.863 82.5471 145.655 81.9309C145.546 81.6136 145.716 81.272 146.034 81.1683C146.351 81.0646 146.692 81.2293 146.796 81.5465C147.016 82.1932 147.211 82.8582 147.37 83.5171C147.449 83.8405 147.254 84.1638 146.93 84.2492C146.863 84.2675 146.79 84.2675 146.723 84.2614C146.485 84.237 146.265 84.0601 146.204 83.8039ZM144.429 79.0085C144.136 78.429 143.819 77.8555 143.478 77.3064C143.301 77.0257 143.392 76.6536 143.673 76.4767C143.953 76.2997 144.326 76.3912 144.502 76.6719C144.862 77.2515 145.198 77.8555 145.503 78.4656C145.655 78.7645 145.533 79.1245 145.234 79.277C145.131 79.3319 145.015 79.3502 144.905 79.338C144.71 79.3197 144.527 79.2038 144.429 79.0085ZM141.635 74.7257C141.22 74.2254 140.781 73.7373 140.33 73.2737C140.098 73.0357 140.098 72.6514 140.336 72.4195C140.574 72.1877 140.958 72.1877 141.19 72.4256C141.666 72.9137 142.129 73.4262 142.563 73.9509C142.776 74.2071 142.739 74.5854 142.483 74.7989C142.355 74.9087 142.197 74.9514 142.038 74.9331C141.885 74.927 141.739 74.8538 141.635 74.7257ZM137.957 71.1749C137.444 70.7784 136.908 70.4001 136.365 70.0524C136.084 69.8693 136.005 69.4972 136.182 69.2226C136.365 68.942 136.737 68.8627 137.017 69.0396C137.591 69.4118 138.158 69.8083 138.695 70.2232C138.957 70.4245 139.006 70.8028 138.805 71.0712C138.671 71.2421 138.469 71.3214 138.268 71.3031C138.158 71.2848 138.054 71.2421 137.957 71.1749ZM115.935 67.2398C115.831 66.9226 115.996 66.5809 116.313 66.4772C116.96 66.2576 117.625 66.0685 118.29 65.9037C118.613 65.8244 118.936 66.0258 119.016 66.3491C119.095 66.6725 118.894 66.9958 118.57 67.0751C117.942 67.2276 117.307 67.4107 116.697 67.6181C116.612 67.6486 116.527 67.6547 116.447 67.6486C116.222 67.6242 116.014 67.4717 115.935 67.2398ZM133.589 68.521C133.003 68.2465 132.393 68.0025 131.783 67.7767C131.472 67.6608 131.308 67.3192 131.423 67.008C131.539 66.6969 131.881 66.5321 132.192 66.6481C132.833 66.8799 133.473 67.1422 134.089 67.429C134.394 67.5693 134.522 67.9293 134.382 68.2282C134.272 68.4661 134.022 68.6004 133.772 68.5759C133.717 68.5698 133.65 68.5515 133.589 68.521ZM121.041 65.9953C121.01 65.6658 121.248 65.3669 121.578 65.3364C122.255 65.2692 122.944 65.2265 123.627 65.2204C123.963 65.2143 124.231 65.4828 124.237 65.8122C124.243 66.1478 123.975 66.4162 123.646 66.4223C122.999 66.4345 122.34 66.4711 121.7 66.5321C121.657 66.5382 121.62 66.5382 121.578 66.5321C121.297 66.5077 121.065 66.2881 121.041 65.9953ZM128.739 66.9165C128.105 66.7823 127.458 66.6786 126.812 66.5992C126.482 66.5565 126.244 66.2576 126.287 65.9281C126.33 65.6048 126.623 65.3669 126.946 65.4035C126.952 65.4035 126.952 65.4035 126.958 65.4035C127.635 65.4889 128.318 65.5987 128.983 65.739C129.307 65.8061 129.52 66.1295 129.447 66.4528C129.386 66.7579 129.099 66.9592 128.8 66.9287C128.782 66.9226 128.758 66.9165 128.739 66.9165Z" fill="#5B5D60"/>
<path opacity="0.3" d="M112.58 69.3569C112.696 69.3691 112.818 69.3447 112.933 69.2837C113.208 69.1312 113.483 68.9847 113.763 68.8444C114.062 68.698 114.178 68.3319 114.032 68.033C113.885 67.734 113.519 67.6181 113.22 67.7646C112.927 67.911 112.635 68.0696 112.348 68.2282C112.055 68.3868 111.951 68.759 112.116 69.0457C112.214 69.2288 112.391 69.3386 112.58 69.3569Z" fill="#5B5D60"/>
</g>
<g opacity="0.3">
<path opacity="0.3" d="M101.276 83.8344C101.563 83.8649 101.843 83.6819 101.916 83.3891C101.996 83.0901 102.081 82.7851 102.179 82.4861C102.276 82.1689 102.099 81.8333 101.782 81.7296C101.465 81.632 101.129 81.8089 101.026 82.1262C100.928 82.4373 100.837 82.7607 100.751 83.0779C100.666 83.4013 100.855 83.7307 101.178 83.8161C101.215 83.8283 101.245 83.8344 101.276 83.8344Z" fill="#5B5D60"/>
<path opacity="0.3" d="M120.382 113.076C120.053 113.027 119.827 112.722 119.876 112.393C119.924 112.063 120.229 111.838 120.559 111.886C121.187 111.984 121.828 112.051 122.468 112.094C122.798 112.112 123.054 112.405 123.029 112.734C123.005 113.064 122.718 113.32 122.389 113.296C122.108 113.277 121.834 113.253 121.559 113.229C121.169 113.18 120.772 113.131 120.382 113.076ZM125.036 112.728C125.012 112.399 125.262 112.106 125.598 112.088C126.232 112.045 126.879 111.972 127.507 111.874C127.836 111.825 128.141 112.051 128.196 112.381C128.245 112.71 128.019 113.015 127.69 113.07C127.025 113.174 126.354 113.247 125.683 113.29C125.646 113.29 125.616 113.29 125.579 113.29C125.287 113.259 125.055 113.027 125.036 112.728ZM117.179 112.362C116.539 112.173 115.892 111.953 115.264 111.709C114.953 111.587 114.8 111.24 114.922 110.929C115.044 110.617 115.392 110.465 115.703 110.587C116.301 110.819 116.911 111.026 117.521 111.209C117.838 111.301 118.021 111.636 117.93 111.96C117.844 112.24 117.576 112.417 117.289 112.387C117.252 112.381 117.216 112.374 117.179 112.362ZM130.142 111.941C130.045 111.624 130.228 111.288 130.545 111.191C131.155 111.008 131.765 110.8 132.363 110.562C132.674 110.44 133.022 110.593 133.144 110.904C133.266 111.215 133.113 111.563 132.802 111.685C132.18 111.929 131.533 112.155 130.893 112.344C130.813 112.368 130.734 112.374 130.661 112.368C130.423 112.344 130.209 112.185 130.142 111.941ZM112.299 110.312C111.713 109.989 111.134 109.629 110.579 109.257C110.304 109.074 110.231 108.696 110.414 108.421C110.597 108.147 110.975 108.073 111.25 108.256C111.781 108.61 112.33 108.952 112.885 109.263C113.177 109.428 113.281 109.794 113.116 110.081C112.994 110.294 112.763 110.41 112.531 110.386C112.452 110.373 112.372 110.349 112.299 110.312ZM107.986 107.237C107.486 106.792 106.998 106.316 106.534 105.828C106.309 105.584 106.315 105.206 106.559 104.974C106.803 104.742 107.181 104.754 107.413 104.998C107.852 105.462 108.316 105.914 108.791 106.335C109.042 106.554 109.06 106.939 108.84 107.183C108.706 107.329 108.517 107.402 108.328 107.378C108.206 107.378 108.084 107.323 107.986 107.237ZM104.448 103.296C104.058 102.747 103.685 102.18 103.338 101.606C103.167 101.32 103.258 100.954 103.545 100.783C103.832 100.612 104.198 100.703 104.369 100.99C104.698 101.539 105.052 102.076 105.424 102.595C105.619 102.863 105.558 103.241 105.284 103.437C105.162 103.528 105.015 103.559 104.875 103.546C104.71 103.528 104.552 103.443 104.448 103.296ZM101.849 98.6779C101.587 98.0617 101.349 97.4211 101.136 96.7866C101.032 96.4693 101.203 96.1277 101.52 96.024C101.837 95.9203 102.179 96.0911 102.282 96.4083C102.484 97.0123 102.709 97.6163 102.96 98.2081C103.088 98.5132 102.947 98.867 102.642 98.9951C102.545 99.0378 102.447 99.05 102.35 99.0378C102.136 99.0195 101.941 98.8914 101.849 98.6779ZM100.33 93.6019C100.208 92.943 100.117 92.2719 100.056 91.6008C100.025 91.2714 100.269 90.9724 100.599 90.9419C100.928 90.9114 101.227 91.1554 101.258 91.4849C101.319 92.1194 101.404 92.76 101.52 93.3884C101.581 93.7178 101.361 94.029 101.032 94.09C100.977 94.1022 100.916 94.1022 100.861 94.0961C100.605 94.0656 100.379 93.8703 100.33 93.6019ZM99.9643 88.3185C99.9826 87.8243 100.019 87.3241 100.068 86.836C100.086 86.6591 100.105 86.4821 100.129 86.3052C100.172 85.9757 100.465 85.7317 100.8 85.7805C101.129 85.8232 101.367 86.1222 101.325 86.4516C101.306 86.6163 101.282 86.7872 101.27 86.958C101.221 87.4217 101.19 87.8975 101.172 88.3673C101.16 88.6968 100.879 88.9591 100.544 88.9469C100.532 88.9469 100.519 88.9469 100.507 88.9469C100.19 88.9103 99.9521 88.6419 99.9643 88.3185Z" fill="#5B5D60"/>
<path opacity="0.3" d="M135.425 110.349C135.547 110.361 135.669 110.337 135.779 110.276C136.066 110.117 136.352 109.946 136.633 109.776C136.914 109.599 137.005 109.233 136.828 108.946C136.651 108.665 136.285 108.574 135.999 108.751C135.73 108.915 135.462 109.074 135.187 109.226C134.894 109.391 134.797 109.757 134.955 110.044C135.059 110.221 135.236 110.331 135.425 110.349Z" fill="#5B5D60"/>
</g>
<path d="M138.225 100.404C138.311 100.319 138.329 100.191 138.28 100.081L136.779 97.0001C137.621 95.6396 138.256 94.1327 138.634 92.5342L141.873 91.4178C141.989 91.3811 142.062 91.2713 142.062 91.1493V87.0373C142.062 86.9153 141.989 86.8116 141.873 86.7688L138.634 85.6524C138.256 84.0478 137.627 82.547 136.779 81.1865L138.28 78.1055C138.335 77.9957 138.311 77.8676 138.225 77.7822L135.315 74.8781C135.23 74.7927 135.102 74.7744 134.992 74.8232L131.911 76.3241C130.551 75.4821 129.044 74.8476 127.446 74.4694L126.33 71.2298C126.293 71.1139 126.183 71.0406 126.061 71.0406H121.95C121.828 71.0406 121.724 71.12 121.681 71.2298L120.565 74.4694C118.961 74.8476 117.46 75.476 116.1 76.3241L113.019 74.8232C112.909 74.7683 112.781 74.7927 112.696 74.8781L109.792 77.7883C109.706 77.8737 109.688 78.0018 109.737 78.1116L111.238 81.1926C110.396 82.5531 109.761 84.06 109.383 85.6585L106.144 86.7749C106.028 86.8116 105.955 86.9214 105.955 87.0434V91.1554C105.955 91.2774 106.028 91.3811 106.144 91.4239L109.383 92.5403C109.761 94.1449 110.39 95.6457 111.238 97.0062L109.737 100.087C109.682 100.197 109.706 100.325 109.792 100.411L112.702 103.315C112.787 103.4 112.915 103.418 113.025 103.369L116.106 101.869C117.466 102.711 118.973 103.345 120.571 103.723L121.687 106.963C121.724 107.079 121.834 107.152 121.956 107.152H126.067C126.189 107.152 126.293 107.079 126.336 106.963L127.452 103.723C129.057 103.345 130.557 102.717 131.918 101.869L134.998 103.369C135.108 103.424 135.236 103.4 135.321 103.315L138.225 100.404Z" fill="#5B5D60"/>
<path d="M122.999 93.1016C120.791 92.5464 119.449 90.2952 120.004 88.0867C120.272 87.019 120.943 86.1161 121.895 85.5487C122.84 84.9813 123.951 84.8227 125.024 85.0911C127.232 85.6463 128.575 87.8975 128.019 90.1061C127.513 92.1133 125.604 93.4067 123.603 93.2053C123.402 93.187 123.2 93.1504 122.999 93.1016ZM122.389 86.3784C121.663 86.8116 121.151 87.501 120.943 88.3246C120.516 90.0207 121.547 91.7472 123.237 92.1743C124.933 92.6014 126.659 91.5703 127.086 89.8803C127.513 88.1843 126.482 86.4577 124.792 86.0307C124.64 85.9941 124.487 85.9635 124.329 85.9513C123.652 85.872 122.981 86.0246 122.389 86.3784Z" fill="url(#paint11_linear)"/>
<path d="M122.914 99.1355C123.255 99.1721 123.603 99.1904 123.957 99.1904C124.066 99.1904 124.176 99.1904 124.286 99.1843C124.829 99.166 125.372 99.105 125.903 99.0012C125.909 99.0012 125.915 99.0012 125.927 98.9951C125.945 98.989 125.97 98.989 125.988 98.9829C126.031 98.9768 126.067 98.9646 126.11 98.9585C126.214 98.9341 126.287 98.8487 126.299 98.745C126.299 98.7206 126.299 98.6962 126.293 98.6718C126.263 98.5437 126.134 98.4583 126.006 98.4888C125.335 98.6352 124.646 98.7084 123.957 98.7084C120.528 98.7084 117.509 96.9147 115.788 94.2181C114.831 92.7173 114.276 90.9358 114.276 89.0323C114.276 88.6968 114.294 88.3673 114.324 88.0379C114.55 85.8293 115.52 83.7794 117.106 82.1871C118.936 80.3568 121.364 79.3501 123.951 79.3501C129.288 79.3501 133.632 83.694 133.632 89.0262C133.632 89.3557 133.613 89.6851 133.583 90.0085C133.443 91.4178 132.991 92.7783 132.259 93.9985C132.241 94.029 132.229 94.0656 132.229 94.0961C132.223 94.1876 132.259 94.2791 132.345 94.3279C132.46 94.395 132.607 94.3584 132.674 94.2425C133.436 92.9674 133.912 91.5337 134.059 90.0573C134.095 89.7156 134.114 89.374 134.114 89.0262C134.114 83.4256 129.551 78.8682 123.951 78.8682C121.236 78.8682 118.686 79.9236 116.764 81.8454C115.093 83.5171 114.074 85.6646 113.842 87.983C113.806 88.3246 113.788 88.6785 113.788 89.0262C113.788 91.7411 114.843 94.2913 116.764 96.2131C118.442 97.8848 120.595 98.9036 122.914 99.1355Z" fill="url(#paint12_linear)"/>
<g opacity="0.3">
<path opacity="0.3" d="M165.768 112.558C165.927 112.576 166.085 112.484 166.152 112.326C166.274 112.033 166.384 111.734 166.482 111.435C166.549 111.24 166.445 111.032 166.25 110.965C166.055 110.898 165.841 111.002 165.78 111.197C165.683 111.484 165.579 111.771 165.463 112.045C165.384 112.234 165.475 112.454 165.67 112.527C165.701 112.545 165.731 112.558 165.768 112.558Z" fill="#5B5D60"/>
<path opacity="0.3" d="M166.561 109.812C166.36 109.769 166.232 109.574 166.274 109.373C166.378 108.867 166.457 108.348 166.512 107.829C166.524 107.72 166.531 107.61 166.543 107.5C166.561 107.292 166.738 107.14 166.945 107.158C167.141 107.183 167.305 107.354 167.287 107.561C167.275 107.677 167.269 107.793 167.256 107.903C167.202 108.446 167.116 108.989 167.006 109.519C166.97 109.708 166.793 109.837 166.604 109.812C166.585 109.818 166.573 109.818 166.561 109.812ZM166.573 105.615C166.549 104.986 166.482 104.352 166.378 103.736C166.341 103.534 166.482 103.339 166.683 103.309C166.884 103.278 167.08 103.412 167.11 103.614C167.22 104.26 167.287 104.925 167.317 105.584C167.324 105.792 167.165 105.962 166.964 105.975C166.945 105.975 166.927 105.975 166.909 105.975C166.726 105.95 166.579 105.804 166.573 105.615ZM165.951 101.893C165.774 101.289 165.555 100.697 165.298 100.118C165.213 99.9287 165.304 99.709 165.487 99.6297C165.677 99.5443 165.896 99.6297 165.975 99.8189C166.238 100.423 166.47 101.051 166.659 101.68C166.72 101.875 166.604 102.082 166.409 102.143C166.36 102.156 166.311 102.162 166.262 102.156C166.128 102.143 165.994 102.04 165.951 101.893ZM164.438 98.44C164.115 97.8971 163.755 97.3724 163.371 96.8782C163.243 96.7135 163.273 96.4817 163.438 96.3535C163.602 96.2254 163.834 96.2559 163.962 96.4206C164.365 96.9392 164.743 97.4883 165.079 98.0557C165.182 98.2326 165.127 98.4584 164.951 98.5682C164.877 98.6109 164.798 98.6292 164.725 98.617C164.603 98.6048 164.499 98.5438 164.438 98.44ZM162.12 95.4567C161.675 95.0113 161.199 94.5904 160.711 94.1999C160.552 94.0718 160.522 93.8399 160.65 93.6752C160.778 93.5105 161.01 93.4861 161.175 93.6142C161.693 94.023 162.187 94.4622 162.657 94.932C162.803 95.0784 162.803 95.3164 162.657 95.4567C162.578 95.536 162.462 95.5726 162.358 95.5604C162.266 95.5604 162.187 95.5238 162.12 95.4567ZM159.155 93.1322C158.619 92.8089 158.057 92.516 157.484 92.2598C157.295 92.1744 157.209 91.9548 157.295 91.7717C157.38 91.5826 157.6 91.4972 157.789 91.5826C158.387 91.851 158.978 92.1561 159.546 92.4977C159.723 92.6015 159.778 92.8333 159.674 93.0102C159.595 93.1383 159.454 93.2055 159.32 93.1871C159.259 93.181 159.204 93.1627 159.155 93.1322ZM155.709 91.6009C155.111 91.4179 154.489 91.2715 153.873 91.1677C153.671 91.1311 153.537 90.942 153.567 90.7407C153.604 90.5393 153.793 90.4051 153.995 90.4356C154.647 90.5454 155.294 90.7041 155.922 90.8932C156.117 90.9542 156.227 91.1616 156.172 91.3569C156.117 91.5277 155.953 91.6375 155.782 91.6192C155.757 91.6131 155.733 91.607 155.709 91.6009ZM149.706 90.6431C149.688 90.4356 149.846 90.2587 150.048 90.2465C150.615 90.2038 151.194 90.1916 151.768 90.2099C151.853 90.2099 151.945 90.216 152.03 90.2221C152.238 90.2282 152.396 90.4051 152.384 90.6126C152.372 90.82 152.201 90.9786 151.994 90.9664C151.914 90.9603 151.829 90.9603 151.75 90.9542C151.201 90.9359 150.645 90.9481 150.109 90.9908C150.084 90.9908 150.066 90.9908 150.042 90.9908C149.865 90.9664 149.718 90.8261 149.706 90.6431Z" fill="#5B5D60"/>
</g>
<g opacity="0.3">
<path opacity="0.3" d="M149.419 122.24C148.773 122.166 148.132 122.051 147.504 121.904C147.302 121.855 147.18 121.654 147.229 121.453C147.278 121.251 147.479 121.129 147.681 121.178C148.278 121.325 148.895 121.428 149.511 121.501C149.712 121.526 149.858 121.709 149.84 121.916C149.81 122.112 149.627 122.258 149.419 122.24C149.425 122.24 149.419 122.24 149.419 122.24ZM150.993 121.971C150.993 121.764 151.158 121.599 151.365 121.599C151.981 121.593 152.61 121.556 153.22 121.477C153.421 121.453 153.61 121.593 153.635 121.8C153.659 122.002 153.519 122.191 153.311 122.215C152.671 122.295 152.012 122.337 151.365 122.343C151.353 122.343 151.341 122.343 151.323 122.343C151.14 122.325 150.993 122.166 150.993 121.971ZM145.637 121.331C145.027 121.105 144.429 120.836 143.856 120.538C143.673 120.44 143.6 120.22 143.697 120.037C143.795 119.854 144.014 119.787 144.197 119.879C144.746 120.165 145.314 120.416 145.893 120.635C146.088 120.708 146.186 120.922 146.113 121.111C146.052 121.276 145.893 121.367 145.729 121.349C145.698 121.349 145.668 121.343 145.637 121.331ZM154.775 121.581C154.726 121.379 154.842 121.178 155.044 121.129C155.642 120.977 156.239 120.788 156.813 120.562C157.002 120.489 157.221 120.58 157.295 120.775C157.368 120.965 157.276 121.184 157.081 121.257C156.477 121.495 155.855 121.691 155.227 121.849C155.184 121.861 155.141 121.861 155.099 121.861C154.946 121.843 154.812 121.739 154.775 121.581ZM142.184 119.537C141.647 119.171 141.135 118.768 140.647 118.341C140.495 118.207 140.476 117.969 140.617 117.817C140.751 117.664 140.989 117.646 141.141 117.786C141.605 118.195 142.099 118.579 142.605 118.927C142.776 119.043 142.819 119.275 142.703 119.445C142.624 119.561 142.489 119.616 142.355 119.604C142.3 119.598 142.239 119.574 142.184 119.537ZM139.268 116.968C138.835 116.487 138.433 115.968 138.061 115.437C137.945 115.266 137.987 115.034 138.152 114.919C138.323 114.803 138.555 114.845 138.671 115.01C139.024 115.516 139.409 116.005 139.824 116.468C139.958 116.621 139.946 116.859 139.793 116.993C139.714 117.066 139.61 117.097 139.506 117.084C139.415 117.084 139.329 117.042 139.268 116.968ZM137.048 113.778C136.743 113.204 136.474 112.606 136.243 112.002C136.169 111.807 136.267 111.594 136.456 111.52C136.645 111.447 136.865 111.545 136.938 111.734C137.158 112.307 137.414 112.881 137.707 113.424C137.804 113.607 137.731 113.833 137.554 113.924C137.487 113.961 137.414 113.973 137.341 113.967C137.219 113.961 137.109 113.888 137.048 113.778Z" fill="#5B5D60"/>
<path opacity="0.3" d="M158.655 120.477C158.728 120.483 158.801 120.47 158.869 120.434C159.149 120.281 159.424 120.123 159.692 119.958C159.869 119.848 159.924 119.622 159.814 119.445C159.704 119.269 159.479 119.214 159.302 119.323C159.045 119.482 158.783 119.635 158.515 119.775C158.332 119.873 158.265 120.098 158.362 120.281C158.423 120.391 158.533 120.464 158.655 120.477Z" fill="#5B5D60"/>
</g>
<path d="M160.778 113.717C160.833 113.662 160.851 113.57 160.815 113.503L159.808 111.441C160.375 110.532 160.796 109.525 161.046 108.452L163.212 107.707C163.285 107.683 163.34 107.61 163.34 107.53V104.779C163.34 104.699 163.291 104.626 163.212 104.602L161.046 103.858C160.796 102.784 160.369 101.777 159.808 100.868L160.815 98.806C160.851 98.7328 160.833 98.6474 160.778 98.5924L158.832 96.6463C158.777 96.5913 158.686 96.573 158.618 96.6096L156.557 97.6163C155.648 97.0489 154.641 96.6279 153.567 96.3778L152.823 94.212C152.799 94.1388 152.726 94.0839 152.646 94.0839H149.895C149.816 94.0839 149.743 94.1327 149.718 94.212L148.974 96.3778C147.9 96.6279 146.894 97.055 145.985 97.6163L143.923 96.6096C143.85 96.573 143.764 96.5913 143.709 96.6463L141.763 98.5924C141.709 98.6474 141.69 98.7389 141.727 98.806L142.733 100.868C142.166 101.777 141.745 102.784 141.495 103.858L139.329 104.602C139.256 104.626 139.201 104.699 139.201 104.779V107.53C139.201 107.61 139.25 107.683 139.329 107.707L141.495 108.452C141.745 109.525 142.172 110.532 142.733 111.441L141.727 113.503C141.69 113.576 141.709 113.662 141.763 113.717L143.709 115.663C143.764 115.718 143.856 115.736 143.923 115.699L145.985 114.693C146.894 115.26 147.9 115.681 148.974 115.931L149.718 118.097C149.743 118.17 149.816 118.225 149.895 118.225H152.646C152.726 118.225 152.799 118.176 152.823 118.097L153.567 115.931C154.641 115.681 155.648 115.254 156.557 114.693L158.618 115.699C158.692 115.736 158.777 115.718 158.832 115.663L160.778 113.717Z" fill="#5B5D60"/>
<path d="M150.572 108.879C149.84 108.696 149.23 108.238 148.846 107.591C148.462 106.945 148.352 106.188 148.535 105.462C148.913 103.955 150.444 103.046 151.951 103.424C153.458 103.803 154.373 105.34 153.988 106.841C153.805 107.573 153.348 108.183 152.701 108.568C152.177 108.879 151.579 109.013 150.981 108.952C150.847 108.934 150.713 108.909 150.572 108.879ZM149.255 105.639C149.12 106.176 149.2 106.731 149.486 107.207C149.767 107.683 150.218 108.018 150.755 108.153C151.292 108.287 151.847 108.208 152.323 107.921C152.799 107.64 153.134 107.189 153.269 106.652C153.549 105.548 152.872 104.419 151.768 104.138C151.67 104.114 151.567 104.096 151.469 104.083C150.462 103.986 149.511 104.632 149.255 105.639Z" fill="url(#paint13_linear)"/>
<path d="M150.511 113.076C150.743 113.101 150.981 113.113 151.225 113.113C151.701 113.113 152.183 113.064 152.646 112.966C152.665 112.96 152.689 112.96 152.707 112.954C152.872 112.918 152.982 112.783 153 112.631C153.006 112.594 153 112.551 152.994 112.515C152.951 112.314 152.75 112.185 152.555 112.228C152.122 112.32 151.676 112.368 151.231 112.368C151.207 112.368 151.182 112.368 151.158 112.368C150.102 112.356 149.09 112.088 148.193 111.588C147.705 111.319 147.254 110.977 146.845 110.575C146.839 110.569 146.839 110.569 146.833 110.563C146.821 110.55 146.814 110.544 146.802 110.532C145.619 109.348 144.966 107.774 144.966 106.103C144.966 105.883 144.978 105.67 144.997 105.456C145.143 104.028 145.771 102.698 146.796 101.667C147.98 100.484 149.553 99.831 151.225 99.831C152.896 99.831 154.47 100.484 155.654 101.667C156.837 102.851 157.49 104.425 157.49 106.097C157.49 106.31 157.478 106.524 157.459 106.731C157.368 107.646 157.075 108.525 156.605 109.312C156.575 109.361 156.557 109.416 156.557 109.464C156.544 109.605 156.605 109.745 156.733 109.818C156.91 109.922 157.136 109.867 157.246 109.69C157.777 108.812 158.1 107.823 158.204 106.804C158.228 106.566 158.24 106.329 158.24 106.091C158.24 104.218 157.508 102.461 156.184 101.137C154.861 99.8127 153.104 99.0806 151.231 99.0867C149.358 99.0867 147.601 99.8188 146.278 101.143C145.125 102.296 144.423 103.778 144.258 105.377C144.234 105.615 144.222 105.853 144.222 106.097C144.216 109.727 146.979 112.722 150.511 113.076Z" fill="url(#paint14_linear)"/>
<path d="M235.951 147.838L246.36 159.228C239.848 164.139 235.761 173.782 246.663 185.245L232.009 192.352C221.735 174.365 223.19 160.147 235.951 147.838Z" fill="#868686"/>
<path d="M229.82 188.219L239.916 188.381L241.73 178.436C247.273 189.826 260.381 194.586 275.376 189.731L282.946 203.809C261.305 213.671 239.4 208.608 229.82 188.219Z" fill="#B5B5B5"/>
<path d="M314.498 173.166C322.685 156.988 344.287 151.019 359.819 159.878L375.565 154.664C357.177 130.131 323.76 134.784 302.997 159.301L314.498 173.166Z" fill="#B5B5B5"/>
<path d="M350.821 190.297L357.501 205.904C381.875 195.751 389.255 161.367 367.244 146.219L367.407 156.333L357.048 158.489C372.3 165.724 365.503 186.231 350.821 190.297Z" fill="#5B5D60"/>
<path d="M307.309 194.709C330.401 211.319 350.609 213.486 366.723 200.287L355.385 196.255L358.543 186.153C344.404 195.969 331.263 192.772 318.648 182.725L307.309 194.709Z" fill="#B5B5B5"/>
<path d="M235.951 147.838V158.78L246.36 159.228C253.108 154.849 262.878 155.202 275.18 159.139L282.33 143.291C263.634 135.288 248.309 137.198 235.951 147.838Z" fill="#B5B5B5"/>
<path d="M275.18 159.144L269.334 146.964L282.33 143.296C290.774 147.698 297.572 153.091 302.997 159.312C308.972 172.472 317.175 183.711 327.433 188.505L313.972 188.645L316.044 200.388C310.769 197.229 305.68 193.685 301.2 189.815L291.093 171.839C287.566 166.486 282.65 162.123 275.18 159.144Z" fill="#5B5D60"/>
<path d="M302.998 159.307C299.044 163.534 296.458 169.767 292.74 174.197C286.816 181.264 279.424 190.392 266.087 191.579L276.972 197.212L270.488 207.841C292.236 203.518 307.455 189.328 314.493 173.166V157.61L302.998 159.307Z" fill="#5B5D60"/>
</g>
<defs>
<linearGradient id="paint0_linear" x1="133.718" y1="67.0892" x2="133.718" y2="145.747" gradientUnits="userSpaceOnUse">
<stop stop-color="#D3D8DE"/>
<stop offset="1" stop-color="white"/>
</linearGradient>
<linearGradient id="paint1_linear" x1="162.555" y1="7.75284" x2="195.064" y2="7.75284" gradientUnits="userSpaceOnUse">
<stop stop-color="#DAE3FE"/>
<stop offset="1" stop-color="#E9EFFD"/>
</linearGradient>
<linearGradient id="paint2_linear" x1="162.555" y1="12.5359" x2="195.064" y2="12.5359" gradientUnits="userSpaceOnUse">
<stop stop-color="#DAE3FE"/>
<stop offset="1" stop-color="#E9EFFD"/>
</linearGradient>
<linearGradient id="paint3_linear" x1="162.555" y1="17.3188" x2="195.064" y2="17.3188" gradientUnits="userSpaceOnUse">
<stop stop-color="#DAE3FE"/>
<stop offset="1" stop-color="#E9EFFD"/>
</linearGradient>
<linearGradient id="paint4_linear" x1="162.555" y1="22.1016" x2="195.064" y2="22.1016" gradientUnits="userSpaceOnUse">
<stop stop-color="#DAE3FE"/>
<stop offset="1" stop-color="#E9EFFD"/>
</linearGradient>
<linearGradient id="paint5_linear" x1="197.554" y1="17.5167" x2="208.462" y2="17.5167" gradientUnits="userSpaceOnUse">
<stop stop-color="#DAE3FE"/>
<stop offset="1" stop-color="#E9EFFD"/>
</linearGradient>
<linearGradient id="paint6_linear" x1="211.108" y1="17.5167" x2="222.016" y2="17.5167" gradientUnits="userSpaceOnUse">
<stop stop-color="#DAE3FE"/>
<stop offset="1" stop-color="#E9EFFD"/>
</linearGradient>
<linearGradient id="paint7_linear" x1="224.663" y1="17.5167" x2="235.571" y2="17.5167" gradientUnits="userSpaceOnUse">
<stop stop-color="#DAE3FE"/>
<stop offset="1" stop-color="#E9EFFD"/>
</linearGradient>
<linearGradient id="paint8_linear" x1="197.554" y1="23.6343" x2="208.462" y2="23.6343" gradientUnits="userSpaceOnUse">
<stop stop-color="#DAE3FE"/>
<stop offset="1" stop-color="#E9EFFD"/>
</linearGradient>
<linearGradient id="paint9_linear" x1="211.108" y1="23.6343" x2="222.016" y2="23.6343" gradientUnits="userSpaceOnUse">
<stop stop-color="#DAE3FE"/>
<stop offset="1" stop-color="#E9EFFD"/>
</linearGradient>
<linearGradient id="paint10_linear" x1="224.663" y1="23.6343" x2="235.571" y2="23.6343" gradientUnits="userSpaceOnUse">
<stop stop-color="#DAE3FE"/>
<stop offset="1" stop-color="#E9EFFD"/>
</linearGradient>
<linearGradient id="paint11_linear" x1="119.879" y1="89.0957" x2="128.143" y2="89.0957" gradientUnits="userSpaceOnUse">
<stop stop-color="#DAE3FE"/>
<stop offset="1" stop-color="#E9EFFD"/>
</linearGradient>
<linearGradient id="paint12_linear" x1="113.795" y1="89.0297" x2="134.114" y2="89.0297" gradientUnits="userSpaceOnUse">
<stop stop-color="#DAE3FE"/>
<stop offset="1" stop-color="#E9EFFD"/>
</linearGradient>
<linearGradient id="paint13_linear" x1="148.447" y1="106.149" x2="154.077" y2="106.149" gradientUnits="userSpaceOnUse">
<stop stop-color="#DAE3FE"/>
<stop offset="1" stop-color="#E9EFFD"/>
</linearGradient>
<linearGradient id="paint14_linear" x1="144.215" y1="106.104" x2="158.234" y2="106.104" gradientUnits="userSpaceOnUse">
<stop stop-color="#DAE3FE"/>
<stop offset="1" stop-color="#E9EFFD"/>
</linearGradient>
</defs>
</svg>
