<svg width="404" height="272" viewBox="0 0 404 272" fill="none" xmlns="http://www.w3.org/2000/svg">
<path d="M190.565 271H6.43521C3.47922 271 1 268.518 1 265.558V6.44201C1 3.48232 3.47922 1 6.43521 1H190.565C193.521 1 196 3.48232 196 6.44201V265.558C196 268.613 193.616 271 190.565 271ZM6.43521 1.28642C3.57457 1.28642 1.19071 3.57779 1.19071 6.53748V265.654C1.19071 268.518 3.47922 270.905 6.43521 270.905H190.565C193.425 270.905 195.809 268.613 195.809 265.654V6.44201C195.809 3.57779 193.521 1.19095 190.565 1.19095H6.43521V1.28642Z" fill="#EBEBEB" fill-opacity="0.32"/>
<path d="M6.43521 1.38642H6.53521V1.29095H190.565C193.464 1.29095 195.709 3.63171 195.709 6.44201V265.654C195.709 268.557 193.371 270.805 190.565 270.805H6.43521C3.53575 270.805 1.29071 268.464 1.29071 265.654V6.53748C1.29071 3.63409 3.62873 1.38642 6.43521 1.38642ZM6.43521 271.1H190.565C193.671 271.1 196.1 268.668 196.1 265.558V6.44201C196.1 3.42721 193.576 0.9 190.565 0.9H6.43521C3.42387 0.9 0.9 3.42721 0.9 6.44201V265.558C0.9 268.573 3.42387 271.1 6.43521 271.1Z" stroke="#EBEBEB" stroke-opacity="0.32" stroke-width="0.2"/>
<path d="M397.537 271H212.463C209.492 271 207 268.518 207 265.558V6.44201C207 3.48232 209.492 1 212.463 1H397.537C400.508 1 403 3.48232 403 6.44201V265.558C403 268.613 400.604 271 397.537 271ZM212.463 1.28642C209.588 1.28642 207.192 3.57779 207.192 6.53748V265.654C207.192 268.518 209.492 270.905 212.463 270.905H397.537C400.412 270.905 402.808 268.613 402.808 265.654V6.44201C402.808 3.57779 400.508 1.19095 397.537 1.19095H212.463V1.28642Z" fill="#EBEBEB" fill-opacity="0.32"/>
<path d="M212.463 1.38642H212.563V1.29095H397.537C400.452 1.29095 402.708 3.6322 402.708 6.44201V265.654C402.708 268.556 400.359 270.805 397.537 270.805H212.463C209.548 270.805 207.292 268.463 207.292 265.654V6.53748C207.292 3.63457 209.641 1.38642 212.463 1.38642ZM212.463 271.1H397.537C400.659 271.1 403.1 268.669 403.1 265.558V6.44201C403.1 3.42673 400.563 0.9 397.537 0.9H212.463C209.437 0.9 206.9 3.42673 206.9 6.44201V265.558C206.9 268.573 209.437 271.1 212.463 271.1Z" stroke="#EBEBEB" stroke-opacity="0.32" stroke-width="0.2"/>
<path d="M55.1064 164.695C35.126 164.695 18.874 148.44 18.874 128.457C18.874 108.473 35.126 92.218 55.1064 92.218C75.0868 92.218 91.3388 108.473 91.3388 128.457C91.4344 148.44 75.1824 164.695 55.1064 164.695ZM55.1064 93.3654C35.7952 93.3654 20.0212 109.142 20.0212 128.457C20.0212 147.771 35.7952 163.548 55.1064 163.548C74.4176 163.548 90.1916 147.771 90.1916 128.457C90.2872 109.046 74.5132 93.3654 55.1064 93.3654Z" fill="#595C5F" fill-opacity="0.17"/>
<path d="M321.735 76.7281C310.932 76.7281 302.137 67.9314 302.137 57.2224C302.137 46.4177 310.932 37.621 321.735 37.621C332.538 37.621 341.238 46.4177 341.238 57.2224C341.238 67.9314 332.442 76.7281 321.735 76.7281ZM321.735 39.0553C311.793 39.0553 303.571 47.1827 303.571 57.2224C303.571 67.1665 311.697 75.2939 321.735 75.2939C331.678 75.2939 339.804 67.1665 339.804 57.2224C339.804 47.1827 331.678 39.0553 321.735 39.0553Z" fill="#595C5F" fill-opacity="0.8"/>
<path d="M321.735 75.9632C325.272 75.9632 328.523 75.007 331.295 73.2859C331.2 71.1824 331.008 68.6964 330.913 67.4533C330.722 64.6805 328.427 62.5769 325.655 62.5769H317.72C314.948 62.5769 312.653 64.6805 312.462 67.4533C312.366 68.6964 312.175 71.1824 312.08 73.2859C314.948 75.007 318.198 75.9632 321.735 75.9632Z" fill="#595C5F" fill-opacity="0.8"/>
<path d="M326.515 53.3977C326.515 56.075 324.412 59.1347 321.735 59.1347C319.059 59.1347 316.955 56.075 316.955 53.3977C316.955 50.7205 319.059 48.6169 321.735 48.6169C324.317 48.6169 326.515 50.7205 326.515 53.3977Z" fill="#595C5F" fill-opacity="0.8"/>
<path d="M303.235 140.132C315.705 127.66 315.705 107.44 303.235 94.9683C290.766 82.4967 270.549 82.4966 258.079 94.9683C245.61 107.44 245.61 127.66 258.079 140.132C270.549 152.604 290.766 152.604 303.235 140.132Z" fill="#595C5F" fill-opacity="0.17"/>
<path opacity="0.5" d="M303.235 140.132C315.705 127.66 315.705 107.44 303.235 94.9683C290.766 82.4967 270.549 82.4966 258.079 94.9683C245.61 107.44 245.61 127.66 258.079 140.132C270.549 152.604 290.766 152.604 303.235 140.132Z" fill="#595C5F" fill-opacity="0.17"/>
<path d="M244.395 117.556C244.395 97.5725 260.647 81.3178 280.627 81.3178C300.608 81.3178 316.86 97.5725 316.86 117.556C316.86 137.54 300.608 153.795 280.627 153.795C260.647 153.795 244.395 137.54 244.395 117.556ZM245.542 117.556C245.542 136.871 261.316 152.648 280.627 152.648C299.939 152.648 315.713 136.871 315.713 117.556C315.713 98.2418 299.939 82.4651 280.627 82.4651C261.316 82.3695 245.542 98.1462 245.542 117.556Z" fill="#595C5F" fill-opacity="0.17"/>
<g opacity="0.5">
<path opacity="0.5" d="M244.395 117.556C244.395 97.5725 260.647 81.3178 280.627 81.3178C300.608 81.3178 316.86 97.5725 316.86 117.556C316.86 137.54 300.608 153.795 280.627 153.795C260.647 153.795 244.395 137.54 244.395 117.556ZM245.542 117.556C245.542 136.871 261.316 152.648 280.627 152.648C299.939 152.648 315.713 136.871 315.713 117.556C315.713 98.2418 299.939 82.4651 280.627 82.4651C261.316 82.3695 245.542 98.1462 245.542 117.556Z" fill="#595C5F" fill-opacity="0.17"/>
</g>
<path opacity="0.5" d="M293.342 106.369C292.864 107.708 291.908 109.238 290.379 110.863C287.033 111.15 284.834 110.29 283.687 109.716C283.974 108.473 284.356 107.134 284.452 106.082C289.423 106.943 292.004 106.656 293.342 106.369Z" fill="#595C5F" fill-opacity="0.17"/>
<path d="M135.232 234.477C115.252 234.477 99 218.222 99 198.239C99 178.255 115.252 162 135.232 162C155.213 162 171.465 178.255 171.465 198.239C171.465 218.127 155.213 234.477 135.232 234.477ZM135.232 163.052C115.921 163.052 100.147 178.828 100.147 198.143C100.147 217.457 115.921 233.234 135.232 233.234C154.544 233.234 170.318 217.457 170.318 198.143C170.318 178.828 154.544 163.052 135.232 163.052Z" fill="#595C5F" fill-opacity="0.17"/>
<g opacity="0.5">
<path opacity="0.5" d="M135.232 234.477C115.252 234.477 99 218.222 99 198.239C99 178.255 115.252 162 135.232 162C155.213 162 171.465 178.255 171.465 198.239C171.465 218.127 155.213 234.477 135.232 234.477ZM135.232 163.052C115.921 163.052 100.147 178.828 100.147 198.143C100.147 217.457 115.921 233.234 135.232 233.234C154.544 233.234 170.318 217.457 170.318 198.143C170.318 178.828 154.544 163.052 135.232 163.052Z" fill="#595C5F" fill-opacity="0.17"/>
</g>
<g opacity="0.2" clip-path="url(#clip0)">
<path d="M144.764 200.455C145.843 195.889 143.015 191.312 138.448 190.234C133.882 189.156 129.305 191.984 128.227 196.55C127.149 201.117 129.977 205.693 134.543 206.771C139.11 207.85 143.686 205.022 144.764 200.455Z" fill="#232527" fill-opacity="0.9"/>
<path d="M142.305 204.31C145.514 201.101 145.514 195.898 142.305 192.689C139.096 189.48 133.894 189.48 130.685 192.689C127.476 195.898 127.476 201.101 130.685 204.31C133.894 207.519 139.096 207.519 142.305 204.31Z" fill="#E2E2E2"/>
<path opacity="0.66" d="M129.727 195.244C129.705 195.244 129.676 195.237 129.655 195.23C129.576 195.194 129.547 195.094 129.583 195.022C130.909 192.393 133.559 190.767 136.496 190.767C136.962 190.767 137.435 190.81 137.893 190.895C137.979 190.91 138.037 190.996 138.022 191.075C138.008 191.161 137.929 191.218 137.843 191.204C137.406 191.125 136.955 191.082 136.504 191.082C133.681 191.075 131.138 192.636 129.863 195.158C129.834 195.208 129.784 195.244 129.727 195.244Z" fill="white"/>
<path opacity="0.78" d="M141.593 203.597C144.309 200.881 144.309 196.476 141.593 193.76C138.876 191.043 134.472 191.043 131.755 193.76C129.039 196.476 129.039 200.881 131.755 203.597C134.472 206.314 138.876 206.314 141.593 203.597Z" fill="white"/>
<path d="M135.995 203.848V203.089C135.207 203.06 134.426 202.874 133.874 202.63C133.674 202.544 133.574 202.322 133.631 202.114L133.824 201.412C133.896 201.154 134.175 201.018 134.426 201.126C134.978 201.355 135.651 201.541 136.389 201.541C137.148 201.541 137.714 201.283 137.714 200.753C137.714 200.28 137.277 199.994 136.217 199.707C134.713 199.292 133.631 198.64 133.631 197.314C133.631 196.118 134.505 195.201 136.024 194.957V194.198C136.024 193.954 136.224 193.754 136.468 193.754H136.912C137.156 193.754 137.356 193.954 137.356 194.198V194.879C138.087 194.907 138.617 195.029 139.04 195.18C139.255 195.258 139.376 195.488 139.312 195.71L139.133 196.362C139.061 196.612 138.796 196.748 138.552 196.655C138.166 196.512 137.614 196.354 136.905 196.354C136.002 196.354 135.744 196.727 135.744 197.064C135.744 197.479 136.282 197.759 137.456 198.117C139.133 198.618 139.828 199.313 139.828 200.567C139.828 201.713 138.975 202.745 137.327 203.003V203.848C137.327 204.091 137.127 204.292 136.883 204.292H136.439C136.196 204.292 135.995 204.091 135.995 203.848Z" fill="#5B5E61"/>
</g>
<g opacity="0.2" clip-path="url(#clip1)">
<path d="M80.2798 133.981C83.5782 120.012 74.9282 106.014 60.9595 102.716C46.9908 99.4173 32.9931 108.067 29.6947 122.036C26.3963 136.005 35.0463 150.002 49.015 153.301C62.9836 156.599 76.9814 147.949 80.2798 133.981Z" fill="#232527" fill-opacity="0.9"/>
<path d="M72.7574 145.771C82.5729 135.956 82.5729 120.042 72.7574 110.226C62.9418 100.411 47.0278 100.411 37.2123 110.226C27.3967 120.042 27.3967 135.956 37.2123 145.771C47.0278 155.587 62.9418 155.587 72.7574 145.771Z" fill="#E2E2E2"/>
<path opacity="0.66" d="M34.281 118.04C34.2153 118.04 34.1277 118.019 34.0619 117.997C33.8209 117.887 33.7332 117.58 33.8428 117.361C37.8967 109.319 46.0046 104.345 54.989 104.345C56.4134 104.345 57.8596 104.476 59.2621 104.739C59.525 104.783 59.7003 105.046 59.6565 105.287C59.6127 105.55 59.3716 105.725 59.1087 105.681C57.772 105.44 56.3915 105.309 55.0109 105.309C46.3771 105.287 38.5979 110.064 34.6974 117.778C34.6097 117.931 34.4564 118.04 34.281 118.04Z" fill="white"/>
<path opacity="0.78" d="M70.5783 143.592C78.8877 135.282 78.8877 121.81 70.5783 113.501C62.2689 105.191 48.7967 105.191 40.4874 113.501C32.178 121.81 32.178 135.282 40.4874 143.592C48.7967 151.901 62.2689 151.901 70.5783 143.592Z" fill="white"/>
<path d="M53.4553 144.358V142.035C51.0449 141.948 48.6563 141.378 46.969 140.633C46.3554 140.37 46.0487 139.691 46.224 139.055L46.8156 136.908C47.0348 136.119 47.8894 135.702 48.6563 136.031C50.3436 136.732 52.4035 137.302 54.6605 137.302C56.9833 137.302 58.7145 136.513 58.7145 134.892C58.7145 133.445 57.3778 132.569 54.1346 131.692C49.5329 130.421 46.224 128.427 46.224 124.373C46.224 120.714 48.8974 117.909 53.543 117.164V114.841C53.543 114.096 54.1565 113.483 54.9016 113.483H56.2602C57.0053 113.483 57.6188 114.096 57.6188 114.841V116.923C59.854 117.011 61.4756 117.383 62.7684 117.843C63.4258 118.084 63.7983 118.786 63.6011 119.465L63.0533 121.459C62.8342 122.226 62.0234 122.642 61.2783 122.357C60.095 121.919 58.4077 121.437 56.2383 121.437C53.4772 121.437 52.6884 122.576 52.6884 123.606C52.6884 124.877 54.3319 125.732 57.9256 126.828C63.0533 128.362 65.1789 130.487 65.1789 134.322C65.1789 137.828 62.5712 140.984 57.5312 141.772V144.358C57.5312 145.103 56.9176 145.717 56.1726 145.717H54.8139C54.0689 145.717 53.4553 145.103 53.4553 144.358Z" fill="#5B5E61"/>
</g>
<g opacity="0.3">
<path d="M359.84 195.527C363.138 181.558 354.489 167.561 340.52 164.262C326.551 160.964 312.553 169.614 309.255 183.582C305.957 197.551 314.607 211.549 328.575 214.847C342.544 218.146 356.542 209.496 359.84 195.527Z" fill="#232527" fill-opacity="0.9"/>
<path d="M352.318 207.318C362.133 197.502 362.133 181.588 352.318 171.773C342.502 161.957 326.588 161.957 316.773 171.773C306.957 181.588 306.957 197.502 316.773 207.318C326.588 217.133 342.502 217.133 352.318 207.318Z" fill="#E2E2E2"/>
<path opacity="0.66" d="M313.841 179.587C313.776 179.587 313.688 179.565 313.622 179.543C313.381 179.434 313.294 179.127 313.403 178.908C317.457 170.865 325.565 165.891 334.549 165.891C335.974 165.891 337.42 166.023 338.823 166.286C339.085 166.329 339.261 166.592 339.217 166.833C339.173 167.096 338.932 167.272 338.669 167.228C337.332 166.987 335.952 166.855 334.571 166.855C325.938 166.833 318.158 171.611 314.258 179.324C314.17 179.477 314.017 179.587 313.841 179.587Z" fill="white"/>
<path opacity="0.78" d="M350.139 205.138C358.448 196.829 358.448 183.357 350.139 175.047C341.829 166.738 328.357 166.738 320.048 175.047C311.738 183.357 311.738 196.829 320.048 205.138C328.357 213.448 341.829 213.448 350.139 205.138Z" fill="white"/>
<path d="M333.016 205.905V203.582C330.605 203.494 328.217 202.924 326.529 202.179C325.916 201.916 325.609 201.237 325.784 200.602L326.376 198.454C326.595 197.665 327.45 197.249 328.217 197.578C329.904 198.279 331.964 198.849 334.221 198.849C336.544 198.849 338.275 198.06 338.275 196.438C338.275 194.992 336.938 194.115 333.695 193.239C329.093 191.968 325.784 189.974 325.784 185.92C325.784 182.26 328.458 179.455 333.103 178.71V176.388C333.103 175.643 333.717 175.029 334.462 175.029H335.82C336.565 175.029 337.179 175.643 337.179 176.388V178.469C339.414 178.557 341.036 178.93 342.329 179.39C342.986 179.631 343.359 180.332 343.161 181.011L342.613 183.005C342.394 183.772 341.584 184.189 340.839 183.904C339.655 183.466 337.968 182.983 335.798 182.983C333.037 182.983 332.249 184.123 332.249 185.153C332.249 186.424 333.892 187.278 337.486 188.374C342.613 189.908 344.739 192.034 344.739 195.868C344.739 199.375 342.131 202.53 337.091 203.319V205.905C337.091 206.65 336.478 207.263 335.733 207.263H334.374C333.629 207.263 333.016 206.65 333.016 205.905Z" fill="#5B5E61"/>
</g>
<g opacity="0.2" clip-path="url(#clip2)">
<path d="M306.28 123.981C309.578 110.012 300.928 96.0141 286.959 92.7157C272.991 89.4173 258.993 98.0673 255.695 112.036C252.396 126.005 261.046 140.002 275.015 143.301C288.984 146.599 302.981 137.949 306.28 123.981Z" fill="#232527" fill-opacity="0.9"/>
<path d="M298.757 135.771C308.573 125.956 308.573 110.042 298.757 100.226C288.942 90.4106 273.028 90.4106 263.212 100.226C253.397 110.042 253.397 125.956 263.212 135.771C273.028 145.587 288.942 145.587 298.757 135.771Z" fill="#E2E2E2"/>
<path opacity="0.66" d="M260.281 108.04C260.215 108.04 260.128 108.019 260.062 107.997C259.821 107.887 259.733 107.58 259.843 107.361C263.897 99.319 272.005 94.3447 280.989 94.3447C282.413 94.3447 283.86 94.4762 285.262 94.7391C285.525 94.783 285.7 95.0459 285.657 95.287C285.613 95.5499 285.372 95.7252 285.109 95.6814C283.772 95.4404 282.391 95.3089 281.011 95.3089C272.377 95.287 264.598 100.064 260.697 107.778C260.61 107.931 260.456 108.04 260.281 108.04Z" fill="white"/>
<path opacity="0.78" d="M296.578 133.592C304.888 125.282 304.888 111.81 296.578 103.501C288.269 95.1914 274.797 95.1914 266.487 103.501C258.178 111.81 258.178 125.282 266.487 133.592C274.797 141.901 288.269 141.901 296.578 133.592Z" fill="white"/>
<path d="M279.455 134.358V132.035C277.045 131.948 274.656 131.378 272.969 130.633C272.355 130.37 272.048 129.691 272.224 129.055L272.815 126.908C273.035 126.119 273.889 125.702 274.656 126.031C276.343 126.732 278.403 127.302 280.66 127.302C282.983 127.302 284.714 126.513 284.714 124.892C284.714 123.445 283.378 122.569 280.134 121.692C275.533 120.421 272.224 118.427 272.224 114.373C272.224 110.714 274.897 107.909 279.543 107.164V104.841C279.543 104.096 280.156 103.483 280.901 103.483H282.26C283.005 103.483 283.619 104.096 283.619 104.841V106.923C285.854 107.011 287.475 107.383 288.768 107.843C289.426 108.084 289.798 108.786 289.601 109.465L289.053 111.459C288.834 112.226 288.023 112.642 287.278 112.357C286.095 111.919 284.407 111.437 282.238 111.437C279.477 111.437 278.688 112.576 278.688 113.606C278.688 114.877 280.332 115.732 283.925 116.828C289.053 118.362 291.179 120.487 291.179 124.322C291.179 127.828 288.571 130.984 283.531 131.772V134.358C283.531 135.103 282.917 135.717 282.172 135.717H280.814C280.069 135.717 279.455 135.103 279.455 134.358Z" fill="#5B5E61"/>
</g>
<g opacity="0.3" clip-path="url(#clip3)">
<path d="M148.869 93.7182C148.808 93.7081 148.758 93.6676 148.728 93.6169C148.667 93.5156 148.707 93.3941 148.808 93.3333C149.04 93.2017 149.281 93.0598 149.503 92.918C149.604 92.8573 149.725 92.8877 149.785 92.9889C149.845 93.0902 149.815 93.2118 149.714 93.2725C149.483 93.4144 149.241 93.5562 148.999 93.6878C148.969 93.7182 148.919 93.7182 148.869 93.7182Z" fill="#C6C9D3"/>
<path d="M132.807 96.7569C132.696 96.7367 132.626 96.6354 132.636 96.524C132.656 96.4125 132.757 96.3315 132.867 96.3518C133.381 96.4227 133.905 96.4834 134.428 96.524C134.539 96.5341 134.63 96.6354 134.619 96.7468C134.609 96.8582 134.509 96.9494 134.398 96.9392C133.874 96.8886 133.341 96.8278 132.807 96.7569C132.817 96.7569 132.807 96.7569 132.807 96.7569ZM130.279 96.2505H130.269C129.756 96.1188 129.242 95.977 128.729 95.8149C128.618 95.7845 128.557 95.663 128.598 95.5617C128.628 95.4503 128.739 95.3895 128.849 95.43C129.343 95.5921 129.856 95.7339 130.36 95.8656C130.471 95.896 130.531 96.0074 130.511 96.1188C130.491 96.21 130.39 96.2707 130.279 96.2505ZM136.956 97C136.865 96.9797 136.795 96.8987 136.785 96.7974C136.785 96.686 136.875 96.5949 136.986 96.5847C137.51 96.5746 138.033 96.5442 138.557 96.5037C138.668 96.4936 138.768 96.5746 138.778 96.686C138.788 96.7974 138.708 96.8987 138.597 96.9088C138.063 96.9595 137.53 96.9797 137.006 97C136.986 97 136.966 97 136.956 97ZM126.342 94.9135C126.322 94.9135 126.312 94.9033 126.292 94.9033C125.808 94.6906 125.315 94.4576 124.841 94.2146C124.741 94.1639 124.7 94.0424 124.751 93.9411C124.801 93.8398 124.922 93.7993 125.023 93.8499C125.486 94.093 125.969 94.3158 126.443 94.5184C126.543 94.5589 126.594 94.6805 126.553 94.7919C126.533 94.8831 126.433 94.9337 126.342 94.9135ZM141.084 96.5645C141.004 96.5543 140.933 96.4834 140.923 96.4024C140.903 96.291 140.974 96.1796 141.084 96.1593L141.225 96.1289C141.689 96.0378 142.162 95.9365 142.615 95.8149C142.726 95.7845 142.837 95.8554 142.867 95.9669C142.897 96.0783 142.827 96.1897 142.716 96.2201C142.253 96.3416 141.769 96.4429 141.306 96.5341L141.165 96.5645C141.135 96.5645 141.115 96.5645 141.084 96.5645ZM122.676 92.9484C122.646 92.9484 122.626 92.9383 122.606 92.9181C122.163 92.6243 121.72 92.3204 121.287 92.0065C121.196 91.9355 121.176 91.814 121.246 91.7228C121.317 91.6317 121.438 91.6114 121.528 91.6823C121.951 91.9963 122.384 92.2901 122.827 92.5838C122.918 92.6446 122.948 92.7762 122.888 92.8674C122.838 92.9282 122.757 92.9586 122.676 92.9484ZM145.102 95.4604C145.032 95.4503 144.972 95.3996 144.941 95.3287C144.901 95.2173 144.961 95.1059 145.062 95.0654C145.556 94.8831 146.039 94.6906 146.522 94.4779C146.623 94.4273 146.744 94.4779 146.794 94.5792C146.834 94.6805 146.794 94.802 146.693 94.8527C146.21 95.0654 145.707 95.268 145.213 95.4503C145.173 95.4604 145.133 95.4705 145.102 95.4604ZM119.384 90.4061C119.343 90.396 119.313 90.3858 119.283 90.3554C118.89 90.0009 118.497 89.6262 118.135 89.2413C118.054 89.1602 118.054 89.0285 118.135 88.9475C118.215 88.8665 118.346 88.8665 118.427 88.9475C118.789 89.3223 119.172 89.6869 119.555 90.0414C119.635 90.1225 119.645 90.244 119.565 90.3352C119.524 90.396 119.444 90.4162 119.384 90.4061ZM116.544 87.3573C116.493 87.3472 116.453 87.3269 116.423 87.2864C116.091 86.8711 115.768 86.4355 115.466 86C115.406 85.9088 115.426 85.7772 115.517 85.7164C115.607 85.6556 115.738 85.6759 115.799 85.767C116.101 86.1925 116.413 86.628 116.735 87.0332C116.806 87.1243 116.796 87.256 116.705 87.3269C116.655 87.3573 116.594 87.3674 116.544 87.3573ZM114.228 83.8831C114.167 83.8729 114.117 83.8324 114.087 83.7818C113.835 83.3158 113.583 82.8398 113.352 82.3536C113.301 82.2523 113.341 82.1308 113.452 82.0801C113.553 82.0295 113.674 82.07 113.724 82.1814C113.946 82.6575 114.187 83.1234 114.439 83.5893C114.489 83.6906 114.459 83.8122 114.359 83.8729C114.328 83.8831 114.278 83.8932 114.228 83.8831ZM112.526 80.0746C112.455 80.0645 112.395 80.0138 112.365 79.9429C112.183 79.4365 112.022 78.93 111.881 78.4135C111.851 78.302 111.912 78.1906 112.022 78.1602C112.133 78.1298 112.244 78.1906 112.274 78.302C112.415 78.8085 112.576 79.3149 112.757 79.8112C112.798 79.9227 112.737 80.0341 112.637 80.0746C112.596 80.0847 112.556 80.0847 112.526 80.0746ZM111.458 76.0433C111.378 76.0332 111.307 75.9623 111.297 75.8812C111.207 75.3545 111.126 74.8177 111.066 74.291C111.056 74.1796 111.136 74.0783 111.247 74.058C111.358 74.0479 111.458 74.1289 111.479 74.2403C111.539 74.7569 111.619 75.2836 111.71 75.8002C111.73 75.9116 111.66 76.023 111.549 76.0433C111.499 76.0433 111.479 76.0433 111.458 76.0433ZM111.046 71.8803C110.955 71.86 110.874 71.779 110.874 71.6777C110.864 71.151 110.874 70.6041 110.894 70.0672C110.905 69.9558 110.995 69.8646 111.106 69.8748C111.217 69.8849 111.307 69.9761 111.297 70.0875C111.277 70.6142 111.267 71.151 111.277 71.6676C111.277 71.779 111.186 71.8702 111.076 71.8803C111.076 71.8803 111.056 71.8803 111.046 71.8803ZM111.327 67.7072C111.217 67.6869 111.146 67.5856 111.166 67.4742C111.197 67.2413 111.237 67.0184 111.277 66.7956C111.327 66.4917 111.388 66.1879 111.448 65.8941C111.468 65.7827 111.579 65.7118 111.68 65.732H111.69C111.801 65.7523 111.871 65.8637 111.851 65.9751C111.791 66.2689 111.73 66.5626 111.68 66.8564C111.64 67.0792 111.599 67.302 111.569 67.5249C111.549 67.6464 111.438 67.7274 111.327 67.7072Z" fill="#C6C9D3"/>
<path d="M112.284 63.6252C112.274 63.6252 112.264 63.6252 112.254 63.6151C112.143 63.5847 112.093 63.4632 112.123 63.3518C112.204 63.0884 112.294 62.8251 112.395 62.5719C112.435 62.4604 112.546 62.4098 112.657 62.4503C112.767 62.4908 112.818 62.6022 112.778 62.7137C112.687 62.9669 112.596 63.2302 112.516 63.4834C112.486 63.5847 112.385 63.6455 112.284 63.6252Z" fill="#C6C9D3"/>
<path d="M125.113 48.6648C125.053 48.6547 124.992 48.6142 124.962 48.5534C124.912 48.4521 124.952 48.3306 125.053 48.2799C125.295 48.1584 125.546 48.0368 125.798 47.9254C125.899 47.8748 126.02 47.9254 126.07 48.0267C126.12 48.128 126.07 48.2496 125.969 48.3002C125.728 48.4116 125.476 48.5332 125.234 48.6547C125.194 48.6648 125.154 48.6648 125.113 48.6648Z" fill="#C6C9D3"/>
<path d="M160.963 77.8665C160.953 77.8665 160.953 77.8665 160.943 77.8665C160.832 77.8361 160.771 77.7247 160.792 77.6133C160.933 77.0765 161.053 76.5295 161.154 75.9825C161.174 75.8711 161.285 75.8002 161.396 75.8205C161.507 75.8407 161.577 75.9521 161.557 76.0636C161.456 76.6207 161.325 77.1777 161.184 77.7247C161.164 77.826 161.063 77.8868 160.963 77.8665ZM161.688 73.5111C161.587 73.4908 161.517 73.3997 161.517 73.2882C161.557 72.7413 161.587 72.1741 161.587 71.617C161.587 71.5056 161.678 71.4144 161.799 71.4144C161.909 71.4144 162 71.5056 162 71.6271C161.99 72.1943 161.97 72.7615 161.919 73.3186C161.909 73.43 161.809 73.5212 161.698 73.5111C161.698 73.5212 161.688 73.5111 161.688 73.5111ZM161.648 69.105C161.557 69.0847 161.486 69.0138 161.476 68.9227C161.426 68.3757 161.355 67.8186 161.265 67.2615C161.245 67.1501 161.325 67.0488 161.436 67.0286C161.547 67.0083 161.658 67.0893 161.668 67.2008C161.758 67.7579 161.829 68.3251 161.879 68.8822C161.889 68.9936 161.809 69.0949 161.698 69.105C161.688 69.105 161.668 69.105 161.648 69.105ZM160.862 64.7597C160.792 64.7496 160.721 64.6888 160.701 64.6078C160.56 64.0709 160.389 63.5341 160.207 63.0074C160.167 62.896 160.228 62.7846 160.338 62.744C160.449 62.7035 160.56 62.7643 160.6 62.8757C160.781 63.4125 160.953 63.9494 161.094 64.4963C161.124 64.6078 161.063 64.7192 160.953 64.7496C160.912 64.7597 160.882 64.7597 160.862 64.7597ZM159.341 60.617C159.281 60.6068 159.221 60.5663 159.19 60.5055C158.959 59.9991 158.697 59.5028 158.435 59.0166C158.385 58.9153 158.415 58.7938 158.516 58.733C158.616 58.6823 158.737 58.7127 158.798 58.814C159.07 59.3103 159.331 59.8168 159.563 60.3232C159.613 60.4245 159.563 60.5461 159.462 60.5967C159.422 60.617 159.382 60.6271 159.341 60.617ZM157.136 56.8085C157.086 56.7984 157.035 56.768 157.005 56.7275C156.683 56.2717 156.351 55.826 156.008 55.4006C155.938 55.3094 155.948 55.1879 156.038 55.1068C156.129 55.0359 156.26 55.0461 156.331 55.1372C156.683 55.5728 157.025 56.0286 157.348 56.4945C157.408 56.5857 157.388 56.7173 157.297 56.7781C157.237 56.8085 157.186 56.8186 157.136 56.8085ZM154.306 53.4356C154.266 53.4254 154.226 53.4052 154.196 53.3748C153.803 52.9798 153.4 52.605 152.977 52.2403C152.897 52.1694 152.887 52.0378 152.957 51.9466C153.028 51.8656 153.158 51.8555 153.249 51.9264C153.672 52.3011 154.085 52.686 154.488 53.081C154.568 53.1621 154.568 53.2938 154.488 53.3748C154.437 53.4254 154.367 53.4457 154.306 53.4356ZM128.376 47.3076C128.306 47.2974 128.245 47.2468 128.215 47.1658C128.175 47.0543 128.235 46.9429 128.346 46.9024C128.88 46.7201 129.423 46.558 129.967 46.4162C130.078 46.3858 130.189 46.4567 130.219 46.5682C130.249 46.6796 130.179 46.791 130.068 46.8214C129.534 46.9632 129 47.1252 128.477 47.2974C128.447 47.3076 128.406 47.3076 128.376 47.3076ZM150.933 50.5995C150.903 50.5893 150.873 50.5792 150.852 50.5691C150.399 50.2551 149.936 49.9411 149.463 49.6575C149.362 49.5967 149.332 49.4752 149.392 49.3739C149.453 49.2726 149.574 49.2422 149.674 49.303C150.158 49.5967 150.631 49.9107 151.084 50.2247C151.175 50.2855 151.195 50.4171 151.134 50.5083C151.094 50.5893 151.014 50.6197 150.933 50.5995ZM132.646 46.2744C132.565 46.2643 132.495 46.1934 132.475 46.1022C132.454 45.9908 132.535 45.8895 132.646 45.8693C133.2 45.7882 133.764 45.7173 134.317 45.6667C134.428 45.6566 134.529 45.7376 134.539 45.8591C134.549 45.9705 134.468 46.0718 134.348 46.082C133.804 46.1326 133.24 46.1934 132.696 46.2744C132.686 46.2845 132.666 46.2845 132.646 46.2744ZM147.137 48.3914C147.116 48.3914 147.106 48.3812 147.086 48.3711C146.583 48.1381 146.069 47.9153 145.556 47.7127C145.455 47.6722 145.394 47.5507 145.435 47.4494C145.475 47.3481 145.596 47.2873 145.697 47.3278C146.22 47.5304 146.744 47.7532 147.247 47.9963C147.348 48.047 147.398 48.1685 147.348 48.2698C147.318 48.361 147.227 48.4116 147.137 48.3914ZM137.026 46.0009C136.926 45.9807 136.855 45.8996 136.855 45.7984C136.855 45.6869 136.956 45.5958 137.066 45.5958C137.63 45.6059 138.194 45.6464 138.748 45.6971C138.859 45.7072 138.94 45.8085 138.929 45.9199C138.919 46.0313 138.819 46.1124 138.708 46.1022C138.154 46.0516 137.6 46.0212 137.046 46.0111C137.046 46.0009 137.036 46.0009 137.026 46.0009ZM143.018 46.872C143.008 46.872 143.008 46.872 142.998 46.872C142.464 46.7302 141.92 46.5985 141.387 46.4871C141.276 46.4669 141.205 46.3554 141.225 46.244C141.246 46.1326 141.346 46.0718 141.467 46.082C142.021 46.1934 142.565 46.3251 143.109 46.4669C143.219 46.4973 143.28 46.6087 143.25 46.7201C143.219 46.8315 143.119 46.8923 143.018 46.872Z" fill="#C6C9D3"/>
<path d="M159.835 81.2496C159.825 81.2496 159.805 81.2394 159.795 81.2394C159.694 81.1989 159.644 81.0774 159.684 80.9659C159.785 80.7127 159.885 80.4595 159.986 80.2063C160.026 80.105 160.147 80.0442 160.248 80.0847C160.348 80.1253 160.409 80.2468 160.369 80.3481C160.268 80.6114 160.167 80.8647 160.066 81.1179C160.016 81.2192 159.926 81.2698 159.835 81.2496Z" fill="#C6C9D3"/>
<path d="M153.36 81.0065C153.44 80.9052 153.44 80.7533 153.36 80.652L151.225 77.6032C151.89 75.9927 152.313 74.2708 152.433 72.4881L155.696 70.7256C155.807 70.6649 155.877 70.5332 155.857 70.4116L155.152 65.9954C155.132 65.8638 155.032 65.7625 154.901 65.7422L151.255 65.1041C150.581 63.4429 149.644 61.9439 148.506 60.6271L149.574 57.0617C149.614 56.9402 149.563 56.7984 149.463 56.7275L145.868 54.1243C145.767 54.0433 145.616 54.0433 145.515 54.1243L142.484 56.2717C140.883 55.6031 139.171 55.1777 137.399 55.0562L135.647 51.7643C135.586 51.6529 135.455 51.582 135.334 51.6022L130.944 52.3112C130.813 52.3315 130.712 52.4328 130.692 52.5645L130.058 56.2311C128.406 56.9098 126.916 57.8518 125.607 58.9963L122.062 57.9227C121.941 57.8822 121.8 57.9328 121.73 58.0341L119.132 61.6602C119.051 61.7615 119.051 61.9135 119.132 62.0148L121.267 65.0636C120.602 66.6741 120.179 68.396 120.058 70.1787L116.796 71.9411C116.685 72.0019 116.614 72.1336 116.634 72.2551L117.339 76.6713C117.359 76.803 117.46 76.9043 117.591 76.9245L121.236 77.5627C121.911 79.2238 122.848 80.7229 123.986 82.0396L122.908 85.5949C122.868 85.7164 122.918 85.8582 123.019 85.9292L126.624 88.5424C126.725 88.6234 126.876 88.6234 126.976 88.5424L130.007 86.3951C131.609 87.0636 133.32 87.489 135.093 87.6106L136.845 90.8923C136.905 91.0037 137.036 91.0746 137.157 91.0544L141.548 90.3454C141.679 90.3251 141.779 90.2238 141.799 90.0921L142.434 86.4255C144.075 85.7468 145.576 84.8048 146.885 83.6603L150.43 84.7339C150.55 84.7745 150.691 84.7238 150.762 84.6225L153.36 81.0065Z" fill="#A8ABB2"/>
<path d="M135.526 75.4457C134.197 75.2127 133.008 74.3214 132.434 72.9945C131.991 71.9715 131.981 70.837 132.384 69.8039C132.797 68.7707 133.582 67.9503 134.599 67.5148C135.616 67.0691 136.744 67.059 137.771 67.4641C138.799 67.8794 139.614 68.6695 140.047 69.6925C140.954 71.8094 139.977 74.2707 137.882 75.1722C137.117 75.4963 136.291 75.5774 135.526 75.4457ZM136.895 67.6262C136.18 67.4945 135.445 67.5857 134.771 67.8794C133.854 68.2744 133.149 69.0138 132.777 69.9457C132.404 70.8776 132.424 71.9006 132.817 72.8223C133.633 74.7265 135.838 75.6078 137.731 74.7873C139.624 73.9669 140.5 71.7486 139.685 69.8444C139.292 68.9227 138.557 68.2137 137.63 67.8389C137.389 67.7376 137.137 67.6667 136.895 67.6262Z" fill="#C6C9D3"/>
<path d="M134.257 82.1004C129.806 81.3002 126.141 77.7652 125.375 73.0249C125.174 71.779 125.194 70.5433 125.405 69.3582C126.201 64.8914 129.715 61.1943 134.428 60.4245C137.308 59.9586 140.198 60.6474 142.565 62.3693C144.931 64.0912 146.492 66.6335 146.955 69.5304C147.066 70.2394 147.117 70.9586 147.086 71.6676C147.086 71.7385 147.076 71.7993 147.076 71.8702C147.076 71.8803 147.076 71.8905 147.076 71.9006C147.056 72.0019 146.965 72.0728 146.865 72.0728C146.754 72.0728 146.663 71.9715 146.673 71.8601C146.714 71.1105 146.673 70.3509 146.553 69.6114C146.11 66.826 144.609 64.3748 142.333 62.7238C140.057 61.0728 137.278 60.4043 134.499 60.8601C129.967 61.5893 126.584 65.1547 125.818 69.4595C125.617 70.594 125.597 71.7892 125.788 72.9945C126.715 78.7477 132.122 82.6777 137.842 81.756C139.725 81.4521 141.487 80.6418 142.937 79.4162C143.028 79.3453 143.149 79.3555 143.229 79.4365C143.27 79.4871 143.28 79.5479 143.27 79.6087C143.26 79.6593 143.24 79.6998 143.199 79.7302C141.689 81.0065 139.866 81.8472 137.913 82.1612C136.654 82.3334 135.425 82.3131 134.257 82.1004Z" fill="#C6C9D3"/>
<path d="M116.524 49.0193L115.195 47.4089C115.497 46.4871 115.648 45.5046 115.648 44.5019L117.39 43.3775C117.45 43.337 117.48 43.2661 117.46 43.1952L116.866 40.7643C116.846 40.6934 116.786 40.6427 116.715 40.6326L114.651 40.4402C114.198 39.5488 113.614 38.7486 112.919 38.0599L113.362 36.024C113.382 35.9531 113.342 35.8821 113.281 35.8416L111.156 34.5451C111.096 34.5046 111.015 34.5147 110.955 34.5553L109.354 35.8923C108.438 35.5884 107.461 35.4365 106.464 35.4365L105.346 33.6842C105.306 33.6234 105.235 33.593 105.165 33.6133L102.748 34.2109C102.677 34.2311 102.627 34.2919 102.617 34.3628L102.426 36.4392C101.54 36.8748 100.754 37.4623 100.069 38.1612L98.0452 37.7155C97.9747 37.6952 97.9042 37.7357 97.864 37.7965L96.5649 39.9337C96.5246 39.9945 96.5347 40.0755 96.575 40.1363L97.9042 41.7367C97.6021 42.6584 97.4511 43.6409 97.4511 44.6437L95.719 45.7781C95.6586 45.8186 95.6284 45.8895 95.6485 45.9604L96.2427 48.3914C96.2628 48.4623 96.3232 48.5129 96.3937 48.523L98.4581 48.7155C98.9112 49.6068 99.4953 50.407 100.19 51.0958L99.7471 53.1317C99.7269 53.2026 99.7672 53.2735 99.8276 53.314L101.952 54.6105C102.013 54.651 102.093 54.6409 102.154 54.6004L103.755 53.2634C104.671 53.5672 105.648 53.7192 106.645 53.7192L107.763 55.4715C107.803 55.5322 107.874 55.5626 107.944 55.5424L110.361 54.9448C110.431 54.9245 110.482 54.8637 110.492 54.7928L110.683 52.7164C111.569 52.2606 112.365 51.6731 113.05 50.9742L115.074 51.4199C115.144 51.4402 115.215 51.3996 115.255 51.3389L116.544 49.2017C116.574 49.151 116.574 49.07 116.524 49.0193Z" fill="#A8ABB2"/>
<path d="M106.131 46.9632C105.426 46.8315 104.782 46.396 104.419 45.7072C103.795 44.5221 104.248 43.0534 105.426 42.4254C106.605 41.7974 108.065 42.2532 108.689 43.4383C109.314 44.6234 108.86 46.0921 107.682 46.7201C107.189 46.9834 106.645 47.0543 106.131 46.9632ZM106.897 42.5875C106.464 42.5065 106.011 42.5774 105.608 42.7901C104.631 43.3066 104.258 44.5322 104.772 45.5147C105.286 46.4972 106.504 46.872 107.481 46.3554C107.954 46.1022 108.307 45.6768 108.458 45.1704C108.619 44.6538 108.568 44.1068 108.317 43.6308C108.065 43.1547 107.642 42.8002 107.138 42.6483C107.068 42.6179 106.987 42.6077 106.897 42.5875Z" fill="#C6C9D3"/>
<path d="M115.899 54.3269C115.859 54.3168 115.819 54.2965 115.789 54.2661C115.708 54.1851 115.708 54.0534 115.789 53.9724C115.98 53.7799 116.161 53.5875 116.342 53.3849C116.413 53.3039 116.544 53.2937 116.634 53.3646C116.715 53.4355 116.725 53.5672 116.655 53.6584C116.473 53.861 116.282 54.0737 116.081 54.2661C116.03 54.3168 115.96 54.337 115.899 54.3269Z" fill="#C6C9D3"/>
<path d="M104.631 58.0644C104.52 58.0442 104.449 57.9429 104.46 57.8315C104.48 57.7201 104.58 57.639 104.691 57.6593C105.195 57.7302 105.708 57.7808 106.222 57.791C106.333 57.791 106.423 57.8923 106.423 58.0037C106.423 58.1151 106.323 58.2063 106.212 58.2063C105.688 58.186 105.154 58.1455 104.631 58.0644ZM102.164 57.4668C102.154 57.4668 102.143 57.4668 102.133 57.4567C101.64 57.2845 101.147 57.0819 100.663 56.849C100.562 56.7983 100.522 56.6768 100.573 56.5755C100.623 56.4742 100.744 56.4337 100.844 56.4742C101.308 56.697 101.781 56.8895 102.264 57.0617C102.375 57.1022 102.425 57.2136 102.395 57.325C102.365 57.4263 102.264 57.4871 102.164 57.4668ZM108.709 58.0239C108.629 58.0138 108.558 57.9429 108.548 57.8517C108.528 57.7403 108.608 57.6289 108.719 57.6188C109.223 57.5377 109.726 57.4162 110.22 57.2744C110.33 57.244 110.441 57.3048 110.471 57.4162C110.502 57.5276 110.441 57.639 110.33 57.6694C109.827 57.8214 109.303 57.9328 108.79 58.0239C108.759 58.0239 108.729 58.0239 108.709 58.0239ZM98.5585 55.5525C98.5283 55.5423 98.4981 55.5322 98.4679 55.512C98.0449 55.198 97.6321 54.8536 97.2494 54.4889C97.1688 54.4079 97.1588 54.2762 97.2393 54.1952C97.3199 54.1142 97.4508 54.104 97.5314 54.1851C97.904 54.5396 98.2967 54.8738 98.7096 55.1777C98.8002 55.2486 98.8203 55.3702 98.7498 55.4613C98.7096 55.5423 98.629 55.5626 98.5585 55.5525ZM112.586 56.7274C112.526 56.7173 112.465 56.6768 112.435 56.616C112.385 56.5147 112.425 56.3932 112.526 56.3425C112.576 56.3121 112.636 56.2818 112.687 56.2615C113.09 56.0488 113.472 55.8158 113.855 55.5626C113.946 55.5018 114.076 55.5221 114.137 55.6234C114.197 55.7145 114.177 55.8462 114.076 55.907C113.694 56.1602 113.291 56.4033 112.878 56.6261C112.818 56.6565 112.767 56.6869 112.707 56.7173C112.677 56.7274 112.626 56.7376 112.586 56.7274ZM95.6886 52.6252C95.6382 52.6151 95.5879 52.5847 95.5576 52.5442C95.2555 52.1188 94.9635 51.663 94.7118 51.197C94.6614 51.0958 94.6916 50.9742 94.7923 50.9134C94.893 50.8628 95.0139 50.8932 95.0743 50.9945C95.326 51.4401 95.5979 51.8858 95.9 52.3011C95.9705 52.3923 95.9403 52.5239 95.8497 52.5847C95.7993 52.6252 95.7389 52.6354 95.6886 52.6252ZM93.8357 48.9687C93.7652 48.9586 93.7048 48.9079 93.6745 48.8269C93.5134 48.3204 93.3724 47.8039 93.2717 47.2873C93.2516 47.1759 93.3221 47.0645 93.4329 47.0442C93.5436 47.0239 93.6544 47.0948 93.6745 47.2063C93.7752 47.7127 93.9062 48.209 94.0673 48.6952C94.1076 48.8066 94.0471 48.918 93.9364 48.9586C93.9062 48.9788 93.8659 48.9788 93.8357 48.9687Z" fill="#C6C9D3"/>
<path d="M93.1712 44.907C93.0806 44.8868 93 44.8057 93 44.7044C93 44.431 93 44.1473 93.0201 43.8739C93.0302 43.7624 93.1208 43.6713 93.2316 43.6814C93.3424 43.6915 93.433 43.7827 93.4229 43.8941C93.4129 44.1676 93.4028 44.431 93.4028 44.7044C93.4028 44.8159 93.3122 44.907 93.2014 44.907C93.1913 44.9171 93.1813 44.9171 93.1712 44.907Z" fill="#C6C9D3"/>
<path d="M97.3502 35.0111C97.3099 35.0009 97.2697 34.9807 97.2395 34.9503C97.1589 34.8692 97.169 34.7376 97.2495 34.6565C97.4509 34.4641 97.6624 34.2818 97.8739 34.0995C97.9645 34.0285 98.0853 34.0387 98.1659 34.1298C98.2364 34.221 98.2263 34.3425 98.1357 34.4236C97.9343 34.5958 97.7329 34.7781 97.5315 34.9604C97.4811 35.0111 97.4207 35.0212 97.3502 35.0111Z" fill="#C6C9D3"/>
<path d="M119.706 42.7597C119.625 42.7496 119.555 42.6787 119.535 42.5875C119.454 42.0912 119.353 41.5847 119.222 41.0985C119.192 40.9871 119.253 40.8757 119.363 40.8453C119.474 40.8149 119.585 40.8757 119.615 40.9871C119.756 41.4936 119.857 42.0101 119.937 42.5166C119.958 42.628 119.877 42.7293 119.766 42.7496C119.756 42.7597 119.736 42.7597 119.706 42.7597ZM118.507 38.9006C118.447 38.8904 118.387 38.8499 118.356 38.7891C118.296 38.6575 118.225 38.5258 118.155 38.3941C117.984 38.0801 117.803 37.756 117.611 37.4623C117.551 37.3711 117.581 37.2394 117.672 37.1787C117.762 37.1179 117.893 37.1483 117.954 37.2394C118.155 37.5534 118.336 37.8775 118.507 38.2017C118.578 38.3333 118.648 38.465 118.709 38.6068C118.759 38.7081 118.719 38.8297 118.618 38.8803C118.598 38.9006 118.558 38.9107 118.507 38.9006ZM100.029 33.0461C99.9685 33.0359 99.9181 32.9954 99.8879 32.9448C99.8376 32.8435 99.8678 32.7219 99.9685 32.6612C100.049 32.6105 100.14 32.57 100.23 32.5194C100.603 32.3168 100.986 32.1345 101.378 31.9724C101.479 31.9319 101.6 31.9825 101.65 32.0838C101.69 32.1851 101.64 32.3066 101.539 32.3573C101.167 32.5194 100.794 32.6915 100.432 32.884C100.351 32.9245 100.261 32.9752 100.18 33.0157C100.12 33.0562 100.069 33.0562 100.029 33.0461ZM116.232 35.5783C116.191 35.5682 116.151 35.5479 116.121 35.5175C115.778 35.1529 115.406 34.7984 115.023 34.4742C114.933 34.4033 114.923 34.2717 115.003 34.1805C115.074 34.0893 115.204 34.0792 115.295 34.1602C115.688 34.4945 116.071 34.8591 116.423 35.2339C116.504 35.3149 116.493 35.4466 116.413 35.5276C116.363 35.5682 116.292 35.5884 116.232 35.5783ZM103.785 31.6381C103.704 31.628 103.634 31.5672 103.624 31.4761C103.604 31.3647 103.674 31.2532 103.785 31.233C104.289 31.1216 104.812 31.0507 105.326 31C105.437 30.9899 105.537 31.0709 105.547 31.1823C105.557 31.2938 105.477 31.395 105.366 31.4052C104.863 31.4457 104.359 31.5267 103.876 31.628C103.835 31.6381 103.815 31.6381 103.785 31.6381ZM113.07 33.0866C113.049 33.0866 113.029 33.0764 113.009 33.0663C112.576 32.8232 112.113 32.5903 111.65 32.3978C111.549 32.3573 111.499 32.2357 111.539 32.1243C111.579 32.023 111.7 31.9724 111.811 32.0129C112.284 32.2155 112.757 32.4484 113.211 32.7017C113.311 32.7523 113.342 32.884 113.291 32.9853C113.241 33.0663 113.15 33.0967 113.07 33.0866ZM107.793 31.4153C107.692 31.395 107.612 31.3039 107.622 31.1925C107.632 31.081 107.733 31 107.843 31.0101C108.196 31.0405 108.558 31.0912 108.901 31.1519C109.062 31.1823 109.223 31.2127 109.374 31.2431C109.485 31.2634 109.555 31.3748 109.535 31.4862C109.515 31.5976 109.394 31.6685 109.293 31.6483C109.142 31.6179 108.981 31.5774 108.83 31.5571C108.488 31.4963 108.145 31.4457 107.803 31.4153C107.803 31.4153 107.803 31.4153 107.793 31.4153Z" fill="#C6C9D3"/>
<path d="M119.796 46.082C119.696 46.0617 119.615 45.9705 119.625 45.8591C119.655 45.5958 119.666 45.3223 119.676 45.0488C119.676 44.9374 119.776 44.8462 119.887 44.8462C119.998 44.8462 120.088 44.9475 120.088 45.0589C120.078 45.3324 120.058 45.616 120.028 45.8895C120.018 46.0009 119.917 46.082 119.807 46.0718C119.807 46.0921 119.807 46.0921 119.796 46.082Z" fill="#C6C9D3"/>
<path d="M105.427 50.7007C103.08 50.2753 101.076 48.5028 100.472 46.0313C100.261 45.1602 100.24 44.2891 100.392 43.4687C100.814 41.1087 102.577 39.093 105.034 38.4853C108.357 37.6648 111.73 39.7311 112.536 43.0737C112.576 43.2155 112.606 43.3674 112.627 43.5193C112.667 43.7726 112.697 44.0359 112.707 44.2891C112.707 44.3195 112.707 44.36 112.707 44.3904C112.707 44.4006 112.707 44.4208 112.707 44.431C112.687 44.5221 112.606 44.593 112.516 44.6031C112.405 44.6031 112.304 44.512 112.304 44.4006C112.294 43.9853 112.234 43.57 112.143 43.1648C111.519 40.5718 109.253 38.8094 106.726 38.7182C106.242 38.698 105.749 38.7385 105.245 38.8499C105.225 38.8499 105.205 38.8601 105.185 38.8601C105.165 38.8601 105.145 38.8702 105.124 38.8702C102.818 39.4374 101.177 41.3214 100.784 43.5295C100.643 44.2993 100.663 45.1197 100.865 45.93C101.62 49.0599 104.772 50.9742 107.874 50.2146C108.891 49.9613 109.827 49.4448 110.572 48.7053C110.653 48.6243 110.784 48.6243 110.864 48.7053C110.915 48.756 110.935 48.8269 110.925 48.8877C110.915 48.9282 110.895 48.9687 110.864 48.9991C110.069 49.7891 109.072 50.3462 107.974 50.6197C107.118 50.8324 106.252 50.8527 105.427 50.7007Z" fill="#C6C9D3"/>
</g>
<defs>
<clipPath id="clip0">
<rect width="17" height="17" fill="white" transform="translate(128 190)"/>
</clipPath>
<clipPath id="clip1">
<rect width="52" height="52" fill="white" transform="translate(29 102)"/>
</clipPath>
<clipPath id="clip2">
<rect width="52" height="52" fill="white" transform="translate(255 92)"/>
</clipPath>
<clipPath id="clip3">
<rect width="69" height="66" fill="white" transform="translate(93 31)"/>
</clipPath>
</defs>
</svg>
