<svg xmlns="http://www.w3.org/2000/svg" xmlns:xlink="http://www.w3.org/1999/xlink" width="259.716" height="188.603" viewBox="0 0 259.716 188.603"><defs><style>.a,.x{fill:none;}.b{opacity:0.28;}.c{fill:#1a1a1a;}.d{fill:#383838;}.e{opacity:0.22;}.f{fill:#7697cc;}.g,.h{fill:#69a1ac;}.h{opacity:0.41;}.i{opacity:0.09;}.j{fill:#d8deed;}.k{fill:#f2f6fb;}.l{fill:#e1e5f0;}.m{fill:#f2957e;}.n{fill:#f3a28d;}.o{fill:#f6ba99;}.p{fill:#f17f60;}.q{fill:#00143a;}.r{opacity:0.33;}.s{fill:#f3f0eb;}.t{fill:#fcd588;}.u{opacity:0.34;fill:url(#a);}.v{fill:#b4cce9;}.w{fill:#edb758;}.x{stroke:#faecd4;stroke-miterlimit:10;stroke-width:0.1px;}.y{fill:#635449;}.z{clip-path:url(#b);}.aa{fill:#eab860;}.ab{opacity:0.4;}.ac{fill:#89c5cc;}</style><linearGradient id="a" x1="1.61" y1="9.137" x2="1.108" y2="8.854" gradientUnits="objectBoundingBox"><stop offset="0" stop-color="#fff"/><stop offset="0.232" stop-color="#fff" stop-opacity="0.769"/><stop offset="1" stop-color="#fff" stop-opacity="0"/></linearGradient><clipPath id="b"><path class="a" d="M82.806,242.862s-5,6.282-3.752,19.641a224.758,224.758,0,0,1,.565,27.431s8.616-3.185,12.544-.2,7.507,4.76,12.982,2.185,12.844,0,12.844,0L108,246.251Z" transform="translate(-78.855 -242.862)"/></clipPath></defs><g transform="translate(-736.293 -245.5)"><g class="b" transform="translate(752.915 254.417)"><path class="c" d="M39.9,170.333V113.762a5.847,5.847,0,0,1,3.829-5.487V45.569A19.451,19.451,0,0,1,8.867,33.724H12.9a15.417,15.417,0,0,0,30.833,0V29.062h4.031v4.662a15.417,15.417,0,0,0,30.833,0h4.03A19.451,19.451,0,0,1,47.56,45.3v62.9a5.845,5.845,0,0,1,4.03,5.557v56.571ZM69.929,12.483C69.929,5.589,74.756,0,80.71,0S91.492,5.589,91.492,12.483,86.665,24.966,80.71,24.966,69.929,19.377,69.929,12.483ZM0,12.483C0,5.589,4.827,0,10.782,0S21.563,5.589,21.563,12.483,16.736,24.966,10.782,24.966,0,19.377,0,12.483Z" transform="translate(3.628)"/><path d="M22.552,156.7a.182.182,0,0,1-.183-.183,9.137,9.137,0,0,1,9.137-9.137H53.134a9.137,9.137,0,0,1,9.137,9.137.183.183,0,0,1-.183.183ZM69.928,11.47V0h14.51V11.47a7.255,7.255,0,0,1-14.51,0ZM0,11.47V0H14.51V11.47A7.255,7.255,0,1,1,0,11.47Z" transform="translate(7.053 15.704)"/><path class="d" d="M69.928,164.551A10.672,10.672,0,0,1,80.6,153.88h7.275a10.671,10.671,0,0,1,10.67,10.671ZM0,164.551A10.671,10.671,0,0,1,10.671,153.88h7.274a10.671,10.671,0,0,1,10.671,10.671Zm42.32-11.677a7.053,7.053,0,1,1,7.053,7.047A7.051,7.051,0,0,1,42.32,152.874ZM24.05,9.319A9.137,9.137,0,0,1,14.913.183.183.183,0,0,1,15.1,0H83.248a.183.183,0,0,1,.183.183,9.137,9.137,0,0,1-9.137,9.137Z" transform="translate(98.545 177.035) rotate(180)"/></g><g class="e" transform="translate(855.234 245.5)"><path class="f" d="M14.5,14.7c-3.155,0-8.96-1.086-9.477-4.293h-3.5A1.533,1.533,0,0,1,.382,7.859l3.54-4.054a12.691,12.691,0,0,1,1.913.017C6.849,1.935,8.821.388,12.493.056c4.471-.405,6.2,1.445,6.973,3.981a13.2,13.2,0,0,1,1.783-.227L26.316,8.43a1.535,1.535,0,0,1-.709,2.635l-5.2,1.093c-.346,2.366-2.43,2.543-4.7,2.543C15.3,14.7,14.9,14.7,14.5,14.7Z" transform="translate(26.435 10.107)"/><path class="f" d="M23.428,29.529c-.557,0-1.122-.008-1.683-.008-4.43,0-12.608-1.547-13.229-6.125h-6.3a1.533,1.533,0,0,1-1.151-2.531L6.9,14.035a17.013,17.013,0,0,1,2.866.045c1.44-2.572,4.181-4.662,9.191-5.119,6.155-.562,8.58,1.963,9.681,5.453a17.675,17.675,0,0,1,2.75-.379l7.947,7.35a1.535,1.535,0,0,1-.713,2.627L30,25.848c-.434,3.427-3.368,3.681-6.568,3.681ZM8.03,8.879c-1.9,0-5.4-.655-5.722-2.589H1.522A1.533,1.533,0,0,1,.374,3.755L1.658,2.263a7.51,7.51,0,0,1,1.161.011,4.651,4.651,0,0,1,4-2.241C9.51-.21,10.556.9,11.027,2.419a7.78,7.78,0,0,1,1.15-.154l2.179,2A1.535,1.535,0,0,1,13.646,6.9L11.6,7.327c-.2,1.447-1.464,1.554-2.842,1.554C8.518,8.882,8.273,8.879,8.03,8.879Z" transform="translate(7.917 4.186)"/></g><g transform="translate(736.293 343.423)"><path class="g" d="M44.766,60.307a10.85,10.85,0,0,1-.232,1.392A4.157,4.157,0,0,0,44.766,60.307ZM42.254,49.4a26.744,26.744,0,0,0-5.492-7.529c.443-1.61,4.753-4.125,2.028-5.457-1.447-.7-2.819.662-3.055,2.044a5.794,5.794,0,0,0,.611,3.006q-1.045-1-2.159-1.936c-1.024-.859-2.071-1.69-3.126-2.51,1.582-1.65,2.922-6.2.653-6.814-3.35-.9-1.445,5.108-1.155,6.238a.179.179,0,0,0,.151-.066c-.013.106-.029.219-.049.333-2.019-1.56-4.065-3.086-6.051-4.688a8.7,8.7,0,0,0,.611-.9A9.761,9.761,0,0,0,26.4,29.2c.476-1.1.9-2.832-.544-3.388-1.57-.606-2.2,1.363-2.148,2.516a15.309,15.309,0,0,0,.445,2.317c.048.242-.03,1.346.277.857a2.353,2.353,0,0,0,.01.39q-.535-.434-1.063-.877a.412.412,0,0,0,.023-.134.4.4,0,0,0-.59-.345q-.7-.6-1.379-1.213c-.961-.873-1.937-1.772-2.908-2.691.191-.182.1-.415.276-.607s.539-.311.749-.491A5.305,5.305,0,0,0,20.8,23.809c.493-1.034,1.087-3.181-.532-3.577-1.669-.409-2.4,1.666-2.436,2.941a32.442,32.442,0,0,0,.476,3.251c-1.8-1.709-3.568-3.486-5.184-5.3a5.9,5.9,0,0,0,1.964-1.31c.61-.661,1.56-2.1.394-2.774-1.036-.6-2.223.409-2.6,1.347a12.879,12.879,0,0,0-.224,2.2c-.67-.772-1.311-1.55-1.911-2.333q-.6-.781-1.131-1.606a.75.75,0,0,0,.21-.229c1.657-.371,3.652-3.092,1.641-3.9-.958-.383-1.925.561-2.345,1.315a9.726,9.726,0,0,0-.291,1.511,31.344,31.344,0,0,1-2.5-5.78A.366.366,0,0,0,6.6,9.212,4.986,4.986,0,0,0,8.525,7.368c.323-.571.891-1.867-.159-2.12C7,4.92,6.26,7.02,6.2,8.038c-.007.118.012.46.033.773a.452.452,0,0,0-.14.01c-.375-1.244-.689-2.508-.952-3.776.722-.275.647-4.14.129-4.664C4.115-.791,3.437,1.026,3.544,1.962A6.208,6.208,0,0,0,4.87,4.91c.069.091.051.088.06-.045A.265.265,0,0,0,5,5.01a16.8,16.8,0,0,0,.027,1.7A39.321,39.321,0,0,0,5.765,11.1q.119.527.264,1.044a8.577,8.577,0,0,0-1.755-1c-.828-.32-2.094-.646-2.865.01a1.353,1.353,0,0,0-.048,2.026,3.286,3.286,0,0,0,2.748.485c.4-.053,2.523-.336,2-.658a1.724,1.724,0,0,1,.212.088q.084.253.174.5c-.012.008-.022.016-.035.024.014-.007.024-.015.037-.022a19.608,19.608,0,0,0,2.452,4.7,4.611,4.611,0,0,0-1.12-.237c-1.121-.082-3.417.905-2.094,2.322,1.268,1.358,3.047-.263,4.391-.545a63.452,63.452,0,0,0,4.559,5.067.361.361,0,0,0-.212.2,8.915,8.915,0,0,0-1.854-.776c-.823-.13-2.5-.147-3.073.614-.71.935.139,1.62,1.042,1.745,1.309.181,2.972-.541,4.2-1.034a.412.412,0,0,0,.385-.151l.081-.031c1.626,1.61,3.309,3.162,4.98,4.678h-.052a4.314,4.314,0,0,0-1.371-.541,3.661,3.661,0,0,0-3.3.707,2.116,2.116,0,0,0-.125,3.121c1.958,1.705,4.489-2.55,5.42-2.771,1.7,1.524,3.481,2.937,5.29,4.318a3.086,3.086,0,0,0-.614-.092c-1.707-.073-5.585,2.218-3.393,4.157,1.91,1.69,3.832-1.856,5.233-3.135,1.7,1.287,3.417,2.563,5.086,3.9a4.647,4.647,0,0,0-2.642.155c-.95.343-2.469,1.153-1.79,2.424.69,1.293,2.528.592,3.48.12a26.42,26.42,0,0,1,2.462-1.463,32.075,32.075,0,0,1,6.847,7.831,28.06,28.06,0,0,1,2.712,6.039,18.257,18.257,0,0,1,1.2,5.384C45.153,56.717,43.721,52.511,42.254,49.4ZM4.871,6.9c-.142,0-.676-1.442-.843-1.655a4.807,4.807,0,0,0-1.9-1.379C.958,3.365-.526,4.1.185,5.559c.568,1.165,2.106,1.4,3.439,1.4C4.08,6.958,4.511,6.931,4.871,6.9Z" transform="translate(11.475 12.057) rotate(3)"/><path class="h" d="M44.766,60.307a10.85,10.85,0,0,1-.232,1.392A4.157,4.157,0,0,0,44.766,60.307ZM42.254,49.4a26.744,26.744,0,0,0-5.492-7.529c.443-1.61,4.753-4.125,2.028-5.457-1.447-.7-2.819.662-3.055,2.044a5.794,5.794,0,0,0,.611,3.006q-1.045-1-2.159-1.936c-1.024-.859-2.071-1.69-3.126-2.51,1.582-1.65,2.922-6.2.653-6.814-3.35-.9-1.445,5.108-1.155,6.238a.179.179,0,0,0,.151-.066c-.013.106-.029.219-.049.333-2.019-1.56-4.065-3.086-6.051-4.688a8.7,8.7,0,0,0,.611-.9A9.761,9.761,0,0,0,26.4,29.2c.476-1.1.9-2.832-.544-3.388-1.57-.606-2.2,1.363-2.148,2.516a15.309,15.309,0,0,0,.445,2.317c.048.242-.03,1.346.277.857a2.353,2.353,0,0,0,.01.39q-.535-.434-1.063-.877a.412.412,0,0,0,.023-.134.4.4,0,0,0-.59-.345q-.7-.6-1.379-1.213c-.961-.873-1.937-1.772-2.908-2.691.191-.182.1-.415.276-.607s.539-.311.749-.491A5.305,5.305,0,0,0,20.8,23.809c.493-1.034,1.087-3.181-.532-3.577-1.669-.409-2.4,1.666-2.436,2.941a32.442,32.442,0,0,0,.476,3.251c-1.8-1.709-3.568-3.486-5.184-5.3a5.9,5.9,0,0,0,1.964-1.31c.61-.661,1.56-2.1.394-2.774-1.036-.6-2.223.409-2.6,1.347a12.879,12.879,0,0,0-.224,2.2c-.67-.772-1.311-1.55-1.911-2.333q-.6-.781-1.131-1.606a.75.75,0,0,0,.21-.229c1.657-.371,3.652-3.092,1.641-3.9-.958-.383-1.925.561-2.345,1.315a9.726,9.726,0,0,0-.291,1.511,31.344,31.344,0,0,1-2.5-5.78A.366.366,0,0,0,6.6,9.212,4.986,4.986,0,0,0,8.525,7.368c.323-.571.891-1.867-.159-2.12C7,4.92,6.26,7.02,6.2,8.038c-.007.118.012.46.033.773a.452.452,0,0,0-.14.01c-.375-1.244-.689-2.508-.952-3.776.722-.275.647-4.14.129-4.664C4.115-.791,3.437,1.026,3.544,1.962A6.208,6.208,0,0,0,4.87,4.91c.069.091.051.088.06-.045A.265.265,0,0,0,5,5.01a16.8,16.8,0,0,0,.027,1.7A39.321,39.321,0,0,0,5.765,11.1q.119.527.264,1.044a8.577,8.577,0,0,0-1.755-1c-.828-.32-2.094-.646-2.865.01a1.353,1.353,0,0,0-.048,2.026,3.286,3.286,0,0,0,2.748.485c.4-.053,2.523-.336,2-.658a1.724,1.724,0,0,1,.212.088q.084.253.174.5c-.012.008-.022.016-.035.024.014-.007.024-.015.037-.022a19.608,19.608,0,0,0,2.452,4.7,4.611,4.611,0,0,0-1.12-.237c-1.121-.082-3.417.905-2.094,2.322,1.268,1.358,3.047-.263,4.391-.545a63.452,63.452,0,0,0,4.559,5.067.361.361,0,0,0-.212.2,8.915,8.915,0,0,0-1.854-.776c-.823-.13-2.5-.147-3.073.614-.71.935.139,1.62,1.042,1.745,1.309.181,2.972-.541,4.2-1.034a.412.412,0,0,0,.385-.151l.081-.031c1.626,1.61,3.309,3.162,4.98,4.678h-.052a4.314,4.314,0,0,0-1.371-.541,3.661,3.661,0,0,0-3.3.707,2.116,2.116,0,0,0-.125,3.121c1.958,1.705,4.489-2.55,5.42-2.771,1.7,1.524,3.481,2.937,5.29,4.318a3.086,3.086,0,0,0-.614-.092c-1.707-.073-5.585,2.218-3.393,4.157,1.91,1.69,3.832-1.856,5.233-3.135,1.7,1.287,3.417,2.563,5.086,3.9a4.647,4.647,0,0,0-2.642.155c-.95.343-2.469,1.153-1.79,2.424.69,1.293,2.528.592,3.48.12a26.42,26.42,0,0,1,2.462-1.463,32.075,32.075,0,0,1,6.847,7.831,28.06,28.06,0,0,1,2.712,6.039,18.257,18.257,0,0,1,1.2,5.384C45.153,56.717,43.721,52.511,42.254,49.4ZM4.871,6.9c-.142,0-.676-1.442-.843-1.655a4.807,4.807,0,0,0-1.9-1.379C.958,3.365-.526,4.1.185,5.559c.568,1.165,2.106,1.4,3.439,1.4C4.08,6.958,4.511,6.931,4.871,6.9Z" transform="matrix(0.985, -0.174, 0.174, 0.985, 0, 24.159)"/><path class="h" d="M44.766,1.392A10.85,10.85,0,0,0,44.534,0,4.157,4.157,0,0,1,44.766,1.392ZM42.254,12.3a26.745,26.745,0,0,1-5.492,7.529c.443,1.61,4.753,4.125,2.028,5.457-1.447.7-2.819-.662-3.055-2.044a5.794,5.794,0,0,1,.611-3.006q-1.045,1-2.159,1.936c-1.024.859-2.071,1.69-3.126,2.51,1.582,1.65,2.922,6.2.653,6.814-3.35.9-1.445-5.108-1.155-6.238a.179.179,0,0,1,.151.066c-.013-.106-.029-.219-.049-.333-2.019,1.56-4.065,3.086-6.051,4.688a8.7,8.7,0,0,1,.611.9A9.761,9.761,0,0,1,26.4,32.5c.476,1.1.9,2.832-.544,3.388-1.57.606-2.2-1.363-2.148-2.516a15.309,15.309,0,0,1,.445-2.317c.048-.242-.03-1.346.277-.857a2.353,2.353,0,0,1,.01-.39q-.535.434-1.063.877a.412.412,0,0,1,.023.134.4.4,0,0,1-.59.345q-.7.6-1.379,1.213c-.961.873-1.937,1.772-2.908,2.691.191.182.1.415.276.607s.539.311.749.491A5.305,5.305,0,0,1,20.8,37.89c.493,1.034,1.087,3.181-.532,3.577-1.669.409-2.4-1.666-2.436-2.941a32.442,32.442,0,0,1,.476-3.251c-1.8,1.709-3.568,3.486-5.184,5.3a5.9,5.9,0,0,1,1.964,1.31c.61.661,1.56,2.1.394,2.774-1.036.6-2.223-.409-2.6-1.347a12.879,12.879,0,0,1-.224-2.2c-.67.772-1.311,1.55-1.911,2.333q-.6.781-1.131,1.606a.75.75,0,0,1,.21.229c1.657.371,3.652,3.092,1.641,3.9-.958.383-1.925-.561-2.345-1.315a9.726,9.726,0,0,1-.291-1.511,31.344,31.344,0,0,0-2.5,5.78.366.366,0,0,1,.267.354,4.986,4.986,0,0,1,1.928,1.844c.323.571.891,1.867-.159,2.12C7,56.779,6.26,54.679,6.2,53.66c-.007-.118.012-.46.033-.773a.452.452,0,0,1-.14-.01c-.375,1.244-.689,2.508-.952,3.776.723.275.647,4.14.129,4.664-1.158,1.173-1.836-.645-1.728-1.581A6.208,6.208,0,0,1,4.87,56.788c.069-.091.051-.088.06.045A.265.265,0,0,1,5,56.689a16.8,16.8,0,0,1,.027-1.7A39.321,39.321,0,0,1,5.765,50.6q.119-.527.264-1.044a8.577,8.577,0,0,1-1.755,1c-.828.32-2.094.646-2.865-.01a1.353,1.353,0,0,1-.048-2.026,3.286,3.286,0,0,1,2.748-.485c.4.053,2.523.336,2,.658a1.725,1.725,0,0,0,.212-.088q.084-.253.174-.5c-.012-.008-.022-.016-.035-.024.014.007.024.015.037.022a19.608,19.608,0,0,1,2.452-4.7,4.611,4.611,0,0,1-1.12.237c-1.121.082-3.417-.905-2.094-2.322,1.268-1.358,3.047.263,4.391.545a63.452,63.452,0,0,1,4.559-5.067.361.361,0,0,1-.212-.2,8.915,8.915,0,0,1-1.854.776c-.823.13-2.5.147-3.073-.614-.71-.935.139-1.62,1.042-1.745,1.309-.181,2.972.541,4.2,1.034a.412.412,0,0,1,.385.151l.081.031c1.626-1.61,3.309-3.162,4.98-4.678h-.052a4.314,4.314,0,0,1-1.371.541,3.661,3.661,0,0,1-3.3-.707,2.116,2.116,0,0,1-.125-3.121c1.958-1.705,4.489,2.55,5.42,2.771,1.7-1.524,3.481-2.937,5.29-4.318a3.086,3.086,0,0,1-.614.092c-1.707.073-5.585-2.218-3.393-4.157,1.91-1.69,3.832,1.856,5.233,3.135,1.7-1.287,3.417-2.563,5.086-3.9a4.647,4.647,0,0,1-2.642-.155c-.95-.343-2.469-1.153-1.79-2.424.69-1.293,2.528-.592,3.48-.12a26.42,26.42,0,0,0,2.462,1.463,32.076,32.076,0,0,0,6.847-7.831,28.06,28.06,0,0,0,2.712-6.039,18.257,18.257,0,0,0,1.2-5.384C45.153,4.982,43.722,9.187,42.254,12.3ZM4.871,54.795c-.142,0-.676,1.442-.843,1.655a4.807,4.807,0,0,1-1.9,1.379c-1.168.5-2.652-.229-1.94-1.689.568-1.165,2.106-1.4,3.439-1.4C4.08,54.74,4.511,54.768,4.871,54.795Z" transform="matrix(-0.766, 0.643, -0.643, -0.766, 90.847, 47.264)"/><path class="h" d="M44.766,1.392A10.85,10.85,0,0,0,44.534,0,4.157,4.157,0,0,1,44.766,1.392ZM42.254,12.3a26.745,26.745,0,0,1-5.492,7.529c.443,1.61,4.753,4.125,2.028,5.457-1.447.7-2.819-.662-3.055-2.044a5.794,5.794,0,0,1,.611-3.006q-1.045,1-2.159,1.936c-1.024.859-2.071,1.69-3.126,2.51,1.582,1.65,2.922,6.2.653,6.814-3.35.9-1.445-5.108-1.155-6.238a.179.179,0,0,1,.151.066c-.013-.106-.029-.219-.049-.333-2.019,1.56-4.065,3.086-6.051,4.688a8.7,8.7,0,0,1,.611.9A9.761,9.761,0,0,1,26.4,32.5c.476,1.1.9,2.832-.544,3.388-1.57.606-2.2-1.363-2.148-2.516a15.309,15.309,0,0,1,.445-2.317c.048-.242-.03-1.346.277-.857a2.353,2.353,0,0,1,.01-.39q-.535.434-1.063.877a.412.412,0,0,1,.023.134.4.4,0,0,1-.59.345q-.7.6-1.379,1.213c-.961.873-1.937,1.772-2.908,2.691.191.182.1.415.276.607s.539.311.749.491A5.305,5.305,0,0,1,20.8,37.89c.493,1.034,1.087,3.181-.532,3.577-1.669.409-2.4-1.666-2.436-2.941a32.442,32.442,0,0,1,.476-3.251c-1.8,1.709-3.568,3.486-5.184,5.3a5.9,5.9,0,0,1,1.964,1.31c.61.661,1.56,2.1.394,2.774-1.036.6-2.223-.409-2.6-1.347a12.879,12.879,0,0,1-.224-2.2c-.67.772-1.311,1.55-1.911,2.333q-.6.781-1.131,1.606a.75.75,0,0,1,.21.229c1.657.371,3.652,3.092,1.641,3.9-.958.383-1.925-.561-2.345-1.315a9.726,9.726,0,0,1-.291-1.511,31.344,31.344,0,0,0-2.5,5.78.366.366,0,0,1,.267.354,4.986,4.986,0,0,1,1.928,1.844c.323.571.891,1.867-.159,2.12C7,56.779,6.26,54.679,6.2,53.66c-.007-.118.012-.46.033-.773a.452.452,0,0,1-.14-.01c-.375,1.244-.689,2.508-.952,3.776.723.275.647,4.14.129,4.664-1.158,1.173-1.836-.645-1.728-1.581A6.208,6.208,0,0,1,4.87,56.788c.069-.091.051-.088.06.045A.265.265,0,0,1,5,56.689a16.8,16.8,0,0,1,.027-1.7A39.321,39.321,0,0,1,5.765,50.6q.119-.527.264-1.044a8.577,8.577,0,0,1-1.755,1c-.828.32-2.094.646-2.865-.01a1.353,1.353,0,0,1-.048-2.026,3.286,3.286,0,0,1,2.748-.485c.4.053,2.523.336,2,.658a1.725,1.725,0,0,0,.212-.088q.084-.253.174-.5c-.012-.008-.022-.016-.035-.024.014.007.024.015.037.022a19.608,19.608,0,0,1,2.452-4.7,4.611,4.611,0,0,1-1.12.237c-1.121.082-3.417-.905-2.094-2.322,1.268-1.358,3.047.263,4.391.545a63.452,63.452,0,0,1,4.559-5.067.361.361,0,0,1-.212-.2,8.915,8.915,0,0,1-1.854.776c-.823.13-2.5.147-3.073-.614-.71-.935.139-1.62,1.042-1.745,1.309-.181,2.972.541,4.2,1.034a.412.412,0,0,1,.385.151l.081.031c1.626-1.61,3.309-3.162,4.98-4.678h-.052a4.314,4.314,0,0,1-1.371.541,3.661,3.661,0,0,1-3.3-.707,2.116,2.116,0,0,1-.125-3.121c1.958-1.705,4.489,2.55,5.42,2.771,1.7-1.524,3.481-2.937,5.29-4.318a3.086,3.086,0,0,1-.614.092c-1.707.073-5.585-2.218-3.393-4.157,1.91-1.69,3.832,1.856,5.233,3.135,1.7-1.287,3.417-2.563,5.086-3.9a4.647,4.647,0,0,1-2.642-.155c-.95-.343-2.469-1.153-1.79-2.424.69-1.293,2.528-.592,3.48-.12a26.42,26.42,0,0,0,2.462,1.463,32.076,32.076,0,0,0,6.847-7.831,28.06,28.06,0,0,0,2.712-6.039,18.257,18.257,0,0,0,1.2-5.384C45.153,4.982,43.722,9.187,42.254,12.3ZM4.871,54.795c-.142,0-.676,1.442-.843,1.655a4.807,4.807,0,0,1-1.9,1.379c-1.168.5-2.652-.229-1.94-1.689.568-1.165,2.106-1.4,3.439-1.4C4.08,54.74,4.511,54.768,4.871,54.795Z" transform="translate(77.177 33.079) rotate(113)"/></g><g transform="translate(820.207 326.881)"><g class="i"><path class="j" d="M0,5,4.1.845A2.841,2.841,0,0,1,6.124,0H144.365A2.841,2.841,0,0,1,146.4.856l4.082,4.179Z" transform="translate(0 45.698)"/><path class="k" d="M3.13,56.534a3.13,3.13,0,1,1,0-6.26H147.349a3.13,3.13,0,1,1,0,6.26ZM142.717,42.8,7.779,42.765A2.843,2.843,0,0,1,4.937,39.92V37.032A2.844,2.844,0,0,1,7.78,34.187H142.718a2.844,2.844,0,0,1,2.843,2.846v2.925a2.845,2.845,0,0,1-2.843,2.846Zm0-11.383L7.779,31.383a2.844,2.844,0,0,1-2.841-2.846V25.649A2.844,2.844,0,0,1,7.78,22.8H142.718a2.844,2.844,0,0,1,2.843,2.846v2.925a2.845,2.845,0,0,1-2.843,2.846Zm0-11.382L7.779,20a2.843,2.843,0,0,1-2.841-2.846V14.267A2.844,2.844,0,0,1,7.78,11.421H142.718a2.844,2.844,0,0,1,2.843,2.846v2.925a2.846,2.846,0,0,1-2.843,2.846Zm0-11.421L7.779,8.58A2.844,2.844,0,0,1,4.937,5.734V2.846A2.844,2.844,0,0,1,7.78,0H142.718a2.844,2.844,0,0,1,2.843,2.846V5.771a2.844,2.844,0,0,1-2.843,2.846Z" transform="translate(0)"/><path class="l" d="M124.355,37.753a2.843,2.843,0,0,1-2.82-2.484L117.021,0h9.666l4.422,34.545a2.845,2.845,0,0,1-2.82,3.207Zm-121.512,0a2.845,2.845,0,0,1-2.82-3.207L4.446,0h9.666L9.6,35.269a2.844,2.844,0,0,1-2.82,2.484Z" transform="translate(9.674 56.534)"/></g></g><g transform="translate(900.354 268.875)"><g transform="translate(0 0)"><g transform="translate(32.462 32.146)"><path class="m" d="M132.772,228.168l1.214-1.4a15.789,15.789,0,0,0,2.087-2.308,4.564,4.564,0,0,0,.716-1.365,6.964,6.964,0,0,0,.407-1.878.6.6,0,0,1,1.026-.471c.329.425.412,2.055-.337,3.808s1.906.358,2.883-.133,4.071-1.866,4.46-1.686c.571.266.392.926-.6,1.393s-3.85,2.077-3.566,2.582,5.221-2.07,5.221-2.07.967-.719,1.315-.148c.627,1.03-4.826,3.371-5.35,3.581-.365.146-.075.7.308.526s4.868-2.674,5.516-1.631c.5.8-4.467,1.967-5.108,3s3.675-1.268,4.119-.485c.165.291.248.532-2.421,1.5-2.734.986-10.575,2.454-10.575,2.454l-1.274-5.369" transform="translate(-100.506 -215.457)"/><path class="m" d="M110.286,215.4s4.478,12.9,5.852,13.026c9.416.859,19.655-3.215,19.655-3.215l2.577,7.26S111.7,244.4,105.951,232.9c-6.1-12.2-5.8-14.113-5.8-14.113Z" transform="translate(-100.151 -215.401)"/></g><path class="n" d="M109.339,288.929c-4.773,21.938-36.218,42.346-36.218,42.346l-5.352-6.566s25.269-22.536,26.346-32.559-7.307-25.733-7.307-25.733l8.689-3.7Z" transform="translate(-67.337 -183.77)"/><path class="o" d="M98.957,208.13a36.784,36.784,0,0,1,.212-4.689,4.123,4.123,0,0,0,3.668-3.8c.21-3.429,0-11.337,0-11.337l-6.3-3.079-6.928,5.249,1.049,17.145Z" transform="translate(-67.574 -182.927)"/><path class="p" d="M90.029,193.1s5.656-.533,6.656-5.667l6.137,5.667a6.62,6.62,0,0,0-1.538-7.333c-3.4-3.532-5.733-2.8-7.066-2.8a10.969,10.969,0,0,0-9.4,8.484c-.136.519-.248,1.8-.333,2.385Z" transform="translate(-67.519 -182.901)"/><g transform="translate(33.211 10.136)"><path class="q" d="M102.223,194.165a.439.439,0,1,1-.438-.439A.439.439,0,0,1,102.223,194.165Z" transform="translate(-100.914 -193.155)"/><path class="q" d="M102.644,193.68c-.056.057-.381-.219-.854-.244s-.827.2-.876.139c-.024-.029.035-.134.19-.24a1.168,1.168,0,0,1,1.381.085C102.626,193.545,102.672,193.655,102.644,193.68Z" transform="translate(-100.909 -193.149)"/></g><g transform="translate(27.973 10.136)"><path class="q" d="M97.081,194.165a.439.439,0,1,1-.438-.439A.439.439,0,0,1,97.081,194.165Z" transform="translate(-95.619 -193.155)"/><path class="q" d="M97.348,193.68c-.056.057-.381-.219-.853-.244s-.828.2-.877.139c-.024-.029.035-.134.19-.24a1.167,1.167,0,0,1,1.381.085C97.33,193.545,97.376,193.655,97.348,193.68Z" transform="translate(-95.613 -193.149)"/></g><g transform="translate(31.331 10.537)"><path class="q" d="M99.089,197.676a3.2,3.2,0,0,1,.773-.1c.121-.007.239-.024.264-.113a.663.663,0,0,0-.067-.382c-.1-.31-.21-.637-.323-.979-.225-.7-.418-1.33-.548-1.792a3.19,3.19,0,0,1-.175-.76,3.17,3.17,0,0,1,.3.718c.163.451.377,1.079.6,1.775q.163.516.31.984a.759.759,0,0,1,.047.494.3.3,0,0,1-.2.17.767.767,0,0,1-.2.018A3.176,3.176,0,0,1,99.089,197.676Z" transform="translate(-99.008 -193.554)"/></g><g class="r" transform="translate(26.443 14.167)"><path class="m" d="M96.767,197.949c-.012.392-.613.672-1.342.688s-1.337-.238-1.359-.629.579-.768,1.342-.783S96.78,197.56,96.767,197.949Z" transform="translate(-94.065 -197.224)"/></g><path class="s" d="M97.512,198.172a9.105,9.105,0,0,0,2.284.786,1.308,1.308,0,0,1-1.566.445C97.221,198.978,97.512,198.172,97.512,198.172Z" transform="translate(-67.66 -183.067)"/><path class="m" d="M99.171,203.624a8.557,8.557,0,0,1-4.543-1.535,4.427,4.427,0,0,0,4.469,2.377Z" transform="translate(-67.629 -183.11)"/><path class="t" d="M107.933,247.81c.238,5.712.448,10.189.448,10.189L81.4,256.976s-1.736-10.993,2.7-17.123c2.038-2.814,1.582-6.764.745-10.136l-2.863-11.543L85.8,207.33l15.326,1.041s8.875-.882,11.979,10.841l-5.7,8.565-.07,3.224Z" transform="translate(-67.481 -183.167)"/><path class="o" d="M82.136,244.317c-.269.014-3.243,8.77-.4,14.587.286.586,1.277,1.892,2.516,3.8,5.887,9.035,19.361,30.312,19.805,33.423.538,3.765,11.417,43.419,11.417,43.419l8.093-1.282-6.6-44.968-9.832-42.653Z" transform="translate(-67.475 -183.57)"/><path class="p" d="M96.648,187.063s1.256,2.428.719,4.256l5.5,1.419S104.119,185.769,96.648,187.063Z" transform="translate(-67.651 -182.945)"/><path class="p" d="M84.485,193.419s-.689,7.888,5.988,9.316l-.444-9.525Z" transform="translate(-67.518 -183.013)"/><g transform="translate(31.657 18.037)"><path class="u" d="M99.337,227.612l19.988-26.475,37.418,16.937-15.132,14.4-17.061,2.807Z" transform="translate(-99.337 -201.137)"/><path class="v" d="M109.967,230.465l13.663,5.762,22.345.483,10.885-18.467-23-1.538L123.9,234.557l-13.851-5.377Z" transform="translate(-99.453 -201.307)"/></g><path class="t" d="M85.851,207.33" transform="translate(-67.534 -183.167)"/><path class="o" d="M115.861,240.538s-28.212,7.587-32.073-4.674c-4.1-13.009-4.161-9.609-4.161-9.609l8.841-8.531s4.751,14.992,6.086,15.333c7.4,1.887,15.836.683,18.808.149.335-.274.726-.611,1.161-1.022a4.539,4.539,0,0,0,.923-1.235,6.989,6.989,0,0,0,.7-1.79.6.6,0,0,1,1.087-.3c.257.473.083,2.095-.936,3.707,0,0,6.716,4.32,7.261,5.363Z" transform="translate(-67.466 -183.28)"/><path class="t" d="M85.777,207.33s-6.442,1.228-6.708,11.371a39.621,39.621,0,0,0,3.846,17.886l10.934-5.709-7.4-23.548" transform="translate(-67.46 -183.167)"/><path class="t" d="M112.4,216.906l3.818,9.355-8.592,4.287-.8-8.2Z" transform="translate(-67.762 -183.271)"/><g transform="translate(22.55 32.374)"><path class="w" d="M90.356,219.39a5.158,5.158,0,0,1,.306-3.758,72.964,72.964,0,0,1-.306,3.758Z" transform="translate(-90.13 -215.631)"/></g><g transform="translate(21.958 32.95)"><path class="w" d="M93.917,230.994a10.78,10.78,0,0,1-1.065-2.009,39.662,39.662,0,0,1-3.1-10.506,10.64,10.64,0,0,1-.2-2.265,18.014,18.014,0,0,1,.463,2.22c.267,1.372.686,3.255,1.288,5.3s1.278,3.851,1.8,5.147A17.665,17.665,0,0,1,93.917,230.994Z" transform="translate(-89.531 -216.214)"/></g><g transform="translate(15.347 47.769)"><path class="w" d="M93.857,231.2a9.926,9.926,0,0,1-1.633.813c-1.021.472-2.422,1.135-3.941,1.927s-2.864,1.565-3.833,2.132a10.11,10.11,0,0,1-1.6.876,7.675,7.675,0,0,1,1.459-1.1,42.732,42.732,0,0,1,7.809-4.077A7.712,7.712,0,0,1,93.857,231.2Z" transform="translate(-82.848 -231.195)"/></g><g transform="translate(14.942 47.032)"><path class="w" d="M93.39,230.459a9.939,9.939,0,0,1-1.646.7c-1.025.407-2.429.987-3.94,1.717s-2.838,1.474-3.791,2.026a9.792,9.792,0,0,1-1.574.855,7.312,7.312,0,0,1,1.431-1.083,33.007,33.007,0,0,1,7.781-3.767A7.274,7.274,0,0,1,93.39,230.459Z" transform="translate(-82.438 -230.451)"/></g><path class="w" d="M88.414,207.485l1.464-1.725,6.241,1.553-.764,1.869Z" transform="translate(-67.561 -183.15)"/><path class="o" d="M95.432,209.2l2.5,4.787.057-4.787-.242-1.493h-1.7l-.61,1.493" transform="translate(-67.638 -183.171)"/><path class="w" d="M98.011,209.192l-.35-1.869,1.543-.634,1.772,1.652Z" transform="translate(-67.662 -183.16)"/><g transform="translate(41.336 43.689)"><path class="x" d="M109.123,227.071" transform="translate(-109.123 -227.071)"/></g><g transform="translate(38.691 33.635)"><path class="w" d="M107.665,230.691a.874.874,0,0,1-.121-.627,2.842,2.842,0,0,1,.755-1.563,4.636,4.636,0,0,0,1.3-2.023,2.578,2.578,0,0,0-.1-1.37,2.436,2.436,0,0,0-.885-1.162,2.554,2.554,0,0,0-1.288-.47l-.151-.01-.022-.152c-.259-1.8-.57-3.4-.656-4.554a5.266,5.266,0,0,1,.031-1.855c.051,0,.037.692.212,1.827.151,1.138.5,2.7.784,4.533l-.174-.162a2.885,2.885,0,0,1,1.486.533,2.775,2.775,0,0,1,1.016,1.348,2.888,2.888,0,0,1,.089,1.567,2.943,2.943,0,0,1-.638,1.26c-.278.335-.565.606-.8.867a2.928,2.928,0,0,0-.811,1.4A5.155,5.155,0,0,0,107.665,230.691Z" transform="translate(-106.449 -216.906)"/></g><g transform="translate(38.975 35.025)"><path class="w" d="M107.658,218.32c.085.067-.149.493-.373,1.033s-.369,1-.477.989-.126-.544.126-1.137S107.581,218.254,107.658,218.32Z" transform="translate(-106.736 -218.312)"/></g><g transform="translate(39.717 43.011)"><path class="w" d="M116.509,226.392a26.11,26.11,0,0,1-4.391,2.328,26.045,26.045,0,0,1-4.631,1.807,43.526,43.526,0,0,1,4.472-2.153A43.406,43.406,0,0,1,116.509,226.392Z" transform="translate(-107.486 -226.385)"/></g><g transform="translate(40.198 41.654)"><path class="w" d="M115.991,225.02a27.3,27.3,0,0,1-3.919,2.294,27.138,27.138,0,0,1-4.1,1.958,27.116,27.116,0,0,1,3.92-2.295A27.149,27.149,0,0,1,115.991,225.02Z" transform="translate(-107.972 -225.013)"/></g><g transform="translate(34.32 35.198)"><path class="w" d="M104.395,218.62c.006.1-.518.221-1.171.259s-1.188-.016-1.194-.121.518-.221,1.171-.259S104.389,218.514,104.395,218.62Z" transform="translate(-102.03 -218.486)"/></g><g transform="translate(34.163 35.693)"><path class="w" d="M104.618,219.033c.026.1-.569.338-1.326.528s-1.394.261-1.419.159.569-.338,1.326-.528S104.592,218.932,104.618,219.033Z" transform="translate(-101.871 -218.987)"/></g><g transform="translate(45.585 149.538)"><path class="y" d="M124.713,339.294s7.116,1.9,5.344,2.438-14.121-.793-14.121-.793l-.41-1.4Z" transform="translate(-113.442 -334.141)"/><path class="y" d="M115.914,340.883l-2.495-6.8h10.912l.359,5.152Z" transform="translate(-113.419 -334.084)"/></g><g transform="translate(0 135.633)"><path class="y" d="M73.037,332.429s1.8,7.144.467,5.857-6.172-12.724-6.172-12.724l1.028-1.041Z" transform="translate(-67.332 -320.076)"/><path class="y" d="M67.332,325.512l4.727-5.486,5.3,9.535-4.327,2.819Z" transform="translate(-67.332 -320.027)"/></g><g transform="translate(11.398 59.308)"><g class="z"><path class="aa" d="M82.806,242.862s-5,6.282-3.752,19.641a224.758,224.758,0,0,1,.565,27.431s8.616-3.185,12.544-.2,7.507,4.76,12.982,2.185,12.844,0,12.844,0L108,246.251Z" transform="translate(-78.855 -242.862)"/><g class="ab" transform="translate(6.257 0.514)"><path class="s" d="M85.262,287.642c-.158,0-.077-9.914.18-22.134s.593-22.129.752-22.126.077,9.913-.18,22.137S85.419,287.645,85.262,287.642Z" transform="translate(-85.181 -243.382)"/></g><g class="ab" transform="translate(10.273 1.142)"><path class="s" d="M89.767,288.149c-.158,0-.369-9.877-.472-22.062s-.056-22.069.1-22.07.368,9.875.47,22.065S89.924,288.148,89.767,288.149Z" transform="translate(-89.241 -244.017)"/></g><g class="ab" transform="translate(12.844 1.27)"><path class="s" d="M93.922,291.02a11.668,11.668,0,0,1-.273-1.827c-.14-1.18-.313-2.891-.5-5.007-.378-4.231-.786-10.089-1.041-16.568s-.3-12.352-.252-16.6c.023-2.124.062-3.843.111-5.03a11.366,11.366,0,0,1,.131-1.843,11.551,11.551,0,0,1,.092,1.845c.017,1.2.041,2.914.071,5.028.055,4.244.168,10.107.419,16.579s.6,12.323.87,16.559c.136,2.11.244,3.82.32,5.018A11.4,11.4,0,0,1,93.922,291.02Z" transform="translate(-91.84 -244.146)"/></g><g class="ab" transform="translate(16.233 1.885)"><path class="s" d="M97.856,293.626c-.157.008-.858-10.923-1.564-24.412s-1.151-24.437-.994-24.446.859,10.921,1.564,24.416S98.014,293.619,97.856,293.626Z" transform="translate(-95.267 -244.768)"/></g><g class="ab" transform="translate(18.811 1.38)"><path class="s" d="M102.626,292.638c-.157.016-1.345-10.8-2.653-24.16s-2.24-24.2-2.083-24.221,1.344,10.8,2.652,24.164S102.783,292.623,102.626,292.638Z" transform="translate(-97.873 -244.257)"/></g><g class="ab" transform="translate(22.025 1.891)"><path class="s" d="M108.238,291.789c-.156.024-1.873-10.484-3.835-23.464s-3.425-23.528-3.269-23.551,1.872,10.481,3.834,23.466S108.393,291.765,108.238,291.789Z" transform="translate(-101.122 -244.774)"/></g><g class="ab" transform="translate(26.369 2.478)"><path class="s" d="M114.622,293.147a12.355,12.355,0,0,1-.574-1.827c-.336-1.187-.789-2.911-1.321-5.048-1.067-4.275-2.414-10.214-3.674-16.819s-2.185-12.627-2.764-16.995c-.29-2.184-.5-3.954-.625-5.18a12.209,12.209,0,0,1-.137-1.911,12.442,12.442,0,0,1,.358,1.882c.192,1.227.466,2.984.8,5.15.681,4.349,1.671,10.348,2.925,16.947s2.541,12.539,3.505,16.833c.482,2.139.871,3.873,1.144,5.087A12.212,12.212,0,0,1,114.622,293.147Z" transform="translate(-105.514 -245.367)"/></g><g class="ab" transform="translate(2.339 -0.737)"><path class="s" d="M81.893,290.743a12.313,12.313,0,0,1-.17-1.912c-.073-1.231-.16-3.016-.244-5.22-.168-4.41-.343-10.507-.213-17.247.073-3.37.23-6.579.441-9.492.121-1.456.226-2.84.373-4.132.127-1.294.28-2.494.426-3.589s.3-2.081.437-2.949.269-1.61.392-2.216a12.262,12.262,0,0,1,.426-1.871,12.321,12.321,0,0,1-.207,1.907c-.088.61-.194,1.357-.295,2.226s-.246,1.856-.353,2.953-.25,2.294-.355,3.585c-.126,1.289-.214,2.67-.319,4.123-.181,2.906-.322,6.106-.4,9.468-.13,6.722-.019,12.813.045,17.223.033,2.206.058,3.99.062,5.225A12.185,12.185,0,0,1,81.893,290.743Z" transform="translate(-81.22 -242.117)"/></g></g></g><path class="p" d="M84.359,193.793a1.824,1.824,0,0,0-1.381-1.8,3.315,3.315,0,0,0-2.381.374,2.8,2.8,0,0,0-1.583,1.8,3.543,3.543,0,0,0,1.088,2.717,5.642,5.642,0,0,0,1.331,1.3,2.091,2.091,0,0,0,1.784.275,2.264,2.264,0,0,0,1.128-1.062,4.1,4.1,0,0,0-.88-4.972" transform="translate(-67.459 -182.999)"/><g transform="translate(16.03 13.872)"><path class="p" d="M83.838,202.789c-.044.014-.2-.31-.273-.883a4.231,4.231,0,0,1,.355-2.211c.186-.408.419-.744.588-1.057a2.538,2.538,0,0,0,.315-.861,2.767,2.767,0,0,0-.072-.85c.019-.015.1.039.184.183a1.3,1.3,0,0,1,.156.688,2.406,2.406,0,0,1-.27,1c-.164.345-.387.686-.553,1.055a5.025,5.025,0,0,0-.434,2.038A4.227,4.227,0,0,1,83.838,202.789Z" transform="translate(-83.538 -196.926)"/></g><g transform="translate(14.58 12.675)"><path class="p" d="M82.074,200.326c-.028-.052.229-.225.586-.552a5.37,5.37,0,0,0,1.7-3.262c.065-.48.058-.788.118-.8s.148.3.151.815a4.359,4.359,0,0,1-1.8,3.453C82.4,200.278,82.094,200.367,82.074,200.326Z" transform="translate(-82.072 -195.716)"/></g><g transform="translate(29.485 1.848)"><path class="p" d="M97.141,184.8a3.914,3.914,0,0,1,1.692.2,7.592,7.592,0,0,1,5.395,5.8,3.881,3.881,0,0,1,.079,1.7c-.064,0-.075-.648-.341-1.64a8.048,8.048,0,0,0-5.214-5.6C97.782,184.919,97.134,184.862,97.141,184.8Z" transform="translate(-97.141 -184.77)"/></g><path class="o" d="M89.156,197.547a4.277,4.277,0,0,0-.184-1.693,1.6,1.6,0,0,0-1.233-1.065,1.351,1.351,0,0,0-1.393,1.126,1.665,1.665,0,0,0,.849,1.649,2.183,2.183,0,0,0,1.9.053" transform="translate(-67.539 -183.031)"/><g transform="translate(25.65 8.165)"><path class="q" d="M98.734,193.923c-.022,0-.011-.239-.121-.648a2.67,2.67,0,0,0-.981-1.435,2.606,2.606,0,0,0-1.1-.48,2.639,2.639,0,0,0-1.367.121,2.573,2.573,0,0,0-1.2.908,2.586,2.586,0,0,0,0,3.066,2.563,2.563,0,0,0,1.2.909A2.613,2.613,0,0,0,97.632,196a2.67,2.67,0,0,0,.981-1.435c.11-.408.1-.649.121-.647a.577.577,0,0,1,.011.172,2.193,2.193,0,0,1-.058.493,2.683,2.683,0,0,1-.973,1.525,2.722,2.722,0,0,1-1.156.527,2.766,2.766,0,0,1-1.456-.111,2.733,2.733,0,0,1-1.294-.963,2.758,2.758,0,0,1,0-3.287,2.757,2.757,0,0,1,2.75-1.073,2.716,2.716,0,0,1,1.156.527,2.675,2.675,0,0,1,.972,1.524,2.154,2.154,0,0,1,.059.493A.588.588,0,0,1,98.734,193.923Z" transform="translate(-93.264 -191.156)"/></g><g transform="translate(31.845 8.165)"><path class="q" d="M105,193.923c-.022,0-.011-.239-.12-.648a2.687,2.687,0,0,0-.983-1.435,2.6,2.6,0,0,0-1.1-.48,2.644,2.644,0,0,0-1.368.121,2.576,2.576,0,0,0-1.2.908,2.586,2.586,0,0,0,0,3.066,2.565,2.565,0,0,0,1.2.909,2.612,2.612,0,0,0,2.471-.359,2.681,2.681,0,0,0,.983-1.435c.109-.408.1-.649.12-.647a.563.563,0,0,1,.01.172,2.082,2.082,0,0,1-.058.493,2.675,2.675,0,0,1-.972,1.525,2.728,2.728,0,0,1-1.156.527,2.766,2.766,0,0,1-1.456-.111,2.728,2.728,0,0,1-1.294-.963,2.758,2.758,0,0,1,0-3.287,2.749,2.749,0,0,1,3.906-.546,2.67,2.67,0,0,1,.972,1.524,2.087,2.087,0,0,1,.058.493A.572.572,0,0,1,105,193.923Z" transform="translate(-99.527 -191.156)"/></g><g transform="translate(30.955 10.921)"><path class="q" d="M99.612,194.037c0,.052-.221.095-.493.095s-.492-.043-.492-.095.22-.095.492-.095S99.612,193.985,99.612,194.037Z" transform="translate(-98.628 -193.942)"/></g><g transform="translate(21.077 11.483)"><path class="q" d="M93.4,194.52a15.359,15.359,0,0,1-2.362.564,15.5,15.5,0,0,1-2.4.377A15.457,15.457,0,0,1,91,194.9,15.65,15.65,0,0,1,93.4,194.52Z" transform="translate(-88.641 -194.511)"/></g><path class="o" d="M116.7,232.727s5.958,3.778,7.261,3.749,5.027-.126,4.639.388-4.639,1.227-4.639,1.227Z" transform="translate(-67.869 -183.443)"/></g><path class="s" d="M143.325,227.19c-.295.835-1.027,1.336-1.636,1.122a1.439,1.439,0,0,1-.57-1.9c.295-.833,1.027-1.335,1.636-1.12A1.436,1.436,0,0,1,143.325,227.19Z" transform="translate(-68.134 -183.362)"/></g><g transform="translate(962.921 385.974)"><path class="ac" d="M25.785,0c.8,0,1.592.016,2.388.057.607.032,1.534-.094,2.047.284.533.393.5,1.2.413,1.765A12.8,12.8,0,0,1,26.868,9.9a21.747,21.747,0,0,1-12.132,5.682,9.852,9.852,0,0,1-8.776-2.549,36.618,36.618,0,0,0-3.8,10.62,25.443,25.443,0,0,0-.376,5.458c.038,1.184.1,2.366.23,3.544a4.194,4.194,0,0,1,.116,1.771.808.808,0,0,1-1.385.139,3.977,3.977,0,0,1-.3-1.673C.344,32.1.25,31.305.183,30.509.075,29.219-.006,27.926,0,26.632a28.9,28.9,0,0,1,1.544-8.587A29.48,29.48,0,0,1,10.275,4.35,16.791,16.791,0,0,1,19.338.667,45.438,45.438,0,0,1,25.785,0" transform="translate(0)"/><path class="ac" d="M12.892,0c8.6,0,14.4,6.933,17.135,14.139a39.114,39.114,0,0,1,1.673,8.55,13.053,13.053,0,0,0,.452,3.125c.135.3.444.4.3.8a.654.654,0,0,1-.529.442c-.541.1-1.306-.49-1.77-.722a19.9,19.9,0,0,1-8.438-8.564,36.447,36.447,0,0,1-3.335-7.1,24.527,24.527,0,0,1-.893-4.69,17.857,17.857,0,0,1-.119-1.878,3.787,3.787,0,0,1,.5-1.485,12.676,12.676,0,0,0-9.018-.257A11.556,11.556,0,0,0,2.671,7.951a10.649,10.649,0,0,0-.758,2.058,7.082,7.082,0,0,1-.347,1.483c-.537,1.015-1.667.336-1.558-.608A12.221,12.221,0,0,1,3.745,3.768,13.445,13.445,0,0,1,12.892,0" transform="translate(0.602 21.056)"/></g></g></svg>