<svg xmlns="http://www.w3.org/2000/svg" xmlns:xlink="http://www.w3.org/1999/xlink" width="465" height="295.99" viewBox="0 0 465 295.99"><defs><style>.a{fill:#1a1a1a;}.b{fill:#f6ba99;}.c{fill:#fff1c8;}.d{fill:#eab860;}.e{fill:#00143a;}.f{opacity:0;}.g{fill:#f2957e;}.h{fill:#f3f0eb;}.i{opacity:0.34;fill:url(#a);}.j{fill:#707070;}.k{fill:#fff;}.l,.m{fill:#102d51;}.m{opacity:0.36;}.n{fill:#f2f2f2;}.o{fill:rgba(0,0,0,0.1);}.p{fill:#afb9c5;}.q{fill:#c5cfd6;}.r{opacity:0.2;}.s{fill:none;stroke:#cbcbcb;stroke-miterlimit:10;stroke-width:8px;}.t{fill:#567f88;}.u{fill:#89c5cc;}.v{opacity:0.22;}.w{clip-path:url(#b);}.x{fill:#d8deed;opacity:0.19;}.y{fill:#e1e5f0;opacity:0.05;}.z{opacity:0.5;}.aa{fill:#69a1ac;}.ab{fill:#c1dee2;}</style><linearGradient id="a" x1="0.524" y1="1.569" x2="0.503" y2="0.195" gradientUnits="objectBoundingBox"><stop offset="0" stop-color="#fff"/><stop offset="0.232" stop-color="#fff" stop-opacity="0.769"/><stop offset="1" stop-color="#fff" stop-opacity="0"/></linearGradient><clipPath id="b"><rect class="a" width="112.959" height="110.228"/></clipPath></defs><g transform="translate(-654 -256)"><g transform="translate(750.879 256)"><g transform="translate(129.997 122.56)"><path class="b" d="M100,453.073s-17.926,5.985-19.92,5.187-.5-7.623,17.9-11.69Z" transform="translate(-79.41 -297.066)"/><path class="b" d="M142.948,447.069s18.191,5.12,19.393,6.9-3.866,6.589-21.376-.386Z" transform="translate(-43.144 -296.772)"/><path class="b" d="M125.936,398.41s5.967,34.674,17.282,35.052,27.3-21.215,27.3-21.215L161.227,402s-10.949,13.328-14.455,12.028-6.713-19.993-6.713-19.993Z" transform="translate(-51.999 -328.02)"/><path class="c" d="M91.3,423.713h14.3l52.776,1.364,19.438-2.523-42.11,15.423Z" transform="translate(-72.405 -311.216)"/><path class="c" d="M185.98,444.766,90.552,470.573l-5.937-19.124s92.595-30.356,97.141-28.875S196.007,434.554,185.98,444.766Z" transform="translate(-76.344 -311.235)"/><path class="d" d="M92.233,410.753s-1.023-29.886,26.991-29.8l9.435.119s33.042-4.035,33.589,28.1Z" transform="translate(-71.859 -335.754)"/><path class="d" d="M103.289,395.584s.671,32.236-.448,36.937-6.268,7.387-3.806,8.729,54.056.389,55.174-.283-.122-3.984-.872-4.521c-5.821-4.165-9.46-26.555-11.1-39.294Z" transform="translate(-68.236 -327.106)"/><path class="c" d="M96.371,423.285l94.81,30.455-6.009,17.042S87.752,449.718,85.168,445.694,77.984,423,96.371,423.285Z" transform="translate(-77.475 -310.787)"/><path class="b" d="M92.466,399.814s-3.754,34.984,7.023,38.445,32.066-12.929,32.066-12.929l-6.131-12.4s-14.179,9.823-17.195,7.611-.982-21.068-.982-21.068Z" transform="translate(-72.092 -324.816)"/><path class="b" d="M145.681,412.931l.569-3.426a29.51,29.51,0,0,0,1.071-5.74,8.5,8.5,0,0,0-.2-2.889,13.084,13.084,0,0,0-1.2-3.4c-.607-.93.234-2.115,1.178-1.758s2.681,2.88,3.2,6.42,3.4-1.3,4.481-3.043,4.677-6.989,5.478-7.083c1.173-.135,1.535,1.1.413,2.814-1.131,1.739-4.114,7.105-3.166,7.633s6.315-8.442,6.315-8.442.841-2.1,1.958-1.53c2.015,1.033-4.407,10.134-5.039,10.984-.439.593.572,1.2,1.009.54.451-.68,5.158-9.06,7.221-8.03,1.581.79-5.212,7.537-5.224,9.818s4.632-5.64,6.112-4.823c.551.305.92.609-2.4,4.772-3.4,4.265-14.5,14.317-14.5,14.317l-7.313-7.334" transform="translate(-40.383 -329.219)"/><g transform="translate(65.762 73.379)"><ellipse class="e" cx="2.128" cy="0.306" rx="2.128" ry="0.306"/></g><g transform="translate(66.331 75.049)"><path class="e" d="M124.271,399.977c.006.17-.688.329-1.551.358s-1.565-.086-1.57-.254.688-.329,1.551-.358S124.265,399.81,124.271,399.977Z" transform="translate(-121.15 -399.719)"/></g><path class="b" d="M94.536,394.372l62.385-.192s-4.043-13.945-25.589-13.238S105.133,377.239,94.536,394.372Z" transform="translate(-70.499 -335.748)"/><g transform="translate(35.366)"><path class="e" d="M127.959,360.732c-.108-.636-6.137,0-6.137,0l-2.6,33.771c4.173,2.215,9.758,5.289,14.46,4.817.8-3.266,1.551-6.927-.165-9.816-.83-1.4-2.171-2.465-2.837-3.946-.874-1.94-.432-4.186-.049-6.28a18.984,18.984,0,0,0,.413-5.166c-.427-4.537-4.23-8.968-3.08-13.379" transform="translate(-91.324 -347.806)"/><path class="b" d="M126.1,398.2c-.289-1.693.4-8.8.4-8.8s6.492-.687,6.884-7.123,0-21.282,0-21.282l-11.822-5.78-13,9.853,1.971,32.184Z" transform="translate(-97.605 -350.891)"/><path class="e" d="M113.036,371.633s10.616-1,12.494-10.636l11.52,10.636a12.427,12.427,0,0,0-2.886-13.765c-6.382-6.632-10.762-5.255-13.265-5.255-2.333,0-14.133,2.5-17.643,15.925-.256.974-.466,3.383-.628,4.475Z" transform="translate(-101.097 -352.493)"/><g transform="translate(32.026 19.026)"><path class="e" d="M123.977,365.965a.824.824,0,1,1-.825-.825A.824.824,0,0,1,123.977,365.965Z" transform="translate(-121.516 -364.068)"/><path class="e" d="M125.076,365.464c-.106.107-.715-.41-1.6-.459s-1.554.38-1.646.261c-.046-.052.065-.249.356-.448a2.185,2.185,0,0,1,2.592.157C125.041,365.208,125.127,365.417,125.076,365.464Z" transform="translate(-121.818 -364.465)"/></g><g transform="translate(22.194 19.026)"><path class="e" d="M117.969,365.965a.824.824,0,1,1-.823-.825A.823.823,0,0,1,117.969,365.965Z" transform="translate(-115.224 -364.068)"/><path class="e" d="M118.889,365.464c-.106.107-.715-.41-1.6-.459s-1.554.38-1.646.261c-.046-.052.065-.249.356-.448a2.185,2.185,0,0,1,2.592.157C118.854,365.208,118.94,365.417,118.889,365.464Z" transform="translate(-115.631 -364.465)"/></g><g transform="translate(28.5 19.779)"><path class="e" d="M119.75,372.676a7.084,7.084,0,0,1,1.453-.162c.222-.011.458-.041.515-.222a1.269,1.269,0,0,0-.124-.731c-.191-.578-.393-1.193-.605-1.839-.421-1.309-.788-2.5-1.038-3.364a7.012,7.012,0,0,1-.345-1.418,6.759,6.759,0,0,1,.551,1.354c.3.847.7,2.026,1.122,3.333.205.648.4,1.267.583,1.847a1.417,1.417,0,0,1,.091.912.534.534,0,0,1-.362.308,1.511,1.511,0,0,1-.38.035A7.043,7.043,0,0,1,119.75,372.676Z" transform="translate(-119.599 -364.94)"/></g><g class="f" transform="translate(19.322 26.593)"><path class="g" d="M118.894,370.587c-.022.734-1.151,1.26-2.52,1.294s-2.508-.448-2.549-1.181,1.085-1.441,2.519-1.472S118.918,369.858,118.894,370.587Z" transform="translate(-113.823 -369.227)"/></g><path class="h" d="M117.905,370.377c-.9-.6,2.479,1.475,4.289,1.475a2.456,2.456,0,0,1-2.94.836C117.36,371.887,117.905,370.377,117.905,370.377Z" transform="translate(-92.184 -342.021)"/><path class="g" d="M123.008,377.792a16.075,16.075,0,0,1-8.528-2.88s1.932,4.725,8.388,4.459Z" transform="translate(-94.115 -339.285)"/><path class="e" d="M116.84,357.469s2.357,4.558,1.351,7.989l10.318,2.663S130.863,355.041,116.84,357.469Z" transform="translate(-92.724 -349.739)"/><path class="e" d="M103.45,367.118a191.814,191.814,0,0,0-1.785,25.111,37.359,37.359,0,0,0,13.746,2.358,4.6,4.6,0,0,0,2.29-.466c1.208-.714,1.573-2.3,1.53-3.706-.1-3.29-1.75-6.358-2.01-9.638-.267-3.348.928-6.614,1.88-9.834s1.662-6.741.472-9.881Z" transform="translate(-101.665 -347.445)"/></g><g transform="translate(38.896 0.171)"><path class="h" d="M104.275,398.331a18.227,18.227,0,0,1,.583-1.994,12.761,12.761,0,0,0,.623-5.508,29.763,29.763,0,0,0-.866-3.782,16.852,16.852,0,0,1-.729-4.493,6.842,6.842,0,0,1,1.775-4.725c1.138-1.354,2.594-2.431,3.671-3.833A5.235,5.235,0,0,0,110.4,371.7a7.364,7.364,0,0,0-.124-2.5,20.257,20.257,0,0,1-.388-2.541,5.729,5.729,0,0,1,.416-2.5,9.3,9.3,0,0,1,2.91-3.537c1.117-.89,2.255-1.57,3.237-2.231a11.894,11.894,0,0,0,3.971-3.862,8.928,8.928,0,0,0,.7-1.924,1.838,1.838,0,0,1-.017.544,5.4,5.4,0,0,1-.47,1.489,11.521,11.521,0,0,1-3.936,4.108c-.985.7-2.091,1.386-3.162,2.271a8.876,8.876,0,0,0-2.708,3.353,5.2,5.2,0,0,0-.356,2.257,20.346,20.346,0,0,0,.394,2.465A7.894,7.894,0,0,1,111,371.8a5.788,5.788,0,0,1-1.181,2.563c-1.16,1.5-2.619,2.568-3.7,3.852a6.291,6.291,0,0,0-1.669,4.345,16.663,16.663,0,0,0,.656,4.358,28.246,28.246,0,0,1,.8,3.858,10.227,10.227,0,0,1-.151,3.271,17.291,17.291,0,0,1-.675,2.363c-.227.632-.426,1.114-.564,1.438A1.7,1.7,0,0,1,104.275,398.331Z" transform="translate(-103.886 -352.601)"/></g><g transform="translate(45.268 0.309)"><path class="h" d="M121.261,352.688a1.778,1.778,0,0,1,.2.5,14.61,14.61,0,0,1,.4,1.5,8.448,8.448,0,0,1,.184,2.46,4.716,4.716,0,0,1-1.381,2.976,19.1,19.1,0,0,1-3.193,2.309,8.234,8.234,0,0,0-1.616,1.345,4.5,4.5,0,0,0-1,1.9,17.406,17.406,0,0,0-.056,4.845,10.178,10.178,0,0,1-.191,2.684,7.94,7.94,0,0,1-1.143,2.543c-1.019,1.559-2.279,2.835-3.077,4.3a8.65,8.65,0,0,0-1,4.626,27.632,27.632,0,0,0,.6,4.391,30.124,30.124,0,0,1,.571,3.887,9.124,9.124,0,0,1-1.2,5.534,5.26,5.26,0,0,1-1.015,1.182,1.483,1.483,0,0,1-.445.308,9.629,9.629,0,0,0,1.255-1.613,9.209,9.209,0,0,0,.969-5.381,31.777,31.777,0,0,0-.636-3.819,27.2,27.2,0,0,1-.667-4.47,9.145,9.145,0,0,1,1.036-4.934c.847-1.565,2.118-2.857,3.088-4.348a7.355,7.355,0,0,0,1.063-2.349,9.64,9.64,0,0,0,.184-2.522,17.376,17.376,0,0,1,.11-5.011,5.025,5.025,0,0,1,1.149-2.122,8.657,8.657,0,0,1,1.734-1.408,19.43,19.43,0,0,0,3.167-2.191,4.385,4.385,0,0,0,1.348-2.71,8.763,8.763,0,0,0-.078-2.379C121.406,353.417,121.209,352.7,121.261,352.688Z" transform="translate(-107.895 -352.688)"/></g><g transform="translate(59.565 0.322)"><path class="h" d="M121.887,368.842a15.782,15.782,0,0,0,.973-2.476,10.115,10.115,0,0,0-.688-6.214,22.341,22.341,0,0,0-3.577-5.336,13.822,13.822,0,0,1-1.7-2.117,10.56,10.56,0,0,1,2.018,1.826,18.849,18.849,0,0,1,3.819,5.384,9.745,9.745,0,0,1,.544,6.571,6.129,6.129,0,0,1-.879,1.823C122.114,368.688,121.915,368.866,121.887,368.842Z" transform="translate(-116.892 -352.696)"/></g><g transform="translate(59.156 0.339)"><path class="h" d="M128.147,370.178a13.377,13.377,0,0,0,.637-3.32,10.37,10.37,0,0,0-.6-3.577,12.6,12.6,0,0,0-2.219-3.852,21.943,21.943,0,0,0-3.234-3.135,36.874,36.874,0,0,0-3-2.171,13.118,13.118,0,0,0-3.091-1.389,2.015,2.015,0,0,1,.938.065,8.567,8.567,0,0,1,2.374.952,28.886,28.886,0,0,1,3.129,2.1,20.278,20.278,0,0,1,3.36,3.189,12.417,12.417,0,0,1,2.279,4.062,10.063,10.063,0,0,1,.5,3.774,7.687,7.687,0,0,1-.59,2.493A2.146,2.146,0,0,1,128.147,370.178Z" transform="translate(-116.635 -352.707)"/></g><g transform="translate(71.159 21.7)"><path class="h" d="M125.466,394.028c-.032-.049.35-.245.8-.81a4.666,4.666,0,0,0,.842-2.872,7.057,7.057,0,0,0-.323-2.075,18.447,18.447,0,0,0-.938-2.28c-.372-.795-.787-1.634-1.116-2.56a8.764,8.764,0,0,1-.543-3.008,22.963,22.963,0,0,1,1.038-5.7,16.416,16.416,0,0,0,.687-4.551,7.284,7.284,0,0,0-.626-3c-.311-.663-.575-.987-.532-1.02a2.539,2.539,0,0,1,.744.909,6.82,6.82,0,0,1,.847,3.093,15.631,15.631,0,0,1-.571,4.7,24.238,24.238,0,0,0-.974,5.564,12.55,12.55,0,0,0,1.561,5.338,17.6,17.6,0,0,1,.911,2.369,7.146,7.146,0,0,1,.269,2.23,4.65,4.65,0,0,1-1.093,3.016A1.975,1.975,0,0,1,125.466,394.028Z" transform="translate(-124.188 -366.148)"/></g><g transform="translate(31.813 0.131)"><path class="h" d="M102.893,396.825c-.022-.016.1-.173.264-.513a3.518,3.518,0,0,0,.3-1.58,5.576,5.576,0,0,0-.7-2.454c-.45-.9-1.146-1.848-1.756-3.016a13.99,13.99,0,0,1-1.4-4.052,10.718,10.718,0,0,1,.25-4.931,9.3,9.3,0,0,1,1.138-2.45,9.944,9.944,0,0,1,1.893-2.077,21.8,21.8,0,0,0,2.052-1.9,6.219,6.219,0,0,0,1.314-2.435,24.867,24.867,0,0,0,.516-5.651,10.387,10.387,0,0,1,1.341-5.284,9.723,9.723,0,0,1,3.728-3.243,22.449,22.449,0,0,1,3.973-1.567,39.147,39.147,0,0,0,5.762-2c1.294-.629,1.917-1.141,1.95-1.095.014.014-.133.151-.431.4a11.087,11.087,0,0,1-1.41.911,33.6,33.6,0,0,1-5.74,2.2,22.54,22.54,0,0,0-3.863,1.6,9.283,9.283,0,0,0-3.493,3.1,9.937,9.937,0,0,0-1.22,5.008,24.731,24.731,0,0,1-.526,5.8,6.809,6.809,0,0,1-1.445,2.663,21.769,21.769,0,0,1-2.115,1.95,9.482,9.482,0,0,0-1.8,1.95,8.73,8.73,0,0,0-1.084,2.292,10.265,10.265,0,0,0-.289,4.682,13.854,13.854,0,0,0,1.287,3.941c.563,1.139,1.238,2.11,1.678,3.062a5.659,5.659,0,0,1,.626,2.6,3.375,3.375,0,0,1-.429,1.637C103.065,396.7,102.9,396.836,102.893,396.825Z" transform="translate(-99.429 -352.576)"/></g><path class="i" d="M102.545,421.817,91.3,377.141l78.534-2.221-11.4,50.09Z" transform="translate(-72.405 -336.293)"/><g transform="translate(30.518 83.097)"><path class="j" d="M98.614,404.783l7.336,35.953s43.79-1.228,44.247-1.364,4.7-34.59,4.7-34.59Z" transform="translate(-98.614 -404.783)"/><path class="k" d="M120.84,416.672a2.69,2.69,0,1,1-2.635-3.232A2.98,2.98,0,0,1,120.84,416.672Z" transform="translate(-88.624 -399.682)"/></g><g transform="translate(45.666 120.956)"><path class="l" d="M160.3,445.67a1.888,1.888,0,0,1-.553-.092c-.358-.083-.88-.211-1.554-.385-1.346-.343-3.286-.869-5.678-1.541-4.783-1.344-11.366-3.294-18.579-5.63s-13.684-4.642-18.334-6.4c-2.323-.876-4.2-1.607-5.481-2.136-.644-.264-1.141-.472-1.476-.621a1.921,1.921,0,0,1-.5-.254,1.9,1.9,0,0,1,.544.14c.35.11.86.283,1.514.512l5.548,1.955c4.682,1.651,11.167,3.882,18.374,6.223s13.762,4.346,18.512,5.8l5.621,1.729c.663.208,1.176.374,1.522.494A2.036,2.036,0,0,1,160.3,445.67Z" transform="translate(-108.146 -428.606)"/></g><g transform="translate(56.618 118.463)"><path class="l" d="M135.7,427.051c.049.164-4.537,1.678-10.242,3.385s-10.371,2.962-10.419,2.8,4.537-1.678,10.242-3.385S135.651,426.891,135.7,427.051Z" transform="translate(-115.038 -427.037)"/></g><g transform="translate(12.857 114.461)"><path class="l" d="M117.921,430.663a4.7,4.7,0,0,1-1.219-.216c-.772-.184-1.883-.478-3.243-.887-2.727-.788-6.412-2.136-10.565-3.258a34.06,34.06,0,0,0-10.867-1.225c-2.81.176-4.5.693-4.526.583a4.2,4.2,0,0,1,1.166-.416,20.207,20.207,0,0,1,3.325-.6,31.113,31.113,0,0,1,11.057,1.066c4.2,1.135,7.857,2.547,10.541,3.437l3.178,1.07A4.884,4.884,0,0,1,117.921,430.663Z" transform="translate(-87.501 -424.519)"/></g><path class="m" d="M89.18,439.344l30.62,12.679,9.262-2.5Z" transform="translate(-73.654 -301.323)"/><path class="m" d="M105.184,427.835l17.322,4.078,23.059-5.382Z" transform="translate(-64.225 -308.872)"/></g><g transform="translate(28.591)"><circle class="n" cx="47.081" cy="47.081" r="47.081" transform="translate(0 0)"/><circle class="o" cx="2.716" cy="2.716" r="2.716" transform="translate(44.365 6.338)"/><circle class="o" cx="2.716" cy="2.716" r="2.716" transform="translate(6.338 44.365)"/><ellipse class="o" cx="2.264" cy="2.716" rx="2.264" ry="2.716" transform="translate(81.487 44.365)"/><ellipse class="o" cx="2.716" cy="2.264" rx="2.716" ry="2.264" transform="translate(44.365 81.487)"/><path class="p" d="M1.783,0,3.566,31.219H0Z" transform="translate(45.154 14.674)"/><path class="p" d="M1.789,0,3.567,21.4H0Z" transform="translate(63.98 61.306) rotate(135)"/><circle class="q" cx="3.169" cy="3.169" r="3.169" transform="translate(43.46 43.46)"/></g><g class="r" transform="translate(284.3 83.788)"><path class="s" d="M0,13.5,9.035,4.457a3.892,3.892,0,0,1,5.506,0L38.6,28.533a7.791,7.791,0,0,1,2.279,5.507V193.519" transform="translate(28.834 3.167)"/><rect class="p" width="28.973" height="3.622" rx="1.811" transform="translate(54.848 195.985)"/><g transform="translate(22.914 0) rotate(45)"><path class="q" d="M16.066,0h0A16.066,16.066,0,0,1,32.131,16.066V29.7a0,0,0,0,1,0,0H0a0,0,0,0,1,0,0V16.066A16.066,16.066,0,0,1,16.066,0Z" transform="translate(0 0)"/><ellipse class="n" cx="16.063" cy="3.168" rx="16.063" ry="3.168" transform="translate(0.093 26.07)"/></g></g><g transform="translate(273.958 167.525)"><g transform="translate(11.192 0)"><path class="t" d="M11.8.084a8.227,8.227,0,0,1,4.178.44c2.756,1.171,3.54,4.429,3.5,7.077-.041,2.85-.646,5.963,1.52,8.26,1,1.056,2.234,1.864,3.212,2.939a13.894,13.894,0,0,1,2.471,3.875,11.375,11.375,0,0,1,.642,8.363c-.9,2.395-3.155,4.557-2.667,7.28.509,2.841,3.372,5.013,5.161,7.129,2.026,2.395,3.891,5.455,4.2,8.6A11.286,11.286,0,0,1,31,62.371a21.32,21.32,0,0,1-16.136,6.761c-2.584-.006-5.509-.123-7.739-1.512A4.266,4.266,0,0,1,5.66,66.039a5.152,5.152,0,0,0-1.414-1.416,8.4,8.4,0,0,1-2.694-3.6C-.656,55.556,1.109,48.79,4.2,43.934c.732-1.151,1.332-2.258.976-3.629a14,14,0,0,0-2.091-3.953A31.8,31.8,0,0,1,.754,32.661a8.38,8.38,0,0,1-.721-4.327A14.725,14.725,0,0,1,3.2,20.611c1.666-2.194,3.623-4.293,3.627-7.167C6.832,10.4,4.8,7.688,5.664,4.59A5.9,5.9,0,0,1,7.907,1.223,9.137,9.137,0,0,1,11.8.084Z" transform="translate(0 0)"/><path class="u" d="M.675.573A.7.7,0,0,1,1.568.025c.5.141.493.61.48,1.029A13.838,13.838,0,0,0,2.5,4.84a67.355,67.355,0,0,0,2.771,7.481,13.624,13.624,0,0,1,.83,7.7c-.52,2.486-1.337,4.907-1.869,7.4-.469,2.194-.968,4.507-.254,6.695.687,2.106,2.206,3.821,3.3,5.725a27,27,0,0,1,3.4,12.809,23.963,23.963,0,0,1-.478,6.245c-.279,1.18-.653,2.774-1.664,3.588a1.153,1.153,0,0,1-1.655-.051c-.368-.522-.045-1.329.072-1.885a28.589,28.589,0,0,0,.487-7.31,26.4,26.4,0,0,0-1.141-6.991,23.663,23.663,0,0,0-2.977-5.818A18.582,18.582,0,0,1,.24,34.463a14.037,14.037,0,0,1,.475-6.749c.607-2.335,1.4-4.6,2.225-6.875a12.069,12.069,0,0,0,.643-6.625C2.709,9.636.37,5.34.675.573Z" transform="translate(10.219 4.382)"/></g><g transform="translate(15.571 4.868)"><path class="t" d="M44.229.77a10.457,10.457,0,0,1,4.668,2.7c2.615,2.819,1.812,7.08.369,10.192-1.554,3.35-3.908,6.716-2.581,10.56.61,1.767,1.636,3.367,2.214,5.147a17.958,17.958,0,0,1,.851,5.869c-.063,3.647-1.032,7.538-3.665,10.224-2.318,2.365-6.107,3.747-6.974,7.221-.9,3.625,1.306,7.683,2.288,11.117,1.111,3.886,1.681,8.477.382,12.35a14.733,14.733,0,0,1-7.948,8.275c-7.111,3.286-15.367,2.781-22.5-.4-3.027-1.352-6.4-3.012-8.278-5.816a5.486,5.486,0,0,1-.88-2.63,6.619,6.619,0,0,0-.911-2.411A10.832,10.832,0,0,1,.01,67.5c.3-7.617,5.943-14.7,12.134-18.833,1.467-.979,2.755-1.977,3.062-3.784a18.137,18.137,0,0,0-.364-5.764,41.112,41.112,0,0,1-.785-5.579,10.932,10.932,0,0,1,1.44-5.493,19.218,19.218,0,0,1,7.8-7.484c3.113-1.727,6.517-3.191,8.04-6.588,1.615-3.6.659-7.865,3.313-11.076A7.674,7.674,0,0,1,39.056.089,11.667,11.667,0,0,1,44.229.77Z" transform="translate(0 0)"/><path class="u" d="M25.134.395a.894.894,0,0,1,1.331-.18c.514.43.257.981.022,1.47a18.127,18.127,0,0,0-1.45,4.722c-.607,3.411-.471,6.866-.676,10.312a17.838,17.838,0,0,1-3.06,9.554c-1.909,2.671-4.132,5.11-6.056,7.778-1.7,2.352-3.491,4.83-3.8,7.8-.3,2.854.58,5.682.863,8.51A35.378,35.378,0,0,1,9.581,67.31a31.3,31.3,0,0,1-3.828,7.145c-.943,1.251-2.216,2.942-3.824,3.377A1.468,1.468,0,0,1,.02,76.9c-.157-.811.643-1.6,1.071-2.195a37.353,37.353,0,0,0,4.4-8.4A34.6,34.6,0,0,0,7.812,57.43a30.956,30.956,0,0,0-.435-8.45C6.883,46.1,6.333,43.2,6.885,40.3c.56-2.943,2.261-5.43,4.088-7.743,1.932-2.447,4.05-4.716,6.2-6.975a15.755,15.755,0,0,0,4.22-7.509C22.768,12.2,22.282,5.88,25.134.395Z" transform="translate(15.571 6.329)"/></g><g transform="translate(0 27.263)"><path class="t" d="M6.475,0A9.259,9.259,0,0,1,13.6,3.68c2.034,2.527,2.445,5.612,3.271,8.624a7.7,7.7,0,0,0,2.357,4c1.127.926,2.557,1.111,3.906,1.564a9.116,9.116,0,0,1,5.731,5.74c1.049,3.242-.062,6.511.129,9.8.176,3.017,3.149,4.9,5.541,6.346,2.359,1.426,4.484,2.761,5.194,5.54a15.856,15.856,0,0,1-.037,9.147c-1.737,4.847-6.822,6.981-11.735,7.312-4.459.3-10.065-.171-13.414-3.409A9.533,9.533,0,0,1,11.906,51a22.366,22.366,0,0,1,.817-4.958,22.377,22.377,0,0,0,.832-3.478c.311-3.157-2.605-3.763-5.088-4.63a12.109,12.109,0,0,1-6.9-6.081A11.586,11.586,0,0,1,.4,23.152a10.158,10.158,0,0,1,2.309-4.065c.474-.515,1.142-.945,1.57-1.487a2.007,2.007,0,0,0,.175-1.753c-.636-2.736-2.62-5-3.329-7.732C.481,5.65.86,2.582,3.112.992A5.881,5.881,0,0,1,6.475,0Z" transform="translate(0 0)"/><path class="u" d="M1.624.312c3.04,3.24,3.866,7.635,4.109,11.9.136,2.389-.006,4.909.7,7.226a12.139,12.139,0,0,0,3.458,4.932c2.92,2.885,6.176,5.817,7.03,9.992.5,2.45.163,4.98.855,7.4a20.367,20.367,0,0,0,3.087,6.226c1.086,1.5,2.5,2.644,3.687,4.04.362.426.881,1.053.731,1.655-.175.7-1.072.928-1.708.817-1.484-.258-2.733-1.676-3.7-2.706a23.308,23.308,0,0,1-3.6-4.946,20.8,20.8,0,0,1-2.338-6.427c-.388-2.35-.2-4.8-1.082-7.055-1.492-3.795-5.112-6.035-7.729-8.992-3.26-3.686-2.774-8.273-2.44-12.807.183-2.492.366-5.305-.893-7.58C1.3,3.119.229,2.309.023,1.322-.166.418.866-.5,1.624.312Z" transform="translate(8.759 6.816)"/></g><path class="u" d="M0,0C0,18.529,3.023,28.237,18.978,28.237S37.956,18.529,37.956,0Z" transform="translate(13.625 87.632)"/></g><g transform="translate(0 167.506)"><g class="v" transform="translate(4.707 3.225)"><rect class="a" width="112.959" height="110.228"/></g><path class="x" d="M101.427,121.368a2,2,0,0,1-2-2v-9.192a2,2,0,0,1,2-2h2.767a2,2,0,0,1,2,2v9.192a2,2,0,0,1-2,2Zm-82.954,0a2,2,0,0,1-2-2v-9.192a2,2,0,0,1,2-2h2.766a2,2,0,0,1,2,2v9.192a2,2,0,0,1-2,2Zm99.192-17.882v-2.564l4.76,2.563h-4.76Zm-57.361,0V0h2.354V103.486Zm-55.6,0H0l4.707-2.534v2.534h0Zm0-100.643L0,.293H4.707V2.842ZM117.665,2.77V.237l4.707.057L117.666,2.77h0Z" transform="translate(0 6.743)"/><path class="y" d="M7.036,117.264A7.036,7.036,0,0,1,0,110.228H122.372a7.036,7.036,0,0,1-7.036,7.035Zm61.5-45.741V45.155a2.353,2.353,0,1,1,4.706,0V71.523a2.353,2.353,0,1,1-4.706,0Zm-18.827,0V45.155a2.353,2.353,0,1,1,4.707,0V71.523a2.353,2.353,0,1,1-4.707,0ZM0,7.036A7.036,7.036,0,0,1,7.036,0h108.3a7.036,7.036,0,0,1,7.036,7.036Z"/></g></g><g class="z" transform="translate(654 290.392)"><path class="aa" d="M32.16,11.55C34.232,8.6,38.078,1.1,40.994.046c1.878-.679,1.331,6.349,1.354,7.689a112.233,112.233,0,0,1-1.039,15.477c-1.124,9.272-4.8,17.529-9.84,25.42-2.594,4.061-5.636,8.17-9.85,10.7C19.68,60.5,17.346,60.7,15.43,61.7c-2.231,1.17-1.016.224-2.021,2.547-1.4,3.225-1.843,7.385-2.489,10.826-2.966,15.8-10.147,99.295-8.9,115.362.111,1.424-1.877,1.765-1.976.026-.527-9.218,4.036-73.055,6.338-93.931s4.632-39.32,6.968-46.542c2.834-8.762,7.952-19.3,12.213-27.471A97.151,97.151,0,0,1,32.16,11.55Z" transform="translate(55.718 43.353)"/><path class="ab" d="M49.512,1.122C54.9-2.833,60.741,4.631,55.862,8.587a4.89,4.89,0,0,1-7.1-.413c-1.031,1.255-2,2.567-2.922,3.676-2.824,3.378-5.493,6.836-8.043,10.375-5.3,7.352-9.839,15.119-14.587,22.744-4.685,7.526-9.333,15.09-13.58,22.806C6.027,74.312,1.232,82,0,89.17c1.869-15.2,8.96-29.81,17.4-43.21,8.376-13.29,17.988-27.8,30.957-38.292A4.587,4.587,0,0,1,49.512,1.122Z" transform="translate(53.746 156.17)"/><path class="aa" d="M.943.015C3.961.6,8.891,7.424,11.378,10.023a97.341,97.341,0,0,1,8.165,9.827A166.183,166.183,0,0,1,33.99,43.393a218.714,218.714,0,0,1,16.074,41.8A172.275,172.275,0,0,1,54.941,112.6c.174,1.736,2,15.118-.629,15.479-2.361.325-1.631-10.162-1.745-11.588A185.121,185.121,0,0,0,42.059,69.575c-1.168-3.3-2.254-7.351-4.122-10.325-1.346-2.142-.01-1.395-2.374-2.205-2.03-.7-4.344-.526-6.423-1.379-4.517-1.851-8.134-5.444-11.3-9.058C11.674,39.585,6.792,31.987,4.247,22.987A113.645,113.645,0,0,1,.818,7.834C.631,6.5-1-.365.943.015Z" transform="translate(0 120.207)"/><path class="u" d="M6.933,6.757A273.059,273.059,0,0,1,33.669,69.994c3.654,13.275,6.209,26.9,8.748,40.422,3.931,20.94,7.649,41.879,8.707,63.192,1.064,21.436,3.168,46.16-3.857,66.806,3.509-20.961.168-43.273-.423-64.365-.283-10.069-1.1-20.039-2.176-30.049-1.043-9.71-2.746-19.374-4.333-29.008q-1.159-7.038-2.411-14.059c-.247-1.4-.351-5.542-1.238-6.5s-5.447-1.352-6.877-2.057a36.921,36.921,0,0,1-7.985-5.567A63.736,63.736,0,0,1,10.077,74.13C2.776,61.958-.142,47.1.005,33,.034,30.268,4.439.793,2.67.387Q2.83.2,2.972,0,4.982,3.361,6.933,6.757Z" transform="translate(5.917)"/><path class="u" d="M81.283,1.915c.175-.253,1.317-2.01.742-1.9,1.17-.229-1.61,1.938,1.306.609-1.384,1.306-.585,3-.567,4.762a42.6,42.6,0,0,1-.986,8.479,58.106,58.106,0,0,1-3.956,12.815,57.436,57.436,0,0,1-18.89,23.161c-3.988,2.763-7.9,3.7-12.445,4.975-2.873.8-3.1,2.288-4.626,5.074-3.175,5.8-6.293,11.582-9.093,17.579-3.343,7.161-6.589,14.33-9.65,21.618C12.805,123.634,4.411,149.065,0,175.384c-.108-15.509,3.483-31.483,8.013-46.266a275.983,275.983,0,0,1,12.177-31.43c1.11-2.49,2.793-5.693,3.264-8.441.33-1.926-.679-3.778-1.141-5.807a60.715,60.715,0,0,1-.091-24.7c1.744-8.759,6.789-12.824,15.322-14.065,3.121-.454,7.087-.287,9.949-1.617,3.118-1.448,4.4-6.207,6.177-9.261A125.96,125.96,0,0,1,70.587,10.811a54.854,54.854,0,0,1,5.786-5.318C77.667,4.46,80.4,3.188,81.283,1.915Z" transform="translate(54.239 75.868)"/><path class="ab" d="M.817,2.823A2.464,2.464,0,0,1,3.256,0H33.54a2.464,2.464,0,0,1,2.439,2.823L33.638,18.68A9.859,9.859,0,0,1,23.882,27.1H12.914A9.859,9.859,0,0,1,3.158,18.68Z" transform="translate(36.581 234.502)"/></g></g></svg>