<svg width="446" height="272" viewBox="0 0 446 272" fill="none" xmlns="http://www.w3.org/2000/svg">
<path d="M190.565 271H6.43521C3.47922 271 1 268.518 1 265.558V6.44201C1 3.48232 3.47922 1 6.43521 1H190.565C193.521 1 196 3.48232 196 6.44201V265.558C196 268.613 193.616 271 190.565 271ZM6.43521 1.28642C3.57457 1.28642 1.19071 3.57779 1.19071 6.53748V265.654C1.19071 268.518 3.47922 270.905 6.43521 270.905H190.565C193.425 270.905 195.809 268.613 195.809 265.654V6.44201C195.809 3.57779 193.521 1.19095 190.565 1.19095H6.43521V1.28642Z" fill="#EBEBEB" fill-opacity="0.32"/>
<path d="M6.43521 1.38642H6.53521V1.29095H190.565C193.464 1.29095 195.709 3.63171 195.709 6.44201V265.654C195.709 268.557 193.371 270.805 190.565 270.805H6.43521C3.53575 270.805 1.29071 268.464 1.29071 265.654V6.53748C1.29071 3.63409 3.62873 1.38642 6.43521 1.38642ZM6.43521 271.1H190.565C193.671 271.1 196.1 268.668 196.1 265.558V6.44201C196.1 3.42721 193.576 0.9 190.565 0.9H6.43521C3.42387 0.9 0.9 3.42721 0.9 6.44201V265.558C0.9 268.573 3.42387 271.1 6.43521 271.1Z" stroke="#EBEBEB" stroke-opacity="0.32" stroke-width="0.2"/>
<path d="M397.537 271H212.463C209.492 271 207 268.518 207 265.558V6.44201C207 3.48232 209.492 1 212.463 1H397.537C400.508 1 403 3.48232 403 6.44201V265.558C403 268.613 400.604 271 397.537 271ZM212.463 1.28642C209.588 1.28642 207.192 3.57779 207.192 6.53748V265.654C207.192 268.518 209.492 270.905 212.463 270.905H397.537C400.412 270.905 402.808 268.613 402.808 265.654V6.44201C402.808 3.57779 400.508 1.19095 397.537 1.19095H212.463V1.28642Z" fill="#EBEBEB" fill-opacity="0.32"/>
<path d="M212.463 1.38642H212.563V1.29095H397.537C400.452 1.29095 402.708 3.6322 402.708 6.44201V265.654C402.708 268.556 400.359 270.805 397.537 270.805H212.463C209.548 270.805 207.292 268.463 207.292 265.654V6.53748C207.292 3.63457 209.641 1.38642 212.463 1.38642ZM212.463 271.1H397.537C400.659 271.1 403.1 268.669 403.1 265.558V6.44201C403.1 3.42673 400.563 0.9 397.537 0.9H212.463C209.437 0.9 206.9 3.42673 206.9 6.44201V265.558C206.9 268.573 209.437 271.1 212.463 271.1Z" stroke="#EBEBEB" stroke-opacity="0.32" stroke-width="0.2"/>
<path d="M61.1289 146.241L46.1197 144.042C37.3245 143.086 32.0665 146.911 29.0073 152.361C35.6037 159.628 45.0681 164.122 55.6797 164.122C62.3717 164.122 68.6813 162.305 74.0349 159.054C72.2185 145.954 61.1289 146.241 61.1289 146.241Z" fill="#595C5F" fill-opacity="0.17"/>
<path d="M50.0396 127.309C50.2308 132.281 49.944 141.269 46.0244 144.042C46.0244 144.042 50.9 153.699 58.07 156.95C62.4676 153.986 61.0336 146.241 61.0336 146.241C55.8712 144.138 56.5404 140.217 58.07 136.488L50.0396 127.309Z" fill="#595C5F" fill-opacity="0.17"/>
<path d="M53.3857 131.038L58.1657 136.488C57.7833 137.349 57.4965 138.209 57.3053 139.07C55.2977 138.496 52.8121 135.819 52.9077 133.62C52.8121 132.759 53.0033 131.899 53.3857 131.038Z" fill="#595C5F" fill-opacity="0.17"/>
<path d="M46.4068 118.13C47.076 126.257 47.1716 129.795 51.378 133.907C57.6876 140.122 67.5344 137.54 69.3508 129.317C70.976 121.955 69.6376 109.907 61.6072 106.752C55.8712 104.553 49.3704 107.325 47.1716 113.062C46.5024 114.688 46.2156 116.409 46.4068 118.13Z" fill="#595C5F" fill-opacity="0.17"/>
<path d="M63.9014 120.999C64.475 122.528 65.3354 123.963 66.387 125.206C65.7178 125.684 64.8574 125.875 63.997 125.684L63.9014 120.999Z" fill="#595C5F" fill-opacity="0.17"/>
<path d="M61.1292 128.265C61.5116 128.265 61.894 128.265 62.2764 128.17C62.372 128.17 62.4676 128.074 62.4676 127.979C62.4676 127.883 62.372 127.787 62.2764 127.787C60.6512 128.074 58.9304 127.596 57.6876 126.544C57.592 126.449 57.4964 126.449 57.4008 126.544C57.3052 126.64 57.3052 126.736 57.4008 126.831C58.3568 127.692 59.6952 128.265 61.1292 128.265Z" fill="#595C5F" fill-opacity="0.17"/>
<path d="M56.4448 117.843C56.5404 117.843 56.636 117.843 56.7316 117.748C57.592 117.174 58.548 117.078 59.504 117.365C59.6952 117.461 59.8864 117.269 59.982 117.078C59.982 116.887 59.982 116.696 59.7908 116.6C58.6436 116.122 57.3052 116.313 56.2536 116.983C56.0624 117.078 56.0624 117.365 56.158 117.556C56.2536 117.748 56.3492 117.748 56.4448 117.843Z" fill="#595C5F" fill-opacity="0.17"/>
<path d="M67.3432 117.748C67.4388 117.748 67.5344 117.652 67.5344 117.652C67.63 117.461 67.63 117.27 67.4388 117.174C66.5784 116.505 65.4312 116.313 64.3796 116.6C64.1884 116.696 64.0928 116.887 64.1884 117.078C64.284 117.27 64.4752 117.365 64.6664 117.27C65.5268 116.983 66.3872 117.174 67.152 117.748C67.152 117.748 67.2476 117.843 67.3432 117.748Z" fill="#595C5F" fill-opacity="0.17"/>
<path d="M55.1064 164.695C35.126 164.695 18.874 148.44 18.874 128.457C18.874 108.473 35.126 92.218 55.1064 92.218C75.0868 92.218 91.3388 108.473 91.3388 128.457C91.4344 148.44 75.1824 164.695 55.1064 164.695ZM55.1064 93.3654C35.7952 93.3654 20.0212 109.142 20.0212 128.457C20.0212 147.771 35.7952 163.548 55.1064 163.548C74.4176 163.548 90.1916 147.771 90.1916 128.457C90.2872 109.046 74.5132 93.3654 55.1064 93.3654Z" fill="#595C5F" fill-opacity="0.17"/>
<path d="M58.166 120.616C58.166 121.19 58.4528 121.572 58.8352 121.572C59.2176 121.572 59.5044 121.094 59.4088 120.616C59.4088 120.042 59.122 119.66 58.7396 119.66C58.3572 119.564 58.166 120.042 58.166 120.616Z" fill="#595C5F" fill-opacity="0.17"/>
<path d="M65.0488 120.616C65.0488 121.19 65.3356 121.572 65.718 121.572C66.1004 121.572 66.3872 121.094 66.2916 120.616C66.2916 120.042 66.0048 119.66 65.6224 119.66C65.3356 119.564 65.0488 120.042 65.0488 120.616Z" fill="#595C5F" fill-opacity="0.17"/>
<path d="M47.9364 124.632C47.9364 124.632 51.5692 123.102 50.8044 118.895C50.8044 118.895 55.7756 117.078 55.202 113.062C55.202 113.062 62.85 114.879 63.328 111.819C63.328 111.819 70.3068 114.975 70.7848 111.819C71.2628 108.664 67.7256 107.612 67.7256 107.612C67.7256 107.612 68.108 100.537 61.416 102.927C61.416 102.927 57.4964 98.8155 52.9076 103.501C52.9076 103.501 48.3188 101.493 46.12 107.803C46.12 107.803 41.7224 110.003 43.0608 114.592C43.0608 114.592 40.0016 117.556 42.2004 120.425C42.1048 120.52 41.5312 128.743 47.9364 124.632Z" fill="#595C5F" fill-opacity="0.17"/>
<path d="M44.8774 125.492C45.8334 126.927 47.1718 127.883 48.797 128.17C50.9958 128.648 51.8562 126.64 51.187 124.632C50.5178 122.911 48.6058 120.52 46.5026 120.999C44.3994 121.477 43.8258 123.771 44.8774 125.492Z" fill="#595C5F" fill-opacity="0.17"/>
<path d="M330.626 196.153C330.626 196.153 306.917 191.468 307.491 196.153C307.491 196.153 305.483 191.372 307.586 182.097C309.689 172.823 310.454 170.91 310.454 170.91L323.551 169.667L333.589 175.595L334.163 185.444L333.303 191.468L330.626 196.153Z" fill="#595C5F" fill-opacity="0.17"/>
<path d="M316.286 207.244L331.295 205.045C340.09 204.089 345.348 207.914 348.408 213.364C341.811 220.631 332.347 225.125 321.735 225.125C315.043 225.125 308.733 223.308 303.38 220.057C305.196 207.053 316.286 207.244 316.286 207.244Z" fill="#595C5F" fill-opacity="0.17"/>
<path d="M327.375 188.312C327.184 193.284 327.471 202.272 331.391 205.045C331.391 205.045 327.184 213.842 319.345 213.173C313.991 212.695 316.381 207.244 316.381 207.244C321.544 205.141 320.875 201.221 319.345 197.492L327.375 188.312Z" fill="#595C5F" fill-opacity="0.17"/>
<path d="M324.029 192.137L319.249 197.587C319.631 198.448 319.918 199.308 320.109 200.169C322.117 199.595 324.603 196.918 324.507 194.719C324.603 193.858 324.411 192.902 324.029 192.137Z" fill="#595C5F" fill-opacity="0.17"/>
<path d="M331.008 179.229C330.339 187.356 330.243 190.894 326.037 195.006C319.727 201.221 309.88 198.639 308.064 190.416C306.439 183.054 307.777 171.006 315.808 167.851C321.544 165.651 328.044 168.424 330.243 174.161C330.912 175.787 331.199 177.508 331.008 179.229Z" fill="#595C5F" fill-opacity="0.17"/>
<path d="M313.513 182.097C312.94 183.627 312.079 185.061 311.028 186.304C311.697 186.783 312.557 186.974 313.418 186.783L313.513 182.097Z" fill="#595C5F" fill-opacity="0.17"/>
<path d="M316.286 189.364C315.903 189.364 315.521 189.364 315.138 189.269C315.043 189.269 314.947 189.173 314.947 189.077C314.947 188.982 315.043 188.886 315.138 188.886C316.764 189.173 318.484 188.695 319.727 187.643C319.823 187.547 319.918 187.547 320.014 187.643C320.11 187.739 320.11 187.834 320.014 187.93C319.058 188.79 317.72 189.364 316.286 189.364Z" fill="#595C5F" fill-opacity="0.17"/>
<path d="M320.97 178.942C320.875 178.942 320.779 178.942 320.683 178.846C319.823 178.273 318.867 178.177 317.911 178.464C317.72 178.56 317.529 178.368 317.433 178.177C317.433 177.986 317.433 177.795 317.624 177.699C318.771 177.221 320.11 177.412 321.161 178.081C321.353 178.177 321.353 178.464 321.257 178.655C321.161 178.751 321.066 178.846 320.97 178.942Z" fill="#595C5F" fill-opacity="0.17"/>
<path d="M310.072 178.846C309.976 178.846 309.881 178.751 309.881 178.751C309.785 178.56 309.785 178.368 309.976 178.273C310.837 177.603 311.984 177.412 313.036 177.699C313.227 177.795 313.322 177.986 313.227 178.177C313.131 178.368 312.94 178.464 312.749 178.368C311.888 178.081 311.028 178.273 310.263 178.846C310.263 178.846 310.167 178.846 310.072 178.846Z" fill="#595C5F" fill-opacity="0.17"/>
<path d="M285.98 189.555C285.98 169.572 302.232 153.317 322.213 153.317C342.193 153.317 358.445 169.572 358.445 189.555C358.445 209.539 342.193 225.794 322.213 225.794C302.232 225.794 285.98 209.539 285.98 189.555ZM287.223 189.555C287.223 208.87 302.997 224.647 322.308 224.647C341.62 224.647 357.394 208.87 357.394 189.555C357.394 170.241 341.62 154.464 322.308 154.464C302.997 154.464 287.223 170.145 287.223 189.555Z" fill="#595C5F" fill-opacity="0.17"/>
<path d="M319.249 181.619C319.249 182.193 318.962 182.575 318.58 182.575C318.198 182.575 317.911 182.097 318.006 181.619C318.006 181.046 318.293 180.663 318.676 180.663C319.058 180.663 319.345 181.141 319.249 181.619Z" fill="#595C5F" fill-opacity="0.17"/>
<path d="M312.366 181.619C312.366 182.193 312.08 182.575 311.697 182.575C311.315 182.575 311.028 182.097 311.124 181.619C311.124 181.046 311.41 180.663 311.793 180.663C312.08 180.663 312.366 181.141 312.366 181.619Z" fill="#595C5F" fill-opacity="0.17"/>
<path d="M318.676 180.663C318.676 180.663 318.007 180.854 317.337 180.472C317.337 180.472 317.433 181.237 318.676 181.046V180.663Z" fill="#595C5F" fill-opacity="0.17"/>
<path d="M311.793 180.663C311.793 180.663 311.123 180.854 310.454 180.472C310.454 180.472 310.55 181.237 311.793 181.046V180.663Z" fill="#595C5F" fill-opacity="0.17"/>
<path d="M329.192 185.348C329.192 185.348 323.647 186.304 324.125 178.942C324.603 171.58 320.014 175.691 319.058 171.962C319.058 171.962 317.051 171.675 317.624 174.161C317.624 174.161 307.777 176.934 307.491 174.066C307.204 171.197 311.793 163.835 320.684 166.034C320.684 166.034 331.2 164.408 333.972 174.448C336.744 184.488 334.641 190.607 338.37 193.667C342.098 196.727 328.905 196.918 328.905 196.918L329.192 185.348Z" fill="#595C5F" fill-opacity="0.17"/>
<path d="M332.538 186.591C331.582 188.026 330.243 188.982 328.618 189.269C326.419 189.747 325.559 187.739 326.228 185.731C326.897 184.01 328.809 181.619 330.912 182.097C333.016 182.575 333.589 184.87 332.538 186.591Z" fill="#595C5F" fill-opacity="0.17"/>
<path d="M321.735 76.7281C310.932 76.7281 302.137 67.9314 302.137 57.2224C302.137 46.4177 310.932 37.621 321.735 37.621C332.538 37.621 341.238 46.4177 341.238 57.2224C341.238 67.9314 332.442 76.7281 321.735 76.7281ZM321.735 39.0553C311.793 39.0553 303.571 47.1827 303.571 57.2224C303.571 67.1665 311.697 75.2939 321.735 75.2939C331.678 75.2939 339.804 67.1665 339.804 57.2224C339.804 47.1827 331.678 39.0553 321.735 39.0553Z" fill="#595C5F" fill-opacity="0.17"/>
<path d="M321.735 75.9632C325.272 75.9632 328.523 75.007 331.295 73.2859C331.2 71.1824 331.008 68.6963 330.913 67.4533C330.722 64.6805 328.427 62.5769 325.655 62.5769H317.72C314.948 62.5769 312.653 64.6805 312.462 67.4533C312.366 68.6963 312.175 71.1824 312.08 73.2859C314.948 75.007 318.198 75.9632 321.735 75.9632Z" fill="#595C5F" fill-opacity="0.17"/>
<path d="M326.515 53.3978C326.515 56.075 324.412 59.1347 321.735 59.1347C319.058 59.1347 316.955 56.075 316.955 53.3978C316.955 50.7205 319.058 48.6169 321.735 48.6169C324.316 48.6169 326.515 50.7205 326.515 53.3978Z" fill="#595C5F" fill-opacity="0.17"/>
<path d="M303.235 140.132C315.705 127.66 315.705 107.44 303.235 94.9683C290.766 82.4967 270.549 82.4966 258.079 94.9683C245.61 107.44 245.61 127.66 258.079 140.132C270.549 152.604 290.766 152.604 303.235 140.132Z" fill="#595C5F" fill-opacity="0.17"/>
<path opacity="0.5" d="M303.235 140.132C315.705 127.66 315.705 107.44 303.235 94.9683C290.766 82.4967 270.549 82.4966 258.079 94.9683C245.61 107.44 245.61 127.66 258.079 140.132C270.549 152.604 290.766 152.604 303.235 140.132Z" fill="#595C5F" fill-opacity="0.17"/>
<path d="M244.395 117.556C244.395 97.5725 260.647 81.3177 280.627 81.3177C300.608 81.3177 316.86 97.5725 316.86 117.556C316.86 137.54 300.608 153.795 280.627 153.795C260.647 153.795 244.395 137.54 244.395 117.556ZM245.542 117.556C245.542 136.871 261.316 152.648 280.627 152.648C299.939 152.648 315.713 136.871 315.713 117.556C315.713 98.2418 299.939 82.4651 280.627 82.4651C261.316 82.3695 245.542 98.1462 245.542 117.556Z" fill="#595C5F" fill-opacity="0.17"/>
<g opacity="0.5">
<path opacity="0.5" d="M244.395 117.556C244.395 97.5725 260.647 81.3177 280.627 81.3177C300.608 81.3177 316.86 97.5725 316.86 117.556C316.86 137.54 300.608 153.795 280.627 153.795C260.647 153.795 244.395 137.54 244.395 117.556ZM245.542 117.556C245.542 136.871 261.316 152.648 280.627 152.648C299.939 152.648 315.713 136.871 315.713 117.556C315.713 98.2418 299.939 82.4651 280.627 82.4651C261.316 82.3695 245.542 98.1462 245.542 117.556Z" fill="#595C5F" fill-opacity="0.17"/>
</g>
<path d="M261.03 138.688C263.707 135.532 275.178 136.584 275.178 136.584L286.459 135.532C295.732 133.62 300.512 136.202 303.476 139.739C303.476 139.739 303.476 139.739 303.476 139.835C297.644 145.859 289.518 149.588 280.532 149.588C272.502 149.588 265.141 146.624 259.596 141.747C260.074 140.313 260.552 139.261 261.03 138.688Z" fill="#263238"/>
<path d="M269.347 97.4769C269.347 97.4769 262.655 98.0506 266.766 107.23L271.354 104.553L272.119 99.0068L269.347 97.4769Z" fill="#263238"/>
<path opacity="0.6" d="M269.347 97.4769C269.347 97.4769 262.655 98.0506 266.766 107.23L271.354 104.553L272.119 99.0068L269.347 97.4769Z" fill="#595C5F" fill-opacity="0.17"/>
<path d="M287.988 135.532C286.937 137.731 283.878 141.556 275.943 141.556C271.067 141.556 270.78 139.548 272.214 137.349C276.899 135.054 276.899 130.465 275.656 126.449L286.076 116.409C285.407 121.572 284.929 130.369 287.702 134.863C287.797 135.15 287.893 135.341 287.988 135.532Z" fill="#595C5F" fill-opacity="0.17"/>
<path opacity="0.2" d="M281.775 120.616L275.561 126.544C275.847 127.596 276.039 128.648 276.23 129.7C278.62 129.222 281.679 126.927 282.539 124.154C283.017 122.433 282.444 120.712 281.775 120.616Z" fill="#595C5F" fill-opacity="0.17"/>
<path d="M287.702 107.995C287.128 115.835 286.172 120.425 282.157 124.345C276.134 130.369 267.626 126.64 265.81 118.799C264.184 111.724 265.427 100.154 273.075 97.1901C278.524 94.9909 284.738 97.6682 286.937 103.118C287.606 104.744 287.798 106.369 287.702 107.995Z" fill="#595C5F" fill-opacity="0.17"/>
<path d="M275.465 110.194C275.465 110.863 275.083 111.341 274.7 111.341C274.318 111.341 273.936 110.863 273.936 110.194C273.936 109.525 274.318 109.047 274.7 109.047C275.178 109.047 275.465 109.525 275.465 110.194Z" fill="#263238"/>
<path d="M268.295 110.098C268.295 110.768 267.913 111.246 267.53 111.246C267.148 111.246 266.766 110.768 266.766 110.098C266.766 109.429 267.148 108.951 267.53 108.951C267.913 108.951 268.295 109.429 268.295 110.098Z" fill="#263238"/>
<path d="M270.972 110.385C270.207 112.297 269.155 114.114 267.913 115.835C269.06 116.887 270.972 116.409 270.972 116.409V110.385Z" fill="#595C5F" fill-opacity="0.17"/>
<path d="M277.951 107.23C278.046 107.23 278.046 107.23 278.142 107.23C278.333 107.134 278.333 106.847 278.237 106.752C277.568 105.796 276.421 105.222 275.178 105.222C274.987 105.222 274.796 105.413 274.796 105.604C274.796 105.796 274.987 105.987 275.178 105.987C276.134 105.987 276.995 106.465 277.568 107.23C277.664 107.23 277.855 107.23 277.951 107.23Z" fill="#263238"/>
<path d="M265.523 107.23C265.619 107.23 265.714 107.134 265.81 107.039C266.192 106.178 266.957 105.604 267.913 105.413C268.104 105.413 268.295 105.222 268.2 105.031C268.2 104.839 268.009 104.648 267.817 104.744C266.67 104.935 265.619 105.7 265.141 106.847C265.045 107.039 265.141 107.23 265.332 107.325C265.332 107.23 265.427 107.23 265.523 107.23Z" fill="#263238"/>
<path d="M286.077 114.401C286.077 114.401 282.54 114.975 282.731 113.445C282.922 111.915 284.834 106.752 284.356 104.553C284.165 103.501 283.113 101.493 282.157 101.015C278.716 99.2937 252.521 103.405 273.936 88.1066V90.1145C273.936 90.1145 278.238 87.1504 279.098 88.2022C279.767 88.9671 277.282 91.8356 277.282 91.8356C277.282 91.8356 282.922 88.7759 283.782 90.2101C284.356 91.1663 280.819 93.3655 280.819 93.3655C280.819 93.3655 306.057 100.441 286.077 114.401Z" fill="#263238"/>
<path d="M270.876 116.887C270.876 116.887 278.524 115.548 278.238 118.226C277.951 120.999 276.708 128.361 273.936 128.361C272.788 128.361 273.458 127.309 273.458 127.309C273.458 127.309 272.215 128.361 270.876 128.361C269.729 128.361 270.781 126.736 270.781 126.736C270.781 126.736 269.442 127.979 268.295 127.692C267.817 127.596 268.391 126.831 268.104 125.684C267.244 123.102 265.81 118.799 266.192 117.556C266.67 115.74 270.876 116.887 270.876 116.887Z" fill="#263238"/>
<path opacity="0.5" d="M270.876 116.887C270.876 116.887 278.524 115.548 278.238 118.226C277.951 120.999 276.708 128.361 273.936 128.361C272.788 128.361 273.458 127.309 273.458 127.309C273.458 127.309 272.215 128.361 270.876 128.361C269.729 128.361 270.781 126.736 270.781 126.736C270.781 126.736 269.442 127.979 268.295 127.692C267.817 127.596 268.391 126.831 268.104 125.684C267.244 123.102 265.81 118.799 266.192 117.556C266.67 115.74 270.876 116.887 270.876 116.887Z" fill="#595C5F" fill-opacity="0.17"/>
<path d="M268.199 118.321C268.199 118.321 270.303 118.13 276.039 118.704C275.178 120.138 273.744 121.285 270.876 120.998C267.913 120.616 268.199 118.321 268.199 118.321Z" fill="#595C5F" fill-opacity="0.17"/>
<path opacity="0.5" d="M293.343 106.369C292.865 107.708 291.909 109.238 290.379 110.863C287.033 111.15 284.834 110.29 283.687 109.716C283.974 108.473 284.356 107.134 284.452 106.082C289.423 106.943 292.004 106.656 293.343 106.369Z" fill="#595C5F" fill-opacity="0.17"/>
<path d="M291.43 115.357C290.379 116.983 288.658 118.13 286.746 118.608C284.165 119.182 283.113 116.791 283.974 114.497C284.738 112.393 287.033 109.62 289.518 110.098C292.004 110.576 292.769 113.349 291.43 115.357Z" fill="#595C5F" fill-opacity="0.17"/>
<path d="M309.881 91.1662L312.366 93.5566L315.808 93.0785L316.382 96.5207L319.441 98.1462L317.911 101.206L319.441 104.266L316.382 105.891L315.808 109.333L312.366 108.855L309.881 111.246L307.395 108.855L303.954 109.333L303.38 105.891L300.321 104.266L301.85 101.206L300.321 98.1462L303.38 96.5207L303.954 93.0785L307.395 93.5566L309.881 91.1662Z" fill="#595C5F" fill-opacity="0.17"/>
<g opacity="0.9">
<path opacity="0.9" d="M308.064 105.126L304.527 101.206C304.24 100.919 304.336 100.441 304.623 100.154C304.91 99.8673 305.388 99.8673 305.674 100.154L308.256 103.023L314.278 97.4769C314.565 97.19 315.043 97.19 315.33 97.4769C315.617 97.7637 315.521 98.2418 315.234 98.5286L308.064 105.126Z" fill="#595C5F" fill-opacity="0.17"/>
</g>
<path d="M155.054 93.4016C159.107 76.2366 148.479 59.0359 131.317 54.9827C114.155 50.9296 96.9574 61.5588 92.905 78.7238C88.8525 95.8888 99.48 113.09 116.642 117.143C133.804 121.196 151.002 110.567 155.054 93.4016Z" fill="#595C5F" fill-opacity="0.17"/>
<path opacity="0.5" d="M155.054 93.4016C159.107 76.2366 148.479 59.0359 131.317 54.9827C114.155 50.9296 96.9574 61.5588 92.905 78.7238C88.8525 95.8888 99.48 113.09 116.642 117.143C133.804 121.196 151.002 110.567 155.054 93.4016Z" fill="#595C5F" fill-opacity="0.17"/>
<path d="M123.939 122.337C103.959 122.337 87.707 106.082 87.707 86.0986C87.707 66.1148 103.959 49.86 123.939 49.86C143.92 49.86 160.172 66.1148 160.172 86.0986C160.172 106.082 143.92 122.337 123.939 122.337ZM123.939 50.9118C104.628 50.9118 88.8542 66.6885 88.8542 86.003C88.8542 105.317 104.628 121.094 123.939 121.094C143.251 121.094 159.025 105.317 159.025 86.003C159.025 66.6885 143.251 50.9118 123.939 50.9118Z" fill="#595C5F" fill-opacity="0.17"/>
<g opacity="0.5">
<path opacity="0.5" d="M123.939 122.337C103.959 122.337 87.707 106.082 87.707 86.0986C87.707 66.1148 103.959 49.86 123.939 49.86C143.92 49.86 160.172 66.1148 160.172 86.0986C160.172 106.082 143.92 122.337 123.939 122.337ZM123.939 50.9118C104.628 50.9118 88.8542 66.6885 88.8542 86.003C88.8542 105.317 104.628 121.094 123.939 121.094C143.251 121.094 159.025 105.317 159.025 86.003C159.025 66.6885 143.251 50.9118 123.939 50.9118Z" fill="#595C5F" fill-opacity="0.17"/>
</g>
<path d="M123.939 118.034C130.822 118.034 137.132 115.835 142.294 112.202C140.956 108.186 139.235 103.214 138.088 100.919C135.602 95.5646 132.734 93.8435 111.415 93.7479C101.473 93.6522 98.3182 98.9112 97.7446 104.553C103.576 112.68 113.136 118.034 123.939 118.034Z" fill="#595C5F" fill-opacity="0.17"/>
<path opacity="0.8" d="M123.939 118.034C130.822 118.034 137.132 115.835 142.294 112.202C140.956 108.186 139.235 103.214 138.088 100.919C135.602 95.5646 132.734 93.8435 111.415 93.7479C101.473 93.6522 98.3182 98.9112 97.7446 104.553C103.576 112.68 113.136 118.034 123.939 118.034Z" fill="#595C5F" fill-opacity="0.17"/>
<path d="M134.742 63.6287C134.742 63.6287 140.191 62.8638 138.279 59.7085C138.088 59.326 137.514 59.5172 137.514 59.8997C137.323 61.0471 136.749 62.577 134.742 63.6287Z" fill="#263238"/>
<path d="M116.195 55.4057C116.195 55.4057 108.547 56.4575 109.981 51.4855C110.173 50.9118 110.937 50.9118 111.129 51.3898C111.702 52.8241 113.041 54.7364 116.195 55.4057Z" fill="#263238"/>
<path d="M114.857 74.9115C114.857 74.9115 111.989 82.0827 108.356 78.3537C107.974 77.9712 108.261 77.2063 108.834 77.3019C110.364 77.5888 112.658 77.3019 114.857 74.9115Z" fill="#263238"/>
<path d="M123.27 54.0671C123.27 54.0671 129.293 53.3022 127.763 48.8082C126.233 44.3142 124.704 41.7326 125.277 38.9597C125.277 38.9597 123.843 39.0553 123.939 41.5413C123.939 41.5413 122.314 36.1868 117.725 36.5693C113.136 36.9518 114.761 41.1589 110.937 40.5852C110.937 40.5852 112.467 42.4019 114.092 40.872C114.092 40.872 113.71 44.0274 109.503 42.3063C109.503 42.3063 112.085 44.123 112.085 47.3739C112.18 52.9197 112.085 56.3619 115.909 55.0233L123.27 54.0671Z" fill="#263238"/>
<path d="M115.048 56.9356C115.048 56.9356 112.945 53.8758 119.542 53.0153C126.138 52.1547 125.373 55.0232 125.373 55.0232L115.048 56.9356Z" fill="#595C5F" fill-opacity="0.17"/>
<path d="M113.996 77.9712C114.666 83.1345 115.239 90.4969 111.511 93.7479C116.1 96.8076 120.21 100.537 123.556 104.935C124.034 105.604 124.99 105.7 125.66 105.222C125.755 105.126 125.946 105.031 126.042 104.839C130.344 98.0506 127.38 94.704 127.38 94.704C124.034 93.9391 124.512 91.0706 125.66 87.1504L113.996 77.9712Z" fill="#595C5F" fill-opacity="0.17"/>
<path opacity="0.2" d="M117.151 81.8915L123.557 85.5249L125.564 87.0548C124.895 88.6802 124.608 90.4013 124.704 92.1224C120.497 90.8794 115.717 85.3337 117.151 81.8915Z" fill="#595C5F" fill-opacity="0.17"/>
<path d="M114.188 66.0191C112.849 74.4334 112.085 77.9712 115.335 83.0389C120.211 90.8794 130.822 90.6882 134.551 82.8476C137.992 75.772 139.713 63.2463 132.256 58.1786C126.998 54.5452 119.828 55.7882 116.1 61.0471C115.048 62.4813 114.379 64.2024 114.188 66.0191Z" fill="#595C5F" fill-opacity="0.17"/>
<path d="M126.807 71.0868C126.616 71.7561 126.903 72.4254 127.381 72.521C127.859 72.6167 128.337 72.1386 128.432 71.4693C128.623 70.7999 128.337 70.1306 127.954 70.035C127.476 69.9394 126.998 70.4175 126.807 71.0868Z" fill="#263238"/>
<path d="M134.455 72.8079C134.264 73.4772 134.551 74.1465 134.933 74.2422C135.411 74.3378 135.889 73.8597 135.985 73.1904C136.176 72.5211 135.889 71.8518 135.506 71.7561C135.124 71.6605 134.646 72.1386 134.455 72.8079Z" fill="#263238"/>
<path d="M135.315 71.7561L137.036 71.6605C137.036 71.6605 135.985 72.7123 135.315 71.7561Z" fill="#263238"/>
<path d="M129.866 81.3177C130.248 81.4133 130.535 81.4133 130.918 81.4133C131.013 81.4133 131.109 81.3177 131.109 81.1265C131.109 81.0309 131.013 81.0309 130.918 80.9352C129.197 80.9352 127.572 79.9791 126.52 78.5448C126.424 78.4492 126.329 78.4492 126.233 78.4492C126.138 78.5448 126.138 78.6405 126.138 78.7361C127.094 80.1703 128.336 81.0309 129.866 81.3177Z" fill="#263238"/>
<path d="M126.329 65.4454C126.424 65.541 126.711 65.541 126.807 65.4454C128.336 64.3937 130.631 65.1586 130.631 65.1586C130.822 65.2542 131.109 65.1586 131.109 64.9674C131.204 64.7761 131.109 64.4893 130.918 64.4893C130.822 64.4893 128.241 63.5331 126.329 64.7761C126.138 64.8717 126.138 65.1586 126.233 65.3498C126.329 65.3498 126.329 65.3498 126.329 65.4454Z" fill="#263238"/>
<path d="M137.61 69.8438C137.705 69.9394 137.801 70.035 137.992 70.035C138.183 70.035 138.375 69.8438 138.375 69.5569C138.279 68.2183 137.514 67.0709 136.367 66.4972C136.176 66.4016 135.889 66.4972 135.793 66.6885C135.698 66.8797 135.793 67.1665 135.985 67.2622C136.845 67.7402 137.514 68.6964 137.61 69.7482C137.514 69.6526 137.61 69.7482 137.61 69.8438Z" fill="#263238"/>
<path d="M127.763 70.035L129.483 69.9394C129.388 69.9394 128.336 71.0868 127.763 70.035Z" fill="#263238"/>
<path d="M131.682 73.1904C131.969 75.0071 132.543 76.7282 133.307 78.3537C132.351 78.7361 131.395 78.6405 130.439 78.258L131.682 73.1904Z" fill="#595C5F" fill-opacity="0.17"/>
<path d="M130.631 72.4254C130.344 74.0509 128.815 75.1027 127.19 74.8158C125.564 74.529 124.513 72.9991 124.8 71.3737L130.631 72.4254Z" fill="#595C5F" fill-opacity="0.17"/>
<path d="M137.992 73.7641C137.705 75.3895 136.176 76.4413 134.55 76.1545C132.925 75.8676 131.874 74.3378 132.16 72.7123L137.992 73.7641Z" fill="#595C5F" fill-opacity="0.17"/>
<path d="M135.411 76.5369C135.22 76.5369 135.028 76.5369 134.837 76.4413C133.116 76.1545 131.969 74.6246 132.065 72.9035L131.204 72.7123C131.013 73.4772 130.535 74.0509 129.866 74.529C129.101 75.0071 128.241 75.1983 127.38 75.1027C125.66 74.8158 124.512 73.286 124.608 71.5649L123.078 71.278L113.423 70.2263L113.518 69.5569L123.27 70.6087L125.468 70.9912V71.1824C125.373 71.7561 125.373 72.3298 125.66 72.8079C126.042 73.7641 126.902 74.3378 127.954 74.4334C129.388 74.529 130.535 73.4772 130.822 72.043C130.822 71.9474 130.918 71.9474 131.013 71.9474L132.83 72.2342C132.925 72.2342 132.925 72.3298 132.925 72.4254C132.638 73.9553 133.594 75.4852 135.124 75.6764C135.793 75.772 136.462 75.5808 137.036 75.1983C137.61 74.8158 137.992 74.1465 138.183 73.4772L138.852 73.5728C138.661 74.4334 138.183 75.1983 137.514 75.6764C136.749 76.3457 136.08 76.5369 135.411 76.5369Z" fill="#263238"/>
<path d="M113.041 72.4254C113.041 72.4254 105.488 55.6925 121.167 54.3539C123.27 54.1627 127.572 53.8758 129.579 54.3539C132.256 55.0232 138.757 59.0391 136.176 62.9594C136.176 62.9594 133.881 59.7084 126.138 60.3777C118.299 61.1427 119.255 74.0509 113.041 72.4254Z" fill="#263238"/>
<path d="M110.555 72.0429C110.842 73.6684 111.702 75.1026 113.041 76.0588C114.761 77.3018 116.482 75.9632 116.578 73.8596C116.674 72.0429 115.909 69.0788 113.805 68.6964C112.276 68.4095 110.842 69.3657 110.555 70.8955C110.459 71.278 110.459 71.6605 110.555 72.0429Z" fill="#595C5F" fill-opacity="0.17"/>
<path d="M114.474 81.6046C112.658 81.8915 110.937 80.5528 110.65 78.7361C110.459 77.3019 111.128 75.9632 112.371 75.2939L112.658 75.8676C111.606 76.4413 111.033 77.5887 111.224 78.7361C111.415 80.266 112.849 81.2221 114.283 81.0309C115.813 80.8397 116.769 79.4054 116.578 77.9712C116.386 76.7282 115.335 75.6764 113.996 75.6764V75.0071C115.622 75.1027 116.864 76.3457 117.151 77.8756C117.629 79.5967 116.386 81.3178 114.474 81.6046Z" fill="#595C5F" fill-opacity="0.17"/>
<path d="M120.497 206.946C132.967 194.475 132.967 174.254 120.497 161.783C108.028 149.311 87.8106 149.311 75.3412 161.783C62.8717 174.254 62.8717 194.475 75.3412 206.946C87.8106 219.418 108.028 219.418 120.497 206.946Z" fill="#595C5F" fill-opacity="0.17"/>
<path opacity="0.5" d="M120.497 206.946C132.967 194.475 132.967 174.254 120.497 161.783C108.028 149.311 87.8106 149.311 75.3412 161.783C62.8717 174.254 62.8717 194.475 75.3412 206.946C87.8106 219.418 108.028 219.418 120.497 206.946Z" fill="#595C5F" fill-opacity="0.17"/>
<path d="M109.886 197.778C114.475 192.902 113.423 186.591 111.607 178.751C110.651 174.735 115.909 171.771 112.276 165.843C108.834 160.106 88.854 154.56 88.376 164.886C81.3016 166.894 81.206 173.205 81.8752 183.34C82.162 187.165 81.0148 189.077 79.5808 190.416C75.8524 193.954 77.5732 200.169 82.64 201.125C91.244 202.75 104.246 203.898 109.886 197.778Z" fill="#263238"/>
<path d="M102.716 200.456L89.4274 198.448C81.5882 197.587 76.9995 200.934 74.2271 205.81C80.0587 212.216 88.4714 216.232 97.8402 216.232C103.767 216.232 109.312 214.607 114.092 211.834C112.563 200.264 102.716 200.456 102.716 200.456Z" fill="#595C5F" fill-opacity="0.17"/>
<path d="M92.9649 183.723C93.1561 188.121 92.8693 196.057 89.4277 198.543C89.4277 198.543 93.7297 207.053 100.135 209.922C104.055 207.244 102.812 200.456 102.812 200.456C98.2229 198.639 98.8921 195.101 100.135 191.85L92.9649 183.723Z" fill="#595C5F" fill-opacity="0.17"/>
<path opacity="0.2" d="M95.9283 187.069L100.135 191.946C99.8479 192.711 99.5611 193.476 99.3699 194.241C97.5535 193.667 95.3547 191.372 95.4503 189.364C95.4503 188.599 95.6415 187.834 95.9283 187.069Z" fill="#595C5F" fill-opacity="0.17"/>
<path d="M89.7144 175.691C90.288 182.862 90.3836 186.018 94.112 189.651C99.6568 195.101 108.452 192.806 110.077 185.635C111.511 179.133 110.364 168.424 103.194 165.651C98.1272 163.643 92.3912 166.129 90.3836 171.293C89.81 172.631 89.6188 174.161 89.7144 175.691Z" fill="#595C5F" fill-opacity="0.17"/>
<path d="M94.6854 164.886C104.054 167.946 86.5594 181.524 86.7506 189.46C83.0222 180.185 84.4562 161.54 94.6854 164.886Z" fill="#263238"/>
<path d="M105.297 177.412C105.871 178.751 106.54 179.994 107.496 181.141C106.923 181.619 106.158 181.715 105.393 181.619L105.297 177.412Z" fill="#595C5F" fill-opacity="0.17"/>
<path d="M102.812 183.723C103.098 183.723 103.481 183.723 103.768 183.627C103.863 183.627 103.959 183.532 103.863 183.436C103.863 183.34 103.768 183.245 103.672 183.34C102.238 183.627 100.708 183.245 99.6568 182.193C99.5612 182.097 99.4656 182.097 99.37 182.193C99.2744 182.289 99.2744 182.384 99.37 182.48C100.326 183.34 101.473 183.818 102.812 183.723Z" fill="#263238"/>
<path d="M90.8616 164.886C87.9936 170.145 96.3108 167.181 103.098 169.38C109.312 171.388 112.467 175.5 111.798 169.572C110.938 162.305 95.4504 156.472 90.8616 164.886Z" fill="#263238"/>
<path d="M98.7006 174.448C98.7962 174.448 98.8918 174.352 98.8918 174.257C99.3698 173.492 100.135 173.014 100.995 173.014C101.186 173.014 101.282 172.823 101.282 172.631C101.282 172.44 101.186 172.344 100.995 172.344C99.8478 172.44 98.8918 173.014 98.3182 173.874C98.2226 174.066 98.2226 174.257 98.4138 174.352C98.5094 174.448 98.605 174.448 98.7006 174.448Z" fill="#263238"/>
<path d="M101.664 176.36C101.569 176.36 101.569 176.36 101.473 176.36C101.091 176.743 100.517 176.838 100.039 176.743C99.9436 176.743 99.848 176.743 99.7524 176.838C99.7524 176.934 99.7524 177.03 99.848 177.125C100.517 177.221 101.186 177.03 101.664 176.647C101.76 176.552 101.76 176.456 101.664 176.36C101.76 176.36 101.76 176.36 101.664 176.36Z" fill="#263238"/>
<path d="M108.261 175.978C108.165 175.978 108.165 175.978 108.069 176.073C107.687 176.456 107.113 176.647 106.635 176.552C106.54 176.552 106.444 176.552 106.349 176.743C106.349 176.838 106.349 176.934 106.54 177.03C107.209 177.125 107.878 176.934 108.356 176.456C108.452 176.36 108.452 176.265 108.356 176.169C108.356 176.073 108.261 175.978 108.261 175.978Z" fill="#263238"/>
<path d="M108.834 173.301C108.93 173.301 109.026 173.205 109.026 173.205C109.121 173.014 109.121 172.823 109.026 172.727C108.165 171.962 107.018 171.771 105.966 171.962C105.775 172.058 105.68 172.249 105.775 172.44C105.871 172.631 106.062 172.727 106.158 172.631C107.018 172.44 107.878 172.631 108.548 173.205C108.643 173.301 108.739 173.301 108.834 173.301Z" fill="#263238"/>
<path d="M97.936 220.726C77.9556 220.726 61.7036 204.472 61.7036 184.488C61.7036 164.504 77.9556 148.249 97.936 148.249C117.916 148.249 134.168 164.504 134.168 184.488C134.168 204.376 117.916 220.726 97.936 220.726ZM97.936 149.301C78.6248 149.301 62.8508 165.078 62.8508 184.392C62.8508 203.707 78.6248 219.483 97.936 219.483C117.247 219.483 133.021 203.707 133.021 184.392C133.021 165.078 117.247 149.301 97.936 149.301Z" fill="#595C5F" fill-opacity="0.17"/>
<g opacity="0.5">
<path opacity="0.5" d="M97.936 220.726C77.9556 220.726 61.7036 204.472 61.7036 184.488C61.7036 164.504 77.9556 148.249 97.936 148.249C117.916 148.249 134.168 164.504 134.168 184.488C134.168 204.376 117.916 220.726 97.936 220.726ZM97.936 149.301C78.6248 149.301 62.8508 165.078 62.8508 184.392C62.8508 203.707 78.6248 219.483 97.936 219.483C117.247 219.483 133.021 203.707 133.021 184.392C133.021 165.078 117.247 149.301 97.936 149.301Z" fill="#595C5F" fill-opacity="0.17"/>
</g>
<path d="M415.497 225.551C415.583 225.637 414.983 226.494 417.384 226.151C421.07 225.637 427.672 222.035 431.959 219.463C433.931 218.348 434.103 215.689 432.388 214.146C430.159 212.174 427.844 209.515 428.015 207.2C428.272 204.713 433.502 201.797 437.875 199.825C440.19 198.796 440.447 195.709 438.475 194.165C437.103 193.136 435.903 191.936 435.903 190.821C435.817 189.106 439.676 186.962 443.191 185.247C445.163 184.304 445.677 181.817 444.22 180.102C443.705 179.501 443.534 178.815 443.791 178.044C444.134 176.929 444.991 174.271 445.849 171.269C446.792 168.182 443.105 165.695 440.619 167.753C437.103 170.669 433.502 173.499 432.045 174.356C431.359 174.785 430.673 174.699 429.987 174.271C428.015 172.984 425.271 173.927 424.843 176.329C423.728 182.331 421.928 189.363 419.098 191.078C417.555 192.021 416.012 192.107 414.726 191.936C412.839 191.678 411.125 192.965 410.953 194.766C410.096 202.398 409.153 218.434 415.497 225.551Z" fill="#B8D6D9"/>
<path d="M433.331 190.821C431.016 190.992 429.387 191.507 428.358 191.85C430.416 188.849 431.873 187.305 431.873 187.305C432.045 187.134 432.045 186.876 431.873 186.705C431.702 186.533 431.445 186.533 431.273 186.705C431.273 186.705 427.844 190.221 424.157 197.081C422.356 186.105 426.901 176.5 426.986 176.414C427.072 176.243 426.986 176.071 426.815 175.986C426.643 175.9 426.472 175.986 426.386 176.157C426.3 176.243 421.413 186.448 423.642 198.024C423.042 199.139 422.442 200.34 421.842 201.626C420.127 205.399 418.327 210.201 416.955 215.947C416.012 214.146 413.782 209.429 413.525 202.826C413.525 202.655 413.354 202.483 413.182 202.483C413.011 202.483 412.839 202.655 412.839 202.826C413.097 210.459 416.012 215.689 416.698 216.804C414.811 224.865 413.697 234.727 414.554 246.389C414.554 246.647 414.811 246.818 414.983 246.818C414.983 246.818 414.983 246.818 415.069 246.818C415.24 246.818 415.412 246.561 415.412 246.389C414.383 230.954 416.612 218.605 419.87 209.172C420.642 208.229 423.042 205.828 426.729 205.228C426.901 205.228 426.986 205.056 426.986 204.885C426.986 204.713 426.815 204.627 426.643 204.627C423.728 205.056 421.67 206.6 420.384 207.714C422.699 201.197 425.443 196.223 427.672 192.879C428.358 192.536 430.33 191.764 433.331 191.507C433.502 191.507 433.674 191.335 433.588 191.164C433.674 190.907 433.502 190.821 433.331 190.821Z" fill="#A8C4C9"/>
<path d="M408.038 228.81C405.037 228.896 399.293 225.38 395.52 222.807C393.977 221.692 393.891 219.463 395.435 218.262C396.463 217.405 397.149 216.375 396.806 214.918C396.292 213.203 392.262 212.602 388.318 212.431C386.003 212.345 384.717 209.601 386.261 207.8C387.032 206.943 387.461 205.999 387.375 205.313C387.204 203.855 382.317 200.683 378.373 198.367C376.486 197.252 376.572 194.508 378.458 193.394C379.744 192.622 380.688 191.764 380.259 190.992C379.83 190.221 378.887 188.334 377.858 186.276C376.572 183.789 379.401 181.131 381.802 182.503C384.889 184.304 387.975 185.933 389.261 186.447C390.462 186.876 391.834 186.19 393.12 185.247C394.749 183.961 397.235 184.99 397.578 187.048C398.693 193.222 400.922 202.569 403.837 203.77C404.866 204.198 405.809 204.113 406.752 203.855C408.553 203.255 410.439 204.799 410.353 206.685C410.096 214.575 409.41 228.81 408.038 228.81Z" fill="#B8D6D9"/>
<path d="M406.495 223.064C406.58 223.064 406.666 222.979 406.666 222.893C406.752 222.721 409.41 217.576 408.81 210.03C408.81 209.858 408.638 209.687 408.467 209.772C408.295 209.772 408.124 209.944 408.209 210.116C408.724 216.547 406.838 221.178 406.237 222.378C404.094 216.547 401.522 211.316 398.95 206.857C399.807 196.566 394.491 188.077 394.491 187.991C394.406 187.82 394.234 187.82 394.063 187.905C393.891 187.991 393.891 188.163 393.977 188.334C394.063 188.42 398.864 196.223 398.435 205.828C392.262 195.537 386.26 189.535 386.175 189.363C386.003 189.192 385.746 189.192 385.574 189.363C385.403 189.535 385.403 189.792 385.574 189.963C385.66 190.049 389.947 194.337 394.92 201.797C392.005 200.683 388.832 200.168 385.832 200.168C385.66 200.168 385.489 200.34 385.489 200.511C385.489 200.683 385.66 200.854 385.832 200.854C389.004 200.768 392.434 201.454 395.52 202.741C397.235 205.399 399.035 208.4 400.75 211.745C399.121 210.63 395.863 209.086 391.748 210.201C391.576 210.287 391.49 210.459 391.49 210.63C391.576 210.802 391.748 210.887 391.919 210.887C397.149 209.515 400.836 212.602 401.436 213.203C406.152 222.721 410.181 234.727 410.782 248.447C410.782 248.705 410.953 248.876 411.21 248.876C411.468 248.876 411.639 248.705 411.639 248.447C411.125 239.014 409.153 230.525 406.495 223.064Z" fill="#A8C4C9"/>
<path d="M413.011 241.673H411.296H396.721L400.579 267.142C400.836 268.857 402.294 270.143 404.094 270.143H420.299C422.014 270.143 423.557 268.857 423.814 267.142L427.672 241.673H413.011Z" fill="#A8C4C9"/>
<path d="M426.815 246.732L427.587 241.673H413.011H411.296H396.721L397.492 246.732H426.815Z" fill="#B8D6D9"/>
<path d="M430.159 243.817H394.149C393.291 243.817 392.691 242.959 393.034 242.187L393.806 240.301C393.977 239.872 394.406 239.529 394.92 239.529H429.387C429.902 239.529 430.331 239.872 430.502 240.301L431.274 242.187C431.617 242.959 431.016 243.817 430.159 243.817Z" fill="#A8C4C9"/>
</svg>
