<svg xmlns="http://www.w3.org/2000/svg" xmlns:xlink="http://www.w3.org/1999/xlink" width="618.019" height="317.457" viewBox="0 0 618.019 317.457"><defs><style>.a{fill:#f2f2f2;}.b,.g{fill:#c1dee2;}.b{opacity:0.2;}.c{opacity:0.7;}.d{fill:#69a1ac;}.e{fill:#89c5cc;}.f{opacity:0.5;}.h{fill:#f3c8b6;}.i{fill:#efc692;}.j{fill:#ef6c74;}.k{fill:none;stroke:#f8c1c5;stroke-miterlimit:10;}.l{fill:#936024;}.m,.r{fill:#00143a;}.m{opacity:0.15;}.n{fill:#133c77;}.o{opacity:0.34;fill:url(#a);}.p{fill:#392914;}.q{fill:#020f23;}.s{fill:#fcd588;}.t{fill:#f6ba99;}.u{opacity:0.46;}.v{fill:#f2957e;}.w{fill:#f3f0eb;}.x{fill:#f17f60;}.y{fill:#fce8cf;}.z{fill:#f2bd5f;}</style><linearGradient id="a" x1="0.038" y1="0.932" x2="0.582" y2="0.551" gradientUnits="objectBoundingBox"><stop offset="0" stop-color="#fff"/><stop offset="0.232" stop-color="#fff" stop-opacity="0.769"/><stop offset="1" stop-color="#fff" stop-opacity="0"/></linearGradient></defs><g transform="translate(-641.981 -258.911)"><g transform="translate(641.981 258.911)"><path class="a" d="M105.1,141.466a25.433,25.433,0,0,1-.545,3.265A9.744,9.744,0,0,0,105.1,141.466Zm-5.9-25.58A62.733,62.733,0,0,0,86.309,98.225c1.041-3.778,11.159-9.678,4.762-12.8-3.4-1.651-6.619,1.553-7.173,4.8-.38,2.229.52,4.956,1.434,7.052q-2.453-2.355-5.069-4.541c-2.4-2.015-4.861-3.964-7.339-5.887,3.714-3.871,6.861-14.545,1.534-15.985-7.866-2.119-3.393,11.982-2.713,14.633a.421.421,0,0,0,.353-.155c-.03.248-.067.513-.115.781-4.74-3.659-9.545-7.239-14.206-11A20.407,20.407,0,0,0,59.21,73.01a22.9,22.9,0,0,0,2.775-4.523c1.118-2.576,2.113-6.644-1.276-7.947-3.686-1.42-5.16,3.2-5.043,5.9a35.883,35.883,0,0,0,1.044,5.436c.113.567-.071,3.159.649,2.01a5.514,5.514,0,0,0,.024.915q-1.255-1.017-2.495-2.056a.966.966,0,0,0,.053-.314.936.936,0,0,0-1.384-.809q-1.637-1.4-3.239-2.846c-2.257-2.048-4.548-4.156-6.827-6.312.448-.427.232-.974.648-1.424s1.265-.73,1.758-1.153a12.447,12.447,0,0,0,2.94-4.039c1.157-2.426,2.553-7.462-1.248-8.391-3.919-.959-5.627,3.908-5.719,6.9a76.038,76.038,0,0,0,1.117,7.627c-4.217-4.008-8.377-8.178-12.171-12.443,1.079-.067,4.025-2.437,4.612-3.073,1.433-1.55,3.663-4.926.925-6.507-2.433-1.4-5.219.96-6.113,3.159a30.188,30.188,0,0,0-.526,5.163c-1.573-1.811-3.078-3.636-4.486-5.472q-1.409-1.831-2.654-3.766a1.761,1.761,0,0,0,.493-.538c3.891-.871,8.575-7.253,3.852-9.141-2.248-.9-4.52,1.317-5.505,3.084A22.8,22.8,0,0,0,20.731,36,73.487,73.487,0,0,1,14.86,22.439a.858.858,0,0,0,.627-.83,11.7,11.7,0,0,0,4.528-4.325c.759-1.34,2.092-4.381-.374-4.973-3.21-.771-4.942,4.156-5.076,6.546-.016.277.027,1.079.076,1.814a1.063,1.063,0,0,0-.329.023c-.881-2.918-1.617-5.882-2.235-8.857,1.7-.645,1.52-9.712.3-10.941C9.661-1.856,8.069,2.407,8.321,4.6a14.555,14.555,0,0,0,3.113,6.915c.162.214.119.206.141-.106a.62.62,0,0,0,.167.339,39.378,39.378,0,0,0,.063,3.985,92.165,92.165,0,0,0,1.729,10.31q.279,1.236.619,2.449a20.14,20.14,0,0,0-4.121-2.348c-1.943-.751-4.917-1.515-6.727.024a3.172,3.172,0,0,0-.113,4.752c1.611,1.62,4.387,1.413,6.452,1.138.934-.124,5.923-.788,4.693-1.544a4.051,4.051,0,0,1,.5.206q.2.593.408,1.181c-.028.019-.052.039-.083.057.033-.017.056-.034.086-.051A45.979,45.979,0,0,0,21,42.947a10.833,10.833,0,0,0-2.629-.556c-2.631-.193-8.023,2.124-4.917,5.448,2.978,3.186,7.155-.618,10.31-1.278a148.876,148.876,0,0,0,10.7,11.886.848.848,0,0,0-.5.46,20.94,20.94,0,0,0-4.352-1.821c-1.932-.3-5.862-.344-7.216,1.44-1.666,2.194.327,3.8,2.446,4.093,3.073.425,6.978-1.269,9.852-2.426a.969.969,0,0,0,.9-.354l.189-.072c3.818,3.777,7.768,7.416,11.691,10.973h-.121a10.132,10.132,0,0,0-3.22-1.268c-2.648-.5-5.723-.342-7.746,1.659s-2.591,5.323-.293,7.321c4.6,4,10.54-5.981,12.726-6.5,3.985,3.574,8.173,6.889,12.421,10.13a7.251,7.251,0,0,0-1.44-.216c-4.008-.172-13.112,5.2-7.966,9.753,4.485,3.964,9-4.355,12.288-7.354,4,3.018,8.022,6.013,11.941,9.138a10.92,10.92,0,0,0-6.2.365c-2.23.8-5.8,2.7-4.2,5.686,1.62,3.032,5.936,1.388,8.171.281,1.219-.6,3.624-2.551,5.78-3.431a75.254,75.254,0,0,1,16.075,18.37,65.791,65.791,0,0,1,6.367,14.166c1,3.157,2.927,8.447,2.817,12.63C106.008,133.045,102.648,123.179,99.2,115.886ZM11.436,16.2c-.334,0-1.586-3.382-1.98-3.882A11.284,11.284,0,0,0,4.991,9.078C2.248,7.894-1.235,9.617.435,13.04c1.333,2.733,4.946,3.283,8.074,3.283C9.578,16.323,10.59,16.259,11.436,16.2Z" transform="translate(209.082 69.971) rotate(3)"/><path class="b" d="M0,102.045a11.887,11.887,0,0,0,.545,2.176A4.594,4.594,0,0,1,0,102.045ZM4.362,83.8a45.39,45.39,0,0,1,9.414-12.77c-.76-2.731-8.148-7-3.477-9.256,2.481-1.194,4.833,1.123,5.238,3.468a9.74,9.74,0,0,1-1.047,5.1q1.791-1.7,3.7-3.284c1.756-1.457,3.549-2.867,5.358-4.257-2.712-2.8-5.01-10.517-1.12-11.558,5.743-1.532,2.477,8.664,1.981,10.581a.309.309,0,0,1-.258-.112c.022.179.049.371.083.564,3.462-2.646,6.969-5.234,10.373-7.951a14.769,14.769,0,0,1-1.047-1.527,16.5,16.5,0,0,1-2.026-3.27c-.816-1.863-1.543-4.8.932-5.746,2.691-1.027,3.767,2.313,3.682,4.267a25.7,25.7,0,0,1-.762,3.931c-.082.41.052,2.284-.474,1.453a3.982,3.982,0,0,1-.018.662q.917-.735,1.821-1.487a.7.7,0,0,1-.039-.227.684.684,0,0,1,1.011-.586q1.2-1.011,2.365-2.057c1.648-1.481,3.321-3.005,4.984-4.564-.327-.309-.17-.7-.473-1.029s-.923-.527-1.284-.833a9,9,0,0,1-2.146-2.921c-.846-1.755-1.865-5.4.911-6.067,2.861-.693,4.108,2.826,4.176,4.989a54.43,54.43,0,0,1-.816,5.515c3.079-2.9,6.117-5.913,8.887-9-.788-.048-2.938-1.762-3.367-2.221-1.046-1.121-2.674-3.562-.676-4.706,1.777-1.014,3.811.694,4.463,2.285a21.563,21.563,0,0,1,.384,3.734c1.148-1.309,2.248-2.629,3.276-3.957q1.028-1.324,1.938-2.723a1.275,1.275,0,0,1-.36-.389c-2.841-.63-6.261-5.245-2.813-6.609,1.641-.649,3.3.953,4.02,2.23a16.326,16.326,0,0,1,.5,2.562,52.827,52.827,0,0,0,4.287-9.8.621.621,0,0,1-.458-.6A8.511,8.511,0,0,1,62.182,12.5c-.554-.969-1.527-3.167.273-3.6,2.343-.557,3.609,3.005,3.707,4.733.011.2-.02.781-.056,1.311a.793.793,0,0,1,.24.017c.643-2.11,1.181-4.254,1.632-6.4C66.74,8.1,66.869,1.539,67.756.651c1.985-1.99,3.148,1.093,2.964,2.681a10.482,10.482,0,0,1-2.274,5c-.118.155-.086.149-.1-.076a.444.444,0,0,1-.122.245,28.118,28.118,0,0,1-.046,2.882,66.045,66.045,0,0,1-1.262,7.454q-.2.895-.452,1.771a14.762,14.762,0,0,1,3.009-1.7c1.419-.543,3.59-1.1,4.912.017a2.279,2.279,0,0,1,.082,3.436c-1.176,1.171-3.2,1.021-4.711.823-.682-.09-4.325-.569-3.427-1.117a3.009,3.009,0,0,0-.364.149q-.143.428-.3.854c.021.014.039.028.061.042-.024-.012-.041-.025-.062-.037a33.138,33.138,0,0,1-4.2,7.98,7.984,7.984,0,0,1,1.92-.4c1.921-.139,5.858,1.536,3.59,3.939-2.175,2.3-5.224-.447-7.528-.924a108.059,108.059,0,0,1-7.816,8.594.618.618,0,0,1,.363.333,15.4,15.4,0,0,1,3.178-1.317c1.41-.22,4.28-.249,5.268,1.041,1.216,1.587-.239,2.748-1.786,2.96-2.243.307-5.094-.918-7.194-1.754a.709.709,0,0,1-.659-.256l-.138-.052c-2.788,2.731-5.673,5.363-8.537,7.934h.089a7.446,7.446,0,0,1,2.351-.917c1.933-.361,4.179-.247,5.656,1.2s1.892,3.849.215,5.294c-3.357,2.893-7.7-4.325-9.292-4.7-2.909,2.584-5.968,4.981-9.069,7.324a5.3,5.3,0,0,1,1.052-.156c2.926-.125,9.574,3.762,5.817,7.052-3.274,2.867-6.57-3.149-8.972-5.318-2.922,2.182-5.857,4.348-8.719,6.607a8.048,8.048,0,0,1,4.53.264c1.628.581,4.232,1.956,3.069,4.112-1.183,2.192-4.334,1-5.966.2a45.283,45.283,0,0,0-4.22-2.481A54.569,54.569,0,0,0,6.924,82.919,47.354,47.354,0,0,0,2.276,93.162C1.544,95.445.138,99.269.219,102.294-.607,96.205,1.846,89.071,4.362,83.8Zm63.85-72.337c.238,0,1.133-2.416,1.414-2.774a8.062,8.062,0,0,1,3.19-2.31c1.959-.846,4.447.385,3.254,2.83-.953,1.952-3.534,2.345-5.769,2.345C69.538,11.552,68.815,11.506,68.212,11.461Z" transform="translate(41.433 3.994) rotate(-3)"/><g class="c" transform="translate(477.988 99.476)"><path class="d" d="M14.756.023C22.19.417,30.882,5.691,30.827,13.8c-.04,5.9-.829,11.695-.555,17.614a47.4,47.4,0,0,0,2.849,13.815c1.538,4.285,5.253,8.186,5.857,12.655a18.778,18.778,0,0,1-1.623,9.331C35.874,70.4,36.5,70.2,38.473,73.211c3.858,5.895,7.261,11.882,9.4,18.663,3.081,9.767,4.6,20.964,2.014,31.03-.328,1.278-1.045,5.913-2.869,6.051-2.037.154-.822-2.412-.625-3.262,1.257-5.421,2.366-10.158,2.132-15.822-.9-21.854-14.865-37.658-23.007-56.981-.454-1-1.386-3.366-2.042-4.931-1.036-2.471-1.858-7.052-3.411-8.966-2.925-3.607-.61,3.27-.1,4.589.639,1.669,1.347,3.446,2.027,4.921,3.1,6.832,6.574,14.3,9.776,21.342C14.5,71.911,4.75,50.409,1.625,36.617-.951,25.255-2.715-.864,14.756.023" transform="matrix(0.995, -0.105, 0.105, 0.995, 0, 64.301)"/><path class="e" d="M55.443.066c-12.429.985-20.408,9.18-24.123,20.641-2,6.177-2.231,12.522-3.344,18.869C26.3,49.125,22.7,56.362,15.665,63.166a23.743,23.743,0,0,0-4.928,6.585,28.048,28.048,0,0,0-5.689,8.123C3.2,81.957,2.672,86.856,4.81,90.927a13.382,13.382,0,0,0,3.495,4.289A84,84,0,0,0,.026,132.975c.208,7.818.59,15.639,1.036,23.447.12,2.1.8,5.559,1.83,2.042.939-3.216-.239-8.265-.348-11.625-.53-16.367-.984-31.249,5.76-46.541q1.061-2.4,2.238-4.77a1.588,1.588,0,0,0,.131-.09c.03.023.057.048.087.07.05-.089.118-.195.2-.313a4.219,4.219,0,0,0,.605-.848,6.15,6.15,0,0,0,1.279-2.334s0-.011,0-.015a220.347,220.347,0,0,1,13.84-19.55c-.037.046,5.3-7.211,4.473-3.2-.4,1.934-4.321,5.617-5.906,7.665A190.965,190.965,0,0,0,14.2,92.832a8.035,8.035,0,0,0-1.581,2.529c-.26.49-.5.983-.74,1.414,12.121,4,21.55-4.058,27.979-13.433l.022-.033a40.746,40.746,0,0,1,6.465-7.21c4.177-3.417,8.651-4.019,13.576-5.7,13.432-4.585,19.142-21.977,20.956-34.882C82.928,20.955,72.918-1.37,55.443.066" transform="translate(58.887 42.231)"/><path class="e" d="M53.417,1.248C38.939,12.609,30.275,29.971,23.035,46.42c-8.086,18.372-14.381,37.3-17.313,57.168C3.8,116.642,1.592,129.742.521,142.9a140.143,140.143,0,0,0-.48,14.072c.008.385.214,10.856,2.123,8.691,1.086-1.231-.194-10.859-.172-12.429a201.2,201.2,0,0,1,2.383-26.384c2.114-14.4,3.7-28.8,7.184-42.956a49.031,49.031,0,0,1,1.813-6.367c.855-2.154.028-1.277,1.916-1.912,1.834-.618,3.933-.2,5.862-1.024,7.65-3.28,12.8-13.745,16.617-20.549A139.178,139.178,0,0,0,48.1,29.313a182.7,182.7,0,0,0,5.115-18.8A50.288,50.288,0,0,1,54.63,4.439a14.044,14.044,0,0,0,.905-1.881c.1-1.016-.426-1.7-.357-2.551q-.893.6-1.761,1.241" transform="translate(36.707 7.724) rotate(-8)"/><path class="e" d="M0,0A39.738,39.738,0,0,0,39.755,39.721,39.738,39.738,0,0,0,79.511,0" transform="translate(20.22 178.26)"/><path class="d" d="M41.652,49.515a6.106,6.106,0,0,1-4.166-1.463,8.352,8.352,0,0,1-2.245-3.605A31.028,31.028,0,0,1,34.059,35.5c-.167-6.228-.807-12.722-6.514-17.655-.672-.58-1.389-1.133-2.082-1.667-.618-.477-1.258-.969-1.863-1.48l-.289-.243c-1.945-1.633-3.956-3.321-4.2-5.991a4.155,4.155,0,0,1,.711-3.242,3.079,3.079,0,0,1,2.408-.855,9.914,9.914,0,0,1,2.046.25c.107.023.4.133.8.284a15.643,15.643,0,0,0,4.07,1.156c.313,0,.519-.071.611-.21a.607.607,0,0,0-.027-.569c-.235-.564-1.042-1.062-2.4-1.48-2.73-.3-5.308-.563-6.843-.563a5.086,5.086,0,0,0-.993.071C14.4,4.416,10.238,8.238,7.111,14.663a55.6,55.6,0,0,0-4.69,17.023c-.116.986-.221,2.053-.321,3.264H0a70.763,70.763,0,0,1,.779-7.866,50.458,50.458,0,0,1,5.554-16.23,24.091,24.091,0,0,1,5.426-6.6A15.094,15.094,0,0,1,19.29.882,11.158,11.158,0,0,1,20.5.838c.79,0,1.742.03,2.68.085A7,7,0,0,1,26.156.046C26.571.016,27,0,27.423,0A21.587,21.587,0,0,1,34.59,1.312,30.878,30.878,0,0,1,41.435,4.79,35.713,35.713,0,0,1,47.35,9.75a29.98,29.98,0,0,1,4.379,5.756,22.2,22.2,0,0,1,2.73,11.075,35.829,35.829,0,0,1-1.912,11.387,26.063,26.063,0,0,1-3.832,7.524c-2.057,2.64-4.4,3.994-6.964,4.023Z" transform="translate(61.065 143.437)"/></g><g class="f" transform="translate(0 28.074)"><path class="d" d="M35.52,12.757C37.809,9.5,42.056,1.216,45.277.051c2.075-.75,1.47,7.012,1.5,8.492a123.959,123.959,0,0,1-1.147,17.094c-1.241,10.24-5.3,19.36-10.868,28.076-2.865,4.485-6.225,9.024-10.879,11.822-2.142,1.289-4.72,1.5-6.836,2.615-2.464,1.293-1.122.248-2.233,2.813-1.542,3.562-2.035,8.156-2.749,11.957C8.785,100.365.854,192.587,2.229,210.333c.122,1.573-2.073,1.949-2.183.029-.582-10.181,4.458-80.687,7-103.744s5.116-43.427,7.7-51.4c3.13-9.678,8.783-21.316,13.489-30.341A107.3,107.3,0,0,1,35.52,12.757Z" transform="translate(61.539 47.882)"/><path class="g" d="M54.685,1.239c5.955-4.368,12.4,3.876,7.012,8.245a5.4,5.4,0,0,1-7.847-.457c-1.138,1.386-2.2,2.836-3.227,4.06-3.119,3.73-6.066,7.55-8.884,11.459-5.852,8.12-10.867,16.7-16.111,25.12-5.175,8.312-10.308,16.666-15,25.188C6.657,82.075,1.36,90.569,0,98.485,2.064,81.7,9.9,65.561,19.223,50.761,28.474,36.083,39.091,20.052,53.414,8.468A5.066,5.066,0,0,1,54.685,1.239Z" transform="translate(59.361 172.485)"/><path class="d" d="M1.042.017C4.374.668,9.82,8.2,12.567,11.07a107.51,107.51,0,0,1,9.018,10.854,183.544,183.544,0,0,1,15.956,26A241.563,241.563,0,0,1,55.294,94.088a190.273,190.273,0,0,1,5.387,30.279c.192,1.917,2.2,16.7-.695,17.1-2.607.359-1.8-11.223-1.928-12.8C56.637,110.89,52.378,93.6,46.453,76.844c-1.29-3.649-2.489-8.119-4.553-11.4C40.414,63.075,41.889,63.9,39.278,63c-2.243-.769-4.8-.581-7.094-1.523-4.989-2.044-8.983-6.012-12.485-10C12.894,43.721,7.5,35.328,4.69,25.389A125.517,125.517,0,0,1,.9,8.652C.7,7.184-1.1-.4,1.042.017Z" transform="translate(0 132.765)"/><path class="e" d="M7.658,7.463A301.585,301.585,0,0,1,37.187,77.306c4.036,14.662,6.858,29.708,9.662,44.645,4.342,23.128,8.448,46.254,9.617,69.793,1.175,23.675,3.5,50.982-4.26,73.785,3.876-23.151.186-47.794-.468-71.089-.312-11.121-1.217-22.133-2.4-33.188-1.152-10.725-3.033-21.4-4.786-32.038q-1.28-7.773-2.663-15.528c-.272-1.543-.388-6.121-1.367-7.175s-6.016-1.493-7.6-2.272A40.778,40.778,0,0,1,24.1,98.091,70.394,70.394,0,0,1,11.129,81.875C3.066,68.43-.157,52.023.006,36.453.037,33.43,4.9.876,2.949.428Q3.125.221,3.283,0,5.5,3.713,7.658,7.463Z" transform="translate(6.535)"/><path class="e" d="M89.774,2.115c.194-.279,1.454-2.22.819-2.1,1.292-.253-1.778,2.141,1.443.672-1.529,1.443-.647,3.317-.626,5.259a47.056,47.056,0,0,1-1.089,9.365,64.176,64.176,0,0,1-4.369,14.154,63.436,63.436,0,0,1-20.863,25.58c-4.4,3.051-8.721,4.09-13.745,5.495-3.173.887-3.425,2.527-5.109,5.6-3.507,6.407-6.951,12.792-10.043,19.416-3.693,7.909-7.277,15.827-10.658,23.876C14.143,136.55,4.872,164.638,0,193.706c-.119-17.13,3.847-34.772,8.85-51.1A304.814,304.814,0,0,1,22.3,107.893c1.226-2.75,3.084-6.287,3.605-9.323.365-2.127-.75-4.173-1.26-6.414a67.057,67.057,0,0,1-.1-27.275c1.927-9.674,7.5-14.164,16.923-15.534,3.447-.5,7.828-.318,10.988-1.786,3.443-1.6,4.864-6.855,6.822-10.229A139.119,139.119,0,0,1,77.961,11.941a60.585,60.585,0,0,1,6.39-5.874C85.781,4.926,88.8,3.521,89.774,2.115Z" transform="translate(59.905 83.794)"/><path class="g" d="M.82,3.118A2.721,2.721,0,0,1,3.514,0H36.961a2.721,2.721,0,0,1,2.694,3.118L37.07,20.632a10.889,10.889,0,0,1-10.775,9.295H14.181A10.889,10.889,0,0,1,3.405,20.632Z" transform="translate(40.485 259)"/></g><g transform="translate(5.446 269.662)"><path class="a" d="M0,0C0,11.583.915,20.973,13.194,20.973S26.389,11.583,26.389,0" transform="translate(8.396 26.366)"/><path class="a" d="M25.244,19.139a24.242,24.242,0,0,0-1.206,2.376,32.479,32.479,0,0,1,.33-5.021c.428-2.9,1.082-5.785,1.7-8.665.442-2.07.414-5.788,2.09-7.437.46-.356.57.343.57.646.006.064,0-1.239-.448-1.012C25.626,1.4,24.766,5.7,23.917,7.854a41.441,41.441,0,0,0-2.727,9.633,21.559,21.559,0,0,0-.183,2.478c-.09-.221-.175-.443-.269-.663A44.729,44.729,0,0,0,14.564,8.986C13.93,8.191,5.955.353,5.33,1.553a.827.827,0,0,0,.387.434c.012.013.012.006.005-.014.468.756,1.8,1.924,2.215,2.586a50.017,50.017,0,0,1,2.68,5.171c1.742,3.667,3.358,7.371,4.925,11.082.365.865.745,1.724,1.133,2.581C12.676,17.632,7.343,12.4,0,9.406c2.508,1.275,4.152,3.673,5.846,5.509,2.043,2.215,4.194,4.37,6.241,6.583,2.414,2.61,5.254,5.358,7.576,8.247a86.929,86.929,0,0,1,5.783,14.4c-.553-1.713-.043-4.081-.138-5.879A39.686,39.686,0,0,0,24.835,34a8.757,8.757,0,0,1,.639,1.873c-.1-1-.218-1.989-.343-2.975.321-.923.636-1.785.85-2.495a64.061,64.061,0,0,1,4.162-10.707,95.56,95.56,0,0,1,5.565-9.5c.955-1.44,1.923-2.874,2.885-4.311A22.7,22.7,0,0,1,40.7,2.535c-5.668,5.177-11.86,10.392-15.455,16.6" transform="translate(0 0)"/></g></g><g transform="translate(718.92 294.229)"><path class="h" d="M229.98,151.5l7.527,31.091H233.5l-18.651-30.9Z" transform="translate(120.016 67.278)"/><path class="i" d="M87.759,129.115s-18.1-24.139-37.549-6.706,13.41,24.139,15.421,52.3,8.048,44.255,48.278,44.255H242.647L250.6,55.873S111.227,54.017,101.169,66.087,85.077,96.93,87.759,129.115Z"/><path class="i" d="M305.118,129.095s18.1-24.139,37.547-6.706-13.41,24.139-15.421,52.3-8.046,44.255-48.278,44.255H150.228L145.017,55.911S281.648,54,291.706,66.066,307.8,96.91,305.118,129.095Z" transform="translate(70.94 0.02)"/><path class="h" d="M84.279,151.5l-7.527,31.091h4.012l18.651-30.9Z" transform="translate(22.962 67.278)"/><path class="j" d="M225.655,163.732a8.722,8.722,0,0,0-5.851-1.686c.009-1.127-.043-1.822-.043-1.822H187.847s-1,21.072,15.133,21.816c7.22.332,11.353-2.9,13.72-6.975a16.14,16.14,0,0,0,3.62.439,8.364,8.364,0,0,0,5.027-1.42,6.336,6.336,0,0,0,2.4-5.4A6.173,6.173,0,0,0,225.655,163.732Zm-2.186,7.83c-1.362,1.022-3.8.865-5.393.577a28.044,28.044,0,0,0,1.553-6.929,6.082,6.082,0,0,1,4,.925,3.127,3.127,0,0,1,.974,2.551A3.338,3.338,0,0,1,223.468,171.561Z" transform="translate(101.033 73.412)"/><g transform="translate(308.536 179.956)"><path class="k" d="M199.385,128.7" transform="translate(-199.385 -128.7)"/></g><g transform="translate(63.132 132.343)"><path class="l" d="M56.688,102.876c-.078-.054.061-.5.668-1.051a4.667,4.667,0,0,1,3.24-1.085,4.9,4.9,0,0,1,2.381.691,4.484,4.484,0,0,1,1.848,2.27,4.939,4.939,0,0,1,.32,1.551,5.259,5.259,0,0,1-.155,1.636,4.692,4.692,0,0,1-5.357,3.642,5.245,5.245,0,0,1-1.58-.46,4.865,4.865,0,0,1-1.321-.875,4.416,4.416,0,0,1-1.408-2.571,4.822,4.822,0,0,1,.284-2.469,4.587,4.587,0,0,1,2.287-2.544c.753-.33,1.218-.272,1.233-.179.031.124-.361.286-.9.724a4.565,4.565,0,0,0-1.519,2.365,3.875,3.875,0,0,0-.049,1.848,3.127,3.127,0,0,0,1.069,1.693A3.509,3.509,0,0,0,63.4,104.2a3.19,3.19,0,0,0-1.17-1.635,3.954,3.954,0,0,0-1.73-.674,4.688,4.688,0,0,0-2.782.456C57.1,102.668,56.788,102.956,56.688,102.876Z" transform="translate(-55.269 -100.739)"/></g><g transform="translate(389.18 133.737)"><path class="l" d="M248.9,103.009c-.068-.068.083-.415.645-.768a3.446,3.446,0,0,1,2.73-.267,3.7,3.7,0,0,1,1.715,1.064,3.46,3.46,0,0,1,.863,2.239,4.212,4.212,0,0,1-.751,2.484,3.934,3.934,0,0,1-2.328,1.645,4,4,0,0,1-2.806-.429,4.371,4.371,0,0,1-1.807-1.844,3.715,3.715,0,0,1-.363-2.34,4.038,4.038,0,0,1,.838-1.8,3.776,3.776,0,0,1,2.331-1.4c.644-.087.984.058.983.158,0,.123-.32.208-.8.451a3.88,3.88,0,0,0-1.573,1.466,2.639,2.639,0,0,0-.09,2.757,2.867,2.867,0,0,0,2.914,1.393,2.763,2.763,0,0,0,1.938-2.53,2.306,2.306,0,0,0-1.461-2.215,3.344,3.344,0,0,0-2.091-.232C249.274,102.943,248.982,103.1,248.9,103.009Z" transform="translate(-246.744 -101.557)"/></g><g transform="translate(234.433 64.147)"><path class="l" d="M156.694,115.955c-.221.005-.5-3.087-.678-8.1s-.225-11.937.012-19.581.715-14.561,1.2-19.548.959-8.058,1.178-8.039.169,3.118-.022,8.117-.482,11.9-.72,19.519-.371,14.525-.492,19.525S156.926,115.952,156.694,115.955Z" transform="translate(-155.867 -60.69)"/></g><g transform="translate(93.224 61.703)"><path class="l" d="M347.516,101.487a2.883,2.883,0,0,1,.049-.785q.051-.386.123-.947c.055-.376.041-.821.072-1.318a21.911,21.911,0,0,0-1.444-8.521,29.374,29.374,0,0,0-7.78-11.174,32.956,32.956,0,0,0-7.046-4.839,46.263,46.263,0,0,0-4.264-1.951c-1.5-.567-3.058-1.127-4.688-1.587-6.5-1.919-13.927-2.876-21.905-3.773-3.99-.46-8.112-.952-12.371-1.35l-6.476-.649q-3.287-.281-6.661-.569c-8.994-.783-18.455-1.388-28.265-1.909-4.909-.218-9.9-.484-14.973-.627-2.535-.078-5.09-.191-7.661-.244l-7.767-.175c-20.844-.4-40.711-.129-58.771.387-9.028.284-17.609.6-25.634.972-8.027.39-15.514.623-22.264,1.437a67.433,67.433,0,0,0-17.737,4.3A41.853,41.853,0,0,0,80.338,75.34a32.54,32.54,0,0,0-5.752,6.539l-.72,1.109-.484.828a2.8,2.8,0,0,1-.438.65,2.729,2.729,0,0,1,.289-.729q.169-.353.414-.872c.179-.341.407-.722.659-1.161a30.138,30.138,0,0,1,5.6-6.837A41.494,41.494,0,0,1,91.694,67.32a67.1,67.1,0,0,1,17.949-4.6c6.821-.9,14.317-1.2,22.343-1.645,8.03-.431,16.616-.8,25.653-1.124,18.075-.6,37.971-.911,58.849-.516l7.78.177c2.575.054,5.134.169,7.673.25,5.081.15,10.082.422,15,.652,9.827.543,19.3,1.182,28.311,2.008l6.672.6,6.486.685c4.264.426,8.392.947,12.385,1.435,7.973.957,15.465,1.985,22.074,4.014,1.655.487,3.235,1.076,4.766,1.676a46.442,46.442,0,0,1,4.342,2.052,33.525,33.525,0,0,1,7.177,5.086,29.613,29.613,0,0,1,7.761,11.63,21.142,21.142,0,0,1,1.173,8.759c-.058.5-.072.952-.155,1.33s-.148.69-.2.945A2.7,2.7,0,0,1,347.516,101.487Z" transform="translate(-72.941 -59.254)"/></g><g transform="translate(105.783 173.946)"><path class="l" d="M110.657,142.915c-.22.143-1.424-1.5-3.658-3.847l-.884-.913c-.308-.317-.657-.616-1-.945-.674-.666-1.466-1.3-2.277-2a43.235,43.235,0,0,0-11.949-6.908c-1-.358-1.95-.725-2.866-.977-.455-.135-.891-.286-1.318-.4l-1.231-.312c-3.147-.766-5.173-.989-5.158-1.25,0-.191,2.074-.381,5.386.112l1.292.216c.45.08.908.208,1.388.317.964.206,1.963.536,3.021.868a36.638,36.638,0,0,1,12.41,7.176c.816.749,1.6,1.451,2.26,2.183.334.361.673.695.965,1.046s.567.69.834,1.013C109.952,140.926,110.82,142.816,110.657,142.915Z" transform="translate(-80.316 -125.171)"/></g><g transform="translate(199.878 186.295)"><path class="l" d="M167.5,144.736c-.158.192-1.75-.93-4.409-2.544-.666-.4-1.393-.841-2.2-1.277-.787-.46-1.66-.894-2.566-1.371-1.836-.909-3.886-1.839-6.093-2.68-2.214-.826-4.366-1.483-6.346-2.011-.994-.244-1.936-.492-2.832-.668-.891-.2-1.727-.352-2.493-.492-3.062-.543-5-.753-4.991-1,0-.2,1.968-.407,5.142-.148.792.068,1.66.153,2.583.3.93.121,1.909.327,2.942.535a47.106,47.106,0,0,1,12.793,4.826c.913.526,1.785,1.018,2.561,1.541.794.5,1.5,1.006,2.14,1.478C166.291,143.131,167.631,144.583,167.5,144.736Z" transform="translate(-135.574 -132.423)"/></g><g transform="translate(93.756 146.429)"><path class="l" d="M88.585,137.751c-.347.255-4.908-5.548-9.154-13.563-4.274-8-6.535-15.027-6.132-15.174.444-.172,3.358,6.5,7.579,14.4C85.069,131.331,88.975,137.48,88.585,137.751Z" transform="translate(-73.253 -109.011)"/></g><g transform="translate(133.938 188.793)"><path class="l" d="M154.708,133.984c.027.216-3.167.846-8.378,1.548s-12.439,1.441-20.447,1.9-15.281.53-20.536.419-8.5-.376-8.5-.594c0-.233,3.249-.378,8.487-.565s12.471-.446,20.453-.9,15.194-1.006,20.42-1.412S154.678,133.752,154.708,133.984Z" transform="translate(-96.85 -133.89)"/></g><path class="m" d="M81.605,151.5l-1.05,4.339,12.968,1.185,3.218-5.331Z" transform="translate(25.635 67.278)"/><path class="m" d="M214.844,151.611l3.185,5.278,13.026-1.028-1.166-4.254Z" transform="translate(120.016 67.356)"/><g transform="translate(-142.271 -302.367)"><g transform="translate(575.07 463.544)"><path class="n" d="M449.7,447.735s12.316,12.244,11.3,8.312-17.051-26.119-17.051-26.119l-3.787,3.3Z" transform="translate(-436.349 -429.927)"/><path class="n" d="M439.523,447.513l13.809.76-7.848-18.346-7.607.862Z" transform="translate(-437.876 -429.927)"/></g><g transform="translate(510.882 396.754)"><path class="n" d="M418.386,400.677s17.191,2.446,14.032-.1-29.289-10.733-29.289-10.733l-1.061,4.909Z" transform="translate(-397.547 -389.844)"/><path class="n" d="M410.679,407.5l11.521-7.651-17.264-10.008-5.581,5.243Z" transform="translate(-399.355 -389.844)"/></g><path class="o" d="M233.354,439.666l53.564-43.56,51.052,27.784-11.943,48.552-76.925,5.03Z" transform="translate(0.919 11.082)"/><path class="p" d="M231.975,422.248l16.079,38.631H294.2v-1.671l-43.016-1.4-16.914-35.562Z" transform="translate(0 28.5)"/><path class="q" d="M354.32,450.656s39.838-12.011,43.361-15.143S429,390.494,429,390.494l23.1,9.395s-33.9,48.153-36.134,50.5-29.635,17.225-29.635,17.225Z" transform="translate(81.519 7.343)"/><path class="r" d="M324.427,425.949c1.175-.783,23.025-8.706,36.407-4.7,5.576,1.67,14.684,8.383,14.684,8.383s59.975,5.964,70.543,4.789,72.889-1.541,72.889-1.541l2.781,26.343-194.187-.638Z" transform="translate(61.602 27.086)"/><path class="s" d="M298.242,451.016C313.177,470.2,366.489,470.2,366.489,470.2s-1.126-36.649-2.693-40.955-14.47,2.585-23.083.633c-5.4-1.223-40.321-26.229-40.321-26.229a15.084,15.084,0,0,0-13.332,10.143l.715,12.092Z" transform="translate(36.703 16.109)"/><g transform="translate(290.384 379.474)"><g transform="translate(6.88 10.246)"><path class="t" d="M297.655,425.8c-.661-1.645-5.106-7.512-5.106-7.512s-6.069,2.9-9.893-2.533-11.5-18.678-11.5-18.678l7.252-11.459,16.738,1.618,6.32,4.744,5.007,17.025,4.336,7.542Z" transform="translate(-271.157 -385.623)"/><g transform="translate(5.727 17.769)"><path class="r" d="M274.8,398.222a.85.85,0,1,0,.278-1.17A.849.849,0,0,0,274.8,398.222Z" transform="translate(-274.538 -395.86)"/><path class="r" d="M274.661,398.42c.152.035.407-.747,1.158-1.27s1.568-.507,1.586-.66c.012-.07-.192-.183-.557-.2a2.265,2.265,0,0,0-2.19,1.54C274.554,398.177,274.591,398.405,274.661,398.42Z" transform="translate(-274.594 -396.286)"/></g><g transform="translate(14.356 12.455)"><path class="r" d="M279.916,394.284a.849.849,0,1,0,1.121-.43A.851.851,0,0,0,279.916,394.284Z" transform="translate(-279.726 -392.643)"/><path class="r" d="M279.84,395.229c.152.037.407-.747,1.158-1.266s1.568-.507,1.585-.661c.012-.072-.192-.183-.555-.2a2.255,2.255,0,0,0-2.19,1.54C279.733,394.988,279.77,395.218,279.84,395.229Z" transform="translate(-279.773 -393.098)"/></g><g transform="translate(11.6 16.025)"><path class="r" d="M282.184,402.109a7.177,7.177,0,0,1-1.253.837,1.539,1.539,0,0,1-.352.173.541.541,0,0,1-.487-.075,1.445,1.445,0,0,1-.415-.848q-.23-.917-.487-1.938c-.337-1.375-.623-2.624-.816-3.533a7.18,7.18,0,0,1-.247-1.485,6.934,6.934,0,0,1,.467,1.431c.25.893.572,2.135.908,3.511q.242,1.022.462,1.943a1.3,1.3,0,0,0,.285.7c.147.13.368.028.57-.082A6.856,6.856,0,0,1,282.184,402.109Z" transform="translate(-278.118 -395.24)"/></g><g class="u" transform="translate(18.481 16.886)"><path class="v" d="M282.373,398.893c.417.632,1.691.483,2.909-.23s1.961-1.746,1.6-2.413-1.731-.678-3.006.07S281.958,398.265,282.373,398.893Z" transform="translate(-282.248 -395.757)"/></g><path class="w" d="M283.559,398.923c.465-1.006-1.378,2.636-2.966,3.614a2.533,2.533,0,0,0,3.033-.858C284.854,399.954,283.559,398.923,283.559,398.923Z" transform="translate(-264.87 -376.877)"/><path class="v" d="M283.995,408.083a16.574,16.574,0,0,0,5.927-7.137s.858,5.192-4.951,8.447Z" transform="translate(-262.603 -375.413)"/></g><path class="x" d="M307.619,402.516a54.339,54.339,0,0,0,2.4,10.035c.052,2.083-3.1-2.768-3.1-2.768s-3.494-4.4-3.9-6.66c0,0,3.476-.73,1.125-6.372-1.161-2.788-5.8-1.786-5.072,1.973l-2.321,1.628s-5.824-9.716-10.436-4.671c0,0-2.649,4.872-5.977,4.722s-3.458-.785-3.458-.785.3,3.258-3.818,3.363-6.269-2.688-6.005-4.761c.152-1.2.232-2.479,1.156-3.256a3.483,3.483,0,0,1,3.408-.575,3.1,3.1,0,0,1-1.125-4.1,5.046,5.046,0,0,1,3.842-2.448,14.925,14.925,0,0,1,4.7.32,5.762,5.762,0,0,1,10.108-4.729,5.022,5.022,0,0,1,4.587-3.944,6.989,6.989,0,0,1,5.7,2.649,11.727,11.727,0,0,1,2.39,5.985,3.7,3.7,0,0,1,4.612-1.288,5.043,5.043,0,0,1,2.728,4.2,8.079,8.079,0,0,1-1.435,4.949,3.2,3.2,0,0,1,.113,6.3" transform="translate(-267.028 -379.474)"/><g transform="translate(33.007 17.355)"><path class="v" d="M288.27,394.473c.015-.027.12.018.3.012a.988.988,0,0,0,.668-.313,2.437,2.437,0,0,0,.042-2.461,3.281,3.281,0,0,0-.873-1.145,1.137,1.137,0,0,0-1-.347.5.5,0,0,0-.4.5c0,.177.085.262.063.283s-.152-.03-.215-.262a.63.63,0,0,1,.043-.417.746.746,0,0,1,.425-.372,1.39,1.39,0,0,1,1.311.33,3.365,3.365,0,0,1,1.006,1.263,2.561,2.561,0,0,1-.207,2.829,1.053,1.053,0,0,1-.873.265C288.34,394.591,288.257,394.491,288.27,394.473Z" transform="translate(-286.836 -389.889)"/></g></g><g transform="translate(403.033 471.694)"><path class="n" d="M512.044,435.138c0,.178-39.718.323-88.7.323-49,0-88.711-.145-88.711-.323s39.71-.32,88.711-.32C472.326,434.818,512.044,434.963,512.044,435.138Z" transform="translate(-334.632 -434.818)"/></g><g transform="translate(407.313 465.892)"><path class="n" d="M350.945,431.338a7.69,7.69,0,0,1-1.03,2.563,17.726,17.726,0,0,1-1.666,2.508,20.491,20.491,0,0,1-2.569,2.651,20.23,20.23,0,0,1-3.036,2.1A17.458,17.458,0,0,1,339.9,442.4a7.67,7.67,0,0,1-2.7.6,25.3,25.3,0,0,1,2.533-1.021,21.864,21.864,0,0,0,2.614-1.325,23.09,23.09,0,0,0,2.916-2.078,23.353,23.353,0,0,0,2.526-2.536,22.091,22.091,0,0,0,1.733-2.363A24.98,24.98,0,0,1,350.945,431.338Z" transform="translate(-337.201 -431.336)"/></g><path class="q" d="M436.865,427.833l3.7,26.269,6.245.021-2.783-26.344Z" transform="translate(136.52 32.187)"/><path class="m" d="M298.932,452.4s11.792-17.656,4.6-41.794l-7.4,39.755Z" transform="translate(42.751 20.742)"/><path class="t" d="M338.362,412.03l-19.214-.183s-4.989,39.961-12.634,43.511c-15.085,7.008-34.558,2.6-37.972,1.745-.572-.437-1.21-.95-1.906-1.548a8.8,8.8,0,0,1-1.891-2.31,13.4,13.4,0,0,1-1.506-3.4,1.155,1.155,0,0,0-2.128-.488c-.457.935.023,4.056,2.131,7.082s-3.471,1.425-5.515.878-8.445-1.943-9.111-1.448c-.976.727-.378,1.908,1.676,2.4,2.078.5,8.107,2.429,7.765,3.494s-10.7-1.878-10.7-1.878-2.115-.985-2.549.235c-.785,2.2,10.463,4.5,11.539,4.689.748.133.418,1.3-.377,1.118-.818-.192-10.271-3.159-11.091-.93-.63,1.71,9.235,1.976,10.853,3.682s-7.458-.965-7.993.695c-.2.618-.262,1.106,5.174,1.885a126.4,126.4,0,0,0,13.7.558c6.037.855,53.492,6.934,60.955-11.976C335.948,438.61,338.362,412.03,338.362,412.03Z" transform="translate(8.523 21.57)"/><path class="y" d="M290.681,416.347l-4.969,19.989,22.855,3.759s5.044-24.2.84-29.1c-3.958-4.617-9.131-6-13.989-2.186A13.729,13.729,0,0,0,290.681,416.347Z" transform="translate(35.805 18.073)"/><g transform="translate(374.841 446.263)"><path class="z" d="M317.79,435.651c-.262-.045.17-3.687.963-8.13s1.65-8.01,1.911-7.965-.17,3.688-.963,8.133S318.051,435.7,317.79,435.651Z" transform="translate(-317.713 -419.556)"/></g><g transform="translate(377.923 446.331)"><path class="z" d="M320.375,428.857c-.265.015-.6-2.046-.743-4.6s-.05-4.642.215-4.657.6,2.046.745,4.6S320.64,428.84,320.375,428.857Z" transform="translate(-319.563 -419.597)"/></g><g transform="translate(397.784 445.581)"><path class="z" d="M331.862,458.317c-.147-.033.262-2.208.72-5.74.235-1.765.448-3.874.62-6.219.152-2.346.25-4.929.232-7.642s-.177-5.3-.37-7.638c-.213-2.341-.465-4.446-.732-6.207-.522-3.523-.97-5.689-.821-5.724a4.909,4.909,0,0,1,.523,1.473c.142.482.3,1.073.458,1.77s.353,1.483.512,2.366c.353,1.761.678,3.874.943,6.235.243,2.363.418,4.974.45,7.717s-.108,5.354-.312,7.72c-.222,2.364-.507,4.487-.83,6.252-.143.885-.322,1.678-.468,2.376s-.293,1.293-.425,1.776A4.919,4.919,0,0,1,331.862,458.317Z" transform="translate(-331.482 -419.147)"/></g><g transform="translate(395.369 468.075)"><path class="z" d="M332.008,432.646c.248-.023.73,4.046.18,9.041-.53,5-1.866,8.871-2.1,8.795-.273-.073.628-3.989,1.146-8.9C331.771,436.68,331.726,432.659,332.008,432.646Z" transform="translate(-330.033 -432.646)"/></g><g transform="translate(321.409 454.208)"><path class="z" d="M308.607,427.622c-.037.265-5.207-.245-11.546-1.136s-11.453-1.828-11.414-2.091,5.206.245,11.547,1.136S308.644,427.36,308.607,427.622Z" transform="translate(-285.647 -424.324)"/></g><g transform="translate(322.334 452.637)"><path class="z" d="M309.444,426.274c-.052.27-5.231-.5-11.636-1.248s-11.621-1.226-11.606-1.5c.01-.255,5.276-.223,11.719.545S309.494,426.022,309.444,426.274Z" transform="translate(-286.202 -423.381)"/></g><g transform="translate(322.332 450.075)"><path class="z" d="M309.319,424.415c-.048.273-5.2-.463-11.566-1.111s-11.559-.99-11.553-1.265c0-.255,5.237-.358,11.651.308S309.368,424.165,309.319,424.415Z" transform="translate(-286.201 -421.843)"/></g></g></g></g></svg>