<svg xmlns="http://www.w3.org/2000/svg" width="783.862" height="610.555" viewBox="0 0 783.862 610.555"><defs><style>.a{fill:#efc692;}.b{opacity:0.42;}.c{fill:#ffc84c;}.d{fill:#a6a5a5;mix-blend-mode:multiply;isolation:isolate;}.e{fill:#44b2ba;}.f{fill:#7697cc;}.g,.l,.m,.n,.o,.r,.y{fill:none;stroke-miterlimit:10;}.g,.y{stroke:#002861;}.g,.m{stroke-width:4.989px;}.h{fill:#f5a58e;}.i{fill:#ee7d6c;}.j{fill:#431a0b;}.k{fill:#5d2412;}.l{stroke:#f0876c;stroke-width:4.637px;}.m{stroke:#ee7d6c;}.n,.o{stroke:#431a0b;}.n{stroke-width:4.791px;}.o{stroke-width:3.749px;}.p{fill:#6c3622;}.q{fill:#fff1c8;}.r{stroke:#ffb89e;}.s{fill:#a3a3a3;}.t{fill:#fff;}.u{fill:#d2d1d1;}.v{fill:#1b3455;}.w{fill:#f39b82;}.x{fill:#77c7df;}.z{opacity:0.7;}.aa{fill:#69a1ac;}.ab{fill:#89c5cc;}.ac{opacity:0.5;}.ad{fill:#c1dee2;}.ae{fill:#00143a;}.af{fill:#f3f0eb;}.ag{fill:#455a64;}.ah{fill:#f2f2f2;}.ai{fill:rgba(0,0,0,0.1);}.aj{fill:#afb9c5;}.ak{fill:#c5cfd6;}</style></defs><g transform="translate(-162 -347)"><g transform="translate(382.538 424.055)"><path class="a" d="M411.357,347.331c-21.087,4.771-43.533,17.066-54.71,36.115-19.267,32.849-20.824,78.606-15.564,114.674,4.1,28.085,13.492,66.511,32.488,88.8,21.121,24.795,68.054,14.427,95.055,10.236,31.178-4.842,55.011-7.164,72-36.548,17.064-29.511,20.895-73.543,23.437-107.92,1.688-22.73.294-47.732-9.716-68.826C527.325,326.943,462.868,335.671,411.357,347.331Z" transform="translate(-338.481 -260.839)"/><g class="b" transform="translate(5.146 348.514)"><g transform="translate(55.568 35.477)"><path class="c" d="M476.361,794.059h21.281l-55.153,145.77s-2.762,3.737-9.23,3.705c0,0-6.641.688-3.719-4.2Z" transform="translate(-428.797 -794.059)"/><path class="d" d="M497.654,794.059,442.5,939.829s-2.762,3.737-9.23,3.705c0,0-5.436.549-4.275-2.983a4.038,4.038,0,0,0,1.723,1.129,8.663,8.663,0,0,0,8.14-1.8l49.471-145.818Z" transform="translate(-428.808 -794.059)"/></g><g transform="translate(0)"><path class="c" d="M393.7,741.285h21.281l-55.156,145.77s-2.763,3.737-9.231,3.706c0,0-6.641.69-3.718-4.2Z" transform="translate(-346.136 -741.285)"/><path class="d" d="M415,741.285,359.84,887.055s-2.763,3.737-9.231,3.706c0,0-5.436.557-4.275-2.981a4.11,4.11,0,0,0,1.723,1.129,8.675,8.675,0,0,0,8.143-1.8l49.465-145.82Z" transform="translate(-346.148 -741.285)"/></g><g transform="translate(274.081 18.106)"><path class="c" d="M775.125,768.219H753.844L809,913.987s2.768,3.739,9.233,3.707c0,0,6.638.686,3.721-4.2Z" transform="translate(-753.844 -768.219)"/><path class="d" d="M753.844,768.219,809,913.987s2.768,3.739,9.233,3.707c0,0,5.436.549,4.278-2.985a4.143,4.143,0,0,1-1.725,1.134,8.675,8.675,0,0,1-8.14-1.809L763.171,768.219Z" transform="translate(-753.844 -768.219)"/></g><g transform="translate(202.497)"><path class="c" d="M668.643,741.285H647.359l55.156,145.77s2.765,3.737,9.231,3.706c0,0,6.641.69,3.718-4.2Z" transform="translate(-647.359 -741.285)"/><path class="d" d="M647.359,741.285l55.156,145.77s2.765,3.737,9.231,3.706c0,0,5.436.557,4.275-2.981a4.066,4.066,0,0,1-1.72,1.129,8.67,8.67,0,0,1-8.143-1.8l-49.468-145.82Z" transform="translate(-647.359 -741.285)"/></g></g><path class="e" d="M405.7,660.234c24.6-3.648,48.872-9.023,73.517-12.946C511.31,642.18,557.4,631.8,589.9,637.12c21.1,3.469,39.256,12.426,56.451,20.955,19.33,9.587,37.284,19.684,39.991,37.51,2.547,16.853-7.342,29.276-26.837,38.484-45.414,21.446-112.29,31.031-166.2,33.478-41.942,1.907-91.941-6.4-121.738-28.8-17.216-12.936-21.488-34.626-16.974-51.467C360.086,666.746,378.552,664.259,405.7,660.234Z" transform="translate(-343.212 -358.146)"/><path class="a" d="M405.7,660.234c24.6-3.648,48.872-9.023,73.517-12.946C511.31,642.18,557.4,631.8,589.9,637.12c21.1,3.469,39.256,12.426,56.451,20.955,19.33,9.587,37.284,19.684,39.991,37.51,2.547,16.853-7.342,29.276-26.837,38.484-45.414,21.446-112.29,31.031-166.2,33.478-41.942,1.907-91.941-6.4-121.738-28.8-17.216-12.936-21.488-34.626-16.974-51.467C360.086,666.746,378.552,664.259,405.7,660.234Z" transform="translate(-343.212 -358.146)"/><g transform="translate(31.684)"><path class="f" d="M555.163,598.625s-37.008,1.552-85.034.3c-18.873,28.852-30.277,53.659-26.725,83,0,0,7.494,23.744,44.137,25.976L561.4,696.414l65.256,2.411s63.535-69.583,22.77-81.776l-78.753,10.2Z" transform="translate(-404.342 -346.014)"/><path class="g" d="M454.555,659.389a237.7,237.7,0,0,1,19.86-22.3c2.444-2.789,5.228-5.226,7.665-7.668s6.273-4.18,8.363-6.62" transform="translate(-408.209 -353.938)"/><g transform="translate(59.408 13.537)"><path class="h" d="M540.062,376.1l-33.6.7-.767-36.669,33.6-.7S536.318,368.392,540.062,376.1Z" transform="translate(-484.38 -274.597)"/><path class="i" d="M538.345,366.882c-7.623-.622-14.861-.917-22.342-3.109a44.635,44.635,0,0,1-9.9-4.113l-.407-19.534,33.6-.7S537.647,355.5,538.345,366.882Z" transform="translate(-484.38 -274.597)"/><path class="j" d="M576.437,291.983c-2.113,5.326-4.288,11.518-7.983,16.184-4.228,5.339-10.417,5.719-13.266-.945-2.686-6.273-2.592-14.014-1.434-20.461.638-3.522,1.82-7.508,5.118-9.906a11.672,11.672,0,0,1,15.732,1.857C578.189,282.866,578.3,287.293,576.437,291.983Z" transform="translate(-499.877 -253.357)"/><g transform="translate(15.894 9.451)"><path class="h" d="M552.887,295.18a91.33,91.33,0,0,1-2.991,18.975c-1.71,6.279-4.047,18.046-11.132,20.669a14.373,14.373,0,0,1-6.5.6c-9.655-.6-19.931-7.024-26.07-14.191-11.441-13.354-11.412-45.753.052-58.313,10.462-11.46,43.73-5.559,45.965,12.718A111.573,111.573,0,0,1,552.887,295.18Z" transform="translate(-497.629 -257.05)"/></g><path class="k" d="M545.67,328a23.534,23.534,0,0,1-2.863,1.205,15.622,15.622,0,0,1-8.261-.4c-3.955-1.1-7.891-3.55-12.085-2.135a19.166,19.166,0,0,1-7.376,1.289,9.135,9.135,0,0,1-7.731-5.5c-1.032-2.363-1.232-5.449-2.6-7.589a13.082,13.082,0,0,0-7.114-5.525c.06,11.2.473,27.352,6.118,33.941,6.14,7.166,21.677,13.721,31.326,14.327a14.479,14.479,0,0,0,6.5-.593c7.085-2.624,6.607-19.451,8.316-25.73.394-1.439.735-2.883,1.05-4.341A9.135,9.135,0,0,0,545.67,328Z" transform="translate(-481.738 -264.741)"/><path class="l" d="M499.5,305.545c-.339-.609-.3-1.189-.635-1.8a6.788,6.788,0,0,0-2.143-2.5,3.177,3.177,0,0,0-1.3-.875,1.645,1.645,0,0,0-1.347-.1,6.018,6.018,0,0,0-1.2.489.687.687,0,0,1-.4.163,2.673,2.673,0,0,1-.819.52,4.849,4.849,0,0,0-.9,1.681,14,14,0,0,0-1.008,3.033,10.809,10.809,0,0,0-.386,2.495" transform="translate(-479.022 -261.733)"/><path class="j" d="M498.443,281.484c-.417,1.6-.759,8.954-1.271,10.375s-3.74-.84-3.74-.84c-2.274-2.4.667-7.8-3.309-8.674-4.309-.948,1.982,25.934,1.886,28.872-3.3-3.505-14.9-21.591-17.339-34.117-1.807-9.272.3-14.876,2.44-18.465,10.412-17.408,14.167-16.313,23.823-14.963,4.409.617,7.781,10.562,9.393,14.918,1.73,4.664-1.442,8.225-4.638,11.218C501.694,273.556,500.41,274.141,498.443,281.484Z" transform="translate(-473.985 -242.992)"/><g transform="translate(9.949 38.199)"><path class="h" d="M491.227,301.05c-4.511,3.9-2.8,16.352,5.352,20.979,2.263-2.177,2.642-8.437,3.119-11.5.471-3.014.772-5.914-.9-8.611C498.283,301.087,494.549,298.185,491.227,301.05Z" transform="translate(-488.786 -299.814)"/><g transform="translate(2.764 5.964)"><path class="m" d="M499.426,313.258a7.881,7.881,0,0,1-.163,2.119c-3.2,2.865-2.627-4.758-2.581-5.338" transform="translate(-494.115 -309.129)"/><path class="m" d="M497.084,309.811c-.153-.6-.912-.848-1.476-1.079-1.14-.284-2.2.8-2.482,1.945a5.443,5.443,0,0,0,.124,3.5,9.784,9.784,0,0,0,1.363,2.437" transform="translate(-492.897 -308.686)"/></g></g><g transform="translate(37.806 40.079)"><path class="n" d="M544.4,304.9c-.145-.754-3.638-2.048-4.751-2.14-5.186-.415-6.833.011-9.422,1.617" transform="translate(-530.223 -302.611)"/><path class="o" d="M567.1,306.163c.178-.727,5.443-.817,8.7.606" transform="translate(-542.309 -303.606)"/><path class="p" d="M569.625,314.721c-.126,1.644.478,3.022,1.355,3.091s1.683-1.205,1.81-2.849-.478-3.022-1.358-3.086S569.748,313.089,569.625,314.721Z" transform="translate(-543.132 -305.647)"/><path class="p" d="M542.026,314.317c-.131,1.646.478,3.028,1.358,3.094s1.675-1.208,1.806-2.85-.486-3.017-1.355-3.085S542.153,312.683,542.026,314.317Z" transform="translate(-534.086 -305.515)"/></g></g><path class="h" d="M578.1,452.19c-4.5-27.42,9.283-28.846,9.283-28.846,15.506-3.971,22.717,19.616,22.717,19.616s11.181,52.186,11.032,75.578c0,0-16.441,10.207-24.2-4.372Z" transform="translate(-448.403 -288.418)"/><path class="h" d="M489.51,387.223l-51.913,19.1L466.179,534.3h68.412l18.82-125.437-39.605-21.643Z" transform="translate(-402.651 -276.727)"/><path class="q" d="M514.592,387.223l34.692,17.447-14.34,128.7c-13.828,7.03-21.578,2.558-42.958,2.526-6.833-.013-27.092,3.732-30.068-3.445-1.8-4.362-6.882-13.545-6.728-18.177s-4.924-12.177-5.307-16.809-.294-9.231-2.558-13.39c-4.225-7.739-4.162-19.212-6.087-27.912-1.945-8.831-3.275-13.206-3.275-22.284,0-4.824-4.138-10.226-5.326-14.916-1.25-4.991-.551-11,4.375-13.251,4.375-2,9.354-3.253,13.889-4.926l29.824-11.347S507.961,398.126,514.592,387.223Z" transform="translate(-400.848 -276.727)"/><path class="q" d="M580.019,491.365l-8.455-46.06s-12.3-26.782,9.115-40.918c0,0,23.1,3.632,27.378,25.393l11.573,45.984S618.472,487.216,580.019,491.365Z" transform="translate(-445.407 -282.353)"/><path class="q" d="M456.648,610.1c6.026-10.115,7.854-22.817,15.524-31.95,7.324-8.716,20.575-17.579,32.5-16.964,7.356.381,17.823,10.751,25.377,9.141,9.078-1.927,24.858,6.943,32.4,1.785,6.053-4.144-12.079-37.635-10.238-45.043a37.215,37.215,0,0,0-1.376-22.678c-3.291-9.18-7.384-7.377-9.511-16.9-1.841-8.235-3.705-16.25-10.131-22.216-18.728-17.4-50.854-14.419-72.6-5.6-3.353,1.361-5.309,2.421-6.465,3.8-1.794,2.138-7.878-.825-7.983,5.149-.184,10.37-2.043,9.217-2.025,19.593a169.1,169.1,0,0,1-2.985,27.294c-2.164,10.7-1.232,24.083-4.115,34.652-5.1,18.7-6.864,56.049-3.7,75.9A25.6,25.6,0,0,0,456.648,610.1Z" transform="translate(-400.076 -298.158)"/><path class="h" d="M521.744,558.362c-33.739-4.811-116.441,3.865-119.75-34.884-2.7-31.7,7.978-81.659,22.52-93.028,10.8-8.442,25.3-3.753,31.1,8.913,6.457,14.107-13.317,62.769-16.515,83.017,0,0,29,19.808,90.26,26.147Z" transform="translate(-390.844 -289.498)"/><path class="q" d="M385.613,508.369l25.044-79.583c5.087-13.442,13.729-15.7,15.491-15.7,26.753,0,29.112,33.03,29.112,33.03l-12.954,58.359S413.173,521.166,385.613,508.369Z" transform="translate(-385.613 -285.204)"/><path class="h" d="M572.454,611.3c1.39-1.838,9.042-3.014,12.644-3.248a83.54,83.54,0,0,1,27.465,2.332c3.146.8,9.976,2.61,12.878,4.212,1.77.974,5.228,1.775,4.645,3.968-1.381.751-9.346-.838-14.587-2.07,7.649,2.235,9.435,4.331,9.59,5.344-1.867,2.058-10.829-1.99-17.137-3.359-2.038-.444,11.967,4.834,5.123,5.4-1.484.123-11.124-2.655-15.688-3.685.491.47,6.547,3.624,6.4,4.165-.134,1.412-6.179-.082-9.2-.893C590.521,622.372,566.974,618.556,572.454,611.3Z" transform="translate(-446.581 -349.026)"/><path class="h" d="M715.752,583.563c1.678-1.581,9.417-1.466,13.006-1.1a83.64,83.64,0,0,1,26.7,6.864c2.967,1.316,9.4,4.236,12,6.3,1.581,1.258,4.853,2.618,3.918,4.688-1.489.5-9.081-2.384-14.046-4.47,7.174,3.474,8.589,5.841,8.569,6.867-2.18,1.718-10.344-3.765-16.339-6.166-1.93-.774,11,6.762,4.157,6.187-1.482-.129-10.531-4.473-14.858-6.247.407.546,5.85,4.661,5.612,5.176-.358,1.365-6.076-1.111-8.913-2.419C731.723,597.486,709.134,589.8,715.752,583.563Z" transform="translate(-493.421 -340.642)"/><path class="h" d="M630.3,540.32l67.309,33.116-6.746,5.951s-72.167-10.573-82.432-22.51C608.434,556.877,615.558,536.9,630.3,540.32Z" transform="translate(-458.643 -326.776)"/><path class="r" d="M543.435,395.113l-.284-.281a4.092,4.092,0,0,1-1.664,1.392,26.5,26.5,0,0,1-5.835,2.5,30.231,30.231,0,0,1-5.281.832,8.676,8.676,0,0,1-2.784.276,10.3,10.3,0,0,1-3.054.281c-.84,0-1.67-.281-2.5-.281s-1.67.281-2.5.281-1.67-.281-2.5-.281a12.168,12.168,0,0,1-2.778-.554c-1.673-.276-3.059-1.389-5-1.389-1.113,0-1.662-.557-2.5-1.392" transform="translate(-425.313 -279.221)"/><path class="r" d="M458.793,413.023c.554.557,1.113,1.39,1.667,1.946a17.009,17.009,0,0,1,2.224,2.224,27.34,27.34,0,0,1,5.835,7.778c.549,1.4,1.389,2.781,1.945,4.173a32.519,32.519,0,0,1,1.113,5,24.01,24.01,0,0,1,.276,4.444c0,.835.276,1.392.276,1.946s-.276.835-.276,1.389v1.392c-.557,3.338-.557,6.389-1.39,9.727a84.857,84.857,0,0,1-1.945,8.9c-.284,1.389-.557,2.5-.833,3.886s-.557,3.057-.838,4.727c-.832,3.613-1.662,6.948-2.218,10.564s-.56,7.222-1.4,10.559" transform="translate(-409.598 -285.183)"/><path class="r" d="M570.832,396.074c1.113,1.949,3.051,3.059,4.165,5.005.833,1.384,1.39,2.778,2.222,4.17.557,1.386,1.394,2.776,1.951,4.165.276,1.389.276,2.778.552,4.17s.281,2.778.557,4.17.281,2.5.557,3.889-.276,2.778-.276,4.168V429.7a21.218,21.218,0,0,0,.276,4.167c.273,3.057,0,6.116,0,8.9v8.057a3.572,3.572,0,0,0,.273,1.667v2.5c.565,2.78.565,5.278,1.113,7.781" transform="translate(-446.319 -279.628)"/><path class="r" d="M580.332,510.18c.281.557.281,1.386.557,1.94.281,1.114.557,1.949.838,3.057.557,1.116.832,2.505,1.39,3.894s1.105,3.059,1.67,4.448a10.232,10.232,0,0,1,1.938,3.89,12.213,12.213,0,0,1,.557,4.448,23.223,23.223,0,0,1,0,4.44c-.276.835-.557,3.894-1.663,3.894" transform="translate(-449.432 -317.026)"/><g transform="translate(117.195 202.631)"><rect class="s" width="118.61" height="5.675" transform="translate(0 72.246)"/><g transform="translate(38.549)"><path class="t" d="M733.525,602.2H623.137l9.682-77.92H743.207Z" transform="translate(-619.206 -524.277)"/><path class="u" d="M617.289,602.2h3.931l9.682-77.92h-3.931Z" transform="translate(-617.289 -524.277)"/></g><path class="u" d="M716.968,575.137a8.83,8.83,0,1,1-8.829-8.828A8.831,8.831,0,0,1,716.968,575.137Z" transform="translate(-605.622 -538.053)"/></g><g transform="translate(39.062 260.177)"><path class="v" d="M553.984,761.188" transform="translate(-479.858 -659.471)"/><path class="w" d="M618.094,726.465,592.84,736.748l6.5,19.634,25.719-8.682Z" transform="translate(-492.594 -648.091)"/><g transform="translate(159.404 64.863)"><path class="w" d="M681.247,724.57l27.166,2.4-.433,20.672-27.139-.725Z" transform="translate(-680.84 -712.333)"/><path class="x" d="M707.665,741.736c11.719,3.225,45.159.518,57.325-4.1,14.737-5.594,13.721-35.086-4.837-30.861-16.814,3.829-34.479,10.7-51.621,12.09C708.532,718.869,698.322,726.786,707.665,741.736Z" transform="translate(-688.341 -706.366)"/></g><path class="f" d="M622.448,710.112c4.191-8.634,1.823-26.648,1.823-26.648l-14.64-7.7c-18.079-14.059-39.534-23.2-57.23-37.717-13.705-11.247-27.113-30.017-47.034-28.024-13.474,1.349-22.757,11.47-30.48,21.635-12.88,16.933-31.167,30.748-31.167,53.959,0,19.608,26.013,34.324,40.035,32.111,10.378-1.639,25.945-14.705,31.711-22.581l15.473-19.089s6.15,20.039,65.891,32.612C596.829,708.674,614.583,712.473,622.448,710.112Z" transform="translate(-443.719 -609.88)"/><path class="y" d="M552.074,611.691c6.273,1.786,14.241,9.976,23.156,15.336,7.645,4.6,23.227,17.607,29.5,23.555,14.635,13.673,28.828,21.362,45.553,32.662" transform="translate(-479.232 -610.473)"/><path class="y" d="M608.074,692.883c9.932-4.181,41.6-23.6,48.917-30.924,9.409-8.881,16.7-14.322,25.584-23.208,9.417-9.41,19.338-14.705,31.36-20.974" transform="translate(-497.587 -612.468)"/><path class="y" d="M554.852,727.965c2.61-4.183,8.88-9.932,13.592-8.364,6.794,1.568,11.5,8.884,18.813,9.409" transform="translate(-480.143 -645.754)"/><path class="f" d="M740.458,611.172c27.268,3.548,20.215,28.862,10.659,37.631-25.744,23.607-62.868,41.38-95.252,53.89-1.1.423-31.8,11.877-36.931,13.923,6.378-15.407-7.86-26.139-7.86-26.142s36.249-17.547,60.571-43.111C671.645,647.364,707.981,604.3,740.458,611.172Z" transform="translate(-498.57 -610.059)"/><path class="x" d="M578.724,757.1c-10.249,6.531-43,13.786-55.993,12.954-15.735-1.013-23.429-29.5-4.459-30.918,17.195-1.287,36.1.074,52.9-3.64C571.172,735.5,583.26,740.063,578.724,757.1Z" transform="translate(-464.492 -651.05)"/></g><path class="j" d="M512.68,245.662c-.06,5.457,11.471,18,17.234,17.442-1.092-2.6-1.029-5.56-1.578-8.12,4.9,3.548,11.862,8.842,17.306,11.289,2.358,1.069,8.647,3.23,10.682,1.505,1.326-1.121.452-3.43,1.248-4.7,1.486-2.382,1.355-.951,3.669-2.293,12.678-7.392.044-27.517-9.627-33.1-9.745-5.627-24.613-6.152-35.167-2.532-4.48,1.539-9.149,4.05-11.423,8.243-1.867,3.445-3.847,15.325,1.7,16.391Z" transform="translate(-424.117 -222.855)"/></g></g><g class="z" transform="translate(759.828 621.211)"><path class="aa" d="M19.6.029c9.877.523,21.424,7.529,21.351,18.308-.053,7.832-1.1,15.537-.737,23.4A62.976,62.976,0,0,0,44,60.092c2.044,5.693,6.979,10.875,7.781,16.812a24.947,24.947,0,0,1-2.156,12.4c-1.968,4.228-1.131,3.966,1.485,7.962,5.126,7.832,9.647,15.785,12.488,24.794,4.093,12.976,6.107,27.852,2.676,41.224-.436,1.7-1.389,7.856-3.811,8.039-2.706.2-1.092-3.2-.83-4.334,1.67-7.2,3.143-13.495,2.832-21.02-1.2-29.034-19.749-50.03-30.566-75.7-.6-1.329-1.841-4.472-2.713-6.551-1.377-3.283-2.468-9.368-4.531-11.912-3.886-4.792-.811,4.344-.139,6.1.848,2.217,1.79,4.578,2.692,6.537,4.117,9.076,8.734,19,12.987,28.354C19.257,95.535,6.308,66.968,2.156,48.646-1.265,33.55-3.61-1.149,19.6.029" transform="matrix(0.995, -0.105, 0.105, 0.995, 0, 85.428)"/><path class="ab" d="M73.658.088C57.145,1.4,46.544,12.283,41.61,27.51c-2.66,8.206-2.964,16.635-4.442,25.068-2.223,12.687-7.007,22.3-16.356,31.34a31.544,31.544,0,0,0-6.546,8.749,37.263,37.263,0,0,0-7.558,10.792c-2.46,5.425-3.156,11.933-.316,17.341a17.779,17.779,0,0,0,4.643,5.7c-7.392,15.73-11.457,32.957-11,50.163.277,10.386.784,20.777,1.376,31.15.159,2.785,1.067,7.385,2.431,2.714,1.248-4.273-.317-10.98-.462-15.444-.7-21.745-1.307-41.516,7.652-61.832q1.409-3.194,2.973-6.337a2.107,2.107,0,0,0,.175-.119c.04.03.075.063.115.093.066-.118.157-.259.263-.416a5.6,5.6,0,0,0,.8-1.127c.795-1.1,1.694-2.393,1.7-3.1,0-.005,0-.014,0-.019A292.739,292.739,0,0,1,35.445,96.251c-.049.061,7.038-9.58,5.942-4.248-.528,2.569-5.741,7.462-7.846,10.184A253.7,253.7,0,0,0,18.871,123.33c-.612.351-1.476,2.075-2.1,3.359-.345.651-.667,1.307-.983,1.878,16.1,5.316,28.63-5.392,37.171-17.846.01-.015.019-.03.029-.044a54.133,54.133,0,0,1,8.589-9.579c5.55-4.539,11.493-5.34,18.037-7.574,17.844-6.092,25.431-29.2,27.841-46.342,2.719-19.342-10.579-49-33.8-47.095" transform="translate(78.23 56.105)"/><path class="ab" d="M70.942,1.649C51.706,16.742,40.2,39.808,30.578,61.661c-10.742,24.408-19.106,49.55-23,75.949C5.018,154.955,2.09,172.358.667,189.841A186.185,186.185,0,0,0,.03,208.536c.01.512.284,14.422,2.821,11.547,1.443-1.635-.257-14.426-.228-16.513a267.3,267.3,0,0,1,3.167-35.052c2.808-19.133,4.921-38.263,9.544-57.069a65.139,65.139,0,0,1,2.408-8.459c1.135-2.862.038-1.7,2.545-2.541,2.436-.82,5.225-.262,7.788-1.361,10.164-4.358,17-18.26,22.076-27.3,5.8-10.337,10.033-21.635,13.721-32.853a242.729,242.729,0,0,0,6.8-24.973,66.81,66.81,0,0,1,1.885-8.073,18.657,18.657,0,0,0,1.2-2.5c.133-1.35-.566-2.253-.474-3.39q-1.187.8-2.34,1.649" transform="translate(48.789 10.267) rotate(-8)"/><path class="ab" d="M0,0A52.793,52.793,0,0,0,52.816,52.77,52.793,52.793,0,0,0,105.633,0" transform="translate(26.861 236.825)"/><path class="aa" d="M55.337,65.782A8.113,8.113,0,0,1,49.8,63.839a11.1,11.1,0,0,1-2.982-4.79c-1.358-3.909-1.486-8.713-1.571-11.892-.222-8.275-1.073-16.9-8.655-23.455-.893-.771-1.845-1.505-2.766-2.215-.822-.633-1.671-1.288-2.474-1.966l-.385-.323c-2.584-2.169-5.255-4.412-5.583-7.959-.182-1.971.136-3.421.945-4.307A4.091,4.091,0,0,1,29.53,5.8a13.172,13.172,0,0,1,2.718.333c.143.031.527.176,1.058.378a20.782,20.782,0,0,0,5.407,1.535c.416,0,.689-.094.812-.278a.807.807,0,0,0-.036-.756C39.178,6.257,38.105,5.6,36.3,5.04c-3.627-.394-7.051-.748-9.091-.748a6.756,6.756,0,0,0-1.319.094C19.135,5.866,13.6,10.945,9.447,19.48,5.351,27.9,3.785,37.262,3.217,42.1c-.154,1.309-.293,2.728-.426,4.337H0a94.011,94.011,0,0,1,1.035-10.45c.792-4.682,2.8-13.708,7.378-21.562a32.005,32.005,0,0,1,7.209-8.764,20.053,20.053,0,0,1,10-4.484,14.823,14.823,0,0,1,1.613-.059c1.05,0,2.314.04,3.56.113A9.294,9.294,0,0,1,34.749.061C35.3.021,35.868,0,36.433,0a28.679,28.679,0,0,1,9.521,1.743,41.022,41.022,0,0,1,9.094,4.621,47.446,47.446,0,0,1,7.859,6.589A39.83,39.83,0,0,1,68.724,20.6a29.489,29.489,0,0,1,3.627,14.714,47.6,47.6,0,0,1-2.54,15.128,34.625,34.625,0,0,1-5.091,10c-2.732,3.508-5.845,5.306-9.253,5.345Z" transform="translate(81.124 190.561)"/></g><g class="ac" transform="translate(162 535.652)"><path class="aa" d="M47.19,16.948C50.23,12.616,55.872,1.615,60.152.068c2.756-1,1.953,9.315,1.987,11.282a164.684,164.684,0,0,1-1.524,22.71c-1.649,13.6-7.042,25.721-14.438,37.3-3.806,5.958-8.27,11.988-14.453,15.706-2.846,1.712-6.271,2-9.081,3.474-3.273,1.717-1.491.329-2.966,3.737-2.049,4.732-2.7,10.836-3.652,15.885-4.352,23.177-14.889,145.7-13.062,169.274.162,2.09-2.754,2.589-2.9.038-.774-13.526,5.922-107.2,9.3-137.827s6.8-57.695,10.225-68.292c4.158-12.857,11.669-28.32,17.921-40.31A142.552,142.552,0,0,1,47.19,16.948Z" transform="translate(81.757 63.613)"/><path class="ad" d="M72.651,1.647C80.563-4.157,89.126,6.8,81.967,12.6c-3.958,3.208-8.1,2.067-10.425-.607-1.512,1.842-2.927,3.767-4.287,5.394-4.143,4.956-8.059,10.03-11.8,15.223C47.678,43.4,41.015,54.795,34.049,65.983c-6.875,11.042-13.7,22.142-19.926,33.464C8.843,109.04,1.807,120.325,0,130.841c2.742-22.3,13.148-43.741,25.539-63.4,12.29-19.5,26.395-40.8,45.424-56.187A6.73,6.73,0,0,1,72.651,1.647Z" transform="translate(78.863 229.153)"/><path class="aa" d="M1.384.022C5.812.887,13.046,10.894,16.7,14.707a142.831,142.831,0,0,1,11.981,14.42,243.844,243.844,0,0,1,21.2,34.545A320.925,320.925,0,0,1,73.461,125a252.784,252.784,0,0,1,7.156,40.226c.255,2.547,2.928,22.184-.923,22.713-3.464.477-2.394-14.91-2.561-17-1.889-23.613-7.547-46.588-15.418-68.845C60,97.241,58.407,91.3,55.666,86.94c-1.974-3.143-.014-2.047-3.484-3.236-2.979-1.022-6.374-.772-9.425-2.023-6.628-2.716-11.935-7.988-16.587-13.29C17.13,58.084,9.966,46.935,6.231,33.73A166.754,166.754,0,0,1,1.2,11.5C.926,9.544-1.467-.535,1.384.022Z" transform="translate(0 176.383)"/><path class="ab" d="M10.174,9.915A400.667,400.667,0,0,1,49.4,102.7c5.361,19.479,9.111,39.468,12.836,59.312,5.768,30.726,11.224,61.451,12.776,92.723,1.561,31.453,4.649,67.731-5.66,98.026,5.149-30.757.247-63.5-.621-94.444-.415-14.774-1.617-29.4-3.194-44.092-1.53-14.248-4.03-28.428-6.358-42.564q-1.7-10.327-3.537-20.629c-.362-2.05-.515-8.132-1.816-9.533s-7.993-1.984-10.091-3.018a54.176,54.176,0,0,1-11.716-8.168c-6.742-5.993-12.608-13.824-17.238-21.543C4.074,90.912-.209,69.115.008,48.429.049,44.412,6.514,1.164,3.918.568Q4.152.294,4.361,0,7.31,4.932,10.174,9.915Z" transform="translate(8.682)"/><path class="ab" d="M119.268,2.81c.257-.371,1.932-2.95,1.089-2.785,1.717-.336-2.362,2.844,1.917.893-2.031,1.917-.859,4.407-.832,6.987A62.515,62.515,0,0,1,120,20.346a85.261,85.261,0,0,1-5.8,18.8c-5.88,13.132-15.864,25.774-27.718,33.984-5.852,4.054-11.587,5.434-18.261,7.3-4.215,1.179-4.55,3.358-6.787,7.445-4.659,8.513-9.234,16.994-13.342,25.794-4.906,10.508-9.668,21.027-14.16,31.72C18.789,181.412,6.472,218.727,0,257.345c-.158-22.757,5.111-46.2,11.757-67.887,4.842-15.8,11.144-31.038,17.867-46.119,1.629-3.653,4.1-8.353,4.789-12.386.484-2.826-1-5.544-1.675-8.521A89.088,89.088,0,0,1,32.61,86.2c2.559-12.852,9.961-18.817,22.482-20.637,4.579-.666,10.4-.422,14.6-2.373,4.575-2.124,6.462-9.107,9.063-13.589a184.824,184.824,0,0,1,24.821-33.733,80.489,80.489,0,0,1,8.489-7.8C113.963,6.544,117.974,4.677,119.268,2.81Z" transform="translate(79.586 111.324)"/><path class="ad" d="M.83,4.142A3.615,3.615,0,0,1,4.409,0H48.845a3.615,3.615,0,0,1,3.579,4.142L48.989,27.41A14.466,14.466,0,0,1,34.674,39.758H18.58A14.466,14.466,0,0,1,4.264,27.41Z" transform="translate(54.045 344.091)"/></g><g transform="translate(528.597 487.336)"><path class="ae" d="M627.8,376.635c0,.062.09,0,1.329,0,.153,0-.2.053,0,0s1.24.23,1.329,0a2.183,2.183,0,0,0,0-1.329c-.249-.8-1.048-1.765-1.329-2.657-.58-1.8-.912-2.821-1.329-3.986a12.783,12.783,0,0,0-1.329-2.657,16.139,16.139,0,0,1,1.329,2.657c.338,1.191.749,2.183,1.329,3.986.295.884-.264,1.857,0,2.657.137.386,1.417,1.084,1.329,1.329-.07.24-1.017-.012-1.329,0A11.511,11.511,0,0,1,627.8,376.635Z" transform="translate(-626.469 -366.007)"/></g><path class="af" d="M627.312,371.129c-1.237-.82,4.154,2.657,6.644,2.657a3.262,3.262,0,0,1-3.986,1.329A4.61,4.61,0,0,1,627.312,371.129Z" transform="translate(-102.699 138.793)"/><g transform="translate(675.84 396.527)"><path class="ag" d="M3,139.82a3,3,0,0,1,0-6h11.09a3,3,0,0,1,0,6Zm15.374-11.151V105.509h4.659a11.584,11.584,0,0,1,10.687,7.114,1.711,1.711,0,0,1,2.6,1.458V120.1a1.711,1.711,0,0,1-2.6,1.458,11.584,11.584,0,0,1-10.687,7.114ZM30.343,84.085V21.424a5.983,5.983,0,1,1,11.966,0V84.085a5.983,5.983,0,0,1-11.966,0ZM18.376,68.645V5.983a5.983,5.983,0,1,1,11.966,0V68.645a5.983,5.983,0,1,1-11.966,0ZM3,12.009A3,3,0,1,1,3,6h11.09a3,3,0,1,1,0,6Z" transform="translate(12.009 54.764) rotate(-90)"/><path class="ad" d="M100.791,36.387V32.643c1.742-1.3,6.3-4.043,10.782-1.282,5.358,3.3,8.354-.1,12.345-.52.022.293.033.588.033.887v4.659ZM1.709,32.113a1.709,1.709,0,1,1,0-3.418h68.2v3.418Zm15.44-11.965a1.71,1.71,0,0,1,0-3.419h68.2v3.419Zm98.6-1.67a1.716,1.716,0,0,0-.372-.04h-6.017a1.723,1.723,0,0,0-.36.039c-1.566-.963-3.446-2.221-3.511-2.751-.116-.943,1.92-1.282,1.94-1.285l-.014,0c-.521-.167-5.1-1.689-5.312-3.433a1.237,1.237,0,0,1,.284-.968c.8-.971,2.986-1.144,3.037-1.148a.086.086,0,0,1-.02-.014,22.741,22.741,0,0,1-2.331-2.188c-1.053-1.149-2.27-2.795-2.086-4.106a2.183,2.183,0,0,1,1.54-1.661,1.657,1.657,0,0,1,.629-.127c1.31,0,2.7,1.634,4.122,4.855a65.748,65.748,0,0,1,3.028,9.113c-.456-5.6-.663-12.641.93-14.369A1.1,1.1,0,0,1,112.061,0a1.26,1.26,0,0,1,.162.012c3.7.52,2.9,7.149,2.206,13l-.046.38c1.215-4.213,3.077-9.236,5.035-9.236a1.224,1.224,0,0,1,.484.1,1.782,1.782,0,0,1,1.2,1.354c.316,2.118-3.459,5.369-3.545,5.443h.009a3.957,3.957,0,0,1,2.348.914,1.1,1.1,0,0,1,.248.862c-.192,1.55-4.1,2.916-4.229,2.961h.006c.269.051,1.6.345,1.513,1.078-.034.277-.6.818-1.7,1.607h0Z" transform="translate(16.727 0)"/><rect class="aa" width="170.272" height="5.983" rx="2.992" transform="translate(0 36.387)"/></g><g transform="translate(215.909 347)"><ellipse class="ah" cx="69.084" cy="69.084" rx="69.084" ry="69.084" transform="translate(0 0)"/><ellipse class="ai" cx="3.986" cy="3.986" rx="3.986" ry="3.986" transform="translate(65.098 9.3)"/><ellipse class="ai" cx="3.986" cy="3.986" rx="3.986" ry="3.986" transform="translate(9.3 65.098)"/><ellipse class="ai" cx="3.321" cy="3.986" rx="3.321" ry="3.986" transform="translate(119.568 65.098)"/><ellipse class="ai" cx="3.986" cy="3.321" rx="3.986" ry="3.321" transform="translate(65.098 119.568)"/><path class="aj" d="M2.616,0,5.233,45.808H0Z" transform="translate(66.255 21.531)"/><path class="aj" d="M2.625,0,5.234,31.4H0Z" transform="translate(93.88 89.956) rotate(135)"/><ellipse class="ak" cx="4.65" cy="4.65" rx="4.65" ry="4.65" transform="translate(63.77 63.77)"/></g></g></svg>