<svg width="289" height="270" viewBox="0 0 289 270" fill="none" xmlns="http://www.w3.org/2000/svg">
<g opacity="0.2" clip-path="url(#clip0)">
<g opacity="0.2">
<path d="M122.348 63.8869H36.6082V173.947H122.348V63.8869Z" fill="#EBEBEB"/>
<path d="M122.274 173.947L79.5152 174.096L36.6081 174.17H36.3858V173.947L36.2375 63.8869V63.5163H36.6081L122.274 63.6646H122.571V63.961L122.496 119.028L122.274 173.947ZM122.274 173.947L122.126 118.88L122.052 63.961L122.348 64.2575H36.6081L36.9786 63.8869L36.8304 173.947L36.6081 173.725L79.367 173.799L122.274 173.947Z" fill="#DBDBDB"/>
<path d="M45.9456 87.4554L79.4413 87.3072L112.937 87.4554L79.4413 87.5295L45.9456 87.4554Z" fill="#C7C7C7"/>
<path d="M45.9456 90.1235L79.4413 90.0494L112.937 90.1235L79.4413 90.2718L45.9456 90.1235Z" fill="#C7C7C7"/>
<path d="M45.9456 92.8658L79.4413 92.7916L112.937 92.8658L79.4413 92.9399L45.9456 92.8658Z" fill="#C7C7C7"/>
<path d="M45.9456 95.608L79.4413 95.5339L112.937 95.608L79.4413 95.6821L45.9456 95.608Z" fill="#C7C7C7"/>
<path d="M45.9456 98.3503L79.4413 98.2762L112.937 98.3503L79.4413 98.4244L45.9456 98.3503Z" fill="#C7C7C7"/>
<path d="M45.9456 101.093L79.4413 101.018L112.937 101.093L79.4413 101.167L45.9456 101.093Z" fill="#C7C7C7"/>
<path d="M45.9456 103.835L79.4413 103.761L112.937 103.835L79.4413 103.909L45.9456 103.835Z" fill="#C7C7C7"/>
<path d="M45.9456 106.577L79.4413 106.429L112.937 106.577L79.4413 106.651L45.9456 106.577Z" fill="#C7C7C7"/>
<path d="M45.9456 109.245L79.4413 109.171L112.937 109.245L79.4413 109.393L45.9456 109.245Z" fill="#C7C7C7"/>
<path d="M45.9456 111.987L79.4413 111.913L112.937 111.987L79.4413 112.061L45.9456 111.987Z" fill="#C7C7C7"/>
<path d="M45.9456 114.73L79.4413 114.656L112.937 114.73L79.4413 114.804L45.9456 114.73Z" fill="#C7C7C7"/>
<path d="M45.9456 117.472L79.4413 117.398L112.937 117.472L79.4413 117.546L45.9456 117.472Z" fill="#C7C7C7"/>
<path d="M45.9456 120.214L79.4413 120.14L112.937 120.214L79.4413 120.288L45.9456 120.214Z" fill="#C7C7C7"/>
<path d="M45.9456 122.956L79.4413 122.882L112.937 122.956L79.4413 123.03L45.9456 122.956Z" fill="#C7C7C7"/>
<path d="M45.9456 125.624L79.4413 125.55L112.937 125.624L79.4413 125.773L45.9456 125.624Z" fill="#C7C7C7"/>
<path d="M58.1729 117.398H53.0596V128.886H58.1729V117.398Z" fill="#676767"/>
<path d="M67.5845 111.246H62.4712V128.811H67.5845V111.246Z" fill="#676767"/>
<path d="M76.9958 104.428H71.8826V128.811H76.9958V104.428Z" fill="#676767"/>
<path d="M86.4072 101.463H81.2939V128.811H86.4072V101.463Z" fill="#676767"/>
<path d="M95.8186 96.275H90.7053V128.886H95.8186V96.275Z" fill="#676767"/>
<path d="M105.23 91.087H100.117V128.886H105.23V91.087Z" fill="#676767"/>
<path d="M47.7981 85.5284L47.9463 96.3492L48.0205 107.17C48.0946 114.359 48.0946 121.622 48.0946 128.811L47.7981 128.515H64.1014L80.4046 128.589L96.7078 128.663L113.011 128.886L96.7078 129.108L80.4046 129.182L64.1014 129.256H47.7981H47.5017V128.96C47.5017 121.771 47.5017 114.507 47.5758 107.318L47.6499 96.4974L47.7981 85.5284Z" fill="#C7C7C7"/>
<path d="M58.1729 131.109H53.0596V131.554H58.1729V131.109Z" fill="#C7C7C7"/>
<path d="M67.5845 131.109H62.4712V131.554H67.5845V131.109Z" fill="#C7C7C7"/>
<path d="M76.9958 131.109H71.8826V131.554H76.9958V131.109Z" fill="#C7C7C7"/>
<path d="M86.4072 131.109H81.2939V131.554H86.4072V131.109Z" fill="#C7C7C7"/>
<path d="M95.8186 131.109H90.7053V131.554H95.8186V131.109Z" fill="#C7C7C7"/>
<path d="M105.23 131.109H100.117V131.554H105.23V131.109Z" fill="#C7C7C7"/>
<path d="M53.6526 118.806C56.1722 118.806 58.6177 118.584 61.0631 118.213C63.5086 117.917 65.9541 117.472 68.3996 116.879C73.2165 115.767 77.9592 114.211 82.3314 111.987C86.7778 109.838 90.9277 107.022 94.5589 103.687L95.2258 103.094L95.8928 102.427L97.1526 101.093C97.9677 100.129 98.7829 99.2396 99.5239 98.2762C101.08 96.3492 102.414 94.274 103.674 92.1246H103.748C101.525 96.5715 98.5606 100.648 94.9294 104.131C93.1509 105.91 91.15 107.466 89.1492 108.875C87.0742 110.283 84.9251 111.543 82.702 112.654C78.1815 114.878 73.4388 116.434 68.5478 117.472C63.5827 118.509 58.6177 119.028 53.6526 118.806Z" fill="#263238"/>
<path d="M105.082 95.6821L104.415 95.8304L103.526 92.347L100.117 93.4587L99.8945 92.7917L104.044 91.4576L105.082 95.6821Z" fill="#263238"/>
<path d="M44.5607 148.733H114.368V145.917H44.5607V148.733Z" fill="#DBDBDB"/>
<path d="M44.5788 155.808H83.8547V152.992H44.5788V155.808Z" fill="#DBDBDB"/>
<path d="M59.8261 78.924H99.1021V76.1076H59.8261V78.924Z" fill="#DBDBDB"/>
<path d="M106.119 200.777L22.1576 218.046L0 110.283L62.3228 97.4609L88.1856 113.544L106.119 200.777Z" fill="#676767"/>
<path opacity="0.8" d="M106.119 200.777L22.1576 218.046L0 110.283L62.3228 97.4609L88.1856 113.544L106.119 200.777Z" fill="white"/>
<path d="M62.323 97.4609L88.1858 113.544L66.547 117.991L62.323 97.4609Z" fill="#676767"/>
<path d="M12.4717 129.403L59.1448 119.81L58.5779 117.051L11.9049 126.644L12.4717 129.403Z" fill="#DBDBDB"/>
<path d="M13.9378 136.403L60.6108 126.81L60.044 124.051L13.3709 133.644L13.9378 136.403Z" fill="#DBDBDB"/>
<path d="M15.3313 143.418L62.0044 133.825L61.4375 131.066L14.7645 140.659L15.3313 143.418Z" fill="#DBDBDB"/>
<path d="M16.8023 150.409L85.1787 136.355L84.6118 133.597L16.2355 147.651L16.8023 150.409Z" fill="#DBDBDB"/>
<path d="M18.2535 157.337L86.6299 143.283L86.063 140.524L17.6866 154.578L18.2535 157.337Z" fill="#DBDBDB"/>
<path d="M19.6473 164.352L88.0237 150.298L87.4568 147.539L19.0804 161.593L19.6473 164.352Z" fill="#DBDBDB"/>
<path d="M21.1134 171.352L89.4897 157.298L88.9229 154.539L20.5465 168.593L21.1134 171.352Z" fill="#DBDBDB"/>
<path d="M22.5794 178.352L90.9558 164.298L90.3889 161.539L22.0125 175.593L22.5794 178.352Z" fill="#DBDBDB"/>
<path d="M23.9578 185.294L92.3342 171.24L91.7674 168.481L23.391 182.535L23.9578 185.294Z" fill="#DBDBDB"/>
<path d="M25.4241 192.294L93.8005 178.24L93.2337 175.482L24.8573 189.536L25.4241 192.294Z" fill="#DBDBDB"/>
<path d="M26.8175 199.309L95.1938 185.255L94.627 182.497L26.2506 196.55L26.8175 199.309Z" fill="#DBDBDB"/>
<path d="M28.2686 206.237L96.645 192.183L96.0782 189.424L27.7018 203.478L28.2686 206.237Z" fill="#DBDBDB"/>
<path d="M278.266 122.438C246.846 124.735 215.499 127.033 184.227 129.256C173.481 88.5671 184.968 47.804 176.668 7.11501C208.088 4.81745 239.435 2.51989 270.708 0.296448C281.379 40.9854 269.893 81.7486 278.266 122.438Z" fill="#EBEBEB"/>
<path d="M278.266 122.438C246.846 124.809 215.573 127.181 184.301 129.478C184.227 129.478 184.152 129.478 184.078 129.478C184.078 129.404 184.004 129.33 184.004 129.256C173.259 88.5671 184.671 47.804 176.297 7.11502C176.297 6.96679 176.223 6.89267 176.223 6.74444C176.371 6.74444 176.445 6.74444 176.594 6.74444C208.014 4.521 239.361 2.22344 270.634 0C270.708 0 270.782 0 270.856 0C270.856 0.0741147 270.93 0.148229 270.93 0.296459C281.601 40.9855 269.967 81.7486 278.266 122.438ZM278.266 122.438C269.818 81.7486 281.231 40.9855 270.411 0.296459C270.485 0.370574 270.634 0.444688 270.708 0.518803C239.435 2.81636 208.089 5.18803 176.668 7.48559C176.742 7.33736 176.89 7.18913 176.964 7.11502C185.264 47.804 173.778 88.5671 184.375 129.256C184.301 129.182 184.152 129.108 184.078 129.034C215.499 126.884 246.846 124.661 278.266 122.438Z" fill="#DBDBDB"/>
<path d="M188.006 24.6061C205.643 23.3461 223.206 22.0862 240.843 20.8262C240.991 21.8639 241.065 22.9015 241.14 23.9391C223.502 25.199 205.939 26.459 188.302 27.7189C188.154 26.6813 188.08 25.6437 188.006 24.6061Z" fill="#DBDBDB"/>
<path d="M188.525 32.4623C206.162 31.2023 223.873 29.9424 241.51 28.6824C241.584 29.72 241.658 30.7576 241.658 31.7952C224.021 33.0552 206.31 34.3151 188.673 35.5751C188.599 34.6116 188.599 33.574 188.525 32.4623Z" fill="#DBDBDB"/>
<path d="M188.747 40.3925C206.458 39.1326 224.169 37.8726 241.806 36.6127C241.806 37.6503 241.881 38.6879 241.881 39.7255C224.169 40.9855 206.458 42.2454 188.747 43.5054C188.821 42.4678 188.747 41.4301 188.747 40.3925Z" fill="#DBDBDB"/>
<path d="M188.821 48.3228C214.832 46.47 240.769 44.6171 266.706 42.7642C266.706 43.8018 266.706 44.8394 266.706 45.877C240.769 47.7299 214.758 49.5828 188.747 51.4356C188.747 50.398 188.821 49.3604 188.821 48.3228Z" fill="#DBDBDB"/>
<path d="M188.673 56.2531C214.684 54.4002 240.695 52.5474 266.706 50.6945C266.706 51.7321 266.706 52.7697 266.632 53.8073C240.621 55.6602 214.61 57.513 188.599 59.3659C188.673 58.3283 188.673 57.2907 188.673 56.2531Z" fill="#DBDBDB"/>
<path d="M188.525 64.1834C214.536 62.3305 240.547 60.4776 266.558 58.6248C266.558 59.6624 266.484 60.7 266.484 61.7376C240.473 63.5905 214.461 65.4433 188.45 67.2962C188.45 66.2586 188.45 65.221 188.525 64.1834Z" fill="#DBDBDB"/>
<path d="M188.302 72.1137C214.313 70.2608 240.325 68.4079 266.336 66.5551C266.336 67.5927 266.261 68.6303 266.261 69.6679C240.25 71.5207 214.239 73.3736 188.228 75.2265C188.302 74.1889 188.302 73.1513 188.302 72.1137Z" fill="#DBDBDB"/>
<path d="M188.228 79.9698C214.239 78.1169 240.25 76.2641 266.187 74.4112C266.187 75.4488 266.187 76.4864 266.113 77.524C240.102 79.3769 214.165 81.2298 188.154 83.0826C188.154 82.1191 188.154 81.0815 188.228 79.9698Z" fill="#DBDBDB"/>
<path d="M188.228 87.9001C214.165 86.0472 240.176 84.1944 266.113 82.3415C266.113 83.3791 266.113 84.4167 266.113 85.4543C240.176 87.3072 214.239 89.16 188.302 91.0129C188.228 89.9753 188.228 88.9377 188.228 87.9001Z" fill="#DBDBDB"/>
<path d="M188.45 95.8304C214.313 93.9775 240.25 92.1246 266.187 90.2718C266.187 91.3094 266.261 92.347 266.261 93.3846C240.324 95.2375 214.461 97.0903 188.599 98.9432C188.525 97.9056 188.45 96.868 188.45 95.8304Z" fill="#DBDBDB"/>
<path d="M188.895 103.761C214.684 101.908 240.547 100.055 266.409 98.202C266.484 99.2396 266.558 100.277 266.632 101.315C240.769 103.168 214.98 105.021 189.191 106.873C189.043 105.836 188.969 104.798 188.895 103.761Z" fill="#DBDBDB"/>
<path d="M189.71 111.691C215.425 109.838 241.214 107.985 267.002 106.132C267.076 107.17 267.225 108.208 267.299 109.245C241.51 111.098 215.795 112.951 190.081 114.804C190.007 113.766 189.858 112.729 189.71 111.691Z" fill="#DBDBDB"/>
<path d="M264.928 166.017C232.469 160.533 200.456 155.048 168.739 149.489C172.814 109.245 193.193 69.0749 192.156 28.8306C224.614 34.3151 256.628 39.7996 288.345 45.3582C284.195 85.6025 263.816 125.847 264.928 166.017Z" fill="#676767"/>
<path opacity="0.8" d="M264.928 166.017C232.469 160.533 200.456 155.048 168.739 149.489C172.814 109.245 193.193 69.0749 192.156 28.8306C224.614 34.3151 256.628 39.7996 288.345 45.3582C284.195 85.6025 263.816 125.847 264.928 166.017Z" fill="white"/>
<path d="M200.085 48.2487C217.648 51.2874 235.137 54.4002 252.552 57.4389C252.404 58.4765 252.181 59.5141 251.959 60.5517C234.618 57.513 217.129 54.4002 199.64 51.3615C199.863 50.3239 199.937 49.2863 200.085 48.2487Z" fill="#DBDBDB"/>
<path d="M198.974 56.1048C216.389 59.1435 233.803 62.2564 251.07 65.2951C250.848 66.3327 250.625 67.3703 250.403 68.4079C233.136 65.3692 215.796 62.2564 198.381 59.2177C198.603 58.1801 198.825 57.1424 198.974 56.1048Z" fill="#DBDBDB"/>
<path d="M197.491 63.8869C214.832 66.9256 232.099 70.0384 249.291 73.0771C249.069 74.1147 248.772 75.1523 248.55 76.1899C231.358 73.1512 214.091 70.0384 196.824 66.9997C197.121 65.9621 197.269 64.9245 197.491 63.8869Z" fill="#DBDBDB"/>
<path d="M195.787 71.7431C221.057 76.1899 246.179 80.7109 271.301 85.1578C271.004 86.1954 270.782 87.233 270.485 88.2707C245.364 83.8238 220.242 79.3028 195.046 74.8559C195.342 73.8183 195.565 72.7807 195.787 71.7431Z" fill="#DBDBDB"/>
<path d="M193.86 79.5251C218.982 83.972 244.104 88.493 269.152 92.9399C268.855 93.9775 268.559 95.0151 268.262 96.0527C243.215 91.6058 218.167 87.0848 192.971 82.6379C193.341 81.6003 193.638 80.5627 193.86 79.5251Z" fill="#DBDBDB"/>
<path d="M191.785 87.3813C216.907 91.8282 241.955 96.3492 267.003 100.796C266.706 101.834 266.41 102.871 266.187 103.909C241.14 99.462 216.092 94.941 190.97 90.4941C191.267 89.4565 191.563 88.4189 191.785 87.3813Z" fill="#DBDBDB"/>
<path d="M189.71 95.1633C214.758 99.6102 239.806 104.131 264.928 108.578C264.631 109.616 264.409 110.653 264.112 111.691C238.991 107.244 213.943 102.723 188.895 98.2761C189.118 97.2385 189.414 96.2009 189.71 95.1633Z" fill="#DBDBDB"/>
<path d="M187.561 103.019C212.609 107.466 237.731 111.987 262.927 116.434C262.63 117.472 262.408 118.509 262.186 119.547C236.99 115.1 211.868 110.579 186.746 106.132C186.968 105.095 187.265 104.057 187.561 103.019Z" fill="#DBDBDB"/>
<path d="M185.412 110.802C210.534 115.248 235.656 119.769 260.926 124.216C260.704 125.254 260.481 126.292 260.259 127.329C234.915 122.882 209.719 118.361 184.597 113.914C184.894 112.877 185.116 111.839 185.412 110.802Z" fill="#DBDBDB"/>
<path d="M183.411 118.658C208.607 123.105 233.877 127.626 259.296 132.072C259.073 133.11 258.925 134.148 258.703 135.185C233.21 130.738 207.94 126.217 182.67 121.771C182.893 120.733 183.115 119.695 183.411 118.658Z" fill="#DBDBDB"/>
<path d="M181.559 126.44C206.829 130.887 232.247 135.408 257.887 139.855C257.739 140.892 257.591 141.93 257.443 142.967C231.802 138.52 206.31 133.999 180.966 129.553C181.114 128.515 181.336 127.477 181.559 126.44Z" fill="#DBDBDB"/>
<path d="M179.928 134.296C205.347 138.743 230.987 143.264 256.776 147.711C256.628 148.748 256.554 149.786 256.479 150.823C230.617 146.377 204.902 141.856 179.41 137.409C179.558 136.371 179.78 135.333 179.928 134.296Z" fill="#DBDBDB"/>
</g>
<path d="M225.651 149.564H59.4326V270.074H225.651V149.564Z" fill="white"/>
<path d="M118.198 137.038H59.4326V149.564H121.533L118.198 137.038Z" fill="white"/>
<g opacity="0.1">
<path opacity="0.1" d="M225.651 149.564H59.4326V270.074H225.651V149.564Z" fill="#C8C8C8" fill-opacity="0.25"/>
<path opacity="0.1" d="M118.198 137.038H59.4326V149.564H121.533L118.198 137.038Z" fill="#C8C8C8" fill-opacity="0.25"/>
</g>
<path d="M224.54 224.938C192.082 215.674 160.365 206.484 129.092 197.368C136.947 160.681 158.957 124.661 160.439 87.3813C192.897 96.1268 224.54 104.872 255.813 113.692C247.883 151.046 225.874 187.362 224.54 224.938Z" fill="#EBEBEB"/>
<path d="M224.54 224.938C192.082 215.748 160.365 206.632 129.092 197.59C129.018 197.59 128.944 197.516 128.87 197.516C128.87 197.442 128.87 197.368 128.944 197.293C136.799 160.533 158.734 124.587 160.142 87.3072C160.142 87.1589 160.142 87.0848 160.142 86.9366C160.29 86.9366 160.365 87.0107 160.513 87.0107C192.971 95.7563 224.688 104.576 255.887 113.396C255.961 113.396 256.035 113.47 256.109 113.47C256.109 113.544 256.109 113.618 256.035 113.692C248.031 151.12 225.948 187.436 224.54 224.938ZM224.54 224.938C225.8 187.362 247.735 150.972 255.59 113.618C255.664 113.692 255.738 113.84 255.812 113.914C224.614 105.169 192.897 96.4233 160.513 87.6777C160.661 87.6036 160.809 87.5295 160.883 87.4554C159.327 124.735 137.244 160.681 129.388 197.368C129.314 197.293 129.24 197.219 129.24 197.071C160.365 206.335 192.082 215.6 224.54 224.938Z" fill="#DBDBDB"/>
<path d="M219.426 156.679C214.61 169.575 200.011 176.764 186.375 172.687C172.666 168.685 165.552 155.048 170.294 142.226C174.963 129.404 189.043 122.141 202.901 126.069C216.685 130.071 224.243 143.783 219.426 156.679Z" fill="#494A4A"/>
<path d="M194.823 149.489C189.191 155.863 183.559 162.237 178.076 168.611C169.776 162.385 166.737 151.861 170.22 142.3C174.889 129.553 189.117 122.215 202.827 126.143C216.611 130.071 224.243 143.931 219.427 156.753C211.201 154.307 203.049 151.861 194.823 149.489Z" fill="#DBDBDB"/>
<path d="M194.823 149.489C199.714 156.012 204.531 162.608 209.422 169.204C202.679 173.725 194.082 175.059 186.301 172.761C172.666 168.759 165.552 155.048 170.22 142.3C174.889 129.553 189.117 122.215 202.827 126.143C216.61 130.071 224.243 143.931 219.426 156.753C211.201 154.307 203.049 151.861 194.823 149.489Z" fill="#DBDBDB"/>
<path d="M194.823 149.489C186.227 150.898 177.631 152.38 169.035 153.788C168.442 149.934 168.887 146.006 170.22 142.3C174.889 129.553 189.117 122.215 202.827 126.143C216.611 130.071 224.243 143.931 219.427 156.753C211.201 154.307 203.049 151.861 194.823 149.489Z" fill="#676767"/>
<path d="M167.849 103.612C181.04 107.244 194.083 110.95 207.051 114.581C206.829 115.545 206.606 116.508 206.31 117.472C193.342 113.766 180.373 110.135 167.256 106.503C167.479 105.465 167.627 104.576 167.849 103.612Z" fill="#DBDBDB"/>
<path d="M164.811 176.986C182.151 182.1 199.566 187.214 217.129 192.402C216.833 193.365 216.611 194.329 216.388 195.218C198.751 190.03 181.262 184.916 163.847 179.802C164.218 178.913 164.514 177.949 164.811 176.986Z" fill="#DBDBDB"/>
<path d="M162.588 184.101C180.076 189.215 197.639 194.403 215.351 199.591C215.128 200.554 214.906 201.518 214.684 202.481C196.898 197.293 179.261 192.105 161.698 186.991C161.995 186.028 162.291 185.065 162.588 184.101Z" fill="#DBDBDB"/>
<path d="M160.513 191.29C178.15 196.478 195.861 201.666 213.794 206.854C213.646 207.818 213.424 208.781 213.276 209.745C195.268 204.483 177.409 199.295 159.771 194.107C160.068 193.143 160.29 192.18 160.513 191.29Z" fill="#DBDBDB"/>
<path d="M154.584 177.06C152.509 176.467 150.36 175.8 148.285 175.207C148.582 174.244 148.952 173.354 149.249 172.391C151.323 172.984 153.473 173.651 155.547 174.244C155.177 175.207 154.881 176.171 154.584 177.06Z" fill="#676767"/>
<path d="M152.361 184.175C150.212 183.582 148.137 182.915 145.988 182.322C146.284 181.359 146.581 180.469 146.877 179.506C148.952 180.099 151.101 180.766 153.25 181.359C152.88 182.322 152.583 183.286 152.361 184.175Z" fill="#494A4A"/>
<path d="M150.36 191.29C148.211 190.697 146.062 190.03 143.987 189.437C144.209 188.474 144.506 187.584 144.802 186.621C146.951 187.214 149.026 187.881 151.175 188.474C150.805 189.437 150.582 190.401 150.36 191.29Z" fill="#DBDBDB"/>
<path d="M225.207 270H58.988L46.1677 159.569H212.387L225.207 270Z" fill="white"/>
<path d="M103.6 148.081H44.834L46.1679 159.569H108.268L103.6 148.081Z" fill="white"/>
<path d="M159.846 74.93C159.549 73.9665 159.475 72.9289 159.475 71.9654C159.475 71.0019 159.549 69.9643 159.846 69.0008C160.142 69.9643 160.216 71.0019 160.216 71.9654C160.216 73.003 160.142 73.9665 159.846 74.93Z" fill="#263238"/>
<path d="M153.843 76.7088C153.102 75.9676 152.584 75.1524 152.065 74.3371C151.546 73.4477 151.176 72.5583 150.879 71.5948C151.62 72.336 152.213 73.1512 152.658 73.9665C153.176 74.7818 153.621 75.6712 153.843 76.7088Z" fill="#263238"/>
<path d="M149.471 81.2298C148.433 81.0074 147.618 80.5627 146.729 80.0439C145.914 79.5251 145.025 79.0063 144.358 78.2652C145.395 78.4875 146.21 78.9322 147.1 79.451C147.915 79.8957 148.804 80.4886 149.471 81.2298Z" fill="#263238"/>
<path d="M147.989 87.3072C147.026 87.6036 145.988 87.6777 145.025 87.6777C144.061 87.6777 143.024 87.6036 142.061 87.3072C143.024 87.0107 144.061 86.9366 145.025 86.9366C145.988 86.9366 146.952 87.0107 147.989 87.3072Z" fill="#263238"/>
<path d="M149.693 93.3105C148.952 94.0516 148.137 94.5704 147.322 95.0892C146.433 95.608 145.543 95.9786 144.58 96.2751C145.321 95.5339 146.136 94.941 146.951 94.4963C147.841 94.0516 148.73 93.6069 149.693 93.3105Z" fill="#263238"/>
<path d="M154.214 97.6832C153.991 98.7208 153.547 99.5361 153.028 100.425C152.509 101.241 151.991 102.13 151.25 102.797C151.472 101.76 151.916 100.944 152.435 100.055C152.954 99.2396 153.473 98.4244 154.214 97.6832Z" fill="#263238"/>
<path d="M160.365 99.1655C160.661 100.129 160.735 101.167 160.735 102.13C160.735 103.094 160.661 104.131 160.365 105.095C160.068 104.131 159.994 103.094 159.994 102.13C159.994 101.167 160.068 100.203 160.365 99.1655Z" fill="#263238"/>
<path d="M166.367 97.4609C167.108 98.202 167.627 99.0173 168.146 99.8326C168.664 100.722 169.035 101.611 169.331 102.575C168.59 101.834 167.997 101.018 167.553 100.203C167.034 99.3138 166.59 98.4244 166.367 97.4609Z" fill="#263238"/>
<path d="M170.739 92.9399C171.777 93.1622 172.592 93.6069 173.481 94.1257C174.296 94.6445 175.186 95.1633 175.853 95.9045C174.815 95.6821 174 95.2374 173.111 94.7186C172.221 94.1998 171.406 93.681 170.739 92.9399Z" fill="#263238"/>
<path d="M172.221 86.8625C173.185 86.566 174.222 86.4919 175.186 86.4919C176.149 86.4919 177.187 86.566 178.15 86.8625C177.187 87.1589 176.149 87.233 175.186 87.233C174.222 87.233 173.185 87.1589 172.221 86.8625Z" fill="#263238"/>
<path d="M170.443 80.7851C171.184 80.0439 171.999 79.5251 172.814 79.0063C173.704 78.4875 174.593 78.1169 175.556 77.8205C174.815 78.5616 174 79.1545 173.185 79.5992C172.37 80.118 171.481 80.5627 170.443 80.7851Z" fill="#263238"/>
<path d="M165.923 76.4864C166.145 75.4488 166.59 74.6336 167.108 73.7442C167.627 72.9289 168.146 72.0395 168.887 71.3725C168.665 72.4101 168.22 73.2254 167.701 74.1147C167.257 74.93 166.664 75.7453 165.923 76.4864Z" fill="#263238"/>
</g>
<defs>
<clipPath id="clip0">
<rect width="288.271" height="270" fill="white"/>
</clipPath>
</defs>
</svg>
