<svg xmlns="http://www.w3.org/2000/svg" xmlns:xlink="http://www.w3.org/1999/xlink" width="420.062" height="306.687" viewBox="0 0 420.062 306.687"><defs><style>.a{fill:#ad9380;}.b{fill:#fce8cf;}.c,.g{fill:#f6ba99;}.c{opacity:0.94;}.d{fill:#ef6c74;}.e{fill:#eab860;}.f{fill:#fcd588;}.h{fill:#00143a;}.i{opacity:0.33;}.j{fill:#f2957e;}.k{fill:#f3f0eb;}.l{fill:#b4cce9;}.m{fill:#af4852;}.n{opacity:0.34;fill:url(#a);}.o{fill:#102d51;opacity:0.17;}.p{fill:#d3bea7;}.q{fill:#89c5cc;}.r{fill:#69a1ac;}.s,.t{fill:#c1dee2;}.t{opacity:0.2;}.u{opacity:0.5;}.v{fill:#f2f2f2;}</style><linearGradient id="a" x1="0.116" y1="0.906" x2="0.722" y2="0.477" gradientUnits="objectBoundingBox"><stop offset="0" stop-color="#fff"/><stop offset="0.232" stop-color="#fff" stop-opacity="0.769"/><stop offset="1" stop-color="#fff" stop-opacity="0"/></linearGradient></defs><g transform="translate(-715 -228.405)"><g transform="translate(477.668 62.97)"><path class="a" d="M389.318,295.147l-13.584,68.487h6.306l21.153-61.07Z" transform="translate(45.5 94.181)"/><path class="a" d="M430.482,301.112l17.924,66.678h6.111l-7.878-77.46Z" transform="translate(106.212 88.84)"/><path class="b" d="M378.031,357.839c17.858,19.5,45.378,28.922,71.744,26.967s51.352-14.606,70.453-32.887S552.794,310,561.4,285.01c2.936-8.526,5.357-17.394,5.125-26.408s-3.41-18.27-10.161-24.246c-12.065-10.68-31.115-7.755-45.42-.337a92.9,92.9,0,0,0-43.265,48.022c-4,10.178-6.164,21.028-10.6,31.018s-11.791,19.47-22.209,22.789c-7.312,2.333-15.231,1.371-22.8.082s-15.26-2.887-22.854-1.759-25.417,4.5-11.186,23.669" transform="translate(42.115 19.016)"/><path class="c" d="M485.471,289.2S416.65,245.117,394.306,265.3s-52.675,92.276-52.675,92.276l15.032,10.41s50.049-76.006,59.942-76.029,65.8,27.089,65.8,27.089Z" transform="translate(7.682 55.218)"/><path class="d" d="M349.313,308.466s-16.956-6.561-14.334-3.216,27.332,17.873,27.332,17.873l2.244-4.756Z" transform="translate(0 104.33)"/><path class="e" d="M379.372,282.072l11.787-21.085,52.462,22.566Z" transform="translate(49.534 56.299)"/><path class="f" d="M455.309,221.463c-1.561,1.925-.747,4.817.5,6.957s2.917,4.256,2.906,6.736c-.015,2.972-2.468,5.473-2.672,8.436-.247,3.558,2.7,6.415,4.29,9.606a13.83,13.83,0,0,1-5,17.354,80.871,80.871,0,0,1-21.76-10.37c3.3-10.831,6.628-21.733,11.827-31.792a93.975,93.975,0,0,1,7.725-12.449" transform="translate(109.643 6.348)"/><path class="g" d="M472.762,234.754s-13.143-6.793-26.022,15.473c-18.569,32.1-50.235-3.056-50.235-3.056l-15.391,3.663s12.3,31.71,47.057,31.493S472.762,234.754,472.762,234.754Z" transform="translate(51.466 26.127)"/><path class="e" d="M470.491,264.83l-5.66,18.238-9.891,34.35c-14.493,1.62-31.246-5.768-49.041-10.245,11.055-14.3,19.362-29.8,20.663-48.339,0,0-4.806-5.884-.287-8.615a27.449,27.449,0,0,0,8.25-7.348L470.86,259.1" transform="translate(78.951 36.211)"/><g transform="translate(527.703 214.4)"><path class="g" d="M428.617,260.008c1.014-1.837,3.081-10.323,3.081-10.323s-7.219-3.4-5.085-10.994,8.556-24.571,8.556-24.571l15.977-1.919,9.383,16-13.548,36.974Z" transform="translate(-426.219 -212.201)"/><g transform="translate(5.527 12.955)"><path class="h" d="M429.138,219.637a1.006,1.006,0,1,0,1.28-.62A1.007,1.007,0,0,0,429.138,219.637Z" transform="translate(-428.571 -217.661)"/><path class="h" d="M428.845,218.962c.08.167.991-.188,2.033.114s1.641,1.063,1.8.964c.074-.044.023-.314-.232-.662a2.678,2.678,0,0,0-3.056-.86C428.988,218.681,428.8,218.888,428.845,218.962Z" transform="translate(-428.839 -218.344)"/></g><g transform="translate(16.879 16.91)"><path class="h" d="M434.363,221.456a1.008,1.008,0,1,0,1.284-.62A1.007,1.007,0,0,0,434.363,221.456Z" transform="translate(-434.128 -219.597)"/><path class="h" d="M434.228,220.837c.08.164.991-.188,2.035.114s1.639,1.063,1.795.964c.074-.044.025-.314-.232-.662a2.676,2.676,0,0,0-3.056-.86C434.369,220.556,434.19,220.763,434.228,220.837Z" transform="translate(-434.223 -220.219)"/></g><g transform="translate(7.738 16.014)"><path class="h" d="M432.328,228.67a7.76,7.76,0,0,1-1.71-.515,1.752,1.752,0,0,1-.428-.194.665.665,0,0,1-.3-.51,1.732,1.732,0,0,1,.474-1.025q.668-.9,1.415-1.9c1.01-1.339,1.947-2.539,2.64-3.4a7.83,7.83,0,0,1,1.187-1.335,7.7,7.7,0,0,1-.96,1.508c-.635.9-1.533,2.128-2.545,3.467-.5.658-.987,1.286-1.44,1.879a1.556,1.556,0,0,0-.437.785c-.008.224.245.35.5.453A8,8,0,0,1,432.328,228.67Z" transform="translate(-429.888 -219.794)"/></g><g class="i" transform="translate(14.877 26.242)"><path class="j" d="M433.313,225.513c-.266.856.825,1.917,2.392,2.5s3.077.493,3.419-.34-.673-2.1-2.316-2.71S433.579,224.661,433.313,225.513Z" transform="translate(-433.273 -224.644)"/></g><path class="k" d="M435.556,225.033c.1-.057-3.608.706-5.7-.021a3,3,0,0,0,3.058,2.147C435.425,227,435.556,225.033,435.556,225.033Z" transform="translate(-422.181 -197.994)"/><path class="j" d="M429.066,229.975a19.649,19.649,0,0,0,11.007.1s-4.134,4.68-11.481,1.778Z" transform="translate(-423.587 -192.491)"/><path class="g" d="M440.535,227.36A3.53,3.53,0,0,0,446,226.9a2.486,2.486,0,0,0,.451-1.845,2.565,2.565,0,0,0-1.757-1.784,7.583,7.583,0,0,0-2.594-.257" transform="translate(-410.343 -200.222)"/><g transform="translate(20.283 17.257)"><path class="h" d="M437.411,220.388c.112.025-.013.559-.569.825s-1.05.036-1-.065.424-.095.827-.3S437.307,220.344,437.411,220.388Z" transform="translate(-435.836 -220.384)"/></g></g><path class="e" d="M446.079,275.78S447.909,314,416,315.08l-1.864-40.624Z" transform="translate(88.086 71.236)"/><path class="g" d="M473.112,277.338S371.9,260.967,361.844,281.6s-.941,107.429-.941,107.429l19.7-1.71s3.459-81.253,8.117-84.568,86.667,16.068,93.375,15.134C489.6,316.839,515.663,287.217,473.112,277.338Z" transform="translate(24.856 67.6)"/><path class="d" d="M367.2,327.708s-17.677,4.252-13.617,5.509,31.315-.755,31.315-.755l.652-7.343Z" transform="translate(20.265 127.416)"/><path class="g" d="M404.6,249.471l-1.913-3.214a31.867,31.867,0,0,1-3.328-5.338,9.143,9.143,0,0,1-.934-2.974,13.994,13.994,0,0,1-.139-3.883c.242-1.173-1.065-2.031-1.871-1.3s-1.558,3.942-.694,7.7-3.918.032-5.688-1.295-7.434-5.173-8.273-4.952c-1.23.325-1.109,1.7.687,2.984,1.82,1.3,6.917,5.513,6.171,6.411s-9.646-5.987-9.646-5.987-1.666-1.778-2.562-.766c-1.618,1.824,8.4,8.436,9.366,9.041.671.42-.1,1.428-.8.939-.719-.506-8.731-7.065-10.395-5.224-1.276,1.415,8.187,5.515,9.094,7.8s-6.86-3.838-8.024-2.44c-.434.523-.683.972,4.281,3.845,5.087,2.942,20.168,8.668,20.168,8.668l4.454-10.226" transform="translate(44.091 24.7)"/><path class="e" d="M419.086,254.669l9.132-20.764,6.247.675,18.365,5.165s11.3,2.915,13.946,7.611-9.492,27.64-9.492,27.64Z" transform="translate(93.574 26.266)"/><path class="g" d="M476.419,237.931s24.12,4.705,8.72,42.972c-15.684,38.973-79.61,31.181-79.61,31.181l-1.076-14.018s53.86-4.929,62.713-20.341S476.419,237.931,476.419,237.931Z" transform="translate(77.349 30.732)"/><path class="l" d="M392.548,300.2l-24.079-51.68,3.107-1.765,24.481,50.115,43.155-3.427.422,2.916Z" transform="translate(37.445 40.512)"/><path class="h" d="M377.946,228.672l-2.212,30.381,16,1.927,3.462-31.143Z" transform="translate(45.5 20.464)"/><path class="l" d="M377.788,229.9l-1.5,22.663,14.678,1.5,2.1-22.744Z" transform="translate(46.117 21.821)"/><path class="k" d="M376.291,248.411l15.939-10.67.5-5.47-16.068,12Z" transform="translate(46.117 24.455)"/><path class="g" d="M404.454,266.445" transform="translate(77.349 62.352)"/><path class="f" d="M428.839,219.544s2.934-12.314,20.058-8.642,10.564,23.607,10.564,23.607l-8.345-4.846-.217-5.8-2,4.791-6.51-2.847,1.672-3.446-2.91,2.149Z" transform="translate(104.39 0)"/><path class="f" d="M442.526,216.064a7.042,7.042,0,0,1,2.756-4.169c1.455-.888,3.667-.671,4.509.81.968,1.7-.443,3.961-2.29,4.606s-3.878.169-5.774-.312" transform="translate(118.682 1.278)"/><path class="g" d="M417.466,270.133s-7.052.143-10.865-4.941-5.19.211-1.016,4.941,6.188,5.8,6.188,5.8-23.242,5.861-18.384,6.164,27.125,2.626,27.125,2.626Z" transform="translate(64.337 58.664)"/><path class="e" d="M380.619,307.608l-3.438-36.217s85.774-3.083,97.445,7.725,5.2,41.816-17.643,39.815S380.619,307.608,380.619,307.608Z" transform="translate(47.105 67.386)"/><path class="e" d="M418.455,236.187l4.363,11.964,12.346-13.193S424.872,231.113,418.455,236.187Z" transform="translate(92.875 25.887)"/><path class="e" d="M439.82,255.436l13.193-7.367s-2.535-7.984-12.487-9.84-.785-.605-.706,0S439.82,255.436,439.82,255.436Z" transform="translate(112.215 29.98)"/><g transform="translate(528.943 293.513)"><path class="m" d="M435.941,257.81c.044.076-.69.588-2.088.726a6.424,6.424,0,0,1-7.038-6.7c.067-1.4.544-2.164.622-2.124.127.04-.131.837-.048,2.115a6.365,6.365,0,0,0,6.441,6.131C435.112,257.983,435.9,257.685,435.941,257.81Z" transform="translate(-426.807 -249.714)"/></g><g transform="translate(511.153 261.914)"><path class="m" d="M422.753,247.208c-.2.089-1.569-2.56-2.773-6.027s-1.778-6.394-1.565-6.449,1.135,2.752,2.335,6.183S422.964,247.115,422.753,247.208Z" transform="translate(-418.371 -234.731)"/></g><g transform="translate(551.044 277.636)"><path class="m" d="M452.1,242.2c.141.15-2.68,2.8-6.85,5.049-4.163,2.271-7.919,3.191-7.968,2.99-.078-.23,3.5-1.476,7.58-3.7C448.956,244.329,451.953,242.009,452.1,242.2Z" transform="translate(-437.286 -242.186)"/></g><g transform="translate(538.269 265.95)"><path class="m" d="M431.25,261.406c-.217-.063,1.259-5.658,3.294-12.5s3.859-12.329,4.074-12.266-1.261,5.66-3.3,12.5S431.463,261.472,431.25,261.406Z" transform="translate(-431.229 -236.645)"/></g><g transform="translate(540.058 276.013)"><path class="m" d="M436.809,243.3c-.051.213-1.223.116-2.56-.4s-2.269-1.234-2.164-1.428,1.175.175,2.459.671S436.862,243.08,436.809,243.3Z" transform="translate(-432.077 -241.416)"/></g><g transform="translate(541.517 273.67)"><path class="m" d="M437.263,241.92c.008.217-1.158.4-2.493-.072s-2.13-1.343-1.984-1.506c.141-.181,1.063.329,2.254.74S437.265,241.688,437.263,241.92Z" transform="translate(-432.769 -240.305)"/></g><g transform="translate(464.541 338.032)"><path class="m" d="M457.883,279.875a14.738,14.738,0,0,1-2.381-.641c-.755-.236-1.681-.523-2.763-.827s-2.3-.69-3.672-1.042c-2.725-.757-6-1.558-9.646-2.347-3.657-.761-7.7-1.5-11.97-2.084s-8.368-.945-12.095-1.187c-3.733-.213-7.1-.314-9.925-.312-1.413-.025-2.693.017-3.817.023s-2.09.034-2.881.059a14.322,14.322,0,0,1-2.465-.019,14.508,14.508,0,0,1,2.446-.3c.791-.074,1.759-.148,2.885-.194s2.408-.135,3.828-.146c2.837-.078,6.219-.036,9.969.139,3.75.2,7.866.553,12.164,1.128,4.292.593,8.353,1.352,12.019,2.157,3.661.835,6.932,1.7,9.646,2.529,1.365.388,2.579.81,3.651,1.16s1.984.677,2.727.957A14,14,0,0,1,457.883,279.875Z" transform="translate(-396.269 -270.824)"/></g><path class="n" d="M370.419,270.9l74.824-44.08,36.881,56.816-28.578,34.1L389.3,319.956Z" transform="translate(39.607 16.307)"/><path class="o" d="M430.482,301.112l2.084,7.752,14.983-9.577-.91-8.957Z" transform="translate(106.212 88.84)"/><path class="o" d="M383.352,295.147l-2.239,8.376,13.574,6.372,2.539-7.332Z" transform="translate(51.466 94.181)"/><g transform="translate(531.041 324.792)"><path class="p" d="M462.495,264.557c.1.183-2.518,1.658-6.439,4.469q-.734.531-1.531,1.116c-.529.388-1.054.829-1.613,1.263-1.13.858-2.263,1.862-3.473,2.893A81.535,81.535,0,0,0,435.8,289.813c-.869,1.335-1.719,2.586-2.423,3.817-.361.609-.732,1.187-1.048,1.763s-.618,1.128-.909,1.662c-2.284,4.247-3.41,7.033-3.6,6.957a7.2,7.2,0,0,1,.582-2.037c.219-.647.51-1.43.9-2.316s.8-1.915,1.354-3q.408-.822.852-1.719c.3-.593.654-1.189,1-1.82.677-1.267,1.508-2.558,2.364-3.929A72.364,72.364,0,0,1,448.7,273.45c1.248-1.023,2.423-2.012,3.594-2.845.58-.424,1.126-.852,1.677-1.225s1.086-.723,1.594-1.065c1-.694,1.97-1.232,2.8-1.727s1.567-.89,2.181-1.189A7.242,7.242,0,0,1,462.495,264.557Z" transform="translate(-427.801 -264.546)"/></g><g transform="translate(566.619 276.406)"><path class="p" d="M452.477,241.605c.35.181-3.535,6.6-5.475,15.488-2.031,8.87-1.248,16.329-1.641,16.346-.148.017-.531-1.82-.658-4.849a43.912,43.912,0,0,1,.127-5.319,47.636,47.636,0,0,1,2.837-12.7,43.9,43.9,0,0,1,2.153-4.863C451.221,243.027,452.353,241.53,452.477,241.605Z" transform="translate(-444.672 -241.603)"/></g><g transform="translate(428.518 248.251)"><path class="p" d="M516.492,229.54a3.586,3.586,0,0,1,.721-.236,18.081,18.081,0,0,1,2.168-.527,28.367,28.367,0,0,1,8.556-.363,32.5,32.5,0,0,1,6.089,1.251,31.136,31.136,0,0,1,6.742,3.056,26.406,26.406,0,0,1,6.472,5.542,27.3,27.3,0,0,1,4.716,8.309c2.288,6.346,2.569,13.978.835,21.657-1.7,7.717-5.327,15.376-9.442,23.112s-8.583,15.821-13.67,23.924a195.719,195.719,0,0,1-17.443,23.92,130.624,130.624,0,0,1-21.671,20.2A98.4,98.4,0,0,1,466.3,372.522c-2.058.806-4.174,1.35-6.223,2-1.019.344-2.073.531-3.1.8l-3.071.73c-2.063.344-4.081.759-6.091,1.025l-2.995.348c-.989.122-1.972.232-2.95.27a108.667,108.667,0,0,1-21.745-.65,119.836,119.836,0,0,1-17.574-3.6c-5.1-1.379-9.372-2.963-12.848-4.271-3.446-1.39-6.1-2.518-7.854-3.385l-2-.966a3.477,3.477,0,0,1-.662-.367,3.92,3.92,0,0,1,.717.255c.468.194,1.156.481,2.048.854,1.784.793,4.465,1.847,7.923,3.163,3.49,1.238,7.765,2.748,12.858,4.06a122.6,122.6,0,0,0,17.5,3.406,109.029,109.029,0,0,0,21.557.5c.97-.04,1.942-.158,2.921-.285s1.966-.236,2.961-.356c1.985-.274,3.977-.7,6.015-1.042q1.506-.367,3.033-.736c1.012-.264,2.052-.451,3.06-.8,2.02-.654,4.1-1.2,6.133-2a97.91,97.91,0,0,0,23.945-13.05,130.27,130.27,0,0,0,21.452-20.031,196.684,196.684,0,0,0,17.359-23.757c5.074-8.058,9.547-16.1,13.687-23.818,4.131-7.7,7.736-15.25,9.45-22.808,1.738-7.51,1.508-14.965-.664-21.144a26.557,26.557,0,0,0-4.5-8.1,25.809,25.809,0,0,0-6.236-5.46,31,31,0,0,0-6.559-3.081,32.679,32.679,0,0,0-5.964-1.333,29.939,29.939,0,0,0-8.463.135c-.97.1-1.681.327-2.176.4A3.444,3.444,0,0,1,516.492,229.54Z" transform="translate(-379.188 -228.252)"/></g></g><path class="q" d="M52.734.688A3.825,3.825,0,0,0,51.5.357,19.974,19.974,0,0,0,47.652,0a71.038,71.038,0,0,0-11.9,1.07c-2.478.428-5.473,1.868-7.938,1.086a16.9,16.9,0,0,0-12.708.65,17.81,17.81,0,0,0-8.2,8.81,22.392,22.392,0,0,0-1.545,3.947c-.122.28-.24.561-.346.847-.3.811-.57,1.637-.82,2.464-.107.353-.376,1.132-.057,1.283a23.451,23.451,0,0,0-1.34,2.916,42.011,42.011,0,0,0-2.68,9.2A14.4,14.4,0,0,0,.1,35.718c.066.567.038,1.706.423,2.137.815.914,1.234-.366,1.142-.975-.7-4.646.653-9.009,2.26-13.376a27.483,27.483,0,0,1,4.657-7.747A19.554,19.554,0,0,1,13.9,11.115a83.3,83.3,0,0,1,8.113-4.022c1.807-.819,3.616-1.617,5.473-2.322a5.455,5.455,0,0,1,1.521-.561,14.611,14.611,0,0,1,3.276.977A71.118,71.118,0,0,0,41.66,7.627a12.086,12.086,0,0,0,5.858-.715,5.483,5.483,0,0,0,.922-.5A13.379,13.379,0,0,0,52.362,4.19,15.643,15.643,0,0,0,54.2,2.209a1.037,1.037,0,0,0,.243-.652c.126-.066.21-.143.229-.233.139-.663-1.127-.676-1.937-.636" transform="translate(1072.444 433)"/><path class="r" d="M44.354.34A24.278,24.278,0,0,0,38.859.017,34.141,34.141,0,0,0,13.664,11.97C8.435,18.161,7,25.857,5.964,33.638c-.1.772-.146,1.54-.2,2.314-.012.166-.031.314-.051.454a1,1,0,0,0-.379,1.252,51.721,51.721,0,0,0-2.3,6.039C1.115,49.794-.83,56.007.369,62.419A89.582,89.582,0,0,1,1.942,51.812c.041-.2.084-.4.13-.594l.014-.062a23.2,23.2,0,0,1,.967-3.108l.012-.033c.052-.134.107-.266.162-.4.113-.275.229-.549.352-.823q.062-.14.12-.282c.574-1.406.816-2.991,1.33-4.446q.184-.5.386-.988l.024-.058C5.8,40.138,6.2,39.266,6.63,38.4a3.221,3.221,0,0,0,.554-1,6.228,6.228,0,0,0,.459-.888q.376-.727.752-1.453l-.023.008q.379-.7.757-1.387l.167-.3.27-.484c.842-1.507,1.735-2.983,2.662-4.442.331-.52,1.121-1.267,1.273-1.851.006-.022.007-.042.01-.063a33.164,33.164,0,0,1,7.105-7.5c-.336.363-1.049,1.594-1.238,1.838-.577.747-1.2,1.442-1.833,2.145a45.662,45.662,0,0,0-3.2,3.935,74.778,74.778,0,0,0-4.788,7.859c-.014.016-.029.031-.042.047a19.134,19.134,0,0,0-1.721,3.3c2.087-.967,4.4-1.6,6.538-2.455a53.719,53.719,0,0,0,6.221-2.928A69.421,69.421,0,0,0,28.5,27.724a31.508,31.508,0,0,0,7.456-6.843,35.947,35.947,0,0,0,6.293-9.865,29.624,29.624,0,0,0,1.59-5.657c.014-.084.033-.175.053-.27a18.532,18.532,0,0,0,.89-2.042c.4-1.1,1.348-2.318-.428-2.706" transform="translate(1086.055 361.087)"/><path class="s" d="M66.022,1.741A12.931,12.931,0,0,0,58.847,0C49.337,0,40.4,3.528,32.675,8.786A61.217,61.217,0,0,0,21.316,19.155,30.367,30.367,0,0,0,16.449,26.4a24.954,24.954,0,0,0-1.768,5.58,57.342,57.342,0,0,0-1,7.122c-.066.939-.611,5.921.95,6a2.155,2.155,0,0,0,0,.345c-3.389,5.3-5.484,11.511-7.425,17.4A118.509,118.509,0,0,0,3.028,78.443,169.919,169.919,0,0,0,.494,99.586c-.086,1.522-.146,3.044-.2,4.567q-.065,1.949-.13,3.9A25.121,25.121,0,0,0,.1,112.633c.2,1.261,1.293,1.07,1.341-.185.058-1.515.049-3.033.115-4.55q.132-3.019.278-6.037a141.134,141.134,0,0,1,8-40.947,95.473,95.473,0,0,1,6.951-15.341A106.974,106.974,0,0,1,25.32,33.1a79.029,79.029,0,0,1,9.7-10.752,74.633,74.633,0,0,1,9.548-7.02A104.783,104.783,0,0,1,57.65,7.94c2.39-1.075,4.825-2.038,7.233-3.07.433-.186.9-.366,1.315-.581,1.39-.717.933-1.8-.175-2.548" transform="translate(1068 393.586)"/><path class="q" d="M-79.4,0A26.26,26.26,0,0,1-68.553,2.034a48.2,48.2,0,0,1,8.578,4.981,26.918,26.918,0,0,1,8.931,9.938c1.258,2.471,2.18,5.967,1.336,8.661-.995,3.174-3.727,5.821-7.325,5.262-2.225-.345-4.264-1.818-5.955-3.2a22.522,22.522,0,0,1-4.979-5.867c-2.181-3.612-3.463-7.7-5.316-11.471-.879-1.792-1.729-3.6-2.782-5.3a8.547,8.547,0,0,0-1.867-2.3c-.423-.335-2.207-.915-1.525-1.668a22.034,22.034,0,0,0-20.784,17.322c-.179.886-.319,1.78-.466,2.672-.093.563-.056,2.64-.559,3-1.11.794-.644-1.617-.6-1.964q.185-1.346.392-2.688a22.371,22.371,0,0,1,6.53-12.861A22.758,22.758,0,0,1-79.4,0" transform="translate(1175.159 444.14)"/><path class="t" d="M0,98.4a11.47,11.47,0,0,0,.525,2.1A4.433,4.433,0,0,1,0,98.4Zm4.2-17.6A43.773,43.773,0,0,1,13.27,68.492c-.732-2.634-7.85-6.747-3.35-8.926,2.39-1.151,4.657,1.082,5.046,3.344a9.4,9.4,0,0,1-1.009,4.917q1.726-1.642,3.566-3.167c1.692-1.4,3.42-2.764,5.163-4.106-2.612-2.7-4.826-10.142-1.079-11.146,5.533-1.478,2.386,8.355,1.908,10.2a.3.3,0,0,1-.248-.108c.021.172.047.357.08.544C26.684,57.5,30.063,55,33.343,52.381a14.24,14.24,0,0,1-1.008-1.472,15.915,15.915,0,0,1-1.952-3.154c-.786-1.8-1.486-4.633.9-5.541,2.593-.991,3.63,2.23,3.547,4.115a24.8,24.8,0,0,1-.735,3.791c-.079.4.05,2.2-.457,1.4a3.843,3.843,0,0,1-.017.638q.883-.709,1.755-1.434a.674.674,0,0,1-.037-.219.659.659,0,0,1,.974-.565q1.152-.975,2.279-1.984c1.588-1.428,3.2-2.9,4.8-4.4-.315-.3-.163-.679-.456-.993s-.89-.509-1.237-.8a8.68,8.68,0,0,1-2.068-2.816c-.815-1.692-1.8-5.2.878-5.851,2.756-.668,3.958,2.725,4.023,4.811a52.534,52.534,0,0,1-.786,5.318c2.967-2.795,5.893-5.7,8.563-8.676-.759-.046-2.831-1.7-3.244-2.142-1.008-1.081-2.576-3.435-.651-4.538,1.712-.978,3.672.669,4.3,2.2a20.81,20.81,0,0,1,.37,3.6c1.106-1.263,2.166-2.535,3.156-3.816q.99-1.276,1.867-2.626a1.229,1.229,0,0,1-.347-.375c-2.737-.607-6.032-5.057-2.71-6.373,1.581-.626,3.18.918,3.873,2.151A15.754,15.754,0,0,1,59.4,25.1a50.97,50.97,0,0,0,4.131-9.454.6.6,0,0,1-.442-.578,8.2,8.2,0,0,1-3.185-3.016c-.534-.934-1.471-3.054.264-3.467,2.258-.537,3.477,2.9,3.571,4.564.011.194-.019.753-.054,1.265a.763.763,0,0,1,.231.017c.62-2.035,1.138-4.1,1.573-6.176C64.3,7.8,64.426,1.481,65.281.625c1.913-1.919,3.033,1.054,2.856,2.585a10.113,10.113,0,0,1-2.191,4.821c-.114.149-.083.144-.1-.074a.428.428,0,0,1-.118.237,27.142,27.142,0,0,1-.044,2.779,63.745,63.745,0,0,1-1.216,7.188q-.2.863-.436,1.708a14.221,14.221,0,0,1,2.9-1.637c1.367-.523,3.459-1.056,4.733.017a2.2,2.2,0,0,1,.079,3.313c-1.133,1.13-3.086.985-4.539.794-.657-.086-4.167-.549-3.3-1.077a2.9,2.9,0,0,0-.351.144q-.138.413-.287.823c.02.013.037.027.059.04-.023-.012-.04-.024-.06-.036a31.968,31.968,0,0,1-4.051,7.7,7.687,7.687,0,0,1,1.85-.388c1.851-.135,5.644,1.481,3.459,3.8-2.1,2.222-5.033-.431-7.253-.891a104.185,104.185,0,0,1-7.531,8.288.6.6,0,0,1,.35.321A14.836,14.836,0,0,1,53.15,39.8c1.359-.212,4.124-.24,5.076,1,1.172,1.53-.23,2.65-1.721,2.855-2.161.3-4.908-.885-6.931-1.692a.683.683,0,0,1-.635-.247l-.133-.051c-2.687,2.634-5.466,5.172-8.225,7.652h.085a7.171,7.171,0,0,1,2.265-.884c1.862-.349,4.027-.238,5.449,1.157s1.822,3.711.207,5.1c-3.235,2.79-7.414-4.17-8.953-4.532-2.8,2.492-5.75,4.8-8.738,7.063a5.106,5.106,0,0,1,1.013-.15c2.819-.12,9.224,3.627,5.6,6.8-3.155,2.764-6.33-3.036-8.644-5.127-2.815,2.1-5.643,4.193-8.4,6.372a7.748,7.748,0,0,1,4.364.254c1.569.561,4.078,1.886,2.957,3.965-1.139,2.114-4.175.967-5.748.2a43.613,43.613,0,0,0-4.065-2.392A52.615,52.615,0,0,0,6.668,79.959a45.688,45.688,0,0,0-4.48,9.878c-.705,2.2-2.059,5.89-1.982,8.807C-.589,92.772,1.775,85.892,4.2,80.807ZM65.72,11.049c.23,0,1.091-2.33,1.362-2.675a7.769,7.769,0,0,1,3.073-2.228c1.887-.816,4.285.371,3.135,2.729-.918,1.883-3.405,2.261-5.558,2.261C67,11.137,66.3,11.093,65.72,11.049Z" transform="translate(754.92 232.256) rotate(-3)"/><g class="u" transform="translate(715 255.477)"><path class="r" d="M34.222,12.3c2.2-3.144,6.3-11.129,9.4-12.252,2-.724,1.416,6.762,1.441,8.189a119.638,119.638,0,0,1-1.105,16.484C42.762,34.6,38.851,43.391,33.487,51.8c-2.76,4.325-6,8.7-10.482,11.4-2.064,1.243-4.548,1.451-6.586,2.521-2.374,1.246-1.081.239-2.151,2.713-1.486,3.434-1.961,7.865-2.648,11.53C8.464,96.783.823,185.714,2.148,202.826c.118,1.517-2,1.879-2.1.028-.561-9.818,4.295-77.807,6.745-100.041s4.929-41.877,7.415-49.57c3.016-9.333,8.462-20.556,13-29.259A103.489,103.489,0,0,1,34.222,12.3Z" transform="translate(59.291 46.173)"/><path class="s" d="M52.687,1.2c5.738-4.212,11.948,3.738,6.756,7.951a5.2,5.2,0,0,1-7.56-.44c-1.1,1.337-2.123,2.734-3.109,3.915-3,3.6-5.845,7.281-8.559,11.05-5.638,7.83-10.47,16.1-15.522,24.224-4.986,8.015-9.932,16.071-14.451,24.289C6.413,79.146,1.311,87.337,0,94.97,1.989,78.781,9.535,63.221,18.521,48.949,27.434,34.795,37.662,19.337,51.463,8.166A4.888,4.888,0,0,1,52.687,1.2Z" transform="translate(57.192 166.329)"/><path class="r" d="M1,.016c3.211.628,8.457,7.891,11.1,10.658A103.652,103.652,0,0,1,20.8,21.141,177.021,177.021,0,0,1,36.17,46.215a233.066,233.066,0,0,1,17.1,44.514,183.628,183.628,0,0,1,5.19,29.2c.185,1.849,2.123,16.1-.669,16.486-2.512.346-1.736-10.823-1.857-12.342-1.37-17.139-5.473-33.816-11.181-49.971-1.243-3.519-2.4-7.83-4.387-11-1.432-2.281-.01-1.486-2.527-2.349-2.161-.742-4.622-.56-6.835-1.468-4.807-1.971-8.655-5.8-12.029-9.647C12.423,42.16,7.227,34.068,4.519,24.483A121.128,121.128,0,0,1,.87,8.344C.672,6.928-1.064-.388,1,.016Z" transform="translate(0 128.026)"/><path class="q" d="M7.378,7.2a290.959,290.959,0,0,1,28.45,67.35c3.888,14.139,6.607,28.648,9.309,43.052,4.183,22.3,8.14,44.6,9.265,67.3,1.132,22.83,3.371,49.162-4.1,71.152,3.734-22.325.179-46.088-.45-68.552-.3-10.724-1.173-21.343-2.316-32-1.11-10.342-2.923-20.634-4.611-30.895q-1.234-7.5-2.565-14.973c-.263-1.488-.373-5.9-1.317-6.919s-5.8-1.44-7.318-2.191a39.288,39.288,0,0,1-8.5-5.929,67.871,67.871,0,0,1-12.5-15.637C2.954,65.988-.151,50.166.006,35.152.036,32.237,4.724.845,2.841.412q.17-.2.322-.412Q5.3,3.58,7.378,7.2Z" transform="translate(6.296)"/><path class="q" d="M86.494,2.04c.187-.269,1.4-2.141.79-2.021,1.245-.244-1.713,2.065,1.39.648-1.473,1.391-.623,3.2-.6,5.071a45.415,45.415,0,0,1-1.049,9.031,61.926,61.926,0,0,1-4.209,13.649,61.161,61.161,0,0,1-20.1,24.667c-4.244,2.942-8.4,3.944-13.243,5.3-3.057.856-3.3,2.437-4.922,5.4-3.378,6.179-6.7,12.335-9.676,18.723-3.558,7.627-7.011,15.263-10.269,23.024C13.626,131.677,4.694,158.762,0,186.793c-.115-16.518,3.706-33.531,8.526-49.275a294.093,294.093,0,0,1,12.957-33.475c1.181-2.652,2.972-6.063,3.473-8.991.351-2.051-.723-4.024-1.214-6.185a64.72,64.72,0,0,1-.1-26.3c1.856-9.329,7.224-13.658,16.3-14.98,3.321-.483,7.542-.306,10.587-1.722,3.318-1.542,4.686-6.61,6.573-9.864a134.147,134.147,0,0,1,18-24.485A58.392,58.392,0,0,1,81.27,5.85C82.647,4.75,85.556,3.395,86.494,2.04Z" transform="translate(57.717 80.804)"/><path class="s" d="M.819,3.006A2.623,2.623,0,0,1,3.414,0H35.64a2.623,2.623,0,0,1,2.6,3.006L35.745,19.9a10.494,10.494,0,0,1-10.382,8.963H13.691A10.494,10.494,0,0,1,3.31,19.9Z" transform="translate(38.977 249.756)"/><path class="s" d="M.819,3.006A2.623,2.623,0,0,1,3.414,0H35.64a2.623,2.623,0,0,1,2.6,3.006L35.745,19.9a10.494,10.494,0,0,1-10.382,8.963H13.691A10.494,10.494,0,0,1,3.31,19.9Z" transform="translate(334.977 250.756)"/></g><g transform="translate(720.247 488.443)"><path class="v" d="M0,0C0,11.169.881,20.224,12.712,20.224S25.425,11.169,25.425,0" transform="translate(8.09 25.425)"/><path class="v" d="M24.322,18.456a23.384,23.384,0,0,0-1.162,2.291,31.347,31.347,0,0,1,.318-4.842c.413-2.8,1.043-5.578,1.635-8.356.426-2,.4-5.581,2.014-7.172.443-.344.55.331.55.623.006.062,0-1.195-.431-.976-2.556,1.32-3.384,5.47-4.2,7.548a39.99,39.99,0,0,0-2.628,9.289,20.807,20.807,0,0,0-.176,2.39c-.087-.213-.168-.427-.259-.639a43.141,43.141,0,0,0-5.948-9.948C13.421,7.9,5.737.341,5.136,1.5a.8.8,0,0,0,.373.418c.011.013.011.006,0-.013.451.729,1.734,1.855,2.134,2.494A48.248,48.248,0,0,1,10.23,9.383c1.678,3.536,3.235,7.108,4.745,10.687.351.834.718,1.663,1.091,2.489C12.213,17,7.074,11.958,0,9.07c2.416,1.229,4,3.542,5.632,5.313C7.6,16.519,9.673,18.6,11.645,20.731c2.326,2.517,5.062,5.167,7.3,7.952a83.869,83.869,0,0,1,5.572,13.885c-.533-1.652-.042-3.935-.133-5.669a38.3,38.3,0,0,0-.455-4.115,8.45,8.45,0,0,1,.615,1.807c-.1-.962-.21-1.918-.33-2.869.309-.89.613-1.721.818-2.406a61.808,61.808,0,0,1,4.01-10.325A92.169,92.169,0,0,1,34.4,9.83c.92-1.388,1.853-2.771,2.78-4.157a21.9,21.9,0,0,1,2.029-3.228c-5.46,4.992-11.426,10.021-14.891,16.011" transform="translate(0 0)"/></g></g></svg>