<svg xmlns="http://www.w3.org/2000/svg" width="549.593" height="254.334" viewBox="0 0 549.593 254.334"><defs><style>.a{opacity:0.94;}.b{fill:#69a1ac;}.c{fill:#89c5cc;}.d{fill:#c1dee2;}.e{opacity:0.03;}.f{fill:rgba(242,191,76,0.87);}.g{fill:#f2bf4c;}.h{fill:#c49882;}.i,.n{fill:#00143a;}.j{opacity:0.54;}.k{fill:#996d59;}.l{fill:#f3f0eb;}.m{fill:#fff1c8;}.n{opacity:0.15;}.o{fill:#b4cce9;}.p{fill:#493d35;}.q{fill:#635449;}.r{fill:#f17f60;}.s{fill:#89a9c9;}.t{opacity:0.7;}</style></defs><g transform="translate(-637.989 -305.69)"><g class="a" transform="translate(1120.673 396.633)"><path class="b" d="M29.016,157.892a16.531,16.531,0,0,1-16.47-15.541l-2.783-44.9a3.735,3.735,0,0,1,3.719-3.974H25.394L7.848,67.179S-2.625,47.514.626,45.474s15.737,17,15.737,17l6.218,12.468L15.167,27.981,14.94,1.229s8.857-3.187,10.251.7c1.886,5.264,4.255,24.493,4.255,24.493l1.343,64.98,1.035,2.076H34.2L43.66,74.5S56.147,55.462,59.4,57.5s-7.223,21.7-7.223,21.7L42.652,93.482H55.59a3.735,3.735,0,0,1,3.719,3.974l-2.783,44.9a16.531,16.531,0,0,1-16.47,15.541Z" transform="translate(0 0.974)"/><path class="c" d="M16.809,86.663,0,28.158l11.047-6.414,10.1,56.942L32.968,0,43.88,25.963,25.7,86.638H22.557l0,.025Z" transform="translate(12.117 7.793)"/><path class="d" d="M6.148,114.768,5.8,109.156H54.017l-.348,5.612Zm-.663-10.69-.35-5.647a3.735,3.735,0,0,1,3.719-3.974H50.962a3.735,3.735,0,0,1,3.719,3.974l-.35,5.647Zm21.955-23.91c-.618-3.5-1.752-10.583-1.752-10.583L24.91,31.9Q28.982,16.29,32.846,16.9q4.028.641,3.636,17.829L29.5,81.21l-.836,5.251S28.059,83.672,27.441,80.168ZM0,68.9S2.956,35.95,7.489,29.537s11.281,0,11.281,0S5.855,71.739,2.956,74.255a1.662,1.662,0,0,1-1.044.5C.042,74.751,0,68.9,0,68.9Zm58.845-9.629C55.473,56.347,40.457,7.313,40.457,7.313s7.846-7.452,13.117,0,8.708,45.736,8.708,45.736-.049,6.8-2.223,6.8A1.934,1.934,0,0,1,58.845,59.271ZM10.313,6.812V2.021s5.244-4.666,10.236.182c1.037,1.007,2.145,10.929,2.145,10.929Z" transform="translate(4.628 0)"/></g><g transform="translate(970.276 305.69)"><g transform="translate(0 -0.686)"><path class="d" d="M113.216,37.837V32.181h3.461L70.763,8.787a4.283,4.283,0,1,1,3.889-7.633l48.29,24.605a4.283,4.283,0,1,1-3.889,7.633l-.518-.265v4.71a2.66,2.66,0,0,1-5.319,0ZM0,37.837V32.181H5.319v5.656a2.66,2.66,0,1,1-5.319,0Zm95.879-4.445L47.588,8.787a4.283,4.283,0,1,1,3.889-7.633l48.29,24.605a4.283,4.283,0,1,1-3.889,7.633ZM52.43,16.219c-2.766-.9-5.641-3.24-.859-3.24a11.15,11.15,0,0,1,7.727,3.24s-2.383.219-4.418.219A9.447,9.447,0,0,1,52.43,16.219Z" transform="translate(15.957 0)"/><path class="b" d="M10.828,24.576c-5.9,0-10.779-.011-10.828-.011a.053.053,0,0,1,0-.016,35.263,35.263,0,0,1,.791-4.632,22.594,22.594,0,0,1,3.571-8.241A5.846,5.846,0,0,1,1.9,7.087C1.9,3.45,5.82.492,10.638.492s8.738,2.958,8.738,6.594a5.781,5.781,0,0,1-2.232,4.4,22.091,22.091,0,0,1,3.695,8.325,34.379,34.379,0,0,1,.817,4.752h-.893C19.114,24.57,15.251,24.576,10.828,24.576Zm48.67-.6a24.675,24.675,0,0,1-4.688-.5,24.68,24.68,0,0,1-4.688.5c-2.856,0-4.839-.66-5.892-1.961a4.976,4.976,0,0,1-.683-4.321c.555-2.613,1.831-4.383,3.793-5.261.176.069.354.133.531.191a9.147,9.147,0,0,0,2.451.22c2,0,4.4-.217,4.419-.22,0,0-.072-.079-.2-.206l.126.039.148.048A13.966,13.966,0,0,1,59,11.792a7.344,7.344,0,0,1,4.215,1.159,7.286,7.286,0,0,1,2.856,4.739,4.975,4.975,0,0,1-.683,4.321C64.337,23.313,62.354,23.972,59.5,23.972Zm62.575-1.107L68.251,2.169a1.265,1.265,0,0,1-.789-.758.9.9,0,0,1,.125-.784A1.625,1.625,0,0,1,68.942,0a1.914,1.914,0,0,1,.689.125l53.824,20.7-1.38,2.043Zm-23.175,0h0L45.075,2.169a1.265,1.265,0,0,1-.789-.758A.9.9,0,0,1,44.41.626,1.627,1.627,0,0,1,45.766,0a1.91,1.91,0,0,1,.688.125l53.824,20.7L98.9,22.865Z" transform="translate(20.516 3.591)"/><path class="d" d="M10.258,12.558A3.44,3.44,0,0,1,13.7,9.117h2.237a3.441,3.441,0,0,1,3.441,3.441ZM0,12.558A3.441,3.441,0,0,1,3.441,9.117H5.677a3.441,3.441,0,0,1,3.441,3.441ZM5.2,4.62a4.086,4.086,0,0,1-1.78-3.244A3.566,3.566,0,0,1,3.7,0,10.5,10.5,0,0,0,9.5,1.662,10.5,10.5,0,0,0,15.3,0a3.569,3.569,0,0,1,.278,1.375A4.085,4.085,0,0,1,13.8,4.62,7.154,7.154,0,0,1,9.5,5.963,7.158,7.158,0,0,1,5.2,4.62Z" transform="translate(21.656 15.61)"/><path class="c" d="M2.007,29.275a2.007,2.007,0,1,1,0-4.014H148.821a2.007,2.007,0,1,1,0,4.014Zm40-5.381c-.357-2.484-1.3-7.172-3.587-10.67a9.757,9.757,0,0,1,1.409-.115c1.166,0,1.84.294,2,.874l2.908,7.6a1.543,1.543,0,0,1-.187,1.318,2.31,2.31,0,0,1-1.17.988,3.91,3.91,0,0,1-.6.039C42.558,23.928,42.3,23.917,42.008,23.894ZM21.824,18.657h-.03c-1.364,0-4.537-.135-4.567-1.389l-.18-7.775c-.022-.934,1.156-2,2.378-2.155,1.205.126,2.4,1.15,2.419,2.069l.079,4.851h1.721a23.223,23.223,0,0,0-1.81,4.4h0ZM36.093,7.628c0-.4-.427-.716-.95-.716s-.949.321-.949.716a.56.56,0,0,0,.019.144h-.768a.988.988,0,0,1-.011-.144c0-.711.767-1.29,1.709-1.29s1.71.579,1.71,1.29a1.092,1.092,0,0,1-.01.143h-.769A.555.555,0,0,0,36.093,7.628Zm-7.6,0c0-.4-.426-.716-.95-.716s-.95.321-.95.716a.561.561,0,0,0,.02.144h-.769a.988.988,0,0,1-.011-.144c0-.711.767-1.29,1.71-1.29s1.709.579,1.709,1.29a.956.956,0,0,1-.01.143h-.769A.555.555,0,0,0,28.494,7.628ZM24.231,3.747c-.217-1.184-.488-3.226.145-3.622A.618.618,0,0,1,24.7.05a10.149,10.149,0,0,1,3.534,1.5,9.037,9.037,0,0,0-4.005,2.193Zm13.64-.193a9.242,9.242,0,0,0-3.979-2.047A9.285,9.285,0,0,1,37.242,0a.6.6,0,0,1,.3.067c.634.369.478,2.344.328,3.488h0Z" transform="translate(0 2.906)"/></g></g><g class="e" transform="translate(707 401.679)"><path class="d" d="M153,152.821Zm-153,0v-12.1H153v12.1H0Zm153-13.013H140.882V76.259h.3V70.812h-.3v-57.8H153v126.8h0Zm-140.882,0H0V13.012H12.119v126.8h0ZM34.82,65.65a8.011,8.011,0,0,1,3.7-6.752,6.211,6.211,0,1,1,8.666,0A8.023,8.023,0,1,1,34.82,65.65ZM153,12.1H0V0H153V12.1h0Z" transform="translate(0)"/><path class="d" d="M140.881,128.611V127.7H153v.908ZM0,128.611V127.7H12.119v.908ZM12.119,64.155V58.707H141.184v5.447Zm31.9-27.9a6.3,6.3,0,0,0-2.091-.034l0-.038a43.883,43.883,0,0,1-3.255-3.991,20.285,20.285,0,0,0-1.81-2.138c-1.093-1.185-2.124-2.3-1.908-2.8.077-.176.306-.262.7-.262a6.308,6.308,0,0,1,1.236.164c1.632.346,3.194,1.885,4.645,4.573-.208-2.689-.3-4.638-.261-5.793a12.152,12.152,0,0,1,.48-3.416,3.872,3.872,0,0,1,.849-1.452.511.511,0,0,1,.383-.185c.365,0,.742.412,1.034,1.129a12.4,12.4,0,0,1,.667,3.925,36.413,36.413,0,0,1-.373,5.931c1.418-2.777,2.972-4.378,4.618-4.757a6.057,6.057,0,0,1,1.277-.186c.369,0,.585.083.662.253.22.491-.79,1.625-1.86,2.827a20.307,20.307,0,0,0-1.773,2.17,41.384,41.384,0,0,1-3.214,4.08ZM140.881.908V0H153V.908ZM0,.908V0H12.119V.908Z" transform="translate(0 12.105)"/><path class="d" d="M61.806,128.914V67.181H0V61.734H61.806V0H67.26V61.734h61.806v5.447H67.26v61.734Zm48.476-71.42V19.976a2.424,2.424,0,0,1,4.847,0V57.494a2.424,2.424,0,1,1-4.847,0Zm-6.665,0V19.976a2.424,2.424,0,1,1,4.847,0V57.494a2.424,2.424,0,1,1-4.847,0Zm-6.665,0V19.976a2.424,2.424,0,0,1,4.847,0V57.494a2.424,2.424,0,1,1-4.847,0Zm-6.665,0V19.976a2.424,2.424,0,0,1,4.847,0V57.494a2.424,2.424,0,1,1-4.847,0ZM77.228,59.2a2.417,2.417,0,0,1-1.709-2.961l9.715-36.255A2.417,2.417,0,1,1,89.9,21.234L80.189,57.488a2.416,2.416,0,0,1-2.961,1.71Z" transform="translate(12.119 12.105)"/></g><g transform="translate(514.488 284.82)"><path class="f" d="M312.107,134.158s-11.948,51.362,0,62.213,275.287,9.2,284.061,0-1.885-56.768-1.885-56.768Z" transform="translate(6.109 71.302)"/><path class="g" d="M362.817,63.288s-66.181-21.173-63.7,35.126S312.4,199.288,330.931,204.241s271.938-.683,269.461-5.708,17.334-22.758-32.192-18.019-174.159-11.684-174.159-11.684,19.673-83.393,16.438-93.741S362.817,63.288,362.817,63.288Z" transform="translate(0 12.372)"/><g transform="translate(332.946 43.688)"><g transform="translate(15.156)"><g transform="translate(9.572 6.882)"><path class="h" d="M358.741,92.448c-.649-1.745-1.341-9.463-1.341-9.463s6.781-2.033,5.912-8.973-4.265-22.684-4.265-22.684l-13.762-3.791L333.4,60.644l-1.565,8.168,8.152,16.8,1.962,8.942Z" transform="translate(-331.833 -47.537)"/><g transform="translate(25.155 13.703)"><path class="i" d="M348.275,56.572a.893.893,0,1,1-1.042-.712A.893.893,0,0,1,348.275,56.572Z" transform="translate(-345.426 -54.693)"/><path class="i" d="M349.42,55.963c-.091.134-.844-.3-1.8-.168s-1.581.715-1.7.608c-.059-.048.02-.279.29-.551A2.381,2.381,0,0,1,349,55.5C349.333,55.7,349.467,55.9,349.42,55.963Z" transform="translate(-345.901 -55.2)"/></g><g transform="translate(14.675 15.673)"><path class="i" d="M342.066,56.99a.894.894,0,1,1-1.178.458A.894.894,0,0,1,342.066,56.99Z" transform="translate(-339.431 -55.82)"/><path class="i" d="M343.559,57.065c-.093.134-.846-.3-1.8-.168s-1.579.715-1.7.608c-.059-.048.02-.279.29-.551a2.378,2.378,0,0,1,2.793-.35C343.472,56.8,343.6,57,343.559,57.065Z" transform="translate(-340.04 -56.302)"/></g><g transform="translate(21.397 15.561)"><path class="i" d="M345.508,64.459a7.388,7.388,0,0,1,1.515-.468c.236-.057.477-.134.5-.336a1.361,1.361,0,0,0-.277-.751c-.32-.579-.66-1.194-1.014-1.838-.713-1.309-1.339-2.5-1.779-3.378a7.071,7.071,0,0,1-.647-1.447,7.372,7.372,0,0,1,.862,1.33c.494.844,1.155,2.019,1.867,3.33.347.649.68,1.268.991,1.851a1.544,1.544,0,0,1,.279.958.575.575,0,0,1-.329.4,1.659,1.659,0,0,1-.4.114A7.214,7.214,0,0,1,345.508,64.459Z" transform="translate(-343.799 -56.24)"/></g><g class="j" transform="translate(13.38 22.588)"><path class="k" d="M344.718,61.209c.123.787-.975,1.574-2.427,1.883s-2.764.023-2.954-.749.867-1.754,2.391-2.072S344.6,60.428,344.718,61.209Z" transform="translate(-339.316 -60.169)"/></g><path class="l" d="M343.181,61.7c-1.076-.454,2.94,1.078,4.867.713a2.664,2.664,0,0,1-2.967,1.481C342.9,63.423,343.181,61.7,343.181,61.7Z" transform="translate(-323.031 -36.44)"/><path class="k" d="M350.392,67.961a17.426,17.426,0,0,1-9.668-1.361s3.008,4.651,9.835,3.074Z" transform="translate(-324.826 -32.513)"/></g><path class="i" d="M349.971,59.137c12.581,1.72,16.506-4.832,17.2-12.41s-26.951,1.141-30.953,3.3-3.38,7.562-3.38,7.562l-4.354-2.645a11.332,11.332,0,0,0-1.874,2.275c-1.3,1.849,7.619,3.694,7.619,3.694h0a5.609,5.609,0,0,0-2.979,5.073c.173,4.912,4.887,10.752,6.963,13.559a57.278,57.278,0,0,1,5.236,9.511c1.432,1.659.458-4.352.458-4.352s-.4-5.9-1.676-7.948c0,0-3.226,1.892-5.386-4.165-1.069-3,3.254-5.5,5.345-2.055l2.961-.374S342.843,58.161,349.971,59.137Z" transform="translate(-326.48 -43.688)"/></g><g transform="translate(26.979 26.829)"><path class="k" d="M336.924,62.4c-.032-.005-.055.113-.172.266a1.031,1.031,0,0,1-.674.384,2.564,2.564,0,0,1-2.144-1.456,3.41,3.41,0,0,1-.454-1.443,1.192,1.192,0,0,1,.3-1.073.528.528,0,0,1,.674-.043c.148.107.173.231.206.225s.064-.148-.095-.343a.672.672,0,0,0-.384-.215.792.792,0,0,0-.578.139,1.464,1.464,0,0,0-.51,1.33,3.537,3.537,0,0,0,.477,1.631,2.693,2.693,0,0,0,2.559,1.536,1.112,1.112,0,0,0,.758-.594C336.983,62.529,336.947,62.4,336.924,62.4Z" transform="translate(-333.092 -58.692)"/></g><path class="h" d="M390.9,90.129l-2.128-3.759s1.477-1.534.617-5.009a8.16,8.16,0,0,0-1.116-2.53,12.583,12.583,0,0,0-2.182-2.671,1.07,1.07,0,0,1,.486-1.963c.964.014,3.344,1.717,4.966,4.728s2.632-2.275,3.034-4.193,1.929-7.8,2.618-8.143c1.01-.5,1.734.485,1.287,2.393-.452,1.931-1.384,7.723-.361,7.886s2.927-9.636,2.927-9.636.072-2.162,1.261-2.012c2.146.272-.662,10.537-.953,11.508-.2.674.9.892,1.084.157.182-.758,1.686-9.819,3.873-9.565,1.677.195-2.23,8.467-1.5,10.52s2.328-6.573,3.921-6.321c.594.095,1.026.247-.606,5.068-1.668,4.939-8.37,17.581-8.37,17.581l-8.955-4.211" transform="translate(-264.715 -26.725)"/><path class="h" d="M350.075,70.448s9.765-4.8,23.085,13.728c21.418,29.8,44.566-2.709,44.566-2.709l12.88,3.065s-10.137,28.315-40.973,28.124S350.075,70.448,350.075,70.448Z" transform="translate(-292.728 -23.039)"/><path class="m" d="M374.129,79.826s9.223,31.686,8.225,61.582l-40.061,5.972.059-17.54a62.733,62.733,0,0,0-4.93-24.581L332.26,93.021S376.969,81.144,374.129,79.826Z" transform="translate(-306.769 -15.207)"/><path class="h" d="M339.828,116.752" transform="translate(-300.804 13.896)"/><g transform="translate(15.156)"><g transform="translate(9.572 6.882)"><path class="h" d="M358.741,92.448c-.649-1.745-1.341-9.463-1.341-9.463s6.781-2.033,5.912-8.973-4.265-22.684-4.265-22.684l-13.762-3.791L333.4,60.644l-1.565,8.168,8.152,16.8,1.962,8.942Z" transform="translate(-331.833 -47.537)"/><g transform="translate(25.155 13.703)"><path class="i" d="M348.275,56.572a.893.893,0,1,1-1.042-.712A.893.893,0,0,1,348.275,56.572Z" transform="translate(-345.426 -54.693)"/><path class="i" d="M349.42,55.963c-.091.134-.844-.3-1.8-.168s-1.581.715-1.7.608c-.059-.048.02-.279.29-.551A2.381,2.381,0,0,1,349,55.5C349.333,55.7,349.467,55.9,349.42,55.963Z" transform="translate(-345.901 -55.2)"/></g><g transform="translate(14.675 15.673)"><path class="i" d="M342.066,56.99a.894.894,0,1,1-1.178.458A.894.894,0,0,1,342.066,56.99Z" transform="translate(-339.431 -55.82)"/><path class="i" d="M343.559,57.065c-.093.134-.846-.3-1.8-.168s-1.579.715-1.7.608c-.059-.048.02-.279.29-.551a2.378,2.378,0,0,1,2.793-.35C343.472,56.8,343.6,57,343.559,57.065Z" transform="translate(-340.04 -56.302)"/></g><g transform="translate(21.397 15.561)"><path class="i" d="M345.508,64.459a7.388,7.388,0,0,1,1.515-.468c.236-.057.477-.134.5-.336a1.361,1.361,0,0,0-.277-.751c-.32-.579-.66-1.194-1.014-1.838-.713-1.309-1.339-2.5-1.779-3.378a7.071,7.071,0,0,1-.647-1.447,7.372,7.372,0,0,1,.862,1.33c.494.844,1.155,2.019,1.867,3.33.347.649.68,1.268.991,1.851a1.544,1.544,0,0,1,.279.958.575.575,0,0,1-.329.4,1.659,1.659,0,0,1-.4.114A7.214,7.214,0,0,1,345.508,64.459Z" transform="translate(-343.799 -56.24)"/></g><g class="j" transform="translate(13.38 22.588)"><path class="k" d="M344.718,61.209c.123.787-.975,1.574-2.427,1.883s-2.764.023-2.954-.749.867-1.754,2.391-2.072S344.6,60.428,344.718,61.209Z" transform="translate(-339.316 -60.169)"/></g><path class="l" d="M343.181,61.7c-1.076-.454,2.94,1.078,4.867.713a2.664,2.664,0,0,1-2.967,1.481C342.9,63.423,343.181,61.7,343.181,61.7Z" transform="translate(-323.031 -36.44)"/><path class="k" d="M350.392,67.961a17.426,17.426,0,0,1-9.668-1.361s3.008,4.651,9.835,3.074Z" transform="translate(-324.826 -32.513)"/></g><path class="i" d="M349.971,59.137c12.581,1.72,16.506-4.832,17.2-12.41s-26.951,1.141-30.953,3.3-3.38,7.562-3.38,7.562l-4.354-2.645a11.332,11.332,0,0,0-1.874,2.275c-1.3,1.849,7.619,3.694,7.619,3.694h0a5.609,5.609,0,0,0-2.979,5.073c.173,4.912,4.887,10.752,6.963,13.559a57.278,57.278,0,0,1,5.236,9.511c1.432,1.659.458-4.352.458-4.352s-.4-5.9-1.676-7.948c0,0-3.226,1.892-5.386-4.165-1.069-3,3.254-5.5,5.345-2.055l2.961-.374S342.843,58.161,349.971,59.137Z" transform="translate(-326.48 -43.688)"/></g><g transform="translate(26.979 26.829)"><path class="k" d="M336.924,62.4c-.032-.005-.055.113-.172.266a1.031,1.031,0,0,1-.674.384,2.564,2.564,0,0,1-2.144-1.456,3.41,3.41,0,0,1-.454-1.443,1.192,1.192,0,0,1,.3-1.073.528.528,0,0,1,.674-.043c.148.107.173.231.206.225s.064-.148-.095-.343a.672.672,0,0,0-.384-.215.792.792,0,0,0-.578.139,1.464,1.464,0,0,0-.51,1.33,3.537,3.537,0,0,0,.477,1.631,2.693,2.693,0,0,0,2.559,1.536,1.112,1.112,0,0,0,.758-.594C336.983,62.529,336.947,62.4,336.924,62.4Z" transform="translate(-333.092 -58.692)"/></g><path class="n" d="M403.253,85.1a34,34,0,0,0-27.432,15.576S395.7,97.643,403.253,85.1Z" transform="translate(-272.437 -11.054)"/><path class="m" d="M371.4,69.839,340.4,75.2s-15.283,4.728-16.574,15.977l11.73,13.728,50.08-13.6Z" transform="translate(-313.418 -23.078)"/><path class="o" d="M348.245,93.992v43.492L395,128.166l2.551-41.093Z" transform="translate(-294.17 -9.495)"/><path class="h" d="M332.064,77.505,345.15,97.457s-8.588,18.943-7.9,24.408,33.17-1.987,33.17-1.987l1.663,13.622s-40.98,22.137-50.914,4.688c-7.877-13.835.962-40.108,4.96-50.393a39.453,39.453,0,0,1,4.765-8.817A14.607,14.607,0,0,1,332.064,77.505Z" transform="translate(-318.004 -17.036)"/><path class="l" d="M368.919,101.494a3.777,3.777,0,1,1-5.341,0A3.779,3.779,0,0,1,368.919,101.494Z" transform="translate(-282.958 1)"/><path class="p" d="M378.632,122.238c14.352-4.2,36.079-4.739,67.611-3.934,30.025.769,62.07,6.275,73.2,8.347,1.177-3.8,4.268-13.254,5.023-10.314.937,3.651-2.189,28.889-2.189,28.889l-78.664-6.553-86.342,8.556Z" transform="translate(-287.053 13.129)"/><g transform="translate(47.573 74.04)"><path class="q" d="M356.035,138.149s66.419-62.138,84.033-51.92,59.7,84.184,59.7,84.184l-22.584-.656s-41.365-54.52-46.436-54.658-52.65,54.849-58.581,55.827C355.041,173.749,329.591,166.479,356.035,138.149Z" transform="translate(-344.609 -85.094)"/><path class="i" d="M435.2,132.91s15.682,3.769,12.081,4.887-28.961-.755-28.961-.755l.762-4.6Z" transform="translate(-286.511 -47.779)"/></g><path class="n" d="M387.96,118.022l-12.721,25.443-15.219,1.509C368.5,139.719,378.132,129.307,387.96,118.022Z" transform="translate(-284.89 14.897)"/><path class="n" d="M426.5,139.373l-11.052-.92-15.789-21.59,10.8.316Z" transform="translate(-253.652 13.983)"/><path class="m" d="M320.255,98.815l20.7,10.845,2.418-8L355.254,72.22s-16.993-1.175-24.651,8.351A61.361,61.361,0,0,0,320.255,98.815Z" transform="translate(-316.23 -21.237)"/><path class="r" d="M348.245,70.649" transform="translate(-294.17 -22.439)"/><path class="m" d="M347.764,71.6s10.586-5.776,18.743,2.57,13.2,13.683,13.2,13.683l-15.972,8.74Z" transform="translate(-294.549 -23.228)"/><path class="s" d="M353.871,118.278l-12.765-2.462,12.648-4.373Z" transform="translate(-299.796 9.711)"/><path class="q" d="M337.871,119.449s-.54,35.368,39.605,27.7l-12.955-31.882Z" transform="translate(-302.347 12.724)"/><path class="i" d="M447.968,126.436v18.339l2.834.236s4.919-27.825,2.189-28.889S447.968,126.436,447.968,126.436Z" transform="translate(-215.575 13.344)"/></g></g><g class="t" transform="translate(637.987 332.387)"><path class="b" d="M14.756.023C22.19.417,30.882,5.691,30.827,13.8c-.04,5.9-.829,11.695-.555,17.614a47.4,47.4,0,0,0,2.849,13.815c1.538,4.285,5.253,8.186,5.857,12.655a18.778,18.778,0,0,1-1.623,9.331C35.874,70.4,36.5,70.2,38.473,73.211c3.858,5.895,7.261,11.882,9.4,18.663,3.081,9.767,4.6,20.964,2.014,31.03-.328,1.278-1.045,5.913-2.869,6.051-2.037.154-.822-2.412-.625-3.262,1.257-5.421,2.366-10.158,2.132-15.822-.9-21.854-14.865-37.658-23.007-56.981-.454-1-1.386-3.366-2.042-4.931-1.036-2.471-1.858-7.052-3.411-8.966-2.925-3.607-.61,3.27-.1,4.589.639,1.669,1.347,3.446,2.027,4.921,3.1,6.832,6.574,14.3,9.776,21.342C14.5,71.911,4.75,50.409,1.625,36.617-.951,25.255-2.715-.864,14.756.023" transform="matrix(0.995, -0.105, 0.105, 0.995, 0, 64.301)"/><path class="c" d="M55.443.066c-12.429.985-20.408,9.18-24.123,20.641-2,6.177-2.231,12.522-3.344,18.869C26.3,49.125,22.7,56.362,15.665,63.166a23.743,23.743,0,0,0-4.928,6.585,28.048,28.048,0,0,0-5.689,8.123C3.2,81.957,2.672,86.856,4.81,90.927a13.382,13.382,0,0,0,3.495,4.289A84,84,0,0,0,.026,132.975c.208,7.818.59,15.639,1.036,23.447.12,2.1.8,5.559,1.83,2.042.939-3.216-.239-8.265-.348-11.625-.53-16.367-.984-31.249,5.76-46.541q1.061-2.4,2.238-4.77a1.588,1.588,0,0,0,.131-.09c.03.023.057.048.087.07.05-.089.118-.195.2-.313a4.219,4.219,0,0,0,.605-.848,6.15,6.15,0,0,0,1.279-2.334s0-.011,0-.015a220.347,220.347,0,0,1,13.84-19.55c-.037.046,5.3-7.211,4.473-3.2-.4,1.934-4.321,5.617-5.906,7.665A190.965,190.965,0,0,0,14.2,92.832a8.035,8.035,0,0,0-1.581,2.529c-.26.49-.5.983-.74,1.414,12.121,4,21.55-4.058,27.979-13.433l.022-.033a40.746,40.746,0,0,1,6.465-7.21c4.177-3.417,8.651-4.019,13.576-5.7,13.432-4.585,19.142-21.977,20.956-34.882C82.928,20.955,72.918-1.37,55.443.066" transform="translate(58.887 42.231)"/><path class="c" d="M53.417,1.248C38.939,12.609,30.275,29.971,23.035,46.42c-8.086,18.372-14.381,37.3-17.313,57.168C3.8,116.642,1.592,129.742.521,142.9a140.143,140.143,0,0,0-.48,14.072c.008.385.214,10.856,2.123,8.691,1.086-1.231-.194-10.859-.172-12.429a201.2,201.2,0,0,1,2.383-26.384c2.114-14.4,3.7-28.8,7.184-42.956a49.031,49.031,0,0,1,1.813-6.367c.855-2.154.028-1.277,1.916-1.912,1.834-.618,3.933-.2,5.862-1.024,7.65-3.28,12.8-13.745,16.617-20.549A139.178,139.178,0,0,0,48.1,29.313a182.7,182.7,0,0,0,5.115-18.8A50.288,50.288,0,0,1,54.63,4.439a14.044,14.044,0,0,0,.905-1.881c.1-1.016-.426-1.7-.357-2.551q-.893.6-1.761,1.241" transform="translate(36.707 7.724) rotate(-8)"/><path class="c" d="M0,0A39.738,39.738,0,0,0,39.755,39.721,39.738,39.738,0,0,0,79.511,0" transform="translate(20.22 178.26)"/><path class="b" d="M41.652,49.515a6.106,6.106,0,0,1-4.166-1.463,8.352,8.352,0,0,1-2.245-3.605A31.028,31.028,0,0,1,34.059,35.5c-.167-6.228-.807-12.722-6.514-17.655-.672-.58-1.389-1.133-2.082-1.667-.618-.477-1.258-.969-1.863-1.48l-.289-.243c-1.945-1.633-3.956-3.321-4.2-5.991a4.155,4.155,0,0,1,.711-3.242,3.079,3.079,0,0,1,2.408-.855,9.914,9.914,0,0,1,2.046.25c.107.023.4.133.8.284a15.643,15.643,0,0,0,4.07,1.156c.313,0,.519-.071.611-.21a.607.607,0,0,0-.027-.569c-.235-.564-1.042-1.062-2.4-1.48-2.73-.3-5.308-.563-6.843-.563a5.086,5.086,0,0,0-.993.071C14.4,4.416,10.238,8.238,7.111,14.663a55.6,55.6,0,0,0-4.69,17.023c-.116.986-.221,2.053-.321,3.264H0a70.763,70.763,0,0,1,.779-7.866,50.458,50.458,0,0,1,5.554-16.23,24.091,24.091,0,0,1,5.426-6.6A15.094,15.094,0,0,1,19.29.882,11.158,11.158,0,0,1,20.5.838c.79,0,1.742.03,2.68.085A7,7,0,0,1,26.156.046C26.571.016,27,0,27.423,0A21.587,21.587,0,0,1,34.59,1.312,30.878,30.878,0,0,1,41.435,4.79,35.713,35.713,0,0,1,47.35,9.75a29.98,29.98,0,0,1,4.379,5.756,22.2,22.2,0,0,1,2.73,11.075,35.829,35.829,0,0,1-1.912,11.387,26.063,26.063,0,0,1-3.832,7.524c-2.057,2.64-4.4,3.994-6.964,4.023Z" transform="translate(61.065 143.437)"/></g></g></svg>