<svg xmlns="http://www.w3.org/2000/svg" xmlns:xlink="http://www.w3.org/1999/xlink" width="478.176" height="339" viewBox="0 0 478.176 339"><defs><style>.a,.i{fill:#efc692;}.b{opacity:0.7;}.c{fill:#69a1ac;}.d{fill:#89c5cc;}.e{opacity:0.21;}.f{fill:#1a1a1a;}.g{fill:#383838;}.h{clip-path:url(#a);}.aa,.i,.m{opacity:0.15;}.j{opacity:0.34;fill:url(#b);}.k{fill:#fff1c8;}.l{fill:#0d2a4c;}.m,.r{fill:#f6ba99;}.aa,.n{fill:#00143a;}.o{fill:#eab860;}.p{fill:#f3a28d;}.q{fill:#b4cce9;}.s{opacity:0.33;}.t{fill:#f2957e;}.u{fill:#f3f0eb;}.v{fill:#ffde0a;}.w{fill:#7697cc;}.x{fill:#133c77;}.y{fill:#ffc84c;}.z{fill:#f17f60;}.ab{fill:#fce8cf;}.ac{opacity:0.25;}.ad{fill:#707070;}.ae{fill:#392914;}.af{fill:#e1e5f0;}</style><clipPath id="a"><path class="a" d="M287.69,281h0a22.746,22.746,0,0,1,22.145,21.664l3.713,78.507-94.4,2.58,3.324-100.882Z" transform="translate(-219.147 -280.997)"/></clipPath><linearGradient id="b" x1="0.181" y1="1.119" x2="0.812" y2="0.18" gradientUnits="objectBoundingBox"><stop offset="0" stop-color="#fff"/><stop offset="0.232" stop-color="#fff" stop-opacity="0.769"/><stop offset="1" stop-color="#fff" stop-opacity="0"/></linearGradient></defs><g transform="translate(-691.055 -247.5)"><g class="b" transform="translate(1006 333)"><path class="c" d="M17.109.025c8.62.456,18.7,6.575,18.632,15.99-.047,6.841-.963,13.571-.645,20.44a55.044,55.044,0,0,0,3.3,16.031c1.783,4.973,6.09,9.5,6.789,14.685A21.809,21.809,0,0,1,43.305,78c-1.718,3.693-.987,3.464,1.3,6.955,4.473,6.84,8.418,13.788,10.9,21.656,3.571,11.334,5.327,24.328,2.332,36.009-.381,1.483-1.213,6.862-3.327,7.022-2.362.179-.953-2.8-.724-3.785,1.458-6.291,2.744-11.788,2.474-18.361-1.045-25.361-17.232-43.7-26.67-66.122-.526-1.161-1.607-3.906-2.368-5.722-1.2-2.867-2.153-8.183-3.954-10.4-3.391-4.185-.708,3.794-.122,5.325.74,1.937,1.562,4,2.349,5.71,3.592,7.928,7.621,16.593,11.332,24.766C16.8,83.449,5.5,58.5,1.88,42.493-1.1,29.307-3.148-1,17.109.025" transform="matrix(0.995, -0.105, 0.105, 0.995, 0.871, 75.006)"/><path class="d" d="M64.283.077C49.872,1.22,40.621,10.729,36.314,24.03c-2.321,7.168-2.587,14.531-3.877,21.9C30.5,57.009,26.322,65.407,18.162,73.3a27.552,27.552,0,0,0-5.713,7.642,32.549,32.549,0,0,0-6.6,9.427c-2.147,4.738-2.754,10.424-.276,15.148A15.527,15.527,0,0,0,9.629,110.5a97.553,97.553,0,0,0-9.6,43.817c.242,9.072.684,18.148,1.2,27.209.139,2.433.931,6.451,2.121,2.37,1.089-3.732-.277-9.591-.4-13.49-.615-18.994-1.141-36.264,6.678-54.01q1.23-2.79,2.595-5.535a1.839,1.839,0,0,0,.152-.1c.035.027.066.055.1.081.058-.1.137-.226.229-.363a4.9,4.9,0,0,0,.7-.984,7.139,7.139,0,0,0,1.483-2.708s0-.012,0-.017A255.707,255.707,0,0,1,30.934,84.075c-.042.053,6.142-8.368,5.186-3.711-.461,2.244-5.01,6.518-6.848,8.9a221.616,221.616,0,0,0-12.8,18.469c-.534.307-1.288,1.813-1.833,2.934-.3.568-.582,1.141-.858,1.64,14.054,4.643,24.986-4.71,32.441-15.588l.025-.039a47.271,47.271,0,0,1,7.5-8.367c4.844-3.965,10.031-4.665,15.741-6.616,15.573-5.321,22.195-25.5,24.3-40.48,2.373-16.9-9.233-42.8-29.495-41.137" transform="translate(69.147 49.394)"/><path class="d" d="M61.936,1.441C45.147,14.626,35.1,34.775,26.7,53.865,17.324,75.186,10.023,97.148,6.62,120.207c-2.235,15.15-4.792,30.352-6.036,45.623A162.77,162.77,0,0,0,.026,182.16c.009.447.246,12.6,2.461,10.085,1.259-1.429-.223-12.6-.2-14.424A233.687,233.687,0,0,1,5.056,147.2c2.453-16.712,4.3-33.423,8.336-49.85a56.946,56.946,0,0,1,2.1-7.389c.991-2.5.033-1.482,2.221-2.22,2.126-.717,4.56-.23,6.8-1.19,8.871-3.808,14.842-15.952,19.27-23.848,5.065-9.03,8.759-18.9,11.979-28.7A212.2,212.2,0,0,0,61.7,12.2a58.407,58.407,0,0,1,1.646-7.052,16.307,16.307,0,0,0,1.05-2.183C64.508,1.782,63.9.993,63.978,0q-1.036.7-2.042,1.441" transform="translate(43.431 9.35) rotate(-8)"/><path class="d" d="M0,0A46.1,46.1,0,0,0,46.095,46.095,46.1,46.1,0,0,0,92.189,0" transform="translate(24.315 207.253)"/><path class="c" d="M48.184,57a7.085,7.085,0,0,1-4.82-1.684,9.609,9.609,0,0,1-2.6-4.15c-1.182-3.387-1.294-7.55-1.368-10.3-.193-7.17-.934-14.645-7.536-20.324-.777-.668-1.607-1.3-2.409-1.919C28.74,18.07,28,17.5,27.3,16.915l-.335-.28c-2.25-1.88-4.576-3.823-4.861-6.9a4.765,4.765,0,0,1,.823-3.732,3.572,3.572,0,0,1,2.786-.984,11.523,11.523,0,0,1,2.367.288c.124.027.459.153.921.327a18.165,18.165,0,0,0,4.708,1.33c.362,0,.6-.081.707-.241a.7.7,0,0,0-.031-.655c-.272-.649-1.206-1.222-2.775-1.7-3.158-.342-6.14-.648-7.916-.648a5.911,5.911,0,0,0-1.148.081c-5.884,1.284-10.7,5.684-14.32,13.08A63.755,63.755,0,0,0,2.8,36.475c-.134,1.135-.255,2.364-.371,3.758H0a81.074,81.074,0,0,1,.9-9.055A57.891,57.891,0,0,1,7.326,12.5,27.763,27.763,0,0,1,13.6,4.9a17.5,17.5,0,0,1,8.712-3.886,12.97,12.97,0,0,1,1.4-.051c.914,0,2.015.035,3.1.1A8.122,8.122,0,0,1,30.258.053C30.738.018,31.232,0,31.724,0a25.081,25.081,0,0,1,8.29,1.51,35.787,35.787,0,0,1,7.918,4,41.266,41.266,0,0,1,6.843,5.709,34.529,34.529,0,0,1,5.065,6.626A25.454,25.454,0,0,1,63,30.6a41.062,41.062,0,0,1-2.211,13.108,29.946,29.946,0,0,1-4.433,8.661c-2.379,3.039-5.09,4.6-8.057,4.631Z" transform="translate(72 167)"/></g><g class="e" transform="translate(691.055 247.5)"><path d="M120.143,17.731a2,2,0,0,1-2-2V0h9.636V15.731a2,2,0,0,1-2,2ZM2,17.731a2,2,0,0,1-2-2V0H9.635V15.731a2,2,0,0,1-2,2Z" transform="translate(25.975 321.269)"/><rect width="179.309" height="321.269" rx="10"/><path class="f" d="M93.006,283.7V224.171h53.625V283.7ZM0,283.7V224.171H52.787V283.7Zm93.006-66.7V145.225h53.625v71.768ZM0,216.994V145.225H52.787v71.768Zm93.006-78.945V66.28h53.625v71.768ZM0,138.048V66.28H52.787v71.768ZM93.006,59.1V0h53.625V59.1ZM0,59.1V0H52.787V59.1Z" transform="translate(14.244 18.575)"/><path class="g" d="M74.573,321.269V0h1.676V321.269Zm18.852-19v-7.177h52.788v7.176H93.425ZM0,302.271v-7.177H52.788v7.176H0Zm93.425-66.7v-7.177h10.92a2.933,2.933,0,0,0,5.811,0h2.568a2.933,2.933,0,0,0,5.811,0h2.148a2.933,2.933,0,0,0,5.811,0h2.568a2.933,2.933,0,0,0,5.811,0h11.339v7.176H93.425ZM0,235.569v-7.177H18.13a12.153,12.153,0,0,0,14.852,0H52.788v7.176H0ZM36.841,212.35H14.27c-.017-.257-.025-.51-.025-.757v-5.772a.227.227,0,0,1,.226-.226H36.641a.227.227,0,0,1,.227.226v5.772c0,.261-.008.516-.025.756h0ZM81.276,179.44V151.116a2.514,2.514,0,0,1,5.027,0V179.44a2.514,2.514,0,1,1-5.027,0Zm-16.758,0V151.116a2.514,2.514,0,1,1,5.027,0V179.44a2.514,2.514,0,1,1-5.027,0Zm28.907-22.817v-7.177h17.853a2.925,2.925,0,0,0,2.812,2.11h11.876a2.925,2.925,0,0,0,2.812-2.11h17.435v7.176H93.425ZM0,156.623v-7.177H12.6a2.933,2.933,0,0,0,5.811,0h2.568a2.933,2.933,0,0,0,5.811,0H37.112a2.9,2.9,0,0,0,5.45,0H52.788v7.176H0Zm113.535-13.509,1.885-3.8h9.216l1.885,3.8Zm6.83-13.088a5.577,5.577,0,0,0-.626,0,31.813,31.813,0,0,1,1.409-11.079,3.21,3.21,0,0,1-.64-.2c-3.428-1.448-5.742-10.777-5.587-11.437s.68-.87,1.563-.221,4.378,7.3,4.378,7.3a16.8,16.8,0,0,1,1,2.344c.5-1.443,1.084-2.962,1.764-4.586a4.382,4.382,0,0,0,.5.324,4.276,4.276,0,0,0,.582.184,54.787,54.787,0,0,0-2.918,8.654c.3-.309.547-.515.547-.515s4.477-3.815,5.549-4.036,1.678.077,1.823.6-3.094,6.594-7.2,6.678a3.926,3.926,0,0,1-1.225-.127,29.884,29.884,0,0,0-.31,6.243S120.545,130.044,120.365,130.027ZM93.425,77.678V70.5h52.788v7.176H93.425ZM0,77.678V70.5H52.788v7.176H0Z" transform="translate(14.244)"/></g><g transform="translate(695.562 142.965)"><g transform="translate(243.377 336.316)"><path class="a" d="M287.69,281.275h0a22.75,22.75,0,0,1,22.145,21.665l3.713,78.506-94.4,2.582,3.324-100.882Z" transform="translate(-219.147 -280.797)"/><g class="h"><path class="i" d="M287.323,279.564s-49.125-5.98-55.106,4.7-2.563,106.793-2.563,106.793h24.776L258,304.34l5.926.153a22.884,22.884,0,0,0,23.436-24.211Z" transform="translate(-212.293 -283.227)"/><path class="i" d="M265.371,276.8s-49.125-5.981-55.1,4.7S207.7,388.295,207.7,388.295h24.776l3.573-86.716,5.925.153a22.888,22.888,0,0,0,23.437-24.213Z" transform="translate(-228.072 -285.212)"/></g></g><path class="j" d="M188.592,264.97l54.761-43.305L310.663,232l-4.973,65.22L245.713,309.66l-14.349-36.815Z" transform="translate(2.267 12.672)"/><g transform="translate(213.277 326.168)"><path class="k" d="M260.275,276.762s-49.125-5.981-55.1,4.7-2.563,106.8-2.563,106.8h24.775l3.573-86.716,33.164.854Z" transform="translate(-201.635 -275.093)"/><g transform="translate(21.271 22.513)"><path class="l" d="M236.118,290.422a6.271,6.271,0,0,1-1.055-.086c-.7-.089-1.714-.217-3.006-.378-1.308-.175-2.9-.388-4.749-.638l-2.965-.407a9.831,9.831,0,0,0-3.242-.17,1.938,1.938,0,0,0-1.255.94,4.472,4.472,0,0,0-.481,1.705q-.162,1.916-.34,3.979c-.223,2.755-.462,5.7-.713,8.8-.488,6.2-.99,13.013-1.464,20.172-.959,14.321-1.614,27.3-2.047,36.693-.21,4.685-.382,8.482-.5,11.129-.067,1.3-.119,2.313-.155,3.023a6.329,6.329,0,0,1-.1,1.054,6.341,6.341,0,0,1-.034-1.059c.007-.71.017-1.727.031-3.027.043-2.631.136-6.437.29-11.139.313-9.4.9-22.389,1.853-36.717.476-7.162,1-13.981,1.518-20.179.273-3.1.533-6.042.775-8.8.132-1.378.241-2.7.382-3.991a4.894,4.894,0,0,1,.564-1.891,2.42,2.42,0,0,1,1.564-1.146,5.094,5.094,0,0,1,1.793-.036c.567.074,1.1.165,1.623.244q1.57.24,2.958.457c1.841.29,3.429.543,4.734.749l2.987.5A6.33,6.33,0,0,1,236.118,290.422Z" transform="translate(-214.011 -288.191)"/></g><path class="m" d="M221.825,277.064l.54,23.972h7.489l9.892-23.235S224.941,275.715,221.825,277.064Z" transform="translate(-187.123 -274.002)"/></g><path class="n" d="M257.436,214.864c3.034,4.5,9.015,5.631,14.283,6.94s11.2,4.044,12.166,9.385c.61,3.357-1.009,6.841-.308,10.182,1.447,6.894,10.8,8.254,15.625,13.389,3.47,3.7,4.3,9.421,2.709,14.235a20.975,20.975,0,0,1-9.751,11.231c-9.094,5.177-20.892,4.539-30.024-.571S246.5,265.4,243.4,255.407s-2.972-20.789-.961-31.058c.746-3.816,1.942-7.881,5.06-10.2s8.63-1.542,9.649,2.209" transform="translate(39.935 6.327)"/><path class="o" d="M263.645,270.321s.26.593.627,1.533c.944,2.42,2.6,7.14,2.391,10.041l-13.771-2.853" transform="translate(48.485 47.646)"/><g transform="translate(185.438 267.507)"><path class="p" d="M213.786,275.111l-2.85-1.913a29.133,29.133,0,0,1-4.852-3.118,8.4,8.4,0,0,1-1.944-2.1,12.887,12.887,0,0,1-1.638-3.164,1.106,1.106,0,0,0-2.063-.345c-.385.921.256,3.879,2.448,6.652s-3.236,1.566-5.225,1.162-8.192-1.37-8.8-.858c-.892.753-.253,1.846,1.741,2.2,2.018.363,7.9,1.853,7.633,2.893-.261,1.023-10.347-1.177-10.347-1.177s-2.081-.816-2.425.373c-.624,2.147,10.271,3.7,11.311,3.817.724.086.476,1.224-.3,1.09-.794-.136-10.01-2.427-10.665-.246-.5,1.672,8.95,1.356,10.6,2.894s-7.191-.49-7.607,1.129c-.155.6-.186,1.073,5.058,1.5,5.371.442,20.118-.732,20.118-.732l-.321-10.227" transform="translate(-185.438 -224.486)"/><path class="p" d="M243.356,241.113s-6.164,42.26-8.56,43.15c-16.44,6.1-36.739,3.769-36.739,3.769l-1.1,14.242s53.377,5.71,58.236-14.938a351,351,0,0,0,7.558-46.373Z" transform="translate(-177.155 -240.963)"/></g><path class="k" d="M285.383,276.762s-49.125-5.981-55.1,4.7-2.563,106.8-2.563,106.8h24.776l3.572-86.716,5.925.153a22.889,22.889,0,0,0,23.437-24.213Z" transform="translate(29.69 51.075)"/><path class="q" d="M188.592,247.9l13.222,49.046h76.473V293.7L247.6,292.062l-9.8-46.654Z" transform="translate(2.267 29.738)"/><path class="o" d="M292.757,252.032s-5.1-25.17-22.9-23.207-27.954,2.685-27.954,2.685-17.605-1.928-19.732,17.38a18.966,18.966,0,0,0-.041,3.493l.586,7.671,14.969-1.246s1.248,25.2-.9,32.057c-2.434,7.759-6.1,17.889-6.1,17.889l48.085-.521-4.821-52.21,18.807-3.991" transform="translate(26.332 17.74)"/><g transform="translate(258.696 204.035)"><path class="r" d="M237.734,247.835c.344-1.66-.081-7.762-.081-7.762s-6.385-.9-6.554-7.269.73-21.009.73-21.009l11.87-5.3,10.431,10.473-1.9,29.735Z" transform="translate(-225.891 -202.268)"/><g transform="translate(13.273 14.322)"><path class="n" d="M244.173,213.128a1.5,1.5,0,0,1,.321.156,4.4,4.4,0,0,1,.835.6,5.556,5.556,0,0,1,1.8,3.278,5.627,5.627,0,0,1-.186,2.619,5.711,5.711,0,0,1-1.636,2.53,5.74,5.74,0,0,1-3.022,1.4,5.689,5.689,0,0,1-5.961-3.236,5.693,5.693,0,0,1-.474-3.293,5.7,5.7,0,0,1,1.231-2.754,5.635,5.635,0,0,1,5.825-1.855,4.371,4.371,0,0,1,.956.375,1.465,1.465,0,0,1,.308.184c-.017.038-.443-.225-1.3-.433a5.547,5.547,0,0,0-3.6.361,5.452,5.452,0,0,0-3.12,4.166,5.439,5.439,0,0,0,.466,3.111,5.394,5.394,0,0,0,5.624,3.053,5.073,5.073,0,0,0,1.559-.454,5.156,5.156,0,0,0,1.3-.849,5.468,5.468,0,0,0,1.578-2.389,5.4,5.4,0,0,0,.215-2.5,5.551,5.551,0,0,0-1.659-3.218C244.6,213.378,244.15,213.163,244.173,213.128Z" transform="translate(-235.783 -212.367)"/></g><g transform="translate(0 13.918)"><path class="n" d="M233.969,212.163a1.618,1.618,0,0,1,.358,0,4.454,4.454,0,0,1,1.014.162,5.557,5.557,0,0,1,3.075,2.128,5.629,5.629,0,0,1,1,2.427,5.707,5.707,0,0,1-.335,3,5.747,5.747,0,0,1-2.08,2.6,5.693,5.693,0,0,1-6.779-.235,5.722,5.722,0,0,1-1.9-2.738,5.718,5.718,0,0,1-.127-3.011,5.632,5.632,0,0,1,1.171-2.351,5.546,5.546,0,0,1,3.214-1.908,4.469,4.469,0,0,1,1.024-.093,1.656,1.656,0,0,1,.358.027c0,.041-.5,0-1.354.191a5.567,5.567,0,0,0-3.061,1.93,5.445,5.445,0,0,0-.933,5.122,5.455,5.455,0,0,0,1.806,2.576,5.391,5.391,0,0,0,6.394.222,5.407,5.407,0,0,0,1.98-2.446,5.448,5.448,0,0,0-.574-5.172,5.568,5.568,0,0,0-2.922-2.14C234.464,212.194,233.964,212.2,233.969,212.163Z" transform="translate(-228.06 -212.132)"/></g><g transform="translate(11.137 20.033)"><path class="n" d="M234.54,215.819c0-.091.543-.146,1.208-.124s1.2.115,1.2.208-.545.146-1.21.122S234.537,215.91,234.54,215.819Z" transform="translate(-234.54 -215.69)"/></g><g transform="translate(24.332 20.527)"><path class="n" d="M242.217,216.071a25.179,25.179,0,0,1,5.755.2,25.184,25.184,0,0,1-5.755-.2Z" transform="translate(-242.217 -215.977)"/></g><path class="n" d="M255.272,223.3s-10.447-1.353-11.97-10.93l-11.738,10.106a12.276,12.276,0,0,1,3.319-13.491c6.53-6.33,10.806-4.821,13.278-4.735,2.3.079,13.867,2.955,16.873,16.328a28.124,28.124,0,0,1,.512,3.077Z" transform="translate(-226.108 -204.035)"/><g transform="translate(6.074 18.412)"><path class="n" d="M232.041,216.147a.814.814,0,1,0,.842-.785A.815.815,0,0,0,232.041,216.147Z" transform="translate(-231.273 -214.305)"/><g transform="matrix(0.891, -0.454, 0.454, 0.891, -0.038, 0.786)"><path class="n" d="M231.606,215.676c.1.108.72-.383,1.6-.4s1.521.428,1.617.313c.046-.05-.057-.247-.337-.455a2.167,2.167,0,0,0-2.564.067C231.649,215.425,231.558,215.626,231.606,215.676Z" transform="translate(-231.594 -214.746)"/></g></g><g transform="translate(15.781 18.749)"><path class="n" d="M237.525,216.338a.814.814,0,1,0,.842-.785A.815.815,0,0,0,237.525,216.338Z" transform="translate(-237.038 -214.505)"/><g transform="matrix(0.839, 0.545, -0.545, 0.839, 0.518, -0.805)"><path class="n" d="M237.254,215.87c.1.11.72-.38,1.6-.4s1.521.428,1.617.315c.045-.052-.057-.249-.337-.457a2.167,2.167,0,0,0-2.564.067C237.3,215.619,237.206,215.823,237.254,215.87Z" transform="translate(-237.242 -214.943)"/></g></g><g transform="translate(10.162 19.33)"><path class="n" d="M236.189,222.914a6.243,6.243,0,0,1-1.444.012,1.42,1.42,0,0,1-.376-.048.535.535,0,0,1-.356-.321,1.4,1.4,0,0,1,.119-.906q.3-.856.639-1.8c.461-1.277.9-2.427,1.225-3.254a6.242,6.242,0,0,1,.6-1.313,6.228,6.228,0,0,1-.38,1.392c-.273.847-.674,2.009-1.134,3.286q-.348.944-.663,1.794a1.236,1.236,0,0,0-.148.708c.045.174.27.211.492.23A6.456,6.456,0,0,1,236.189,222.914Z" transform="translate(-233.973 -215.281)"/></g><g class="s" transform="translate(16.567 26.279)"><path class="t" d="M237.7,220.587c0,.725,1.095,1.284,2.446,1.361s2.491-.356,2.556-1.079-1.023-1.459-2.437-1.538S237.7,219.867,237.7,220.587Z" transform="translate(-237.699 -219.324)"/></g><path class="u" d="M238.72,222.613c.908.557-2.5-1.372-4.285-1.31a2.425,2.425,0,0,1,2.876-.925C239.206,221.1,238.72,222.613,238.72,222.613Z" transform="matrix(0.788, -0.616, 0.616, 0.788, -309.654, 1.233)"/><path class="t" d="M234.9,227.1a15.862,15.862,0,0,0,8.518-2.551s-2.071,4.6-8.434,4.115Z" transform="translate(-223.141 -189.291)"/></g><path class="o" d="M234.38,245.653c.2,1.683-1.019,3.183-2.262,4.333s-2.668,2.3-3.073,3.952a5.334,5.334,0,0,0,.411,3.326,8.985,8.985,0,0,0,6.643,5.242" transform="translate(31.26 29.915)"/><path class="v" d="M234.4,293.594l-3.118-42.708c2.339,0,32.49-2.91,32.49-2.91l6.129,46.933Z" transform="translate(32.955 31.584)"/><path class="w" d="M235.962,259.394s.643,12.7,2.064,12.688c5.657-.053,20.044-2.468,20.634-3.353s-1.447-12.086-1.447-12.086Z" transform="translate(36.316 37.813)"/><g transform="translate(269.308 290.423)"><path class="x" d="M234.951,261.391a3.494,3.494,0,0,1-.2-.73c-.115-.5-.287-1.279-.492-2.3l-.029-.146.153-.027c4.574-.761,14.3-2.222,25.536-3.824l.04-.007.378-.055v.383c0,1.251,0,2.48,0,3.649v.292l-.289.034c-7.143.863-13.47,1.573-17.968,2.056l-5.272.547a13.4,13.4,0,0,1-1.858.134,19.524,19.524,0,0,1,1.99-.333c1.279-.181,3.085-.433,5.321-.749,4.495-.614,10.7-1.439,17.707-2.3l-.287.325c0-1.169,0-2.4,0-3.649l.376.327-.038.005c-11.243,1.6-20.985,2.918-25.589,3.463l.124-.172c.15.969.247,1.727.316,2.255A5.748,5.748,0,0,1,234.951,261.391Z" transform="translate(-234.234 -254.296)"/></g><g transform="translate(277.813 328.24)"><path class="x" d="M275.9,276.3a1.277,1.277,0,0,1-.019.345c-.027.227-.052.569-.139,1.006a18.643,18.643,0,0,1-1.062,3.759,20.813,20.813,0,0,1-3.089,5.356,20.175,20.175,0,0,1-6.27,5.261,21.159,21.159,0,0,1-9.584,2.534,20.52,20.52,0,0,1-2.743-.12l-2.776-.352a18.686,18.686,0,0,0-2.827-.155,6.434,6.434,0,0,0-2.735.631,4.514,4.514,0,0,0-1.99,1.964,9.227,9.227,0,0,0-.861,2.86c-.29,2.045-.5,4.185-.712,6.339-.416,4.323-.693,8.812-.89,13.415-.388,9.209-.376,18-.4,25.99s-.05,15.187-.07,21.237c-.045,6.035-.079,10.923-.1,14.318-.027,1.677-.048,2.987-.062,3.891-.014.435-.026.772-.033,1.012a1.33,1.33,0,0,1-.034.344,1.294,1.294,0,0,1-.033-.344c-.009-.241-.019-.578-.034-1.012-.014-.9-.034-2.214-.062-3.891-.026-3.395-.062-8.283-.1-14.318-.021-6.05-.045-13.245-.072-21.237-.007-7.992-.036-16.787.352-26.019.2-4.61.48-9.111.9-13.446.218-2.171.431-4.285.732-6.382a9.878,9.878,0,0,1,.938-3.051,5.127,5.127,0,0,1,2.264-2.216,7,7,0,0,1,2.987-.681,19.152,19.152,0,0,1,2.918.172l2.771.368a20.029,20.029,0,0,0,2.669.134,20.737,20.737,0,0,0,9.373-2.4,19.927,19.927,0,0,0,6.2-5.079,21.079,21.079,0,0,0,3.138-5.222,20.654,20.654,0,0,0,1.17-3.687C275.8,276.757,275.866,276.293,275.9,276.3Z" transform="translate(-239.182 -276.298)"/></g><g transform="translate(258.76 336.398)"><path class="x" d="M242.482,281.74c-.007.182-3.233.21-7.205.062s-7.186-.416-7.179-.6,3.231-.211,7.205-.062S242.488,281.556,242.482,281.74Z" transform="translate(-228.097 -281.044)"/></g><g transform="translate(283.252 350.045)"><path class="x" d="M244.877,291.792c-.138.122-.808-.4-1.5-1.174s-1.143-1.494-1.007-1.616.808.4,1.5,1.172S245.013,291.668,244.877,291.792Z" transform="translate(-242.347 -288.985)"/></g><g transform="translate(285.48 348.09)"><path class="x" d="M244.124,292.893c-.182.009-.387-1.114-.457-2.506s.021-2.53.2-2.54.387,1.114.457,2.506S244.306,292.883,244.124,292.893Z" transform="translate(-243.643 -287.847)"/></g><g transform="translate(296.36 327.661)"><path class="x" d="M261.57,275.966c.062.036-.242.734-1.081,1.616a8.338,8.338,0,0,1-1.662,1.329,10.1,10.1,0,0,1-2.394,1.043,10.244,10.244,0,0,1-2.587.347,8.5,8.5,0,0,1-2.111-.278,3.631,3.631,0,0,1-1.76-.823,13.643,13.643,0,0,1,1.858.364,10.278,10.278,0,0,0,2,.127,10.391,10.391,0,0,0,4.684-1.3,10.529,10.529,0,0,0,1.65-1.145C261.042,276.494,261.478,275.9,261.57,275.966Z" transform="translate(-249.973 -275.961)"/></g><g transform="translate(270.284 281.706)"><path class="x" d="M254.578,249.255a11.766,11.766,0,0,1-2.834.729c-1.77.347-4.237.732-6.978,1s-5.239.375-7.044.38a11.691,11.691,0,0,1-2.92-.16,14.211,14.211,0,0,1,2.9-.308c1.793-.124,4.266-.3,6.994-.569s5.187-.579,6.97-.808A14.308,14.308,0,0,1,254.578,249.255Z" transform="translate(-234.802 -249.225)"/></g><path class="y" d="M227.715,344.531h24.776v-8.607H226.743Z" transform="translate(29.69 94.8)"/><path class="y" d="M202.651,344.531h25.88v-8.607h-26.9Z" transform="translate(11.642 94.8)"/><g transform="translate(256.085 249.729)"><path class="z" d="M278.565,230.643a12.005,12.005,0,0,1-2.028.313c-1.31.16-3.207.361-5.557.584-4.7.447-11.193.963-18.381,1.365s-13.7.614-18.42.693c-2.36.041-4.268.053-5.588.041a12.1,12.1,0,0,1-2.051-.086,12.077,12.077,0,0,1,2.045-.172c1.351-.062,3.249-.146,5.579-.251,4.709-.2,11.215-.485,18.4-.887s13.676-.842,18.379-1.171l5.572-.373A12.36,12.36,0,0,1,278.565,230.643Z" transform="translate(-226.541 -230.62)"/></g><g transform="translate(250.936 255.212)"><path class="z" d="M285.54,233.837a2.374,2.374,0,0,1-.626.107c-.411.048-1.018.107-1.8.175-1.566.139-3.831.311-6.633.505-5.6.387-13.348.835-21.909,1.195s-16.32.559-21.935.641c-2.809.041-5.081.058-6.652.052-.784,0-1.394-.01-1.808-.024a2.248,2.248,0,0,1-.633-.055,2.407,2.407,0,0,1,.631-.079c.413-.029,1.021-.064,1.8-.1l6.645-.261,21.92-.835,21.909-1,6.643-.3c.785-.029,1.394-.046,1.808-.05A2.334,2.334,0,0,1,285.54,233.837Z" transform="translate(-223.545 -233.81)"/></g><g transform="translate(248.653 260.587)"><path class="z" d="M289.523,236.963a2.672,2.672,0,0,1-.679.108l-1.959.182-7.21.555-23.793,1.714-23.8,1.739-7.214.492-1.965.1a2.69,2.69,0,0,1-.689-.009,2.707,2.707,0,0,1,.677-.124l1.954-.227c1.7-.182,4.158-.423,7.2-.7,6.081-.557,14.489-1.258,23.786-1.932s17.714-1.195,23.812-1.521c3.049-.163,5.517-.28,7.224-.344.834-.026,1.492-.045,1.966-.058A2.785,2.785,0,0,1,289.523,236.963Z" transform="translate(-222.217 -236.937)"/></g><g transform="translate(248.944 266.266)"><path class="z" d="M291.107,240.267a2.713,2.713,0,0,1-.7.108l-2,.179-7.37.559c-6.222.459-14.818,1.1-24.3,1.906s-18.071,1.621-24.283,2.217l-7.358.691-2,.162a2.71,2.71,0,0,1-.7.01,2.851,2.851,0,0,1,.689-.143l1.989-.285c1.731-.234,4.239-.543,7.337-.9,6.2-.717,14.782-1.605,24.276-2.411s18.1-1.373,24.331-1.714c3.116-.17,5.639-.287,7.386-.347.852-.024,1.525-.043,2.009-.055A2.919,2.919,0,0,1,291.107,240.267Z" transform="translate(-222.386 -240.241)"/></g><g transform="translate(248.944 272.221)"><path class="z" d="M291.107,243.733a2.881,2.881,0,0,1-.7.107l-2,.179-7.37.559c-6.222.457-14.818,1.1-24.3,1.906s-18.071,1.621-24.283,2.217c-3.089.289-5.6.524-7.358.691l-2,.162a2.81,2.81,0,0,1-.7.01,2.854,2.854,0,0,1,.689-.143l1.989-.285c1.731-.234,4.239-.543,7.337-.9,6.2-.717,14.782-1.605,24.276-2.411s18.1-1.373,24.331-1.714c3.116-.17,5.639-.287,7.386-.349l2.009-.053A2.744,2.744,0,0,1,291.107,243.733Z" transform="translate(-222.386 -243.706)"/></g><g transform="translate(261.314 278.872)"><path class="z" d="M269.646,247.623a7.254,7.254,0,0,1-1.571.217c-1.014.1-2.482.215-4.3.345-3.628.278-8.656.531-14.177.973-5.521.495-10.517,1.093-14.14,1.432-1.812.177-3.279.308-4.294.383a7.317,7.317,0,0,1-1.585.05,7.4,7.4,0,0,1,1.556-.306c1.005-.155,2.465-.356,4.269-.593,3.611-.457,8.592-1.129,14.137-1.626,5.548-.443,10.571-.62,14.208-.779,1.817-.07,3.29-.119,4.307-.136A7.447,7.447,0,0,1,269.646,247.623Z" transform="translate(-229.583 -247.576)"/></g><g transform="translate(288.784 246.456)"><path class="y" d="M245.565,229.617l1.354,36.637h4.313V228.715Z" transform="translate(-245.565 -228.715)"/><path class="y" d="M249.248,249.694a1.1,1.1,0,1,1-1.1-1.1A1.1,1.1,0,0,1,249.248,249.694Z" transform="translate(-244.503 -214.428)"/></g><g transform="translate(262.062 248.055)"><path class="y" d="M230.019,230.99l4.225,36.417,4.3-.337L235.6,229.646Z" transform="translate(-230.019 -229.646)"/><path class="y" d="M235.082,250.762a1.1,1.1,0,1,1-1.1-1.1A1.1,1.1,0,0,1,235.082,250.762Z" transform="translate(-227.963 -215.26)"/></g><path class="aa" d="M228.677,285.412s30.28,5.218,34.895-11.222,7.075-29.666,7.075-29.666-.545,41.522-5.8,44.716-38.484-.177-37.6-3.737" transform="translate(30.039 29.103)"/><path class="r" d="M298.935,242.281l-18.807,3.991s-.139,35.943-7.468,39.348c-14.458,6.715-33.123,2.494-36.394,1.671-.548-.419-1.16-.911-1.829-1.485a8.423,8.423,0,0,1-1.812-2.212,12.882,12.882,0,0,1-1.446-3.259,1.106,1.106,0,0,0-2.038-.468c-.438.894.022,3.888,2.044,6.788s-3.328,1.366-5.285.842-8.1-1.863-8.735-1.387c-.935.694-.363,1.825,1.605,2.3,1.992.483,7.771,2.327,7.444,3.348-.321,1.005-10.258-1.8-10.258-1.8s-2.026-.944-2.442.225c-.753,2.1,10.029,4.309,11.06,4.493.717.129.4,1.251-.361,1.073-.784-.184-9.845-3.03-10.631-.892-.605,1.64,8.85,1.9,10.4,3.529s-7.15-.923-7.662.667c-.191.593-.251,1.061,4.959,1.808a121.344,121.344,0,0,0,13.133.533c5.785.82,51.27,6.648,58.423-11.476C300.874,269.567,298.935,242.281,298.935,242.281Z" transform="translate(20.154 27.491)"/><path class="o" d="M235.446,340.918s-13.085,2.432-9.8,3.429,26.258-.828,26.258-.828v-2.6Z" transform="translate(28.521 98.39)"/><path class="o" d="M210.089,340.918s-13.085,2.432-9.8,3.429,26.258-.828,26.258-.828v-2.6Z" transform="translate(10.295 98.39)"/><path class="z" d="M247.214,219.718s6.772-4.617,6.262-5.3l1.628,1.624-5.978,5.631Z" transform="translate(44.404 7.462)"/><path class="ab" d="M209.953,261.388c.447,2.085-.471,4.049-2.051,4.386s-3.219-1.078-3.666-3.163.473-4.048,2.051-4.385S209.506,259.3,209.953,261.388Z" transform="translate(13.431 38.917)"/></g><g class="ac" transform="translate(1024.129 282.5)"><rect class="ad" width="78.361" height="78"/><path class="ae" d="M33.475,33.648H0V0H33.475V33.647ZM15.844,7.685h0a2.67,2.67,0,0,0-1.887.988,1.742,1.742,0,0,0-.421,1.9c.645,1.808,3.717,3.5,5.008,3.659.794.941,3.867,1.927,3.9,1.936a4.576,4.576,0,0,0,.8.067,2.766,2.766,0,0,0,2.1-.768,2.645,2.645,0,0,0,.47-2.152c-.18-1.4-1.353-1.69-2.306-1.69a6.576,6.576,0,0,0-1.435.176c.232-.272.38-.459.382-.461a3.655,3.655,0,0,0,.463-2.811,2.509,2.509,0,0,0-1.9-1.374,2.19,2.19,0,0,0-.516-.066c-1.049,0-1.813.916-2.152,2.58-.038-.1-.06-.159-.06-.16-.01-.018-.976-1.826-2.44-1.826Z" transform="translate(22.443 22.559)"/><path class="af" d="M7.612,13.285C2.553,12.69-.811,3.66.17,2.19S7.659,6.4,7.659,6.4s.037.055.1.155A23.758,23.758,0,0,1,9.48,0l1.055.437A21.271,21.271,0,0,0,8.8,8.374c1.037,2.046,2.033,4.946-.651,4.946A4.624,4.624,0,0,1,7.612,13.285Z" transform="translate(31.192 36.608)"/><path class="af" d="M0,.008S.6,1.465,1.12,1.722s1.858-.2,1.858-.2A2.458,2.458,0,0,0,1.722.411,3.991,3.991,0,0,0,0,.008Z" transform="translate(39.624 36.35)"/></g></g></svg>