<svg xmlns="http://www.w3.org/2000/svg" xmlns:xlink="http://www.w3.org/1999/xlink" width="546.019" height="280.457" viewBox="0 0 546.019 280.457"><defs><style>.a,.f{fill:#c1dee2;}.a{opacity:0.2;}.b{opacity:0.7;}.c{fill:#69a1ac;}.d{fill:#89c5cc;}.e{opacity:0.5;}.g{fill:#f2f2f2;}.h{fill:#635449;}.i{fill:#f2bf4c;}.j,.y{opacity:0.36;}.k,.l{fill:#154593;}.ab,.l,.p{opacity:0.23;}.m{fill:#ad9380;}.n,.u{fill:#00143a;}.n{opacity:0.15;}.o{fill:#fce8cf;}.q,.y{fill:#2b4c60;}.r{fill:#f6ba99;}.s{fill:#ffcd8d;}.t{fill:#ffc84c;}.v{fill:#f3f0eb;}.w{fill:#f2957e;}.x{opacity:0.35;}.z{fill:#fff1c8;}.aa{fill:none;stroke:#fff1c8;stroke-miterlimit:10;stroke-width:0.05px;}.ab{fill:url(#a);}.ac{fill:#b4cce9;}.ad{fill:#936024;}.ae{fill:rgba(0,0,0,0.1);}.af{fill:#afb9c5;}.ag{fill:#c5cfd6;}</style><linearGradient id="a" x1="-0.139" y1="1.176" x2="0.796" y2="0.22" gradientUnits="objectBoundingBox"><stop offset="0" stop-color="#fff"/><stop offset="1" stop-color="#fff" stop-opacity="0"/></linearGradient></defs><g transform="translate(-676 -260.911)"><g transform="translate(676 260.911)"><path class="a" d="M0,90.148a10.5,10.5,0,0,0,.481,1.923A4.058,4.058,0,0,1,0,90.148Zm3.85-16.12a40.1,40.1,0,0,1,8.318-11.282c-.671-2.413-7.2-6.182-3.072-8.177,2.192-1.055,4.27.992,4.628,3.064a8.6,8.6,0,0,1-.925,4.5q1.582-1.5,3.27-2.9C17.62,57.95,19.2,56.7,20.8,55.476c-2.4-2.473-4.426-9.291-.99-10.211,5.074-1.353,2.188,7.654,1.75,9.348a.273.273,0,0,1-.228-.1c.019.158.043.328.074.5,3.058-2.338,6.157-4.624,9.164-7.024a13.048,13.048,0,0,1-.925-1.349,14.581,14.581,0,0,1-1.79-2.889c-.721-1.646-1.363-4.244.823-5.076,2.378-.908,3.328,2.043,3.253,3.77a22.7,22.7,0,0,1-.674,3.473c-.073.362.046,2.018-.419,1.284a3.518,3.518,0,0,1-.016.584q.81-.65,1.609-1.313a.617.617,0,0,1-.034-.2.6.6,0,0,1,.893-.517q1.056-.894,2.089-1.817c1.456-1.308,2.934-2.655,4.4-4.032-.289-.273-.15-.622-.418-.909s-.816-.466-1.134-.736a7.954,7.954,0,0,1-1.9-2.58c-.747-1.55-1.647-4.767.8-5.36,2.528-.612,3.63,2.5,3.689,4.408a48.085,48.085,0,0,1-.721,4.872c2.721-2.56,5.4-5.224,7.852-7.948-.7-.042-2.6-1.557-2.975-1.963-.924-.99-2.363-3.147-.6-4.157,1.57-.9,3.367.613,3.943,2.018a19.048,19.048,0,0,1,.339,3.3c1.015-1.157,1.986-2.323,2.894-3.5q.908-1.169,1.712-2.405a1.126,1.126,0,0,1-.318-.344c-2.51-.556-5.532-4.633-2.485-5.839,1.45-.573,2.916.842,3.551,1.97A14.423,14.423,0,0,1,54.471,23a46.669,46.669,0,0,0,3.788-8.662.549.549,0,0,1-.4-.53,7.519,7.519,0,0,1-2.921-2.763c-.489-.856-1.349-2.8.241-3.176,2.07-.492,3.188,2.655,3.275,4.181.01.177-.018.69-.049,1.159a.7.7,0,0,1,.212.015c.568-1.864,1.043-3.758,1.442-5.658-1.094-.412-.98-6.2-.2-6.989,1.754-1.758,2.781.966,2.619,2.369a9.26,9.26,0,0,1-2.009,4.417c-.1.137-.076.132-.091-.067a.392.392,0,0,1-.108.217,24.839,24.839,0,0,1-.041,2.546,58.346,58.346,0,0,1-1.115,6.585q-.181.79-.4,1.565a13.043,13.043,0,0,1,2.659-1.5c1.254-.479,3.172-.968,4.34.015a2.014,2.014,0,0,1,.073,3.035c-1.039,1.035-2.829.9-4.162.727-.6-.079-3.821-.5-3.027-.987a2.658,2.658,0,0,0-.322.132q-.127.378-.263.754c.019.012.034.025.054.037-.021-.011-.036-.022-.055-.033a29.275,29.275,0,0,1-3.715,7.05,7.054,7.054,0,0,1,1.7-.356c1.7-.123,5.176,1.357,3.172,3.48-1.921,2.035-4.616-.4-6.651-.817a95.466,95.466,0,0,1-6.906,7.593.546.546,0,0,1,.321.294,13.61,13.61,0,0,1,2.808-1.163c1.246-.194,3.781-.22,4.655.92,1.074,1.4-.211,2.428-1.578,2.615-1.982.271-4.5-.811-6.356-1.55a.626.626,0,0,1-.582-.226l-.122-.046c-2.463,2.413-5.012,4.738-7.542,7.01h.078a6.579,6.579,0,0,1,2.077-.81,5.592,5.592,0,0,1,5,1.06c1.3,1.273,1.671,3.4.19,4.677-2.966,2.556-6.8-3.821-8.21-4.152-2.57,2.283-5.272,4.4-8.013,6.47a4.686,4.686,0,0,1,.929-.138c2.585-.11,8.459,3.323,5.139,6.23-2.893,2.532-5.8-2.782-7.927-4.7-2.581,1.928-5.175,3.841-7.7,5.837a7.111,7.111,0,0,1,4,.233c1.439.514,3.739,1.728,2.712,3.632-1.045,1.936-3.829.886-5.271.179a40.008,40.008,0,0,0-3.728-2.192A48.21,48.21,0,0,0,6.114,73.252,41.834,41.834,0,0,0,2.007,82.3C1.36,84.318.118,87.7.19,90.369-.54,84.99,1.627,78.687,3.85,74.028ZM60.261,10.123c.21,0,1-2.135,1.249-2.45a7.123,7.123,0,0,1,2.818-2.041c1.731-.748,3.929.34,2.875,2.5-.842,1.725-3.122,2.072-5.1,2.071C61.433,10.2,60.794,10.163,60.261,10.123Z" transform="translate(36.61 3.531) rotate(-3)"/><g class="b" transform="translate(422.303 87.881)"><path class="c" d="M13.035.02c6.568.348,14.247,5.007,14.2,12.175-.036,5.208-.733,10.332-.49,15.561a41.876,41.876,0,0,0,2.518,12.2c1.359,3.786,4.641,7.232,5.174,11.18A16.588,16.588,0,0,1,33,59.383c-1.309,2.812-.752,2.637.988,5.295a66.792,66.792,0,0,1,8.3,16.488c2.722,8.629,4.061,18.521,1.78,27.413-.29,1.129-.924,5.224-2.535,5.346-1.8.136-.726-2.131-.552-2.882,1.111-4.789,2.09-8.974,1.884-13.978-.8-19.307-13.134-33.269-20.327-50.34-.4-.884-1.225-2.974-1.8-4.356-.916-2.183-1.641-6.23-3.013-7.921-2.584-3.187-.539,2.889-.093,4.054.564,1.474,1.19,3.044,1.79,4.347,2.738,6.036,5.808,12.632,8.637,18.855C12.806,63.529,4.2,44.533,1.434,32.349-.841,22.31-2.4-.764,13.035.02" transform="matrix(0.995, -0.105, 0.105, 0.995, 0, 56.808)"/><path class="d" d="M48.984.058C38,.929,30.953,8.168,27.671,18.293,25.9,23.75,25.7,29.355,24.717,34.963,23.238,43.4,20.057,49.793,13.84,55.8a20.976,20.976,0,0,0-4.354,5.818A24.779,24.779,0,0,0,4.46,68.8c-1.636,3.607-2.1,7.935-.21,11.532a11.823,11.823,0,0,0,3.088,3.789A74.207,74.207,0,0,0,.023,117.476c.184,6.907.522,13.816.915,20.714.106,1.852.71,4.911,1.617,1.8.83-2.841-.211-7.3-.307-10.27-.469-14.46-.869-27.607,5.089-41.117q.937-2.124,1.977-4.214a1.4,1.4,0,0,0,.116-.079c.026.02.05.042.076.062.044-.079.1-.172.175-.276a3.727,3.727,0,0,0,.535-.749,5.433,5.433,0,0,0,1.13-2.062s0-.009,0-.013A194.665,194.665,0,0,1,23.572,64c-.032.04,4.68-6.37,3.952-2.825-.351,1.709-3.818,4.962-5.218,6.772a168.706,168.706,0,0,0-9.756,14.06,7.1,7.1,0,0,0-1.4,2.234c-.229.433-.443.869-.654,1.249,10.709,3.535,19.039-3.585,24.719-11.867l.019-.03a36,36,0,0,1,5.711-6.37c3.691-3.018,7.643-3.551,11.995-5.037,11.867-4.051,16.912-19.416,18.515-30.817C73.266,18.513,64.423-1.21,48.984.058" transform="translate(52.024 37.309)"/><path class="d" d="M47.177,1.1C34.386,11.133,26.732,26.472,20.335,41c-7.144,16.231-12.705,32.95-15.3,50.5-1.7,11.534-3.649,23.106-4.595,34.732a123.8,123.8,0,0,0-.424,12.432c.007.34.189,9.591,1.876,7.678.959-1.088-.171-9.593-.152-10.981a177.738,177.738,0,0,1,2.106-23.309C5.718,99.338,7.123,86.616,10.2,74.111a43.314,43.314,0,0,1,1.6-5.625c.755-1.9.025-1.129,1.692-1.69,1.62-.546,3.475-.174,5.179-.9,6.759-2.9,11.307-12.143,14.681-18.154a122.95,122.95,0,0,0,9.125-21.847A161.4,161.4,0,0,0,47,9.285a44.425,44.425,0,0,1,1.254-5.368,12.406,12.406,0,0,0,.8-1.662c.089-.9-.377-1.5-.315-2.254q-.789.532-1.556,1.1" transform="translate(32.445 6.827) rotate(-8)"/><path class="d" d="M0,0A35.107,35.107,0,0,0,35.124,35.091,35.107,35.107,0,0,0,70.248,0" transform="translate(17.863 157.484)"/><path class="c" d="M36.8,43.744a5.4,5.4,0,0,1-3.681-1.292,7.379,7.379,0,0,1-1.983-3.185,27.41,27.41,0,0,1-1.045-7.908c-.147-5.5-.713-11.239-5.755-15.6-.594-.513-1.227-1-1.839-1.473-.546-.421-1.111-.856-1.646-1.308l-.256-.215c-1.718-1.442-3.495-2.934-3.713-5.293a3.67,3.67,0,0,1,.628-2.864,2.721,2.721,0,0,1,2.128-.755,8.76,8.76,0,0,1,1.808.221c.095.02.35.117.7.251a13.821,13.821,0,0,0,3.6,1.021c.277,0,.458-.062.54-.185a.536.536,0,0,0-.024-.5c-.208-.5-.921-.938-2.12-1.308-2.412-.262-4.689-.5-6.045-.5a4.493,4.493,0,0,0-.877.062C12.725,3.9,9.046,7.278,6.283,12.954A49.115,49.115,0,0,0,2.139,27.993c-.1.871-.2,1.814-.283,2.884H0a62.512,62.512,0,0,1,.688-6.949A44.576,44.576,0,0,1,5.595,9.589a21.283,21.283,0,0,1,4.794-5.828A13.336,13.336,0,0,1,17.043.779,9.858,9.858,0,0,1,18.115.74c.7,0,1.539.027,2.368.075A6.181,6.181,0,0,1,23.109.041C23.476.014,23.853,0,24.228,0A19.073,19.073,0,0,1,30.56,1.159a27.281,27.281,0,0,1,6.048,3.073,31.552,31.552,0,0,1,5.226,4.382A26.486,26.486,0,0,1,45.7,13.7a19.609,19.609,0,0,1,2.412,9.784,31.651,31.651,0,0,1-1.689,10.06,23.024,23.024,0,0,1-3.385,6.647c-1.817,2.333-3.887,3.528-6.153,3.554Z" transform="translate(53.949 126.719)"/></g><g class="e" transform="translate(0 24.802)"><path class="c" d="M31.382,11.27C33.4,8.389,37.156,1.074,40,.045c1.833-.663,1.3,6.195,1.321,7.5a109.505,109.505,0,0,1-1.014,15.1c-1.1,9.047-4.683,17.1-9.6,24.8-2.531,3.962-5.5,7.972-9.612,10.444-1.893,1.138-4.17,1.329-6.039,2.31-2.177,1.142-.991.219-1.972,2.485-1.362,3.146-1.8,7.206-2.429,10.563C7.762,88.667.755,170.141,1.969,185.818c.108,1.39-1.831,1.722-1.928.025-.515-8.995,3.938-71.282,6.185-91.652s4.52-38.366,6.8-45.413c2.765-8.55,7.76-18.832,11.917-26.805A94.793,94.793,0,0,1,31.382,11.27Z" transform="translate(54.37 42.302)"/><path class="f" d="M48.314,1.095c5.261-3.859,10.956,3.424,6.2,7.284a4.772,4.772,0,0,1-6.933-.4C46.571,9.2,45.63,10.48,44.726,11.562c-2.755,3.3-5.36,6.67-7.849,10.123-5.17,7.174-9.6,14.752-14.234,22.192C18.071,51.221,13.536,58.6,9.392,66.13,5.881,72.509,1.2,80.013,0,87.007,1.824,72.175,8.743,57.92,16.984,44.845c8.173-12.968,17.553-27.13,30.208-37.363A4.475,4.475,0,0,1,48.314,1.095Z" transform="translate(52.445 152.382)"/><path class="c" d="M.921.015C3.865.59,8.676,7.244,11.1,9.78a94.981,94.981,0,0,1,7.968,9.589,162.15,162.15,0,0,1,14.1,22.972A213.4,213.4,0,0,1,48.853,83.122a168.088,168.088,0,0,1,4.759,26.75c.17,1.694,1.947,14.752-.614,15.1-2.3.317-1.592-9.915-1.7-11.307a180.622,180.622,0,0,0-10.253-45.78c-1.14-3.224-2.2-7.173-4.023-10.074-1.313-2.09-.009-1.361-2.317-2.152-1.981-.68-4.239-.513-6.268-1.345C24.026,52.51,20.5,49,17.4,45.478,11.392,38.625,6.627,31.211,4.144,22.43A110.882,110.882,0,0,1,.8,7.644C.616,6.347-.976-.356.921.015Z" transform="translate(0 117.291)"/><path class="d" d="M6.766,6.593A266.427,266.427,0,0,1,32.854,68.3c3.565,12.953,6.059,26.245,8.536,39.442,3.836,20.432,7.464,40.863,8.5,61.659,1.038,20.916,3.092,45.04-3.764,65.185,3.424-20.453.164-42.224-.413-62.8-.276-9.825-1.075-19.553-2.124-29.32-1.018-9.475-2.68-18.9-4.228-28.3q-1.131-6.867-2.352-13.718c-.241-1.363-.342-5.408-1.208-6.339s-5.315-1.319-6.711-2.007A36.027,36.027,0,0,1,21.3,86.658,62.19,62.19,0,0,1,9.833,72.332C2.709,60.455-.139,45.96.005,32.2.033,29.533,4.332.774,2.605.378Q2.761.2,2.9,0,4.861,3.28,6.766,6.593Z" transform="translate(5.774)"/><path class="d" d="M79.316,1.869c.171-.247,1.285-1.962.724-1.852,1.142-.223-1.571,1.891,1.275.594-1.351,1.275-.571,2.93-.553,4.646A41.57,41.57,0,0,1,79.8,13.53a56.7,56.7,0,0,1-3.86,12.5,56.043,56.043,0,0,1-18.433,22.6c-3.891,2.7-7.705,3.613-12.144,4.854-2.8.784-3.026,2.233-4.514,4.951-3.1,5.661-6.141,11.3-8.873,17.153-3.262,6.987-6.429,13.983-9.417,21.093C12.5,120.635,4.3,145.449,0,171.129-.1,156,3.4,140.41,7.821,125.986A269.279,269.279,0,0,1,19.7,95.318c1.083-2.429,2.725-5.554,3.185-8.237.322-1.879-.663-3.687-1.114-5.666a59.238,59.238,0,0,1-.088-24.1c1.7-8.546,6.624-12.513,14.951-13.723,3.045-.443,6.916-.281,9.708-1.578,3.042-1.413,4.3-6.056,6.027-9.037A122.9,122.9,0,0,1,68.879,10.549,53.526,53.526,0,0,1,74.524,5.36C75.787,4.352,78.455,3.11,79.316,1.869Z" transform="translate(52.926 74.028)"/><path class="f" d="M.817,2.754A2.4,2.4,0,0,1,3.2,0H32.747a2.4,2.4,0,0,1,2.38,2.754L32.843,18.227a9.62,9.62,0,0,1-9.52,8.211h-10.7A9.62,9.62,0,0,1,3.1,18.227Z" transform="translate(35.676 228.813)"/></g><g transform="translate(4.811 238.233)"><path class="g" d="M0,0C0,10.233.808,18.528,11.657,18.528S23.314,10.233,23.314,0" transform="translate(7.418 23.293)"/><path class="g" d="M22.3,16.908a21.415,21.415,0,0,0-1.065,2.1,28.692,28.692,0,0,1,.291-4.436c.378-2.562.956-5.11,1.5-7.655.39-1.829.366-5.113,1.847-6.57.406-.315.5.3.5.571.005.057,0-1.094-.4-.894-2.343,1.209-3.1,5.011-3.853,6.915a36.61,36.61,0,0,0-2.41,8.51,19.046,19.046,0,0,0-.162,2.189c-.08-.195-.154-.391-.237-.586a39.515,39.515,0,0,0-5.455-9.114c-.56-.7-7.606-7.626-8.158-6.566a.731.731,0,0,0,.342.383c.01.012.01.005,0-.012.414.668,1.59,1.7,1.957,2.285A44.187,44.187,0,0,1,9.38,8.6c1.539,3.24,2.967,6.512,4.351,9.791.322.764.658,1.523,1,2.28A33.359,33.359,0,0,0,0,8.31c2.216,1.126,3.668,3.245,5.165,4.867,1.8,1.957,3.705,3.861,5.514,5.815,2.133,2.306,4.642,4.734,6.693,7.285A76.8,76.8,0,0,1,22.481,39c-.488-1.514-.038-3.605-.122-5.194a35.059,35.059,0,0,0-.417-3.77,7.736,7.736,0,0,1,.564,1.655c-.089-.881-.192-1.757-.3-2.629.284-.816.562-1.577.751-2.2A56.593,56.593,0,0,1,26.631,17.4a84.421,84.421,0,0,1,4.916-8.392c.844-1.272,1.7-2.539,2.549-3.808A20.057,20.057,0,0,1,35.958,2.24C30.95,6.813,25.48,11.42,22.3,16.908" transform="translate(0)"/></g></g><g transform="translate(660.091 250.604)"><path class="h" d="M257.213,225.931,264,234.667s-9.1,10.134-6.06,9.186,19.78-14.4,19.78-14.4-8.075-10.839-7.94-10.917Z" transform="translate(21.519 35.938)"/><path class="i" d="M252.947,172.065l28.664,60.411L263.4,242.727l-29.781-54.1,1.877-17.81Z" transform="translate(15.834 24.438)"/><g class="j" transform="translate(265.419 201.071)"><path class="k" d="M276.322,232.578a2.64,2.64,0,0,1-.334-.567q-.305-.6-.849-1.673l-1.366-2.633-1.839-3.475-10.8-20.042c-4.223-7.828-8.006-14.938-10.648-20.136-.65-1.3-1.238-2.481-1.758-3.519-.494-1.041-.922-1.941-1.276-2.685-.336-.743-.58-1.329-.745-1.725a2.548,2.548,0,0,1-.22-.619,2.786,2.786,0,0,1,.333.568c.2.4.488.962.849,1.672l1.366,2.633,1.839,3.475,10.8,20.044c4.221,7.827,8,14.935,10.644,20.133.65,1.3,1.24,2.481,1.76,3.519.494,1.041.922,1.941,1.276,2.685.336.743.581,1.329.746,1.725A2.725,2.725,0,0,1,276.322,232.578Z" transform="translate(-246.485 -175.503)"/></g><path class="l" d="M245.706,214.808l1.3,2.37,5.233-41.624-1.287-2.732-4.783-.14L244.3,192.335Z" transform="translate(18.408 24.889)"/><g transform="translate(287.941 213.992)"><g transform="translate(0 0)"><path class="m" d="M308.977,187.008l21.43,73.558h2.45L316.413,186.76Z" transform="translate(-253.948 -185.711)"/><path class="m" d="M280.95,187.257l-16.316,71.954h2.895l21.838-71.976Z" transform="translate(-264.634 -185.597)"/><path class="m" d="M293.167,185.915l2.5,73.615h3.423l1.5-73.331Z" transform="translate(-257.758 -185.915)"/><path class="m" d="M277.885,211.026l48.935-1.533.324,5.067-52.931,2.03Z" transform="translate(-262.325 -180.233)"/><path class="n" d="M277.905,187.235l-.75,3.723h8.1l1.011-3.723Z" transform="translate(-261.616 -185.597)"/><path class="n" d="M293.193,187.48l.121,3.582H300.5l.087-4.26Z" transform="translate(-257.752 -185.701)"/><path class="n" d="M294.783,209.989l.179,5.269h-3.115l-1.211-5.139,4.972-.13" transform="translate(-258.368 -180.114)"/><path class="n" d="M299.06,210.073v5.235l2.362-.09.685-5.24Z" transform="translate(-256.338 -180.116)"/></g><path class="n" d="M308.977,186.165l.766,2.629h7.311l-.641-2.878Z" transform="translate(-253.948 -185.914)"/></g><path class="o" d="M264.408,202.788c6.959-3.411,35.083-1.574,35.083-1.574s-7.941-98.581,2.326-99.371,33.525-8.182,37.718,6.726c4.408,15.666-1.551,99.421-7.435,98.61-13.417-1.852-54.8,2.941-67.256.007C261.633,206.431,264.408,202.788,264.408,202.788Z" transform="translate(22.985 7.21)"/><g class="p" transform="translate(349.605 117.481)"><path class="q" d="M318.393,108.145c.043-.025.241.246.58.787.177.268.36.617.575,1.031s.444.9.688,1.461a34.768,34.768,0,0,1,2.425,9.966,125.064,125.064,0,0,1,.412,15.157c-.1,5.7-.443,11.954-.953,18.5s-1.148,12.773-1.74,18.428-1.159,10.763-1.956,15.013a64.394,64.394,0,0,1-2.565,9.9,14.454,14.454,0,0,1-1.518,3.433,26.319,26.319,0,0,1,.983-3.6,83.785,83.785,0,0,0,2.1-9.9c.66-4.228,1.126-9.31,1.638-14.974s1.106-11.88,1.624-18.411.893-12.756,1.064-18.423a144.263,144.263,0,0,0-.1-15.027,39.037,39.037,0,0,0-1.933-9.862C318.922,109.379,318.285,108.2,318.393,108.145Z" transform="translate(-314.324 -108.144)"/></g><path class="r" d="M238.058,138.318,235.5,136.95a26.645,26.645,0,0,1-4.337-2.219,7.885,7.885,0,0,1-1.854-1.579,11.892,11.892,0,0,1-1.761-2.463c-.357-.85-1.526-.92-1.706-.148s.75,3.131,2.9,5.242-2.383,1.478-4.036,1.277-6.774-.586-7.191-.132c-.612.668.056,1.514,1.708,1.677,1.673.165,6.606,1,6.539,1.859s-8.478-.292-8.478-.292-1.787-.531-1.9.458c-.2,1.782,8.771,2.34,9.624,2.373a.454.454,0,1,1-.084.9c-.658-.06-8.383-1.329-8.6.483-.17,1.39,7.381.527,8.92,1.67s-5.847.063-5.954,1.4c-.041.5,0,.882,4.275.9,4.377.014,16.062-1.884,16.062-1.884l-1.691-8.28" transform="translate(11.44 14.605)"/><g transform="translate(243.572 117.826)"><path class="s" d="M292.425,108.422s-22.016,29.576-27.067,30.9-33.91,3.053-33.91,3.053l-2.569,12.5s36.944,1.951,45.078-4.054c12.784-9.438,26.215-31.146,26.215-31.146C300.512,112.511,297.779,108.936,292.425,108.422Z" transform="translate(-228.88 -108.422)"/></g><path class="h" d="M233.6,233.212l1.4,10.974s-12.989,4.1-9.891,4.825,24.353-2.332,24.353-2.332-1.437-13.438-1.281-13.438Z" transform="translate(13.668 39.474)"/><path class="i" d="M308.625,152.985s12.264,26.209-11.918,35.205l-12.9-28.045Z" transform="translate(27.927 20.142)"/><path class="t" d="M305.941,160.435s-69.808-19.172-77.652-3.075,1.49,99.928,1.49,99.928l21.85-2.3s-3.635-73.609,0-76.2,53.931,10.123,59.212,9.893C323.693,188.127,332.784,164.149,305.941,160.435Z" transform="translate(13.793 19.646)"/><path class="s" d="M296.488,102.1a17.428,17.428,0,0,0-17.045,16.613c-.351,7.616.4,18.071-1.678,27.249-1.071,4.724-7.237,23.784-7.237,23.784l6.194,1.035a67.5,67.5,0,0,0,28.764-1.425l7.045-1.907s4.062-21.191,6.362-41.085c1.922-16.625-1.248-23.078-11.329-24.5Z" transform="translate(24.728 7.824)"/><path class="r" d="M288.859,110.953c.31-1.61-.2-8.4-.2-8.4s-6.175-.783-6.423-6.928.421-20.294.421-20.294l11.388-5.277L306.246,79.7l1.124,6.77-2.832,8.046L303.273,109.9Z" transform="translate(27.535 0.158)"/><g transform="translate(320.263 83.961)"><path class="u" d="M291.694,82.117a.621.621,0,1,0,.859.179A.62.62,0,0,0,291.694,82.117Z" transform="translate(-290.503 -80.92)"/><path class="u" d="M290.693,82.051c.1.1.69-.377,1.536-.406s1.473.392,1.564.282c.045-.05-.056-.24-.33-.436a2.085,2.085,0,0,0-2.474.1C290.73,81.808,290.644,82.005,290.693,82.051Z" transform="translate(-290.68 -81.133)"/></g><g transform="translate(310.081 83.961)"><path class="u" d="M283.489,82.117a.621.621,0,1,0,.859.179A.62.62,0,0,0,283.489,82.117Z" transform="translate(-282.298 -80.92)"/><path class="u" d="M282.487,82.051c.1.1.69-.377,1.536-.406s1.473.392,1.564.282c.045-.05-.056-.24-.33-.436a2.085,2.085,0,0,0-2.474.1C282.525,81.808,282.439,82.005,282.487,82.051Z" transform="translate(-282.475 -81.133)"/></g><g transform="translate(314.503 84.858)"><path class="u" d="M288.172,89.231a6.783,6.783,0,0,1-1.394.02,1.407,1.407,0,0,1-.361-.042.5.5,0,0,1-.339-.3,1.347,1.347,0,0,1,.1-.867c.186-.55.385-1.134.593-1.749.428-1.238.831-2.355,1.135-3.158a6.658,6.658,0,0,1,.551-1.279,6.742,6.742,0,0,1-.357,1.346c-.257.82-.629,1.947-1.057,3.186-.215.612-.421,1.194-.613,1.741a1.207,1.207,0,0,0-.133.7c.051.175.275.207.489.222A6.721,6.721,0,0,1,288.172,89.231Z" transform="translate(-286.038 -81.856)"/></g><path class="v" d="M290.8,88.509c.867-.55-2.393,1.359-4.119,1.323a2.341,2.341,0,0,0,2.787.855C291.286,89.961,290.8,88.509,290.8,88.509Z" transform="translate(28.619 4.582)"/><path class="w" d="M287.4,96.74a15.321,15.321,0,0,0,8.19-2.577s-1.937,4.469-8.087,4.087Z" transform="translate(28.793 5.968)"/><path class="r" d="M280.307,154.111l-2.9-.17a26.574,26.574,0,0,1-4.867-.2,7.864,7.864,0,0,1-2.345-.654,11.95,11.95,0,0,1-2.632-1.5c-.68-.622-1.771-.194-1.611.582s1.994,2.528,4.831,3.542-1.543,2.34-3.127,2.852-6.395,2.311-6.583,2.9c-.275.862.686,1.351,2.255.805,1.587-.551,6.413-1.864,6.714-1.056s-7.818,3.294-7.818,3.294-1.844.267-1.53,1.211c.566,1.7,8.944-1.555,9.732-1.884a.454.454,0,1,1,.3.856c-.622.222-8.167,2.311-7.608,4.048.429,1.333,6.922-2.617,8.8-2.226s-5.282,2.512-4.816,3.773c.173.469.371.8,4.257-.98,3.98-1.823,13.79-8.449,13.79-8.449l-5.009-6.805" transform="translate(22.35 19.735)"/><g class="x" transform="translate(311.629 180.284)"><path class="k" d="M302.863,165.879a20.178,20.178,0,0,1-2.689-1.36,55.531,55.531,0,0,0-13.525-5.015,20.371,20.371,0,0,1-2.926-.722,11.529,11.529,0,0,1,3.013.294,40.721,40.721,0,0,1,13.651,5.062A11.509,11.509,0,0,1,302.863,165.879Z" transform="translate(-283.722 -158.752)"/></g><g class="x" transform="translate(324.631 182.617)"><path class="k" d="M303.474,161.494c-.048.179-2.094-.336-4.65-.236-2.556.073-4.562.727-4.623.551-.071-.138,1.925-1.087,4.6-1.169C301.48,160.54,303.535,161.351,303.474,161.494Z" transform="translate(-294.2 -160.632)"/></g><path class="y" d="M283.589,167.795s13.716-3.915,22.442-12.039c6.956-6.474,6.838-12.488,6.838-12.488l3.28-25.179Z" transform="translate(27.875 11.733)"/><g class="j" transform="translate(256.354 190.787)"><path class="k" d="M316.047,181.2a1.961,1.961,0,0,1-.4-.068l-1.158-.261-4.438-1.049c-3.853-.912-9.431-2.22-16.35-3.723s-15.175-3.2-24.381-4.878c-4.6-.843-9.441-1.683-14.467-2.5l-3.8-.608a14.714,14.714,0,0,0-3.816-.232,5.113,5.113,0,0,0-3.307,1.595,8.283,8.283,0,0,0-1.777,3.409,24.372,24.372,0,0,0-.735,3.909q-.248,1.982-.493,3.938-.192,1.96-.38,3.892c-.13,1.287-.2,2.569-.3,3.836-.335,5.076-.5,9.984-.5,14.661,0,9.354.457,17.774.938,24.836s.987,12.77,1.317,16.715c.159,1.967.283,3.5.367,4.546.036.513.062.906.082,1.183a1.9,1.9,0,0,1,.006.406,1.956,1.956,0,0,1-.069-.4q-.05-.413-.141-1.178c-.112-1.047-.274-2.573-.484-4.535-.4-3.939-.966-9.644-1.513-16.706s-1.044-15.491-1.071-24.867c-.022-4.687.132-9.609.46-14.7.1-1.271.163-2.558.292-3.848s.251-2.595.377-3.907q.246-1.962.493-3.951a24.909,24.909,0,0,1,.752-4,8.875,8.875,0,0,1,1.921-3.658,5.742,5.742,0,0,1,1.69-1.241,6.137,6.137,0,0,1,2-.542,15.276,15.276,0,0,1,3.979.24l3.806.614c5.028.825,9.871,1.679,14.475,2.537,9.208,1.713,17.463,3.452,24.371,5.012s12.475,2.931,16.313,3.915c1.92.488,3.405.887,4.412,1.162.5.138.875.244,1.142.32A2.069,2.069,0,0,1,316.047,181.2Z" transform="translate(-239.18 -167.216)"/></g><g class="j" transform="translate(262.71 195.578)"><path class="k" d="M247.213,173.754c-.114.127-1.21-.686-2.447-1.814l-.447-.417.424-.429c.921,1.03,1.539,1.874,1.43,1.976s-.908-.572-1.871-1.564l.424-.429.455.407C246.419,172.611,247.329,173.629,247.213,173.754Z" transform="translate(-244.302 -171.076)"/></g><g class="j" transform="translate(264.781 192.889)"><path class="k" d="M247.17,174.286a12.366,12.366,0,0,1-1.123-5.376,12.365,12.365,0,0,1,1.123,5.376Z" transform="translate(-245.97 -168.909)"/></g><path class="s" d="M305.376,103.826s-2.615,36.779-6.159,40.611-26.925,20.84-26.925,20.84l4.57,11.916s32.175-18.258,35.793-27.7c4.373-11.411,5.16-29.14,5.29-36.723a10.353,10.353,0,0,0-3.769-8.322C311.512,102.332,308.568,102.193,305.376,103.826Z" transform="translate(25.153 8.029)"/><g class="p" transform="translate(319.591 208.075)"><path class="q" d="M318.962,184.114c-.082.41-6.475-.6-14.408-1.23-7.931-.663-14.4-.71-14.416-1.127-.022-.377,6.5-.979,14.534-.31C312.7,182.091,319.045,183.746,318.962,184.114Z" transform="translate(-290.138 -181.147)"/></g><g class="p" transform="translate(344.69 144.19)"><path class="q" d="M311.654,131.849c-.065.051-.3-.027-.4-.427a1.465,1.465,0,0,1,.664-1.423,1.707,1.707,0,0,1,1.168-.324,1.781,1.781,0,0,1,.678.228,1.978,1.978,0,0,1,.55.457,2.868,2.868,0,0,1,.453,2.775,2.9,2.9,0,0,1-2.065,1.895,2.122,2.122,0,0,1-.7.027,1.849,1.849,0,0,1-.67-.216,1.954,1.954,0,0,1-.777-.851,1.552,1.552,0,0,1,.035-1.544c.236-.313.468-.324.519-.256.068.081,0,.248,0,.469a1.235,1.235,0,0,0,.32.807,1.033,1.033,0,0,0,.433.3.723.723,0,0,0,.237.024.944.944,0,0,0,.292-.055,1.788,1.788,0,0,0,1.02-1.087,1.755,1.755,0,0,0-.134-1.466.647.647,0,0,0-.838-.31,1.093,1.093,0,0,0-.622.545C311.724,131.608,311.743,131.793,311.654,131.849Z" transform="translate(-310.363 -129.667)"/></g><g transform="translate(300.026 123.49)"><path class="z" d="M303.615,112.986a8.376,8.376,0,0,1,.139,2.38c0,1.53-.045,3.744-.235,6.48a61.015,61.015,0,0,1-1.366,9.563,34.4,34.4,0,0,1-4.508,11.009,37.255,37.255,0,0,1-8.213,8.6c-2.868,2.247-5.586,4.046-7.829,5.592-4.522,3.043-7.1,5.2-7.227,5.064a7.882,7.882,0,0,1,1.647-1.731c1.129-1.04,2.859-2.435,5.048-4.077s4.841-3.518,7.616-5.777a38.139,38.139,0,0,0,7.876-8.38A34.982,34.982,0,0,0,301,131.129a70.805,70.805,0,0,0,1.613-9.367C303.193,116.355,303.412,112.974,303.615,112.986Z" transform="translate(-274.372 -112.986)"/></g><path class="z" d="M291.938,105.121l.482-5.46,8.923-1.647,2.677,5.835Z" transform="translate(29.887 6.896)"/><path class="z" d="M287.578,99l3.515.662v5.46l-4.45-.907,1.079-6.2" transform="translate(28.611 6.896)"/><path class="aa" d="M293.865,102.753a269.425,269.425,0,0,1-13.415,55.811" transform="translate(27.119 8.038)"/><path class="aa" d="M279.184,119.437a70.614,70.614,0,0,1-2.1,17.032" transform="translate(26.307 12.058)"/><path class="z" d="M228.88,148.341l2.569-12.5,4.924-.314-2.729,13.117Z" transform="translate(14.692 15.935)"/><path class="z" d="M276.952,165.6l-5.035-13.037,4.7-1.737,4.244,12.482Z" transform="translate(25.063 19.622)"/><g transform="translate(167.91 170.145)"><g transform="translate(0 0)"><rect class="m" width="224.858" height="7.366"/><path class="m" d="M185.5,156.517,167.91,267.109l8.793.161L206.88,156.517Z" transform="translate(-167.91 -149.151)"/><path class="m" d="M340.04,156.2l10.247,114.1h-8.223L319.948,160.937l-1.157-8.146L340.04,156.2" transform="translate(-131.552 -150.049)"/><path class="n" d="M319.32,156.517l.817,5.089,20.274-.755-.389-4.335Z" transform="translate(-131.424 -149.151)"/><path class="n" d="M182.242,156.517l-.829,5.211,20.952-.582,1.261-4.63Z" transform="translate(-164.656 -149.151)"/></g></g><g transform="translate(201.586 98.227)"><path class="ab" d="M195.218,123.531l84.594-32.9,44.134,1.559-.621,31.343L271.757,162.14l-28.934-1.154Z" transform="translate(-195.005 -90.629)"/><path class="ac" d="M195.047,117.609l14.007,40.93h63.423l-.468-2.108-25.646-.793-11.815-38.051Z" transform="translate(-195.047 -86.614)"/><path class="v" d="M218.635,134.058c.419,1.678-.3,3.32-1.6,3.67s-2.7-.728-3.121-2.4.3-3.32,1.6-3.668S218.217,132.381,218.635,134.058Z" transform="translate(-190.53 -83.241)"/></g><g transform="translate(348.603 129.336)"><path class="d" d="M316.8,145.876c-1.859-6.4-2.726-15.374-3.214-22.019a9.062,9.062,0,0,1,.307-3.89,2.935,2.935,0,0,1,5.542-.524,9.757,9.757,0,0,1,.989,3.131q1.8,9.244,3.609,18.489a22.506,22.506,0,0,1,4.476-5.887c.807-.761,1.976-1.5,2.945-.962.874.485.975,1.682.939,2.68a49.522,49.522,0,0,1-1.157,8.981" transform="translate(-313.516 -117.697)"/><path class="c" d="M314.138,139.89s-3.171,12.549,9.645,13.126c11.792.53,8.956-13.126,8.956-13.126Z" transform="translate(-313.45 -112.349)"/></g><g transform="translate(317.049 80.541)"><path class="u" d="M295.4,79.04a1.235,1.235,0,0,1,.279.138,3.877,3.877,0,0,1,.728.52,4.833,4.833,0,0,1,1.57,2.853,4.908,4.908,0,0,1-.161,2.281,4.979,4.979,0,0,1-1.426,2.2,4.966,4.966,0,0,1-2.631,1.217,4.958,4.958,0,0,1-5.191-2.817,4.984,4.984,0,0,1-.413-2.87,4.967,4.967,0,0,1,1.072-2.4,4.905,4.905,0,0,1,5.072-1.616,3.957,3.957,0,0,1,.834.326,1.256,1.256,0,0,1,.267.16c-.015.032-.386-.2-1.128-.377a4.846,4.846,0,0,0-3.137.315,4.735,4.735,0,0,0-2.716,3.627,4.744,4.744,0,0,0,.406,2.71,4.7,4.7,0,0,0,4.9,2.658,4.733,4.733,0,0,0,2.493-1.137,4.739,4.739,0,0,0,1.562-4.254,4.84,4.84,0,0,0-1.446-2.8C295.77,79.257,295.377,79.069,295.4,79.04Z" transform="translate(-288.09 -78.377)"/></g><g transform="translate(305.491 80.19)"><path class="u" d="M283.92,78.121a1.228,1.228,0,0,1,.311,0,3.886,3.886,0,0,1,.884.141,4.831,4.831,0,0,1,2.679,1.853,4.9,4.9,0,0,1,.874,2.112,4.984,4.984,0,0,1-.293,2.61,4.977,4.977,0,0,1-1.811,2.262,4.959,4.959,0,0,1-5.9-.2,4.983,4.983,0,0,1-1.651-2.383,4.986,4.986,0,0,1-.11-2.623,4.895,4.895,0,0,1,1.018-2.048,4.829,4.829,0,0,1,2.8-1.662,3.83,3.83,0,0,1,.891-.079,1.193,1.193,0,0,1,.31.024c0,.035-.432,0-1.178.165a4.844,4.844,0,0,0-2.667,1.682,4.744,4.744,0,0,0-.812,4.46,4.73,4.73,0,0,0,1.572,2.244,4.7,4.7,0,0,0,5.568.192,4.744,4.744,0,0,0,1.725-2.128,4.745,4.745,0,0,0-.5-4.5,4.836,4.836,0,0,0-2.544-1.863C284.353,78.148,283.916,78.156,283.92,78.121Z" transform="translate(-278.776 -78.095)"/></g><g transform="translate(315.188 85.515)"><path class="u" d="M286.59,82.5c0-.079.475-.128,1.054-.107s1.046.1,1.042.18-.474.128-1.052.108S286.588,82.576,286.59,82.5Z" transform="translate(-286.59 -82.385)"/></g><g transform="translate(326.68 85.945)"><path class="u" d="M295.85,82.813a21.905,21.905,0,0,1,5.012.174,21.9,21.9,0,0,1-5.012-.174Z" transform="translate(-295.85 -82.731)"/></g><path class="ad" d="M304.111,95.745c3.3-3.578,3.593-8.834,3.651-13.7.027-2.342-.086-4.8-1.277-6.814a11,11,0,0,0-5.335-4.171,18.129,18.129,0,0,0-10.327-1.417,12.147,12.147,0,0,0-8.452,5.769s15.992-.318,17.047.307,4.348,2.936,4.082,5.785-1.068,7.061-1.068,7.061l2.581-.386s-.189-3.892.89-3.749S304.111,95.745,304.111,95.745Z" transform="translate(27.581)"/><path class="r" d="M300.48,86.268a1.086,1.086,0,0,0,1.078.723,2.224,2.224,0,0,0,1.272-.526,3.741,3.741,0,0,0,1.5-2.429,2.567,2.567,0,0,0-1.149-2.519,1.969,1.969,0,0,0-2.586.568Z" transform="translate(31.945 2.859)"/></g><g transform="translate(1015.811 339.705)"><circle class="g" cx="39" cy="39" r="39" transform="translate(37.189 -58.705)"/><ellipse class="ae" cx="2" cy="2.5" rx="2" ry="2.5" transform="translate(74.189 -53.705)"/><ellipse class="ae" cx="2.5" cy="2" rx="2.5" ry="2" transform="translate(42.189 -21.705)"/><ellipse class="ae" cx="1.5" cy="2" rx="1.5" ry="2" transform="translate(105.189 -21.705)"/><ellipse class="ae" cx="2" cy="1.5" rx="2" ry="1.5" transform="translate(74.189 9.295)"/><path class="af" d="M1.479,0,2.957,25.889H0Z" transform="translate(74.635 -46.536)"/><path class="af" d="M1.483,0,2.958,17.748H0Z" transform="translate(90.248 -7.864) rotate(135)"/><circle class="ag" cx="2.5" cy="2.5" r="2.5" transform="translate(73.189 -22.705)"/></g></g></svg>