<svg xmlns="http://www.w3.org/2000/svg" xmlns:xlink="http://www.w3.org/1999/xlink" width="451.692" height="308.5" viewBox="0 0 451.692 308.5"><defs><style>.a{fill:#e1e5f0;}.b{opacity:0.13;}.c{fill:#f2f2f2;}.d{fill:#fff;}.e{fill:#dde3e9;}.f{fill:#c5cfd6;}.g{fill:#afb9c5;}.h{fill:#ad9380;}.i,.l{fill:#00143a;}.i{opacity:0.15;}.j{fill:#1f3443;}.k{fill:#2b4c60;}.m{opacity:0.23;fill:url(#a);}.n{fill:#f6ba99;}.o{fill:#eab860;}.p{opacity:0.24;}.q{fill:#ffeadc;}.r{fill:#635449;}.s{fill:#f7cc80;opacity:0.92;}.t{fill:#fcd588;}.u{fill:#eeb248;}.v{opacity:0.52;}.w{fill:#f2957e;}.x{fill:#f3f0eb;}.y{fill:#edb758;}.z{fill:#d69a3a;}.aa{fill:#ad5a23;opacity:0.43;}.ab{fill:#b4cce9;}.ac{opacity:0.76;}.ad{fill:#af5b22;}.ae{fill:#c1dee2;}.af{fill:#69a1ac;}.ag{opacity:0.42;}.ah{fill:#d8deed;}.ai{fill:#455a64;}.aj{clip-path:url(#b);}.ak{fill:#89c5cc;}</style><linearGradient id="a" x1="-0.139" y1="1.176" x2="0.796" y2="0.22" gradientUnits="objectBoundingBox"><stop offset="0" stop-color="#fff"/><stop offset="1" stop-color="#fff" stop-opacity="0"/></linearGradient><clipPath id="b"><path class="a" d="M20.2,131.038V100.722a4.175,4.175,0,0,1,4.175-4.175H53.006a4.175,4.175,0,0,1,4.175,4.175v30.317a18.49,18.49,0,0,1-36.979,0ZM46.693,87.4C41.2,82.892,43.8,72.685,46.608,67.533s12.085-4.126,12.085-4.126,2.043-7.925,4.6-11.7l3.19-.635a7.494,7.494,0,0,1,8.758,5.71,13.523,13.523,0,0,1-3.352,6.889l-5.629,6.151s3.414,8.092-2.2,12.075c-5.463,3.879-10.63,6.483-14.24,6.482A4.789,4.789,0,0,1,46.693,87.4ZM12.168,72.528c-4.816-6.077-1.858-18.62-1.858-18.62S4.249,53.039.984,47.984L.077,41.567a7.505,7.505,0,0,1,9.47-8.306l8.081,2.32c8,6.077,4.434,12.4,4.434,12.4s11.634,0,13.567,8.895c2.534,11.653,2.534,21.465-2.339,24.023a11.768,11.768,0,0,1-5.536,1.411C21.527,82.311,15.9,77.239,12.168,72.528ZM43.873,59.592C34.52,58.528,30.016,45.307,29.4,37.561S39.823,24.284,39.823,24.284,36.354,14,36.456,7.973l1.652-3.6A7.467,7.467,0,0,1,50.4,2.414l5.379,5.838c3.258,9.541-2.92,17.732-2.92,17.732s9.644,6.546,6.3,15.008c-4.22,10.688-9.441,18.634-14.7,18.634A5.2,5.2,0,0,1,43.873,59.592Zm31.364-2.806a13.525,13.525,0,0,0,.186-2.235v3.917A7.639,7.639,0,0,0,75.238,56.786Z" transform="translate(0 0)"/></clipPath></defs><g transform="translate(-740.308 -252)"><g class="b" transform="translate(965 252)"><rect class="c" width="227" height="234" rx="8"/><rect class="d" width="48" height="55" rx="8" transform="translate(168 29)"/><g transform="translate(175.256 39.247)"><circle class="e" cx="11" cy="11" r="11" transform="translate(5.744 -0.247)"/><rect class="e" width="34" height="4" rx="2" transform="translate(-0.256 24.753)"/><rect class="e" width="23" height="4" rx="2" transform="translate(5.744 30.753)"/></g><path class="f" d="M8,0H219a8,8,0,0,1,8,8V18a0,0,0,0,1,0,0H0a0,0,0,0,1,0,0V8A8,8,0,0,1,8,0Z"/><g transform="translate(6.09 6.767)"><ellipse class="c" cx="3" cy="2.5" rx="3" ry="2.5" transform="translate(-0.09 0.233)"/><ellipse class="c" cx="3" cy="2.5" rx="3" ry="2.5" transform="translate(7.91 0.233)"/><ellipse class="c" cx="3" cy="2.5" rx="3" ry="2.5" transform="translate(15.91 0.233)"/></g><g transform="translate(168.489 89.32)"><rect class="d" width="48" height="132" rx="8" transform="translate(-0.489 -0.32)"/><g transform="translate(12.18 12.18)"><rect class="e" width="23" height="18" rx="4" transform="translate(0.331 -0.5)"/><rect class="g" width="23" height="16" rx="4" transform="translate(0.331 23.5)"/><rect class="e" width="23" height="17" rx="4" transform="translate(0.331 45.5)"/><rect class="e" width="23" height="17" rx="4" transform="translate(0.331 89.5)"/><rect class="f" width="23" height="17" rx="4" transform="translate(0.331 67.5)"/></g></g><g transform="translate(10.827 29.773)"><rect class="d" width="152" height="32" rx="4" transform="translate(0.173 0.227)"/><g transform="translate(6.09 9.541)"><rect class="e" width="113.003" height="4.77" rx="2.385"/><rect class="e" width="75.851" height="4.77" rx="2.385" transform="translate(0 7.951)"/></g><g transform="translate(131.242 11.165)"><circle class="e" cx="4.737" cy="4.737" r="4.737"/><circle class="c" cx="2.03" cy="2.03" r="2.03" transform="translate(2.707 2.707)"/></g><g transform="translate(0 37.217)"><rect class="d" width="152" height="26" rx="4" transform="translate(0.173 0.01)"/><g transform="translate(6.09 7.917)"><rect class="e" width="113.003" height="3.958" rx="1.979"/><rect class="e" width="75.851" height="3.958" rx="1.979" transform="translate(0 6.597)"/></g><g transform="translate(131.242 8.458)"><circle class="e" cx="4.737" cy="4.737" r="4.737"/><circle class="c" cx="2.03" cy="2.03" r="2.03" transform="translate(2.707 2.707)"/></g></g><g transform="translate(0 69.02)"><rect class="d" width="152" height="26" rx="4" transform="translate(0.173 0.207)"/><g transform="translate(6.09 7.917)"><rect class="e" width="113.003" height="3.958" rx="1.979"/><rect class="e" width="75.851" height="3.958" rx="1.979" transform="translate(0 6.597)"/></g><g transform="translate(131.242 8.458)"><circle class="e" cx="4.737" cy="4.737" r="4.737"/><circle class="g" cx="2.03" cy="2.03" r="2.03" transform="translate(2.707 2.707)"/></g></g><g transform="translate(0 164.429)"><rect class="d" width="152" height="27" rx="4" transform="translate(0.173 -0.203)"/><g transform="translate(6.09 7.917)"><rect class="e" width="113.003" height="3.958" rx="1.979"/><rect class="e" width="75.851" height="3.958" rx="1.979" transform="translate(0 6.597)"/></g><g transform="translate(131.242 8.458)"><circle class="e" cx="4.737" cy="4.737" r="4.737"/><circle class="c" cx="2.03" cy="2.03" r="2.03" transform="translate(2.707 2.707)"/></g></g><g transform="translate(0 132.626)"><rect class="d" width="152" height="27" rx="4" transform="translate(0.173 -0.399)"/><g transform="translate(6.09 7.917)"><rect class="e" width="113.003" height="3.958" rx="1.979"/><rect class="e" width="75.851" height="3.958" rx="1.979" transform="translate(0 6.597)"/></g><g transform="translate(131.242 8.458)"><circle class="e" cx="4.737" cy="4.737" r="4.737"/><circle class="c" cx="2.03" cy="2.03" r="2.03" transform="translate(2.707 2.707)"/></g></g><g transform="translate(0 100.823)"><rect class="d" width="152" height="26" rx="4" transform="translate(0.173 0.404)"/><g transform="translate(6.09 7.917)"><rect class="e" width="113.003" height="3.958" rx="1.979"/><rect class="e" width="75.851" height="3.958" rx="1.979" transform="translate(0 6.597)"/></g><g transform="translate(131.242 8.458)"><circle class="e" cx="4.737" cy="4.737" r="4.737"/><circle class="c" cx="2.03" cy="2.03" r="2.03" transform="translate(2.707 2.707)"/></g></g></g></g><g transform="translate(312.344 293.984)"><g transform="translate(646.886 188.631)"><path class="h" d="M637.1,132.662l22.6,77.56h2.582L644.943,132.4Z" transform="translate(-579.171 -132.399)"/><path class="h" d="M617.478,133.232l-17.084,75.34h3.03l22.866-75.364Z" transform="translate(-600.394 -131.931)"/><path class="h" d="M623.994,132.4l2.632,77.62h3.609L631.82,132.7Z" transform="translate(-586.75 -132.399)"/><path class="h" d="M612.151,153.249l51.6-1.617.34,5.343-55.812,2.14Z" transform="translate(-595.836 -121.28)"/><path class="i" d="M611.509,133.232l-.792,3.489h8.538l1.066-3.512Z" transform="translate(-594.426 -131.931)"/><path class="i" d="M624.015,133.3l.128,3.777h7.572l.092-4.491Z" transform="translate(-586.737 -132.29)"/><path class="i" d="M626.267,152.22l.19,5.556h-3.286l-1.276-5.419,5.241-.137" transform="translate(-587.963 -120.94)"/><path class="i" d="M628.553,152.135v5.52l2.489-.1.723-5.526Z" transform="translate(-584.114 -121.048)"/><path class="i" d="M637.1,132.662l.807,2.772h7.709l-.675-3.034Z" transform="translate(-579.171 -132.399)"/></g><path class="j" d="M600.4,169.37c7.338-3.6,36.992-1.659,36.992-1.659s-8.374-103.945,2.452-104.778,35.059-8.543,39.771,7.092S678.042,174,671.777,174c-14.282,0-57.781,3.1-70.917.008C597.474,173.213,600.4,169.37,600.4,169.37Z" transform="translate(45.816 14.549)"/><g transform="translate(711.813 86.37)"><path class="k" d="M645.826,67.6c.047-.025.256.259.612.83.186.282.379.65.606,1.087s.469.952.724,1.539a36.735,36.735,0,0,1,2.557,10.509,131.6,131.6,0,0,1,.434,15.982c-.1,6.008-.467,12.6-1,19.509s-1.21,13.469-1.835,19.432-1.222,11.348-2.061,15.83a67.79,67.79,0,0,1-2.707,10.441,15.251,15.251,0,0,1-1.6,3.62,27.894,27.894,0,0,1,1.038-3.8,88.715,88.715,0,0,0,2.208-10.443c.7-4.457,1.188-9.816,1.728-15.786s1.166-12.527,1.714-19.414.941-13.451,1.121-19.425a151.983,151.983,0,0,0-.106-15.843,41.082,41.082,0,0,0-2.039-10.4C646.384,68.9,645.712,67.666,645.826,67.6Z" transform="translate(-641.535 -67.601)"/></g><path class="l" d="M627.605,36.777c3.96-.385,7.443,2.757,9.4,6.219s2.978,7.425,5.208,10.72c2.107,3.115,5.162,5.44,7.79,8.131,5.014,5.137,8.577,12.074,8.23,19.244s-5.3,14.29-12.33,15.763c-7.094,1.488-14.513-3.095-17.873-9.516s-3.256-14.178-1.472-21.2c1.305-5.14,3.459-10.1,4.032-15.368s-.843-11.221-5.221-14.213" transform="translate(60.911 0.819)"/><path class="m" d="M528.911,86.752l89.2-34.692L664.642,53.7l-.655,33.048-54.374,40.711L579.1,126.246Z" transform="translate(5.164 9.784)"/><path class="l" d="M623.383,37.607c-3.818,1.963-5.356,6.633-5.746,10.908s-.019,8.719-1.553,12.728c-2.53,6.614-9.712,10.66-11.992,17.364a14.406,14.406,0,0,0,3.83,14.748,15.879,15.879,0,0,0,15,3.469c6.2-1.788,10.891-7.17,13.272-13.17s2.763-12.594,2.737-19.048c-.024-6-.423-12.193-3.1-17.562s-8.143-9.743-14.134-9.45" transform="translate(48.235 1.412)"/><path class="n" d="M584.625,95.571l-2.7-1.444a27.958,27.958,0,0,1-4.573-2.34,8.282,8.282,0,0,1-1.955-1.663,12.6,12.6,0,0,1-1.856-2.6c-.377-.9-1.61-.969-1.8-.155s.789,3.3,3.055,5.527-2.511,1.558-4.253,1.346-7.144-.619-7.585-.137c-.644.7.06,1.6,1.8,1.768,1.763.174,6.964,1.051,6.893,1.958s-8.94-.306-8.94-.306-1.884-.56-2,.481c-.211,1.881,9.249,2.468,10.149,2.5a.479.479,0,1,1-.09.953c-.693-.063-8.838-1.4-9.073.51-.178,1.466,7.783.557,9.406,1.761s-6.166.068-6.278,1.479c-.043.527,0,.931,4.507.945,4.616.016,16.937-1.985,16.937-1.985l-1.783-8.73" transform="translate(23.552 29.871)"/><g transform="translate(600.012 86.734)"><path class="o" d="M637.694,67.832s-23.213,31.186-28.539,32.578-35.755,3.218-35.755,3.218l-2.708,13.181s38.952,2.056,47.531-4.275c13.479-9.95,27.641-32.84,27.641-32.84C646.221,72.144,643.339,68.373,637.694,67.832Z" transform="translate(-570.692 -67.832)"/><g class="p" transform="translate(39.797 31.514)"><path class="q" d="M600.795,102.775a7.828,7.828,0,0,1-1.155-2.02,44.169,44.169,0,0,1-3.452-10.64,7.913,7.913,0,0,1-.249-2.314c.178-.032.868,3.431,2.216,7.556C599.483,99.486,600.959,102.7,600.795,102.775Z" transform="translate(-595.909 -87.801)"/></g><g class="p" transform="translate(44.446 27.989)"><path class="q" d="M605.478,99.7c-.152.071-1.755-3.035-3.579-6.936s-3.183-7.122-3.032-7.193,1.755,3.035,3.581,6.936S605.63,99.627,605.478,99.7Z" transform="translate(-598.856 -85.567)"/></g><g class="p" transform="translate(48.603 22.745)"><path class="q" d="M609.79,95.477c-.152.084-1.938-2.92-4.226-6.564s-4.207-6.567-4.067-6.666,2.287,2.675,4.581,6.343S609.933,95.4,609.79,95.477Z" transform="translate(-601.489 -82.244)"/></g><g class="p" transform="translate(53.631 17.495)"><path class="q" d="M612.951,91.744c-.145.087-2.011-2.774-4.291-6.309s-4.117-6.418-3.977-6.515,2.2,2.636,4.487,6.185S613.093,91.66,612.951,91.744Z" transform="translate(-604.675 -78.917)"/></g><g class="p" transform="translate(58.571 10.544)"><path class="q" d="M615.87,86.407c-.137.095-2.055-2.49-4.278-5.774s-3.917-6.022-3.778-6.117,2.056,2.492,4.282,5.776S616.009,86.314,615.87,86.407Z" transform="translate(-607.806 -74.513)"/></g><g class="p" transform="translate(63.025 5.607)"><path class="q" d="M618.3,82.71c-.169.074-1.45-2.722-3.573-5.836-2.105-3.128-4.226-5.356-4.1-5.484a19.58,19.58,0,0,1,4.6,5.143A19.578,19.578,0,0,1,618.3,82.71Z" transform="translate(-610.628 -71.385)"/></g><g class="p" transform="translate(34.089 33.21)"><path class="q" d="M594.231,104.252c-.166.021-.724-3.406-1.247-7.651s-.811-7.7-.644-7.725.724,3.4,1.247,7.651S594.4,104.231,594.231,104.252Z" transform="translate(-592.293 -88.876)"/></g><g class="p" transform="translate(25.824 33.725)"><path class="q" d="M587.154,104.568c-.169-.009-.117-3.456.117-7.7s.555-7.676.724-7.667.115,3.456-.117,7.7S587.322,104.578,587.154,104.568Z" transform="translate(-587.055 -89.202)"/></g><g class="p" transform="translate(14.735 34.908)"><path class="q" d="M580.059,104.269c-.164-.035.363-3.267,1.176-7.22s1.608-7.13,1.772-7.1-.363,3.265-1.177,7.22S580.223,104.3,580.059,104.269Z" transform="translate(-580.029 -89.952)"/></g><g class="p" transform="translate(7.586 35.153)"><path class="q" d="M575.542,105.466c-.164-.021.145-3.507.882-7.755s1.613-7.638,1.772-7.6-.443,3.47-1.174,7.706S575.711,105.488,575.542,105.466Z" transform="translate(-575.499 -90.107)"/></g></g><path class="r" d="M576.626,170.953l1.472,11.571s-13.7,4.316-10.428,5.086,25.678-2.459,25.678-2.459-1.515-14.17-1.349-14.169Z" transform="translate(27.282 78.522)"/><path class="r" d="M594.184,166.927l7.155,9.213s-9.594,10.684-6.39,9.685S615.8,170.643,615.8,170.643s-8.513-11.427-8.37-11.511S594.184,166.927,594.184,166.927Z" transform="translate(42.902 71.687)"/><path class="s" d="M595,120.882l30.224,63.7-19.2,10.809-31.4-57.048,1.979-18.778Z" transform="translate(31.591 48.81)"/><path class="t" d="M642.4,104.78s12.931,27.637-12.567,37.121L616.23,112.33Z" transform="translate(55.647 40.264)"/><path class="t" d="M652.785,113.1s-73.606-20.216-81.878-3.243,1.572,105.365,1.572,105.365l23.038-2.422s-3.832-77.615,0-80.342,56.866,10.675,62.433,10.432C671.5,142.3,681.089,117.017,652.785,113.1Z" transform="translate(27.532 39.276)"/><path class="u" d="M632.6,62.643A18.377,18.377,0,0,0,614.624,80.16c-.369,8.031-.715,17.88-.753,27.278-.022,5.107-8.648,26.532-8.648,26.532l6.53,1.092a71.162,71.162,0,0,0,30.332-1.5l7.427-2.011s4.281-22.345,6.709-43.32c2.026-17.532-1.316-24.335-11.947-25.834Z" transform="translate(49.284 15.759)"/><path class="n" d="M621.928,79.144c.327-1.7-.216-8.86-.216-8.86s-6.511-.825-6.773-7.305.445-21.4.445-21.4l12.007-5.565L640.26,46.2l1.185,7.138-2.984,8.484-1.335,16.219Z" transform="translate(54.867 0.509)"/><g transform="translate(670.526 51.109)"><path class="l" d="M615.878,46.751a.829.829,0,1,0,.847-.811A.831.831,0,0,0,615.878,46.751Z" transform="translate(-614.082 -44.864)"/><g transform="translate(-0.054 0.742) rotate(-25)"><path class="l" d="M615.387,46.227c.106.109.727-.4,1.621-.428s1.553.413,1.649.3c.047-.052-.06-.251-.349-.458a2.2,2.2,0,0,0-2.609.1C615.428,45.97,615.336,46.178,615.387,46.227Z" transform="translate(-615.374 -45.258)"/></g></g><g transform="translate(679.413 51.314)"><path class="l" d="M622.337,46.2a.829.829,0,1,0,1.146.24A.83.83,0,0,0,622.337,46.2Z" transform="translate(-621.452 -44.996)"/><g transform="matrix(0.914, 0.407, -0.407, 0.914, 0.342, -0.627)"><path class="l" d="M621.652,46.355c.1.11.727-.4,1.619-.428s1.554.415,1.649.3c.047-.052-.06-.251-.347-.459a2.183,2.183,0,0,0-1.323-.376,2.161,2.161,0,0,0-1.288.481C621.69,46.1,621.6,46.308,621.652,46.355Z" transform="translate(-621.638 -45.388)"/></g></g><g transform="translate(674.803 51.972)"><path class="l" d="M620.333,53.581a6.989,6.989,0,0,1-1.469.022,1.491,1.491,0,0,1-.38-.044.53.53,0,0,1-.357-.316,1.415,1.415,0,0,1,.109-.914c.2-.581.406-1.2.627-1.845.451-1.307.874-2.482,1.2-3.33a6.988,6.988,0,0,1,.582-1.349,7.275,7.275,0,0,1-.379,1.42c-.27.863-.663,2.052-1.114,3.357q-.341.971-.647,1.839a1.266,1.266,0,0,0-.139.732c.052.186.29.219.514.235A7.164,7.164,0,0,1,620.333,53.581Z" transform="translate(-618.084 -45.805)"/></g><g class="v" transform="translate(681.226 56.294)"><path class="w" d="M622.154,49.862c.009.739,1.133,1.291,2.508,1.351s2.531-.4,2.587-1.133-1.062-1.472-2.5-1.532S622.146,49.128,622.154,49.862Z" transform="translate(-622.154 -48.543)"/></g><path class="x" d="M622.956,51.345c.536-.341-2.308-.949-3.853-.328-.592.242,1.431,2.238.68,2.222,0,0-.08,1.138,1.769.4C623.472,52.875,622.956,51.345,622.956,51.345Z" transform="translate(56.025 10.309)"/><path class="w" d="M619.209,58.727a16.148,16.148,0,0,0,8.636-2.718s-2.042,4.712-8.527,4.31Z" transform="translate(57.37 12.067)"/><path class="l" d="M614.88,42.068c2.332,1.275,5.681,2.452,8.274,1.867,1.564-.354,2.924-1.375,4.5-1.668,2.987-.557,5.915,1.734,7.125,4.521s.783,4.409.664,7.446c2.067-2.048,3.955-.276,4.376,1.237.526,1.9-.95,5.53-4.206,4.835.756,2.059.317,16.444,1.99,17.865,0,0,5.333-19.638,5.329-26.571,0-6.373-1.157-16.657-16.294-16.46C615.333,35.288,614.88,42.068,614.88,42.068Z" transform="translate(54.867 0)"/><path class="n" d="M617.756,106.347l-3.052-.18a28.109,28.109,0,0,1-5.132-.205,8.274,8.274,0,0,1-2.473-.69,12.614,12.614,0,0,1-2.774-1.58c-.718-.655-1.868-.205-1.7.612s2.1,2.667,5.093,3.735-1.626,2.468-3.3,3.006-6.743,2.437-6.942,3.057c-.29.909.724,1.423,2.378.849,1.673-.582,6.762-1.966,7.078-1.114s-8.244,3.472-8.244,3.472-1.943.282-1.613,1.277c.6,1.8,9.431-1.638,10.261-1.985a.48.48,0,1,1,.32.9c-.657.234-8.612,2.435-8.022,4.267.451,1.406,7.3-2.76,9.276-2.348s-5.569,2.65-5.079,3.979c.181.494.39.844,4.488-1.034,4.2-1.922,14.541-8.907,14.541-8.907l-5.282-7.177" transform="translate(44.553 39.454)"/><path class="l" d="M615.324,40.705a16.324,16.324,0,0,0,10.517,5.8c3.9.483,8.126-.415,11.6,1.42a9,9,0,0,0-3.968-8.421,13.62,13.62,0,0,0-9.387-1.987,28.827,28.827,0,0,0-9.249,3.126" transform="translate(54.844 1.306)"/><g transform="translate(671.772 152.59)"><path class="y" d="M636.346,117.076a21.148,21.148,0,0,1-2.836-1.433,58.574,58.574,0,0,0-14.262-5.288,21.561,21.561,0,0,1-3.085-.761,12.077,12.077,0,0,1,3.177.309,43,43,0,0,1,14.393,5.337A12.223,12.223,0,0,1,636.346,117.076Z" transform="translate(-616.163 -109.562)"/></g><g transform="translate(685.481 155.051)"><path class="y" d="M634.628,112.028c-.051.189-2.206-.354-4.9-.248-2.7.077-4.81.767-4.875.582-.074-.147,2.03-1.147,4.853-1.233C632.525,111.023,634.693,111.878,634.628,112.028Z" transform="translate(-624.85 -111.121)"/></g><g transform="translate(623.046 174.509)"><path class="z" d="M616.748,183.631a2.712,2.712,0,0,1-.352-.6c-.215-.424-.515-1.015-.895-1.764l-1.441-2.776c-.571-1.081-1.221-2.309-1.94-3.663L600.735,153.7c-4.453-8.255-8.442-15.752-11.227-21.232-.685-1.371-1.308-2.615-1.854-3.71-.521-1.1-.974-2.047-1.344-2.831s-.612-1.4-.786-1.82a2.755,2.755,0,0,1-.232-.652,2.794,2.794,0,0,1,.35.6c.216.424.514,1.015.9,1.763.4.77.88,1.7,1.441,2.778s1.222,2.307,1.938,3.663c2.924,5.427,6.947,12.89,11.389,21.135s8.44,15.748,11.224,21.229c.686,1.373,1.307,2.615,1.856,3.712.521,1.1.972,2.045,1.345,2.831.355.783.612,1.4.788,1.818A2.816,2.816,0,0,1,616.748,183.631Z" transform="translate(-585.288 -123.451)"/></g><path class="aa" d="M616.052,132.891s17.323-4.933,23.663-12.693,7.211-13.168,7.211-13.168l2.347-39.2Z" transform="translate(55.545 18.902)"/><path class="o" d="M613.842,69.168c-.218.393-1.359,11.068-3.211,12.952s-2.735,5.254,1.239,8.337" transform="translate(51.505 19.675)"/><path class="ab" d="M528.911,74.051,543.6,116.972H610.1l-.49-2.21-26.893-.832-12.388-39.9Z" transform="translate(5.164 22.485)"/><g transform="translate(613.488 163.665)"><path class="y" d="M660.28,131.32a2,2,0,0,1-.42-.071l-1.222-.275-4.679-1.106c-4.062-.961-9.944-2.34-17.238-3.925s-16-3.373-25.708-5.145c-4.854-.887-9.957-1.774-15.254-2.635q-1.988-.317-4.01-.641a15.527,15.527,0,0,0-4.024-.245,5.4,5.4,0,0,0-3.488,1.681,8.76,8.76,0,0,0-1.875,3.6,26.012,26.012,0,0,0-.773,4.121q-.26,2.09-.519,4.152-.2,2.067-.4,4.1c-.137,1.357-.207,2.708-.313,4.045-.353,5.353-.529,10.528-.521,15.458,0,9.863.478,18.742.988,26.186s1.04,13.465,1.389,17.625c.167,2.074.3,3.687.388,4.793.036.541.065.956.084,1.248a2.117,2.117,0,0,1,.008.426,1.907,1.907,0,0,1-.074-.42q-.052-.436-.148-1.242c-.118-1.1-.29-2.713-.511-4.782-.424-4.154-1.016-10.168-1.594-17.615s-1.1-16.334-1.13-26.219c-.024-4.941.141-10.132.486-15.5.1-1.341.172-2.7.308-4.059s.265-2.735.4-4.117q.258-2.069.519-4.168a26.284,26.284,0,0,1,.794-4.217,9.36,9.36,0,0,1,2.025-3.857,6.008,6.008,0,0,1,1.782-1.308,6.531,6.531,0,0,1,2.108-.573,16.135,16.135,0,0,1,4.193.253q2.024.329,4.013.649c5.3.87,10.408,1.769,15.262,2.673,9.709,1.807,18.414,3.641,25.7,5.285s13.154,3.09,17.2,4.128c2.023.514,3.59.936,4.651,1.225l1.206.338A2.18,2.18,0,0,1,660.28,131.32Z" transform="translate(-579.232 -116.579)"/></g><g transform="translate(620.19 168.716)"><path class="y" d="M586.549,122.6c-.122.133-1.277-.724-2.58-1.913l-.472-.439.448-.453c.971,1.084,1.621,1.976,1.507,2.083s-.958-.6-1.974-1.649l.448-.453.481.429C585.711,121.4,586.669,122.471,586.549,122.6Z" transform="translate(-583.478 -119.78)"/></g><g transform="translate(622.684 166.413)"><path class="y" d="M586.323,123.99c-.175.036-.584-1.2-.911-2.768s-.45-2.864-.275-2.9.584,1.2.911,2.768S586.5,123.954,586.323,123.99Z" transform="translate(-585.058 -118.32)"/></g><path class="n" d="M620.693,63.888s-6.066,11.53-2.617,11.53,18.3-13.012,18.3-13.012Z" transform="translate(56.102 15.765)"/><g transform="translate(656.816 79.269)"><path class="o" d="M641.571,64.272s-2.759,38.78-6.5,42.821-28.389,21.971-28.389,21.971l4.818,12.565s33.927-19.252,37.743-29.207c4.61-12.032,5.44-30.725,5.575-38.721a10.913,10.913,0,0,0-3.974-8.774C648.038,62.7,644.936,62.548,641.571,64.272Z" transform="translate(-606.686 -63.101)"/><g class="p" transform="translate(34.495 7.349)"><path class="q" d="M642.017,68.833c-.013.167-3.04.082-6.759-.191s-6.724-.631-6.713-.8,3.038-.082,6.759.191S642.028,68.665,642.017,68.833Z" transform="translate(-628.544 -67.758)"/></g><g class="p" transform="translate(33.37 13.847)"><path class="q" d="M642.568,73.7c-.013.164-3.343,0-7.417-.489s-7.345-1.128-7.319-1.291,3.327.2,7.392.688S642.584,73.527,642.568,73.7Z" transform="translate(-627.831 -71.876)"/></g><g class="p" transform="translate(32.944 21.186)"><path class="q" d="M642.156,76.829c0,.169-3.267.3-7.3.3s-7.3-.136-7.3-.3,3.267-.3,7.3-.3S642.156,76.662,642.156,76.829Z" transform="translate(-627.561 -76.526)"/></g><g class="p" transform="translate(32.243 28.624)"><path class="q" d="M641.712,81.542c0,.169-3.268.3-7.3.3s-7.3-.136-7.3-.3,3.267-.3,7.3-.3S641.712,81.375,641.712,81.542Z" transform="translate(-627.117 -81.239)"/></g><g class="p" transform="translate(30.976 36.22)"><path class="q" d="M640.369,89.89c-.044.161-3.227-.562-7.108-1.614s-6.991-2.039-6.947-2.2,3.226.56,7.108,1.613S640.413,89.727,640.369,89.89Z" transform="translate(-626.314 -86.053)"/></g><g class="p" transform="translate(29.24 42.774)"><path class="q" d="M636.1,100.554c-.134.115-2.391-2.377-5.391-5.221s-5.594-4.982-5.487-5.123,2.883,1.8,5.905,4.682A29.294,29.294,0,0,1,636.1,100.554Z" transform="translate(-625.214 -90.205)"/></g><g class="p" transform="translate(22.909 48.6)"><path class="q" d="M630.088,105.94c-.136.1-2.235-2.514-4.684-5.839s-4.33-6.1-4.195-6.2,2.232,2.514,4.682,5.839S630.221,105.84,630.088,105.94Z" transform="translate(-621.203 -93.897)"/></g><g class="p" transform="translate(15.346 54.28)"><path class="q" d="M623.635,109.888a30.908,30.908,0,0,1-4.072-5.924,30.932,30.932,0,0,1-3.142-6.466c.156-.077,1.676,2.748,3.668,6.16S623.778,109.788,623.635,109.888Z" transform="translate(-616.41 -97.496)"/></g><g class="p" transform="translate(7.112 60.641)"><path class="q" d="M617.8,114.438c-.156.071-1.583-2.844-3.4-6.4s-3.343-6.421-3.193-6.51,1.91,2.656,3.734,6.234S617.949,114.373,617.8,114.438Z" transform="translate(-611.193 -101.527)"/></g></g><g class="ac" transform="translate(674.274 106.461)"><path class="ad" d="M626.775,85.946c.047.1-.554.526-1.708.718a6.389,6.389,0,0,1-7.113-4.482c-.322-1.124-.2-1.85-.087-1.85.141-.013.249.666.691,1.624a6.764,6.764,0,0,0,6.451,4.067C626.065,86.007,626.726,85.815,626.775,85.946Z" transform="translate(-617.749 -80.332)"/></g><path class="o" d="M573.4,90.786l-2.708,13.181,4.79.248,2.839-14.17Z" transform="translate(29.32 31.745)"/><path class="x" d="M549.667,88.854c.467,1.809-.335,3.578-1.791,3.955s-3.014-.784-3.481-2.593.335-3.578,1.79-3.955S549.2,87.045,549.667,88.854Z" transform="translate(14.039 29.516)"/><g transform="translate(680.166 181.893)"><path class="k" d="M651.876,131.258c-.087.432-6.829-.627-15.191-1.3-8.364-.7-15.187-.748-15.2-1.188-.022-.4,6.857-1.032,15.327-.327C645.276,129.126,651.962,130.87,651.876,131.258Z" transform="translate(-621.482 -128.13)"/></g><g transform="translate(706.63 114.533)"><path class="k" d="M639.613,87.746c-.068.054-.314-.028-.426-.45a1.548,1.548,0,0,1,.7-1.5,1.8,1.8,0,0,1,1.232-.341,1.862,1.862,0,0,1,.713.24,2.126,2.126,0,0,1,.581.481,3.025,3.025,0,0,1,.477,2.927,3.057,3.057,0,0,1-2.176,2,2.21,2.21,0,0,1-.74.028,1.9,1.9,0,0,1-.707-.227,2.056,2.056,0,0,1-.821-.9,1.638,1.638,0,0,1,.038-1.627c.249-.33.494-.342.548-.27.073.085,0,.26,0,.5a1.3,1.3,0,0,0,.338.851,1.093,1.093,0,0,0,.458.32.775.775,0,0,0,.249.024,1.025,1.025,0,0,0,.308-.057,1.884,1.884,0,0,0,1.075-1.146,1.852,1.852,0,0,0-.141-1.547.685.685,0,0,0-.885-.327,1.152,1.152,0,0,0-.655.576C639.688,87.494,639.706,87.688,639.613,87.746Z" transform="translate(-638.251 -85.447)"/></g><g transform="translate(519.979 139.457)"><rect class="h" width="237.092" height="7.767"/><path class="h" d="M538.522,106.161,519.979,222.77l9.272.17,31.819-116.779Z" transform="translate(-519.979 -98.394)"/><path class="h" d="M667.483,106.664l10.805,120.311h-8.671L646.3,111.661l-1.219-8.59,22.4,3.592" transform="translate(-447.652 -100.181)"/><path class="i" d="M645.518,106.161l.861,5.366,21.378-.8-.411-4.57Z" transform="translate(-447.399 -98.394)"/><path class="i" d="M532.049,106.161l-.874,5.495,22.091-.613,1.33-4.882Z" transform="translate(-513.506 -98.394)"/></g><g transform="translate(714.431 110.132)"><path class="ae" d="M650.733,101.739a23.438,23.438,0,0,1-7.539-6.01,6.794,6.794,0,0,1,5.023-.47,20.171,20.171,0,0,1,4.711,2.1,16.766,16.766,0,0,1,.908-14.7,15.678,15.678,0,0,1,7.581,11.562,13.542,13.542,0,0,1,9.713-5.506,11.616,11.616,0,0,1-5.839,11.35" transform="translate(-643.194 -82.658)"/><path class="af" d="M643.362,95.243s1.18,11.566,15.884,11.11S673.585,93.12,673.585,93.12Z" transform="translate(-643.097 -76.609)"/></g></g><g class="ag" transform="translate(740.308 410.972)"><path class="ah" d="M17.408,0,15.761,37.547H5.112L0,15.18l3.645-1.652,6.38,18.494L12,0Z" transform="translate(29.696 59)"/><g transform="translate(0 0)"><g transform="translate(0 0)"><path class="ai" d="M20.2,131.038V100.722a4.175,4.175,0,0,1,4.175-4.175H53.006a4.175,4.175,0,0,1,4.175,4.175v30.317a18.49,18.49,0,0,1-36.979,0ZM46.693,87.4C41.2,82.892,43.8,72.685,46.608,67.533s12.085-4.126,12.085-4.126,2.043-7.925,4.6-11.7l3.19-.635a7.494,7.494,0,0,1,8.758,5.71,13.523,13.523,0,0,1-3.352,6.889l-5.629,6.151s3.414,8.092-2.2,12.075c-5.463,3.879-10.63,6.483-14.24,6.482A4.789,4.789,0,0,1,46.693,87.4ZM12.168,72.528c-4.816-6.077-1.858-18.62-1.858-18.62S4.249,53.039.984,47.984L.077,41.567a7.505,7.505,0,0,1,9.47-8.306l8.081,2.32c8,6.077,4.434,12.4,4.434,12.4s11.634,0,13.567,8.895c2.534,11.653,2.534,21.465-2.339,24.023a11.768,11.768,0,0,1-5.536,1.411C21.527,82.311,15.9,77.239,12.168,72.528ZM43.873,59.592C34.52,58.528,30.016,45.307,29.4,37.561S39.823,24.284,39.823,24.284,36.354,14,36.456,7.973l1.652-3.6A7.467,7.467,0,0,1,50.4,2.414l5.379,5.838c3.258,9.541-2.92,17.732-2.92,17.732s9.644,6.546,6.3,15.008c-4.22,10.688-9.441,18.634-14.7,18.634A5.2,5.2,0,0,1,43.873,59.592Zm31.364-2.806a13.525,13.525,0,0,0,.186-2.235v3.917A7.639,7.639,0,0,0,75.238,56.786Z" transform="translate(0 0)"/><g class="aj"><path class="af" d="M8.821,157.437V131.064H50.714v26.373Zm26.64-53.565a3.542,3.542,0,0,1-3.684-2.652c-.9,1.088-2.455,1.46-4.81.913C6.3,97.331-9.387,42.842,6.516,31.425c3.528-2.533-1.949,12.47,1.895,17.544,9.266,12.234,22.169,34.547,24.1,46.078,2.006-4.118,6.48-8.172,9.723-12.6,7.5-10.229,15.115-20.924,22.913-16.141,10.631,6.523-18.626,37.56-29.68,37.562ZM45.8,72.016a5.172,5.172,0,0,1-3.835-1.89C27.5,54.518,44.779.52,64.308,0c8.984-.239,8.035,17.884,2.984,36.005C62.273,54.012,53.2,72.015,45.8,72.016Z" transform="translate(8.808 -23.45)"/></g></g></g></g><g transform="translate(775 450)"><path class="ak" d="M42.86,0c1.325,0,2.646.027,3.969.1,1.009.053,2.55-.156,3.4.472.887.653.826,1.99.687,2.933-.732,4.992-2.519,9.418-6.258,12.954C38.9,21.9,32.305,24.668,24.5,25.9c-5.486.866-10.55-.336-14.588-4.237A60.868,60.868,0,0,0,3.6,39.315a42.292,42.292,0,0,0-.626,9.073c.063,1.968.171,3.932.382,5.891.091.851.526,2.14.192,2.944a1.343,1.343,0,0,1-2.3.231c-.493-.67-.4-1.987-.5-2.78C.571,53.355.416,52.036.3,50.712.124,48.569-.009,46.42,0,44.268A48.036,48.036,0,0,1,2.568,29.995c2.82-8.8,7.4-16.625,14.512-22.763,4.376-3.774,9.383-5.3,15.065-6.123A75.529,75.529,0,0,1,42.86,0" transform="translate(0)"/><path class="ak" d="M21.429,0c14.3,0,23.929,11.524,28.483,23.5,1.716,4.515,2.119,9.472,2.78,14.213.212,1.521.134,3.839.751,5.195.224.491.738.668.492,1.338a1.086,1.086,0,0,1-.879.734c-.9.166-2.171-.814-2.942-1.2-6.4-3.208-10.6-8.168-14.027-14.236a60.584,60.584,0,0,1-5.544-11.8,40.769,40.769,0,0,1-1.484-7.8,29.682,29.682,0,0,1-.2-3.122,6.3,6.3,0,0,1,.829-2.468C24.92,2.558,19.534,2.066,14.7,3.937A19.209,19.209,0,0,0,4.439,13.216a17.7,17.7,0,0,0-1.26,3.42A11.772,11.772,0,0,1,2.6,19.1c-.893,1.687-2.771.559-2.59-1.011A20.315,20.315,0,0,1,6.225,6.263,22.349,22.349,0,0,1,21.429,0" transform="translate(1 35)"/></g><g transform="translate(742.079 304.279)"><g transform="translate(0 0)"><path class="ai" d="M2.26,105.244a2.26,2.26,0,1,1,0-4.52h8.347a2.26,2.26,0,1,1,0,4.52ZM13.832,96.85V79.417h3.507a8.718,8.718,0,0,1,8.044,5.355,1.287,1.287,0,0,1,1.959,1.1V90.4a1.288,1.288,0,0,1-1.959,1.1,8.718,8.718,0,0,1-8.044,5.354Zm9.007-33.558V16.125a4.5,4.5,0,0,1,9.007,0V63.292a4.5,4.5,0,1,1-9.007,0ZM13.832,51.67V4.5a4.5,4.5,0,1,1,9.007,0V51.67a4.5,4.5,0,0,1-9.007,0ZM2.26,9.04a2.26,2.26,0,0,1,0-4.52h8.347a2.26,2.26,0,0,1,0,4.52Z" transform="translate(9.039 41.221) rotate(-90)"/><path class="ae" d="M75.866,27.389V24.57c1.311-.977,4.74-3.043,8.115-.964,4.033,2.483,6.288-.075,9.292-.392.016.22.025.443.025.668v3.507ZM1.287,24.172a1.287,1.287,0,1,1,0-2.573H52.622v2.573Zm11.622-9.007a1.287,1.287,0,1,1,0-2.573H64.244v2.573Zm74.219-1.256a1.278,1.278,0,0,0-.281-.031H82.319a1.315,1.315,0,0,0-.272.029c-1.178-.724-2.593-1.671-2.642-2.07-.087-.71,1.445-.965,1.461-.968l-.014,0c-.639-.207-3.838-1.3-3.994-2.583a.934.934,0,0,1,.213-.73,4,4,0,0,1,2.286-.864l-.01-.006c-.367-.3-3.58-2.953-3.33-4.742A1.642,1.642,0,0,1,77.174.692a1.243,1.243,0,0,1,.473-.1c.987,0,2.031,1.229,3.1,3.655a47.19,47.19,0,0,1,2.28,6.86c-.343-4.217-.5-9.516.7-10.815a.825.825,0,0,1,.62-.3.931.931,0,0,1,.122.009c2.784.391,2.186,5.381,1.66,9.783l-.034.286c.914-3.172,2.316-6.953,3.791-6.953a.907.907,0,0,1,.364.078,1.339,1.339,0,0,1,.9,1.019c.238,1.592-2.6,4.036-2.668,4.1h.008a2.917,2.917,0,0,1,1.765.688.82.82,0,0,1,.187.649c-.144,1.164-3.072,2.19-3.182,2.228h.006c.283.055,1.2.277,1.137.812-.025.208-.455.615-1.277,1.21Z" transform="translate(12.591 0)"/><rect class="af" width="128.165" height="4.503" rx="2.252" transform="translate(0 27.389)"/></g></g></g></svg>