<svg xmlns="http://www.w3.org/2000/svg" xmlns:xlink="http://www.w3.org/1999/xlink" width="537.94" height="309.094" viewBox="0 0 537.94 309.094"><defs><style>.a{opacity:0.28;}.b{fill:#383838;}.c{opacity:0.22;}.d{fill:#7697cc;}.e,.f{fill:#69a1ac;}.f{opacity:0.41;}.g{opacity:0.09;}.h{fill:#d8deed;}.i{fill:#f2f6fb;}.j{fill:#e1e5f0;}.k{fill:#89c5cc;}.l{fill:#455a64;}.m{fill:#1a1a1a;}.n{fill:#f17f60;}.o{fill:#f2957e;}.p{fill:#1f3642;}.q{fill:#f6ba99;}.r{fill:#00143a;}.s{opacity:0.33;}.t{fill:#f3f0eb;}.u{fill:#fcd588;}.v{fill:#2a4759;}.w{opacity:0.34;fill:url(#a);}.x{fill:#b4cce9;}.y{fill:#edb758;}.z{fill:none;stroke:#faecd4;stroke-miterlimit:10;stroke-width:0.1px;}.aa{fill:#635449;}</style><linearGradient id="a" x1="3.027" y1="5.976" x2="2.525" y2="5.693" gradientUnits="objectBoundingBox"><stop offset="0" stop-color="#fff"/><stop offset="0.232" stop-color="#fff" stop-opacity="0.769"/><stop offset="1" stop-color="#fff" stop-opacity="0"/></linearGradient></defs><g transform="translate(-763.923 -245.5)"><g class="a" transform="translate(763.923 281.071)"><path class="b" d="M116.237,273.523a17.738,17.738,0,0,1,17.738-17.738h12.092A17.737,17.737,0,0,1,163.8,273.523ZM0,273.523a17.738,17.738,0,0,1,17.737-17.738H29.83a17.738,17.738,0,0,1,17.737,17.738Zm70.345-19.411a11.724,11.724,0,1,1,11.724,11.714A11.719,11.719,0,0,1,70.345,254.111ZM39.976,15.492A15.188,15.188,0,0,1,24.789.3a.3.3,0,0,1,.3-.3H138.377a.3.3,0,0,1,.3.3,15.188,15.188,0,0,1-15.187,15.188Z" transform="translate(163.804 273.523) rotate(180)"/></g><g class="c" transform="translate(934 245.5)"><path class="d" d="M24.094,24.427c-5.244,0-14.894-1.8-15.754-7.136H2.53a2.548,2.548,0,0,1-1.9-4.227L6.519,6.325a21.1,21.1,0,0,1,3.18.028C11.384,3.217,14.662.646,20.766.093c7.433-.673,10.3,2.4,11.591,6.617a21.943,21.943,0,0,1,2.964-.378l8.42,7.681a2.552,2.552,0,0,1-1.179,4.379L33.914,20.21c-.575,3.932-4.04,4.227-7.814,4.227C25.437,24.436,24.763,24.427,24.094,24.427Z" transform="translate(43.941 16.8)"/><path class="d" d="M38.943,49.084c-.925,0-1.865-.013-2.8-.013-7.364,0-20.957-2.571-21.99-10.182H3.679a2.548,2.548,0,0,1-1.913-4.207l9.7-11.354a28.28,28.28,0,0,1,4.764.074c2.394-4.275,6.95-7.749,15.277-8.509,10.23-.933,14.262,3.263,16.092,9.064a29.379,29.379,0,0,1,4.571-.629l13.21,12.217a2.552,2.552,0,0,1-1.185,4.366L49.864,42.965c-.721,5.7-5.6,6.119-10.918,6.119ZM13.348,14.758c-3.164,0-8.983-1.089-9.512-4.3H2.53A2.548,2.548,0,0,1,.622,6.241l2.134-2.48a12.483,12.483,0,0,1,1.93.019C5.714,1.912,7.69.387,11.338.056c4.469-.405,6.207,1.435,6.99,3.965a12.932,12.932,0,0,1,1.912-.256l3.623,3.323a2.552,2.552,0,0,1-1.181,4.374l-3.4.718c-.334,2.4-2.434,2.584-4.723,2.584C14.159,14.764,13.752,14.758,13.348,14.758Z" transform="translate(13.159 6.958)"/></g><g transform="translate(374 -3)"><path class="e" d="M74.412,100.244a18.035,18.035,0,0,1-.386,2.313A6.91,6.91,0,0,0,74.412,100.244ZM70.236,82.118A44.456,44.456,0,0,0,61.107,69.6c.737-2.677,7.9-6.857,3.371-9.071-2.405-1.17-4.686,1.1-5.078,3.4a9.631,9.631,0,0,0,1.015,5q-1.737-1.669-3.589-3.218c-1.7-1.428-3.442-2.809-5.2-4.172,2.629-2.743,4.857-10.306,1.086-11.326-5.569-1.5-2.4,8.49-1.92,10.369a.3.3,0,0,0,.25-.11c-.022.176-.048.363-.081.553-3.356-2.593-6.757-5.13-10.058-7.792a14.458,14.458,0,0,0,1.015-1.5,16.225,16.225,0,0,0,1.965-3.2c.791-1.825,1.5-4.708-.9-5.631-2.609-1.007-3.653,2.266-3.57,4.182a25.447,25.447,0,0,0,.739,3.852c.08.4-.05,2.238.46,1.424a3.911,3.911,0,0,0,.017.649q-.888-.721-1.766-1.457a.685.685,0,0,0,.038-.223.662.662,0,0,0-.98-.574q-1.159-.992-2.293-2.016c-1.6-1.451-3.22-2.945-4.833-4.473.317-.3.164-.69.459-1.009s.9-.517,1.245-.817a8.818,8.818,0,0,0,2.081-2.862c.819-1.719,1.808-5.288-.884-5.945-2.774-.679-3.984,2.769-4.048,4.889a53.925,53.925,0,0,0,.791,5.4c-2.986-2.84-5.931-5.795-8.617-8.817.764-.047,2.849-1.727,3.265-2.177,1.014-1.1,2.593-3.49.655-4.611-1.723-.994-3.695.68-4.328,2.238a21.408,21.408,0,0,0-.372,3.659c-1.114-1.283-2.179-2.576-3.176-3.878q-1-1.3-1.879-2.669a1.247,1.247,0,0,0,.349-.381c2.754-.617,6.07-5.139,2.727-6.477-1.592-.636-3.2.933-3.9,2.185a16.167,16.167,0,0,0-.484,2.511A52.1,52.1,0,0,1,10.521,15.9a.608.608,0,0,0,.444-.588,8.288,8.288,0,0,0,3.205-3.065c.537-.949,1.481-3.1-.265-3.524-2.272-.546-3.5,2.945-3.594,4.638-.011.2.019.765.054,1.285a.752.752,0,0,0-.233.016C9.509,12.6,8.988,10.5,8.55,8.387c1.2-.457,1.076-6.882.215-7.753C6.84-1.315,5.712,1.706,5.891,3.262a10.319,10.319,0,0,0,2.2,4.9c.115.152.084.146.1-.075a.44.44,0,0,0,.118.24,27.928,27.928,0,0,0,.044,2.824,65.36,65.36,0,0,0,1.224,7.305q.2.876.438,1.736A14.257,14.257,0,0,0,7.1,18.529C5.727,18,3.622,17.455,2.34,18.545a2.249,2.249,0,0,0-.08,3.367c1.141,1.148,3.106,1,4.568.807.661-.088,4.193-.558,3.322-1.094a2.866,2.866,0,0,1,.353.146q.139.42.289.837c-.02.013-.037.027-.059.041.024-.012.04-.024.061-.036a32.593,32.593,0,0,0,4.077,7.82,7.664,7.664,0,0,0-1.861-.394c-1.863-.137-5.68,1.5-3.481,3.86,2.108,2.258,5.065-.438,7.3-.905a105.472,105.472,0,0,0,7.579,8.423.6.6,0,0,0-.352.326,14.819,14.819,0,0,0-3.081-1.29c-1.368-.216-4.15-.244-5.109,1.02-1.179,1.555.232,2.693,1.732,2.9,2.176.3,4.94-.9,6.975-1.719a.685.685,0,0,0,.639-.251l.134-.051c2.7,2.677,5.5,5.255,8.277,7.776h-.086a7.17,7.17,0,0,0-2.279-.9c-1.874-.354-4.052-.242-5.484,1.176s-1.834,3.772-.208,5.188c3.255,2.835,7.461-4.238,9.009-4.605,2.821,2.533,5.787,4.882,8.794,7.178a5.129,5.129,0,0,0-1.02-.153c-2.837-.122-9.283,3.687-5.639,6.91,3.175,2.809,6.37-3.086,8.7-5.211,2.833,2.139,5.679,4.261,8.454,6.475a7.724,7.724,0,0,0-4.392.258c-1.578.569-4.1,1.916-2.976,4.029,1.147,2.149,4.2.983,5.784.2a43.916,43.916,0,0,1,4.092-2.431A53.317,53.317,0,0,1,67.751,81.256a46.643,46.643,0,0,1,4.508,10.038c.71,2.237,2.073,5.985,1.995,8.949C75.054,94.277,72.675,87.286,70.236,82.118ZM8.1,11.476c-.236,0-1.123-2.4-1.4-2.751A7.99,7.99,0,0,0,3.534,6.433C1.592,5.594-.874,6.814.308,9.24c.944,1.937,3.5,2.326,5.716,2.326C6.781,11.567,7.5,11.521,8.1,11.476Z" transform="translate(755.367 428.312) rotate(3)"/><path class="f" d="M74.412,100.244a18.035,18.035,0,0,1-.386,2.313A6.91,6.91,0,0,0,74.412,100.244ZM70.236,82.118A44.456,44.456,0,0,0,61.107,69.6c.737-2.677,7.9-6.857,3.371-9.071-2.405-1.17-4.686,1.1-5.078,3.4a9.631,9.631,0,0,0,1.015,5q-1.737-1.669-3.589-3.218c-1.7-1.428-3.442-2.809-5.2-4.172,2.629-2.743,4.857-10.306,1.086-11.326-5.569-1.5-2.4,8.49-1.92,10.369a.3.3,0,0,0,.25-.11c-.022.176-.048.363-.081.553-3.356-2.593-6.757-5.13-10.058-7.792a14.458,14.458,0,0,0,1.015-1.5,16.225,16.225,0,0,0,1.965-3.2c.791-1.825,1.5-4.708-.9-5.631-2.609-1.007-3.653,2.266-3.57,4.182a25.447,25.447,0,0,0,.739,3.852c.08.4-.05,2.238.46,1.424a3.911,3.911,0,0,0,.017.649q-.888-.721-1.766-1.457a.685.685,0,0,0,.038-.223.662.662,0,0,0-.98-.574q-1.159-.992-2.293-2.016c-1.6-1.451-3.22-2.945-4.833-4.473.317-.3.164-.69.459-1.009s.9-.517,1.245-.817a8.818,8.818,0,0,0,2.081-2.862c.819-1.719,1.808-5.288-.884-5.945-2.774-.679-3.984,2.769-4.048,4.889a53.925,53.925,0,0,0,.791,5.4c-2.986-2.84-5.931-5.795-8.617-8.817.764-.047,2.849-1.727,3.265-2.177,1.014-1.1,2.593-3.49.655-4.611-1.723-.994-3.695.68-4.328,2.238a21.408,21.408,0,0,0-.372,3.659c-1.114-1.283-2.179-2.576-3.176-3.878q-1-1.3-1.879-2.669a1.247,1.247,0,0,0,.349-.381c2.754-.617,6.07-5.139,2.727-6.477-1.592-.636-3.2.933-3.9,2.185a16.167,16.167,0,0,0-.484,2.511A52.1,52.1,0,0,1,10.521,15.9a.608.608,0,0,0,.444-.588,8.288,8.288,0,0,0,3.205-3.065c.537-.949,1.481-3.1-.265-3.524-2.272-.546-3.5,2.945-3.594,4.638-.011.2.019.765.054,1.285a.752.752,0,0,0-.233.016C9.509,12.6,8.988,10.5,8.55,8.387c1.2-.457,1.076-6.882.215-7.753C6.84-1.315,5.712,1.706,5.891,3.262a10.319,10.319,0,0,0,2.2,4.9c.115.152.084.146.1-.075a.44.44,0,0,0,.118.24,27.928,27.928,0,0,0,.044,2.824,65.36,65.36,0,0,0,1.224,7.305q.2.876.438,1.736A14.257,14.257,0,0,0,7.1,18.529C5.727,18,3.622,17.455,2.34,18.545a2.249,2.249,0,0,0-.08,3.367c1.141,1.148,3.106,1,4.568.807.661-.088,4.193-.558,3.322-1.094a2.866,2.866,0,0,1,.353.146q.139.42.289.837c-.02.013-.037.027-.059.041.024-.012.04-.024.061-.036a32.593,32.593,0,0,0,4.077,7.82,7.664,7.664,0,0,0-1.861-.394c-1.863-.137-5.68,1.5-3.481,3.86,2.108,2.258,5.065-.438,7.3-.905a105.472,105.472,0,0,0,7.579,8.423.6.6,0,0,0-.352.326,14.819,14.819,0,0,0-3.081-1.29c-1.368-.216-4.15-.244-5.109,1.02-1.179,1.555.232,2.693,1.732,2.9,2.176.3,4.94-.9,6.975-1.719a.685.685,0,0,0,.639-.251l.134-.051c2.7,2.677,5.5,5.255,8.277,7.776h-.086a7.17,7.17,0,0,0-2.279-.9c-1.874-.354-4.052-.242-5.484,1.176s-1.834,3.772-.208,5.188c3.255,2.835,7.461-4.238,9.009-4.605,2.821,2.533,5.787,4.882,8.794,7.178a5.129,5.129,0,0,0-1.02-.153c-2.837-.122-9.283,3.687-5.639,6.91,3.175,2.809,6.37-3.086,8.7-5.211,2.833,2.139,5.679,4.261,8.454,6.475a7.724,7.724,0,0,0-4.392.258c-1.578.569-4.1,1.916-2.976,4.029,1.147,2.149,4.2.983,5.784.2a43.916,43.916,0,0,1,4.092-2.431A53.317,53.317,0,0,1,67.751,81.256a46.643,46.643,0,0,1,4.508,10.038c.71,2.237,2.073,5.985,1.995,8.949C75.054,94.277,72.675,87.286,70.236,82.118ZM8.1,11.476c-.236,0-1.123-2.4-1.4-2.751A7.99,7.99,0,0,0,3.534,6.433C1.592,5.594-.874,6.814.308,9.24c.944,1.937,3.5,2.326,5.716,2.326C6.781,11.567,7.5,11.521,8.1,11.476Z" transform="matrix(0.985, -0.174, 0.174, 0.985, 736.293, 448.428)"/><path class="f" d="M74.412,2.313A18.035,18.035,0,0,0,74.026,0,6.91,6.91,0,0,1,74.412,2.313ZM70.236,20.439a44.456,44.456,0,0,1-9.129,12.514c.737,2.677,7.9,6.857,3.371,9.071-2.405,1.17-4.686-1.1-5.078-3.4a9.631,9.631,0,0,1,1.015-5q-1.737,1.669-3.589,3.218c-1.7,1.428-3.442,2.809-5.2,4.172,2.629,2.743,4.857,10.306,1.086,11.326-5.569,1.5-2.4-8.49-1.92-10.369a.3.3,0,0,1,.25.11c-.022-.176-.048-.363-.081-.553-3.356,2.593-6.757,5.13-10.058,7.792a14.458,14.458,0,0,1,1.015,1.5,16.225,16.225,0,0,1,1.965,3.2c.791,1.825,1.5,4.708-.9,5.631-2.609,1.007-3.653-2.266-3.57-4.182a25.447,25.447,0,0,1,.739-3.852c.08-.4-.05-2.238.46-1.424a3.911,3.911,0,0,1,.017-.649q-.888.721-1.766,1.457a.685.685,0,0,1,.038.223.663.663,0,0,1-.98.574q-1.159.992-2.293,2.016c-1.6,1.451-3.22,2.945-4.833,4.473.317.3.164.69.459,1.009s.9.517,1.245.817a8.818,8.818,0,0,1,2.081,2.862c.819,1.719,1.808,5.288-.884,5.945-2.774.679-3.984-2.769-4.048-4.889a53.925,53.925,0,0,1,.791-5.4c-2.986,2.84-5.931,5.795-8.617,8.817.764.047,2.849,1.727,3.265,2.177,1.014,1.1,2.593,3.49.655,4.611-1.723.994-3.695-.68-4.328-2.238a21.408,21.408,0,0,1-.372-3.659c-1.114,1.283-2.18,2.576-3.176,3.878q-1,1.3-1.879,2.669a1.247,1.247,0,0,1,.349.381c2.754.617,6.07,5.139,2.727,6.477-1.592.636-3.2-.933-3.9-2.185a16.167,16.167,0,0,1-.484-2.511,52.1,52.1,0,0,0-4.157,9.608.608.608,0,0,1,.444.588A8.288,8.288,0,0,1,14.17,90.31c.537.949,1.481,3.1-.265,3.524-2.272.546-3.5-2.945-3.594-4.638-.011-.2.019-.765.054-1.285a.752.752,0,0,1-.233-.016c-.624,2.068-1.145,4.168-1.583,6.276,1.2.457,1.076,6.882.215,7.753-1.925,1.949-3.052-1.072-2.873-2.627a10.319,10.319,0,0,1,2.2-4.9c.115-.152.084-.146.1.075a.44.44,0,0,1,.118-.24,27.928,27.928,0,0,1,.044-2.824A65.36,65.36,0,0,1,9.582,84.1q.2-.876.438-1.736A14.257,14.257,0,0,1,7.1,84.029c-1.376.532-3.481,1.074-4.763-.017a2.249,2.249,0,0,1-.08-3.367c1.141-1.148,3.106-1,4.568-.807.661.088,4.193.558,3.322,1.094a2.867,2.867,0,0,0,.353-.146q.139-.42.289-.837c-.02-.013-.037-.027-.059-.041.024.012.04.024.061.036a32.594,32.594,0,0,1,4.077-7.82,7.664,7.664,0,0,1-1.861.394c-1.863.137-5.68-1.5-3.481-3.86,2.108-2.258,5.065.438,7.3.905a105.472,105.472,0,0,1,7.579-8.423.6.6,0,0,1-.352-.326,14.819,14.819,0,0,1-3.081,1.29c-1.368.216-4.15.244-5.109-1.02-1.179-1.555.232-2.693,1.732-2.9,2.176-.3,4.94.9,6.975,1.719a.685.685,0,0,1,.639.251l.134.051c2.7-2.677,5.5-5.255,8.277-7.776h-.086a7.17,7.17,0,0,1-2.279.9c-1.874.354-4.052.242-5.484-1.176s-1.834-3.772-.208-5.188c3.255-2.835,7.461,4.238,9.009,4.605,2.821-2.533,5.787-4.882,8.794-7.178a5.129,5.129,0,0,1-1.02.153c-2.837.122-9.283-3.687-5.639-6.91,3.175-2.809,6.37,3.086,8.7,5.211,2.833-2.139,5.679-4.261,8.454-6.475a7.724,7.724,0,0,1-4.392-.258c-1.578-.569-4.1-1.916-2.976-4.029,1.147-2.149,4.2-.983,5.784-.2a43.917,43.917,0,0,0,4.092,2.431A53.317,53.317,0,0,0,67.751,21.3a46.642,46.642,0,0,0,4.508-10.038c.71-2.237,2.073-5.985,1.995-8.949C75.054,8.28,72.675,15.271,70.236,20.439ZM8.1,91.081c-.236,0-1.123,2.4-1.4,2.751a7.99,7.99,0,0,1-3.161,2.292c-1.942.839-4.408-.381-3.225-2.807.944-1.937,3.5-2.326,5.716-2.326C6.781,90.991,7.5,91.036,8.1,91.081Z" transform="matrix(-0.766, 0.643, -0.643, -0.766, 887.301, 486.833)"/><path class="f" d="M74.412,2.313A18.035,18.035,0,0,0,74.026,0,6.91,6.91,0,0,1,74.412,2.313ZM70.236,20.439a44.456,44.456,0,0,1-9.129,12.514c.737,2.677,7.9,6.857,3.371,9.071-2.405,1.17-4.686-1.1-5.078-3.4a9.631,9.631,0,0,1,1.015-5q-1.737,1.669-3.589,3.218c-1.7,1.428-3.442,2.809-5.2,4.172,2.629,2.743,4.857,10.306,1.086,11.326-5.569,1.5-2.4-8.49-1.92-10.369a.3.3,0,0,1,.25.11c-.022-.176-.048-.363-.081-.553-3.356,2.593-6.757,5.13-10.058,7.792a14.458,14.458,0,0,1,1.015,1.5,16.225,16.225,0,0,1,1.965,3.2c.791,1.825,1.5,4.708-.9,5.631-2.609,1.007-3.653-2.266-3.57-4.182a25.447,25.447,0,0,1,.739-3.852c.08-.4-.05-2.238.46-1.424a3.911,3.911,0,0,1,.017-.649q-.888.721-1.766,1.457a.685.685,0,0,1,.038.223.663.663,0,0,1-.98.574q-1.159.992-2.293,2.016c-1.6,1.451-3.22,2.945-4.833,4.473.317.3.164.69.459,1.009s.9.517,1.245.817a8.818,8.818,0,0,1,2.081,2.862c.819,1.719,1.808,5.288-.884,5.945-2.774.679-3.984-2.769-4.048-4.889a53.925,53.925,0,0,1,.791-5.4c-2.986,2.84-5.931,5.795-8.617,8.817.764.047,2.849,1.727,3.265,2.177,1.014,1.1,2.593,3.49.655,4.611-1.723.994-3.695-.68-4.328-2.238a21.408,21.408,0,0,1-.372-3.659c-1.114,1.283-2.18,2.576-3.176,3.878q-1,1.3-1.879,2.669a1.247,1.247,0,0,1,.349.381c2.754.617,6.07,5.139,2.727,6.477-1.592.636-3.2-.933-3.9-2.185a16.167,16.167,0,0,1-.484-2.511,52.1,52.1,0,0,0-4.157,9.608.608.608,0,0,1,.444.588A8.288,8.288,0,0,1,14.17,90.31c.537.949,1.481,3.1-.265,3.524-2.272.546-3.5-2.945-3.594-4.638-.011-.2.019-.765.054-1.285a.752.752,0,0,1-.233-.016c-.624,2.068-1.145,4.168-1.583,6.276,1.2.457,1.076,6.882.215,7.753-1.925,1.949-3.052-1.072-2.873-2.627a10.319,10.319,0,0,1,2.2-4.9c.115-.152.084-.146.1.075a.44.44,0,0,1,.118-.24,27.928,27.928,0,0,1,.044-2.824A65.36,65.36,0,0,1,9.582,84.1q.2-.876.438-1.736A14.257,14.257,0,0,1,7.1,84.029c-1.376.532-3.481,1.074-4.763-.017a2.249,2.249,0,0,1-.08-3.367c1.141-1.148,3.106-1,4.568-.807.661.088,4.193.558,3.322,1.094a2.867,2.867,0,0,0,.353-.146q.139-.42.289-.837c-.02-.013-.037-.027-.059-.041.024.012.04.024.061.036a32.594,32.594,0,0,1,4.077-7.82,7.664,7.664,0,0,1-1.861.394c-1.863.137-5.68-1.5-3.481-3.86,2.108-2.258,5.065.438,7.3.905a105.472,105.472,0,0,1,7.579-8.423.6.6,0,0,1-.352-.326,14.819,14.819,0,0,1-3.081,1.29c-1.368.216-4.15.244-5.109-1.02-1.179-1.555.232-2.693,1.732-2.9,2.176-.3,4.94.9,6.975,1.719a.685.685,0,0,1,.639.251l.134.051c2.7-2.677,5.5-5.255,8.277-7.776h-.086a7.17,7.17,0,0,1-2.279.9c-1.874.354-4.052.242-5.484-1.176s-1.834-3.772-.208-5.188c3.255-2.835,7.461,4.238,9.009,4.605,2.821-2.533,5.787-4.882,8.794-7.178a5.129,5.129,0,0,1-1.02.153c-2.837.122-9.283-3.687-5.639-6.91,3.175-2.809,6.37,3.086,8.7,5.211,2.833-2.139,5.679-4.261,8.454-6.475a7.724,7.724,0,0,1-4.392-.258c-1.578-.569-4.1-1.916-2.976-4.029,1.147-2.149,4.2-.983,5.784-.2a43.917,43.917,0,0,0,4.092,2.431A53.317,53.317,0,0,0,67.751,21.3a46.642,46.642,0,0,0,4.508-10.038c.71-2.237,2.073-5.985,1.995-8.949C75.054,8.28,72.675,15.271,70.236,20.439ZM8.1,91.081c-.236,0-1.123,2.4-1.4,2.751a7.99,7.99,0,0,1-3.161,2.292c-1.942.839-4.408-.381-3.225-2.807.944-1.937,3.5-2.326,5.716-2.326C6.781,90.991,7.5,91.036,8.1,91.081Z" transform="translate(864.578 463.255) rotate(113)"/></g><g transform="translate(875.777 380.773)"><g class="g" transform="translate(0 0)"><path class="h" d="M0,8.306,6.819,1.4A4.723,4.723,0,0,1,10.179,0H239.967a4.723,4.723,0,0,1,3.379,1.423l6.785,6.946Z" transform="translate(0 75.961)"/><path class="i" d="M4.5,93.973a4.5,4.5,0,0,1-4.5-4.5V88.067a4.5,4.5,0,0,1,4.5-4.5H245.631a4.5,4.5,0,0,1,4.5,4.5v1.406a4.5,4.5,0,0,1-4.5,4.5ZM237.229,71.148l-224.3-.061a4.728,4.728,0,0,1-4.724-4.73v-4.8a4.728,4.728,0,0,1,4.726-4.73h224.3a4.727,4.727,0,0,1,4.725,4.73v4.863a4.727,4.727,0,0,1-4.725,4.729Zm0-18.921-224.3-.061a4.728,4.728,0,0,1-4.724-4.73v-4.8a4.728,4.728,0,0,1,4.726-4.73h224.3a4.727,4.727,0,0,1,4.725,4.73V47.5a4.727,4.727,0,0,1-4.725,4.73Zm0-18.921-224.3-.061a4.728,4.728,0,0,1-4.724-4.73v-4.8a4.728,4.728,0,0,1,4.726-4.73h224.3a4.727,4.727,0,0,1,4.725,4.73v4.862a4.727,4.727,0,0,1-4.725,4.73Zm0-18.984L12.93,14.26A4.727,4.727,0,0,1,8.206,9.531V4.73A4.728,4.728,0,0,1,12.932,0h224.3a4.727,4.727,0,0,1,4.725,4.73V9.592a4.727,4.727,0,0,1-4.725,4.73Z" transform="translate(0 0)"/><path class="j" d="M206.707,62.754a4.727,4.727,0,0,1-4.687-4.129L194.515,0h16.066l7.351,57.422a4.728,4.728,0,0,1-4.687,5.331Zm-201.981,0A4.729,4.729,0,0,1,.039,57.422L7.39,0H23.456l-7.5,58.625a4.727,4.727,0,0,1-4.687,4.129Z" transform="translate(16.08 93.973)"/></g></g><g transform="translate(821 459)"><path class="k" d="M8.14,0C6.815,0,5.494.027,4.171.1,3.162.148,1.621-.061.768.568-.119,1.221-.058,2.557.081,3.5.813,8.493,2.6,12.919,6.339,16.456,12.1,21.9,18.695,24.668,26.5,25.9c5.486.866,10.55-.336,14.588-4.237A60.868,60.868,0,0,1,47.4,39.315a42.292,42.292,0,0,1,.626,9.073c-.063,1.968-.171,3.932-.382,5.891-.091.851-.526,2.14-.192,2.944a1.343,1.343,0,0,0,2.3.231c.493-.67.4-1.987.5-2.78.168-1.318.323-2.637.434-3.961.181-2.143.314-4.292.3-6.444a48.036,48.036,0,0,0-2.567-14.274c-2.82-8.8-7.4-16.625-14.512-22.763-4.376-3.774-9.383-5.3-15.065-6.123A75.529,75.529,0,0,0,8.14,0" transform="translate(4)"/><path class="k" d="M32.571,0C18.272,0,8.642,11.524,4.089,23.5c-1.716,4.515-2.119,9.472-2.78,14.213-.212,1.521-.134,3.839-.751,5.195-.224.491-.738.668-.492,1.338a1.086,1.086,0,0,0,.879.734c.9.166,2.171-.814,2.942-1.2,6.4-3.208,10.6-8.168,14.027-14.236a60.584,60.584,0,0,0,5.544-11.8,40.769,40.769,0,0,0,1.484-7.8,29.682,29.682,0,0,0,.2-3.122,6.3,6.3,0,0,0-.829-2.468c4.771-1.806,10.156-2.3,14.989-.427a19.209,19.209,0,0,1,10.262,9.279,17.7,17.7,0,0,1,1.26,3.42A11.772,11.772,0,0,0,51.4,19.1c.893,1.687,2.771.559,2.59-1.011A20.315,20.315,0,0,0,47.775,6.263,22.349,22.349,0,0,0,32.571,0" transform="translate(0 35)"/></g><g transform="translate(1163.566 258.213)"><path class="l" d="M56.46,256.594V186.657a8.272,8.272,0,0,1,5.418-7.764V27.543a21.814,21.814,0,1,0-43.628,0h-5.7A27.516,27.516,0,0,1,64.871,15.611,27.517,27.517,0,0,1,117.2,27.543h-5.7a21.814,21.814,0,1,0-43.628,0V179A8.272,8.272,0,0,1,73,186.657v69.936ZM97.806,56.514c0-9.773,6.83-17.7,15.256-17.7s15.255,7.924,15.255,17.7-6.83,17.7-15.255,17.7S97.806,66.287,97.806,56.514ZM0,56.514c0-9.773,6.83-17.7,15.255-17.7s15.256,7.924,15.256,17.7-6.83,17.7-15.256,17.7S0,66.287,0,56.514Z" transform="translate(4.848)"/><path d="M31.625,244.4a.259.259,0,0,1-.259-.258,12.953,12.953,0,0,1,12.953-12.953H74.873a12.952,12.952,0,0,1,12.953,12.953.259.259,0,0,1-.259.258ZM97.806,26.544V10.265a10.265,10.265,0,1,1,20.531,0V26.544ZM0,26.544V10.265a10.265,10.265,0,0,1,20.531,0V26.544Z" transform="translate(9.98 25.402)"/><path class="m" d="M21.36,234.984a.259.259,0,0,1-.258-.259,12.953,12.953,0,0,1,12.952-12.953H105.1a12.953,12.953,0,0,1,12.952,12.953.259.259,0,0,1-.259.259ZM97.806,15.127A15.128,15.128,0,0,1,112.933,0H123.17A15.127,15.127,0,0,1,138.3,15.127ZM0,15.127A15.127,15.127,0,0,1,15.127,0H25.364A15.127,15.127,0,0,1,40.491,15.127Z" transform="translate(0 41.386)"/></g><g transform="translate(268.111 43.838)"><path class="n" d="M680.955,261.812q1.906,6.39,3.811,12.783a5.908,5.908,0,0,1,.338,1.784c-.032,1.8-1.738,3.214-3.507,3.548a11.915,11.915,0,0,1-5.315-.629c-.471,1.834-2.618,2.608-4.48,2.959a41.021,41.021,0,0,1-24.648-3.067A67.189,67.189,0,0,0,655.1,264l19.443.859a8.951,8.951,0,0,0,3.407-.289,3.041,3.041,0,0,0,2.126-2.46" transform="translate(9.797 1.831)"/><g transform="translate(591.144 299.604)"><path class="o" d="M613.7,312.523l-1.922-2.213a24.926,24.926,0,0,1-3.307-3.654,7.2,7.2,0,0,1-1.134-2.164,10.978,10.978,0,0,1-.646-2.976.945.945,0,0,0-1.624-.745c-.522.673-.654,3.256.534,6.032s-3.019.569-4.568-.209-6.45-2.959-7.067-2.672c-.9.42-.62,1.465.945,2.206,1.584.75,6.1,3.292,5.648,4.089s-8.27-3.279-8.27-3.279-1.533-1.141-2.083-.236c-.994,1.632,7.646,5.341,8.476,5.673.578.231.12,1.116-.488.834-.624-.289-7.713-4.236-8.739-2.584-.789,1.267,7.077,3.116,8.092,4.753s-5.821-2.009-6.525-.768c-.262.461-.393.843,3.836,2.37,4.331,1.562,16.754,3.888,16.754,3.888l2.018-8.506" transform="translate(-589.399 -292.384)"/><path class="o" d="M646.94,293.372s-7.1,20.439-9.27,20.637c-14.918,1.36-31.138-5.093-31.138-5.093l-4.083,11.5s42.248,18.892,51.359.68c9.668-19.325,9.184-22.357,9.184-22.357Z" transform="translate(-587.58 -293.372)"/></g><path class="p" d="M642.323,399.972c7.563,34.755,57.379,67.086,57.379,67.086l8.478-10.4s-40.033-35.7-41.739-51.582,11.577-40.767,11.577-40.767l-13.767-5.859Z" transform="translate(9.123 15.305)"/><path class="q" d="M657.859,288.158a58.481,58.481,0,0,0-.335-7.429s-5.478-.58-5.811-6.013,0-17.961,0-17.961l9.978-4.878,10.976,8.315L671,287.356Z" transform="translate(10.412 0.446)"/><path class="n" d="M672,264.83s-8.96-.844-10.544-8.978l-9.723,8.978a10.487,10.487,0,0,1,2.435-11.618c5.387-5.6,9.083-4.436,11.2-4.436,1.969,0,11.927,2.111,14.891,13.442.214.822.393,2.855.529,3.776Z" transform="translate(10.323 0)"/><g transform="translate(662.612 264.734)"><path class="r" d="M652.724,264.259a.7.7,0,1,0,.7-.7A.7.7,0,0,0,652.724,264.259Z" transform="translate(-652.039 -262.658)"/><path class="r" d="M652.134,263.612c.09.089.6-.348,1.353-.387s1.31.32,1.389.22c.038-.044-.055-.211-.3-.379a1.847,1.847,0,0,0-2.188.133C652.164,263.4,652.091,263.572,652.134,263.612Z" transform="translate(-652.123 -262.769)"/></g><g transform="translate(670.911 264.734)"><path class="r" d="M659.8,264.259a.7.7,0,1,0,.7-.7A.695.695,0,0,0,659.8,264.259Z" transform="translate(-659.352 -262.658)"/><path class="r" d="M659.419,263.612c.089.089.6-.348,1.351-.387s1.31.32,1.389.22c.039-.044-.055-.211-.3-.379a1.847,1.847,0,0,0-2.188.133C659.447,263.4,659.375,263.572,659.419,263.612Z" transform="translate(-659.407 -262.769)"/></g><g transform="translate(666.304 265.369)"><path class="r" d="M657.282,269.857a5.047,5.047,0,0,0-1.225-.154c-.191-.009-.379-.036-.419-.178a1.069,1.069,0,0,1,.107-.6q.243-.738.513-1.552c.356-1.1.662-2.108.869-2.839a5.008,5.008,0,0,0,.276-1.2,5.007,5.007,0,0,0-.479,1.137c-.26.716-.6,1.709-.954,2.813q-.258.817-.491,1.559a1.209,1.209,0,0,0-.074.782.467.467,0,0,0,.319.27,1.2,1.2,0,0,0,.324.028A5,5,0,0,0,657.282,269.857Z" transform="translate(-655.363 -263.327)"/></g><g class="s" transform="translate(671.816 271.121)"><path class="o" d="M660.2,269.523c.019.62.972,1.064,2.127,1.09s2.117-.378,2.151-1-.916-1.216-2.126-1.241S660.181,268.908,660.2,269.523Z" transform="translate(-660.201 -268.374)"/></g><path class="t" d="M659.66,269.691c.758-.5-2.092,1.245-3.62,1.245a2.071,2.071,0,0,0,2.482.7C660.12,270.966,659.66,269.691,659.66,269.691Z" transform="translate(11.036 2.917)"/><path class="o" d="M656.867,277.5a13.562,13.562,0,0,0,7.2-2.43s-1.631,3.988-7.079,3.764Z" transform="translate(11.151 3.679)"/><path class="u" d="M648.3,345.188a22.846,22.846,0,0,0,.681,4.643l38.533,11.095s2.751-17.417-4.281-27.126c-3.229-4.459-2.506-10.716-1.18-16.059l4.536-18.287-6.041-17.18-24.281,1.648s-14.062-1.4-18.979,17.175l9.029,13.571.112,5.106Z" transform="translate(8.421 4.684)"/><path class="v" d="M687.925,331.515c.426.023,7.386,15.669,1.08,24.964-.579.853-2.023,3-3.987,6.012-9.326,14.312-30.672,48.023-31.376,52.951-.852,5.965-18.087,68.789-18.087,68.789L622.734,482.2l10.457-71.24,17.139-72.635Z" transform="translate(6.392 11.55)"/><path class="n" d="M661.627,254.433s-1.99,3.848-1.139,6.744l-8.71,2.247S649.791,252.384,661.627,254.433Z" transform="translate(10.424 0.767)"/><path class="n" d="M678.295,263.185s1.092,12.5-9.487,14.759l.7-15.091Z" transform="translate(12.816 1.977)"/><g transform="translate(576.889 277.253)"><path class="w" d="M667.836,315.7l-31.667-41.945-59.28,26.832L600.863,323.4l27.03,4.447Z" transform="translate(-576.889 -273.756)"/><path class="x" d="M651.179,316.966l-21.646,9.128-35.4.766L576.889,297.6l36.445-2.436L629.1,323.447l21.943-8.519Z" transform="translate(-576.889 -270.771)"/></g><path class="u" d="M675.255,282.273" transform="translate(13.715 4.684)"/><path class="u" d="M639.4,295.442l-6.049,14.821,13.612,6.792,1.272-12.985Z" transform="translate(7.872 6.52)"/><path class="y" d="M673.224,282.847l-2.32-2.733-9.888,2.46,1.21,2.96Z" transform="translate(11.729 4.383)"/><path class="q" d="M662.574,285.16l-3.956,7.585-.091-7.585.383-2.366h2.7l.967,2.366" transform="translate(11.382 4.757)"/><path class="y" d="M659.1,285.356l.554-2.96-2.444-1.005-2.808,2.618Z" transform="translate(10.807 4.561)"/><g transform="translate(652.501 317.893)"><path class="z" d="M643.249,309.423" transform="translate(-643.249 -309.423)"/></g><g transform="translate(651.049 301.962)"><path class="y" d="M645.691,317.281a1.388,1.388,0,0,0,.193-.992,4.5,4.5,0,0,0-1.2-2.475c-.721-.884-1.8-1.8-2.06-3.205a4.082,4.082,0,0,1,.154-2.171,3.864,3.864,0,0,1,1.4-1.841,4.043,4.043,0,0,1,2.04-.744l.242-.016.034-.242c.409-2.855.9-5.382,1.039-7.214a8.339,8.339,0,0,0-.049-2.94c-.081.006-.059,1.1-.335,2.9-.24,1.8-.8,4.281-1.243,7.181l.276-.256a4.571,4.571,0,0,0-2.354.844,4.4,4.4,0,0,0-1.609,2.136,4.581,4.581,0,0,0-.141,2.482,4.634,4.634,0,0,0,1.012,2c.44.533.894.963,1.273,1.376a4.629,4.629,0,0,1,1.283,2.223A8.274,8.274,0,0,1,645.691,317.281Z" transform="translate(-641.974 -295.442)"/></g><g transform="translate(654.753 304.166)"><path class="y" d="M645.253,297.389c-.134.107.237.78.591,1.635s.584,1.588.754,1.568.2-.86-.2-1.8S645.376,297.284,645.253,297.389Z" transform="translate(-645.225 -297.376)"/></g><g transform="translate(640.771 316.817)"><path class="y" d="M632.955,308.489c-.075.145,3,1.879,6.956,3.689a41.337,41.337,0,0,0,7.337,2.863c.065-.158-3.144-1.6-7.085-3.413S633.033,308.338,632.955,308.489Z" transform="translate(-632.954 -308.479)"/></g><g transform="translate(641.599 314.666)"><path class="y" d="M633.682,306.6c-.078.147,2.7,1.774,6.21,3.635s6.415,3.25,6.494,3.1-2.7-1.775-6.211-3.636S633.761,306.455,633.682,306.6Z" transform="translate(-633.681 -306.592)"/></g><g transform="translate(659.87 304.439)"><path class="y" d="M649.716,297.826c-.01.166.82.351,1.855.411s1.882-.024,1.891-.19-.82-.351-1.855-.411S649.725,297.659,649.716,297.826Z" transform="translate(-649.716 -297.616)"/></g><g transform="translate(659.513 305.224)"><path class="y" d="M649.4,298.378c-.041.162.9.537,2.1.838s2.207.414,2.248.252-.9-.537-2.1-.837S649.444,298.216,649.4,298.378Z" transform="translate(-649.403 -298.304)"/></g><g transform="translate(618.997 485.585)"><path class="aa" d="M622.761,463.759s-11.275,3.014-8.467,3.865,22.37-1.257,22.37-1.257l.648-2.224Z" transform="translate(-613.845 -455.597)"/><path class="aa" d="M635.573,467.366l3.953-10.77H622.239l-.57,8.162Z" transform="translate(-612.754 -456.596)"/></g><g transform="translate(702.095 463.556)"><path class="aa" d="M692.977,455.973s-2.847,11.317-.74,9.277,9.779-20.159,9.779-20.159l-1.629-1.649Z" transform="translate(-686.121 -436.401)"/><path class="aa" d="M702.669,445.953l-7.49-8.691-8.4,15.106,6.856,4.466Z" transform="translate(-686.774 -437.263)"/></g><g transform="translate(659.84 251.604)"><path class="n" d="M661.128,251.29a6.184,6.184,0,0,0-2.681.319,12.025,12.025,0,0,0-8.547,9.181,6.136,6.136,0,0,0-.125,2.7c.1,0,.119-1.026.541-2.6a12.749,12.749,0,0,1,8.258-8.872C660.112,251.483,661.139,251.393,661.128,251.29Z" transform="translate(-649.69 -251.246)"/></g><path class="q" d="M670.669,269.395a6.771,6.771,0,0,1,.292-2.682,2.532,2.532,0,0,1,1.954-1.688,2.141,2.141,0,0,1,2.206,1.783,2.637,2.637,0,0,1-1.343,2.613,3.456,3.456,0,0,1-3.017.084" transform="translate(13.073 2.278)"/><g transform="translate(668.67 261.611)"><path class="r" d="M657.457,264.411c.034,0,.017-.379.189-1.025a4.256,4.256,0,0,1,1.556-2.274,4.147,4.147,0,0,1,3.914-.569,4.083,4.083,0,0,1,1.907,1.439,4.1,4.1,0,0,1,0,4.857,4.079,4.079,0,0,1-1.907,1.44,4.146,4.146,0,0,1-3.914-.569,4.249,4.249,0,0,1-1.556-2.274c-.172-.646-.155-1.028-.189-1.025a.889.889,0,0,0-.017.273,3.371,3.371,0,0,0,.092.78,4.249,4.249,0,0,0,1.54,2.416,4.313,4.313,0,0,0,1.832.835,4.379,4.379,0,0,0,2.307-.176,4.327,4.327,0,0,0,2.05-1.526,4.37,4.37,0,0,0,0-5.207,4.333,4.333,0,0,0-2.05-1.526,4.378,4.378,0,0,0-2.307-.176,4.289,4.289,0,0,0-1.831.836,4.24,4.24,0,0,0-1.542,2.414,3.371,3.371,0,0,0-.092.781A.888.888,0,0,0,657.457,264.411Z" transform="translate(-657.44 -260.028)"/></g><g transform="translate(658.856 261.611)"><path class="r" d="M648.843,264.411c.034,0,.017-.379.19-1.025a4.243,4.243,0,0,1,1.556-2.274,4.147,4.147,0,0,1,3.914-.569,4.074,4.074,0,0,1,1.906,1.439,4.1,4.1,0,0,1,0,4.857,4.078,4.078,0,0,1-1.907,1.44,4.146,4.146,0,0,1-3.914-.569,4.243,4.243,0,0,1-1.556-2.274c-.173-.646-.156-1.028-.19-1.025a.921.921,0,0,0-.016.273,3.373,3.373,0,0,0,.092.78,4.248,4.248,0,0,0,1.541,2.416,4.306,4.306,0,0,0,1.832.835,4.375,4.375,0,0,0,2.306-.176,4.331,4.331,0,0,0,2.051-1.526,4.37,4.37,0,0,0,0-5.207,4.354,4.354,0,0,0-6.189-.865,4.243,4.243,0,0,0-1.541,2.414,3.373,3.373,0,0,0-.092.781A.921.921,0,0,0,648.843,264.411Z" transform="translate(-648.827 -260.028)"/></g><g transform="translate(667.388 265.977)"><path class="r" d="M656.314,264.012c0,.083.35.15.781.15s.78-.067.78-.15-.35-.152-.78-.152S656.314,263.928,656.314,264.012Z" transform="translate(-656.314 -263.86)"/></g><g transform="translate(677.055 266.869)"><path class="r" d="M664.8,264.658a49.171,49.171,0,0,0,7.543,1.489,49.169,49.169,0,0,0-7.543-1.489Z" transform="translate(-664.798 -264.643)"/></g><path class="t" d="M596.2,309.993c.466,1.322,1.626,2.117,2.591,1.776s1.37-1.687.9-3.009-1.627-2.116-2.592-1.775S595.734,308.672,596.2,309.993Z" transform="translate(2.665 8.119)"/><path class="v" d="M665.659,345.9s-.5-50.2,1.248-54.035c0,0,1.853-9.441,9.05-9.593l-3.227.25s-6.546-.456-8.427,12.4-1.757,51.39-1.757,51.39Z" transform="translate(11.942 4.684)"/><path class="v" d="M653.468,347.476s-1.928-57.68-.418-63.757h-1.945s-1.74,4.958-1.383,18.777c.214,8.308,0,44.98,0,44.98Z" transform="translate(10.148 4.886)"/><g transform="translate(621.731 286.957)"><path class="q" d="M635.141,317.2s-9.44,5.988-11.5,5.94-7.966-.2-7.35.614,7.35,1.943,7.35,1.943Z" transform="translate(-616.244 -277.403)"/><path class="q" d="M634.926,332.711s44.694,12.02,50.813-7.4c6.491-20.611,6.593-15.224,6.593-15.224l-14.006-13.517s-7.527,23.752-9.643,24.293c-11.725,2.99-25.089,1.081-29.8.237-.532-.434-1.152-.97-1.841-1.619a7.158,7.158,0,0,1-1.461-1.958,10.946,10.946,0,0,1-1.109-2.836.945.945,0,0,0-1.722-.479c-.408.747-.131,3.318,1.482,5.871,0,0-10.64,6.846-11.5,8.5Z" transform="translate(-615.339 -280.28)"/><path class="u" d="M676.82,282.273s10.206,1.946,10.627,18.015a62.8,62.8,0,0,1-6.091,28.335l-17.324-9.045,12.788-37.306" transform="translate(-609.581 -282.273)"/><g transform="translate(54.502 37.398)"><path class="y" d="M664.077,315.105a15.968,15.968,0,0,0,2.589,1.289c1.617.746,3.836,1.8,6.242,3.051s4.537,2.478,6.073,3.378a15.966,15.966,0,0,0,2.536,1.387,12.161,12.161,0,0,0-2.311-1.749A67.623,67.623,0,0,0,666.833,316,12.179,12.179,0,0,0,664.077,315.105Z" transform="translate(-664.076 -315.095)"/></g><g transform="translate(55.236 36.231)"><path class="y" d="M664.721,314.084a15.736,15.736,0,0,0,2.608,1.114c1.623.644,3.849,1.563,6.242,2.721s4.5,2.335,6.007,3.209a15.622,15.622,0,0,0,2.492,1.354,11.6,11.6,0,0,0-2.268-1.717,52.358,52.358,0,0,0-12.327-5.967A11.548,11.548,0,0,0,664.721,314.084Z" transform="translate(-664.721 -314.071)"/></g><g transform="translate(59.636 13.008)"><path class="y" d="M669.122,299.644a8.166,8.166,0,0,0-.483-5.954,117.83,117.83,0,0,0,.483,5.954Z" transform="translate(-668.583 -293.689)"/></g><g transform="translate(54.515 13.92)"><path class="y" d="M664.1,317.907a17.008,17.008,0,0,0,1.689-3.184,62.9,62.9,0,0,0,4.92-16.644,16.965,16.965,0,0,0,.312-3.59,28.855,28.855,0,0,0-.734,3.517c-.423,2.173-1.086,5.158-2.04,8.4s-2.025,6.1-2.851,8.154A28.476,28.476,0,0,0,664.1,317.907Z" transform="translate(-664.088 -294.49)"/></g></g></g></g></svg>