<svg xmlns="http://www.w3.org/2000/svg" xmlns:xlink="http://www.w3.org/1999/xlink" width="431.707" height="313.5" viewBox="0 0 431.707 313.5"><defs><style>.a,.x{fill:none;}.b{opacity:0.28;}.c{fill:#1a1a1a;}.d{fill:#383838;}.e{opacity:0.22;}.f{fill:#7697cc;}.g,.h{fill:#69a1ac;}.h{opacity:0.41;}.i{opacity:0.09;}.j{fill:#d8deed;}.k{fill:#f2f6fb;}.l{fill:#e1e5f0;}.m{fill:#f2957e;}.n{fill:#f3a28d;}.o{fill:#f6ba99;}.p{fill:#f17f60;}.q{fill:#00143a;}.r{opacity:0.33;}.s{fill:#f3f0eb;}.t{fill:#fcd588;}.u{opacity:0.34;fill:url(#a);}.v{fill:#b4cce9;}.w{fill:#edb758;}.x{stroke:#faecd4;stroke-miterlimit:10;stroke-width:0.1px;}.y{fill:#635449;}.z{clip-path:url(#b);}.aa{fill:#eab860;}.ab{opacity:0.4;}.ac{fill:#89c5cc;}</style><linearGradient id="a" x1="1.61" y1="9.137" x2="1.108" y2="8.854" gradientUnits="objectBoundingBox"><stop offset="0" stop-color="#fff"/><stop offset="0.232" stop-color="#fff" stop-opacity="0.769"/><stop offset="1" stop-color="#fff" stop-opacity="0"/></linearGradient><clipPath id="b"><path class="a" d="M85.422,242.862s-8.3,10.442-6.236,32.648a373.6,373.6,0,0,1,.939,45.6s14.322-5.294,20.851-.34,12.479,7.912,21.579,3.632,21.349,0,21.349,0l-16.6-75.9Z" transform="translate(-78.855 -242.862)"/></clipPath></defs><g transform="translate(-736.293 -245.5)"><g class="b" transform="translate(763.923 260.321)"><path class="c" d="M66.326,283.131V189.1a9.718,9.718,0,0,1,6.365-9.121V75.745A32.332,32.332,0,0,1,14.739,56.057h6.7a25.626,25.626,0,0,0,51.251,0V48.308h6.7v7.749a25.626,25.626,0,0,0,51.251,0h6.7A32.333,32.333,0,0,1,79.054,75.3V179.861a9.717,9.717,0,0,1,6.7,9.238v94.033ZM116.238,20.75C116.238,9.29,124.261,0,134.159,0S152.08,9.29,152.08,20.75,144.057,41.5,134.159,41.5,116.238,32.21,116.238,20.75ZM0,20.75C0,9.29,8.024,0,17.922,0S35.843,9.29,35.843,20.75,27.82,41.5,17.922,41.5,0,32.21,0,20.75Z" transform="translate(6.03)"/><path d="M37.486,260.471a.3.3,0,0,1-.3-.3A15.187,15.187,0,0,1,52.37,244.979H88.321a15.187,15.187,0,0,1,15.188,15.187.3.3,0,0,1-.3.3ZM116.237,19.066V0h24.119V19.066a12.06,12.06,0,0,1-24.119,0ZM0,19.066V0H24.118V19.066A12.059,12.059,0,0,1,0,19.066Z" transform="translate(11.724 26.104)"/><path class="d" d="M116.237,273.523a17.738,17.738,0,0,1,17.738-17.738h12.092A17.737,17.737,0,0,1,163.8,273.523ZM0,273.523a17.738,17.738,0,0,1,17.737-17.738H29.83a17.738,17.738,0,0,1,17.737,17.738Zm70.345-19.411a11.724,11.724,0,1,1,11.724,11.714A11.719,11.719,0,0,1,70.345,254.111ZM39.976,15.492A15.188,15.188,0,0,1,24.789.3a.3.3,0,0,1,.3-.3H138.377a.3.3,0,0,1,.3.3,15.188,15.188,0,0,1-15.187,15.188Z" transform="translate(163.804 294.272) rotate(180)"/></g><g class="e" transform="translate(934 245.5)"><path class="f" d="M24.094,24.427c-5.244,0-14.894-1.8-15.754-7.136H2.53a2.548,2.548,0,0,1-1.9-4.227L6.519,6.325a21.1,21.1,0,0,1,3.18.028C11.384,3.217,14.662.646,20.766.093c7.433-.673,10.3,2.4,11.591,6.617a21.943,21.943,0,0,1,2.964-.378l8.42,7.681a2.552,2.552,0,0,1-1.179,4.379L33.914,20.21c-.575,3.932-4.04,4.227-7.814,4.227C25.437,24.436,24.763,24.427,24.094,24.427Z" transform="translate(43.941 16.8)"/><path class="f" d="M38.943,49.084c-.925,0-1.865-.013-2.8-.013-7.364,0-20.957-2.571-21.99-10.182H3.679a2.548,2.548,0,0,1-1.913-4.207l9.7-11.354a28.28,28.28,0,0,1,4.764.074c2.394-4.275,6.95-7.749,15.277-8.509,10.23-.933,14.262,3.263,16.092,9.064a29.379,29.379,0,0,1,4.571-.629l13.21,12.217a2.552,2.552,0,0,1-1.185,4.366L49.864,42.965c-.721,5.7-5.6,6.119-10.918,6.119ZM13.348,14.758c-3.164,0-8.983-1.089-9.512-4.3H2.53A2.548,2.548,0,0,1,.622,6.241l2.134-2.48a12.483,12.483,0,0,1,1.93.019C5.714,1.912,7.69.387,11.338.056c4.469-.405,6.207,1.435,6.99,3.965a12.932,12.932,0,0,1,1.912-.256l3.623,3.323a2.552,2.552,0,0,1-1.181,4.374l-3.4.718c-.334,2.4-2.434,2.584-4.723,2.584C14.159,14.764,13.752,14.758,13.348,14.758Z" transform="translate(13.159 6.958)"/></g><path class="g" d="M74.412,100.244a18.035,18.035,0,0,1-.386,2.313A6.91,6.91,0,0,0,74.412,100.244ZM70.236,82.118A44.456,44.456,0,0,0,61.107,69.6c.737-2.677,7.9-6.857,3.371-9.071-2.405-1.17-4.686,1.1-5.078,3.4a9.631,9.631,0,0,0,1.015,5q-1.737-1.669-3.589-3.218c-1.7-1.428-3.442-2.809-5.2-4.172,2.629-2.743,4.857-10.306,1.086-11.326-5.569-1.5-2.4,8.49-1.92,10.369a.3.3,0,0,0,.25-.11c-.022.176-.048.363-.081.553-3.356-2.593-6.757-5.13-10.058-7.792a14.458,14.458,0,0,0,1.015-1.5,16.225,16.225,0,0,0,1.965-3.2c.791-1.825,1.5-4.708-.9-5.631-2.609-1.007-3.653,2.266-3.57,4.182a25.447,25.447,0,0,0,.739,3.852c.08.4-.05,2.238.46,1.424a3.911,3.911,0,0,0,.017.649q-.888-.721-1.766-1.457a.685.685,0,0,0,.038-.223.662.662,0,0,0-.98-.574q-1.159-.992-2.293-2.016c-1.6-1.451-3.22-2.945-4.833-4.473.317-.3.164-.69.459-1.009s.9-.517,1.245-.817a8.818,8.818,0,0,0,2.081-2.862c.819-1.719,1.808-5.288-.884-5.945-2.774-.679-3.984,2.769-4.048,4.889a53.925,53.925,0,0,0,.791,5.4c-2.986-2.84-5.931-5.795-8.617-8.817.764-.047,2.849-1.727,3.265-2.177,1.014-1.1,2.593-3.49.655-4.611-1.723-.994-3.695.68-4.328,2.238a21.408,21.408,0,0,0-.372,3.659c-1.114-1.283-2.179-2.576-3.176-3.878q-1-1.3-1.879-2.669a1.247,1.247,0,0,0,.349-.381c2.754-.617,6.07-5.139,2.727-6.477-1.592-.636-3.2.933-3.9,2.185a16.167,16.167,0,0,0-.484,2.511A52.1,52.1,0,0,1,10.521,15.9a.608.608,0,0,0,.444-.588,8.288,8.288,0,0,0,3.205-3.065c.537-.949,1.481-3.1-.265-3.524-2.272-.546-3.5,2.945-3.594,4.638-.011.2.019.765.054,1.285a.752.752,0,0,0-.233.016C9.509,12.6,8.988,10.5,8.55,8.387c1.2-.457,1.076-6.882.215-7.753C6.84-1.315,5.712,1.706,5.891,3.262a10.319,10.319,0,0,0,2.2,4.9c.115.152.084.146.1-.075a.44.44,0,0,0,.118.24,27.928,27.928,0,0,0,.044,2.824,65.36,65.36,0,0,0,1.224,7.305q.2.876.438,1.736A14.257,14.257,0,0,0,7.1,18.529C5.727,18,3.622,17.455,2.34,18.545a2.249,2.249,0,0,0-.08,3.367c1.141,1.148,3.106,1,4.568.807.661-.088,4.193-.558,3.322-1.094a2.866,2.866,0,0,1,.353.146q.139.42.289.837c-.02.013-.037.027-.059.041.024-.012.04-.024.061-.036a32.593,32.593,0,0,0,4.077,7.82,7.664,7.664,0,0,0-1.861-.394c-1.863-.137-5.68,1.5-3.481,3.86,2.108,2.258,5.065-.438,7.3-.905a105.472,105.472,0,0,0,7.579,8.423.6.6,0,0,0-.352.326,14.819,14.819,0,0,0-3.081-1.29c-1.368-.216-4.15-.244-5.109,1.02-1.179,1.555.232,2.693,1.732,2.9,2.176.3,4.94-.9,6.975-1.719a.685.685,0,0,0,.639-.251l.134-.051c2.7,2.677,5.5,5.255,8.277,7.776h-.086a7.17,7.17,0,0,0-2.279-.9c-1.874-.354-4.052-.242-5.484,1.176s-1.834,3.772-.208,5.188c3.255,2.835,7.461-4.238,9.009-4.605,2.821,2.533,5.787,4.882,8.794,7.178a5.129,5.129,0,0,0-1.02-.153c-2.837-.122-9.283,3.687-5.639,6.91,3.175,2.809,6.37-3.086,8.7-5.211,2.833,2.139,5.679,4.261,8.454,6.475a7.724,7.724,0,0,0-4.392.258c-1.578.569-4.1,1.916-2.976,4.029,1.147,2.149,4.2.983,5.784.2a43.916,43.916,0,0,1,4.092-2.431A53.317,53.317,0,0,1,67.751,81.256a46.643,46.643,0,0,1,4.508,10.038c.71,2.237,2.073,5.985,1.995,8.949C75.054,94.277,72.675,87.286,70.236,82.118ZM8.1,11.476c-.236,0-1.123-2.4-1.4-2.751A7.99,7.99,0,0,0,3.534,6.433C1.592,5.594-.874,6.814.308,9.24c.944,1.937,3.5,2.326,5.716,2.326C6.781,11.567,7.5,11.521,8.1,11.476Z" transform="translate(755.367 428.312) rotate(3)"/><path class="h" d="M74.412,100.244a18.035,18.035,0,0,1-.386,2.313A6.91,6.91,0,0,0,74.412,100.244ZM70.236,82.118A44.456,44.456,0,0,0,61.107,69.6c.737-2.677,7.9-6.857,3.371-9.071-2.405-1.17-4.686,1.1-5.078,3.4a9.631,9.631,0,0,0,1.015,5q-1.737-1.669-3.589-3.218c-1.7-1.428-3.442-2.809-5.2-4.172,2.629-2.743,4.857-10.306,1.086-11.326-5.569-1.5-2.4,8.49-1.92,10.369a.3.3,0,0,0,.25-.11c-.022.176-.048.363-.081.553-3.356-2.593-6.757-5.13-10.058-7.792a14.458,14.458,0,0,0,1.015-1.5,16.225,16.225,0,0,0,1.965-3.2c.791-1.825,1.5-4.708-.9-5.631-2.609-1.007-3.653,2.266-3.57,4.182a25.447,25.447,0,0,0,.739,3.852c.08.4-.05,2.238.46,1.424a3.911,3.911,0,0,0,.017.649q-.888-.721-1.766-1.457a.685.685,0,0,0,.038-.223.662.662,0,0,0-.98-.574q-1.159-.992-2.293-2.016c-1.6-1.451-3.22-2.945-4.833-4.473.317-.3.164-.69.459-1.009s.9-.517,1.245-.817a8.818,8.818,0,0,0,2.081-2.862c.819-1.719,1.808-5.288-.884-5.945-2.774-.679-3.984,2.769-4.048,4.889a53.925,53.925,0,0,0,.791,5.4c-2.986-2.84-5.931-5.795-8.617-8.817.764-.047,2.849-1.727,3.265-2.177,1.014-1.1,2.593-3.49.655-4.611-1.723-.994-3.695.68-4.328,2.238a21.408,21.408,0,0,0-.372,3.659c-1.114-1.283-2.179-2.576-3.176-3.878q-1-1.3-1.879-2.669a1.247,1.247,0,0,0,.349-.381c2.754-.617,6.07-5.139,2.727-6.477-1.592-.636-3.2.933-3.9,2.185a16.167,16.167,0,0,0-.484,2.511A52.1,52.1,0,0,1,10.521,15.9a.608.608,0,0,0,.444-.588,8.288,8.288,0,0,0,3.205-3.065c.537-.949,1.481-3.1-.265-3.524-2.272-.546-3.5,2.945-3.594,4.638-.011.2.019.765.054,1.285a.752.752,0,0,0-.233.016C9.509,12.6,8.988,10.5,8.55,8.387c1.2-.457,1.076-6.882.215-7.753C6.84-1.315,5.712,1.706,5.891,3.262a10.319,10.319,0,0,0,2.2,4.9c.115.152.084.146.1-.075a.44.44,0,0,0,.118.24,27.928,27.928,0,0,0,.044,2.824,65.36,65.36,0,0,0,1.224,7.305q.2.876.438,1.736A14.257,14.257,0,0,0,7.1,18.529C5.727,18,3.622,17.455,2.34,18.545a2.249,2.249,0,0,0-.08,3.367c1.141,1.148,3.106,1,4.568.807.661-.088,4.193-.558,3.322-1.094a2.866,2.866,0,0,1,.353.146q.139.42.289.837c-.02.013-.037.027-.059.041.024-.012.04-.024.061-.036a32.593,32.593,0,0,0,4.077,7.82,7.664,7.664,0,0,0-1.861-.394c-1.863-.137-5.68,1.5-3.481,3.86,2.108,2.258,5.065-.438,7.3-.905a105.472,105.472,0,0,0,7.579,8.423.6.6,0,0,0-.352.326,14.819,14.819,0,0,0-3.081-1.29c-1.368-.216-4.15-.244-5.109,1.02-1.179,1.555.232,2.693,1.732,2.9,2.176.3,4.94-.9,6.975-1.719a.685.685,0,0,0,.639-.251l.134-.051c2.7,2.677,5.5,5.255,8.277,7.776h-.086a7.17,7.17,0,0,0-2.279-.9c-1.874-.354-4.052-.242-5.484,1.176s-1.834,3.772-.208,5.188c3.255,2.835,7.461-4.238,9.009-4.605,2.821,2.533,5.787,4.882,8.794,7.178a5.129,5.129,0,0,0-1.02-.153c-2.837-.122-9.283,3.687-5.639,6.91,3.175,2.809,6.37-3.086,8.7-5.211,2.833,2.139,5.679,4.261,8.454,6.475a7.724,7.724,0,0,0-4.392.258c-1.578.569-4.1,1.916-2.976,4.029,1.147,2.149,4.2.983,5.784.2a43.916,43.916,0,0,1,4.092-2.431A53.317,53.317,0,0,1,67.751,81.256a46.643,46.643,0,0,1,4.508,10.038c.71,2.237,2.073,5.985,1.995,8.949C75.054,94.277,72.675,87.286,70.236,82.118ZM8.1,11.476c-.236,0-1.123-2.4-1.4-2.751A7.99,7.99,0,0,0,3.534,6.433C1.592,5.594-.874,6.814.308,9.24c.944,1.937,3.5,2.326,5.716,2.326C6.781,11.567,7.5,11.521,8.1,11.476Z" transform="matrix(0.985, -0.174, 0.174, 0.985, 736.293, 448.428)"/><path class="h" d="M74.412,2.313A18.035,18.035,0,0,0,74.026,0,6.91,6.91,0,0,1,74.412,2.313ZM70.236,20.439a44.456,44.456,0,0,1-9.129,12.514c.737,2.677,7.9,6.857,3.371,9.071-2.405,1.17-4.686-1.1-5.078-3.4a9.631,9.631,0,0,1,1.015-5q-1.737,1.669-3.589,3.218c-1.7,1.428-3.442,2.809-5.2,4.172,2.629,2.743,4.857,10.306,1.086,11.326-5.569,1.5-2.4-8.49-1.92-10.369a.3.3,0,0,1,.25.11c-.022-.176-.048-.363-.081-.553-3.356,2.593-6.757,5.13-10.058,7.792a14.458,14.458,0,0,1,1.015,1.5,16.225,16.225,0,0,1,1.965,3.2c.791,1.825,1.5,4.708-.9,5.631-2.609,1.007-3.653-2.266-3.57-4.182a25.447,25.447,0,0,1,.739-3.852c.08-.4-.05-2.238.46-1.424a3.911,3.911,0,0,1,.017-.649q-.888.721-1.766,1.457a.685.685,0,0,1,.038.223.663.663,0,0,1-.98.574q-1.159.992-2.293,2.016c-1.6,1.451-3.22,2.945-4.833,4.473.317.3.164.69.459,1.009s.9.517,1.245.817a8.818,8.818,0,0,1,2.081,2.862c.819,1.719,1.808,5.288-.884,5.945-2.774.679-3.984-2.769-4.048-4.889a53.925,53.925,0,0,1,.791-5.4c-2.986,2.84-5.931,5.795-8.617,8.817.764.047,2.849,1.727,3.265,2.177,1.014,1.1,2.593,3.49.655,4.611-1.723.994-3.695-.68-4.328-2.238a21.408,21.408,0,0,1-.372-3.659c-1.114,1.283-2.18,2.576-3.176,3.878q-1,1.3-1.879,2.669a1.247,1.247,0,0,1,.349.381c2.754.617,6.07,5.139,2.727,6.477-1.592.636-3.2-.933-3.9-2.185a16.167,16.167,0,0,1-.484-2.511,52.1,52.1,0,0,0-4.157,9.608.608.608,0,0,1,.444.588A8.288,8.288,0,0,1,14.17,90.31c.537.949,1.481,3.1-.265,3.524-2.272.546-3.5-2.945-3.594-4.638-.011-.2.019-.765.054-1.285a.752.752,0,0,1-.233-.016c-.624,2.068-1.145,4.168-1.583,6.276,1.2.457,1.076,6.882.215,7.753-1.925,1.949-3.052-1.072-2.873-2.627a10.319,10.319,0,0,1,2.2-4.9c.115-.152.084-.146.1.075a.44.44,0,0,1,.118-.24,27.928,27.928,0,0,1,.044-2.824A65.36,65.36,0,0,1,9.582,84.1q.2-.876.438-1.736A14.257,14.257,0,0,1,7.1,84.029c-1.376.532-3.481,1.074-4.763-.017a2.249,2.249,0,0,1-.08-3.367c1.141-1.148,3.106-1,4.568-.807.661.088,4.193.558,3.322,1.094a2.867,2.867,0,0,0,.353-.146q.139-.42.289-.837c-.02-.013-.037-.027-.059-.041.024.012.04.024.061.036a32.594,32.594,0,0,1,4.077-7.82,7.664,7.664,0,0,1-1.861.394c-1.863.137-5.68-1.5-3.481-3.86,2.108-2.258,5.065.438,7.3.905a105.472,105.472,0,0,1,7.579-8.423.6.6,0,0,1-.352-.326,14.819,14.819,0,0,1-3.081,1.29c-1.368.216-4.15.244-5.109-1.02-1.179-1.555.232-2.693,1.732-2.9,2.176-.3,4.94.9,6.975,1.719a.685.685,0,0,1,.639.251l.134.051c2.7-2.677,5.5-5.255,8.277-7.776h-.086a7.17,7.17,0,0,1-2.279.9c-1.874.354-4.052.242-5.484-1.176s-1.834-3.772-.208-5.188c3.255-2.835,7.461,4.238,9.009,4.605,2.821-2.533,5.787-4.882,8.794-7.178a5.129,5.129,0,0,1-1.02.153c-2.837.122-9.283-3.687-5.639-6.91,3.175-2.809,6.37,3.086,8.7,5.211,2.833-2.139,5.679-4.261,8.454-6.475a7.724,7.724,0,0,1-4.392-.258c-1.578-.569-4.1-1.916-2.976-4.029,1.147-2.149,4.2-.983,5.784-.2a43.917,43.917,0,0,0,4.092,2.431A53.317,53.317,0,0,0,67.751,21.3a46.642,46.642,0,0,0,4.508-10.038c.71-2.237,2.073-5.985,1.995-8.949C75.054,8.28,72.675,15.271,70.236,20.439ZM8.1,91.081c-.236,0-1.123,2.4-1.4,2.751a7.99,7.99,0,0,1-3.161,2.292c-1.942.839-4.408-.381-3.225-2.807.944-1.937,3.5-2.326,5.716-2.326C6.781,90.991,7.5,91.036,8.1,91.081Z" transform="matrix(-0.766, 0.643, -0.643, -0.766, 887.301, 486.833)"/><path class="h" d="M74.412,2.313A18.035,18.035,0,0,0,74.026,0,6.91,6.91,0,0,1,74.412,2.313ZM70.236,20.439a44.456,44.456,0,0,1-9.129,12.514c.737,2.677,7.9,6.857,3.371,9.071-2.405,1.17-4.686-1.1-5.078-3.4a9.631,9.631,0,0,1,1.015-5q-1.737,1.669-3.589,3.218c-1.7,1.428-3.442,2.809-5.2,4.172,2.629,2.743,4.857,10.306,1.086,11.326-5.569,1.5-2.4-8.49-1.92-10.369a.3.3,0,0,1,.25.11c-.022-.176-.048-.363-.081-.553-3.356,2.593-6.757,5.13-10.058,7.792a14.458,14.458,0,0,1,1.015,1.5,16.225,16.225,0,0,1,1.965,3.2c.791,1.825,1.5,4.708-.9,5.631-2.609,1.007-3.653-2.266-3.57-4.182a25.447,25.447,0,0,1,.739-3.852c.08-.4-.05-2.238.46-1.424a3.911,3.911,0,0,1,.017-.649q-.888.721-1.766,1.457a.685.685,0,0,1,.038.223.663.663,0,0,1-.98.574q-1.159.992-2.293,2.016c-1.6,1.451-3.22,2.945-4.833,4.473.317.3.164.69.459,1.009s.9.517,1.245.817a8.818,8.818,0,0,1,2.081,2.862c.819,1.719,1.808,5.288-.884,5.945-2.774.679-3.984-2.769-4.048-4.889a53.925,53.925,0,0,1,.791-5.4c-2.986,2.84-5.931,5.795-8.617,8.817.764.047,2.849,1.727,3.265,2.177,1.014,1.1,2.593,3.49.655,4.611-1.723.994-3.695-.68-4.328-2.238a21.408,21.408,0,0,1-.372-3.659c-1.114,1.283-2.18,2.576-3.176,3.878q-1,1.3-1.879,2.669a1.247,1.247,0,0,1,.349.381c2.754.617,6.07,5.139,2.727,6.477-1.592.636-3.2-.933-3.9-2.185a16.167,16.167,0,0,1-.484-2.511,52.1,52.1,0,0,0-4.157,9.608.608.608,0,0,1,.444.588A8.288,8.288,0,0,1,14.17,90.31c.537.949,1.481,3.1-.265,3.524-2.272.546-3.5-2.945-3.594-4.638-.011-.2.019-.765.054-1.285a.752.752,0,0,1-.233-.016c-.624,2.068-1.145,4.168-1.583,6.276,1.2.457,1.076,6.882.215,7.753-1.925,1.949-3.052-1.072-2.873-2.627a10.319,10.319,0,0,1,2.2-4.9c.115-.152.084-.146.1.075a.44.44,0,0,1,.118-.24,27.928,27.928,0,0,1,.044-2.824A65.36,65.36,0,0,1,9.582,84.1q.2-.876.438-1.736A14.257,14.257,0,0,1,7.1,84.029c-1.376.532-3.481,1.074-4.763-.017a2.249,2.249,0,0,1-.08-3.367c1.141-1.148,3.106-1,4.568-.807.661.088,4.193.558,3.322,1.094a2.867,2.867,0,0,0,.353-.146q.139-.42.289-.837c-.02-.013-.037-.027-.059-.041.024.012.04.024.061.036a32.594,32.594,0,0,1,4.077-7.82,7.664,7.664,0,0,1-1.861.394c-1.863.137-5.68-1.5-3.481-3.86,2.108-2.258,5.065.438,7.3.905a105.472,105.472,0,0,1,7.579-8.423.6.6,0,0,1-.352-.326,14.819,14.819,0,0,1-3.081,1.29c-1.368.216-4.15.244-5.109-1.02-1.179-1.555.232-2.693,1.732-2.9,2.176-.3,4.94.9,6.975,1.719a.685.685,0,0,1,.639.251l.134.051c2.7-2.677,5.5-5.255,8.277-7.776h-.086a7.17,7.17,0,0,1-2.279.9c-1.874.354-4.052.242-5.484-1.176s-1.834-3.772-.208-5.188c3.255-2.835,7.461,4.238,9.009,4.605,2.821-2.533,5.787-4.882,8.794-7.178a5.129,5.129,0,0,1-1.02.153c-2.837.122-9.283-3.687-5.639-6.91,3.175-2.809,6.37,3.086,8.7,5.211,2.833-2.139,5.679-4.261,8.454-6.475a7.724,7.724,0,0,1-4.392-.258c-1.578-.569-4.1-1.916-2.976-4.029,1.147-2.149,4.2-.983,5.784-.2a43.917,43.917,0,0,0,4.092,2.431A53.317,53.317,0,0,0,67.751,21.3a46.642,46.642,0,0,0,4.508-10.038c.71-2.237,2.073-5.985,1.995-8.949C75.054,8.28,72.675,15.271,70.236,20.439ZM8.1,91.081c-.236,0-1.123,2.4-1.4,2.751a7.99,7.99,0,0,1-3.161,2.292c-1.942.839-4.408-.381-3.225-2.807.944-1.937,3.5-2.326,5.716-2.326C6.781,90.991,7.5,91.036,8.1,91.081Z" transform="translate(864.578 463.255) rotate(113)"/><g transform="translate(875.777 380.773)"><g class="i" transform="translate(0 0)"><path class="j" d="M0,8.306,6.819,1.4A4.723,4.723,0,0,1,10.179,0H239.967a4.723,4.723,0,0,1,3.379,1.423l6.785,6.946Z" transform="translate(0 75.961)"/><path class="k" d="M4.5,93.973a4.5,4.5,0,0,1-4.5-4.5V88.067a4.5,4.5,0,0,1,4.5-4.5H245.631a4.5,4.5,0,0,1,4.5,4.5v1.406a4.5,4.5,0,0,1-4.5,4.5ZM237.229,71.148l-224.3-.061a4.728,4.728,0,0,1-4.724-4.73v-4.8a4.728,4.728,0,0,1,4.726-4.73h224.3a4.727,4.727,0,0,1,4.725,4.73v4.863a4.727,4.727,0,0,1-4.725,4.729Zm0-18.921-224.3-.061a4.728,4.728,0,0,1-4.724-4.73v-4.8a4.728,4.728,0,0,1,4.726-4.73h224.3a4.727,4.727,0,0,1,4.725,4.73V47.5a4.727,4.727,0,0,1-4.725,4.73Zm0-18.921-224.3-.061a4.728,4.728,0,0,1-4.724-4.73v-4.8a4.728,4.728,0,0,1,4.726-4.73h224.3a4.727,4.727,0,0,1,4.725,4.73v4.862a4.727,4.727,0,0,1-4.725,4.73Zm0-18.984L12.93,14.26A4.727,4.727,0,0,1,8.206,9.531V4.73A4.728,4.728,0,0,1,12.932,0h224.3a4.727,4.727,0,0,1,4.725,4.73V9.592a4.727,4.727,0,0,1-4.725,4.73Z" transform="translate(0 0)"/><path class="l" d="M206.707,62.754a4.727,4.727,0,0,1-4.687-4.129L194.515,0h16.066l7.351,57.422a4.728,4.728,0,0,1-4.687,5.331Zm-201.981,0A4.729,4.729,0,0,1,.039,57.422L7.39,0H23.456l-7.5,58.625a4.727,4.727,0,0,1-4.687,4.129Z" transform="translate(16.08 93.973)"/></g></g><g transform="translate(941.668 101.454)"><g transform="translate(67.332 182.901)"><g transform="translate(53.96 53.434)"><path class="m" d="M132.772,233.212l2.017-2.322a26.243,26.243,0,0,0,3.469-3.836,7.587,7.587,0,0,0,1.19-2.269,11.576,11.576,0,0,0,.676-3.122.992.992,0,0,1,1.7-.783c.547.707.686,3.417-.561,6.33s3.168.6,4.793-.22,6.767-3.1,7.413-2.8c.949.442.651,1.539-.99,2.315-1.662.786-6.4,3.453-5.927,4.291s8.678-3.441,8.678-3.441,1.608-1.2,2.185-.247c1.042,1.712-8.022,5.6-8.893,5.952-.607.243-.125,1.171.511.875.656-.3,8.092-4.444,9.169-2.711.829,1.33-7.425,3.27-8.49,4.987s6.108-2.108,6.846-.806c.275.483.413.885-4.025,2.486-4.544,1.639-17.577,4.079-17.577,4.079l-2.118-8.924" transform="translate(-79.139 -212.084)"/><path class="m" d="M117,215.4s7.443,21.443,9.727,21.652c15.652,1.429,32.671-5.343,32.671-5.343l4.283,12.068s-44.328,19.82-53.887.714c-10.144-20.276-9.636-23.459-9.636-23.459Z" transform="translate(-100.151 -215.401)"/></g><path class="n" d="M136.867,306.285c-7.935,36.465-60.2,70.389-60.2,70.389l-8.9-10.914s42-37.46,43.793-54.12-12.145-42.774-12.145-42.774l14.444-6.147Z" transform="translate(-67.051 -131.488)"/><path class="o" d="M105.147,223.3c-.258-1.5.352-7.795.352-7.795s5.748-.608,6.1-6.309,0-18.845,0-18.845l-10.47-5.118L89.61,193.954l1.744,28.5Z" transform="translate(-52.982 -181.402)"/><path class="p" d="M93.7,199.849s9.4-.886,11.063-9.419l10.2,9.419a11,11,0,0,0-2.557-12.19c-5.651-5.871-9.529-4.653-11.746-4.653-2.067,0-12.515,2.216-15.624,14.1-.225.863-.413,3-.554,3.964Z" transform="translate(-56.283 -182.901)"/><g transform="translate(55.205 16.848)"><path class="q" d="M102.8,194.456a.729.729,0,1,1-.728-.73A.729.729,0,0,1,102.8,194.456Z" transform="translate(-100.627 -192.777)"/><path class="q" d="M103.793,194.032c-.094.1-.633-.363-1.419-.406s-1.375.337-1.457.232c-.039-.048.058-.222.316-.4a1.941,1.941,0,0,1,2.3.141C103.763,193.807,103.839,193.991,103.793,194.032Z" transform="translate(-100.909 -193.149)"/></g><g transform="translate(46.498 16.848)"><path class="q" d="M97.662,194.456a.729.729,0,1,1-.728-.73A.729.729,0,0,1,97.662,194.456Z" transform="translate(-95.232 -192.777)"/><path class="q" d="M98.5,194.032c-.094.1-.633-.363-1.417-.406s-1.376.337-1.458.232c-.039-.048.058-.222.316-.4a1.94,1.94,0,0,1,2.3.141C98.467,193.807,98.543,193.991,98.5,194.032Z" transform="translate(-95.613 -193.149)"/></g><g transform="translate(52.08 17.514)"><path class="q" d="M99.143,200.405a5.316,5.316,0,0,1,1.286-.159c.2-.011.4-.039.439-.187a1.1,1.1,0,0,0-.112-.635c-.169-.515-.349-1.059-.538-1.628-.373-1.158-.7-2.211-.911-2.979a5.3,5.3,0,0,1-.291-1.263,5.269,5.269,0,0,1,.5,1.194c.271.75.626,1.794,1,2.951q.271.858.515,1.636a1.262,1.262,0,0,1,.079.82.491.491,0,0,1-.335.283,1.275,1.275,0,0,1-.339.03A5.279,5.279,0,0,1,99.143,200.405Z" transform="translate(-99.008 -193.554)"/></g><g class="r" transform="translate(43.953 23.549)"><path class="m" d="M98.556,198.429c-.02.651-1.019,1.116-2.231,1.144s-2.223-.4-2.259-1.046.962-1.276,2.231-1.3S98.578,197.783,98.556,198.429Z" transform="translate(-94.065 -197.224)"/></g><path class="s" d="M97.565,198.21c-.8-.526,2.195,1.307,3.8,1.307a2.173,2.173,0,0,1-2.6.74C97.081,199.548,97.565,198.21,97.565,198.21Z" transform="translate(-47.943 -173.101)"/><path class="m" d="M102.18,204.641a14.223,14.223,0,0,1-7.552-2.552s1.712,4.186,7.428,3.951Z" transform="translate(-49.75 -170.542)"/><path class="t" d="M125.725,274.616c.4,9.495.745,16.936.745,16.936l-44.847-1.7s-2.885-18.273,4.492-28.462c3.387-4.678,2.629-11.243,1.238-16.849l-4.758-19.187,6.338-18.025,25.476,1.73s14.753-1.467,19.912,18.02l-9.472,14.237-.117,5.358Z" transform="translate(-58.485 -167.166)"/><path class="o" d="M83.21,244.317c-.447.023-5.391,14.577-.666,24.248.475.973,2.123,3.145,4.183,6.309,9.786,15.018,32.182,50.386,32.921,55.557.894,6.258,18.978,72.173,18.978,72.173l13.452-2.131-10.973-74.747-16.343-70.9Z" transform="translate(-58.841 -143.341)"/><path class="p" d="M96.648,187.169s2.088,4.036,1.2,7.075l9.138,2.359S109.066,185.019,96.648,187.169Z" transform="translate(-48.448 -180.324)"/><path class="p" d="M84.5,193.558s-1.146,13.112,9.954,15.484l-.738-15.833Z" transform="translate(-56.296 -176.262)"/><g transform="translate(52.621 29.982)"><path class="u" d="M99.337,245.145l33.225-44.008,62.2,28.153-25.153,23.931-28.36,4.665Z" transform="translate(-99.337 -201.137)"/><path class="v" d="M109.967,239.577l22.71,9.577,37.142.8,18.093-30.7-38.239-2.556-16.542,29.672-23.023-8.938Z" transform="translate(-92.49 -191.109)"/></g><path class="t" d="M85.851,207.33" transform="translate(-55.403 -167.166)"/><path class="o" d="M139.857,255.646s-46.894,12.611-53.313-7.769c-6.812-21.624-6.917-15.973-6.917-15.973l14.7-14.181s7.9,24.92,10.116,25.487c12.3,3.137,26.323,1.136,31.263.248.557-.455,1.207-1.016,1.93-1.7a7.545,7.545,0,0,0,1.534-2.053,11.617,11.617,0,0,0,1.162-2.976.992.992,0,0,1,1.807-.5c.427.786.138,3.482-1.555,6.162,0,0,11.164,7.182,12.07,8.914Z" transform="translate(-59.412 -160.471)"/><path class="t" d="M90.228,207.33s-10.708,2.042-11.151,18.9a65.86,65.86,0,0,0,6.392,29.731l18.174-9.49L91.351,207.33" transform="translate(-59.78 -167.166)"/><path class="t" d="M116.094,216.906l6.347,15.549-14.281,7.126-1.335-13.624Z" transform="translate(-41.893 -160.998)"/><g transform="translate(37.483 53.812)"><path class="w" d="M90.5,221.879c-.166.025-.485-1.4-.337-3.172s.684-3.126.845-3.075-.081,1.424-.214,3.127S90.686,221.859,90.5,221.879Z" transform="translate(-90.13 -215.631)"/></g><g transform="translate(36.499 54.771)"><path class="w" d="M96.821,240.782a17.92,17.92,0,0,1-1.771-3.339,65.927,65.927,0,0,1-5.161-17.464,17.685,17.685,0,0,1-.329-3.765,29.944,29.944,0,0,1,.769,3.689c.444,2.28,1.141,5.411,2.141,8.808s2.124,6.4,2.991,8.556A29.362,29.362,0,0,1,96.821,240.782Z" transform="translate(-89.531 -216.214)"/></g><g transform="translate(25.51 79.402)"><path class="w" d="M101.147,231.206a16.5,16.5,0,0,1-2.714,1.352c-1.7.784-4.026,1.887-6.55,3.2s-4.76,2.6-6.371,3.543a16.805,16.805,0,0,1-2.662,1.457,12.758,12.758,0,0,1,2.425-1.836,71.028,71.028,0,0,1,12.98-6.777A12.82,12.82,0,0,1,101.147,231.206Z" transform="translate(-82.848 -231.195)"/></g><g transform="translate(24.836 78.178)"><path class="w" d="M100.642,230.464a16.519,16.519,0,0,1-2.736,1.169c-1.7.676-4.038,1.641-6.549,2.854s-4.717,2.45-6.3,3.367a16.277,16.277,0,0,1-2.616,1.421,12.154,12.154,0,0,1,2.379-1.8,54.865,54.865,0,0,1,12.934-6.261A12.092,12.092,0,0,1,100.642,230.464Z" transform="translate(-82.438 -230.451)"/></g><path class="w" d="M88.414,208.628l2.434-2.868,10.375,2.581-1.27,3.106Z" transform="translate(-53.753 -168.177)"/><path class="o" d="M95.432,210.192l4.151,7.957.1-7.957-.4-2.482h-2.83l-1.015,2.482" transform="translate(-49.232 -166.921)"/><path class="w" d="M98.242,210.849l-.581-3.106,2.565-1.054,2.945,2.746Z" transform="translate(-47.796 -167.579)"/><g transform="translate(68.71 72.621)"><path class="x" d="M109.123,227.071" transform="translate(-109.123 -227.071)"/></g><g transform="translate(64.314 55.908)"><path class="w" d="M108.47,239.82a1.453,1.453,0,0,1-.2-1.042,4.723,4.723,0,0,1,1.254-2.6c.756-.927,1.887-1.886,2.162-3.362a4.284,4.284,0,0,0-.163-2.277,4.049,4.049,0,0,0-1.471-1.932,4.246,4.246,0,0,0-2.141-.781l-.252-.016-.036-.253c-.431-3-.947-5.646-1.09-7.57a8.754,8.754,0,0,1,.051-3.083c.085,0,.061,1.151.352,3.037.252,1.892.839,4.492,1.3,7.535l-.289-.27a4.8,4.8,0,0,1,2.469.886,4.613,4.613,0,0,1,1.689,2.241,4.8,4.8,0,0,1,.148,2.6,4.891,4.891,0,0,1-1.06,2.095c-.462.557-.939,1.008-1.335,1.442a4.866,4.866,0,0,0-1.348,2.335A8.566,8.566,0,0,0,108.47,239.82Z" transform="translate(-106.449 -216.906)"/></g><g transform="translate(64.786 58.22)"><path class="w" d="M108.268,218.325c.141.112-.248.819-.62,1.716s-.613,1.666-.792,1.644-.209-.9.209-1.891S108.14,218.215,108.268,218.325Z" transform="translate(-106.736 -218.312)"/></g><g transform="translate(66.019 71.493)"><path class="w" d="M122.484,226.4c.079.151-3.149,1.97-7.3,3.87s-7.634,3.162-7.7,3,3.3-1.68,7.433-3.579S122.4,226.237,122.484,226.4Z" transform="translate(-107.486 -226.385)"/></g><g transform="translate(66.818 69.238)"><path class="w" d="M121.3,225.024c.082.153-2.834,1.861-6.514,3.813s-6.731,3.41-6.813,3.255,2.834-1.863,6.516-3.814S121.219,224.87,121.3,225.024Z" transform="translate(-107.972 -225.013)"/></g><g transform="translate(57.048 58.507)"><path class="w" d="M105.961,218.708c.01.174-.862.367-1.947.431s-1.975-.026-1.984-.2.862-.367,1.947-.431S105.951,218.532,105.961,218.708Z" transform="translate(-102.03 -218.486)"/></g><g transform="translate(56.787 59.33)"><path class="w" d="M106.437,219.064c.043.169-.945.562-2.2.878s-2.317.434-2.359.265.945-.562,2.2-.878S106.394,218.895,106.437,219.064Z" transform="translate(-101.871 -218.987)"/></g><g transform="translate(75.773 248.566)"><path class="y" d="M130.8,339.294s11.828,3.16,8.883,4.053-23.472-1.319-23.472-1.319l-.681-2.333Z" transform="translate(-112.061 -330.729)"/><path class="y" d="M117.566,345.385l-4.147-11.3h18.138l.6,8.564Z" transform="translate(-113.419 -334.084)"/></g><g transform="translate(0 225.453)"><path class="y" d="M76.815,337.666s2.989,11.876.776,9.735-10.259-21.15-10.259-21.15l1.708-1.73Z" transform="translate(-67.332 -317.132)"/><path class="y" d="M67.332,329.145l7.858-9.118,8.818,15.849-7.192,4.685Z" transform="translate(-67.332 -320.027)"/></g><g transform="translate(18.945 98.584)"><g class="z"><path class="aa" d="M85.422,242.862s-8.3,10.442-6.236,32.648a373.6,373.6,0,0,1,.939,45.6s14.322-5.294,20.851-.34,12.479,7.912,21.579,3.632,21.349,0,21.349,0l-16.6-75.9Z" transform="translate(-78.855 -242.862)"/><g class="ab" transform="translate(10.401 0.855)"><path class="s" d="M85.316,316.952c-.263,0-.128-16.479.3-36.792s.986-36.783,1.25-36.778.128,16.478-.3,36.8S85.577,316.957,85.316,316.952Z" transform="translate(-85.181 -243.382)"/></g><g class="ab" transform="translate(17.076 1.899)"><path class="s" d="M90.116,317.375c-.263,0-.613-16.418-.784-36.672s-.094-36.684.169-36.686.612,16.415.781,36.677S90.377,317.373,90.116,317.375Z" transform="translate(-89.241 -244.017)"/></g><g class="ab" transform="translate(21.349 2.111)"><path class="s" d="M95.3,322.062a19.394,19.394,0,0,1-.454-3.037c-.233-1.961-.52-4.806-.832-8.323-.628-7.034-1.307-16.77-1.73-27.539s-.5-20.532-.419-27.594c.038-3.53.1-6.387.184-8.36a18.894,18.894,0,0,1,.217-3.063,19.2,19.2,0,0,1,.153,3.066c.028,1.994.067,4.844.118,8.357.092,7.055.28,16.8.7,27.557s.993,20.484,1.447,27.525c.225,3.507.406,6.35.533,8.341A18.954,18.954,0,0,1,95.3,322.062Z" transform="translate(-91.84 -244.146)"/></g><g class="ab" transform="translate(26.984 3.134)"><path class="s" d="M99.571,325.982c-.261.013-1.425-18.156-2.6-40.579s-1.914-40.62-1.652-40.635,1.427,18.153,2.6,40.585S99.833,325.969,99.571,325.982Z" transform="translate(-95.267 -244.768)"/></g><g class="ab" transform="translate(31.267 2.294)"><path class="s" d="M105.773,324.677c-.261.026-2.236-17.956-4.41-40.16s-3.724-40.234-3.463-40.26,2.234,17.954,4.408,40.166S106.035,324.652,105.773,324.677Z" transform="translate(-97.873 -244.257)"/></g><g class="ab" transform="translate(36.611 3.144)"><path class="s" d="M112.95,322.923c-.26.039-3.114-17.426-6.374-39s-5.694-39.109-5.434-39.147,3.112,17.421,6.373,39.005S113.208,322.884,112.95,322.923Z" transform="translate(-101.122 -244.774)"/></g><g class="ab" transform="translate(43.831 4.119)"><path class="s" d="M120.653,324.789a20.534,20.534,0,0,1-.954-3.037c-.559-1.973-1.312-4.839-2.2-8.392-1.774-7.106-4.013-16.977-6.106-27.957s-3.632-20.989-4.594-28.25c-.482-3.63-.835-6.573-1.039-8.61a20.292,20.292,0,0,1-.229-3.176,20.683,20.683,0,0,1,.6,3.129c.319,2.04.774,4.96,1.337,8.561,1.131,7.229,2.777,17.2,4.862,28.169s4.224,20.843,5.827,27.98c.8,3.556,1.448,6.438,1.9,8.456A20.3,20.3,0,0,1,120.653,324.789Z" transform="translate(-105.514 -245.367)"/></g><g class="ab" transform="translate(3.888 -1.225)"><path class="s" d="M82.338,322.944a20.467,20.467,0,0,1-.283-3.178c-.122-2.047-.266-5.013-.406-8.676-.28-7.33-.571-17.466-.354-28.669.122-5.6.383-10.935.733-15.777.2-2.42.375-4.72.62-6.868.21-2.151.465-4.145.709-5.965.22-1.822.5-3.459.727-4.9s.447-2.677.651-3.683a20.378,20.378,0,0,1,.709-3.111,20.484,20.484,0,0,1-.344,3.17c-.146,1.014-.322,2.256-.49,3.7s-.409,3.084-.587,4.908c-.2,1.82-.416,3.813-.59,5.958-.209,2.142-.355,4.438-.531,6.853-.3,4.831-.536,10.149-.658,15.738-.215,11.174-.031,21.3.076,28.628.054,3.666.1,6.632.1,8.684A20.255,20.255,0,0,1,82.338,322.944Z" transform="translate(-81.22 -242.117)"/></g></g></g><path class="p" d="M87.92,195.047a3.032,3.032,0,0,0-2.3-3,5.511,5.511,0,0,0-3.957.621,4.653,4.653,0,0,0-2.631,3c-.316,1.647.753,3.214,1.809,4.516a9.379,9.379,0,0,0,2.213,2.159,3.475,3.475,0,0,0,2.966.457,3.762,3.762,0,0,0,1.874-1.766,6.814,6.814,0,0,0-1.463-8.265" transform="translate(-59.829 -177.105)"/><g transform="translate(26.645 23.058)"><path class="p" d="M84.036,206.673c-.072.023-.34-.515-.454-1.468a7.033,7.033,0,0,1,.59-3.675c.309-.679.7-1.236.977-1.758a4.218,4.218,0,0,0,.523-1.43,4.6,4.6,0,0,0-.12-1.412c.031-.025.161.064.306.3a2.161,2.161,0,0,1,.26,1.144,4,4,0,0,1-.449,1.659c-.273.574-.643,1.141-.919,1.754a8.352,8.352,0,0,0-.722,3.387A7.027,7.027,0,0,1,84.036,206.673Z" transform="translate(-83.538 -196.926)"/></g><g transform="translate(24.234 21.069)"><path class="p" d="M82.075,203.379c-.046-.087.381-.373.973-.917a8.926,8.926,0,0,0,2.825-5.422c.109-.8.1-1.31.2-1.324.074-.012.247.5.252,1.355a7.246,7.246,0,0,1-2.992,5.74C82.623,203.3,82.108,203.447,82.075,203.379Z" transform="translate(-82.072 -195.716)"/></g><g transform="translate(49.01 3.072)"><path class="p" d="M97.141,184.816a6.507,6.507,0,0,1,2.813.335,12.62,12.62,0,0,1,8.967,9.633,6.451,6.451,0,0,1,.132,2.83c-.107,0-.125-1.077-.567-2.726a13.377,13.377,0,0,0-8.666-9.309C98.206,185.018,97.13,184.923,97.141,184.816Z" transform="translate(-97.141 -184.77)"/></g><path class="o" d="M91.028,199.377a7.11,7.11,0,0,0-.306-2.815,2.655,2.655,0,0,0-2.05-1.771,2.245,2.245,0,0,0-2.315,1.871,2.767,2.767,0,0,0,1.411,2.741,3.628,3.628,0,0,0,3.165.089" transform="translate(-55.096 -175.248)"/><g transform="translate(42.636 13.571)"><path class="q" d="M102.356,195.755c-.036,0-.018-.4-.2-1.077a4.439,4.439,0,0,0-1.631-2.386,4.331,4.331,0,0,0-1.835-.8,4.387,4.387,0,0,0-2.272.2,4.278,4.278,0,0,0-2,1.509,4.3,4.3,0,0,0,0,5.1,4.26,4.26,0,0,0,2,1.511,4.344,4.344,0,0,0,4.107-.6,4.439,4.439,0,0,0,1.631-2.386c.183-.677.164-1.079.2-1.075a.959.959,0,0,1,.018.286,3.645,3.645,0,0,1-.1.819,4.459,4.459,0,0,1-1.618,2.535,4.525,4.525,0,0,1-1.922.876,4.6,4.6,0,0,1-2.42-.184,4.543,4.543,0,0,1-2.151-1.6,4.585,4.585,0,0,1,0-5.463,4.583,4.583,0,0,1,4.571-1.784,4.515,4.515,0,0,1,1.922.876,4.447,4.447,0,0,1,1.616,2.534,3.582,3.582,0,0,1,.1.819A.976.976,0,0,1,102.356,195.755Z" transform="translate(-93.264 -191.156)"/></g><g transform="translate(52.933 13.571)"><path class="q" d="M108.619,195.755c-.036,0-.018-.4-.2-1.077a4.466,4.466,0,0,0-1.634-2.386,4.315,4.315,0,0,0-1.833-.8,4.395,4.395,0,0,0-2.274.2,4.282,4.282,0,0,0-2,1.509,4.3,4.3,0,0,0,0,5.1,4.264,4.264,0,0,0,2,1.511,4.342,4.342,0,0,0,4.107-.6,4.457,4.457,0,0,0,1.634-2.386c.181-.677.163-1.079.2-1.075a.934.934,0,0,1,.016.286,3.462,3.462,0,0,1-.1.819,4.446,4.446,0,0,1-1.616,2.535,4.534,4.534,0,0,1-1.922.876,4.6,4.6,0,0,1-2.42-.184,4.535,4.535,0,0,1-2.151-1.6,4.585,4.585,0,0,1,0-5.463,4.57,4.57,0,0,1,6.493-.908,4.438,4.438,0,0,1,1.616,2.534,3.471,3.471,0,0,1,.1.819A.951.951,0,0,1,108.619,195.755Z" transform="translate(-99.527 -191.156)"/></g><g transform="translate(51.455 18.152)"><path class="q" d="M100.264,194.1c0,.087-.367.158-.819.158s-.817-.071-.817-.158.365-.158.817-.158S100.264,194.013,100.264,194.1Z" transform="translate(-98.628 -193.942)"/></g><g transform="translate(35.035 19.087)"><path class="q" d="M96.554,194.526a25.524,25.524,0,0,1-3.926.937,25.771,25.771,0,0,1-3.987.626,25.69,25.69,0,0,1,3.926-.937A26.014,26.014,0,0,1,96.554,194.526Z" transform="translate(-88.641 -194.511)"/></g><path class="o" d="M116.7,232.727s9.9,6.281,12.07,6.231,8.355-.209,7.711.645-7.711,2.039-7.711,2.039Z" transform="translate(-35.532 -150.807)"/></g><path class="s" d="M144.867,228.48c-.49,1.388-1.707,2.221-2.719,1.864s-1.437-1.771-.947-3.158,1.707-2.22,2.719-1.861S145.357,227.1,144.867,228.48Z" transform="translate(47.45 27.273)"/></g><g transform="translate(1113 479)"><path class="ac" d="M42.86,0c1.325,0,2.646.027,3.969.1,1.009.053,2.55-.156,3.4.472.887.653.826,1.99.687,2.933-.732,4.992-2.519,9.418-6.258,12.954C38.9,21.9,32.305,24.668,24.5,25.9c-5.486.866-10.55-.336-14.588-4.237A60.868,60.868,0,0,0,3.6,39.315a42.292,42.292,0,0,0-.626,9.073c.063,1.968.171,3.932.382,5.891.091.851.526,2.14.192,2.944a1.343,1.343,0,0,1-2.3.231c-.493-.67-.4-1.987-.5-2.78C.571,53.355.416,52.036.3,50.712.124,48.569-.009,46.42,0,44.268A48.036,48.036,0,0,1,2.568,29.995c2.82-8.8,7.4-16.625,14.512-22.763,4.376-3.774,9.383-5.3,15.065-6.123A75.529,75.529,0,0,1,42.86,0" transform="translate(0)"/><path class="ac" d="M21.429,0c14.3,0,23.929,11.524,28.483,23.5,1.716,4.515,2.119,9.472,2.78,14.213.212,1.521.134,3.839.751,5.195.224.491.738.668.492,1.338a1.086,1.086,0,0,1-.879.734c-.9.166-2.171-.814-2.942-1.2-6.4-3.208-10.6-8.168-14.027-14.236a60.584,60.584,0,0,1-5.544-11.8,40.769,40.769,0,0,1-1.484-7.8,29.682,29.682,0,0,1-.2-3.122,6.3,6.3,0,0,1,.829-2.468C24.92,2.558,19.534,2.066,14.7,3.937A19.209,19.209,0,0,0,4.439,13.216a17.7,17.7,0,0,0-1.26,3.42A11.772,11.772,0,0,1,2.6,19.1c-.893,1.687-2.771.559-2.59-1.011A20.315,20.315,0,0,1,6.225,6.263,22.349,22.349,0,0,1,21.429,0" transform="translate(1 35)"/></g></g></svg>