<svg xmlns="http://www.w3.org/2000/svg" width="618.019" height="317.457" viewBox="0 0 618.019 317.457"><defs><style>.a{fill:#f2f2f2;}.b,.g{fill:#c1dee2;}.b{opacity:0.2;}.c{opacity:0.7;}.d{fill:#69a1ac;}.e{fill:#89c5cc;}.f{opacity:0.5;}.h{fill:#eab860;}.i{fill:#ffc84c;}.j{fill:#efc692;}.k{fill:none;stroke:#f8c1c5;stroke-miterlimit:10;}.l{fill:#5f90b7;}.m,.r{fill:#00143a;}.m{opacity:0.15;}.n{fill:#7697cc;}.o{fill:#f6ba99;}.p{fill:#133e7c;}.q{fill:#fff1c8;}.s{fill:#fcd588;}.t{opacity:0.33;}.u{fill:#f2957e;}.v{fill:#f3f0eb;}.w{fill:#102d51;}.x{fill:#b4cce9;}</style></defs><g transform="translate(-677 -261.911)"><g transform="translate(677 261.911)"><path class="a" d="M105.1,141.466a25.433,25.433,0,0,1-.545,3.265A9.744,9.744,0,0,0,105.1,141.466Zm-5.9-25.58A62.733,62.733,0,0,0,86.309,98.225c1.041-3.778,11.159-9.678,4.762-12.8-3.4-1.651-6.619,1.553-7.173,4.8-.38,2.229.52,4.956,1.434,7.052q-2.453-2.355-5.069-4.541c-2.4-2.015-4.861-3.964-7.339-5.887,3.714-3.871,6.861-14.545,1.534-15.985-7.866-2.119-3.393,11.982-2.713,14.633a.421.421,0,0,0,.353-.155c-.03.248-.067.513-.115.781-4.74-3.659-9.545-7.239-14.206-11A20.407,20.407,0,0,0,59.21,73.01a22.9,22.9,0,0,0,2.775-4.523c1.118-2.576,2.113-6.644-1.276-7.947-3.686-1.42-5.16,3.2-5.043,5.9a35.883,35.883,0,0,0,1.044,5.436c.113.567-.071,3.159.649,2.01a5.514,5.514,0,0,0,.024.915q-1.255-1.017-2.495-2.056a.966.966,0,0,0,.053-.314.936.936,0,0,0-1.384-.809q-1.637-1.4-3.239-2.846c-2.257-2.048-4.548-4.156-6.827-6.312.448-.427.232-.974.648-1.424s1.265-.73,1.758-1.153a12.447,12.447,0,0,0,2.94-4.039c1.157-2.426,2.553-7.462-1.248-8.391-3.919-.959-5.627,3.908-5.719,6.9a76.038,76.038,0,0,0,1.117,7.627c-4.217-4.008-8.377-8.178-12.171-12.443,1.079-.067,4.025-2.437,4.612-3.073,1.433-1.55,3.663-4.926.925-6.507-2.433-1.4-5.219.96-6.113,3.159a30.188,30.188,0,0,0-.526,5.163c-1.573-1.811-3.078-3.636-4.486-5.472q-1.409-1.831-2.654-3.766a1.761,1.761,0,0,0,.493-.538c3.891-.871,8.575-7.253,3.852-9.141-2.248-.9-4.52,1.317-5.505,3.084A22.8,22.8,0,0,0,20.731,36,73.487,73.487,0,0,1,14.86,22.439a.858.858,0,0,0,.627-.83,11.7,11.7,0,0,0,4.528-4.325c.759-1.34,2.092-4.381-.374-4.973-3.21-.771-4.942,4.156-5.076,6.546-.016.277.027,1.079.076,1.814a1.063,1.063,0,0,0-.329.023c-.881-2.918-1.617-5.882-2.235-8.857,1.7-.645,1.52-9.712.3-10.941C9.661-1.856,8.069,2.407,8.321,4.6a14.555,14.555,0,0,0,3.113,6.915c.162.214.119.206.141-.106a.62.62,0,0,0,.167.339,39.378,39.378,0,0,0,.063,3.985,92.165,92.165,0,0,0,1.729,10.31q.279,1.236.619,2.449a20.14,20.14,0,0,0-4.121-2.348c-1.943-.751-4.917-1.515-6.727.024a3.172,3.172,0,0,0-.113,4.752c1.611,1.62,4.387,1.413,6.452,1.138.934-.124,5.923-.788,4.693-1.544a4.051,4.051,0,0,1,.5.206q.2.593.408,1.181c-.028.019-.052.039-.083.057.033-.017.056-.034.086-.051A45.979,45.979,0,0,0,21,42.947a10.833,10.833,0,0,0-2.629-.556c-2.631-.193-8.023,2.124-4.917,5.448,2.978,3.186,7.155-.618,10.31-1.278a148.876,148.876,0,0,0,10.7,11.886.848.848,0,0,0-.5.46,20.94,20.94,0,0,0-4.352-1.821c-1.932-.3-5.862-.344-7.216,1.44-1.666,2.194.327,3.8,2.446,4.093,3.073.425,6.978-1.269,9.852-2.426a.969.969,0,0,0,.9-.354l.189-.072c3.818,3.777,7.768,7.416,11.691,10.973h-.121a10.132,10.132,0,0,0-3.22-1.268c-2.648-.5-5.723-.342-7.746,1.659s-2.591,5.323-.293,7.321c4.6,4,10.54-5.981,12.726-6.5,3.985,3.574,8.173,6.889,12.421,10.13a7.251,7.251,0,0,0-1.44-.216c-4.008-.172-13.112,5.2-7.966,9.753,4.485,3.964,9-4.355,12.288-7.354,4,3.018,8.022,6.013,11.941,9.138a10.92,10.92,0,0,0-6.2.365c-2.23.8-5.8,2.7-4.2,5.686,1.62,3.032,5.936,1.388,8.171.281,1.219-.6,3.624-2.551,5.78-3.431a75.254,75.254,0,0,1,16.075,18.37,65.791,65.791,0,0,1,6.367,14.166c1,3.157,2.927,8.447,2.817,12.63C106.008,133.045,102.648,123.179,99.2,115.886ZM11.436,16.2c-.334,0-1.586-3.382-1.98-3.882A11.284,11.284,0,0,0,4.991,9.078C2.248,7.894-1.235,9.617.435,13.04c1.333,2.733,4.946,3.283,8.074,3.283C9.578,16.323,10.59,16.259,11.436,16.2Z" transform="translate(209.082 69.971) rotate(3)"/><path class="b" d="M0,102.045a11.887,11.887,0,0,0,.545,2.176A4.594,4.594,0,0,1,0,102.045ZM4.362,83.8a45.39,45.39,0,0,1,9.414-12.77c-.76-2.731-8.148-7-3.477-9.256,2.481-1.194,4.833,1.123,5.238,3.468a9.74,9.74,0,0,1-1.047,5.1q1.791-1.7,3.7-3.284c1.756-1.457,3.549-2.867,5.358-4.257-2.712-2.8-5.01-10.517-1.12-11.558,5.743-1.532,2.477,8.664,1.981,10.581a.309.309,0,0,1-.258-.112c.022.179.049.371.083.564,3.462-2.646,6.969-5.234,10.373-7.951a14.769,14.769,0,0,1-1.047-1.527,16.5,16.5,0,0,1-2.026-3.27c-.816-1.863-1.543-4.8.932-5.746,2.691-1.027,3.767,2.313,3.682,4.267a25.7,25.7,0,0,1-.762,3.931c-.082.41.052,2.284-.474,1.453a3.982,3.982,0,0,1-.018.662q.917-.735,1.821-1.487a.7.7,0,0,1-.039-.227.684.684,0,0,1,1.011-.586q1.2-1.011,2.365-2.057c1.648-1.481,3.321-3.005,4.984-4.564-.327-.309-.17-.7-.473-1.029s-.923-.527-1.284-.833a9,9,0,0,1-2.146-2.921c-.846-1.755-1.865-5.4.911-6.067,2.861-.693,4.108,2.826,4.176,4.989a54.43,54.43,0,0,1-.816,5.515c3.079-2.9,6.117-5.913,8.887-9-.788-.048-2.938-1.762-3.367-2.221-1.046-1.121-2.674-3.562-.676-4.706,1.777-1.014,3.811.694,4.463,2.285a21.563,21.563,0,0,1,.384,3.734c1.148-1.309,2.248-2.629,3.276-3.957q1.028-1.324,1.938-2.723a1.275,1.275,0,0,1-.36-.389c-2.841-.63-6.261-5.245-2.813-6.609,1.641-.649,3.3.953,4.02,2.23a16.326,16.326,0,0,1,.5,2.562,52.827,52.827,0,0,0,4.287-9.8.621.621,0,0,1-.458-.6A8.511,8.511,0,0,1,62.182,12.5c-.554-.969-1.527-3.167.273-3.6,2.343-.557,3.609,3.005,3.707,4.733.011.2-.02.781-.056,1.311a.793.793,0,0,1,.24.017c.643-2.11,1.181-4.254,1.632-6.4C66.74,8.1,66.869,1.539,67.756.651c1.985-1.99,3.148,1.093,2.964,2.681a10.482,10.482,0,0,1-2.274,5c-.118.155-.086.149-.1-.076a.444.444,0,0,1-.122.245,28.118,28.118,0,0,1-.046,2.882,66.045,66.045,0,0,1-1.262,7.454q-.2.895-.452,1.771a14.762,14.762,0,0,1,3.009-1.7c1.419-.543,3.59-1.1,4.912.017a2.279,2.279,0,0,1,.082,3.436c-1.176,1.171-3.2,1.021-4.711.823-.682-.09-4.325-.569-3.427-1.117a3.009,3.009,0,0,0-.364.149q-.143.428-.3.854c.021.014.039.028.061.042-.024-.012-.041-.025-.062-.037a33.138,33.138,0,0,1-4.2,7.98,7.984,7.984,0,0,1,1.92-.4c1.921-.139,5.858,1.536,3.59,3.939-2.175,2.3-5.224-.447-7.528-.924a108.059,108.059,0,0,1-7.816,8.594.618.618,0,0,1,.363.333,15.4,15.4,0,0,1,3.178-1.317c1.41-.22,4.28-.249,5.268,1.041,1.216,1.587-.239,2.748-1.786,2.96-2.243.307-5.094-.918-7.194-1.754a.709.709,0,0,1-.659-.256l-.138-.052c-2.788,2.731-5.673,5.363-8.537,7.934h.089a7.446,7.446,0,0,1,2.351-.917c1.933-.361,4.179-.247,5.656,1.2s1.892,3.849.215,5.294c-3.357,2.893-7.7-4.325-9.292-4.7-2.909,2.584-5.968,4.981-9.069,7.324a5.3,5.3,0,0,1,1.052-.156c2.926-.125,9.574,3.762,5.817,7.052-3.274,2.867-6.57-3.149-8.972-5.318-2.922,2.182-5.857,4.348-8.719,6.607a8.048,8.048,0,0,1,4.53.264c1.628.581,4.232,1.956,3.069,4.112-1.183,2.192-4.334,1-5.966.2a45.283,45.283,0,0,0-4.22-2.481A54.569,54.569,0,0,0,6.924,82.919,47.354,47.354,0,0,0,2.276,93.162C1.544,95.445.138,99.269.219,102.294-.607,96.205,1.846,89.071,4.362,83.8Zm63.85-72.337c.238,0,1.133-2.416,1.414-2.774a8.062,8.062,0,0,1,3.19-2.31c1.959-.846,4.447.385,3.254,2.83-.953,1.952-3.534,2.345-5.769,2.345C69.538,11.552,68.815,11.506,68.212,11.461Z" transform="translate(41.433 3.994) rotate(-3)"/><g class="c" transform="translate(477.988 99.476)"><path class="d" d="M14.756.023C22.19.417,30.882,5.691,30.827,13.8c-.04,5.9-.829,11.695-.555,17.614a47.4,47.4,0,0,0,2.849,13.815c1.538,4.285,5.253,8.186,5.857,12.655a18.778,18.778,0,0,1-1.623,9.331C35.874,70.4,36.5,70.2,38.473,73.211c3.858,5.895,7.261,11.882,9.4,18.663,3.081,9.767,4.6,20.964,2.014,31.03-.328,1.278-1.045,5.913-2.869,6.051-2.037.154-.822-2.412-.625-3.262,1.257-5.421,2.366-10.158,2.132-15.822-.9-21.854-14.865-37.658-23.007-56.981-.454-1-1.386-3.366-2.042-4.931-1.036-2.471-1.858-7.052-3.411-8.966-2.925-3.607-.61,3.27-.1,4.589.639,1.669,1.347,3.446,2.027,4.921,3.1,6.832,6.574,14.3,9.776,21.342C14.5,71.911,4.75,50.409,1.625,36.617-.951,25.255-2.715-.864,14.756.023" transform="matrix(0.995, -0.105, 0.105, 0.995, 0, 64.301)"/><path class="e" d="M55.443.066c-12.429.985-20.408,9.18-24.123,20.641-2,6.177-2.231,12.522-3.344,18.869C26.3,49.125,22.7,56.362,15.665,63.166a23.743,23.743,0,0,0-4.928,6.585,28.048,28.048,0,0,0-5.689,8.123C3.2,81.957,2.672,86.856,4.81,90.927a13.382,13.382,0,0,0,3.495,4.289A84,84,0,0,0,.026,132.975c.208,7.818.59,15.639,1.036,23.447.12,2.1.8,5.559,1.83,2.042.939-3.216-.239-8.265-.348-11.625-.53-16.367-.984-31.249,5.76-46.541q1.061-2.4,2.238-4.77a1.588,1.588,0,0,0,.131-.09c.03.023.057.048.087.07.05-.089.118-.195.2-.313a4.219,4.219,0,0,0,.605-.848,6.15,6.15,0,0,0,1.279-2.334s0-.011,0-.015a220.347,220.347,0,0,1,13.84-19.55c-.037.046,5.3-7.211,4.473-3.2-.4,1.934-4.321,5.617-5.906,7.665A190.965,190.965,0,0,0,14.2,92.832a8.035,8.035,0,0,0-1.581,2.529c-.26.49-.5.983-.74,1.414,12.121,4,21.55-4.058,27.979-13.433l.022-.033a40.746,40.746,0,0,1,6.465-7.21c4.177-3.417,8.651-4.019,13.576-5.7,13.432-4.585,19.142-21.977,20.956-34.882C82.928,20.955,72.918-1.37,55.443.066" transform="translate(58.887 42.231)"/><path class="e" d="M53.417,1.248C38.939,12.609,30.275,29.971,23.035,46.42c-8.086,18.372-14.381,37.3-17.313,57.168C3.8,116.642,1.592,129.742.521,142.9a140.143,140.143,0,0,0-.48,14.072c.008.385.214,10.856,2.123,8.691,1.086-1.231-.194-10.859-.172-12.429a201.2,201.2,0,0,1,2.383-26.384c2.114-14.4,3.7-28.8,7.184-42.956a49.031,49.031,0,0,1,1.813-6.367c.855-2.154.028-1.277,1.916-1.912,1.834-.618,3.933-.2,5.862-1.024,7.65-3.28,12.8-13.745,16.617-20.549A139.178,139.178,0,0,0,48.1,29.313a182.7,182.7,0,0,0,5.115-18.8A50.288,50.288,0,0,1,54.63,4.439a14.044,14.044,0,0,0,.905-1.881c.1-1.016-.426-1.7-.357-2.551q-.893.6-1.761,1.241" transform="translate(36.707 7.724) rotate(-8)"/><path class="e" d="M0,0A39.738,39.738,0,0,0,39.755,39.721,39.738,39.738,0,0,0,79.511,0" transform="translate(20.22 178.26)"/><path class="d" d="M41.652,49.515a6.106,6.106,0,0,1-4.166-1.463,8.352,8.352,0,0,1-2.245-3.605A31.028,31.028,0,0,1,34.059,35.5c-.167-6.228-.807-12.722-6.514-17.655-.672-.58-1.389-1.133-2.082-1.667-.618-.477-1.258-.969-1.863-1.48l-.289-.243c-1.945-1.633-3.956-3.321-4.2-5.991a4.155,4.155,0,0,1,.711-3.242,3.079,3.079,0,0,1,2.408-.855,9.914,9.914,0,0,1,2.046.25c.107.023.4.133.8.284a15.643,15.643,0,0,0,4.07,1.156c.313,0,.519-.071.611-.21a.607.607,0,0,0-.027-.569c-.235-.564-1.042-1.062-2.4-1.48-2.73-.3-5.308-.563-6.843-.563a5.086,5.086,0,0,0-.993.071C14.4,4.416,10.238,8.238,7.111,14.663a55.6,55.6,0,0,0-4.69,17.023c-.116.986-.221,2.053-.321,3.264H0a70.763,70.763,0,0,1,.779-7.866,50.458,50.458,0,0,1,5.554-16.23,24.091,24.091,0,0,1,5.426-6.6A15.094,15.094,0,0,1,19.29.882,11.158,11.158,0,0,1,20.5.838c.79,0,1.742.03,2.68.085A7,7,0,0,1,26.156.046C26.571.016,27,0,27.423,0A21.587,21.587,0,0,1,34.59,1.312,30.878,30.878,0,0,1,41.435,4.79,35.713,35.713,0,0,1,47.35,9.75a29.98,29.98,0,0,1,4.379,5.756,22.2,22.2,0,0,1,2.73,11.075,35.829,35.829,0,0,1-1.912,11.387,26.063,26.063,0,0,1-3.832,7.524c-2.057,2.64-4.4,3.994-6.964,4.023Z" transform="translate(61.065 143.437)"/></g><g class="f" transform="translate(0 28.074)"><path class="d" d="M35.52,12.757C37.809,9.5,42.056,1.216,45.277.051c2.075-.75,1.47,7.012,1.5,8.492a123.959,123.959,0,0,1-1.147,17.094c-1.241,10.24-5.3,19.36-10.868,28.076-2.865,4.485-6.225,9.024-10.879,11.822-2.142,1.289-4.72,1.5-6.836,2.615-2.464,1.293-1.122.248-2.233,2.813-1.542,3.562-2.035,8.156-2.749,11.957C8.785,100.365.854,192.587,2.229,210.333c.122,1.573-2.073,1.949-2.183.029-.582-10.181,4.458-80.687,7-103.744s5.116-43.427,7.7-51.4c3.13-9.678,8.783-21.316,13.489-30.341A107.3,107.3,0,0,1,35.52,12.757Z" transform="translate(61.539 47.882)"/><path class="g" d="M54.685,1.239c5.955-4.368,12.4,3.876,7.012,8.245a5.4,5.4,0,0,1-7.847-.457c-1.138,1.386-2.2,2.836-3.227,4.06-3.119,3.73-6.066,7.55-8.884,11.459-5.852,8.12-10.867,16.7-16.111,25.12-5.175,8.312-10.308,16.666-15,25.188C6.657,82.075,1.36,90.569,0,98.485,2.064,81.7,9.9,65.561,19.223,50.761,28.474,36.083,39.091,20.052,53.414,8.468A5.066,5.066,0,0,1,54.685,1.239Z" transform="translate(59.361 172.485)"/><path class="d" d="M1.042.017C4.374.668,9.82,8.2,12.567,11.07a107.51,107.51,0,0,1,9.018,10.854,183.544,183.544,0,0,1,15.956,26A241.563,241.563,0,0,1,55.294,94.088a190.273,190.273,0,0,1,5.387,30.279c.192,1.917,2.2,16.7-.695,17.1-2.607.359-1.8-11.223-1.928-12.8C56.637,110.89,52.378,93.6,46.453,76.844c-1.29-3.649-2.489-8.119-4.553-11.4C40.414,63.075,41.889,63.9,39.278,63c-2.243-.769-4.8-.581-7.094-1.523-4.989-2.044-8.983-6.012-12.485-10C12.894,43.721,7.5,35.328,4.69,25.389A125.517,125.517,0,0,1,.9,8.652C.7,7.184-1.1-.4,1.042.017Z" transform="translate(0 132.765)"/><path class="e" d="M7.658,7.463A301.585,301.585,0,0,1,37.187,77.306c4.036,14.662,6.858,29.708,9.662,44.645,4.342,23.128,8.448,46.254,9.617,69.793,1.175,23.675,3.5,50.982-4.26,73.785,3.876-23.151.186-47.794-.468-71.089-.312-11.121-1.217-22.133-2.4-33.188-1.152-10.725-3.033-21.4-4.786-32.038q-1.28-7.773-2.663-15.528c-.272-1.543-.388-6.121-1.367-7.175s-6.016-1.493-7.6-2.272A40.778,40.778,0,0,1,24.1,98.091,70.394,70.394,0,0,1,11.129,81.875C3.066,68.43-.157,52.023.006,36.453.037,33.43,4.9.876,2.949.428Q3.125.221,3.283,0,5.5,3.713,7.658,7.463Z" transform="translate(6.535)"/><path class="e" d="M89.774,2.115c.194-.279,1.454-2.22.819-2.1,1.292-.253-1.778,2.141,1.443.672-1.529,1.443-.647,3.317-.626,5.259a47.056,47.056,0,0,1-1.089,9.365,64.176,64.176,0,0,1-4.369,14.154,63.436,63.436,0,0,1-20.863,25.58c-4.4,3.051-8.721,4.09-13.745,5.495-3.173.887-3.425,2.527-5.109,5.6-3.507,6.407-6.951,12.792-10.043,19.416-3.693,7.909-7.277,15.827-10.658,23.876C14.143,136.55,4.872,164.638,0,193.706c-.119-17.13,3.847-34.772,8.85-51.1A304.814,304.814,0,0,1,22.3,107.893c1.226-2.75,3.084-6.287,3.605-9.323.365-2.127-.75-4.173-1.26-6.414a67.057,67.057,0,0,1-.1-27.275c1.927-9.674,7.5-14.164,16.923-15.534,3.447-.5,7.828-.318,10.988-1.786,3.443-1.6,4.864-6.855,6.822-10.229A139.119,139.119,0,0,1,77.961,11.941a60.585,60.585,0,0,1,6.39-5.874C85.781,4.926,88.8,3.521,89.774,2.115Z" transform="translate(59.905 83.794)"/><path class="g" d="M.82,3.118A2.721,2.721,0,0,1,3.514,0H36.961a2.721,2.721,0,0,1,2.694,3.118L37.07,20.632a10.889,10.889,0,0,1-10.775,9.295H14.181A10.889,10.889,0,0,1,3.405,20.632Z" transform="translate(40.485 259)"/></g><g transform="translate(5.446 269.662)"><path class="a" d="M0,0C0,11.583.915,20.973,13.194,20.973S26.389,11.583,26.389,0" transform="translate(8.396 26.366)"/><path class="a" d="M25.244,19.139a24.242,24.242,0,0,0-1.206,2.376,32.479,32.479,0,0,1,.33-5.021c.428-2.9,1.082-5.785,1.7-8.665.442-2.07.414-5.788,2.09-7.437.46-.356.57.343.57.646.006.064,0-1.239-.448-1.012C25.626,1.4,24.766,5.7,23.917,7.854a41.441,41.441,0,0,0-2.727,9.633,21.559,21.559,0,0,0-.183,2.478c-.09-.221-.175-.443-.269-.663A44.729,44.729,0,0,0,14.564,8.986C13.93,8.191,5.955.353,5.33,1.553a.827.827,0,0,0,.387.434c.012.013.012.006.005-.014.468.756,1.8,1.924,2.215,2.586a50.017,50.017,0,0,1,2.68,5.171c1.742,3.667,3.358,7.371,4.925,11.082.365.865.745,1.724,1.133,2.581C12.676,17.632,7.343,12.4,0,9.406c2.508,1.275,4.152,3.673,5.846,5.509,2.043,2.215,4.194,4.37,6.241,6.583,2.414,2.61,5.254,5.358,7.576,8.247a86.929,86.929,0,0,1,5.783,14.4c-.553-1.713-.043-4.081-.138-5.879A39.686,39.686,0,0,0,24.835,34a8.757,8.757,0,0,1,.639,1.873c-.1-1-.218-1.989-.343-2.975.321-.923.636-1.785.85-2.495a64.061,64.061,0,0,1,4.162-10.707,95.56,95.56,0,0,1,5.565-9.5c.955-1.44,1.923-2.874,2.885-4.311A22.7,22.7,0,0,1,40.7,2.535c-5.668,5.177-11.86,10.392-15.455,16.6" transform="translate(0 0)"/></g></g><g transform="translate(310.325 3.863)"><path class="h" d="M564.51,459.151l-1,5s-8.606-3.293-10-2,25,12,25,12l3-8Z" transform="translate(47.049 83.986)"/><path class="i" d="M664.76,454.237l7,30h-4l-18-30Z" transform="translate(124.799 79.9)"/><path class="j" d="M536.559,438.2s-17.273-23.79-36-7,13.063,23.876,15,51,8.252,42,47,42h123l8-157s-134.313-1.624-144,10S533.977,407.2,536.559,438.2Z" transform="translate(0 9.942)"/><path class="j" d="M740.791,438.174s17.271-23.79,36-7-13.061,23.876-15,51-7.252,42-46,42h-124l-5-157s131.313-1.624,141,10S743.376,407.177,740.791,438.174Z" transform="translate(73.768 9.963)"/><path class="i" d="M531.682,454.237l-7,30h4l18-30Z" transform="translate(23.877 79.9)"/><g transform="translate(749.512 496.806)"><path class="k" d="M635.557,433.4" transform="translate(-636.011 -433.565)"/></g><g transform="translate(513.095 450.893)"><path class="l" d="M506.41,410.356c-.083-.06.417-.457,1-1a4.11,4.11,0,0,1,3-1c.725.022,1.224-.469,2,0a7.049,7.049,0,0,1,2,3c.184.474-.023.475,0,1a7.733,7.733,0,0,1,0,2,5.355,5.355,0,0,1-2,3c-1.03.685-1.916.157-3,0-.545-.07-1.526.225-2,0s-.627-.652-1-1c-.767-.678-.861-2.107-1-3a3.4,3.4,0,0,1,0-2,3.136,3.136,0,0,1,2-2c.736-.314.982-1.1,1-1,.032.132-.491.574-1,1a3.341,3.341,0,0,0-1,2,4.79,4.79,0,0,0,0,2,4.059,4.059,0,0,0,1,2,3.4,3.4,0,0,0,4,0,3.589,3.589,0,0,0,1-4c-.2-.664-.511-.632-1-1s-.448-.915-1-1a6.471,6.471,0,0,0-3,0C506.813,409.65,506.515,410.441,506.41,410.356Z" transform="translate(-504.947 -408.112)"/></g><g transform="translate(832.416 448.643)"><path class="l" d="M684.113,408.359c-.072-.072.4-.628,1-1a5.7,5.7,0,0,1,5,1c.539.6-.009,1.094,0,2,.025.906.547,2.2,0,3a5.9,5.9,0,0,1-3,2c-1.066.236-2.165-.529-3-1a4.953,4.953,0,0,1-2-2c-.42-.786-.134-1.228,0-2a4.793,4.793,0,0,1,1-2,2.316,2.316,0,0,1,2-1c.684-.09,1-.1,1,0,0,.13-.5-.26-1,0s-.513,1.183-1,2a2.941,2.941,0,0,0,0,3,2.649,2.649,0,0,0,3,1c1.176-.263,1.98-1.9,2-3,.07-1.127-1.147-1.625-2-2a2.673,2.673,0,0,0-2,0C684.571,408.476,684.2,408.458,684.113,408.359Z" transform="translate(-681.971 -406.865)"/></g><g transform="translate(678.068 385.268)"><path class="l" d="M596.894,424.6c-.234.005.184-2.177,0-7s-.227-11.633,0-19,.516-14.2,1-19,.767-8.02,1-8,.17,3.186,0,8c-.173,4.84-.74,11.671-1,19-.195,7.325.128,14.157,0,19C597.763,422.417,597.14,424.595,596.894,424.6Z" transform="translate(-596.404 -371.731)"/></g><g transform="translate(542.139 382.834)"><path class="l" d="M785.468,410.685c-.031-.007-.054.494,0,0,.032-.245-.045-.639,0-1s-.027-.52,0-1a23.166,23.166,0,0,0-1-9c-1.29-3.379-4.174-6.537-8-10a36.959,36.959,0,0,0-15-8,124.008,124.008,0,0,0-21-4c-3.84-.44-7.9-.618-12-1-2.049-.206-3.893-.791-6-1-2.111-.18-4.835-.814-7-1-8.664-.75-17.552-.5-27-1-9.452-.462-18.965-.812-29-1-20.073-.381-39.608-.492-57,0-8.7.274-16.269.643-24,1s-15.5.219-22,1a64.452,64.452,0,0,0-17,4,38.571,38.571,0,0,0-11,7,36.863,36.863,0,0,0-6,7c-.263.4-.8.691-1,1-.184.314.126-.216,0,0-.258.424.029,1.013,0,1a1.33,1.33,0,0,1,0-1h0c.171-.328.758-1.576,1-2a24.786,24.786,0,0,1,5-6c2.711-2.538,7.149-4.891,12-7a61.969,61.969,0,0,1,17-5c6.575-.87,13.274-1.565,21-2,7.735-.418,16.295-.683,25-1,17.41-.581,36.889-.382,57,0,10.051.186,19.532.517,29,1,9.466.525,18.322,1.2,27,2,2.17.2,4.886-.191,7,0,2.111.224,3.947.782,6,1,4.107.409,8.156.526,12,1a120.753,120.753,0,0,1,21,4,41.271,41.271,0,0,1,16,9,26.306,26.306,0,0,1,7,11c1.223,3.543,2.177,7.066,2,9-.058.485-.919.637-1,1s.054.753,0,1C785.354,411.172,785.495,410.69,785.468,410.685Z" transform="translate(-521.048 -370.382)"/></g><g transform="translate(554.236 490.985)"><path class="l" d="M557.077,447.49c-.231.15-1.841-1.752-4-4-.272-.28-.7-.7-1-1s.332.316,0,0c-.653-.639-2.219-1.334-3-2a40.546,40.546,0,0,0-5-4,48.432,48.432,0,0,0-6-3c-.963-.346-2.122-.755-3-1-.437-.132-.59.107-1,0s-.621-.9-1-1c-3.023-.75-5.015-.726-5-1,.005-.2,1.805-.464,5,0,.4.065.565-.072,1,0s.536.9,1,1c.931.195,1.979-.319,3,0a44.509,44.509,0,0,1,7,3,30.794,30.794,0,0,1,5,4c.785.725,2.365,2.289,3,3,.321.348-.281.663,0,1s.744-.312,1,0C556.072,445.03,557.25,447.384,557.077,447.49Z" transform="translate(-527.754 -430.338)"/></g><g transform="translate(644.862 502.871)"><path class="l" d="M608.692,449.194c-.166.2-1.433-1.46-4-3-1.279-.777-3.243-1.107-5-2-1.766-.873-3.879-2.19-6-3s-4.1-1.488-6-2c-1.91-.491-3.526-.74-5-1-2.944-.538-5.007-.737-5-1,0-.216,1.937-.235,5,0a53.768,53.768,0,0,1,6,1,45.287,45.287,0,0,1,6,2c2.2.835,4.218,1.024,6,2a30.931,30.931,0,0,1,4,3C607.147,447.041,608.833,449.028,608.692,449.194Z" transform="translate(-577.995 -436.928)"/></g><g transform="translate(754.281 479.036)"><path class="l" d="M693.933,423.815c.215.428-11.833,6.386-27,14s-27.785,14.429-28,14,11.83-7.379,27-15S693.718,423.388,693.933,423.815Z" transform="translate(-638.655 -423.714)"/></g><g transform="translate(542.644 464.515)"><path class="l" d="M536.242,443.286c-.37.271-4.905-5.274-9-13-4.118-7.715-6.429-14.845-6-15,.467-.182,3.938,6.4,8,14C533.276,436.9,536.655,443,536.242,443.286Z" transform="translate(-521.328 -415.664)"/></g><g transform="translate(581.353 505.298)"><path class="l" d="M598.993,438.112c.029.233-3.982,1.311-9,2s-11.285,1.562-19,2-14.938.123-20,0-8-.769-8-1c0-.249,2.955.193,8,0s12.314-.567,20-1,13.965-.623,19-1S598.962,437.869,598.993,438.112Z" transform="translate(-542.787 -438.273)"/></g><path class="m" d="M528.9,454.237l-1,4,13,1,3-5Z" transform="translate(26.657 79.9)"/><path class="m" d="M649.76,454.155l3,5,13-1-1-4Z" transform="translate(124.799 79.982)"/><path class="n" d="M647.577,420.079s-48.008-2.937-54,5-35,66-35,66l21,8s28.413-54.509,36-55,58,0,58,0l19-10Z" transform="translate(50.981 52.059)"/><g transform="translate(666.856 354.89)"><path class="o" d="M642.661,397.664s-6.281,35.607-18,36-28-22-28-22l10-11s11.367,14.347,15,13,7-21,7-21Z" transform="translate(-584.958 -324.417)"/><path class="p" d="M690.719,419.205h-15l-54,2-14-1,37,14Z" transform="translate(-576.016 -302.958)"/><path class="q" d="M685.675,411.294s1.022-30.085-28-30h-10s-34.435-4.284-35,29Z" transform="translate(-571.972 -334.047)"/><path class="q" d="M667.845,394.525s-.16,33.131,1,38,6.552,7.609,4,9-55.84.7-57,0,.224-4.443,1-5c6.03-4.313,9.3-27.8,11-41Z" transform="translate(-570.141 -323.279)"/><path class="n" d="M697.44,419.206l-98,32,6,17s101.323-20.835,104-25S716.486,418.909,697.44,419.206Z" transform="translate(-582.736 -302.959)"/><path class="o" d="M671.4,397.674s3.164,36.412-8,40-33-13-33-13l7-13s13.876,10.289,17,8,1-22,1-22Z" transform="translate(-557.697 -320.427)"/><path class="o" d="M615.891,412.156l-1-3a41.122,41.122,0,0,1-1-6,8.866,8.866,0,0,1,0-3c.285-1.187.493-3.221,1-4,.63-.963-.022-1.368-1-1s-2.459,2.333-3,6-3.882-1.193-5-3-4.17-6.906-5-7c-1.214-.141-2.16,1.221-1,3,1.174,1.8,3.985,7.453,3,8-.967.536-6-9-6-9s-.844-2.593-2-2c-2.087,1.068,4.345,11.12,5,12,.454.613-.545.684-1,0-.467-.7-4.864-9.068-7-8-1.638.819,4.989,7.635,5,10s-4.465-5.848-6-5c-.57.314-1.442.687,2,5,3.525,4.418,15,15,15,15l8-8" transform="translate(-590.188 -325.909)"/><g transform="translate(61.979 75.984)"><ellipse class="r" cx="2.5" rx="2.5" transform="translate(-0.275 0.263)"/></g><g transform="translate(62.564 77.715)"><path class="r" d="M625.011,398.506a.959.959,0,0,1,1-1,2.979,2.979,0,0,1,2,1c-.007.191-1.107.029-2,0S625,398.7,625.011,398.506Z" transform="translate(-624.872 -397.974)"/></g><path class="o" d="M679.845,394.286h-65s4.681-13.734,27-13S668.869,376.538,679.845,394.286Z" transform="translate(-570.142 -334.039)"/><g transform="translate(53.095)"><path class="s" d="M626.231,362.3c.11-.658,7,0,7,0l2,35c-4.324,2.3-10.128,5.489-15,5-.828-3.382-1.779-7.006,0-10,.859-1.447,2.309-2.467,3-4,.906-2.009.4-4.83,0-7a17.019,17.019,0,0,1,0-5c.442-4.7,4.191-9.431,3-14" transform="translate(-619.623 -349.053)"/><path class="o" d="M631.874,402.141c.3-1.753-1-9-1-9s-6.592-1.333-7-8,0-22,0-22l12-6,14,10-2,34Z" transform="translate(-616.265 -352.894)"/><path class="s" d="M649.315,375.137s-11.057-1.019-13-11l-12,11a14.117,14.117,0,0,1,3-15c6.611-6.869,11.406-5,14-5,2.417,0,14.362,2.094,18,16,.263,1.008.832,3.869,1,5Z" transform="translate(-616.706 -354.89)"/><g transform="translate(8.213 19.709)"><path class="r" d="M624.2,366.859a1,1,0,0,0,2,0c0-.471-.529,0-1,0S624.2,366.388,624.2,366.859Z" transform="translate(-623.801 -365.321)"/><path class="r" d="M624.571,366.354c.11.112.082.05,1,0s1.906.121,2,0c.049-.056.3.207,0,0s-1.426-1.034-2-1-.733.76-1,1S624.517,366.306,624.571,366.354Z" transform="translate(-624.176 -365.817)"/></g><g transform="translate(18.398 19.709)"><path class="r" d="M629.789,366.859a1,1,0,0,0,2,0c0-.471-.527,0-1,0S629.789,366.388,629.789,366.859Z" transform="translate(-629.58 -365.321)"/><path class="r" d="M630.032,366.354c.108.112.082.05,1,0s1.9.121,2,0c.047-.056.3.207,0,0s-1.428-1.034-2-1-.731.76-1,1S629.976,366.306,630.032,366.354Z" transform="translate(-629.822 -365.817)"/></g><g transform="translate(12.754 20.489)"><path class="r" d="M628.548,374.007c0,.047-.067,0-1,0-.115,0,.15.04,0,0s-.933.173-1,0a1.642,1.642,0,0,1,0-1c.188-.6.789-1.329,1-2,.437-1.355.686-2.123,1-3a9.619,9.619,0,0,1,1-2,12.148,12.148,0,0,0-1,2c-.254.9-.563,1.643-1,3-.222.666.2,1.4,0,2-.1.29-1.067.816-1,1s.766-.009,1,0A8.652,8.652,0,0,0,628.548,374.007Z" transform="translate(-626.693 -366.249)"/></g><g class="t" transform="translate(19.509 27.548)"><path class="u" d="M630.537,371.861c.025.761,1.582.969,3,1s1.959-.241,2-1a1.949,1.949,0,0,0-2-2C632.055,369.827,630.512,371.107,630.537,371.861Z" transform="translate(-630.438 -370.162)"/></g><path class="v" d="M632.13,371.1c.931-.617-3.126,2-5,2a2.455,2.455,0,0,0,3,1A3.47,3.47,0,0,0,632.13,371.1Z" transform="translate(-613.522 -341.851)"/><path class="u" d="M627.614,378.691a17.109,17.109,0,0,0,9-3s-2.313,4.274-9,4Z" transform="translate(-613.006 -338.444)"/><path class="s" d="M635.864,359.707s-2.043,4.445-1,8l-11,3S621.338,357.19,635.864,359.707Z" transform="translate(-616.256 -351.46)"/><path class="s" d="M650.832,368.851a198.84,198.84,0,0,1,2,26c-4.538,1.7-9.155,3.09-14,3-.815-.013-1.3-.587-2-1a4.784,4.784,0,0,1-2-4c.1-3.406,1.729-6.6,2-10,.276-3.469-1.013-6.663-2-10a15.429,15.429,0,0,1,0-10Z" transform="translate(-608.224 -348.604)"/></g><g transform="translate(54.454 122.716)"><path class="w" d="M620.625,422.452c.056-.184,5.091,1.232,11,3s10.054,3.816,10,4-5.087-1.23-11-3S620.571,422.636,620.625,422.452Z" transform="translate(-620.376 -422.921)"/></g><g transform="translate(89.679 118.546)"><path class="w" d="M639.928,427.31c-.027-.1,1.227-1.046,4-2,2.778-.929,6.647-1.826,11-3,4.362-1.192,9.058-2.326,12-2a11.557,11.557,0,0,1,3,1,1.416,1.416,0,0,1,1,1,10.27,10.27,0,0,0-4-1,32.754,32.754,0,0,0-11,1c-4.3,1.16-8.172,3.188-11,4-1.411.417-3.2-.188-4,0A1.53,1.53,0,0,0,639.928,427.31Z" transform="translate(-639.904 -420.61)"/></g><g transform="translate(44.594 86.082)"><path class="x" d="M673.019,402.777l-7,37s-45.526-.861-46-1-5-36-5-36Z" transform="translate(-614.91 -402.612)"/><path class="v" d="M628.91,413.426c0,1.847,1.492,4,3,4s2-2.153,2-4-.494-3-2-3A2.968,2.968,0,0,0,628.91,413.426Z" transform="translate(-603.801 -396.261)"/></g></g><g transform="translate(700.033 480.189)"><path class="w" d="M608.106,442.3c-.014-.047,1.631-.567,3-1,1.409-.437,2.565-1.248,5-2,4.919-1.508,12.536-3.583,20-6s14.148-4.294,19-6c2.4-.842,3.611-1.513,5-2,1.36-.471,2.982-1.043,3-1s-1.669.452-3,1-2.594,1.089-5,2c-4.814,1.826-11.527,4.574-19,7s-14.043,4.615-19,6c-2.479.694-4.6.648-6,1S608.117,442.346,608.106,442.3Z" transform="translate(-608.581 -424.353)"/></g><path class="h" d="M600.195,439.513c1.268-.067-2.172,20.216,0,20s5-8,5-8Z" transform="translate(84.364 67.625)"/></g></g></svg>