<svg width="17" height="20" viewBox="0 0 17 20" fill="none" xmlns="http://www.w3.org/2000/svg">
<path d="M3.6 3.2H10.8C11.0208 3.2 11.2 3.0208 11.2 2.8V2C11.2 1.3384 10.6624 0.8 10 0.8H8.5808C8.2976 0.312 7.7736 0 7.2 0C6.6264 0 6.1024 0.312 5.8192 0.8H4.4C3.7384 0.8 3.2 1.3384 3.2 2V2.8C3.2 3.0208 3.3792 3.2 3.6 3.2ZM12.4 10.4C9.9744 10.4 8 12.3736 8 14.8C8 17.2264 9.9752 19.2 12.4 19.2C14.8248 19.2 16.8 17.2264 16.8 14.8C16.8 12.3736 14.8256 10.4 12.4 10.4ZM14 15.2H12.8V16.4C12.8 16.6208 12.6208 16.8 12.4 16.8C12.1792 16.8 12 16.6208 12 16.4V15.2H10.8C10.5792 15.2 10.4 15.0208 10.4 14.8C10.4 14.5792 10.5792 14.4 10.8 14.4H12V13.2C12 12.9792 12.1792 12.8 12.4 12.8C12.6208 12.8 12.8 12.9792 12.8 13.2V14.4H14C14.2208 14.4 14.4 14.5792 14.4 14.8C14.4 15.0208 14.2208 15.2 14 15.2ZM7.2 14.8C7.2 11.9328 9.5328 9.6 12.4 9.6C12.8992 9.6 13.3992 9.6736 13.8856 9.8184C14.0072 9.856 14.1384 9.832 14.2384 9.756C14.34 9.6808 14.3992 9.5616 14.3992 9.4352V2.8C14.4 2.1384 13.8608 1.6 13.2 1.6H12.4C12.1792 1.6 12 1.7792 12 2V2.8C12 3.4616 11.4608 4 10.8 4H3.6C2.9376 4 2.4 3.4616 2.4 2.8V2C2.4 1.7792 2.2208 1.6 2 1.6H1.2C0.5376 1.6 0 2.1384 0 2.8V18C0 18.6616 0.5376 19.2 1.2 19.2H8.484C8.4896 19.2 8.496 19.2008 8.5 19.2C8.7208 19.2 8.9 19.0208 8.9 18.8C8.9 18.6544 8.8224 18.528 8.7072 18.4576C7.7352 17.4768 7.2 16.1808 7.2 14.8Z" fill="#64676A" fill-opacity="0.57"/>
</svg>
