<svg width="20" height="21" viewBox="0 0 20 21" fill="none" xmlns="http://www.w3.org/2000/svg">
<path fill-rule="evenodd" clip-rule="evenodd" d="M5.33 0.916992H14.66C18.06 0.916992 20 2.75699 20 6.02491V14.9757C20 18.2245 18.07 20.0837 14.67 20.0837H5.33C1.92 20.0837 0 18.2245 0 14.9757V6.02491C0 2.75699 1.92 0.916992 5.33 0.916992ZM10.82 11.2957H13.66C14.12 11.2862 14.49 10.9316 14.49 10.4907C14.49 10.0499 14.12 9.69533 13.66 9.69533H10.82V6.99283C10.82 6.55199 10.45 6.19741 9.99 6.19741C9.53 6.19741 9.16 6.55199 9.16 6.99283V9.69533H6.33C6.11 9.69533 5.9 9.78158 5.74 9.92533C5.59 10.0787 5.5 10.279 5.5 10.4907C5.5 10.9316 5.87 11.2862 6.33 11.2957H9.16V14.0078C9.16 14.4487 9.53 14.8032 9.99 14.8032C10.45 14.8032 10.82 14.4487 10.82 14.0078V11.2957Z" fill="white"/>
</svg>
